<svg width="18" height="18" viewBox="0 0 18 18" fill="none" xmlns="http://www.w3.org/2000/svg">
<path d="M16.2217 12.2682L13.6817 11.9782C13.3831 11.9431 13.0803 11.9762 12.7963 12.0749C12.5122 12.1736 12.2543 12.3354 12.0417 12.5482L10.2017 14.3882C7.36293 12.9444 5.05552 10.637 3.61174 7.79819L5.46174 5.94819C5.89174 5.51819 6.10174 4.91819 6.03174 4.30819L5.74174 1.78819C5.68505 1.30037 5.45093 0.850426 5.08398 0.524037C4.71702 0.197648 4.24285 0.0176062 3.75174 0.0181899H2.02174C0.89174 0.0181899 -0.0482601 0.95819 0.0217399 2.08819C0.55174 10.6282 7.38174 17.4482 15.9117 17.9782C17.0417 18.0482 17.9817 17.1082 17.9817 15.9782V14.2482C17.9917 13.2382 17.2317 12.3882 16.2217 12.2682Z" fill="#514C9F"/>
</svg>
