<svg width="146" height="20" viewBox="0 0 146 20" fill="none" xmlns="http://www.w3.org/2000/svg">
<rect x="0.602539" width="144.795" height="19.3305" rx="5.6" fill="white"/>
<g clip-path="url(#clip0_1_1978)">
<path d="M71.0279 0.0980225C70.9544 0.859972 70.8833 1.62192 70.8049 2.38387C70.6481 3.90042 70.4864 5.41452 70.3272 6.93107C70.163 8.49662 69.9989 10.0597 69.8347 11.6424H66.2553C66.2798 11.3876 66.2994 11.1328 66.3263 10.8805C66.515 9.25367 65.1038 7.63177 63.0066 8.35942C61.4386 8.90332 60.5958 10.8119 61.1911 12.3652C61.6027 13.4383 62.6489 14.0238 63.8224 13.8352C63.8788 13.8254 63.9327 13.818 64.0184 13.8082C63.918 14.7613 63.82 15.6923 63.7195 16.6404C63.1854 16.8291 62.6366 16.905 62.0805 16.8903C59.3365 16.807 57.8028 14.7417 57.5235 12.5465C57.2687 10.5448 57.7513 8.73917 59.0792 7.20057C60.1842 5.92167 61.5905 5.20137 63.2932 5.17197C64.6848 5.14747 65.8829 5.58847 66.6595 6.84287C66.6718 6.86247 66.6938 6.87472 66.7404 6.91882C66.7845 6.51457 66.831 6.13727 66.8702 5.76242C67.0589 3.93962 67.2475 2.11927 67.4386 0.296472C67.446 0.230322 67.4656 0.166622 67.4803 0.102922H71.0328L71.0279 0.0980225Z" fill="#F37B20"/>
<path d="M6.15424 0.0980225C6.09789 0.727672 6.04889 1.35732 5.98274 1.98697C5.79164 3.83427 5.59564 5.67912 5.39964 7.52642C5.20854 9.33942 5.01254 11.1524 4.82144 12.9654C4.69404 14.1659 4.56909 15.3664 4.43924 16.6061H0.602539V16.5057C0.617239 16.4616 0.644189 16.4175 0.649089 16.3734C0.903889 13.9503 1.15624 11.5248 1.41349 9.09932C1.69524 6.42637 1.97699 3.75342 2.26364 1.08292C2.29794 0.754622 2.35674 0.428772 2.40329 0.100472H6.15424V0.0980225Z" fill="#F37B20"/>
<path d="M66.9756 17.6057C66.5076 17.4685 66.0764 17.2799 65.7579 16.883C64.9347 15.8589 65.2483 14.2688 66.4243 13.5166C67.3406 12.9311 68.5191 12.9801 69.2345 13.6318C70.0773 14.4035 70.1116 15.7731 69.3104 16.6968C68.9331 17.1304 68.4652 17.4146 67.9066 17.5518C67.86 17.564 67.8184 17.5861 67.7743 17.6032H66.9731L66.9756 17.6057Z" fill="#F37B20"/>
<path d="M34.7849 11.9756C34.4321 12.8159 33.9592 13.5558 33.3516 14.2051C31.6881 15.9887 29.608 16.8339 27.1899 16.9025C25.8007 16.9417 24.4655 16.709 23.2331 16.0426C21.2437 14.967 20.1437 13.2545 19.7713 11.0617C19.171 7.52149 20.9326 3.91264 24.0784 2.17804C25.3867 1.45529 26.7979 1.10984 28.2875 1.07309C29.5933 1.04124 30.8649 1.21029 32.0531 1.78359C34.0425 2.74154 35.1009 4.36344 35.4145 6.53904H31.7395C31.5313 6.16664 31.3671 5.76729 31.1148 5.43899C30.4459 4.56679 29.4953 4.26054 28.4345 4.22624C25.5606 4.13069 23.6251 6.27444 23.3042 8.70484C23.1768 9.67749 23.265 10.6183 23.6864 11.5101C24.4753 13.1834 26.0923 13.9111 27.844 13.7298C29.0813 13.6024 30.0931 13.0511 30.8551 12.0589C30.8992 12.0025 30.9874 11.9511 31.056 11.9511C32.2736 11.9462 33.4888 11.9486 34.7065 11.9511C34.7212 11.9511 34.7383 11.9609 34.7849 11.978V11.9756Z" fill="#F37B20"/>
<path d="M48.2309 11.8948C47.9222 12.9189 48.6351 14.0728 49.7009 14.2884C50.2889 14.4085 50.8793 14.3864 51.4502 14.1806C51.9255 14.0091 52.271 13.6882 52.5209 13.2521C52.565 13.1761 52.6728 13.0855 52.7536 13.0855C53.8292 13.0757 54.9047 13.0781 55.9778 13.0806C56.0023 13.0806 56.0244 13.0904 56.093 13.1051C55.9925 13.3648 55.9117 13.6245 55.7941 13.8646C55.1987 15.0871 54.2187 15.8956 52.979 16.3905C51.4625 16.9932 49.892 17.0888 48.3191 16.6894C46.4228 16.2092 45.2321 14.9891 44.8597 13.0585C44.4432 10.8903 44.8646 8.89597 46.3346 7.19812C47.3563 6.01722 48.6915 5.39737 50.2252 5.20627C51.5016 5.04702 52.7585 5.13767 53.937 5.69872C55.5246 6.45577 56.3624 7.74447 56.5266 9.48397C56.5952 10.2239 56.4801 10.9417 56.2914 11.6571C56.24 11.8507 56.1616 11.8997 55.9705 11.8997C53.4862 11.8923 51.0043 11.8948 48.52 11.8948H48.2309ZM53.0476 9.83432C53.202 8.91067 52.8026 8.08012 52.0456 7.72977C51.0337 7.25937 49.6617 7.57052 48.9586 8.43782C48.6327 8.83962 48.4563 9.30267 48.4146 9.83432H53.0452H53.0476Z" fill="#F37B20"/>
<path d="M9.88551 16.5939H6.33301C6.72501 12.8846 7.11701 9.18508 7.50901 5.47088H11.0468C10.9978 5.95353 10.9488 6.43618 10.8925 6.98498C10.9782 6.88208 11.0248 6.82818 11.0689 6.77428C11.9166 5.70853 13.0607 5.25528 14.3813 5.17933C15.3294 5.12543 16.2531 5.22588 17.0591 5.78203C17.9877 6.42638 18.316 7.38433 18.2964 8.45498C18.2792 9.42763 18.1837 10.4003 18.0906 11.368C17.9264 13.0585 17.7378 14.7466 17.5589 16.4371C17.554 16.4861 17.5467 16.5326 17.5393 16.5914H13.9991C14.0211 16.3268 14.0407 16.0671 14.0677 15.8074C14.2441 14.1512 14.4401 12.4975 14.5871 10.8388C14.6312 10.3415 14.5969 9.81963 14.4989 9.32963C14.3519 8.61423 13.8276 8.23203 13.1048 8.19528C11.9876 8.13893 11.1424 8.67058 10.77 9.76818C10.5764 10.3366 10.4858 10.9466 10.4147 11.5469C10.2212 13.2178 10.0619 14.8911 9.88551 16.5914V16.5939Z" fill="#F37B20"/>
<path d="M39.0725 16.5939H35.52C35.9145 12.8748 36.3065 9.17036 36.6985 5.45861H40.2363C40.1799 6.01231 40.1211 6.56111 40.0574 7.18341C40.6479 6.35776 41.378 5.83101 42.2575 5.51006C43.1371 5.18911 44.0387 5.21116 44.9893 5.35081C44.7859 6.44841 44.5826 7.54111 44.3743 8.64851C44.0754 8.60441 43.7912 8.54071 43.5046 8.52601C42.2355 8.45496 41.0938 8.71956 40.3122 9.83431C39.9202 10.3905 39.7046 11.025 39.6189 11.689C39.4474 13.0365 39.3126 14.3864 39.1632 15.7364C39.1313 16.0181 39.1019 16.2974 39.0701 16.5914L39.0725 16.5939Z" fill="#F37B20"/>
<path d="M79.5245 7.17357L78.3975 16.1014L77.8046 18.201C77.6895 18.5587 77.518 18.8356 77.2926 19.034C77.0672 19.23 76.7462 19.3305 76.3273 19.3305H75.1758L76.6997 7.17357L75.7809 7.01677C75.6021 6.98002 75.4551 6.90652 75.3399 6.79872C75.2248 6.69092 75.1807 6.53167 75.2125 6.32342L75.3522 5.20622H76.9569L77.0623 4.35607C77.148 3.69947 77.3269 3.11147 77.6037 2.58962C77.8781 2.06777 78.2285 1.62432 78.6499 1.25927C79.0713 0.894222 79.5588 0.614922 80.1101 0.421372C80.6613 0.227822 81.2542 0.129822 81.8888 0.129822C82.3837 0.129822 82.8418 0.200872 83.2608 0.342972L83.006 1.77377C82.9668 1.94527 82.859 2.04817 82.6801 2.08002C82.5013 2.11432 82.3004 2.13147 82.075 2.13147C81.7638 2.13147 81.4796 2.17312 81.2199 2.25397C80.9602 2.33482 80.7324 2.46712 80.5339 2.65087C80.3355 2.83462 80.1738 3.07227 80.0464 3.36627C79.919 3.66027 79.8283 4.02042 79.7744 4.44427L79.6813 5.20377H82.3567L82.0897 7.17112H79.5319L79.5245 7.17357Z" fill="#0E489B"/>
<path d="M87.2908 5.1058L85.86 16.5693H83.0352L84.466 5.1058H87.2908ZM88.0234 1.764C88.0234 2.00165 87.9719 2.22705 87.8666 2.4353C87.7612 2.64355 87.624 2.8273 87.455 2.98165C87.2835 3.13845 87.0899 3.2634 86.8743 3.3565C86.6563 3.4496 86.4333 3.49615 86.2006 3.49615C85.9678 3.49615 85.7596 3.4496 85.5489 3.3565C85.3406 3.2634 85.1544 3.13845 84.9903 2.98165C84.8286 2.82485 84.6987 2.64355 84.6007 2.4353C84.5027 2.22705 84.4562 2.0041 84.4562 1.764C84.4562 1.5239 84.5076 1.2985 84.6081 1.0829C84.7085 0.8673 84.8408 0.67865 85.0025 0.5194C85.1642 0.36015 85.3529 0.23275 85.566 0.13965C85.7792 0.04655 85.9972 0 86.2226 0C86.448 0 86.6808 0.04655 86.8964 0.13965C87.1144 0.23275 87.3055 0.3577 87.4721 0.5145C87.6387 0.6713 87.7735 0.8575 87.8739 1.0731C87.9744 1.2887 88.0258 1.519 88.0258 1.76645L88.0234 1.764Z" fill="#0E489B"/>
<path d="M91.7818 7.47494C92.3869 6.61744 93.0558 5.98044 93.7932 5.55904C94.5307 5.13764 95.2902 4.92694 96.0717 4.92694C96.5666 4.92694 97.0125 5.02494 97.4094 5.21849C97.8039 5.41204 98.1297 5.69379 98.387 6.06129C98.6418 6.42879 98.8231 6.88449 98.9284 7.42349C99.0338 7.96249 99.0387 8.57989 98.9456 9.27324L98.0513 16.5693H95.1799L96.0742 9.27324C96.1746 8.52844 96.1354 7.99434 95.959 7.67094C95.7802 7.34754 95.4543 7.18584 94.9815 7.18584C94.663 7.18584 94.3371 7.27404 94.0039 7.44799C93.6707 7.62194 93.3498 7.87184 93.0386 8.19769C92.7275 8.52109 92.4433 8.90819 92.1836 9.35899C91.9239 9.80979 91.7132 10.3145 91.549 10.8731L90.8851 16.5718H88.0137L89.4445 5.09599H90.8973C91.1987 5.09599 91.4339 5.16704 91.6005 5.30914C91.7671 5.45124 91.8504 5.67664 91.8504 5.99024L91.7818 7.47739V7.47494Z" fill="#0E489B"/>
<path d="M107.702 14.1782C107.175 14.9597 106.58 15.582 105.916 16.0451C105.252 16.5081 104.529 16.7384 103.748 16.7384C103.297 16.7384 102.878 16.6527 102.486 16.4812C102.094 16.3097 101.753 16.0549 101.462 15.7168C101.17 15.3787 100.942 14.9524 100.776 14.4428C100.609 13.9332 100.526 13.3354 100.526 12.6494C100.526 11.9634 100.614 11.297 100.793 10.6502C100.972 10.0009 101.224 9.39331 101.555 8.82246C101.883 8.25161 102.283 7.72976 102.748 7.25201C103.214 6.77426 103.735 6.36511 104.311 6.02211C104.889 5.67911 105.512 5.41206 106.183 5.22341C106.854 5.03231 107.56 4.93921 108.305 4.93921C108.839 4.93921 109.375 4.97596 109.914 5.05191C110.453 5.12541 110.978 5.26016 111.49 5.45371L110.059 16.5718H108.535C108.17 16.5718 107.925 16.4836 107.797 16.3097C107.67 16.1357 107.606 15.9177 107.606 15.6555L107.699 14.1806L107.702 14.1782ZM108.493 6.91636C108.385 6.90901 108.283 6.90411 108.185 6.89921C108.087 6.89676 107.993 6.89431 107.9 6.89431C107.256 6.89431 106.661 7.03641 106.109 7.31816C105.558 7.60236 105.085 7.98211 104.686 8.46231C104.287 8.94251 103.973 9.50111 103.745 10.1381C103.517 10.7751 103.402 11.4464 103.402 12.1545C103.402 12.9581 103.534 13.5485 103.797 13.9209C104.061 14.2933 104.421 14.4795 104.877 14.4795C105.196 14.4795 105.507 14.3742 105.813 14.161C106.119 13.9479 106.411 13.6588 106.685 13.2888C106.96 12.9213 107.212 12.4852 107.44 11.9879C107.668 11.4881 107.869 10.9515 108.038 10.3782L108.491 6.91391L108.493 6.91636Z" fill="#0E489B"/>
<path d="M116.481 7.47494C117.086 6.61744 117.755 5.98044 118.492 5.55904C119.229 5.13764 119.989 4.92694 120.77 4.92694C121.265 4.92694 121.711 5.02494 122.108 5.21849C122.503 5.41204 122.828 5.69379 123.086 6.06129C123.341 6.42879 123.522 6.88449 123.627 7.42349C123.733 7.96249 123.737 8.57989 123.644 9.27324L122.75 16.5693H119.879L120.773 9.27324C120.873 8.52844 120.834 7.99434 120.658 7.67094C120.479 7.34754 120.153 7.18584 119.68 7.18584C119.362 7.18584 119.036 7.27404 118.703 7.44799C118.369 7.62194 118.049 7.87184 117.737 8.19769C117.426 8.52109 117.142 8.90819 116.882 9.35899C116.623 9.80979 116.412 10.3145 116.248 10.8731L115.584 16.5718H112.712L114.143 5.09599H115.596C115.897 5.09599 116.133 5.16704 116.299 5.30914C116.466 5.45124 116.549 5.67664 116.549 5.99024L116.481 7.47739V7.47494Z" fill="#0E489B"/>
<path d="M133.03 15.5869C132.67 15.8711 132.302 16.0965 131.93 16.268C131.558 16.4395 131.168 16.5596 130.761 16.6306C130.355 16.7017 129.906 16.736 129.419 16.736C128.728 16.736 128.111 16.6233 127.564 16.3954C127.018 16.1676 126.555 15.8466 126.175 15.4301C125.795 15.0136 125.504 14.5114 125.303 13.9209C125.102 13.3329 125.001 12.6763 125.001 11.9536C125.001 11.3362 125.07 10.731 125.21 10.143C125.349 9.55503 125.55 8.99888 125.815 8.47703C126.079 7.95518 126.396 7.47988 126.768 7.04623C127.14 6.61503 127.559 6.24263 128.025 5.92903C128.49 5.61543 128.995 5.37288 129.541 5.19648C130.088 5.02253 130.668 4.93433 131.281 4.93433C132.072 4.93433 132.743 5.06908 133.297 5.33613C133.851 5.60318 134.341 6.00743 134.767 6.54398L133.848 7.59503C133.787 7.66118 133.709 7.72243 133.616 7.77878C133.523 7.83513 133.422 7.86208 133.314 7.86208C133.182 7.86208 133.064 7.82288 132.959 7.74448C132.854 7.66608 132.731 7.58278 132.587 7.49213C132.442 7.40393 132.266 7.31818 132.053 7.23978C131.839 7.16138 131.563 7.12218 131.222 7.12218C130.781 7.12218 130.357 7.23733 129.955 7.46763C129.551 7.69793 129.196 8.02623 128.885 8.45008C128.574 8.87393 128.329 9.38598 128.147 9.98133C127.966 10.5767 127.873 11.2357 127.873 11.9585C127.873 12.8013 128.066 13.4505 128.454 13.9087C128.841 14.3668 129.367 14.5947 130.034 14.5947C130.328 14.5947 130.587 14.5653 130.813 14.5065C131.038 14.4477 131.237 14.3742 131.411 14.2884C131.585 14.2027 131.739 14.1096 131.869 14.0091C132.001 13.9087 132.124 13.8156 132.241 13.7298C132.356 13.6441 132.469 13.5706 132.572 13.5118C132.677 13.453 132.79 13.4236 132.915 13.4236C133.015 13.4236 133.111 13.4481 133.199 13.4971C133.287 13.5461 133.368 13.6073 133.437 13.6808L134.157 14.531C133.763 14.9475 133.383 15.2978 133.023 15.582L133.03 15.5869Z" fill="#0E489B"/>
<path d="M138.094 11.8997C138.094 13.7029 138.888 14.6045 140.478 14.6045C140.819 14.6045 141.122 14.5726 141.385 14.5089C141.647 14.4452 141.88 14.3693 142.076 14.2811C142.274 14.1904 142.45 14.09 142.61 13.9797C142.769 13.867 142.916 13.7666 143.051 13.6784C143.185 13.5902 143.32 13.5118 143.452 13.4505C143.585 13.3868 143.727 13.3549 143.884 13.3549C143.977 13.3549 144.067 13.377 144.156 13.4211C144.244 13.4652 144.325 13.5265 144.393 13.5999L145.126 14.4501C144.714 14.8446 144.312 15.1876 143.915 15.4791C143.521 15.7707 143.117 16.0083 142.705 16.1945C142.294 16.3807 141.86 16.5179 141.402 16.6086C140.944 16.6968 140.449 16.7433 139.912 16.7433C139.214 16.7433 138.582 16.6306 138.016 16.4028C137.45 16.1749 136.965 15.8564 136.563 15.4424C136.159 15.0283 135.848 14.531 135.627 13.9454C135.407 13.3599 135.296 12.7082 135.296 11.9854C135.296 11.3827 135.365 10.7898 135.5 10.2092C135.634 9.6285 135.83 9.07725 136.088 8.5554C136.343 8.03355 136.659 7.55335 137.029 7.1148C137.401 6.67625 137.82 6.2965 138.29 5.97555C138.758 5.6546 139.275 5.4047 139.836 5.22585C140.397 5.047 141 4.9588 141.644 4.9588C142.289 4.9588 142.808 5.04455 143.278 5.21605C143.746 5.38755 144.138 5.60805 144.452 5.88C144.766 6.15195 145.001 6.45575 145.155 6.7914C145.31 7.12705 145.388 7.45535 145.388 7.77385C145.388 8.28835 145.28 8.7563 145.067 9.1826C144.854 9.60645 144.474 9.9862 143.928 10.3219C143.381 10.6575 142.634 10.9466 141.688 11.1867C140.743 11.4293 139.54 11.6204 138.084 11.7625V11.907L138.094 11.8997ZM141.49 6.87225C141.103 6.87225 140.743 6.9482 140.41 7.10255C140.076 7.25445 139.775 7.47005 139.508 7.74445C139.241 8.0213 139.008 8.3496 138.81 8.73425C138.611 9.1189 138.454 9.53785 138.339 9.9911C139.3 9.8637 140.074 9.72405 140.659 9.57215C141.245 9.42025 141.696 9.2561 142.014 9.0797C142.333 8.90575 142.543 8.71465 142.649 8.50885C142.754 8.30305 142.806 8.0899 142.806 7.86695C142.806 7.75425 142.781 7.6391 142.73 7.5215C142.678 7.40145 142.602 7.2961 142.497 7.203C142.392 7.1099 142.257 7.0315 142.09 6.9678C141.924 6.9041 141.723 6.87225 141.492 6.87225H141.49Z" fill="#0E489B"/>
</g>
<defs>
<clipPath id="clip0_1_1978">
<rect width="144.795" height="19.3305" fill="white" transform="translate(0.602539)"/>
</clipPath>
</defs>
</svg>
