<svg width="30" height="30" viewBox="0 0 30 30" fill="none" xmlns="http://www.w3.org/2000/svg">
<rect width="30" height="30" rx="4" fill="#514C9F"/>
<path d="M14.5245 7.46353C14.6741 7.00287 15.3259 7.00287 15.4755 7.46353L16.9084 11.8734C16.9753 12.0794 17.1673 12.2188 17.3839 12.2188H22.0207C22.505 12.2188 22.7064 12.8387 22.3146 13.1234L18.5633 15.8488C18.3881 15.9761 18.3148 16.2018 18.3817 16.4078L19.8145 20.8176C19.9642 21.2783 19.437 21.6613 19.0451 21.3766L15.2939 18.6512C15.1186 18.5239 14.8814 18.5239 14.7061 18.6512L10.9549 21.3766C10.563 21.6613 10.0358 21.2783 10.1855 20.8176L11.6183 16.4078C11.6852 16.2018 11.6119 15.9761 11.4367 15.8488L7.68544 13.1234C7.29358 12.8387 7.49497 12.2188 7.97933 12.2188H12.6161C12.8327 12.2188 13.0247 12.0794 13.0916 11.8734L14.5245 7.46353Z" fill="#ECEBFF"/>
</svg>
