<svg width="28" height="41" viewBox="0 0 28 41" fill="none" xmlns="http://www.w3.org/2000/svg">
<rect y="0.200195" width="28" height="40" rx="4" fill="#EBFEED"/>
<path d="M13 10.2002H12V13.2002L9 20.2002V28.2002C9 28.7306 9.21071 29.2393 9.58579 29.6144C9.96086 29.9895 10.4696 30.2002 11 30.2002H19C20.1 30.2002 21.31 29.3602 21.7 28.3202L24 22.2002V20.2002C24 19.6698 23.7893 19.1611 23.4142 18.786C23.0391 18.4109 22.5304 18.2002 22 18.2002H15V12.2002C15 11.6698 14.7893 11.1611 14.4142 10.786C14.0391 10.4109 13.5304 10.2002 13 10.2002ZM7 20.2002H4V30.2002H7V20.2002Z" fill="#149540"/>
</svg>
