<svg width="340" height="211" viewBox="0 0 340 211" fill="none" xmlns="http://www.w3.org/2000/svg">
<rect x="118.385" y="32" width="103" height="147" rx="6" fill="#FAE1CD"/>
<path d="M158.385 170C166.885 170 167.385 156.5 172.885 156.5C178.385 156.5 171.885 172.5 176.885 172.5C181.885 172.5 182.885 151 188.885 151C194.885 151 185.885 170 191.385 170C196.885 170 197.885 171.5 200.385 167.5" stroke="#514C9F" stroke-width="3.5" stroke-linecap="round"/>
<path d="M205.104 140.829C205.401 139.858 206.072 139.045 206.968 138.568C207.865 138.091 208.914 137.991 209.885 138.288C210.856 138.585 211.67 139.255 212.146 140.152C212.623 141.049 212.724 142.098 212.427 143.069L211.82 145.05L212.53 145.266C212.97 145.4 213.378 145.62 213.733 145.912C214.088 146.205 214.381 146.564 214.597 146.97C214.813 147.376 214.947 147.82 214.991 148.278C215.035 148.735 214.988 149.197 214.854 149.636L213.931 152.655C213.854 152.909 213.679 153.122 213.444 153.246C213.21 153.371 212.936 153.398 212.682 153.32C212.428 153.243 212.216 153.068 212.091 152.834C211.966 152.599 211.94 152.325 212.017 152.071L212.942 149.052C212.999 148.863 213.019 148.665 213 148.469C212.982 148.273 212.924 148.083 212.832 147.909C212.739 147.735 212.613 147.581 212.461 147.455C212.309 147.33 212.134 147.236 211.945 147.178L211.236 146.964L206.31 163.07C206.161 163.559 205.899 164.007 205.547 164.377L201.562 168.569C201.434 168.703 201.271 168.799 201.091 168.846C200.912 168.893 200.722 168.89 200.545 168.835C200.367 168.781 200.208 168.678 200.086 168.538C199.964 168.398 199.882 168.227 199.852 168.044L198.891 162.344C198.806 161.84 198.84 161.322 198.989 160.833L205.104 140.829Z" fill="#514C9F"/>
<rect x="129.385" y="95" width="82" height="5" rx="2.5" fill="#514C9F"/>
<rect x="129.385" y="109" width="82" height="6" rx="3" fill="#514C9F"/>
<rect x="129.385" y="124" width="52" height="5" rx="2.5" fill="#514C9F"/>
<path d="M144.384 82.4397C140.647 81.224 137.506 78.8854 134.948 75.3504C132.299 71.6867 130.978 67.5767 130.978 62.9703V52.4865L144.384 47.4783L157.79 52.4865V62.9703C157.79 67.5766 156.469 71.6858 153.821 75.348C151.263 78.8846 148.122 81.224 144.384 82.4397Z" fill="white" fill-opacity="0.6" stroke="#514C9F" stroke-width="3.2175"/>
<path d="M144.63 70.9852C143.295 70.9852 142.287 70.6182 141.606 69.8841C140.939 69.1367 140.605 68.1023 140.605 66.781V63.8981C141.887 63.8981 142.908 63.8581 143.669 63.778C144.443 63.6846 145.017 63.5111 145.39 63.2575C145.777 62.9905 146.031 62.5968 146.151 62.0763C146.271 61.5558 146.331 60.8618 146.331 59.9942V57.4517H147.913V59.9942C147.913 60.9552 147.819 61.7627 147.633 62.4166C147.459 63.0706 147.152 63.5978 146.712 63.9982C146.284 64.3853 145.697 64.6656 144.95 64.8391C144.216 64.9992 143.295 65.0793 142.187 65.0793V66.8411C142.187 67.6952 142.374 68.3826 142.748 68.9031C143.121 69.4103 143.755 69.6639 144.65 69.6639C145.477 69.6639 146.078 69.4236 146.451 68.9432C146.838 68.4627 147.032 67.802 147.032 66.9612H148.593C148.58 68.2825 148.226 69.2835 147.532 69.9642C146.852 70.6449 145.884 70.9852 144.63 70.9852ZM139.725 61.4557V60.2545H150.575V61.4557H139.725ZM139.725 57.9522V56.731H150.575V57.9522H139.725Z" fill="#514C9F" stroke="#514C9F" stroke-width="0.715"/>
</svg>
