<svg width="125" height="125" viewBox="0 0 125 125" fill="none" xmlns="http://www.w3.org/2000/svg">
<g filter="url(#filter0_d_267_1915)">
<circle cx="65.0484" cy="59.4" r="59.4" fill="#FFE4A2"/>
<path d="M82.487 63.791C80.6063 62.676 78.1764 63.2979 77.0619 65.1799C74.8557 68.904 70.6656 71.2171 66.1274 71.2171C61.4719 71.2171 57.2407 68.7757 55.0854 64.8454C54.0341 62.9279 51.6275 62.2253 49.7093 63.2772C47.7912 64.3285 47.0892 66.7357 48.1411 68.6533C51.6873 75.1199 58.5793 79.1373 66.1274 79.1373C73.45 79.1373 80.251 75.3358 83.8759 69.216C84.991 67.3346 84.3691 64.9054 82.487 63.791Z" fill="#514C9F"/>
<path d="M64.9488 0.400146C50.0603 0.400146 36.0503 5.83419 25.1281 15.7594C23.013 14.5098 20.9511 13.8638 18.9731 13.8638C7.39854 13.8638 6.49883 33.1417 6.49883 39.0501C6.49883 41.0217 6.86949 42.9756 7.52645 44.7392C6.23562 49.6091 5.54883 54.6617 5.54883 59.8001C5.54883 92.5533 32.1957 119.2 64.9488 119.2C97.702 119.2 124.349 92.5533 124.349 59.8001C124.349 27.047 97.702 0.400146 64.9488 0.400146ZM18.9731 21.7838C19.3154 21.7838 20.6141 21.9371 22.993 23.9326C24.7094 25.3429 26.5374 27.4588 28.271 30.0396C30.875 33.9454 32.041 37.3794 32.041 39.0501C32.041 43.919 28.0796 47.8803 23.2103 47.8803C21.2696 47.8803 19.5048 47.2049 17.9625 46.0543C16.7494 45.1798 15.8266 43.9898 15.2169 42.6295C14.6972 41.5373 14.4188 40.3024 14.4188 39.0503C14.4188 29.3261 16.8668 21.7838 18.9731 21.7838ZM64.9488 111.28C36.5624 111.28 13.4688 88.1866 13.4688 59.8001C13.4688 57.4805 13.6222 55.1801 13.9271 52.914C14.0067 52.9691 14.0904 53.016 14.1708 53.0696C14.3297 53.1756 14.4906 53.2772 14.6527 53.3773C14.8577 53.504 15.0647 53.6262 15.2742 53.7432C15.4396 53.8356 15.6062 53.9252 15.7742 54.0116C15.9884 54.1215 16.2049 54.2251 16.4234 54.3251C16.5933 54.4029 16.7632 54.4798 16.9355 54.5514C17.1595 54.6446 17.3863 54.7298 17.6142 54.8127C17.7867 54.8755 17.9585 54.9392 18.1332 54.9961C18.3689 55.0728 18.6079 55.1395 18.847 55.2054C19.0188 55.2526 19.1896 55.303 19.363 55.3446C19.6149 55.4049 19.87 55.453 20.1253 55.5013C20.291 55.5327 20.4553 55.5693 20.6224 55.5956C20.9054 55.6402 21.1918 55.6699 21.4783 55.6997C21.6213 55.7145 21.7624 55.7367 21.9061 55.7477C22.3376 55.7813 22.7723 55.8 23.2103 55.8C32.4465 55.8 39.961 48.2861 39.961 39.0499C39.961 33.8562 36.3942 27.9459 34.8531 25.6346C34.281 24.7828 33.7013 23.9793 33.117 23.216C32.9408 22.9857 32.7614 22.783 32.5841 22.561C32.1719 22.0443 31.7594 21.5318 31.3431 21.0608C31.3043 21.017 31.2665 20.9647 31.2277 20.9213C40.5727 12.768 52.403 8.32015 64.9488 8.32015C93.3353 8.32015 116.429 31.4137 116.429 59.8001C116.429 88.1866 93.3353 111.28 64.9488 111.28Z" fill="#514C9F"/>
<path d="M22.9922 23.9325C20.6133 21.9371 19.3145 21.7837 18.9722 21.7837C16.8659 21.7837 14.418 29.326 14.418 39.0502C14.418 40.3024 14.6964 41.5372 15.216 42.6294C15.8258 43.9898 16.7485 45.1797 17.9616 46.0543C19.504 47.2048 21.2687 47.8802 23.2094 47.8802C28.0788 47.8802 32.0401 43.9189 32.0401 39.0501C32.0401 37.3794 30.8741 33.9454 28.2702 30.0395C26.5365 27.4588 24.7086 25.3428 22.9922 23.9325Z" fill="#B9B7D9"/>
<path d="M53.517 26.9606C52.1493 25.2565 49.6556 24.9832 47.9502 26.3529L37.4005 34.8253C35.695 36.1942 35.4231 38.6867 36.7927 40.3921C37.5746 41.366 38.7231 41.8726 39.8826 41.8726C40.7527 41.8726 41.6287 41.5871 42.3596 41L52.9093 32.5276C54.6146 31.1584 54.8866 28.666 53.517 26.9606Z" fill="#514C9F"/>
<path d="M92.2243 34.0654L80.3443 26.1454C78.5242 24.9312 76.0646 25.4242 74.8529 27.2437C73.6399 29.0632 74.1316 31.5221 75.9511 32.7351L87.8311 40.6551C88.5059 41.105 89.2691 41.321 90.0238 41.321C91.3038 41.321 92.5594 40.7016 93.3224 39.5569C94.5355 37.7373 94.0438 35.2785 92.2243 34.0654Z" fill="#514C9F"/>
<path d="M52.4088 57.1601C55.6893 57.1601 58.3488 53.6142 58.3488 49.2401C58.3488 44.866 55.6893 41.3201 52.4088 41.3201C49.1282 41.3201 46.4688 44.866 46.4688 49.2401C46.4688 53.6142 49.1282 57.1601 52.4088 57.1601Z" fill="#514C9F"/>
<path d="M80.1275 57.1603C83.4081 57.1603 86.0675 53.6144 86.0675 49.2403C86.0675 44.8662 83.4081 41.3203 80.1275 41.3203C76.8469 41.3203 74.1875 44.8662 74.1875 49.2403C74.1875 53.6144 76.8469 57.1603 80.1275 57.1603Z" fill="#514C9F"/>
</g>
<defs>
<filter id="filter0_d_267_1915" x="0.268828" y="0" width="124.18" height="124.48" filterUnits="userSpaceOnUse" color-interpolation-filters="sRGB">
<feFlood flood-opacity="0" result="BackgroundImageFix"/>
<feColorMatrix in="SourceAlpha" type="matrix" values="0 0 0 0 0 0 0 0 0 0 0 0 0 0 0 0 0 0 127 0" result="hardAlpha"/>
<feOffset dx="-5.28" dy="5.28"/>
<feComposite in2="hardAlpha" operator="out"/>
<feColorMatrix type="matrix" values="0 0 0 0 0.317647 0 0 0 0 0.298039 0 0 0 0 0.623529 0 0 0 0.4 0"/>
<feBlend mode="normal" in2="BackgroundImageFix" result="effect1_dropShadow_267_1915"/>
<feBlend mode="normal" in="SourceGraphic" in2="effect1_dropShadow_267_1915" result="shape"/>
</filter>
</defs>
</svg>
