<svg width="50" height="50" viewBox="0 0 50 50" fill="none" xmlns="http://www.w3.org/2000/svg">
<path d="M50 25C50 11.1929 38.8071 0 25 0C11.1929 0 0 11.1929 0 25C0 38.8071 11.1929 50 25 50C38.8071 50 50 38.8071 50 25Z" fill="#F1F4FA"/>
<path d="M19.3628 20.9082C19.3628 22.0733 19.7083 23.2123 20.3556 24.1811C21.0029 25.1499 21.923 25.9049 22.9994 26.3508C24.0759 26.7967 25.2604 26.9133 26.4031 26.686C27.5459 26.4587 28.5955 25.8977 29.4194 25.0738C30.2433 24.2499 30.8044 23.2002 31.0317 22.0575C31.259 20.9147 31.1423 19.7302 30.6964 18.6538C30.2505 17.5774 29.4955 16.6573 28.5267 16.01C27.5579 15.3627 26.419 15.0172 25.2538 15.0172C23.692 15.0189 22.1946 15.6402 21.0902 16.7446C19.9858 17.849 19.3646 19.3463 19.3628 20.9082ZM25.2538 15.8297C26.2583 15.8297 27.2401 16.1275 28.0753 16.6856C28.9105 17.2436 29.5614 18.0367 29.9458 18.9647C30.3302 19.8927 30.4307 20.9138 30.2348 21.899C30.0388 22.8841 29.5551 23.789 28.8449 24.4993C28.1346 25.2095 27.2297 25.6932 26.2446 25.8891C25.2595 26.0851 24.2383 25.9845 23.3104 25.6001C22.3824 25.2158 21.5892 24.5648 21.0312 23.7297C20.4731 22.8945 20.1753 21.9126 20.1753 20.9082C20.1768 19.5618 20.7124 18.2709 21.6644 17.3188C22.6165 16.3667 23.9074 15.8312 25.2538 15.8297Z" fill="#514C9F" stroke="#514C9F" stroke-width="0.25"/>
<path d="M23.0002 19.6641C23.0002 19.7718 23.043 19.8751 23.1192 19.9513C23.1954 20.0275 23.2987 20.0703 23.4064 20.0703H25.5703C25.4874 20.2962 25.3364 20.4909 25.1382 20.6273C24.9399 20.7637 24.7042 20.8353 24.4636 20.832H23.4064C23.3253 20.8313 23.2459 20.855 23.1785 20.9002C23.1111 20.9453 23.0589 21.0098 23.0287 21.0851C22.9985 21.1604 22.9918 21.243 23.0093 21.3222C23.0269 21.4014 23.0679 21.4735 23.1271 21.529L25.7695 24.0251C25.8475 24.0991 25.9516 24.1392 26.0591 24.1364C26.1666 24.1336 26.2686 24.0882 26.3426 24.0102C26.4166 23.9323 26.4567 23.8281 26.4539 23.7206C26.4511 23.6131 26.4057 23.5111 26.3277 23.4371L24.4278 21.6445H24.4634C25.4222 21.6445 26.2249 20.9336 26.413 20.0703H27.1008C27.2085 20.0703 27.3118 20.0275 27.388 19.9513C27.4642 19.8751 27.507 19.7718 27.507 19.6641C27.507 19.5563 27.4642 19.453 27.388 19.3768C27.3118 19.3006 27.2085 19.2578 27.1008 19.2578H26.4132C26.3537 18.9665 26.236 18.6901 26.0673 18.4453H27.101C27.2087 18.4453 27.312 18.4025 27.3882 18.3263C27.4644 18.2501 27.5072 18.1468 27.5072 18.0391C27.5072 17.9313 27.4644 17.828 27.3882 17.7518C27.312 17.6756 27.2087 17.6328 27.101 17.6328H23.4064C23.2987 17.6328 23.1954 17.6756 23.1192 17.7518C23.043 17.828 23.0002 17.9313 23.0002 18.0391C23.0002 18.1468 23.043 18.2501 23.1192 18.3263C23.1954 18.4025 23.2987 18.4453 23.4064 18.4453H24.4636C24.971 18.4453 25.4044 18.8008 25.5703 19.2578H23.4064C23.2987 19.2578 23.1954 19.3006 23.1192 19.3768C23.043 19.453 23.0002 19.5563 23.0002 19.6641Z" fill="#514C9F" stroke="#514C9F" stroke-width="0.25"/>
<path d="M33.1475 27.7753L29.9667 29.2784C29.8581 29.0771 29.7234 28.891 29.5662 28.7249C29.3329 28.477 29.0527 28.2778 28.7419 28.139C28.431 28.0001 28.0958 27.9242 27.7554 27.9158L24.8176 27.8348C24.3523 27.8214 23.896 27.7035 23.4824 27.4899L23.1835 27.3351C22.4294 26.942 21.5913 26.7372 20.7409 26.738C19.8905 26.7389 19.0529 26.9455 18.2996 27.3402L18.3182 26.6629C18.3212 26.5552 18.2812 26.4507 18.2072 26.3725C18.1331 26.2942 18.031 26.2486 17.9233 26.2456L14.7018 26.157C14.5942 26.1546 14.49 26.1945 14.4114 26.268C14.3726 26.3047 14.3415 26.3486 14.3197 26.3973C14.2979 26.4461 14.2859 26.4986 14.2844 26.5519L14.09 33.6213C14.087 33.729 14.127 33.8334 14.2011 33.9117C14.2751 33.9899 14.3772 34.0356 14.4849 34.0385L17.7064 34.1272H17.7178C17.8235 34.1271 17.9251 34.0858 18.0009 34.012C18.0767 33.9383 18.1207 33.8378 18.1237 33.7321L18.1329 33.3939L18.9699 32.9458C19.2983 32.769 19.6825 32.727 20.0414 32.8284L25.0388 34.2312C25.0475 34.2337 25.0563 34.2359 25.0652 34.2377C25.4264 34.3132 25.7945 34.3512 26.1635 34.351C26.9451 34.3515 27.7176 34.183 28.4279 33.857C28.4454 33.8489 28.4622 33.8396 28.4784 33.8291L35.7243 29.142C35.8112 29.0858 35.8734 28.9985 35.8982 28.898C35.9229 28.7974 35.9083 28.6912 35.8574 28.6011C35.5984 28.1415 35.1724 27.7993 34.6678 27.6456C34.1632 27.4918 33.6188 27.5383 33.1475 27.7753ZM14.9134 33.2375L15.0856 26.9803L17.4948 27.0467L17.3226 33.3039L14.9134 33.2375ZM28.062 33.1313C27.1794 33.5294 26.1938 33.6394 25.2451 33.4455L20.2611 32.0465C19.7002 31.8881 19.0998 31.9538 18.5865 32.2297L18.1589 32.4587L18.2734 28.2984C18.9387 27.8558 19.7106 27.6 20.5086 27.5574C21.3066 27.5149 22.1013 27.6873 22.8099 28.0565L23.1088 28.2114C23.6313 28.4811 24.2077 28.63 24.7954 28.647L27.7332 28.7278C28.1342 28.739 28.5197 28.8853 28.8272 29.143C29.1346 29.4007 29.3461 29.7546 29.4273 30.1475L25.0507 30.0268C24.9429 30.0239 24.8384 30.0638 24.7601 30.1379C24.6818 30.212 24.6362 30.3142 24.6332 30.4219C24.6303 30.5296 24.6702 30.6342 24.7443 30.7124C24.8184 30.7907 24.9205 30.8364 25.0283 30.8393L29.8576 30.9722H29.8689C29.9747 30.9722 30.0763 30.9309 30.1521 30.8571C30.2279 30.7833 30.2719 30.6829 30.2748 30.5772C30.2797 30.4005 30.2666 30.2239 30.2359 30.0499L33.4996 28.5079L33.5092 28.5033C33.7352 28.3888 33.9909 28.3462 34.2418 28.3814C34.4927 28.4165 34.7269 28.5277 34.9127 28.6998L28.062 33.1313Z" fill="#514C9F" stroke="#514C9F" stroke-width="0.25"/>
<path d="M25.6602 13.9258V10.0664C25.6602 9.95866 25.6174 9.85533 25.5412 9.77914C25.465 9.70296 25.3617 9.66016 25.2539 9.66016C25.1462 9.66016 25.0428 9.70296 24.9666 9.77914C24.8905 9.85533 24.8477 9.95866 24.8477 10.0664V13.9258C24.8477 14.0335 24.8905 14.1369 24.9666 14.213C25.0428 14.2892 25.1462 14.332 25.2539 14.332C25.3617 14.332 25.465 14.2892 25.5412 14.213C25.6174 14.1369 25.6602 14.0335 25.6602 13.9258ZM28.707 13.9258V12.0977C28.707 11.9899 28.6642 11.8866 28.588 11.8104C28.5119 11.7342 28.4085 11.6914 28.3008 11.6914C28.193 11.6914 28.0897 11.7342 28.0135 11.8104C27.9373 11.8866 27.8945 11.9899 27.8945 12.0977V13.9258C27.8945 14.0335 27.9373 14.1369 28.0135 14.213C28.0897 14.2892 28.193 14.332 28.3008 14.332C28.4085 14.332 28.5119 14.2892 28.588 14.213C28.6642 14.1369 28.707 14.0335 28.707 13.9258ZM22.6133 13.9258V12.0977C22.6133 11.9899 22.5705 11.8866 22.4943 11.8104C22.4181 11.7342 22.3148 11.6914 22.207 11.6914C22.0993 11.6914 21.996 11.7342 21.9198 11.8104C21.8436 11.8866 21.8008 11.9899 21.8008 12.0977V13.9258C21.8008 14.0335 21.8436 14.1369 21.9198 14.213C21.996 14.2892 22.0993 14.332 22.207 14.332C22.3148 14.332 22.4181 14.2892 22.4943 14.213C22.5705 14.1369 22.6133 14.0335 22.6133 13.9258Z" fill="#514C9F" stroke="#514C9F" stroke-width="0.25"/>
</svg>
