<svg width="50" height="50" viewBox="0 0 50 50" fill="none" xmlns="http://www.w3.org/2000/svg">
<path d="M50 25C50 11.1929 38.8071 0 25 0C11.1929 0 0 11.1929 0 25C0 38.8071 11.1929 50 25 50C38.8071 50 50 38.8071 50 25Z" fill="#F1F4FA"/>
<path d="M20.1941 37.9665C21.433 39.2053 23.1126 39.9022 24.8645 39.9043C26.6164 39.9021 28.2959 39.2052 29.5347 37.9664C30.7736 36.7274 31.4704 35.0476 31.4723 33.2956V23.423H28.6874V33.2956V33.2961H28.1874L20.1941 37.9665ZM20.1941 37.9665C18.9553 36.7276 18.2584 35.0478 18.2563 33.2958M20.1941 37.9665L18.2563 33.2958M18.2563 33.2958V23.423H21.0413L21.0413 33.2956C21.0413 33.2957 21.0413 33.2958 21.0413 33.2959V33.2961H21.5413L18.2563 33.2958Z" fill="#BBB8DF" stroke="#514C9F"/>
<path d="M21.5416 22.9229H17.7566V25.8102H21.5416V22.9229Z" fill="#514C9F"/>
<path d="M31.9725 22.9229H28.1875V25.8102H31.9725V22.9229Z" fill="#514C9F"/>
<path d="M30.5396 18.745L29.2058 20.8272H30.3149L29.9492 22.4909L31.4477 20.2813L30.2442 20.1587L30.5396 18.745Z" fill="#EA6B0C"/>
<path d="M33.5846 19.1034L31.6387 20.6291L32.6857 20.9949L31.7916 22.4448L33.935 20.8531L32.8393 20.3405L33.5846 19.1034Z" fill="#EA6B0C"/>
<path d="M26.9059 19.1034L28.8518 20.6291L27.8048 20.9949L28.6989 22.4448L26.5552 20.8531L27.6509 20.3405L26.9059 19.1034Z" fill="#EA6B0C"/>
<path d="M20.049 18.745L18.7156 20.8272H19.8247L19.4589 22.4909L20.9572 20.2813L19.7537 20.1587L20.049 18.745Z" fill="#EA6B0C"/>
<path d="M23.0941 19.1034L21.1482 20.6291L22.1952 20.9949L21.3012 22.4448L23.4448 20.8531L22.3492 20.3405L23.0941 19.1034Z" fill="#EA6B0C"/>
<path d="M16.4153 19.1034L18.3613 20.6291L17.3142 20.9949L18.2083 22.4448L16.0649 20.8531L17.1606 20.3405L16.4153 19.1034Z" fill="#EA6B0C"/>
<path d="M25 12C26.105 12 27 11.105 27 10C27 8.895 26.105 8 25 8C23.895 8 23 8.895 23 10C23 11.105 23.895 12 25 12ZM25 13C23.665 13 21 13.67 21 15V15.5C21 15.775 21.225 16 21.5 16H28.5C28.775 16 29 15.775 29 15.5V15C29 13.67 26.335 13 25 13Z" fill="#514C9F"/>
</svg>
