<svg width="48" height="48" viewBox="0 0 48 48" fill="none" xmlns="http://www.w3.org/2000/svg">
<path d="M45.875 11.5H33.375V2.125C33.375 1.7106 33.2104 1.31317 32.9174 1.02015C32.6243 0.72712 32.2269 0.5625 31.8125 0.5625H16.1875C15.7731 0.5625 15.3757 0.72712 15.0826 1.02015C14.7896 1.31317 14.625 1.7106 14.625 2.125V11.5H2.125C1.7106 11.5 1.31317 11.6646 1.02015 11.9576C0.72712 12.2507 0.5625 12.6481 0.5625 13.0625V22.4375C0.5625 22.8519 0.72712 23.2493 1.02015 23.5424C1.31317 23.8354 1.7106 24 2.125 24H6.8125V45.875C6.8125 46.2894 6.97712 46.6868 7.27015 46.9799C7.56317 47.2729 7.9606 47.4375 8.375 47.4375H39.625C40.0394 47.4375 40.4368 47.2729 40.7299 46.9799C41.0229 46.6868 41.1875 46.2894 41.1875 45.875V24H45.875C46.2894 24 46.6868 23.8354 46.9799 23.5424C47.2729 23.2493 47.4375 22.8519 47.4375 22.4375V13.0625C47.4375 12.6481 47.2729 12.2507 46.9799 11.9576C46.6868 11.6646 46.2894 11.5 45.875 11.5ZM17.75 3.6875H30.25V16.1875H17.75V3.6875ZM17.75 44.3125V34.9375H22.4375V44.3125H17.75ZM25.5625 44.3125V34.9375H30.25V44.3125H25.5625ZM38.0625 44.3125H33.375V33.375C33.375 32.9606 33.2104 32.5632 32.9174 32.2701C32.6243 31.9771 32.2269 31.8125 31.8125 31.8125H16.1875C15.7731 31.8125 15.3757 31.9771 15.0826 32.2701C14.7896 32.5632 14.625 32.9606 14.625 33.375V44.3125H9.9375V24H38.0625V44.3125ZM44.3125 20.875H3.6875V14.625H14.625V17.75C14.625 18.1644 14.7896 18.5618 15.0826 18.8549C15.3757 19.1479 15.7731 19.3125 16.1875 19.3125H31.8125C32.2269 19.3125 32.6243 19.1479 32.9174 18.8549C33.2104 18.5618 33.375 18.1644 33.375 17.75V14.625H44.3125V20.875Z" fill="#514C9F"/>
</svg>
