<svg width="64" height="64" viewBox="0 0 64 64" fill="none" xmlns="http://www.w3.org/2000/svg">
<path d="M56.4608 36.9845C56.5711 37.0967 56.6679 37.1959 56.7505 37.281L55.659 38.3011C55.6589 38.3011 55.6589 38.3011 55.6588 38.3012L55.6586 38.3014L55.2672 38.6667L55.6557 39.0293L55.6587 39.032L55.6589 39.0322L56.7505 40.0522C56.6679 40.1374 56.5712 40.2366 56.461 40.3484L56.4608 40.3487C56.0563 40.7601 55.4695 41.3444 54.7339 42.0448C53.2644 43.4436 51.1926 45.3117 48.7873 47.1836C46.3864 49.0521 43.624 50.9477 40.7734 52.3816C37.9403 53.8067 34.9089 54.8334 32 54.8334C29.0911 54.8334 26.0597 53.8067 23.2266 52.3816C20.3762 50.9477 17.6135 49.0521 15.2128 47.1836L15.2127 47.1836C12.8073 45.3117 10.7355 43.4436 9.2661 42.0448C8.53043 41.3444 7.94362 40.7601 7.53912 40.3487L7.53886 40.3484C7.42907 40.2369 7.33263 40.138 7.25022 40.0529L8.34116 39.0322L8.34161 39.0318L8.34177 39.0316L8.73277 38.6667L8.34139 38.3014L8.3412 38.3012L7.2495 37.281C7.332 37.1959 7.42873 37.0967 7.53901 36.9846C7.94365 36.5733 8.53048 35.9886 9.26607 35.2883C10.7355 33.8898 12.8074 32.0214 15.2127 30.1495L15.2128 30.1495C17.6135 28.281 20.3762 26.3856 23.2267 24.9516C26.0597 23.5264 29.0911 22.4999 32 22.4999C34.9089 22.4999 37.9404 23.5264 40.7734 24.9516L40.9981 24.505L40.7734 24.9516C43.624 26.3856 46.3864 28.281 48.7873 30.1495L49.0944 29.755L48.7873 30.1495C51.1926 32.0214 53.2644 33.8898 54.734 35.2884C55.4694 35.9886 56.0561 36.5732 56.4608 36.9845ZM6.62526 38.0672C6.77821 38.21 6.98573 38.4038 7.26729 38.6667C6.98592 38.9294 6.7785 39.1232 6.62558 39.2663C6.45979 38.8848 6.45966 38.4485 6.62526 38.0672ZM57.3748 38.0672C57.5406 38.4486 57.5406 38.8847 57.3748 39.2661C57.2218 39.1232 57.0143 38.9295 56.7328 38.6667C57.0143 38.4038 57.2219 38.21 57.3748 38.0672Z" fill="white" stroke="#514C9F"/>
<mask id="path-2-inside-1_293_8469" fill="white">
<path fill-rule="evenodd" clip-rule="evenodd" d="M32.0002 30C27.2138 30 23.3335 33.88 23.3335 38.6667C23.3335 43.4531 27.2138 47.3333 32.0002 47.3333C36.7866 47.3333 40.6668 43.4531 40.6668 38.6667C40.6668 33.88 36.7866 30 32.0002 30ZM50.6668 10.6667L52.0426 9.21503C51.2711 8.48391 50.0626 8.48391 49.2911 9.21503L50.6668 10.6667ZM50.6668 10.6667C49.2911 9.21503 49.2914 9.21479 49.2911 9.21503L49.2884 9.21753L49.2839 9.22188L49.269 9.23607L49.2172 9.2858C49.1735 9.32823 49.1108 9.38897 49.0327 9.46631C48.8762 9.62081 48.6554 9.84212 48.3919 10.1161C47.8671 10.6617 47.162 11.427 46.4514 12.2967C45.7471 13.1587 45.0023 14.1658 44.4242 15.1928C43.8759 16.1662 43.3335 17.4043 43.3335 18.6667C43.3335 22.7168 46.6167 26 50.6668 26C54.717 26 58.0002 22.7168 58.0002 18.6667C58.0002 17.4043 57.4578 16.1662 56.9095 15.1928C56.3314 14.1658 55.5866 13.1587 54.8823 12.2967C54.1716 11.427 53.4666 10.6617 52.9418 10.1161C52.6783 9.84212 52.4575 9.62081 52.301 9.46631C52.2228 9.38897 52.1602 9.32823 52.1164 9.2858L52.0647 9.23607L52.0498 9.22188L52.0452 9.21753L52.0426 9.21503C52.0423 9.21479 52.0426 9.21503 50.6668 10.6667Z"/>
</mask>
<path fill-rule="evenodd" clip-rule="evenodd" d="M32.0002 30C27.2138 30 23.3335 33.88 23.3335 38.6667C23.3335 43.4531 27.2138 47.3333 32.0002 47.3333C36.7866 47.3333 40.6668 43.4531 40.6668 38.6667C40.6668 33.88 36.7866 30 32.0002 30ZM50.6668 10.6667L52.0426 9.21503C51.2711 8.48391 50.0626 8.48391 49.2911 9.21503L50.6668 10.6667ZM50.6668 10.6667C49.2911 9.21503 49.2914 9.21479 49.2911 9.21503L49.2884 9.21753L49.2839 9.22188L49.269 9.23607L49.2172 9.2858C49.1735 9.32823 49.1108 9.38897 49.0327 9.46631C48.8762 9.62081 48.6554 9.84212 48.3919 10.1161C47.8671 10.6617 47.162 11.427 46.4514 12.2967C45.7471 13.1587 45.0023 14.1658 44.4242 15.1928C43.8759 16.1662 43.3335 17.4043 43.3335 18.6667C43.3335 22.7168 46.6167 26 50.6668 26C54.717 26 58.0002 22.7168 58.0002 18.6667C58.0002 17.4043 57.4578 16.1662 56.9095 15.1928C56.3314 14.1658 55.5866 13.1587 54.8823 12.2967C54.1716 11.427 53.4666 10.6617 52.9418 10.1161C52.6783 9.84212 52.4575 9.62081 52.301 9.46631C52.2228 9.38897 52.1602 9.32823 52.1164 9.2858L52.0647 9.23607L52.0498 9.22188L52.0452 9.21753L52.0426 9.21503C52.0423 9.21479 52.0426 9.21503 50.6668 10.6667Z" fill="#514C9F"/>
<path d="M50.6668 10.6667L49.941 11.3546L50.6668 12.1204L51.3927 11.3546L50.6668 10.6667ZM49.2884 9.21753L48.6034 8.48901L48.5966 8.49546L49.2884 9.21753ZM49.2839 9.22188L49.9727 9.94688L49.9757 9.94395L49.2839 9.22188ZM49.269 9.23607L48.5802 8.51106L48.5759 8.51517L49.269 9.23607ZM49.2172 9.2858L48.5242 8.5649L48.5209 8.56805L49.2172 9.2858ZM49.0327 9.46631L49.7352 10.178L49.7362 10.177L49.0327 9.46631ZM48.3919 10.1161L49.1126 10.8093L49.1127 10.8092L48.3919 10.1161ZM46.4514 12.2967L45.677 11.6639L45.6769 11.664L46.4514 12.2967ZM44.4242 15.1928L45.2955 15.6836L45.2956 15.6834L44.4242 15.1928ZM56.9095 15.1928L56.0381 15.6834L56.0382 15.6836L56.9095 15.1928ZM54.8823 12.2967L55.6567 11.664L55.6566 11.6639L54.8823 12.2967ZM52.9418 10.1161L52.221 10.8092L52.221 10.8093L52.9418 10.1161ZM52.301 9.46631L51.5975 10.177L51.5985 10.178L52.301 9.46631ZM52.1164 9.2858L52.8127 8.56805L52.8095 8.5649L52.1164 9.2858ZM52.0647 9.23607L52.7578 8.51516L52.7535 8.51107L52.0647 9.23607ZM52.0498 9.22188L51.3579 9.94396L51.361 9.94687L52.0498 9.22188ZM52.0452 9.21753L52.7371 8.49543L52.7303 8.48904L52.0452 9.21753ZM32.0002 29C26.6615 29 22.3335 33.3277 22.3335 38.6667H24.3335C24.3335 34.4323 27.766 31 32.0002 31V29ZM22.3335 38.6667C22.3335 44.0054 26.6615 48.3333 32.0002 48.3333V46.3333C27.766 46.3333 24.3335 42.9008 24.3335 38.6667H22.3335ZM32.0002 48.3333C37.3388 48.3333 41.6668 44.0054 41.6668 38.6667H39.6668C39.6668 42.9008 36.2343 46.3333 32.0002 46.3333V48.3333ZM41.6668 38.6667C41.6668 33.3277 37.3388 29 32.0002 29V31C36.2343 31 39.6668 34.4323 39.6668 38.6667H41.6668ZM51.3927 11.3546L52.7684 9.9029L51.3167 8.52716L49.941 9.97881L51.3927 11.3546ZM52.7304 8.4892C51.5732 7.39252 49.7604 7.39252 48.6032 8.4892L49.979 9.94086C50.3647 9.5753 50.969 9.5753 51.3547 9.94086L52.7304 8.4892ZM48.5653 9.9029L49.941 11.3546L51.3927 9.97881L50.0169 8.52716L48.5653 9.9029ZM51.3927 9.97881C50.7048 9.25303 50.361 8.89011 50.1891 8.70865C50.1033 8.61811 50.06 8.57236 50.0382 8.54935C50.028 8.53859 50.0205 8.53069 50.0154 8.52538C50.0139 8.52387 50.0116 8.52147 50.0089 8.51872C50.0071 8.51689 50.0009 8.51045 49.9929 8.50255C49.9889 8.49868 49.9806 8.49051 49.9697 8.48048C49.9625 8.47385 49.9358 8.44912 49.8988 8.42083C49.8801 8.40654 49.8433 8.37927 49.7934 8.3503C49.7499 8.32507 49.6485 8.26981 49.5065 8.23848C49.3387 8.20149 49.1238 8.20056 48.9035 8.2932C48.7234 8.36891 48.6038 8.48822 48.6221 8.47173L49.9601 9.95832C49.9784 9.94183 49.8588 10.0611 49.6787 10.1368C49.4584 10.2295 49.2435 10.2285 49.0758 10.1916C48.9337 10.1602 48.8323 10.105 48.7889 10.0798C48.739 10.0508 48.7022 10.0235 48.6835 10.0093C48.6466 9.98102 48.6199 9.95635 48.6128 9.94981C48.6021 9.93988 48.5939 9.93184 48.5901 9.92813C48.5824 9.92058 48.5767 9.91466 48.5757 9.91362C48.5737 9.91165 48.5725 9.91031 48.5724 9.9102C48.5721 9.90994 48.5729 9.91074 48.5757 9.91369C48.5783 9.91643 48.582 9.92032 48.5872 9.92587C48.6084 9.9482 48.6511 9.99319 48.7372 10.0841C48.9092 10.2657 49.2531 10.6287 49.941 11.3546L51.3927 9.97881ZM48.606 8.48653L48.6034 8.48904L49.9735 9.94603L49.9761 9.94352L48.606 8.48653ZM48.5966 8.49546L48.5921 8.49981L49.9757 9.94395L49.9802 9.93961L48.5966 8.49546ZM48.5951 8.49689L48.5802 8.51107L49.9577 9.96106L49.9727 9.94687L48.5951 8.49689ZM48.5759 8.51517L48.5242 8.5649L49.9103 10.0067L49.962 9.95696L48.5759 8.51517ZM48.5209 8.56805C48.4771 8.61054 48.4113 8.67437 48.3292 8.75557L49.7362 10.177C49.8104 10.1036 49.8699 10.0459 49.9135 10.0035L48.5209 8.56805ZM48.3302 8.75461C48.1685 8.91421 47.9415 9.14175 47.6711 9.42294L49.1127 10.8092C49.3692 10.5425 49.5838 10.3274 49.7352 10.178L48.3302 8.75461ZM47.6712 9.42289C47.1339 9.9815 46.4096 10.7674 45.677 11.6639L47.2257 12.9294C47.9145 12.0866 48.6003 11.342 49.1126 10.8093L47.6712 9.42289ZM45.6769 11.664C44.9538 12.5491 44.17 13.6058 43.5527 14.7023L45.2956 15.6834C45.8346 14.7259 46.5404 13.7683 47.2258 12.9293L45.6769 11.664ZM43.5529 14.7021C42.98 15.7191 42.3335 17.1417 42.3335 18.6667H44.3335C44.3335 17.6668 44.7718 16.6134 45.2955 15.6836L43.5529 14.7021ZM42.3335 18.6667C42.3335 23.269 46.0644 27 50.6668 27V25C47.169 25 44.3335 22.1645 44.3335 18.6667H42.3335ZM50.6668 27C55.2693 27 59.0002 23.269 59.0002 18.6667H57.0002C57.0002 22.1645 54.1647 25 50.6668 25V27ZM59.0002 18.6667C59.0002 17.1417 58.3536 15.7191 57.7808 14.7021L56.0382 15.6836C56.5619 16.6134 57.0002 17.6668 57.0002 18.6667H59.0002ZM57.7809 14.7023C57.1637 13.6058 56.3798 12.5491 55.6567 11.664L54.1079 12.9293C54.7933 13.7683 55.4991 14.7259 56.0381 15.6834L57.7809 14.7023ZM55.6566 11.6639C54.9241 10.7674 54.1998 9.9815 53.6625 9.42289L52.221 10.8093C52.7334 11.342 53.4192 12.0866 54.108 12.9294L55.6566 11.6639ZM53.6626 9.42294C53.3921 9.14175 53.1651 8.91421 53.0035 8.75461L51.5985 10.178C51.7499 10.3274 51.9644 10.5425 52.221 10.8092L53.6626 9.42294ZM53.0044 8.75557C52.9224 8.67437 52.8565 8.61054 52.8127 8.56805L51.4201 10.0035C51.4638 10.0459 51.5233 10.1036 51.5975 10.177L53.0044 8.75557ZM52.8095 8.5649L52.7577 8.51517L51.3717 9.95696L51.4234 10.0067L52.8095 8.5649ZM52.7535 8.51107L52.7385 8.49689L51.361 9.94687L51.3759 9.96106L52.7535 8.51107ZM52.7416 8.49981L52.737 8.49546L51.3534 9.93961L51.3579 9.94395L52.7416 8.49981ZM52.7303 8.48904L52.7276 8.48653L51.3575 9.94352L51.3602 9.94603L52.7303 8.48904ZM52.7115 8.47173C52.7299 8.48822 52.6102 8.36891 52.4302 8.2932C52.2098 8.20056 51.9949 8.20149 51.8272 8.23848C51.6851 8.26981 51.5837 8.32507 51.5403 8.3503C51.4904 8.37927 51.4535 8.40654 51.4349 8.42083C51.3979 8.44912 51.3711 8.47385 51.364 8.48048C51.3531 8.49051 51.3447 8.49868 51.3408 8.50255C51.3328 8.51045 51.3265 8.51689 51.3247 8.51872C51.3221 8.52147 51.3198 8.52387 51.3183 8.52538C51.3132 8.53069 51.3057 8.53859 51.2955 8.54935C51.2737 8.57236 51.2303 8.61811 51.1445 8.70865C50.9726 8.89011 50.6288 9.25303 49.941 9.97881L51.3927 11.3546C52.0806 10.6287 52.4245 10.2657 52.5965 10.0841C52.6826 9.99319 52.7252 9.9482 52.7464 9.92587C52.7517 9.92032 52.7554 9.91643 52.758 9.91369C52.7608 9.91074 52.7616 9.90994 52.7613 9.9102C52.7612 9.91031 52.7599 9.91165 52.758 9.91362C52.757 9.91466 52.7512 9.92058 52.7436 9.92813C52.7398 9.93184 52.7316 9.93988 52.7208 9.94981C52.7137 9.95635 52.6871 9.98102 52.6501 10.0093C52.6315 10.0235 52.5946 10.0508 52.5448 10.0798C52.5013 10.105 52.3999 10.1602 52.2579 10.1916C52.0902 10.2285 51.8753 10.2295 51.6549 10.1368C51.4749 10.0611 51.3553 9.94183 51.3736 9.95832L52.7115 8.47173Z" fill="#514C9F" mask="url(#path-2-inside-1_293_8469)"/>
<path d="M49.2772 9.92802L50.1668 10.8661V25.482C46.6263 25.226 43.8335 22.2725 43.8335 18.6667C43.8335 17.5355 44.3238 16.3898 44.8598 15.4382L44.8599 15.4381C45.4184 14.4459 46.1437 13.4636 46.8385 12.613L49.2772 9.92802ZM49.2772 9.92802C49.1354 10.0693 48.957 10.2498 48.7523 10.4627L48.7523 10.4627C48.2337 11.0019 47.5383 11.7568 46.8386 12.613L49.2772 9.92802ZM50.1668 9.25217V9.41232C50.1271 9.37041 50.0904 9.33174 50.0566 9.29606C50.0929 9.27992 50.1296 9.26529 50.1668 9.25217Z" fill="#514C9F" stroke="#514C9F"/>
<path d="M23.8335 38.6667C23.8335 34.3241 27.2227 30.7734 31.5002 30.5151V46.8183C27.2227 46.5599 23.8335 43.009 23.8335 38.6667Z" fill="#514C9F" stroke="#514C9F"/>
</svg>
