<svg width="142" height="47" viewBox="0 0 142 47" fill="none" xmlns="http://www.w3.org/2000/svg">
<path d="M87.0476 21.7534C87.0476 18.3661 87.0523 14.9789 87.0398 11.5899C87.0398 11.2576 87.1324 11.1856 87.4517 11.1871C90.2156 11.1997 92.9795 11.1574 95.7418 11.2091C97.3917 11.2388 99.0517 11.3517 100.549 12.195C102.046 13.0399 102.962 14.2891 103.345 15.9773C103.66 17.3661 103.577 18.7204 103.158 20.048C102.525 22.0466 101.128 23.3068 99.1459 23.9432C98.1935 24.2488 97.2167 24.3523 96.2196 24.346C94.434 24.3351 92.6476 24.3429 90.862 24.3429C90.5223 24.3429 90.3521 24.5069 90.3521 24.8351C90.3521 27.2192 90.3474 29.6033 90.3584 31.9875C90.3584 32.2884 90.2893 32.3903 89.9732 32.3825C89.1259 32.3606 88.2786 32.3606 87.4313 32.3825C87.1245 32.3903 87.0398 32.3041 87.0398 31.9937C87.0508 28.5798 87.0461 25.1658 87.0461 21.7519L87.0476 21.7534ZM90.3521 17.841C90.3521 18.8975 90.3646 19.9524 90.3442 21.0089C90.338 21.313 90.4352 21.3741 90.7185 21.371C91.8913 21.3553 93.0658 21.3741 94.2386 21.3615C95.3001 21.3506 96.3647 21.4368 97.4199 21.2111C98.5755 20.9634 99.7923 20.1248 99.9932 18.8207C100.083 18.2454 100.118 17.6764 100.039 17.1059C99.9273 16.3158 99.6142 15.6293 98.9372 15.1403C98.1605 14.5776 97.2701 14.3597 96.3459 14.3408C94.456 14.3001 92.5645 14.3236 90.6745 14.3064C90.4148 14.3048 90.3427 14.3816 90.3458 14.6355C90.3584 15.7045 90.3505 16.7736 90.3505 17.8426L90.3521 17.841Z" fill="white"/>
<path d="M121.818 34.251C122.874 34.7416 123.959 35.063 125.081 35.2432C126.253 35.4313 127.435 35.5034 128.589 35.1696C129.611 34.8749 130.27 34.0488 130.341 32.9594C130.365 32.6005 130.393 32.24 130.405 31.8794C130.412 31.7227 130.349 31.6678 130.199 31.6929C128.843 31.9218 127.471 31.9798 126.108 31.9014C124.79 31.8246 123.479 31.5612 122.393 30.7289C121.45 30.0079 120.86 29.0376 120.62 27.8636C120.501 27.2789 120.473 26.6942 120.476 26.0986C120.49 23.4402 120.483 20.7802 120.483 18.1217C120.483 17.7926 120.653 17.628 120.994 17.628C121.816 17.628 122.638 17.6437 123.459 17.6202C123.783 17.6108 123.84 17.7236 123.84 18.0168C123.829 20.8194 123.813 23.622 123.843 26.4247C123.858 27.9467 124.63 28.7759 126.08 29.0204C127.289 29.2242 128.512 29.1379 129.724 28.9686C129.937 28.9389 130.205 29.058 130.355 28.8684C130.515 28.6661 130.416 28.3902 130.416 28.1473C130.421 24.8493 130.424 21.5514 130.413 18.2534C130.413 17.9337 130.487 17.8317 130.817 17.8396C131.704 17.8632 132.589 17.8552 133.478 17.8427C133.718 17.8396 133.784 17.9086 133.784 18.1499C133.775 23.0766 133.797 28.0047 133.756 32.9312C133.743 34.3827 133.333 35.7511 132.223 36.7903C131.329 37.6274 130.228 38.0569 129.037 38.259C127.953 38.4424 126.855 38.3923 125.77 38.3233C124.714 38.2559 123.683 37.9863 122.684 37.618C122.431 37.5239 122.42 37.3186 122.377 37.1352C122.175 36.2527 121.992 35.3671 121.807 34.4814C121.794 34.4219 121.816 34.356 121.824 34.2557L121.818 34.251Z" fill="white"/>
<path d="M118.444 27.1017C118.444 28.652 118.441 30.2038 118.448 31.754C118.448 31.986 118.429 32.1145 118.139 32.1694C117.284 32.3309 116.42 32.4123 115.565 32.555C113.918 32.8293 112.262 32.7917 110.609 32.7713C109.361 32.7556 108.133 32.4657 107.011 31.9593C106.029 31.5173 105.318 30.7085 104.925 29.6505C104.673 28.9718 104.693 28.2946 104.737 27.5971C104.783 26.8792 104.978 26.224 105.369 25.6142C105.963 24.691 106.849 24.1768 107.855 23.8837C109.331 23.4559 110.847 23.3085 112.386 23.4653C113.237 23.5545 114.025 23.5673 114.869 23.6925C114.998 23.7113 115.076 23.6956 115.065 23.5483C114.998 22.6219 115.095 21.6438 114.29 20.9385C113.754 20.4682 113.128 20.2346 112.41 20.1735C111.839 20.125 111.271 20.0999 110.701 20.1124C109.19 20.1453 107.748 20.5184 106.338 21.0341C106.01 21.1526 105.872 21.3068 106.01 20.7519C106.21 19.951 106.4 19.1484 106.572 18.3412C106.608 18.1687 106.723 18.0653 106.923 17.9901C107.833 17.6468 108.792 17.5543 109.732 17.36C110.409 17.2193 110.886 17.1908 111.734 17.1907C112.581 17.1906 114.48 17.327 115.745 17.8913C116.88 18.3991 117.654 19.2707 118.062 20.487C118.392 21.4652 118.446 22.4558 118.448 23.4637C118.449 24.6753 118.448 25.887 118.448 27.1002L118.444 27.1017ZM115.084 27.9404C115.084 27.4451 115.076 26.9497 115.087 26.4559C115.092 26.2428 115.054 26.1472 114.801 26.1158C114.199 26.0422 113.597 26.0061 112.994 25.9528C111.741 25.8431 110.506 25.8603 109.312 26.3039C108.738 26.5171 108.122 27.1206 108.18 27.9936C108.224 28.6583 108.605 29.2303 109.317 29.5219C109.899 29.7586 110.504 29.8684 111.13 29.9091C112.38 29.9921 113.617 29.9122 114.853 29.7383C115.043 29.7116 115.087 29.6364 115.086 29.4655C115.08 28.9577 115.084 28.4498 115.084 27.9419V27.9404Z" fill="white"/>
<path d="M78.066 30.3793C79.4501 30.2294 80.7234 29.8417 81.8523 29.0266C82.1199 28.8338 82.2768 28.8416 82.4305 29.1582C82.6698 29.6536 82.9405 30.1348 83.2056 30.6191C83.2943 30.7837 83.3225 30.9044 83.1288 31.0267C81.9637 31.7602 80.725 32.2963 79.3638 32.5472C78.4184 32.7211 77.4585 32.765 76.5112 32.6898C75.0345 32.5738 73.6612 32.1318 72.4571 31.2023C71.3218 30.326 70.5545 29.1881 70.1161 27.8714C69.7058 26.6409 69.5806 25.3462 69.7481 24.0264C69.8499 23.2223 70.0065 22.448 70.3118 21.7034C71.1605 19.6359 72.6153 18.2612 74.8122 17.6765C75.7689 17.4226 76.7272 17.4211 77.6871 17.4665C79.1763 17.5386 80.5429 18.0057 81.6601 19.0324C82.6808 19.9713 83.3524 21.1046 83.725 22.4699C84.0161 23.5342 84.0773 24.5891 84.093 25.6691C84.0977 25.9528 83.9447 25.9105 83.7768 25.9105C81.8602 25.9105 79.9436 25.9105 78.0269 25.9105C76.2794 25.9105 74.5334 25.9152 72.7859 25.9058C72.4915 25.9058 72.3976 25.9199 72.4696 26.2883C72.681 27.3698 73.1555 28.3071 73.9275 29.0674C74.7666 29.8947 76.3124 30.5693 78.066 30.3793ZM76.9183 23.6407C78.3119 23.6407 79.7043 23.6423 81.0976 23.6376C81.2074 23.6376 81.3981 23.7317 81.3494 23.4558C81.1902 22.5388 80.8426 21.7144 80.1938 21.0356C79.5207 20.3319 78.7299 19.8961 77.731 19.7832C76.4344 19.6359 75.2506 19.7456 74.1686 20.5873C73.2525 21.3005 72.8298 22.2614 72.5072 23.31C72.4257 23.5765 72.4853 23.6517 72.7781 23.6486C74.1577 23.6313 75.5387 23.6407 76.9183 23.6407Z" fill="black"/>
<path d="M50.594 32.7303C49.6717 32.7053 48.7462 32.6551 47.8631 32.3808C46.864 32.0705 45.9511 31.6143 45.2261 30.7976C44.7391 30.2506 44.5747 29.6032 44.4338 28.948C44.296 28.3022 44.3194 27.6314 44.4949 26.9793C44.8456 25.672 45.6661 24.7786 46.9 24.2487C47.7957 23.8647 48.7321 23.6986 49.7014 23.6139C50.2714 23.5638 50.8413 23.5246 51.4035 23.5653C52.0315 23.6092 52.6609 23.6421 53.2888 23.6861C53.7742 23.7205 54.2471 23.8036 54.7279 23.8585C54.9534 23.8851 55.063 23.824 55.063 23.5481C55.063 22.9525 55.0317 22.36 54.8688 21.7878C54.5729 20.7501 53.804 20.2047 52.8081 19.9617C51.8341 19.7235 50.846 19.7987 49.8517 19.8583C48.7258 19.9257 47.7809 20.098 46.6182 20.573C46.2882 20.7078 46.3349 20.6954 45.896 20.8364C45.7238 20.8144 45.6536 20.8348 45.6771 20.7078C45.8086 20.0197 45.9339 19.33 46.0842 18.6466C46.128 18.4506 46.3206 18.3817 46.5117 18.3159C47.7331 17.8958 48.9811 17.6387 50.2714 17.5133C51.6353 17.3801 52.9631 17.4694 54.2753 17.844C55.3918 18.1623 56.3 18.7893 56.881 19.8018C57.1988 20.3567 57.4212 20.9712 57.4838 21.6201C57.8095 25.0183 57.5542 28.4277 57.6388 31.829C57.6451 32.0532 57.5965 32.2052 57.3445 32.2335C56.6445 32.3118 55.943 32.3793 55.2461 32.4764C54.3254 32.6049 53.4063 32.7272 52.4746 32.7053C52.4229 32.7053 52.3712 32.7194 52.3211 32.7272C51.7464 32.7272 51.1702 32.7288 50.5955 32.7303H50.594ZM53.4227 30.3147C53.9043 30.2715 54.4426 30.1128 54.8124 30.0531C54.9894 30.0249 55.0583 29.981 55.0567 29.7961C55.0504 28.6643 55.0504 27.531 55.0567 26.3993C55.0567 26.2128 54.9878 26.1517 54.8109 26.136C53.9026 26.056 52.0862 25.8821 52.0862 25.8821L50.9901 25.8852C50.9901 25.8852 49.1205 25.9871 48.2404 26.357C47.5875 26.6329 47.1787 27.1094 47.0911 27.8195C46.9861 28.6565 47.2837 29.3054 48.0353 29.7286C48.4221 29.9465 48.8386 30.0907 49.2661 30.1597C49.8047 30.2459 50.8143 30.329 50.8143 30.329C50.8143 30.329 51.1702 30.3556 51.308 30.329C51.5115 30.329 51.9202 30.329 51.9202 30.329C51.9202 30.329 52.9869 30.3538 53.4227 30.3147Z" fill="black"/>
<path d="M27.4199 22.3616C27.4371 23.6454 27.7691 24.8743 28.3657 25.9935C29.2097 27.575 30.453 28.7585 32.1066 29.5078C33.4642 30.1238 34.8813 30.3541 36.3548 30.2758C37.5151 30.2131 38.6253 29.9121 39.6995 29.4749C40.2507 29.2507 40.7737 28.9732 41.2669 28.6409C41.3985 28.5531 41.494 28.5453 41.5754 28.7272C41.837 29.3133 42.1079 29.898 42.4007 30.4702C42.4931 30.6504 42.4101 30.6739 42.2911 30.7539C41.4471 31.3229 40.5357 31.757 39.5727 32.069C38.5157 32.4107 37.4353 32.6239 36.3125 32.6411C35.9054 32.6474 35.4904 32.7242 35.0786 32.6991C33.6646 32.6098 32.2961 32.3292 30.9823 31.7665C29.6764 31.2085 28.5285 30.4341 27.5562 29.4105C26.3504 28.1409 25.5643 26.6252 25.1008 24.9417C24.6843 23.4307 24.6686 21.8773 24.7986 20.3412C24.9615 18.4116 25.6473 16.6403 26.8076 15.065C27.625 13.9553 28.6398 13.0775 29.8204 12.38C30.572 11.9348 31.3643 11.5852 32.2068 11.3502C32.9412 11.1449 33.6897 11.0335 34.4476 10.9489C35.0035 10.8862 35.5593 10.858 36.1121 10.8893C37.5746 10.9708 39.0027 11.2295 40.3588 11.8188C41.0446 12.1167 41.707 12.4474 42.3192 12.8785C42.4414 12.9646 42.4648 12.9819 42.3912 13.1277C42.1079 13.6904 41.8416 14.2625 41.5895 14.8394C41.5034 15.0368 41.4063 15.0462 41.2529 14.9412C40.2883 14.2672 39.2031 13.8456 38.071 13.5917C36.9342 13.3362 35.7802 13.2248 34.5979 13.3706C33.3545 13.5227 32.2162 13.9114 31.1545 14.5525C30.0067 15.2469 29.1142 16.1952 28.4565 17.3598C28.0197 18.1326 27.7237 18.965 27.5452 19.8301C27.4528 20.28 27.459 20.7502 27.4199 21.2095C27.3676 21.5911 27.4689 21.9715 27.4199 22.3616Z" fill="black"/>
<path d="M7.84863 25.9028C7.85334 23.4544 7.86275 21.006 7.85491 18.5576C7.85491 18.2457 7.94576 18.0294 8.16809 17.8099C10.2413 15.755 12.302 13.6891 14.3658 11.6263C15.3821 10.6106 16.403 9.59803 17.4083 8.57131C17.6166 8.35974 17.8295 8.15435 18.0394 7.9459C18.2054 7.77974 18.3134 7.80638 18.448 7.9694C18.8975 8.51335 19.267 9.08698 19.4972 9.77357C19.718 10.4303 19.8731 11.0855 19.8527 11.769C19.8072 13.2675 19.2639 14.5653 18.1975 15.6312C16.1525 17.6752 14.1059 19.7192 12.0624 21.7663C11.9575 21.8713 11.8009 21.9481 11.7994 22.1315C11.6224 22.1441 11.5363 22.2867 11.4282 22.3948C10.3353 23.4921 9.24541 24.5924 8.15083 25.6865C8.06469 25.7728 8.00836 25.9138 7.8502 25.9044L7.84863 25.9028Z" fill="white"/>
<path d="M7.84808 25.9028C8.00624 25.9122 8.06265 25.7711 8.14879 25.685C9.24329 24.5892 10.3332 23.4905 11.4262 22.3932C11.5342 22.2851 11.6203 22.1424 11.7972 22.1299C13.1439 23.4623 14.4937 24.7915 15.8372 26.1269C16.6937 26.9765 17.5581 27.8183 18.3911 28.6913C19.1741 29.5127 19.5734 30.5206 19.7785 31.6335C19.9962 32.8106 19.6971 33.8906 19.265 34.9518C19.1694 35.187 18.9799 35.3891 18.8092 35.5866C18.7153 35.6948 18.6229 35.7857 18.5556 35.9252C18.352 36.3406 18.1672 36.3578 17.8196 36.0083C16.7282 34.9048 15.6524 33.7872 14.5579 32.6868C12.4158 30.5362 10.2643 28.3951 8.12368 26.2414C8.02507 26.1427 7.82148 26.1097 7.84808 25.9028Z" fill="black"/>
<path d="M60.1636 18.5276C60.8103 18.2329 61.5165 18.1859 62.2023 18.0887C64.0407 17.827 65.8947 17.8396 67.7456 17.8411C68.0227 17.8411 68.1354 17.8866 68.1214 18.1969C68.0932 18.7816 68.1025 19.3694 68.1182 19.9556C68.1245 20.1923 68.0634 20.2738 67.8145 20.266C67.2288 20.2471 66.6416 20.2612 66.0559 20.2597C65.0882 20.2565 64.1315 20.3772 63.1748 20.5074C62.8569 20.5512 62.7331 20.6782 62.7347 21.0278C62.7488 24.6752 62.7394 28.3228 62.7504 31.9703C62.7504 32.2947 62.7003 32.4233 62.337 32.4013C61.7404 32.3653 61.1391 32.3935 60.5394 32.3888C60.4126 32.3888 60.2763 32.428 60.1636 32.334C60.1746 32.2321 60.1933 32.1301 60.1933 32.0283C60.1933 27.63 60.1933 23.2316 60.1933 18.8333C60.1933 18.7314 60.1746 18.6295 60.1636 18.5276Z" fill="black"/>
<path d="M60.1632 18.5278C60.1726 18.6297 60.1929 18.7316 60.1929 18.8335C60.1929 23.2318 60.1929 27.6302 60.1929 32.0284C60.1929 32.1303 60.1742 32.2323 60.1632 32.3341C60.1585 31.3842 60.1491 30.4359 60.1491 29.4876C60.1476 25.9639 60.1491 22.4387 60.1491 18.915C60.1491 18.7865 60.1585 18.6564 60.1632 18.5278Z" fill="black"/>
</svg>
