<svg width="45" height="64" viewBox="0 0 45 64" fill="none" xmlns="http://www.w3.org/2000/svg">
<path d="M38.0461 27.1336C37.5545 26.0522 35.1951 21.4316 31.4593 17.9908C31.4593 18.0891 31.361 18.2857 31.361 18.384C31.5576 17.4992 31.6559 16.6144 31.6559 15.6313C31.6559 6.98003 24.6759 0 16.0246 0C7.37327 0 0.393241 6.98003 0.393241 15.6313C0.393241 24.2826 7.37327 31.2627 16.0246 31.2627C18.8756 31.2627 21.6283 30.4762 23.8894 29.0998C23.7911 29.1982 23.6928 29.1982 23.5945 29.2965C24.8725 31.6559 25.5607 33.9171 25.659 36.0799C22.9063 35.2934 16.2212 33.9171 12.5837 38.5376C10.7158 37.1613 5.89862 34.3103 1.57296 37.1613C0.58986 37.8495 0 38.9309 0 40.1106V60.4608C0 61.4439 0.39324 62.3287 1.08141 63.0169C1.76958 63.6068 2.55607 64 3.44086 64H3.63748C6.78341 63.8034 12.2888 62.722 14.6482 57.8065C17.4009 58.6912 25.9539 60.7558 33.8187 55.1521C35.8833 53.6774 37.8495 52.1045 39.4224 50.5315C40.9954 48.9585 42.3717 47.3856 43.2565 46.0092C45.7143 42.0768 46.4025 33.6221 38.0461 27.1336ZM2.26114 15.6313C2.26114 8.06145 8.45469 1.96621 15.9263 1.96621C23.4962 1.96621 29.5914 8.15976 29.5914 15.6313C29.5914 23.2012 23.3979 29.2965 15.9263 29.2965C8.45469 29.3948 2.26114 23.2012 2.26114 15.6313ZM31.1644 19.3671C31.0661 19.5637 31.0661 19.8587 30.9677 20.0553C31.0661 19.8587 31.1644 19.5637 31.1644 19.3671ZM25.3641 28.1167C25.1674 28.2151 25.0691 28.3134 24.8725 28.4117C25.0691 28.4117 25.2657 28.3134 25.3641 28.1167ZM26.2488 27.4286C26.4455 27.3303 26.5438 27.1336 26.7404 27.0353C26.5438 27.232 26.4455 27.3303 26.2488 27.4286ZM28.9032 24.5776C28.8049 24.7742 28.7066 24.8725 28.6083 25.0691C28.7066 24.8725 28.8049 24.6759 28.9032 24.5776ZM27.8218 25.8556C27.7235 26.0522 27.5269 26.1505 27.4286 26.3472C27.6252 26.1505 27.7235 26.0522 27.8218 25.8556Z" fill="#514C9F"/>
<path d="M16.0246 10.0277C12.977 10.0277 10.4209 12.4854 10.4209 15.6314C10.4209 18.679 12.8787 21.2351 16.0246 21.2351C19.0722 21.2351 21.6283 18.7773 21.6283 15.6314C21.53 12.5837 19.0722 10.0277 16.0246 10.0277Z" fill="#514C9F"/>
</svg>
