<svg width="71" height="80" viewBox="0 0 71 80" fill="none" xmlns="http://www.w3.org/2000/svg">
<path d="M2.89526 59.9761H15.2153V80H2.89526V59.9761Z" fill="#BBB8DF"/>
<path d="M21.375 46.6268H33.6951V80H21.375V46.6268Z" fill="#514C9F"/>
<path d="M39.8547 36.6149H52.1748V80H39.8547V36.6149Z" fill="#36336A"/>
<path d="M58.3352 29.9402H70.6553V80H58.3352V29.9402Z" fill="#07070E"/>
<path d="M68.5905 3.44183L59.8741 0.104508C59.1275 -0.102831 58.3363 0.000634379 57.6567 0.394478C56.9772 0.788321 56.4585 1.44392 56.2032 2.23186C55.9479 3.01979 55.9746 3.8828 56.2778 4.65051C56.5811 5.41823 57.1389 6.03486 57.8413 6.37867L59.7201 7.11288L1.44617 40.4861C0.784692 40.9346 0.304974 41.6384 0.103957 42.4554C-0.0970597 43.2724 -0.00439813 44.1416 0.363217 44.8874C0.730832 45.6332 1.346 46.2 2.08443 46.4733C2.82286 46.7466 3.6295 46.706 4.34139 46.3598L62.1225 13.2535L61.5989 14.8888C61.4231 15.3104 61.3301 15.767 61.3259 16.2296C61.3216 16.6922 61.4062 17.1507 61.5742 17.576C61.7422 18.0013 61.99 18.3842 62.3018 18.7002C62.6136 19.0162 62.9827 19.2585 63.3855 19.4118C63.7884 19.565 64.2162 19.6258 64.6419 19.5903C65.0676 19.5549 65.4819 19.4239 65.8584 19.2057C66.2349 18.9875 66.5654 18.6869 66.8289 18.3229C67.0925 17.959 67.2833 17.5396 67.3893 17.0915L70.4693 7.64685C70.7263 6.81896 70.6735 5.91489 70.3223 5.12871C69.971 4.34253 69.3493 3.73691 68.5905 3.44183Z" fill="#EE7231"/>
</svg>
