<svg width="620" height="620" viewBox="0 0 620 620" fill="none" xmlns="http://www.w3.org/2000/svg">
<path d="M101.457 552.073C-13.7137 485.572 -13.7137 377.754 101.457 311.265C216.629 244.776 403.373 244.764 518.544 311.265C633.715 377.766 633.715 485.572 518.544 552.073C403.373 618.574 216.629 618.562 101.457 552.073Z" fill="white"/>
<path d="M94.0457 518.729L71.0363 505.467C70.7346 505.367 70.4721 505.174 70.2861 504.916C70.1001 504.659 70 504.349 70 504.031C70 503.713 70.1001 503.403 70.2861 503.145C70.4721 502.887 70.7346 502.694 71.0363 502.594L247.861 400.577C248.633 400.188 249.484 399.986 250.348 399.986C251.212 399.986 252.063 400.188 252.835 400.577L275.822 413.839C277.192 414.635 277.203 415.917 275.822 416.712L98.9968 518.796C98.2247 519.176 97.3737 519.368 96.5133 519.356C95.6528 519.345 94.8073 519.13 94.0457 518.729Z" fill="#BBB8DF"/>
<path d="M326.095 483.143C359.421 483.143 386.437 467.547 386.437 448.309C386.437 429.07 359.421 413.474 326.095 413.474C292.77 413.474 265.754 429.07 265.754 448.309C265.754 467.547 292.77 483.143 326.095 483.143Z" fill="#BBB8DF"/>
<path d="M428.875 471.594C460.315 471.594 485.802 456.879 485.802 438.727C485.802 420.575 460.315 405.86 428.875 405.86C397.435 405.86 371.948 420.575 371.948 438.727C371.948 456.879 397.435 471.594 428.875 471.594Z" fill="#BBB8DF"/>
<path d="M502.954 489.52C528.546 489.52 549.293 477.541 549.293 462.764C549.293 447.987 528.546 436.008 502.954 436.008C477.361 436.008 456.614 447.987 456.614 462.764C456.614 477.541 477.361 489.52 502.954 489.52Z" fill="#BBB8DF"/>
<path d="M220.829 393.603C247.098 410.49 289.835 446.485 249.088 485.751C183.32 491.896 118.734 475.96 96.3659 461.582C95.2607 460.941 95.2607 460.056 96.0786 459.139C96.9488 458.258 97.9857 457.56 99.1288 457.084C117.629 448.585 134.494 428.814 133.289 413.728C133.212 412.623 134.56 411.971 136.848 411.75H137.201C137.978 411.705 138.757 411.705 139.533 411.75H139.986C165.626 413.01 199.19 404.644 214.198 394.311C215.241 393.569 216.453 393.098 217.723 392.94H217.878C218.909 392.798 219.957 393.033 220.829 393.603Z" fill="#BBB8DF"/>
<path d="M95.85 518.416L92.3135 516.372C91.7248 515.993 91.2345 515.48 90.8829 514.875C90.5313 514.27 90.3284 513.589 90.291 512.891V229.031C90.3345 228.333 90.5399 227.656 90.891 227.051C91.242 226.447 91.7291 225.933 92.3135 225.55L255.203 131.49C255.828 131.168 256.521 131 257.225 131C257.928 131 258.622 131.168 259.247 131.49L262.795 133.534C263.387 133.915 263.879 134.432 264.23 135.041C264.582 135.65 264.783 136.335 264.817 137.038V420.919C264.777 421.621 264.573 422.303 264.222 422.911C263.871 423.52 263.382 424.037 262.795 424.423L99.8948 518.416C99.2693 518.738 98.5759 518.906 97.8724 518.906C97.1689 518.906 96.4755 518.738 95.85 518.416Z" fill="#36336A"/>
<path opacity="0.3" d="M95.85 518.416L92.3135 516.372C91.7248 515.993 91.2345 515.48 90.8829 514.875C90.5313 514.27 90.3284 513.589 90.291 512.891V229.031C90.3345 228.333 90.5399 227.656 90.891 227.051C91.242 226.447 91.7291 225.933 92.3135 225.55L255.203 131.49C255.828 131.168 256.521 131 257.225 131C257.928 131 258.622 131.168 259.247 131.49L262.795 133.534C263.387 133.915 263.879 134.432 264.23 135.041C264.582 135.65 264.783 136.335 264.817 137.038V420.919C264.777 421.621 264.573 422.303 264.222 422.911C263.871 423.52 263.382 424.037 262.795 424.423L99.8948 518.416C99.2693 518.738 98.5759 518.906 97.8724 518.906C97.1689 518.906 96.4755 518.738 95.85 518.416Z" fill="black"/>
<path opacity="0.4" d="M264.783 136.706C264.651 135.667 263.8 135.28 262.794 135.866L99.8941 229.97C99.2996 230.343 98.8091 230.86 98.4684 231.473L90.876 227.053C91.2212 226.443 91.7107 225.927 92.3016 225.55L255.191 131.49C255.816 131.168 256.51 131 257.213 131C257.917 131 258.61 131.168 259.236 131.49L262.794 133.534C263.335 133.888 263.793 134.355 264.136 134.902C264.48 135.45 264.701 136.065 264.783 136.706Z" fill="white"/>
<path opacity="0.15" d="M99.5412 518.626H99.4196L99.2207 518.704H99.1323C99.0088 518.743 98.8834 518.776 98.7565 518.803C97.9499 518.95 97.1188 518.882 96.3473 518.604C96.1912 518.546 96.0397 518.475 95.8942 518.394L92.3466 516.35C91.7589 515.972 91.2672 515.463 90.9104 514.863C90.5536 514.262 90.3416 513.587 90.291 512.89V229.031C90.3136 228.329 90.5152 227.644 90.8767 227.042L98.4692 231.462C98.0982 232.065 97.8924 232.755 97.8724 233.463V517.311C97.8407 517.705 97.9504 518.096 98.1818 518.416C98.3113 518.577 98.4855 518.695 98.6823 518.756C98.8791 518.817 99.0896 518.818 99.287 518.759C99.3764 518.724 99.4616 518.68 99.5412 518.626Z" fill="black"/>
<path d="M213.936 172.303L213.638 172.126L210.322 170.192C209.099 169.517 207.774 169.046 206.399 168.8C205.824 168.678 205.294 168.524 204.841 168.38C204.336 168.206 203.841 168.003 203.36 167.772L203.614 167.463L199.812 165.252C199.498 165.072 199.159 164.938 198.807 164.855C197.381 164.512 195.237 165.341 193.104 165.098C192.328 165.019 191.578 164.773 190.906 164.376C190.234 163.979 189.657 163.441 189.214 162.799C187.921 161.053 187.136 157.991 185.987 155.461L186.981 153.98C186.88 153.912 186.772 153.853 186.661 153.803L183.18 151.792C182.592 151.44 181.919 151.256 181.235 151.261C179.935 151.329 178.676 151.741 177.588 152.455C169.244 157.273 168.967 168.712 165.961 176.227C162.955 183.742 158.7 186.107 156.391 189.356C154.081 192.605 153.915 194.981 148.787 202.054C143.659 209.127 143.449 210.895 143.449 212.188V222.721L147.24 224.931L215.505 185.51L213.936 172.303ZM151.34 212.907C150.445 213.415 149.715 212.73 149.715 211.36C149.705 210.704 149.846 210.054 150.128 209.462C150.409 208.869 150.824 208.35 151.34 207.945C152.224 207.425 152.943 208.121 152.943 209.503C152.954 210.155 152.816 210.801 152.538 211.392C152.26 211.982 151.85 212.5 151.34 212.907ZM181.323 183.344C180.892 183.659 180.394 183.869 179.868 183.958C179.342 184.048 178.802 184.013 178.292 183.858C177.782 183.702 177.314 183.43 176.927 183.063C176.54 182.695 176.244 182.243 176.062 181.741C173.421 182.25 171.454 179.697 171.454 175.309C171.454 170.126 174.184 164.368 177.543 162.423C177.974 162.111 178.472 161.902 178.998 161.815C179.523 161.728 180.062 161.764 180.571 161.92C181.08 162.077 181.545 162.35 181.931 162.717C182.317 163.084 182.612 163.536 182.793 164.037C185.445 163.506 187.401 166.059 187.401 170.469C187.401 175.641 184.694 181.41 181.323 183.344ZM203.99 182.449C203.106 182.968 202.387 182.272 202.387 180.912C202.375 180.259 202.514 179.611 202.792 179.019C203.069 178.427 203.479 177.906 203.99 177.498C204.896 176.989 205.614 177.685 205.614 179.056C205.627 179.709 205.486 180.356 205.204 180.945C204.922 181.534 204.506 182.049 203.99 182.449Z" fill="#455A64"/>
<path opacity="0.5" d="M150.986 214.797L143.648 210.553C143.477 211.081 143.395 211.634 143.405 212.188V222.721L147.196 224.931L150.986 222.721V214.797Z" fill="#37474F"/>
<path opacity="0.5" d="M158.579 201.656L162.369 192.892L156.346 189.356C154.567 191.798 154.059 193.776 151.683 197.667L158.579 201.656Z" fill="#37474F"/>
<path opacity="0.5" d="M173.742 184.128L174.239 181.576C172.559 180.868 171.443 178.603 171.443 175.309C171.461 170.954 173.109 166.763 176.063 163.561L170.802 160.522C168.592 165.628 167.73 171.651 165.906 176.227C165.545 177.139 165.136 178.032 164.679 178.901L173.742 184.128Z" fill="#37474F"/>
<path d="M213.936 172.303L213.637 172.126C212.518 171.618 211.342 171.247 210.134 171.021C208.145 170.661 206.294 169.759 204.785 168.413C204.408 168.066 203.997 167.759 203.558 167.496C203.243 167.307 202.9 167.169 202.542 167.087C200.243 166.534 196.054 169.032 193.048 165.142L192.949 165.02C190.849 162.191 190.086 155.87 186.937 153.969C186.835 153.901 186.728 153.842 186.616 153.792C185.323 153.184 183.632 153.295 181.323 154.621C172.99 159.439 172.702 170.889 169.696 178.404C166.69 185.919 162.435 188.284 160.126 191.533C157.816 194.782 157.661 197.158 152.522 204.231C147.383 211.304 147.195 213.072 147.195 214.365V224.898L215.461 185.477V174.956C215.512 174.41 215.392 173.862 215.119 173.387C214.846 172.912 214.433 172.534 213.936 172.303ZM155.119 215.095C154.235 215.603 153.506 214.918 153.506 213.548C153.496 212.891 153.636 212.242 153.916 211.648C154.196 211.054 154.607 210.532 155.119 210.122C156.014 209.613 156.722 210.31 156.722 211.68C156.736 212.334 156.599 212.983 156.321 213.575C156.043 214.168 155.632 214.688 155.119 215.095ZM181.323 183.344C180.892 183.659 180.394 183.869 179.868 183.958C179.342 184.048 178.802 184.013 178.292 183.858C177.781 183.702 177.314 183.43 176.927 183.063C176.54 182.695 176.244 182.243 176.062 181.741C175.47 180.403 175.187 178.949 175.233 177.486C175.233 172.314 177.963 166.556 181.323 164.611C181.778 164.342 182.275 164.148 182.792 164.037C185.445 163.506 187.401 166.059 187.401 170.469C187.401 175.641 184.693 181.41 181.323 183.344ZM207.791 184.659C206.885 185.178 206.166 184.482 206.166 183.123C206.154 182.467 206.294 181.816 206.576 181.224C206.858 180.631 207.274 180.112 207.791 179.708C208.675 179.199 209.394 179.885 209.394 181.266C209.405 181.917 209.267 182.561 208.989 183.15C208.711 183.738 208.301 184.255 207.791 184.659Z" fill="#37474F"/>
<path d="M187.401 170.469C187.401 175.641 184.694 181.41 181.323 183.344C180.892 183.659 180.394 183.869 179.868 183.958C179.342 184.048 178.803 184.013 178.292 183.858C177.782 183.702 177.315 183.43 176.928 183.063C176.541 182.695 176.244 182.243 176.062 181.741C176.586 181.639 177.088 181.444 177.543 181.167C180.859 179.222 183.622 173.431 183.622 168.281C183.667 166.822 183.384 165.371 182.793 164.037C185.445 163.506 187.401 166.059 187.401 170.469Z" fill="#263238"/>
<path d="M155.12 215.095C154.236 215.603 153.506 214.918 153.506 213.548C153.495 212.893 153.635 212.244 153.915 211.652C154.195 211.06 154.607 210.54 155.12 210.133C156.015 209.613 156.734 210.321 156.734 211.68C156.746 212.335 156.606 212.984 156.326 213.576C156.047 214.169 155.634 214.688 155.12 215.095Z" fill="#263238"/>
<path d="M207.78 184.659C206.896 185.167 206.167 184.482 206.167 183.112C206.155 182.457 206.295 181.808 206.575 181.216C206.855 180.624 207.267 180.104 207.78 179.697C208.675 179.177 209.394 179.885 209.394 181.255C209.405 181.908 209.265 182.555 208.985 183.146C208.705 183.736 208.293 184.254 207.78 184.659Z" fill="#263238"/>
<path d="M110.472 246.945L252.208 165.109C252.583 164.918 252.998 164.819 253.418 164.819C253.839 164.819 254.253 164.918 254.628 165.109L255.999 165.904C256.351 166.135 256.645 166.445 256.856 166.81C257.067 167.174 257.19 167.583 257.215 168.004V413.084C257.19 413.504 257.067 413.913 256.856 414.278C256.645 414.643 256.351 414.953 255.999 415.184L114.262 497.02C113.887 497.211 113.473 497.31 113.052 497.31C112.632 497.31 112.217 497.211 111.842 497.02L110.472 496.236C110.118 496.006 109.823 495.697 109.612 495.332C109.401 494.967 109.279 494.557 109.256 494.136V249.056C109.278 248.634 109.4 248.222 109.611 247.855C109.822 247.488 110.117 247.177 110.472 246.945Z" fill="#F1F4FA"/>
<path d="M257.181 167.639C257.026 167.142 256.562 166.987 256.01 167.297L114.262 249.134C113.906 249.362 113.61 249.673 113.4 250.04L109.609 247.83C109.813 247.458 110.11 247.145 110.471 246.923L252.208 165.12C252.581 164.924 252.996 164.822 253.418 164.822C253.839 164.822 254.255 164.924 254.628 165.12L255.998 165.904C256.303 166.098 256.565 166.351 256.769 166.65C256.972 166.948 257.112 167.285 257.181 167.639Z" fill="#FAFAFA"/>
<path d="M113.975 497.153C113.828 497.207 113.676 497.247 113.522 497.275H113.29C113.048 497.302 112.803 497.302 112.561 497.275C112.406 497.247 112.255 497.207 112.107 497.153L111.831 497.02L110.472 496.236C110.118 496.006 109.823 495.697 109.612 495.332C109.401 494.967 109.279 494.557 109.256 494.136V249.056C109.266 248.634 109.388 248.222 109.61 247.863L113.4 250.073C113.187 250.44 113.066 250.854 113.047 251.278V496.313C113.047 496.987 113.445 497.308 113.975 497.153Z" fill="#BBB8DF"/>
<path d="M225.286 195.71L221.518 193.5C220.923 193.213 220.269 193.073 219.609 193.092C218.949 193.111 218.304 193.289 217.727 193.611C213.306 195.556 211.406 196.429 209.129 197.39L207.493 198.053C206.598 198.407 204.819 198.053 205.371 194.992L211.229 179.221H211.14L207.427 177.011C207.241 176.9 207.034 176.829 206.819 176.801C206.679 176.789 206.539 176.789 206.399 176.801C204.001 176.801 203.327 161.329 203.305 160.81L203.139 160.71L199.47 158.599C198.829 158.239 198.105 158.056 197.37 158.069C196.152 158.116 194.962 158.453 193.9 159.052C188.109 162.092 182.318 171.054 180.892 179.133C179.997 184.206 174.891 192.03 171.94 194.904C168.99 197.777 168.78 200.131 168.78 200.131L166.481 213.161L165.752 217.316C165.21 220.433 162.016 223.439 162.016 223.439L150.136 232.346C142.687 238.535 140.587 244.768 139.15 252.493V252.549C139.15 252.825 139.15 253.013 139.272 253.079C139.292 253.092 139.315 253.099 139.338 253.099C139.362 253.099 139.385 253.092 139.405 253.079L140.93 252.217L222.711 205.038C223.096 204.781 223.365 204.385 223.463 203.933C223.927 201.115 225.286 195.832 225.286 195.832V195.71ZM201.636 171.839C200.763 176.79 197.215 182.316 193.646 184.173C191.203 185.444 189.413 184.659 188.816 182.404C188.378 182.577 187.902 182.637 187.435 182.577C186.967 182.517 186.522 182.34 186.142 182.062C185.037 181.167 195.425 163.274 196.265 163.672C196.673 163.883 197.026 164.186 197.298 164.556C197.57 164.925 197.754 165.353 197.834 165.805C200.763 164.921 202.476 167.396 201.636 171.839Z" fill="#455A64"/>
<path opacity="0.5" d="M150.987 241.077L145.008 237.64C141.549 242.193 140.157 246.979 139.129 252.527V252.582C139.129 252.858 139.129 253.046 139.25 253.112C139.27 253.125 139.293 253.132 139.317 253.132C139.34 253.132 139.363 253.125 139.383 253.112L144.08 249.388L150.987 241.077Z" fill="#37474F"/>
<path opacity="0.5" d="M165.354 218.709L173.753 223.56L177.543 201.645L169.973 197.225C169.362 198.091 168.954 199.085 168.779 200.131L166.481 213.161L165.751 217.316C165.665 217.792 165.532 218.259 165.354 218.709Z" fill="#37474F"/>
<path opacity="0.5" d="M184.882 168.645C182.958 171.885 181.609 175.433 180.892 179.133C180.296 181.747 179.296 184.252 177.931 186.56L185.136 190.715L188.717 182.449C188.291 182.604 187.833 182.652 187.384 182.588C186.935 182.525 186.508 182.351 186.142 182.084C185.545 181.62 188.021 176.669 190.673 172.016L184.882 168.645Z" fill="#37474F"/>
<path d="M225.342 195.766H225.287C224.695 195.483 224.044 195.346 223.388 195.368C222.732 195.389 222.091 195.567 221.518 195.887C216.114 198.263 214.479 199.048 211.274 200.308C210.412 200.662 208.688 200.374 209.13 197.457C209.124 197.39 209.124 197.324 209.13 197.258L209.87 193.091L211.915 181.741C211.915 181.741 212.379 179.962 211.196 179.288H211.108C210.814 179.15 210.493 179.078 210.168 179.078C209.474 178.991 208.808 178.747 208.222 178.364C207.636 177.981 207.145 177.469 206.787 176.868C206.153 175.923 205.714 174.862 205.496 173.746C205.278 172.631 205.285 171.482 205.516 170.369C206.367 165.506 205.427 162.103 203.305 160.832L203.14 160.721C201.747 159.992 199.879 160.113 197.691 161.263C191.933 164.28 186.109 173.254 184.695 181.299C183.788 186.383 178.683 194.196 175.732 197.081C172.781 199.965 172.571 202.341 172.571 202.341L170.272 215.382L169.543 219.549C169.001 222.665 165.807 225.671 165.807 225.671L153.927 234.579C149.18 238.349 145.755 243.532 144.146 249.377C144.146 249.377 139.726 252.836 139.405 253.112L140.93 252.25L222.966 205.093C222.966 205.093 223.906 204.574 224.071 204.441C224.237 204.309 227.641 201.236 227.641 201.236C227.508 198.506 226.724 196.595 225.342 195.766ZM201.637 171.839C200.764 176.79 197.216 182.316 193.646 184.173C191.204 185.444 189.414 184.659 188.817 182.404C188.554 181.14 188.554 179.834 188.817 178.569C189.701 173.618 193.237 168.093 196.829 166.247C197.154 166.069 197.494 165.921 197.846 165.805C200.764 164.921 202.477 167.396 201.637 171.839Z" fill="#37474F"/>
<path d="M201.636 171.839C200.763 176.79 197.216 182.316 193.646 184.173C191.204 185.444 189.413 184.659 188.816 182.404C189.175 182.293 189.523 182.149 189.855 181.973C193.403 180.117 196.984 174.591 197.846 169.64C198.12 168.376 198.12 167.068 197.846 165.805C200.763 164.921 202.476 167.396 201.636 171.839Z" fill="#263238"/>
<path d="M198.222 166.015C198.552 165.997 198.882 166.063 199.18 166.208C199.478 166.353 199.734 166.572 199.924 166.844C201.404 168.932 199.99 174.259 199.382 175.961C198.531 178.337 193.038 183.896 191.513 183.896C191.014 183.814 190.537 183.63 190.111 183.356C189.685 183.083 189.32 182.725 189.038 182.305C188.788 181.083 188.788 179.824 189.038 178.603C189.9 173.718 193.458 168.269 196.918 166.446C197.228 166.277 197.554 166.136 197.89 166.026H198.222M198.222 165.794H197.835C197.483 165.91 197.143 166.058 196.818 166.236C193.259 168.082 189.69 173.607 188.806 178.558C188.543 179.823 188.543 181.129 188.806 182.393C189.11 182.851 189.505 183.24 189.967 183.537C190.43 183.834 190.949 184.032 191.491 184.117C193.138 184.117 198.675 178.514 199.559 176.028C200.443 173.541 202.355 165.772 198.177 165.772L198.222 165.794Z" fill="#263238"/>
<path d="M139.416 253.179L222.977 205.148L224.082 204.507C224.292 204.386 227.597 201.192 227.597 201.192L144.102 249.388C144.102 249.388 139.085 253.3 139.416 253.179Z" fill="#263238"/>
<path d="M127.491 442.636L149.749 429.606L149.738 455.478L127.491 468.507V442.636Z" fill="#FAFAFA"/>
<path d="M128.431 443.166V466.905L148.832 454.958V431.208L128.431 443.166ZM127.502 469.425C127.343 469.427 127.186 469.385 127.049 469.303C126.908 469.223 126.791 469.108 126.71 468.968C126.628 468.828 126.585 468.669 126.585 468.507V442.636C126.585 442.475 126.627 442.318 126.707 442.178C126.786 442.039 126.9 441.922 127.038 441.84L149.296 428.81C149.436 428.732 149.594 428.691 149.755 428.692C149.916 428.693 150.073 428.736 150.213 428.816C150.352 428.896 150.468 429.011 150.549 429.15C150.631 429.288 150.675 429.445 150.677 429.606V455.478C150.677 455.639 150.634 455.798 150.552 455.938C150.471 456.078 150.354 456.193 150.213 456.273L127.955 469.303C127.813 469.382 127.654 469.424 127.491 469.425H127.502Z" fill="#455A64"/>
<path d="M160.944 424.047V425.915C160.944 426.931 161.662 427.351 162.536 426.843L241.51 381.255C241.974 380.953 242.361 380.545 242.637 380.065C242.914 379.585 243.073 379.046 243.101 378.492V376.614C243.101 375.597 242.394 375.188 241.51 375.696L162.536 421.295C162.073 421.597 161.688 422.004 161.412 422.482C161.136 422.96 160.975 423.496 160.944 424.047Z" fill="#BBB8DF"/>
<path d="M160.944 435.353V437.22C160.944 438.237 161.662 438.646 162.536 438.138L241.51 392.55C241.974 392.25 242.36 391.844 242.637 391.366C242.914 390.887 243.073 390.35 243.101 389.798V387.919C243.101 386.903 242.394 386.494 241.51 387.002L162.536 432.59C162.073 432.894 161.688 433.303 161.412 433.782C161.136 434.262 160.975 434.8 160.944 435.353Z" fill="#BBB8DF"/>
<path d="M160.944 446.581V448.449C160.944 449.466 161.662 449.874 162.536 449.366L241.51 403.778C241.973 403.477 242.358 403.071 242.635 402.593C242.911 402.114 243.071 401.578 243.101 401.026V399.148C243.101 398.131 242.394 397.722 241.51 398.219L162.536 443.818C162.073 444.123 161.688 444.531 161.412 445.011C161.136 445.49 160.975 446.028 160.944 446.581Z" fill="#BBB8DF"/>
<path d="M138.995 455.864L133.823 450.88L136.045 446.161L138.995 449.001L151.252 423.052L153.473 425.196L138.995 455.864Z" fill="#36336A"/>
<path d="M127.491 397.855L149.749 384.825L149.738 410.697L127.491 423.726V397.855Z" fill="#FAFAFA"/>
<path d="M128.431 398.385V422.124L148.832 410.177V386.427L128.431 398.385ZM127.502 424.644C127.343 424.646 127.186 424.604 127.049 424.522C126.908 424.443 126.79 424.328 126.708 424.188C126.627 424.048 126.584 423.888 126.585 423.726V397.855C126.586 397.694 126.629 397.537 126.708 397.398C126.787 397.259 126.901 397.142 127.038 397.059L149.296 384.029C149.436 383.951 149.594 383.91 149.755 383.911C149.916 383.912 150.073 383.955 150.213 384.035C150.352 384.115 150.468 384.23 150.549 384.369C150.631 384.507 150.675 384.664 150.677 384.825V410.697C150.677 410.858 150.634 411.017 150.552 411.157C150.471 411.297 150.354 411.412 150.213 411.492L127.955 424.478C127.82 424.577 127.659 424.635 127.491 424.644H127.502Z" fill="#455A64"/>
<path d="M160.944 379.266V381.145C160.944 382.15 161.662 382.57 162.536 382.062L241.51 336.474C241.974 336.172 242.361 335.764 242.637 335.284C242.914 334.804 243.073 334.265 243.101 333.711V331.833C243.101 330.816 242.394 330.407 241.51 330.915L162.536 376.514C162.073 376.816 161.688 377.223 161.412 377.701C161.136 378.179 160.975 378.715 160.944 379.266Z" fill="#BBB8DF"/>
<path d="M160.944 390.572V392.428C160.944 393.445 161.662 393.854 162.536 393.346L241.51 347.758C241.974 347.458 242.36 347.052 242.637 346.574C242.914 346.095 243.073 345.558 243.101 345.006V343.127C243.101 342.111 242.394 341.702 241.51 342.21L162.536 387.798C162.072 388.103 161.686 388.513 161.409 388.995C161.133 389.477 160.974 390.017 160.944 390.572Z" fill="#BBB8DF"/>
<path d="M160.944 401.811V403.679C160.944 404.696 161.662 405.105 162.536 404.596L241.51 359.008C241.974 358.708 242.36 358.303 242.637 357.824C242.914 357.346 243.073 356.809 243.101 356.257V354.378C243.101 353.361 242.394 352.952 241.51 353.461L162.536 399.059C162.074 399.363 161.691 399.769 161.414 400.247C161.138 400.725 160.977 401.26 160.944 401.811Z" fill="#BBB8DF"/>
<path d="M138.995 411.083L133.823 406.099L136.045 401.38L138.995 404.22L151.252 378.271L153.473 380.426L138.995 411.083Z" fill="#36336A"/>
<path d="M127.491 353.074L149.749 340.044L149.738 365.916L127.491 378.945V353.074Z" fill="#FAFAFA"/>
<path d="M128.431 353.604V377.343L148.832 365.396V341.646L128.431 353.604ZM127.502 379.874C127.343 379.871 127.188 379.83 127.049 379.752C126.908 379.671 126.79 379.553 126.709 379.411C126.627 379.27 126.584 379.109 126.585 378.945V353.074C126.585 352.915 126.627 352.758 126.706 352.621C126.786 352.483 126.9 352.369 127.038 352.289L149.296 339.259C149.435 339.178 149.593 339.135 149.755 339.135C149.916 339.135 150.074 339.178 150.213 339.259C150.353 339.34 150.47 339.456 150.551 339.595C150.632 339.735 150.676 339.893 150.677 340.055V365.905C150.676 366.065 150.633 366.222 150.551 366.36C150.47 366.497 150.353 366.611 150.213 366.689L127.955 379.741C127.816 379.828 127.655 379.874 127.491 379.874H127.502Z" fill="#455A64"/>
<path d="M160.944 334.485V336.364C160.944 337.381 161.662 337.789 162.536 337.281L241.51 291.693C241.974 291.391 242.361 290.983 242.637 290.503C242.914 290.023 243.073 289.484 243.101 288.931V287.052C243.101 286.046 242.394 285.626 241.51 286.134L162.536 331.733C162.074 332.036 161.69 332.442 161.413 332.92C161.137 333.398 160.976 333.934 160.944 334.485Z" fill="#BBB8DF"/>
<path d="M160.944 345.791V347.659C160.944 348.675 161.662 349.084 162.536 348.576L241.51 302.988C241.975 302.689 242.361 302.283 242.638 301.804C242.915 301.326 243.074 300.788 243.101 300.236V298.357C243.101 297.341 242.394 296.932 241.51 297.44L162.536 343.028C162.073 343.332 161.688 343.741 161.412 344.221C161.136 344.7 160.975 345.238 160.944 345.791Z" fill="#BBB8DF"/>
<path d="M160.944 357.063V358.931C160.944 359.948 161.662 360.357 162.536 359.848L241.51 314.261C241.974 313.961 242.36 313.555 242.637 313.076C242.914 312.598 243.073 312.061 243.101 311.509V309.63C243.101 308.613 242.394 308.204 241.51 308.713L162.536 354.301C162.073 354.605 161.688 355.013 161.412 355.493C161.136 355.973 160.975 356.511 160.944 357.063Z" fill="#BBB8DF"/>
<path d="M138.995 366.303L133.823 361.318L136.045 356.61L138.995 359.44L151.252 333.501L153.473 335.645L138.995 366.303Z" fill="#36336A"/>
<path d="M126.573 282.355V329.434C126.573 332.241 128.552 333.38 130.994 331.976L171.708 308.436C172.993 307.603 174.064 306.478 174.832 305.153C175.6 303.828 176.044 302.34 176.129 300.811V253.764C176.129 250.957 174.162 249.819 171.708 251.222L130.972 274.74C129.691 275.573 128.625 276.697 127.861 278.021C127.096 279.344 126.655 280.829 126.573 282.355Z" fill="#36336A"/>
<path opacity="0.7" d="M126.573 282.355V329.434C126.573 332.241 128.552 333.38 130.994 331.976L171.708 308.436C172.993 307.603 174.064 306.478 174.832 305.153C175.6 303.828 176.044 302.34 176.129 300.811V253.764C176.129 250.957 174.162 249.819 171.708 251.222L130.972 274.74C129.691 275.573 128.625 276.697 127.861 278.021C127.096 279.344 126.655 280.829 126.573 282.355Z" fill="white"/>
<path d="M151.34 269.944C156.037 267.236 159.839 269.435 159.839 274.851C159.677 277.798 158.824 280.665 157.347 283.221C155.871 285.777 153.813 287.948 151.34 289.56C146.655 292.268 142.853 290.08 142.853 284.664C143.011 281.716 143.863 278.847 145.337 276.29C146.812 273.732 148.869 271.558 151.34 269.944Z" fill="#FAFAFA"/>
<path d="M166.083 290.688C165.332 286.764 161.309 286.654 157.098 289.085L145.583 295.716C141.372 298.147 137.349 302.9 136.598 307.696L134.398 322.803L168.294 303.231L166.083 290.688Z" fill="#FAFAFA"/>
<path d="M181.157 268.065V252.073C181.181 251.616 181.313 251.17 181.541 250.772C181.77 250.375 182.089 250.037 182.472 249.786L241.786 215.526C242.516 215.106 243.101 215.449 243.101 216.288V232.302C243.077 232.76 242.946 233.206 242.717 233.603C242.489 234.001 242.17 234.339 241.786 234.59L182.506 268.85C181.743 269.248 181.157 268.905 181.157 268.065Z" fill="#455A64"/>
<path d="M187.49 261.202C187.466 261.221 187.437 261.231 187.407 261.231C187.377 261.231 187.347 261.221 187.324 261.202C187.276 261.143 187.252 261.068 187.258 260.992V252.449C187.26 252.35 187.282 252.252 187.324 252.162C187.355 252.078 187.413 252.008 187.49 251.963L188.595 251.311C188.618 251.292 188.648 251.282 188.678 251.282C188.708 251.282 188.737 251.292 188.761 251.311C188.809 251.37 188.832 251.445 188.827 251.521V260.064C188.825 260.163 188.802 260.261 188.761 260.351C188.73 260.434 188.671 260.505 188.595 260.55L187.49 261.202Z" fill="#36336A"/>
<path d="M193.944 257.467C193.845 257.522 193.767 257.533 193.712 257.467C193.663 257.435 193.622 257.394 193.59 257.345L191.634 253.963V258.384C191.631 258.484 191.605 258.583 191.557 258.671C191.526 258.752 191.472 258.821 191.402 258.87L190.297 259.522C190.274 259.541 190.244 259.551 190.214 259.551C190.184 259.551 190.155 259.541 190.131 259.522C190.106 259.494 190.088 259.46 190.076 259.424C190.065 259.388 190.061 259.35 190.065 259.312V250.78C190.064 250.681 190.087 250.582 190.131 250.493C190.165 250.408 190.222 250.335 190.297 250.283L191.192 249.775C191.226 249.75 191.267 249.737 191.308 249.737C191.35 249.737 191.39 249.75 191.424 249.775C191.47 249.806 191.508 249.848 191.535 249.896L193.502 253.278V248.857C193.501 248.758 193.524 248.659 193.568 248.57C193.606 248.491 193.663 248.422 193.734 248.371L194.839 247.719C194.863 247.7 194.892 247.69 194.922 247.69C194.952 247.69 194.982 247.7 195.005 247.719C195.03 247.748 195.049 247.781 195.06 247.817C195.071 247.853 195.075 247.891 195.071 247.929V256.494C195.071 256.597 195.048 256.699 195.005 256.792C194.968 256.872 194.911 256.941 194.839 256.991L193.944 257.467Z" fill="#36336A"/>
<path d="M198.498 245.443C198.803 245.247 199.152 245.129 199.514 245.1C199.786 245.083 200.057 245.14 200.299 245.266C200.528 245.392 200.713 245.584 200.829 245.818C200.952 246.054 201.02 246.315 201.028 246.581C201.026 246.665 201.007 246.747 200.973 246.824C200.973 246.901 200.896 246.957 200.84 246.979L199.735 247.631C199.677 247.671 199.607 247.69 199.536 247.686C199.482 247.674 199.433 247.647 199.393 247.609L199.304 247.531C199.264 247.483 199.21 247.449 199.15 247.432C199.067 247.408 198.978 247.408 198.895 247.432C198.758 247.452 198.626 247.501 198.509 247.576C198.4 247.638 198.297 247.708 198.199 247.785C198.1 247.862 198.011 247.952 197.934 248.051C197.855 248.143 197.791 248.247 197.746 248.36C197.699 248.48 197.672 248.607 197.669 248.736C197.664 248.786 197.67 248.836 197.685 248.883C197.7 248.93 197.725 248.974 197.757 249.012C197.793 249.047 197.837 249.073 197.885 249.088C197.933 249.104 197.984 249.108 198.033 249.101C198.205 249.096 198.376 249.07 198.542 249.023L199.326 248.824C199.595 248.744 199.875 248.707 200.155 248.714C200.37 248.719 200.576 248.797 200.741 248.935C200.912 249.093 201.035 249.296 201.095 249.521C201.178 249.853 201.216 250.195 201.205 250.537C201.206 250.983 201.139 251.427 201.006 251.852C200.737 252.718 200.258 253.503 199.614 254.14C199.281 254.455 198.91 254.726 198.509 254.947C198.174 255.155 197.796 255.284 197.403 255.323C197.118 255.355 196.829 255.301 196.575 255.168C196.342 255.043 196.153 254.85 196.033 254.615C195.897 254.344 195.826 254.046 195.823 253.742C195.806 253.662 195.806 253.579 195.823 253.499C195.823 253.422 195.9 253.367 195.956 253.344L197.061 252.692C197.117 252.656 197.182 252.633 197.249 252.626C197.3 252.639 197.349 252.661 197.392 252.692L197.492 252.803C197.553 252.866 197.627 252.916 197.709 252.948C197.791 252.981 197.879 252.995 197.967 252.991C198.121 252.972 198.268 252.919 198.398 252.836C198.682 252.679 198.94 252.478 199.161 252.239C199.353 252.049 199.464 251.792 199.47 251.521C199.475 251.471 199.468 251.421 199.449 251.374C199.43 251.328 199.399 251.287 199.36 251.256C199.248 251.222 199.129 251.222 199.017 251.256C198.826 251.274 198.637 251.311 198.453 251.366L197.624 251.576C197.412 251.663 197.178 251.689 196.952 251.65C196.725 251.611 196.514 251.508 196.342 251.355C196.021 250.894 195.876 250.334 195.934 249.775C195.936 249.375 195.992 248.977 196.099 248.592C196.334 247.75 196.762 246.975 197.348 246.327C197.68 245.971 198.068 245.672 198.498 245.443Z" fill="#36336A"/>
<path d="M206.974 240.701C206.996 240.68 207.026 240.669 207.057 240.669C207.087 240.669 207.117 240.68 207.14 240.701C207.164 240.73 207.183 240.763 207.194 240.799C207.206 240.836 207.21 240.874 207.206 240.911V246.183C207.213 246.759 207.15 247.335 207.018 247.896C206.905 248.414 206.727 248.915 206.487 249.388C206.268 249.822 205.989 250.224 205.659 250.581C205.339 250.924 204.966 251.211 204.553 251.432C204.221 251.646 203.842 251.775 203.448 251.808C203.303 251.824 203.155 251.81 203.015 251.769C202.875 251.727 202.744 251.658 202.63 251.565C202.37 251.334 202.185 251.03 202.1 250.692C201.954 250.205 201.887 249.697 201.901 249.189V243.917C201.902 243.817 201.929 243.718 201.978 243.63C202.009 243.55 202.063 243.48 202.133 243.431L203.238 242.779C203.262 242.76 203.291 242.75 203.321 242.75C203.351 242.75 203.381 242.76 203.404 242.779C203.452 242.838 203.476 242.913 203.47 242.989V248.216C203.432 248.603 203.522 248.991 203.725 249.322C203.887 249.52 204.141 249.52 204.487 249.322C204.838 249.123 205.11 248.811 205.261 248.437C205.437 247.995 205.523 247.521 205.515 247.045V241.829C205.516 241.726 205.538 241.624 205.581 241.53C205.618 241.45 205.675 241.382 205.747 241.331L206.974 240.701Z" fill="#36336A"/>
<path d="M210.908 238.425C211.223 238.239 211.567 238.104 211.925 238.027C212.185 237.974 212.456 238.018 212.687 238.148C212.918 238.307 213.086 238.542 213.162 238.812C213.285 239.216 213.341 239.638 213.328 240.06C213.336 240.667 213.246 241.272 213.063 241.851C212.896 242.369 212.641 242.855 212.311 243.287L213.417 245.818C213.422 245.862 213.422 245.907 213.417 245.951C213.437 246.027 213.437 246.107 213.417 246.183C213.391 246.251 213.345 246.309 213.284 246.349L212.124 247.023C212.002 247.089 211.925 247.1 211.869 247.023C211.829 246.97 211.792 246.915 211.759 246.857L210.808 244.569L210.013 245.034V247.863C210.011 247.962 209.988 248.06 209.946 248.15C209.913 248.232 209.855 248.301 209.781 248.349L208.675 249.001C208.652 249.02 208.623 249.03 208.593 249.03C208.562 249.03 208.533 249.02 208.51 249.001C208.484 248.973 208.465 248.94 208.454 248.903C208.442 248.867 208.439 248.829 208.443 248.791V240.259C208.444 240.16 208.467 240.062 208.51 239.972C208.54 239.889 208.599 239.818 208.675 239.773L210.908 238.425ZM209.935 242.989L210.908 242.436C211.147 242.296 211.351 242.104 211.505 241.873C211.67 241.604 211.75 241.293 211.737 240.978C211.737 240.602 211.659 240.392 211.505 240.348C211.402 240.325 211.295 240.326 211.192 240.348C211.089 240.371 210.992 240.416 210.908 240.48L209.935 241.033V242.989Z" fill="#36336A"/>
<path d="M217.451 234.656C217.561 234.59 217.65 234.59 217.705 234.656C217.769 234.715 217.816 234.792 217.837 234.877L219.705 242.116C219.713 242.178 219.713 242.241 219.705 242.304C219.702 242.384 219.684 242.463 219.65 242.536C219.624 242.604 219.578 242.662 219.517 242.702L218.412 243.321C218.302 243.387 218.213 243.398 218.169 243.321C218.123 243.276 218.092 243.218 218.081 243.155L217.837 242.193L215.561 243.508L215.318 244.746C215.299 244.841 215.269 244.934 215.229 245.022C215.172 245.124 215.088 245.208 214.986 245.266L213.881 245.896C213.863 245.912 213.839 245.921 213.815 245.921C213.79 245.921 213.767 245.912 213.748 245.896C213.726 245.874 213.71 245.848 213.7 245.819C213.691 245.791 213.688 245.76 213.693 245.73C213.686 245.656 213.686 245.582 213.693 245.509L215.561 236.104C215.59 235.979 215.63 235.857 215.682 235.739C215.74 235.616 215.832 235.513 215.948 235.441L217.451 234.656ZM216.058 241.287L217.451 240.48L216.754 237.717L216.058 241.287Z" fill="#36336A"/>
<path d="M224.336 239.917C224.302 239.941 224.261 239.954 224.22 239.954C224.178 239.954 224.137 239.941 224.104 239.917C224.053 239.888 224.011 239.846 223.982 239.795L222.026 236.413V240.834C222.021 240.938 221.995 241.039 221.949 241.132C221.912 241.209 221.859 241.277 221.794 241.331L220.689 241.972C220.666 241.993 220.637 242.005 220.606 242.005C220.575 242.005 220.545 241.993 220.523 241.972C220.498 241.944 220.479 241.91 220.468 241.874C220.456 241.838 220.453 241.8 220.457 241.762V233.286C220.458 233.186 220.48 233.088 220.523 232.998C220.554 232.915 220.612 232.845 220.689 232.8L221.584 232.28C221.619 232.259 221.659 232.247 221.7 232.247C221.741 232.247 221.781 232.259 221.816 232.28C221.871 232.335 221.915 232.369 221.926 232.402L223.894 235.783V231.363C223.896 231.264 223.918 231.166 223.96 231.075C223.994 230.994 224.052 230.925 224.126 230.877L225.231 230.225C225.254 230.206 225.284 230.195 225.314 230.195C225.344 230.195 225.373 230.206 225.397 230.225C225.445 230.284 225.468 230.359 225.463 230.435V238.977C225.461 239.077 225.438 239.175 225.397 239.265C225.366 239.348 225.307 239.418 225.231 239.464L224.336 239.917Z" fill="#36336A"/>
<path d="M228.049 232.048C228.049 232.17 228.049 232.324 228.049 232.534V233.794C228.049 234.004 228.049 234.159 228.049 234.269C228.056 234.452 228.082 234.634 228.127 234.811C228.152 234.951 228.217 235.082 228.314 235.187C228.354 235.232 228.404 235.269 228.459 235.294C228.514 235.318 228.574 235.331 228.635 235.33C228.809 235.328 228.978 235.274 229.121 235.176C229.302 235.077 229.466 234.95 229.608 234.8C229.725 234.663 229.829 234.515 229.917 234.358C229.995 234.219 230.054 234.07 230.094 233.916C230.094 233.772 230.171 233.628 230.193 233.518C230.214 233.397 230.248 233.278 230.293 233.164C230.335 233.078 230.405 233.007 230.492 232.965L231.597 232.313C231.615 232.297 231.639 232.288 231.663 232.288C231.688 232.288 231.711 232.297 231.729 232.313C231.752 232.37 231.752 232.433 231.729 232.49C231.718 232.958 231.644 233.423 231.508 233.872C231.378 234.346 231.189 234.803 230.945 235.231C230.71 235.655 230.428 236.052 230.105 236.413C229.789 236.763 229.415 237.055 229 237.275C228.673 237.496 228.289 237.619 227.895 237.629C227.592 237.638 227.298 237.535 227.066 237.342C226.815 237.116 226.631 236.825 226.535 236.502C226.408 236.093 226.337 235.669 226.325 235.242C226.325 234.888 226.325 234.501 226.325 234.137C226.325 233.772 226.325 233.319 226.325 232.932C226.337 232.425 226.407 231.92 226.535 231.429C226.657 230.93 226.831 230.444 227.055 229.981C227.281 229.534 227.56 229.115 227.883 228.733C228.198 228.367 228.572 228.057 228.989 227.815C229.323 227.611 229.702 227.489 230.094 227.462C230.389 227.443 230.682 227.516 230.934 227.672C231.188 227.84 231.385 228.084 231.497 228.368C231.64 228.719 231.715 229.094 231.718 229.473C231.734 229.55 231.734 229.628 231.718 229.705C231.686 229.769 231.64 229.825 231.586 229.871L230.481 230.523C230.381 230.523 230.315 230.589 230.282 230.523C230.23 230.451 230.196 230.367 230.182 230.28C230.157 230.181 230.124 230.085 230.083 229.992C230.046 229.903 229.985 229.826 229.906 229.771C229.815 229.71 229.705 229.682 229.596 229.694C229.424 229.71 229.257 229.767 229.11 229.86C228.924 229.965 228.76 230.104 228.624 230.269C228.49 230.424 228.382 230.599 228.303 230.788C228.216 230.978 228.153 231.179 228.116 231.385C228.075 231.604 228.053 231.826 228.049 232.048Z" fill="#36336A"/>
<path d="M236.99 230.512C237.011 230.492 237.038 230.48 237.067 230.48C237.096 230.48 237.124 230.492 237.145 230.512C237.171 230.54 237.191 230.573 237.205 230.609C237.218 230.645 237.224 230.683 237.222 230.722V232.181C237.216 232.281 237.189 232.378 237.145 232.468C237.111 232.546 237.058 232.615 236.99 232.667L232.912 235.01C232.891 235.03 232.864 235.041 232.835 235.041C232.806 235.041 232.778 235.03 232.757 235.01C232.732 234.981 232.714 234.948 232.702 234.912C232.691 234.876 232.687 234.838 232.691 234.8V226.213C232.69 226.113 232.713 226.015 232.757 225.925C232.788 225.845 232.842 225.776 232.912 225.727L236.913 223.417C236.935 223.396 236.965 223.384 236.996 223.384C237.026 223.384 237.056 223.396 237.078 223.417C237.103 223.445 237.122 223.479 237.133 223.515C237.145 223.551 237.149 223.589 237.145 223.627V225.03C237.143 225.13 237.12 225.227 237.078 225.318C237.048 225.401 236.989 225.471 236.913 225.517L234.271 227.042V228.467L236.725 227.053C236.748 227.034 236.778 227.024 236.808 227.024C236.838 227.024 236.867 227.034 236.891 227.053C236.915 227.081 236.934 227.115 236.946 227.151C236.957 227.187 236.961 227.225 236.957 227.263V228.666C236.956 228.766 236.933 228.864 236.891 228.954C236.86 229.037 236.801 229.107 236.725 229.153L234.271 230.567V232.048L236.99 230.512Z" fill="#36336A"/>
<path d="M182.472 274.608L233.066 245.376C233.796 244.956 234.382 245.299 234.382 246.139V247.852C234.359 248.31 234.228 248.756 234 249.154C233.771 249.552 233.451 249.89 233.066 250.139L182.472 279.371C181.743 279.791 181.157 279.448 181.157 278.608V276.895C181.181 276.437 181.313 275.992 181.541 275.594C181.77 275.197 182.089 274.859 182.472 274.608Z" fill="#36336A"/>
<path d="M182.472 284.123L227.618 258.041C228.347 257.621 228.933 257.964 228.933 258.804V260.517C228.911 260.975 228.78 261.421 228.551 261.819C228.323 262.217 228.003 262.555 227.618 262.804L182.472 288.908C181.743 289.328 181.157 288.986 181.157 288.146V286.422C181.18 285.962 181.312 285.515 181.54 285.115C181.769 284.716 182.088 284.376 182.472 284.123Z" fill="#36336A"/>
<path d="M182.472 293.672L218.302 272.983C219.031 272.563 219.628 272.906 219.628 273.746V275.47C219.601 275.928 219.467 276.374 219.236 276.771C219.006 277.168 218.686 277.506 218.302 277.757L182.472 298.49C181.743 298.91 181.157 298.578 181.157 297.727V296.014C181.173 295.547 181.3 295.09 181.529 294.683C181.758 294.275 182.081 293.928 182.472 293.672Z" fill="#36336A"/>
<path d="M295.618 438.016C294.785 439.651 294.403 441.478 294.513 443.31C294.59 444.912 295.551 446.979 295.12 450.593C294.689 454.207 293.86 455.334 293.474 457.887C293.248 459.053 293.257 460.253 293.5 461.416C293.743 462.579 294.215 463.683 294.888 464.661C296.38 467.093 299.674 469.016 306.183 468.784C311.432 468.596 313.554 465.899 313.665 462.805L295.618 438.016Z" fill="#263238"/>
<path d="M297.143 430.534C296.99 431.207 296.886 431.89 296.833 432.579C296.634 433.794 296.27 434.955 295.982 436.148C295.905 436.469 295.828 436.789 295.761 437.099C295.253 439.519 295.761 442.017 295.761 444.47C295.559 447.381 295.052 450.263 294.247 453.068C293.065 458.174 292.877 461.589 297.342 465.137C299.696 466.993 302.282 467.06 305.266 467.148C307.581 467.236 309.877 466.681 311.897 465.545C313.809 464.142 313.786 462.959 313.797 462.506C313.974 457.069 312.018 450.758 311.587 445.343C311.431 443.875 311.398 442.396 311.488 440.923C311.676 439.132 312.294 437.353 312.493 435.529C312.634 434.86 312.545 434.163 312.239 433.551C311.941 433.205 311.571 432.927 311.155 432.736C310.739 432.545 310.287 432.446 309.83 432.446C307.45 432.137 305.067 431.897 302.68 431.728C302.401 431.671 302.114 431.67 301.835 431.725C301.556 431.78 301.291 431.89 301.055 432.048C300.675 432.548 300.463 433.155 300.447 433.783C300.326 434.402 299.872 435.087 299.265 434.977C299.067 434.916 298.891 434.797 298.761 434.635C298.631 434.474 298.553 434.277 298.535 434.071C298.469 433.673 298.303 430.534 298.314 430.114C298.27 430.147 297.43 430.004 297.143 430.534Z" fill="#263238"/>
<path d="M376.151 448.537C376.537 449.498 376.537 450.571 376.151 451.532C375.775 452.416 371.321 455.168 365.165 455.002C360.6 454.868 356.155 453.513 352.29 451.079C349.892 449.62 347.439 449.432 344.4 449.377C341.36 449.322 337.769 448.272 336.752 446.846C336.354 445.509 336.354 444.084 336.752 442.746L376.151 448.537Z" fill="#263238"/>
<path d="M353.881 430.368C354.128 430.801 354.343 431.252 354.522 431.717C355.279 433.384 356.442 434.836 357.904 435.938C360.032 437.402 362.31 438.632 364.701 439.607C366.215 440.271 367.795 440.47 369.332 441C371.061 441.564 372.727 442.305 374.305 443.21C376.78 444.735 377.256 448.802 374.581 450.526C372.271 452.018 366.104 453.776 359.496 452.184C355.893 451.322 351.76 447.675 347.096 447.498C344.112 447.388 338.465 446.78 336.464 444.603C335.724 441.354 336.53 440.425 337.194 437.651C337.552 436.089 337.741 434.492 337.757 432.888C337.757 432.048 337.194 429.628 338.962 429.33L339.15 431.142C339.15 431.142 339.481 431.761 341.36 432.081C341.957 432.192 342.465 432.965 342.753 433.684C343.04 434.402 343.261 434.944 343.858 434.922C344.064 434.901 344.261 434.823 344.425 434.696C344.589 434.569 344.714 434.398 344.786 434.203C344.923 433.816 345.038 433.421 345.129 433.021C345.366 432.386 345.737 431.811 346.218 431.334C346.699 430.857 347.277 430.49 347.914 430.258C348.969 429.901 350.064 429.675 351.174 429.584C352.025 429.451 352.721 429.086 353.473 429.805C353.636 429.972 353.774 430.161 353.881 430.368Z" fill="#263238"/>
<path d="M307.144 291.273C304.879 313.498 303.973 324.052 301.055 368.38C298.723 376.704 297.242 385.242 296.634 393.865C296.004 404.629 294.424 437.066 294.424 437.066C294.424 437.066 303.099 444.194 313.145 440.889C313.145 440.889 322.23 393.235 325.402 378.36C328.441 364.092 331.513 346.144 331.513 346.144L332.95 368.38C332.95 368.38 332.541 377.221 332.817 390.483C332.972 397.567 336.376 435.795 336.376 435.795C336.376 435.795 348.532 441.32 356.766 434.225C356.766 434.225 357.363 372.149 357.484 365.706C357.628 358.401 356.379 284.941 356.379 284.941L307.144 291.273Z" fill="#36336A"/>
<path d="M331.535 346.144L337.061 315.885C337.061 315.885 346.676 315.045 351.992 309.685C351.992 309.685 351.041 314.946 338.962 318.095L333.989 343.348L332.961 368.38L331.535 346.144Z" fill="#263238"/>
<path d="M294.723 431.208C298.426 434.405 303.182 436.117 308.073 436.016C308.073 436.016 299.784 434.789 294.811 429.307L294.723 431.208Z" fill="#263238"/>
<path d="M336.001 431.308C336.001 431.308 344.478 434.258 351.639 432.004C351.639 432.004 346.113 435.717 336.167 432.667L336.001 431.308Z" fill="#263238"/>
<path d="M418.058 234.126C418.236 233.71 418.352 233.271 418.401 232.822C418.401 232.479 418.157 232.313 418.058 231.993C417.826 231.252 418.279 230.357 417.771 229.683C417.605 229.462 417.351 229.307 417.185 229.086C417.019 228.865 416.942 228.445 416.743 228.158C416.547 227.927 416.287 227.759 415.996 227.675C415.706 227.59 415.396 227.593 415.107 227.683C414.23 227.961 413.436 228.455 412.797 229.119C410.421 231.208 408.067 233.838 405.293 235.374C404.875 235.609 404.434 235.801 403.978 235.949C403.68 236.049 402.95 236.347 402.873 235.949C402.894 235.494 402.98 235.043 403.127 234.612C403.252 233.88 403.337 233.142 403.381 232.402C403.448 231.164 403.503 229.373 402.508 228.456C400.84 226.898 401.271 230.468 398.673 233.849C396.076 237.231 395.678 242.315 393.7 244.602L380.029 257.069C380.029 257.069 369.32 241.862 363.518 233.33C357.341 224.257 354.047 224.842 346.455 223.582C343.449 233.529 353.561 252.858 353.561 252.858C353.561 252.858 368.005 268.706 372.459 272.828C376.206 276.287 380.195 276.751 383.776 273.359C386.163 271.148 395.855 259.478 398.563 256.107C400.44 253.55 402.752 251.343 405.393 249.587C407.514 248.423 409.562 247.131 411.526 245.719C413.071 244.597 414.497 243.319 415.781 241.906C416.445 241.195 417.048 240.43 417.583 239.618C417.905 238.968 418.171 238.291 418.378 237.596C418.643 237.01 418.796 236.381 418.832 235.739C418.848 235.419 418.787 235.1 418.652 234.809C418.517 234.518 418.313 234.264 418.058 234.07V234.126Z" fill="#FFA8A7"/>
<path d="M386.284 250.902L391.589 246.614C391.589 246.614 394.009 253.057 398.551 256.207L393.943 262.672L386.284 250.902Z" fill="#EAC435"/>
<path d="M344.587 223.151C348.532 223.505 354.777 223.958 357.849 226.467C360.921 228.976 363.762 231.993 369.354 240.27C374.946 248.548 380.173 255.853 380.173 255.853L389.18 247.575C389.18 247.575 390.385 255.632 395.811 261.29C395.811 261.29 386.24 272.707 383.566 274.939C380.891 277.171 377.2 278.686 371.84 273.834C366.48 268.982 351.572 252.073 351.572 252.073L344.587 223.151Z" fill="#E6E6E6"/>
<path d="M321.29 222.499C319.367 222.964 311.056 225.318 306.094 227.064C303.584 228.02 301.406 229.686 299.828 231.86C296.225 237.121 301.674 248.095 304.326 270.121C304.116 284.333 303.707 302.015 303.707 302.015C310.25 306.779 341.901 309.398 355.649 299.352C355.649 299.352 354.953 246.603 354.047 239.674C352.312 226.412 347.107 222.842 336.364 222.212L321.29 222.499Z" fill="#EAC435"/>
<path d="M353.119 180.36C353.227 179.876 353.298 179.385 353.329 178.89C353.399 178.001 353.271 177.107 352.954 176.274C352.637 175.441 352.138 174.688 351.494 174.071C350.835 173.469 349.998 173.097 349.109 173.011C348.22 172.926 347.327 173.131 346.565 173.596C346.565 170.69 344.355 167.695 341.47 167.551C339.481 167.451 337.68 168.601 335.945 169.485C333.153 170.697 330.284 171.723 327.358 172.557C324.448 173.404 321.741 174.833 319.4 176.757C318.235 177.727 317.311 178.955 316.701 180.344C316.091 181.732 315.812 183.243 315.886 184.758C313.521 185.775 312.228 188.461 312.117 191.036C311.941 194.937 313.764 198.606 315.234 202.087C315.234 202.087 318.958 210.995 319.854 212.752C320.881 214.785 321.644 216.487 321.644 216.487L321.312 210.077C323.864 209.992 326.39 209.545 328.816 208.751C331.223 207.836 333.551 206.727 335.779 205.436C340.194 202.841 344.364 199.849 348.234 196.495C350.256 194.793 352.323 192.903 353.052 190.372C353.363 189.264 353.4 188.096 353.159 186.969C352.919 185.843 352.408 184.792 351.671 183.907C352.325 182.802 352.812 181.607 353.119 180.36Z" fill="#37474F"/>
<path d="M326.727 185.035C326.666 186.751 326.251 188.437 325.51 189.987C324.768 191.536 323.715 192.917 322.417 194.042C322.917 196.61 322.977 199.245 322.594 201.833C322.507 202.39 322.308 202.924 322.008 203.402C321.859 203.64 321.659 203.84 321.421 203.989C321.184 204.139 320.916 204.233 320.638 204.264C319.886 204.32 319.533 203.866 319.345 203.281C319.025 202.521 318.656 201.782 318.24 201.07C318.053 200.765 317.83 200.483 317.577 200.23C316.471 199.125 313.034 197.877 311.465 201.49C309.896 205.104 312.846 210.122 315.565 210.928C319.411 212.034 320.527 209.05 320.527 209.05L321.434 225.848C323.986 228.522 334.452 232.181 337.237 235.341C338.486 233.131 342.067 227.904 337.348 224.898L337.237 219.493C339.778 219.618 342.325 219.493 344.841 219.118C347.272 218.642 349.527 216.532 350.112 212.73C351.29 205.595 351.29 198.315 350.112 191.179C349.217 186.759 346.797 183.863 345.515 183.2C345.57 184.15 344.786 186.515 339.989 187.112C335.462 187.614 330.884 186.896 326.727 185.035Z" fill="#FFA8A7"/>
<path d="M337.194 219.504C332.839 219.107 329.734 218.51 327.247 217.217C325.663 216.429 324.339 215.201 323.434 213.68C323.881 215.231 324.633 216.678 325.645 217.935C327.689 220.366 337.172 221.715 337.172 221.715L337.194 219.504Z" fill="#FFA8A7"/>
<path d="M335.182 200.44C335.194 200.661 335.162 200.882 335.089 201.09C335.015 201.299 334.901 201.491 334.753 201.655C334.606 201.819 334.427 201.953 334.227 202.048C334.028 202.143 333.812 202.197 333.591 202.209C333.143 202.212 332.712 202.038 332.392 201.726C332.071 201.414 331.887 200.987 331.878 200.54C331.865 200.1 332.027 199.673 332.328 199.353C332.63 199.033 333.046 198.846 333.486 198.832C333.926 198.819 334.352 198.981 334.673 199.283C334.993 199.584 335.18 200.001 335.193 200.44H335.182Z" fill="#263238"/>
<path d="M333.911 194.274L330.098 196.34C329.829 195.818 329.772 195.211 329.941 194.648C330.11 194.086 330.492 193.61 331.005 193.323C331.257 193.189 331.533 193.107 331.818 193.083C332.102 193.058 332.389 193.091 332.66 193.18C332.932 193.269 333.182 193.411 333.397 193.599C333.612 193.787 333.787 194.017 333.911 194.274Z" fill="#263238"/>
<path d="M349.461 196.042L345.416 194.473C345.644 193.931 346.072 193.498 346.612 193.263C347.151 193.028 347.759 193.01 348.312 193.213C348.577 193.318 348.818 193.475 349.021 193.676C349.224 193.877 349.384 194.117 349.492 194.381C349.599 194.646 349.652 194.929 349.646 195.215C349.641 195.5 349.578 195.782 349.461 196.042Z" fill="#263238"/>
<path d="M334.364 209.193L339.636 210.984C339.534 211.332 339.363 211.656 339.134 211.938C338.906 212.22 338.623 212.453 338.303 212.625C337.984 212.797 337.633 212.903 337.272 212.938C336.91 212.973 336.546 212.936 336.199 212.829C335.48 212.582 334.885 212.064 334.542 211.384C334.2 210.705 334.136 209.919 334.364 209.193Z" fill="#F28F8F"/>
<path d="M348.355 199.612C348.35 199.938 348.25 200.256 348.067 200.527C347.883 200.797 347.624 201.007 347.322 201.132C347.02 201.256 346.688 201.289 346.367 201.227C346.046 201.164 345.751 201.009 345.518 200.78C345.285 200.551 345.124 200.259 345.055 199.94C344.986 199.62 345.013 199.288 345.131 198.983C345.25 198.679 345.455 198.416 345.722 198.227C345.988 198.038 346.304 197.932 346.631 197.921C347.083 197.918 347.519 198.094 347.842 198.411C348.165 198.727 348.349 199.159 348.355 199.612Z" fill="#263238"/>
<path d="M340.487 207.989L346.013 206.883C345.129 202.93 342.804 199.447 339.492 197.114L340.487 207.989Z" fill="#F28F8F"/>
<path d="M340.033 238.082C341.006 241.397 346.664 264.749 345.902 272.972C345.291 277.187 344.151 281.309 342.509 285.239C340.033 291.096 338.387 285.858 336.983 282.399C335.826 279.185 335.048 275.847 334.662 272.452C334.209 268.032 335.977 254.637 335.303 238.922C335.557 238.555 335.882 238.241 336.258 238C336.633 237.759 337.053 237.594 337.493 237.516C337.933 237.438 338.384 237.448 338.82 237.545C339.256 237.642 339.668 237.825 340.033 238.082Z" fill="#36336A"/>
<path opacity="0.2" d="M340.033 238.082C341.006 241.397 346.664 264.749 345.902 272.972C345.291 277.187 344.151 281.309 342.509 285.239C340.033 291.096 338.387 285.858 336.983 282.399C335.826 279.185 335.048 275.847 334.662 272.452C334.209 268.032 335.977 254.637 335.303 238.922C335.557 238.555 335.882 238.241 336.258 238C336.633 237.759 337.053 237.594 337.493 237.516C337.933 237.438 338.384 237.448 338.82 237.545C339.256 237.642 339.668 237.825 340.033 238.082Z" fill="black"/>
<path d="M340.244 230.589C342.454 232.523 340.034 238.082 340.034 238.082C338.419 237.733 336.732 238.022 335.326 238.889C335.326 238.889 330.817 236.966 330.806 233.628C330.806 230.589 334.033 231.562 336.331 231.164C338.63 230.766 339.978 228.964 340.244 230.589Z" fill="#36336A"/>
<path opacity="0.2" d="M340.244 230.589C342.454 232.523 340.034 238.082 340.034 238.082C338.419 237.733 336.732 238.022 335.326 238.889C335.326 238.889 330.817 236.966 330.806 233.628C330.806 230.589 334.033 231.562 336.331 231.164C338.63 230.766 339.978 228.964 340.244 230.589Z" fill="black"/>
<path opacity="0.2" d="M340.034 238.082C339.669 236.778 337.89 236.9 336.475 236.457C335.671 236.138 334.998 235.559 334.563 234.811C333.834 233.551 334.563 231.495 335.591 231.252C333.381 231.407 330.806 230.91 330.806 233.628C330.806 236.944 335.326 238.889 335.326 238.889C336.732 238.022 338.419 237.733 340.034 238.082Z" fill="black"/>
<path d="M336.674 231.075C332.254 230.147 322.064 225.936 321.058 220.875L320.937 218.101C319.235 218.101 318.45 219.991 317.621 222.709C317.268 229.871 324.816 236.402 332.397 238.182C332.652 236.524 333.218 234.931 334.066 233.485C334.638 232.41 335.557 231.56 336.674 231.075Z" fill="#37474F"/>
<path d="M321.113 221.737C321.113 221.737 324.341 237.972 325.744 248.946C327.148 259.92 326.849 290.942 326.12 310.569C325.578 324.936 323.445 351.361 323.445 351.361C323.445 351.361 319.909 352.079 311.377 350.664C304.105 349.471 297.154 348.299 295.595 347.349C295.595 347.349 299.408 308.204 300.425 294.158C301.011 286.898 301.011 279.602 300.425 272.342L295.606 243.674C295.606 243.674 292.015 229.23 303.497 225.594C309.288 223.961 315.17 222.673 321.113 221.737Z" fill="#F1F4FA"/>
<path d="M315.587 248.36C315.587 247.675 315.521 246.205 315.41 244.348C314.825 235.286 315.654 222.168 318.726 221.516L319.002 222.765C316.792 223.24 316.416 239.861 316.692 244.271C316.814 246.161 316.902 247.664 316.88 248.415L315.587 248.36Z" fill="#36336A"/>
<path d="M320.882 216.454C319.976 216.266 319.158 216.741 318.428 217.99C317.699 219.239 315.699 222.986 315.699 222.986C315.699 222.986 315.246 230.578 316.074 232.744C316.793 234.623 321.6 243.486 321.6 243.486C321.6 243.486 321.291 252.106 321.213 254.67C321.136 257.234 326.12 267.932 326.673 272.972C326.673 272.972 326.927 252.703 326.187 247.078C324.894 237.275 323.269 224.975 321.103 221.007L320.882 216.454Z" fill="#E6E6E6"/>
<path d="M313.754 278.42H313.643V277.525C314.705 277.432 315.722 277.05 316.583 276.42C315.664 275.808 314.841 275.063 314.14 274.21C312.704 272.353 309.543 259.036 310.515 255.941C311.333 253.333 313.831 247.608 316.163 247.509H316.307C318.572 247.509 321.567 252.924 322.584 255.422C323.822 258.439 321.81 271.999 320.528 273.944C319.918 274.855 319.173 275.668 318.318 276.354C319.224 276.914 320.27 277.205 321.335 277.194L321.445 278.078C320.06 278.109 318.697 277.724 317.533 276.973C316.441 277.813 315.128 278.316 313.754 278.42ZM316.307 248.415C314.969 248.471 312.571 252.725 311.477 256.218C310.593 259.069 313.621 271.944 314.958 273.679C315.676 274.544 316.527 275.29 317.478 275.889C318.378 275.218 319.162 274.405 319.799 273.48C320.981 271.646 322.915 258.55 321.777 255.798C320.329 252.416 317.611 248.415 316.307 248.415Z" fill="#EAC435"/>
<path d="M322.616 277.591C322.627 277.851 322.561 278.108 322.425 278.33C322.29 278.552 322.092 278.729 321.856 278.839C321.62 278.948 321.357 278.985 321.1 278.945C320.843 278.905 320.604 278.79 320.412 278.614C320.221 278.438 320.086 278.209 320.025 277.956C319.963 277.704 319.978 277.438 320.067 277.194C320.156 276.95 320.316 276.738 320.526 276.584C320.736 276.431 320.986 276.343 321.246 276.332C321.419 276.324 321.591 276.351 321.754 276.41C321.916 276.47 322.065 276.56 322.193 276.677C322.32 276.794 322.423 276.935 322.496 277.092C322.568 277.249 322.609 277.419 322.616 277.591Z" fill="#263238"/>
<path d="M314.979 277.912C314.991 278.26 314.866 278.599 314.63 278.855C314.395 279.112 314.067 279.265 313.72 279.282C313.46 279.293 313.203 279.226 312.981 279.091C312.759 278.956 312.582 278.758 312.472 278.522C312.363 278.286 312.326 278.023 312.366 277.766C312.406 277.509 312.521 277.27 312.697 277.078C312.873 276.887 313.102 276.752 313.355 276.69C313.607 276.629 313.873 276.644 314.117 276.733C314.361 276.822 314.573 276.982 314.727 277.192C314.88 277.402 314.968 277.652 314.979 277.912Z" fill="#263238"/>
<path d="M322.76 261.301H321.998C321.92 261.293 321.849 261.255 321.8 261.195C321.75 261.135 321.726 261.058 321.732 260.981C321.941 259.289 321.862 257.574 321.5 255.908C320.174 252.681 317.433 248.625 316.24 248.681C315.046 248.736 312.659 253.002 311.62 256.328C311.397 258.018 311.465 259.734 311.819 261.401C311.832 261.479 311.814 261.558 311.768 261.622C311.722 261.686 311.653 261.73 311.576 261.744L310.824 261.854C310.747 261.863 310.669 261.842 310.607 261.795C310.545 261.747 310.504 261.677 310.493 261.6C310.081 259.733 310.029 257.806 310.338 255.919C310.891 254.14 313.532 247.454 316.184 247.343C318.837 247.233 322.031 253.665 322.738 255.4C323.209 257.251 323.321 259.176 323.07 261.069C323.054 261.139 323.014 261.2 322.958 261.242C322.901 261.285 322.831 261.306 322.76 261.301Z" fill="#36336A"/>
<path d="M337.193 219.626C338.475 220.411 341.194 222.201 341.194 222.201C346.267 223.704 349.516 224.301 351.571 227.042C354.964 231.584 357.506 236.69 358.357 259.677C359.208 282.664 360.833 346.421 360.833 346.421C360.833 346.421 355.252 349.648 349.251 348.321C349.251 348.321 349.46 276.066 348.974 259.82C348.488 243.575 346.023 235.64 342.509 230.291C341.697 226.783 339.858 223.597 337.226 221.14L337.193 219.626Z" fill="#F1F4FA"/>
<path d="M342.665 230.711C346.19 236.071 348.334 243.354 348.82 259.6C348.875 261.534 349.085 265.545 349.13 268.805C349.13 268.805 349.649 266.308 350.124 263.777C350.6 261.246 352.445 253.002 351.926 249.874C351.406 246.747 348.025 240.27 348.025 240.27C348.454 235.046 347.461 229.802 345.151 225.097C344.67 224.237 344.067 223.452 343.361 222.765C342.665 222.209 341.926 221.71 341.15 221.273C339.029 219.98 338.354 219.725 337.172 219.626V221.14C339.875 223.743 341.781 227.063 342.665 230.711Z" fill="#E6E6E6"/>
<path d="M337.226 221.129C338.684 221.814 339.977 222.805 341.017 224.036C345.603 230.799 342.443 236.634 342.443 236.634C341.979 235.224 341.226 233.925 340.232 232.822C339.297 231.854 338.055 231.241 336.718 231.086C338.111 229.595 338.099 227.196 337.348 224.898L337.226 221.129Z" fill="#37474F"/>
<path d="M303.276 227.13C300.367 227.28 297.575 228.322 295.278 230.113C292.98 231.904 291.29 234.358 290.434 237.143C288.567 242.58 286.157 255.742 283.372 264.33C278.499 261.964 266.684 256.251 264.33 254.184C261.457 251.775 259.512 248.559 258.396 247.189C257.317 245.842 256.369 244.395 255.567 242.867C254.652 241.218 253.953 239.457 253.489 237.629C252.859 235.816 250.173 237.541 250.173 240.79C250.132 242.429 250.341 244.065 250.792 245.641C249.621 245.542 246.626 245.52 246.095 245.487C244.25 245.332 238.613 245.431 239.177 248.415C239.31 249.089 239.763 249.708 239.697 250.382C239.637 250.701 239.544 251.012 239.42 251.311C239.24 251.899 239.221 252.526 239.365 253.124C239.509 253.723 239.81 254.272 240.238 254.715C240.649 255.082 240.935 255.569 241.056 256.107C241.124 256.682 241.304 257.238 241.586 257.743C241.92 258.092 242.29 258.403 242.692 258.671C243.12 259.11 243.471 259.618 243.73 260.174C243.991 260.731 244.329 261.249 244.736 261.71C245.742 262.749 247.355 262.473 248.67 262.462C250.614 262.279 252.565 262.197 254.517 262.219C257.976 263.014 270.608 274.176 281.427 280.056C285.13 282.067 288.147 283.073 290.501 281.824C292.49 281.04 293.462 278.873 294.722 275.768C297.596 268.507 305.011 249.134 305.011 249.134C307.807 241.077 305.387 231.075 303.276 227.13Z" fill="#FFA8A7"/>
<path d="M270.409 257.356L264.33 254.184C264.212 256.218 263.68 258.206 262.766 260.027C261.852 261.847 260.575 263.462 259.015 264.772L265.038 269.756C268.873 266.44 270.995 262.418 270.409 257.356Z" fill="#EAC435"/>
<path d="M303.497 225.616C305.011 227.218 309.432 240.226 307.078 246.99C304.724 253.753 295.783 276.718 294.369 279.724C292.954 282.73 290.578 284.919 283.826 282.377C277.073 279.835 262.01 268.651 262.01 268.651C265.04 264.822 267.044 260.285 267.834 255.466L282.731 262.097C282.731 262.097 286.821 244.415 288.71 238.137C290.6 231.86 294.523 226.754 303.497 225.616Z" fill="#E6E6E6"/>
<path d="M249.841 246.99C251.587 246.99 252.372 247.863 253.09 250.15C253.51 251.51 254.748 253.864 256.538 254.372C255.799 254.538 255.026 254.468 254.328 254.173C253.389 253.698 253.223 253.687 252.936 254.173C252.736 254.537 252.456 254.85 252.118 255.09C252.461 255.291 252.729 255.598 252.883 255.965C253.036 256.332 253.066 256.739 252.969 257.124C252.659 258.516 249.51 259.599 246.481 259.124C246.481 259.124 251.112 259.025 251.643 257.367C252.173 255.709 249.432 254.781 247.587 254.88C247.587 254.88 252.007 254.494 252.129 252.957C252.25 251.421 250.294 250.979 247.708 251.167C247.708 251.167 251.256 250.659 251.455 249.333C251.72 247.752 250.438 247.299 249.841 246.99Z" fill="#FFA8A7"/>
<path d="M464.132 422.411C466.033 422.411 465.359 429.65 465.856 434.391C466.376 439.475 467.47 443.343 467.945 447.509C468.594 451.143 468.035 454.889 466.353 458.174C465.027 461.213 458.352 465.38 455.821 461.037C453.29 456.693 452.749 451.709 453.036 446.968C453.265 442.991 453.221 439.003 452.904 435.032C452.683 431.319 451.29 423.76 453.755 423.295L453.876 424.577C454.76 426.346 463.215 427.561 464.209 424.157L464.132 422.411Z" fill="#37474F"/>
<path d="M425.717 429.661C426.291 432.048 425.717 438.558 425.717 438.558C425.717 438.558 424.678 440.768 421.02 442.304L419.373 433.242L425.717 429.661Z" fill="#263238"/>
<path d="M421.031 442.304L412.952 439.652L410.996 432.479L420.092 437.077L421.031 442.304Z" fill="black"/>
<path d="M412.632 421.362V419.671C411.527 420.201 409.118 429.053 405.846 435.143C402.862 440.669 396.95 443.763 395.027 446.194C392.452 449.41 397.447 453.577 405.46 451.853C409.438 451.002 415.461 448.46 417.097 445.774C418.733 443.089 419.307 438.16 420.622 436.193C421.938 434.226 425.131 431.949 425.806 429.694C426.336 427.662 426.336 425.527 425.806 423.494C425.176 421.45 424.634 418.985 423.927 419.206V420.754C423.396 421.859 421.462 423.13 417.406 423.34C415.373 423.373 413.56 423.119 412.632 421.362Z" fill="#37474F"/>
<path d="M411.273 283.438C409.383 295.904 406.985 331.91 407.272 356.909C407.581 383.72 407.272 428.379 407.272 428.379C410.341 430.031 413.738 430.983 417.218 431.164C420.799 431.275 424.365 430.666 427.706 429.374C427.706 429.374 432.812 392.185 433.641 382.902C434.074 375.909 433.665 368.889 432.425 361.992L435.498 339.657C435.498 339.657 438.437 361.351 439.167 365.319C439.896 369.286 450.296 434.866 450.296 434.866C450.296 434.866 453.268 436.535 458.905 436.392C462.171 436.309 465.321 435.165 467.879 433.131C467.879 433.131 467.713 382.736 466.608 374.746C465.503 366.756 463.657 359.948 463.292 354.698C462.928 349.449 461.734 318.924 461.347 307.53C460.916 294.92 460.441 288.942 456.186 276.398C456.208 276.387 412.543 275.094 411.273 283.438Z" fill="#36336A"/>
<path d="M435.475 339.657L431.154 309.033C431.154 309.033 422.103 305.718 418.677 301.176C420.524 305.668 424.077 309.244 428.557 311.122L434.083 340.265L433.254 356.124L435.475 339.657Z" fill="#37474F"/>
<path d="M416.025 277.039C421.993 244.404 424.866 235.408 425.695 228.191C415.748 227.837 410.09 232.015 407.25 242.845C405.935 247.841 403.481 264.506 401.602 272.585C397.359 281.603 396.077 292.003 391.446 298.103C390.685 299.121 389.582 299.831 388.341 300.104C385.522 301.076 384.671 302.634 382.362 304.148C380.56 305.331 379.234 305.43 379.311 305.961C379.469 306.56 379.846 307.077 380.369 307.409C380.892 307.741 381.521 307.864 382.13 307.751C383.292 307.601 384.427 307.284 385.5 306.812C384.09 308.696 382.424 310.374 380.549 311.796C376.129 315.244 376.328 318.703 383.301 320.372C387.666 321.422 391.744 318.725 398.331 310.603C400.976 307.142 403.292 303.442 405.249 299.551C410.731 289.096 414.279 283.692 416.025 277.039Z" fill="#FFA8A7"/>
<path d="M436.614 227.219L452.428 228.644C453.493 229.108 454.514 229.666 455.479 230.313C458.617 232.855 458.849 237.806 459.38 241.464C460.187 246.99 456.23 263.678 454.827 268.894C454.827 268.894 459.977 282.156 460.463 292.412C446.891 300.369 422.456 303.187 409.714 292.71C410.344 285.361 413.029 273.922 412.952 273.679C412.698 268.154 412.477 263.368 412.477 263.368C405.536 256.571 408.056 249.134 410.443 244.249C415.306 234.501 423.827 229.031 425.695 228.191L436.614 227.219Z" fill="#EA6B0C"/>
<path opacity="0.1" d="M425.131 264.098C425.131 264.098 429.231 268.187 436.735 266.142C438.946 265.554 440.979 264.431 442.654 262.872C444.329 261.313 445.594 259.365 446.339 257.201C446.339 257.201 447.245 265.413 437.044 268.076C428.303 270.353 425.131 264.098 425.131 264.098Z" fill="black"/>
<path d="M498.58 309.089C496.538 309.001 494.501 309.35 492.605 310.112C490.709 310.875 488.997 312.033 487.584 313.509C483.716 317.189 479.66 321.035 474.189 326.484L463.138 307.563L454.297 314.515C457.037 321.471 460.25 328.232 463.912 334.75C465.636 337.635 468.675 344.222 473.946 342.486C478.92 340.807 492.999 329.07 492.999 329.07L498.58 309.089Z" fill="#F28F8F"/>
<path d="M463.127 307.552L466.63 313.542C465.349 315.267 463.531 316.515 461.462 317.092C459.393 317.668 457.191 317.539 455.203 316.725L454.308 314.515L463.127 307.552Z" fill="#B16668"/>
<path d="M500.967 308.437C494.834 308.238 491.607 309.299 487.142 313.377C482.014 318.04 475.505 324.572 475.505 324.572C476.906 329.361 479.53 333.703 483.119 337.171L499.232 325.102L500.967 308.437Z" fill="#36336A"/>
<path d="M480.279 265.059C467.625 237.74 464.806 232.313 459.612 230.059C457.302 229.23 454.88 228.753 452.429 228.644C450.638 231.96 446.66 243.995 454.164 251.3C454.164 251.3 462.684 264.064 466.53 270.883C465.746 277.934 464.541 288.367 462.276 293.252C461.668 294.37 460.714 295.262 459.557 295.794C456.882 297.142 456.661 298.457 454.451 299.993C452.727 301.187 451.368 301.308 451.511 301.828C451.764 302.422 452.211 302.913 452.779 303.22C453.348 303.527 454.003 303.633 454.639 303.519C455.804 303.347 456.938 303.012 458.01 302.524C456.772 304.407 455.246 306.085 453.49 307.497C449.312 310.967 448.837 313.487 456.241 314.968C460.883 315.896 464.917 313.951 469.559 305.154C471.328 301.947 472.854 298.611 474.123 295.175C476.256 288.709 479.505 280.542 481.119 273.149C482.08 268.651 480.975 266.673 480.279 265.059Z" fill="#FFA8A7"/>
<path d="M460.683 299.595C464.728 300.612 465.955 304.867 462.639 307.143C459.324 309.42 452.605 308.249 452.605 308.249L451.135 309.851C450.394 309.221 451.356 305.906 452.804 303.806C454.45 301.397 457.069 298.678 460.683 299.595Z" fill="#F28F8F"/>
<path d="M444.947 220.157C447.743 217.648 451.832 214.83 454.451 210.73C459.071 203.48 458.573 193.047 452.418 188.781C452.418 183.907 446.892 175.287 433.63 175.906C431.536 176.012 429.454 176.297 427.408 176.757C425.478 177.229 423.584 177.834 421.739 178.569C419.331 179.378 416.794 179.73 414.257 179.608C413.008 179.608 411.615 179.465 410.643 180.26C410.235 180.66 409.928 181.151 409.747 181.693C409.567 182.235 409.518 182.812 409.604 183.377C409.705 184.637 410.12 185.851 410.811 186.909C411.502 187.967 412.447 188.835 413.56 189.433C413.209 189.71 412.916 190.056 412.702 190.449C412.487 190.842 412.354 191.275 412.312 191.721C412.057 193.1 412.234 194.524 412.82 195.799C413.752 197.336 415.149 198.536 416.81 199.225C420.213 201.048 423.96 201.513 427.751 201.833C429.342 201.977 430.945 202.087 432.536 202.176C433.193 202.126 433.853 202.155 434.503 202.264L444.947 220.157Z" fill="#07070E"/>
<path d="M451.754 202.087C449.632 199.711 446.085 199.877 443.565 203.016C440.249 204.264 437.067 200.142 438.039 189.964C430.933 193.633 419.252 193.08 418.555 188.096C416.511 192.052 415.173 197.512 415.24 206.762C415.24 218.211 419.13 220.278 420.987 221.129C422.843 221.98 426.512 222.234 429.96 221.671L429.861 228.589C429.861 228.589 422.589 234.634 429.22 235.573C437.52 236.767 444.692 228.799 444.692 228.799L445.19 212.575C446.118 213.009 447.156 213.148 448.166 212.974C449.175 212.801 450.107 212.322 450.837 211.603C453.467 208.84 453.766 204.331 451.754 202.087Z" fill="#FFA8A7"/>
<path d="M447.666 211.326C448.41 211.326 449.014 210.723 449.014 209.978C449.014 209.233 448.41 208.63 447.666 208.63C446.921 208.63 446.317 209.233 446.317 209.978C446.317 210.723 446.921 211.326 447.666 211.326Z" fill="#EA6B0C"/>
<path opacity="0.4" d="M447.666 211.326C448.41 211.326 449.014 210.723 449.014 209.978C449.014 209.233 448.41 208.63 447.666 208.63C446.921 208.63 446.317 209.233 446.317 209.978C446.317 210.723 446.921 211.326 447.666 211.326Z" fill="black"/>
<path d="M422.135 196.484L418.411 198.098C418.292 197.86 418.222 197.601 418.206 197.336C418.191 197.071 418.23 196.805 418.321 196.556C418.412 196.306 418.554 196.078 418.736 195.885C418.919 195.692 419.139 195.539 419.384 195.434C419.889 195.222 420.457 195.212 420.97 195.408C421.482 195.603 421.9 195.989 422.135 196.484Z" fill="#263238"/>
<path d="M435.773 198.705L432.082 197.026C432.174 196.775 432.316 196.547 432.5 196.354C432.684 196.161 432.906 196.008 433.152 195.904C433.397 195.801 433.662 195.749 433.928 195.751C434.195 195.754 434.458 195.812 434.701 195.92C435.209 196.152 435.605 196.574 435.805 197.094C436.006 197.615 435.994 198.193 435.773 198.705Z" fill="#263238"/>
<path d="M430.812 202.551C430.752 202.998 430.872 203.451 431.146 203.809C431.419 204.168 431.824 204.403 432.271 204.463C432.722 204.5 433.171 204.359 433.52 204.07C433.869 203.781 434.091 203.367 434.138 202.916C434.192 202.685 434.197 202.445 434.151 202.211C434.106 201.978 434.011 201.757 433.874 201.563C433.737 201.369 433.56 201.207 433.355 201.086C433.15 200.966 432.923 200.89 432.686 200.864C432.45 200.838 432.211 200.862 431.985 200.936C431.759 201.009 431.551 201.129 431.375 201.289C431.199 201.448 431.059 201.643 430.964 201.861C430.868 202.078 430.82 202.314 430.823 202.551H430.812Z" fill="#263238"/>
<path d="M418.831 201.689C418.809 201.994 418.878 202.298 419.027 202.564C419.177 202.83 419.401 203.046 419.672 203.186C419.944 203.326 420.25 203.383 420.554 203.35C420.857 203.317 421.144 203.195 421.379 203.001C421.614 202.806 421.787 202.547 421.876 202.255C421.965 201.963 421.966 201.651 421.88 201.358C421.793 201.066 421.622 200.805 421.389 200.608C421.155 200.412 420.869 200.288 420.566 200.253C420.358 200.233 420.148 200.254 419.948 200.316C419.748 200.377 419.562 200.478 419.401 200.611C419.24 200.745 419.106 200.909 419.009 201.094C418.911 201.279 418.851 201.481 418.831 201.689Z" fill="#263238"/>
<path d="M426.745 200.838L426.524 210.299L420.932 209.05L426.745 200.838Z" fill="#F28F8F"/>
<path d="M431.983 211.89L427.297 213.061C427.36 213.37 427.484 213.663 427.661 213.923C427.839 214.183 428.067 214.405 428.331 214.576C428.596 214.747 428.892 214.863 429.202 214.918C429.512 214.973 429.83 214.966 430.137 214.896C430.777 214.736 431.329 214.332 431.674 213.77C432.019 213.208 432.13 212.533 431.983 211.89Z" fill="#F28F8F"/>
<path d="M429.928 221.649C433.243 221.218 440.184 219.261 441.267 216.543C440.833 217.919 439.988 219.13 438.846 220.013C436.769 221.77 429.95 223.759 429.95 223.759L429.928 221.649Z" fill="#F28F8F"/>
<path d="M533.072 463.368C530.099 464.827 526.673 464.584 523.247 463.015L521.125 444.128L534.155 438.933L533.072 463.368Z" fill="#F28F8F"/>
<path d="M510.914 480.841C510.581 481.789 510.581 482.822 510.914 483.77C511.278 484.377 513.389 486.322 517.324 486.742C521.092 487.151 524.474 486.742 526.739 485.427C527.716 484.967 528.564 484.272 529.206 483.404C529.848 482.536 530.265 481.523 530.42 480.454C530.696 478.31 530.53 476.232 531.624 474.608C532.718 472.983 534.188 471.447 534.542 470.64C535.002 469.211 535.067 467.683 534.73 466.22L510.914 480.841Z" fill="#263238"/>
<path d="M521.932 462.429C521.843 463.237 521.657 464.031 521.379 464.794C520.747 466.437 519.915 467.995 518.904 469.436C518.407 470.21 517.857 470.949 517.257 471.646C516.063 472.961 514.605 474.022 513.356 475.282C512.023 476.467 511.141 478.075 510.858 479.835C510.593 482.786 513.765 483.902 516.229 484.433C518.886 484.995 521.636 484.953 524.275 484.311C525.661 484.005 526.93 483.303 527.926 482.291C528.922 481.279 529.604 480 529.889 478.609C530.055 477.802 530.033 476.951 530.165 476.133C530.559 474.255 531.413 472.504 532.652 471.038C533.366 470.189 533.988 469.266 534.508 468.286C535.348 466.485 534.807 464.396 534.376 462.562C534.011 460.97 534.022 459.589 533.271 459.611V460.473C533.072 460.804 532.751 460.804 532.497 461.269C532.243 461.733 532.177 461.976 531.967 462.374C531.67 462.968 531.195 463.455 530.607 463.766C530.607 462.661 530.607 461.556 530.607 460.451C530.644 460.103 530.562 459.752 530.375 459.456C530.126 459.207 529.798 459.05 529.447 459.014C527.393 458.446 525.266 458.193 523.136 458.263C522.815 458.258 522.505 458.382 522.274 458.605C522.141 458.832 522.083 459.095 522.109 459.357C522.108 460.383 522.049 461.409 521.932 462.429Z" fill="#36336A"/>
<path d="M518.484 470.044C519.589 469.259 522.087 469.336 523.424 469.535C524.795 469.692 526.101 470.203 527.215 471.016C527.378 471.134 527.576 471.193 527.777 471.183C527.978 471.173 528.17 471.094 528.32 470.961C528.413 470.884 528.488 470.788 528.539 470.679C528.59 470.57 528.617 470.451 528.617 470.331C528.617 470.211 528.59 470.092 528.539 469.983C528.488 469.874 528.413 469.778 528.32 469.701C527.094 468.732 525.619 468.127 524.065 467.955C520.75 467.601 519.755 468.132 519.755 468.132C519.755 468.132 518.197 469.049 518.484 470.044Z" fill="#F1F4FA"/>
<path d="M515.843 472.983C517.257 472.221 519.965 472.431 521.313 472.63C522.654 472.814 523.923 473.348 524.993 474.177C525.149 474.304 525.345 474.374 525.546 474.374C525.747 474.374 525.943 474.304 526.099 474.177C526.192 474.099 526.266 474.002 526.318 473.892C526.369 473.782 526.395 473.663 526.395 473.541C526.395 473.42 526.369 473.3 526.318 473.191C526.266 473.081 526.192 472.984 526.099 472.906C524.849 471.889 523.342 471.239 521.744 471.027C518.429 470.673 517.545 471.326 517.545 471.326C517.155 471.456 516.799 471.673 516.505 471.96C516.21 472.247 515.984 472.597 515.843 472.983Z" fill="#F1F4FA"/>
<path d="M525.491 464.816C524.1 464.521 522.657 464.594 521.302 465.026C520.706 465.325 520.286 466.242 520.65 466.485C521.841 466.052 523.121 465.923 524.375 466.109C525.611 466.275 526.811 466.648 527.922 467.214C528.234 467.363 528.536 467.529 528.829 467.712C528.92 467.766 529.022 467.802 529.128 467.817C529.234 467.832 529.341 467.825 529.445 467.797C529.548 467.769 529.644 467.721 529.728 467.655C529.812 467.589 529.882 467.507 529.934 467.413C530.016 467.25 530.035 467.062 529.988 466.884C529.942 466.707 529.832 466.554 529.68 466.452C528.415 465.616 526.987 465.058 525.491 464.816Z" fill="#F1F4FA"/>
<path d="M502.88 451.267C501.354 454.074 494.48 454.715 492.513 451.035L491.684 432.424L504.327 432.7L502.88 451.267Z" fill="#F28F8F"/>
<path d="M471.382 462.772C471.07 463.627 471.101 464.57 471.47 465.402C471.824 466.186 475.802 468.54 481.24 468.286C485.27 468.094 489.175 466.823 492.546 464.606C494.645 463.28 496.812 463.07 499.497 462.982C502.183 462.893 505.222 461.611 505.841 460.362C506.177 459.245 506.177 458.054 505.841 456.936L471.382 462.772Z" fill="#263238"/>
<path d="M493.562 446.581L492.159 446.039C491.914 445.912 491.633 445.873 491.363 445.929C491.01 446.051 490.866 446.459 490.766 446.813C490.617 447.614 490.402 448.401 490.125 449.167C489.707 449.779 489.179 450.307 488.567 450.725C487.195 451.784 485.713 452.692 484.147 453.433C482.356 454.35 480.599 455.058 478.753 455.842C476.908 456.627 474.333 457.102 472.896 458.053C470.686 459.445 470.376 463.048 472.774 464.518C474.841 465.8 480.323 467.247 486.136 465.733C489.308 464.904 492.866 461.622 497.011 461.39C499.641 461.235 504.095 460.594 505.852 458.638C506.504 457.765 505.73 454.947 505.089 452.505C504.404 449.841 504.205 445.708 503.321 445.874C503.244 446.758 502.47 447.244 501.995 447.973C501.617 448.643 501.285 449.337 501 450.051C500.68 450.747 500.779 451.455 500.127 451.842C499.802 452.051 499.418 452.148 499.033 452.118C498.648 452.088 498.283 451.933 497.994 451.676C497.243 450.858 497.729 449.465 497.187 448.493C496.735 447.876 496.083 447.435 495.342 447.244L493.562 446.581Z" fill="#36336A"/>
<path d="M486.644 452.018C486.84 451.66 487.123 451.357 487.467 451.137C487.81 450.916 488.204 450.786 488.611 450.758C489.816 450.56 491.927 451.488 493.198 452.593C493.319 452.698 493.413 452.831 493.472 452.981C493.53 453.13 493.552 453.292 493.534 453.452C493.517 453.611 493.461 453.764 493.372 453.898C493.282 454.031 493.162 454.141 493.021 454.218C492.843 454.308 492.642 454.342 492.444 454.315C492.246 454.287 492.062 454.199 491.916 454.063C490.491 452.723 488.6 451.99 486.644 452.018Z" fill="#F1F4FA"/>
<path d="M482.897 454.008C482.897 453.687 483.671 452.792 485.218 452.902C487.06 453.024 488.816 453.724 490.235 454.903C490.35 455.004 490.439 455.132 490.495 455.275C490.55 455.418 490.571 455.572 490.555 455.725C490.538 455.877 490.486 456.024 490.402 456.152C490.317 456.28 490.203 456.386 490.07 456.461C489.894 456.557 489.692 456.594 489.494 456.568C489.295 456.542 489.11 456.455 488.965 456.317C488.191 455.503 487.244 454.872 486.194 454.472C485.143 454.073 484.017 453.914 482.897 454.008Z" fill="#F1F4FA"/>
<path d="M478.764 455.798C479.068 455.463 479.441 455.198 479.857 455.021C480.272 454.843 480.722 454.758 481.174 454.77C482.946 454.92 484.625 455.628 485.97 456.793C486.087 456.893 486.178 457.02 486.235 457.164C486.292 457.307 486.313 457.462 486.297 457.615C486.281 457.769 486.227 457.916 486.142 458.044C486.056 458.172 485.94 458.278 485.804 458.351C485.629 458.448 485.427 458.487 485.228 458.461C485.029 458.435 484.844 458.346 484.699 458.207C483.964 457.374 483.045 456.723 482.015 456.305C480.985 455.887 479.872 455.713 478.764 455.798Z" fill="#F1F4FA"/>
<path d="M531.072 355.781C531.072 355.781 531.901 366.833 532.177 373.298C532.453 379.763 533.072 402.828 533.846 405.502C536.962 416.278 534.851 432.977 534.465 453.809C534.465 453.809 527.292 456.859 521.125 454.063C521.125 454.063 514.494 413.835 513.212 406.895C511.93 399.954 509.698 387.002 509.698 387.002C509.698 387.002 507.775 403.977 507.587 406.751C508.924 419.77 507.123 425.008 504.493 441.133C504.493 441.133 502.282 442.658 496.823 442.017C491.363 441.376 490.501 439.364 490.501 439.364C490.501 439.364 489.474 404.088 489.098 397.147C488.722 390.207 488.181 364.821 489.098 355.781H531.072Z" fill="#36336A"/>
<path d="M509.71 387.002L508.604 380.073C508.604 380.073 499.376 379.321 495.343 374.713C495.343 374.713 496.691 380.769 506.394 381.719L507.61 388.406V406.751L509.71 387.002Z" fill="#37474F"/>
<path d="M526.529 310.238C527.204 313.133 531.326 324.063 531.337 323.909L530.574 346.885L532.166 364.302C526.43 371.088 501.774 373.851 488.258 364.822C488.258 364.822 488.059 331.192 488.766 324.55C489.982 313.012 493.983 309.077 500.923 308.414L516.793 309.144L526.529 310.238Z" fill="#EA6B0C"/>
<path d="M546.875 344.553C538.553 315.078 533.481 312.78 527.668 311.045C526.496 314.017 524.352 317.3 525.723 325.876C527.27 330.02 533.227 342.243 535.293 349.084C535.923 351.151 536.454 362.943 535.724 369.43C535.418 370.83 534.739 372.121 533.757 373.165C532.11 375.099 532.188 376.846 530.939 378.824C529.69 380.802 529.591 381.123 529.834 381.476C530.077 381.83 531.083 382.139 532.486 381.344C533.629 380.687 534.573 379.732 535.216 378.581C534.757 380.864 534.107 383.104 533.271 385.278C531.514 389.699 533.613 392.848 538.885 389.809C542.643 387.599 545.019 385.598 546.334 376.757C546.853 373.265 547.439 368.734 547.561 365.474C548.279 352.455 548.478 350.222 546.875 344.553Z" fill="#F28F8F"/>
<path d="M526.53 310.238C526.53 310.238 533.16 310.359 536.255 315.178C540.101 321.245 545.151 336.496 545.151 336.496C543.468 338.266 541.421 339.65 539.15 340.552C536.863 341.526 534.398 342.015 531.912 341.989L526.154 328.661C524.582 325.831 523.788 322.635 523.854 319.399C523.92 316.162 524.843 313.001 526.53 310.238Z" fill="#36336A"/>
<path d="M489.717 280.233C489.717 281.414 490.067 282.568 490.723 283.549C491.379 284.531 492.312 285.296 493.403 285.747C494.494 286.199 495.695 286.316 496.853 286.085C498.011 285.854 499.074 285.284 499.908 284.449C500.742 283.613 501.31 282.549 501.539 281.39C501.768 280.232 501.648 279.032 501.195 277.941C500.741 276.851 499.975 275.92 498.992 275.265C498.009 274.611 496.854 274.263 495.673 274.265C494.89 274.265 494.115 274.419 493.391 274.719C492.668 275.019 492.011 275.459 491.457 276.014C490.904 276.568 490.466 277.226 490.167 277.95C489.868 278.674 489.715 279.45 489.717 280.233Z" fill="#263238"/>
<path d="M523.755 289.494C523.755 289.494 521.821 298.545 521.058 300.037C520.543 300.957 519.691 301.642 518.682 301.949L519.29 294.6L523.755 289.494Z" fill="#263238"/>
<path d="M521.225 275.79C521.949 275.659 522.695 275.737 523.376 276.015C524.058 276.293 524.645 276.759 525.071 277.359C526.496 279.117 525.734 284.521 523.756 289.516L520.12 289.936L521.225 275.79Z" fill="#263238"/>
<path d="M491.462 289.24C491.283 290.739 491.213 292.25 491.252 293.76C491.203 295.322 491.464 296.878 492.02 298.339C492.575 299.8 493.415 301.136 494.49 302.27C496.878 304.734 500.215 305.519 503.52 305.497H504.304L504.028 309.917C497.242 316.968 514.682 317.797 518.682 310.304L519.29 294.666C519.764 295.234 520.414 295.628 521.137 295.784C521.86 295.94 522.614 295.85 523.28 295.528C525.059 294.865 527.7 291.771 526.264 288.488C525.916 287.816 525.34 287.289 524.64 287.002C523.94 286.714 523.16 286.685 522.44 286.919C520.848 287.35 519.931 289.472 518.019 289.207C516.107 288.941 519.257 285.283 518.704 284.112C517.765 282.078 515.61 273.182 496.513 275.193C494.181 276.785 493.883 276.906 492.612 282.244C492.057 284.545 491.672 286.883 491.462 289.24Z" fill="#F28F8F"/>
<path d="M508.262 267.048C508.233 266.686 508.128 266.333 507.955 266.014C507.782 265.694 507.544 265.414 507.256 265.192C506.733 264.763 506.126 264.449 505.474 264.271C504.822 264.093 504.14 264.055 503.472 264.16C502.804 264.264 502.166 264.508 501.599 264.877C501.032 265.245 500.55 265.729 500.183 266.297C499.348 265.766 498.371 265.504 497.384 265.546C496.396 265.587 495.444 265.93 494.657 266.529C493.983 267.019 493.485 267.715 493.238 268.512C492.991 269.308 493.008 270.163 493.287 270.949C491.43 270.662 490.159 272.298 489.695 273.58C489.343 274.74 489.432 275.989 489.946 277.087C490.461 278.185 491.363 279.054 492.48 279.525C494.049 280.233 496.646 279.525 497.033 278.42C497.248 279.309 497.78 280.089 498.528 280.614C499.277 281.139 500.191 281.373 501.1 281.272C501.757 281.264 502.399 281.079 502.959 280.737C503.519 280.394 503.977 279.907 504.283 279.327C505.289 281.537 508.383 281.261 509.112 281.106C509.838 280.983 510.52 280.681 511.099 280.227C511.678 279.774 512.135 279.183 512.428 278.509C512.257 280.104 512.614 281.711 513.445 283.084C513.897 283.74 514.497 284.281 515.195 284.664C515.893 285.048 516.671 285.264 517.467 285.294C517.024 286.754 516.851 288.282 516.959 289.803C516.937 290.133 516.999 290.462 517.138 290.762C517.277 291.061 517.489 291.321 517.755 291.516C518.473 291.881 519.147 291.218 519.611 290.566C520.076 289.914 520.396 288.19 521.877 287.052C522.872 286.278 522.22 285.383 522.187 284.432C522.213 282.633 522.394 280.84 522.728 279.072C523.004 276.984 523.778 275.757 523.004 273.248C522.823 272.603 522.508 272.002 522.079 271.486C521.651 270.97 521.119 270.55 520.518 270.253C519.281 269.789 517.919 269.789 516.683 270.253C516.634 269.547 516.433 268.859 516.092 268.238C515.751 267.618 515.28 267.078 514.71 266.658C514.14 266.237 513.486 265.946 512.792 265.803C512.099 265.661 511.382 265.671 510.693 265.833C509.785 266.005 508.944 266.426 508.262 267.048Z" fill="#263238"/>
<path d="M504.305 305.475C504.305 305.475 510.096 304.955 513.566 302.502C515.072 301.282 516.326 299.781 517.257 298.081C516.949 299.836 516.271 301.505 515.268 302.977C512.118 306.69 504.216 307.541 504.216 307.541L504.305 305.475Z" fill="#B16668"/>
<path d="M506.216 289.372C506.221 289.667 506.312 289.953 506.478 290.197C506.644 290.44 506.877 290.629 507.15 290.741C507.422 290.852 507.721 290.881 508.01 290.824C508.299 290.767 508.565 290.627 508.774 290.42C508.984 290.213 509.128 289.95 509.19 289.662C509.251 289.374 509.226 289.074 509.118 288.8C509.011 288.526 508.825 288.29 508.584 288.12C508.343 287.951 508.058 287.856 507.764 287.847C507.562 287.846 507.362 287.884 507.175 287.96C506.988 288.036 506.818 288.148 506.674 288.289C506.53 288.431 506.416 288.6 506.338 288.785C506.259 288.971 506.218 289.171 506.216 289.372Z" fill="#263238"/>
<path d="M510.14 286.123L507.134 285.018C507.186 284.796 507.284 284.587 507.423 284.405C507.562 284.223 507.738 284.073 507.939 283.965C508.14 283.856 508.362 283.792 508.59 283.776C508.818 283.759 509.047 283.792 509.262 283.871C509.476 283.95 509.671 284.073 509.835 284.233C509.998 284.393 510.125 284.586 510.208 284.799C510.291 285.012 510.328 285.24 510.316 285.469C510.304 285.697 510.244 285.92 510.14 286.123Z" fill="#263238"/>
<path d="M496.712 284.123L493.706 285.405C493.558 285.011 493.569 284.574 493.734 284.187C493.9 283.8 494.209 283.492 494.596 283.327C494.984 283.162 495.42 283.152 495.814 283.301C496.208 283.449 496.53 283.743 496.712 284.123Z" fill="#263238"/>
<path d="M494.513 288.466C494.502 288.667 494.532 288.868 494.6 289.057C494.668 289.246 494.773 289.42 494.908 289.568C495.044 289.716 495.208 289.835 495.391 289.92C495.573 290.004 495.771 290.051 495.971 290.058C496.175 290.064 496.378 290.029 496.568 289.956C496.758 289.883 496.931 289.772 497.078 289.631C497.225 289.491 497.343 289.322 497.424 289.135C497.506 288.948 497.549 288.747 497.552 288.544C497.56 288.145 497.411 287.759 497.135 287.471C496.859 287.183 496.48 287.016 496.082 287.007C495.683 286.999 495.297 287.149 495.009 287.424C494.721 287.7 494.554 288.079 494.546 288.477L494.513 288.466Z" fill="#263238"/>
<path d="M501.619 288.146L501.509 294.92L497.309 294.003L501.619 288.146Z" fill="#B16668"/>
<path d="M506.736 296.39L502.725 297.893C502.813 298.162 502.954 298.411 503.14 298.625C503.326 298.839 503.553 299.013 503.807 299.138C504.062 299.262 504.339 299.335 504.622 299.351C504.904 299.367 505.188 299.326 505.454 299.23C506 299.022 506.441 298.607 506.681 298.075C506.921 297.543 506.941 296.937 506.736 296.39Z" fill="#B16668"/>
<path opacity="0.1" d="M264.819 420.919V330.54C253.999 332.043 242.992 328.86 236.427 320.671C236.361 320.593 236.306 320.516 236.239 320.45C235.948 320.087 235.596 319.777 235.2 319.532L235.035 319.433C233.929 318.836 232.824 319.366 231.995 321.09C221.187 345.526 199.084 369.905 184.695 375.707C183.607 376.148 182.629 376.824 181.832 377.686C180.777 378.759 180.165 380.192 180.119 381.697C179.357 403.988 186.828 435.905 202.51 459.279L262.796 424.478C263.391 424.087 263.884 423.561 264.236 422.942C264.587 422.323 264.787 421.63 264.819 420.919Z" fill="black"/>
<path d="M307.467 333.336C307.556 332.087 307.279 331.302 306.738 330.982H306.661C306.075 330.694 302.24 328.219 301.676 327.887H301.599C301.013 327.6 300.129 327.821 299.046 328.583C288.271 336.264 273.749 337.734 262.918 332.518C261.429 331.338 260.076 329.996 258.885 328.517C258.828 328.439 258.765 328.365 258.697 328.296C258.408 327.931 258.056 327.62 257.658 327.379C257.658 327.379 252.961 324.428 252.607 324.229L252.431 324.119C251.27 323.522 250.22 324.052 249.402 325.787C238.594 350.222 216.48 374.602 202.102 380.393C201.013 380.838 200.036 381.517 199.239 382.382C198.184 383.452 197.572 384.881 197.526 386.383C196.421 418.234 212.148 469.745 244.639 487.881C246.545 489.219 248.531 490.441 250.585 491.539C297.654 446.051 306.141 371.088 307.467 333.336Z" fill="#36336A"/>
<path opacity="0.4" d="M306.638 330.904C306.053 330.617 305.169 330.838 304.086 331.6C291.542 340.552 273.904 341.083 262.941 332.407C273.771 337.601 288.271 336.143 299.035 328.462C300.14 327.699 301.002 327.478 301.588 327.766H301.665C302.196 328.152 306.053 330.617 306.638 330.904Z" fill="white"/>
<path d="M257.458 327.147C256.298 326.55 255.248 327.08 254.43 328.805C243.622 353.251 221.507 377.619 207.129 383.421C206.04 383.86 205.062 384.535 204.267 385.4C203.83 385.871 203.458 386.399 203.162 386.969L198.122 383.819C198.417 383.251 198.789 382.727 199.227 382.261C200.024 381.396 201.001 380.717 202.09 380.272C216.457 374.481 238.56 350.101 249.391 325.666C250.164 323.931 251.258 323.4 252.43 323.997L252.596 324.108C252.761 324.196 253.701 324.815 254.806 325.489L257.458 327.147Z" fill="#36336A"/>
<path opacity="0.3" d="M244.551 487.704C212.114 469.557 196.421 418.079 197.504 386.262C197.523 385.41 197.739 384.574 198.134 383.819L203.174 386.969C202.772 387.721 202.559 388.559 202.555 389.411C201.527 419.56 215.518 467.303 244.551 487.704Z" fill="black"/>
<path d="M307.467 333.336C306.174 371.088 297.687 446.062 250.596 491.373C217.496 473.691 201.494 421.516 202.588 389.367C202.634 387.865 203.246 386.436 204.301 385.366C205.097 384.501 206.075 383.822 207.163 383.377C221.53 377.586 243.633 353.206 254.475 328.771C255.238 327.036 256.343 326.506 257.503 327.102L257.669 327.213C258.067 327.454 258.419 327.765 258.708 328.13C258.776 328.199 258.839 328.273 258.896 328.351C269.052 341.027 289.84 341.724 304.108 331.567C305.213 330.805 306.075 330.584 306.661 330.871H306.738C307.246 331.302 307.534 332.087 307.467 333.336Z" fill="#36336A"/>
<path opacity="0.1" d="M257.47 327.147C256.365 326.55 255.26 327.08 254.442 328.815C243.623 353.25 221.519 377.63 207.13 383.421C206.042 383.866 205.065 384.545 204.268 385.411C203.213 386.48 202.601 387.909 202.555 389.411C201.45 421.56 217.464 473.746 250.563 491.417C276.158 404.729 257.47 327.147 257.47 327.147Z" fill="black"/>
<path d="M237.721 435.408C238.241 429.03 238.418 422.63 238.251 416.233L255.934 406.42C256.296 399.833 256.252 393.23 255.801 386.648C262.52 383.046 265.416 381.531 272.378 377.951C273.063 384.319 273.406 390.72 273.406 397.125C280.291 393.522 282.48 392.373 289.575 388.792C289.138 395.557 288.222 402.282 286.834 408.917C279.628 412.542 279.164 412.774 272.202 416.366C271.096 424.003 270.157 428.677 268.632 435.85C262.299 439.165 259.26 440.812 252.983 444.393C254.367 438.084 255.356 431.695 255.945 425.263C249.524 428.976 244.153 431.893 237.721 435.408Z" fill="#FAFAFA"/>
<path d="M255.978 406.42L238.295 416.234C238.462 422.63 238.285 429.031 237.765 435.408C244.197 431.894 249.568 428.976 255.989 425.263C255.385 431.688 254.381 438.07 252.983 444.371C256.298 442.459 258.774 441.055 261.272 439.729C263.638 420.707 264.499 401.529 263.847 382.372C261.482 383.62 259.117 384.869 255.845 386.626C256.297 393.215 256.341 399.826 255.978 406.42Z" fill="#EBEBEB"/>
<path opacity="0.4" d="M274.047 344.719C285.309 348.034 295.532 343.37 301.389 340.608C301.389 340.608 300.461 407.271 276.048 449.587C286.237 416.233 285.53 409.315 287.033 384.383C288.503 359.881 282.447 351.129 274.047 344.719Z" fill="white"/>
</svg>
