<svg width="142" height="47" viewBox="0 0 142 47" fill="none" xmlns="http://www.w3.org/2000/svg">
<path d="M87.0479 21.7534C87.0479 18.3661 87.0526 14.9789 87.04 11.5899C87.04 11.2576 87.1326 11.1856 87.4519 11.1871C90.2158 11.1997 92.9797 11.1574 95.7421 11.2091C97.3919 11.2388 99.052 11.3517 100.549 12.195C102.046 13.0399 102.962 14.2891 103.346 15.9773C103.66 17.3661 103.577 18.7204 103.158 20.048C102.525 22.0466 101.129 23.3068 99.1461 23.9432C98.1937 24.2488 97.217 24.3523 96.2198 24.346C94.4342 24.3351 92.6479 24.3429 90.8623 24.3429C90.5226 24.3429 90.3523 24.5069 90.3523 24.8351C90.3523 27.2192 90.3476 29.6033 90.3586 31.9875C90.3586 32.2884 90.2896 32.3903 89.9734 32.3825C89.1261 32.3606 88.2788 32.3606 87.4315 32.3825C87.1248 32.3903 87.04 32.3041 87.04 31.9937C87.051 28.5798 87.0463 25.1658 87.0463 21.7519L87.0479 21.7534ZM90.3523 17.841C90.3523 18.8975 90.3649 19.9524 90.3445 21.0089C90.3382 21.313 90.4355 21.3741 90.7187 21.371C91.8916 21.3553 93.066 21.3741 94.2389 21.3615C95.3004 21.3506 96.365 21.4368 97.4202 21.2111C98.5758 20.9634 99.7926 20.1248 99.9934 18.8207C100.083 18.2454 100.118 17.6764 100.039 17.1059C99.9275 16.3158 99.6145 15.6293 98.9374 15.1403C98.1608 14.5776 97.2703 14.3597 96.3461 14.3408C94.4562 14.3001 92.5647 14.3236 90.6748 14.3064C90.4151 14.3048 90.3429 14.3816 90.346 14.6355C90.3586 15.7045 90.3508 16.7736 90.3508 17.8426L90.3523 17.841Z" fill="#514C9F"/>
<path d="M121.818 34.251C122.874 34.7416 123.959 35.063 125.081 35.2432C126.253 35.4313 127.435 35.5034 128.589 35.1696C129.611 34.8749 130.27 34.0488 130.341 32.9594C130.365 32.6005 130.393 32.24 130.405 31.8794C130.412 31.7227 130.349 31.6678 130.199 31.6929C128.843 31.9218 127.471 31.9798 126.108 31.9014C124.79 31.8246 123.479 31.5612 122.393 30.7289C121.45 30.0079 120.86 29.0376 120.62 27.8636C120.501 27.2789 120.473 26.6942 120.476 26.0986C120.49 23.4402 120.483 20.7802 120.483 18.1217C120.483 17.7926 120.653 17.628 120.994 17.628C121.816 17.628 122.638 17.6437 123.459 17.6202C123.783 17.6108 123.84 17.7236 123.84 18.0168C123.829 20.8194 123.813 23.622 123.843 26.4247C123.858 27.9467 124.63 28.7759 126.08 29.0204C127.289 29.2242 128.512 29.1379 129.724 28.9686C129.937 28.9389 130.205 29.058 130.355 28.8684C130.515 28.6661 130.416 28.3902 130.416 28.1473C130.421 24.8493 130.424 21.5514 130.413 18.2534C130.413 17.9337 130.487 17.8317 130.817 17.8396C131.704 17.8632 132.589 17.8552 133.478 17.8427C133.718 17.8396 133.784 17.9086 133.784 18.1499C133.775 23.0766 133.797 28.0047 133.756 32.9312C133.743 34.3827 133.333 35.7511 132.223 36.7903C131.329 37.6274 130.228 38.0569 129.037 38.259C127.953 38.4424 126.855 38.3923 125.77 38.3233C124.714 38.2559 123.683 37.9863 122.684 37.618C122.431 37.5239 122.42 37.3186 122.377 37.1352C122.175 36.2527 121.992 35.3671 121.807 34.4814C121.794 34.4219 121.816 34.356 121.824 34.2557L121.818 34.251Z" fill="#514C9F"/>
<path d="M118.444 27.1017C118.444 28.652 118.441 30.2038 118.447 31.754C118.447 31.986 118.428 32.1145 118.139 32.1694C117.284 32.3309 116.42 32.4123 115.565 32.555C113.917 32.8293 112.262 32.7917 110.609 32.7713C109.361 32.7556 108.133 32.4657 107.01 31.9593C106.029 31.5173 105.317 30.7085 104.924 29.6505C104.673 28.9718 104.693 28.2946 104.737 27.5971C104.782 26.8792 104.978 26.224 105.369 25.6142C105.963 24.691 106.849 24.1768 107.855 23.8837C109.331 23.4559 110.847 23.3085 112.386 23.4653C113.237 23.5545 114.025 23.5673 114.868 23.6925C114.998 23.7113 115.076 23.6956 115.065 23.5483C114.998 22.6219 115.095 21.6438 114.29 20.9385C113.753 20.4682 113.128 20.2346 112.41 20.1735C111.838 20.125 111.271 20.0999 110.701 20.1124C109.19 20.1453 107.748 20.5184 106.337 21.0341C106.009 21.1526 105.871 21.3068 106.01 20.7519C106.21 19.951 106.4 19.1484 106.572 18.3412C106.608 18.1687 106.722 18.0653 106.923 17.9901C107.833 17.6468 108.792 17.5543 109.732 17.36C110.409 17.2193 110.886 17.1908 111.733 17.1907C112.581 17.1906 114.48 17.327 115.745 17.8913C116.88 18.3991 117.653 19.2707 118.062 20.487C118.392 21.4652 118.446 22.4558 118.447 23.4637C118.449 24.6753 118.447 25.887 118.447 27.1002L118.444 27.1017ZM115.084 27.9404C115.084 27.4451 115.076 26.9497 115.087 26.4559C115.092 26.2428 115.054 26.1472 114.801 26.1158C114.199 26.0422 113.597 26.0061 112.994 25.9528C111.741 25.8431 110.505 25.8603 109.312 26.3039C108.738 26.5171 108.122 27.1206 108.18 27.9936C108.224 28.6583 108.605 29.2303 109.317 29.5219C109.898 29.7586 110.504 29.8684 111.13 29.9091C112.38 29.9921 113.617 29.9122 114.853 29.7383C115.043 29.7116 115.087 29.6364 115.086 29.4655C115.079 28.9577 115.084 28.4498 115.084 27.9419V27.9404Z" fill="#514C9F"/>
<path d="M78.0658 30.3793C79.4499 30.2294 80.7231 29.8417 81.8521 29.0266C82.1196 28.8338 82.2765 28.8416 82.4303 29.1582C82.6696 29.6536 82.9402 30.1348 83.2054 30.6192C83.2941 30.7837 83.3223 30.9044 83.1285 31.0267C81.9635 31.7602 80.7247 32.2963 79.3636 32.5472C78.4181 32.7211 77.4582 32.765 76.5109 32.6898C75.0343 32.5738 73.661 32.1318 72.4569 31.2023C71.3216 30.326 70.5543 29.1881 70.1158 27.8714C69.7056 26.6409 69.5803 25.3462 69.7479 24.0264C69.8496 23.2223 70.0062 22.448 70.3116 21.7034C71.1603 19.6359 72.615 18.2612 74.8119 17.6765C75.7687 17.4226 76.727 17.4211 77.6869 17.4665C79.1761 17.5386 80.5427 18.0057 81.6599 19.0324C82.6805 19.9713 83.3521 21.1046 83.7248 22.4699C84.0158 23.5342 84.077 24.5891 84.0927 25.6691C84.0974 25.9528 83.9444 25.9105 83.7765 25.9105C81.8599 25.9105 79.9433 25.9105 78.0266 25.9105C76.2792 25.9105 74.5332 25.9152 72.7857 25.9058C72.4913 25.9058 72.3973 25.9199 72.4693 26.2883C72.6808 27.3698 73.1553 28.3071 73.9272 29.0674C74.7664 29.8947 76.3122 30.5693 78.0658 30.3793ZM76.918 23.6407C78.3117 23.6407 79.704 23.6423 81.0974 23.6376C81.2072 23.6376 81.3978 23.7317 81.3492 23.4558C81.1899 22.5388 80.8424 21.7144 80.1936 21.0356C79.5205 20.3319 78.7297 19.8961 77.7307 19.7832C76.4342 19.6359 75.2503 19.7456 74.1683 20.5873C73.2523 21.3005 72.8295 22.2614 72.5069 23.31C72.4255 23.5765 72.485 23.6517 72.7778 23.6486C74.1574 23.6313 75.5385 23.6407 76.918 23.6407Z" fill="#282B35"/>
<path d="M50.594 32.7306C49.6717 32.7055 48.7462 32.6553 47.8631 32.3811C46.864 32.0707 45.9511 31.6146 45.2261 30.7979C44.7391 30.2509 44.5747 29.6034 44.4338 28.9483C44.296 28.3025 44.3194 27.6316 44.4949 26.9795C44.8456 25.6723 45.6661 24.7788 46.9 24.249C47.7957 23.865 48.7321 23.6988 49.7014 23.6142C50.2714 23.564 50.8413 23.5249 51.4035 23.5656C52.0315 23.6095 52.6609 23.6424 53.2888 23.6863C53.7742 23.7208 54.2471 23.8038 54.7279 23.8587C54.9534 23.8853 55.063 23.8242 55.063 23.5484C55.063 22.9527 55.0317 22.3602 54.8688 21.788C54.5729 20.7504 53.804 20.2049 52.8081 19.9619C51.8341 19.7237 50.846 19.7989 49.8517 19.8585C48.7258 19.9259 47.7809 20.0982 46.6182 20.5733C46.2882 20.7081 46.3349 20.6956 45.896 20.8366C45.7238 20.8147 45.6536 20.835 45.6771 20.7081C45.8086 20.02 45.9339 19.3303 46.0842 18.6469C46.128 18.4509 46.3206 18.382 46.5117 18.3162C47.7331 17.8961 48.9811 17.639 50.2714 17.5136C51.6353 17.3803 52.9631 17.4697 54.2753 17.8443C55.3918 18.1625 56.3 18.7895 56.881 19.8021C57.1988 20.357 57.4212 20.9714 57.4838 21.6203C57.8095 25.0186 57.5542 28.4279 57.6388 31.8293C57.6451 32.0534 57.5965 32.2054 57.3445 32.2337C56.6445 32.3121 55.943 32.3795 55.2461 32.4766C54.3254 32.6052 53.4063 32.7275 52.4746 32.7055C52.4229 32.7055 52.3712 32.7196 52.3211 32.7275C51.7464 32.7275 51.1702 32.729 50.5955 32.7306H50.594ZM53.4227 30.3149C53.9043 30.2718 54.4426 30.1131 54.8124 30.0533C54.9894 30.0251 55.0583 29.9812 55.0567 29.7963C55.0504 28.6645 55.0504 27.5313 55.0567 26.3995C55.0567 26.213 54.9878 26.1519 54.8109 26.1363C53.9026 26.0563 52.0862 25.8823 52.0862 25.8823L50.9901 25.8854C50.9901 25.8854 49.1205 25.9873 48.2404 26.3572C47.5875 26.6331 47.1787 27.1096 47.0911 27.8197C46.9861 28.6567 47.2837 29.3056 48.0353 29.7289C48.4221 29.9468 48.8386 30.091 49.2661 30.1599C49.8047 30.2462 50.8143 30.3292 50.8143 30.3292C50.8143 30.3292 51.1702 30.3558 51.308 30.3292C51.5115 30.3292 51.9202 30.3292 51.9202 30.3292C51.9202 30.3292 52.9869 30.354 53.4227 30.3149Z" fill="#282B35"/>
<path d="M27.4199 22.3616C27.4371 23.6454 27.7691 24.8743 28.3657 25.9935C29.2097 27.575 30.453 28.7585 32.1066 29.5078C33.4642 30.1238 34.8813 30.3541 36.3548 30.2758C37.5151 30.2131 38.6253 29.9121 39.6995 29.4749C40.2507 29.2507 40.7737 28.9732 41.2669 28.6409C41.3985 28.5531 41.494 28.5453 41.5754 28.7272C41.837 29.3133 42.1079 29.898 42.4007 30.4702C42.4931 30.6504 42.4101 30.6739 42.2911 30.7539C41.4471 31.3229 40.5357 31.757 39.5727 32.069C38.5157 32.4107 37.4353 32.6239 36.3125 32.6411C35.9054 32.6474 35.4904 32.7242 35.0786 32.6991C33.6646 32.6098 32.2961 32.3292 30.9823 31.7665C29.6764 31.2085 28.5285 30.4341 27.5562 29.4105C26.3504 28.1409 25.5643 26.6252 25.1008 24.9417C24.6843 23.4307 24.6686 21.8773 24.7986 20.3412C24.9615 18.4116 25.6473 16.6403 26.8076 15.065C27.625 13.9553 28.6398 13.0775 29.8204 12.38C30.572 11.9348 31.3643 11.5852 32.2068 11.3502C32.9412 11.1449 33.6897 11.0335 34.4476 10.9489C35.0035 10.8862 35.5593 10.858 36.1121 10.8893C37.5746 10.9708 39.0027 11.2295 40.3588 11.8188C41.0446 12.1167 41.707 12.4474 42.3192 12.8785C42.4414 12.9646 42.4648 12.9819 42.3912 13.1277C42.1079 13.6904 41.8416 14.2625 41.5895 14.8394C41.5034 15.0368 41.4063 15.0462 41.2529 14.9412C40.2883 14.2672 39.2031 13.8456 38.071 13.5917C36.9342 13.3362 35.7802 13.2248 34.5979 13.3706C33.3545 13.5227 32.2162 13.9114 31.1545 14.5525C30.0067 15.2469 29.1142 16.1952 28.4565 17.3598C28.0197 18.1326 27.7237 18.965 27.5452 19.8301C27.4528 20.28 27.459 20.7502 27.4199 21.2095C27.3676 21.5911 27.4689 21.9715 27.4199 22.3616Z" fill="#282B35"/>
<path d="M7.84863 25.9028C7.85334 23.4544 7.86275 21.006 7.85491 18.5576C7.85491 18.2457 7.94576 18.0294 8.16809 17.8099C10.2413 15.755 12.302 13.6891 14.3658 11.6263C15.3821 10.6106 16.403 9.59803 17.4083 8.57131C17.6166 8.35974 17.8295 8.15435 18.0394 7.9459C18.2054 7.77974 18.3134 7.80638 18.448 7.9694C18.8975 8.51335 19.267 9.08698 19.4972 9.77357C19.718 10.4303 19.8731 11.0855 19.8527 11.769C19.8072 13.2675 19.2639 14.5653 18.1975 15.6312C16.1525 17.6752 14.1059 19.7192 12.0624 21.7663C11.9575 21.8713 11.8009 21.9481 11.7994 22.1315C11.6224 22.1441 11.5363 22.2867 11.4282 22.3948C10.3353 23.4921 9.24541 24.5924 8.15083 25.6865C8.06469 25.7728 8.00836 25.9138 7.8502 25.9044L7.84863 25.9028Z" fill="#514C9F"/>
<path d="M7.84808 25.9028C8.00624 25.9122 8.06265 25.7711 8.14879 25.685C9.24329 24.5892 10.3332 23.4905 11.4262 22.3932C11.5342 22.2851 11.6203 22.1424 11.7972 22.1299C13.1439 23.4623 14.4937 24.7915 15.8372 26.1269C16.6937 26.9765 17.5581 27.8183 18.3911 28.6913C19.1741 29.5127 19.5734 30.5206 19.7785 31.6335C19.9962 32.8106 19.6971 33.8906 19.265 34.9518C19.1694 35.187 18.9799 35.3891 18.8092 35.5866C18.7153 35.6948 18.6229 35.7857 18.5556 35.9252C18.352 36.3406 18.1672 36.3578 17.8196 36.0083C16.7282 34.9048 15.6524 33.7872 14.5579 32.6868C12.4158 30.5362 10.2643 28.3951 8.12368 26.2414C8.02507 26.1427 7.82148 26.1097 7.84808 25.9028Z" fill="#282B35"/>
<path d="M60.1641 18.5279C60.8108 18.2332 61.517 18.1862 62.2028 18.089C64.0412 17.8273 65.8952 17.8398 67.7461 17.8414C68.0232 17.8414 68.1359 17.8868 68.1219 18.1972C68.0937 18.7818 68.103 19.3696 68.1187 19.9558C68.125 20.1925 68.0639 20.2741 67.815 20.2663C67.2293 20.2474 66.6421 20.2615 66.0564 20.2599C65.0887 20.2568 64.132 20.3775 63.1752 20.5076C62.8574 20.5515 62.7336 20.6784 62.7352 21.028C62.7493 24.6755 62.7399 28.323 62.7509 31.9705C62.7509 32.295 62.7008 32.4235 62.3375 32.4016C61.7409 32.3655 61.1396 32.3937 60.5398 32.389C60.4131 32.389 60.2768 32.4282 60.1641 32.3342C60.175 32.2323 60.1938 32.1304 60.1938 32.0286C60.1938 27.6302 60.1938 23.2319 60.1938 18.8335C60.1938 18.7316 60.175 18.6298 60.1641 18.5279Z" fill="#282B35"/>
<path d="M60.1632 18.5278C60.1726 18.6297 60.1929 18.7316 60.1929 18.8335C60.1929 23.2318 60.1929 27.6302 60.1929 32.0284C60.1929 32.1303 60.1742 32.2323 60.1632 32.3341C60.1585 31.3842 60.1491 30.4359 60.1491 29.4876C60.1476 25.9639 60.1491 22.4387 60.1491 18.915C60.1491 18.7865 60.1585 18.6564 60.1632 18.5278Z" fill="#282B35"/>
</svg>
