<svg width="80" height="100" viewBox="0 0 80 100" fill="none" xmlns="http://www.w3.org/2000/svg">
<path d="M12.3979 74.6361C11.6804 73.8518 10.97 73.0628 10.3955 72.1618C9.32763 70.4884 8.69356 68.6577 8.32647 66.715C8.20013 66.0452 8.29071 65.3777 8.18583 64.7198C8.17868 64.0786 8.17391 63.435 8.16676 62.7938C7.99036 61.9309 8.27402 61.0966 8.36461 60.2575C8.50525 58.9655 8.77699 57.6878 9.11071 56.4269C9.64705 54.4007 10.3264 52.427 11.1416 50.4938C11.9473 48.582 12.8102 46.706 13.9759 44.9922C14.6934 43.9385 15.5992 43.028 16.4001 42.0363C18.3929 39.5716 20.114 36.9304 21.742 34.2201C22.1544 33.536 22.6026 32.8733 22.984 32.1725C23.3081 31.579 23.4369 30.84 23.8659 30.3513C24.6526 29.4551 25.1293 28.38 25.7729 27.4074C26.5429 26.2394 27.6203 25.4838 28.7263 24.7019C29.2794 24.311 29.8515 24.3754 30.4045 24.3158C32.7501 24.0679 35.1052 24.2013 37.4579 24.2228H38.111C38.7618 24.3062 39.4126 24.2895 40.0657 24.2562L45.2789 24.3134C45.9177 24.404 46.5613 24.392 47.2026 24.373C48.5303 24.4445 49.8747 24.4183 51.1548 24.8354C53.1189 25.4743 54.6898 26.6756 55.9985 28.2632C58.2463 30.9973 60.0508 34.039 62.0603 36.9399C64.2104 40.0435 66.289 43.1948 68.2794 46.4057C69.0565 47.6595 69.6477 49.0111 70.2674 50.3484C71.4402 52.887 72.52 55.4567 73.3329 58.1384C73.9336 60.1192 74.16 62.1359 74.0027 64.1763C73.8478 66.181 73.2638 68.0975 72.4747 69.9521C71.5618 72.0974 70.277 73.9901 68.718 75.7111C68.5964 75.7779 68.4796 75.8518 68.3557 75.9114L56.8924 81.3248C56.7946 81.3272 56.6945 81.3177 56.5992 81.3343C54.9925 81.6299 53.3716 81.8325 51.7531 82.0495C51.0117 82.1472 50.2466 82.1257 49.5267 82.3736C45.3909 82.3593 41.2552 82.4738 37.1194 82.264C36.061 82.2115 35.0194 82.0924 33.9944 81.8754C33.7316 81.821 33.4835 81.7112 33.2664 81.5534C33.0494 81.3956 32.8685 81.1933 32.7358 80.9601C32.4688 80.4905 32.7572 80.1472 32.9169 79.7492C33.079 79.3463 33.3674 79.4727 33.6273 79.5156C34.7667 79.7063 35.8942 79.9804 37.0408 80.0972C38.4424 80.2426 39.8297 80.4929 41.2337 80.6359C43.3028 80.8481 45.3647 80.9649 47.4219 80.6955C50.5088 80.2903 52.1631 77.3273 52.492 75.182C52.5039 75.1009 52.6923 74.9341 52.4157 74.8792C51.5052 74.6957 50.6041 74.4359 49.6864 74.3071C47.6126 74.0163 45.5745 73.5467 43.5197 73.1725C41.5508 72.8149 39.6056 72.3239 37.6558 71.8734C36.1302 71.5206 34.5879 71.2107 33.0957 70.7459C31.7656 70.3311 30.4259 69.9759 29.0458 69.8973C26.0637 69.7304 23.1103 69.9521 20.2188 70.784C17.3798 71.6016 14.7601 72.8483 12.4026 74.6337L12.3979 74.6361ZM24.1687 50.1624C24.1043 51.6403 24.3093 53.2136 24.7527 54.7678C25.5298 57.4948 26.9529 59.8618 28.9027 61.8713C29.9301 62.9296 31.1029 63.8831 32.4831 64.5172C33.1982 64.8462 33.8561 65.3229 34.5974 65.5589C35.9681 65.9951 37.3626 66.4266 38.8119 66.5005C40.4495 66.5839 42.0895 66.653 43.7176 66.2668C45.7604 65.7806 47.6578 65.0416 49.4051 63.8354C50.6923 62.9463 51.9247 62.0024 52.9354 60.8296C54.6946 58.7867 55.9151 56.4221 56.6492 53.8214C56.8733 53.0301 56.8995 52.1981 57.0139 51.3924C57.2332 49.8645 57.1498 48.358 56.9687 46.8705C56.7946 45.4403 56.3417 44.0601 55.741 42.7085C55.045 41.1448 54.1225 39.7623 53.0308 38.4965C51.4098 36.6181 49.386 35.2499 47.1048 34.2988C45.6102 33.6742 44.0465 33.3238 42.4137 33.1927C40.8261 33.0664 39.2481 33.0068 37.701 33.3572C35.9991 33.7434 34.3042 34.2011 32.8025 35.1498C31.6774 35.8601 30.5523 36.5776 29.5916 37.5073C28.2734 38.7826 27.1483 40.1985 26.3092 41.8528C25.003 44.432 24.0542 47.0874 24.1711 50.1648L24.1687 50.1624Z" fill="#514C9F"/>
<path d="M12.3978 74.6361C14.7553 72.8507 17.375 71.604 20.214 70.7864C23.1054 69.9545 26.0589 69.7328 29.0409 69.8996C30.4187 69.9759 31.7583 70.3335 33.0908 70.7482C34.583 71.2131 36.1253 71.5229 37.6509 71.8757C39.6008 72.3263 41.5459 72.8173 43.5148 73.1749C45.572 73.5491 47.6077 74.0211 49.6815 74.3095C50.5993 74.4382 51.5003 74.6981 52.4109 74.8816C52.6874 74.9364 52.4991 75.1057 52.4872 75.1843C52.1582 77.3297 50.5039 80.2927 47.417 80.6979C45.3598 80.9672 43.3003 80.8504 41.2289 80.6383C39.8248 80.4953 38.4375 80.245 37.0359 80.0996C35.8917 79.9804 34.7618 79.7063 33.6224 79.5179C33.365 79.475 33.0765 79.3463 32.9121 79.7515C32.7524 80.1496 32.4639 80.4929 32.7309 80.9625C33.0169 81.4654 33.4913 81.7706 33.9895 81.8778C35.0145 82.0947 36.0562 82.2139 37.1146 82.2664C41.2503 82.4738 45.3861 82.3617 49.5218 82.376C50.8114 82.376 52.1034 82.2974 53.3858 82.3903C54.7183 82.4857 55.8125 81.9827 56.8899 81.3272L68.3532 75.9138C68.4772 75.8542 68.5963 75.7803 68.7155 75.7135C70.6201 74.8554 72.5247 73.9925 74.4317 73.1367C75.5902 72.6171 76.763 72.2762 78.012 72.8554C78.2647 72.9722 78.5245 73.0676 78.6771 73.3203C77.2516 74.3167 75.9573 75.4775 74.6009 76.5621C72.6892 78.0877 70.7846 79.6252 68.88 81.1627C66.9158 82.7503 64.9588 84.3474 62.9922 85.9325C61.4714 87.1578 59.9601 88.3973 58.4107 89.5844C57.7314 90.1064 57.1235 90.7476 56.2463 90.9908C54.0723 91.5867 51.8388 91.8155 49.6196 92.1374C48.2179 92.3424 46.8091 92.4925 45.4004 92.6594C43.7794 92.8501 42.1514 93.0074 40.5328 93.2219C39.2432 93.3936 37.9346 93.415 36.6593 93.6248C35.2529 93.856 33.8346 93.8489 32.4305 94.0348C31.0456 94.2183 29.6464 94.2922 28.2543 94.4233C26.6667 94.5711 25.0792 94.7285 23.4916 94.8834C22.1972 95.0097 20.9053 95.1361 19.6109 95.2719C18.2403 95.415 16.872 95.5818 15.5014 95.7034C15.182 95.732 14.9412 95.813 14.7243 96.049C13.7636 97.1003 12.7935 98.1419 11.8304 99.1884C11.6254 99.4101 11.5658 99.6628 11.685 99.9488C10.1785 99.9607 8.6744 99.9726 7.16789 99.9822C6.9605 99.9822 6.78411 99.8892 6.62917 99.7581C4.54341 97.9989 2.46004 96.235 0.367133 94.4853C0.100157 94.2612 -0.00234318 94.03 4.05446e-05 93.6772C0.0167266 91.1386 0.0143429 88.5999 4.05446e-05 86.0613C4.05446e-05 85.6727 0.0930056 85.42 0.436261 85.1745C2.72463 83.5464 4.9844 81.8754 7.26562 80.2402C7.91161 79.7778 8.16905 79.0507 8.61242 78.4524C9.69225 76.996 10.9628 75.7397 12.3906 74.6337L12.3978 74.6361Z" fill="#FBDAA6"/>
<path d="M28.7692 0.0947158C29.041 0.101867 29.3127 0.151925 29.5797 0.05896C29.8586 0.116169 30.1375 0.116169 30.4164 0.05896L30.7501 0.0947158L30.793 0.0994832C33.9252 0.294948 36.6021 1.60123 39.0883 3.42954C40.5233 4.48553 42.0013 5.47954 43.7509 5.99442C45.6555 6.5546 47.5553 6.57367 49.4814 6.1589C51.7817 5.66309 53.784 4.4903 55.8268 3.40094C56.3298 3.13157 56.8351 2.84553 57.443 2.85983C58.0485 2.87413 58.2749 3.11727 58.3226 3.70605C58.4203 4.93128 57.9078 5.99204 57.4072 7.03134C55.4693 11.0598 52.9735 14.7522 50.442 18.4208C49.9915 19.0739 49.6196 19.8033 48.7591 20.0274L48.7162 20.0321L48.3825 20.0679C48.1441 20.0107 47.9033 20.0107 47.665 20.0679C47.3575 19.9726 47.0476 20.025 46.7353 20.0321L46.6924 20.0274L44.5924 19.9773C44.2706 19.8605 43.944 19.9034 43.6174 19.9487C43.3504 19.8558 43.0787 19.9034 42.807 19.913L42.764 19.9082C42.3493 19.8987 41.9345 19.8701 41.5197 19.8867C39.9226 19.9511 38.3327 19.7628 36.738 19.739C36.4162 19.6221 36.0896 19.6651 35.7631 19.7103C35.4556 19.615 35.1433 19.6674 34.8334 19.6746L34.7905 19.6698C34.3352 19.6603 33.8799 19.6341 33.427 19.6484C32.5069 19.6794 31.849 19.2622 31.4509 18.466C28.9408 13.4555 26.4332 8.44489 23.9446 3.42239C23.3534 2.22814 23.9827 1.08873 25.2914 0.721634C26.4189 0.404599 27.5654 0.232972 28.7216 0.0970995L28.7645 0.092332L28.7692 0.0947158Z" fill="#514C9F"/>
<path d="M11.6848 99.9464C11.5657 99.6604 11.6276 99.4053 11.8303 99.186C12.7957 98.1396 13.7658 97.0979 14.7241 96.0466C14.941 95.8107 15.1818 95.7296 15.5012 95.701C16.8718 95.5794 18.2401 95.4126 19.6107 95.2696C20.9027 95.1361 22.1971 95.0097 23.4914 94.881C25.079 94.7261 26.6665 94.5687 28.2541 94.4209C29.6462 94.2898 31.0454 94.216 32.4304 94.0324C33.8368 93.8465 35.2527 93.8536 36.6591 93.6224C37.9344 93.4126 39.243 93.3912 40.5326 93.2196C42.1512 93.005 43.7769 92.8477 45.4002 92.657C46.8066 92.4925 48.2177 92.34 49.6194 92.135C51.8386 91.8108 54.0722 91.5843 56.2461 90.9884C57.1257 90.7476 57.7312 90.104 58.4105 89.582C59.9599 88.3949 61.4712 87.1554 62.992 85.9301C64.9586 84.345 66.9156 82.7455 68.8798 81.1603C70.7844 79.6228 72.689 78.0853 74.6007 76.5597C75.9571 75.4775 77.2538 74.3166 78.6769 73.3179C78.8509 73.3179 78.963 73.4418 79.0869 73.5348C80.0142 74.2308 80.0213 74.4478 79.1489 75.1486C72.3052 80.6478 65.4616 86.1447 58.6251 91.6534C58.1459 92.0396 57.6001 92.2446 57.0208 92.3781C55.1353 92.8096 53.2212 93.0908 51.3023 93.3268C47.6957 93.7726 44.0868 94.204 40.4778 94.614C40.0606 94.6617 39.634 94.707 39.193 94.6498C38.9498 94.6164 38.659 94.8715 38.3229 94.8953C36.9547 95.0002 35.5912 95.1718 34.2253 95.3196C34.1276 95.3291 34.0298 95.3506 33.9321 95.353C31.8654 95.384 29.8297 95.7773 27.775 95.9036C26.7666 95.9656 25.7345 96.0419 24.7452 96.1468C23.489 96.2826 22.2137 96.3375 20.9575 96.552C19.9921 96.7165 19.01 96.8118 18.0327 96.8786C17.5011 96.9143 16.9839 97.0859 16.4451 97.024C16.2139 96.9977 16.0947 97.1789 15.9612 97.3243C15.3891 97.9536 14.8147 98.5829 14.2497 99.2194C13.8159 99.708 13.3511 100.094 12.6264 99.9798C12.3165 99.9297 11.9947 99.9559 11.6777 99.9464H11.6848Z" fill="#FBBA85"/>
<path d="M40.0655 24.2537C39.4124 24.2871 38.7616 24.3037 38.1108 24.2203C38.764 24.1655 39.4171 24.1226 40.0655 24.2537Z" fill="#FBDAA6"/>
<path d="M47.2047 24.3706C46.5611 24.3897 45.9198 24.4016 45.281 24.311C45.9246 24.2967 46.5682 24.2276 47.2047 24.3706Z" fill="#FBDAA6"/>
<path d="M8.16904 62.7889C8.17619 63.4302 8.18096 64.0738 8.18811 64.715C8.04032 64.0738 8.05939 63.4325 8.16904 62.7889Z" fill="#FBDAA6"/>
<path d="M35.7676 19.7127C36.0941 19.6674 36.4207 19.6245 36.7425 19.7413C36.416 19.758 36.0894 19.8105 35.7676 19.7127Z" fill="#FBDAA6"/>
<path d="M43.6223 19.9511C43.9489 19.9058 44.2755 19.8629 44.5973 19.9797C44.2707 19.9964 43.9441 20.0489 43.6223 19.9511Z" fill="#FBDAA6"/>
<path d="M30.4163 0.0589971C30.1374 0.11859 29.8585 0.116206 29.5796 0.0589971C29.8585 -0.0196657 30.1374 -0.0196657 30.4163 0.0589971Z" fill="#FBDAA6"/>
<path d="M47.6672 20.0704C47.908 20.0132 48.1464 20.0132 48.3847 20.0704C48.152 20.149 47.8999 20.149 47.6672 20.0704Z" fill="#FBDAA6"/>
<path d="M28.7699 0.0952566L28.7263 0.100096L28.7457 0.05896L28.7699 0.0952566Z" fill="#FBDAA6"/>
<path d="M30.7938 0.100096L30.7502 0.0952566L30.7744 0.05896L30.7938 0.100096Z" fill="#FBDAA6"/>
<path d="M34.7952 19.6722L34.8387 19.6771L34.8145 19.711L34.7952 19.6722Z" fill="#FBDAA6"/>
<path d="M42.769 19.9106L42.8126 19.9155L42.7884 19.9494L42.769 19.9106Z" fill="#FBDAA6"/>
<path d="M46.6946 20.0298L46.7381 20.0346L46.7139 20.0685L46.6946 20.0298Z" fill="#FBDAA6"/>
<path d="M48.7183 20.0346L48.7618 20.0298L48.7425 20.0685L48.7183 20.0346Z" fill="#FBDAA6"/>
<path d="M24.1688 50.16C24.052 47.0826 25.0007 44.4247 26.307 41.8479C27.146 40.1936 28.2711 38.7777 29.5893 37.5024C30.55 36.5728 31.6751 35.8553 32.8002 35.1449C34.3019 34.1962 35.9968 33.7385 37.6987 33.3524C39.2482 33.0019 40.8262 33.0615 42.4114 33.1879C44.0442 33.319 45.6103 33.6694 47.1025 34.2939C49.3837 35.2474 51.4099 36.6157 53.0285 38.4917C54.1226 39.7598 55.0451 41.14 55.7387 42.7037C56.3394 44.0553 56.7923 45.433 56.9664 46.8657C57.1475 48.3531 57.2309 49.8596 57.0116 51.3876C56.8972 52.1933 56.871 53.0252 56.6469 53.8166C55.9151 56.4172 54.6923 58.7819 52.9331 60.8247C51.9248 61.9951 50.6924 62.9415 49.4028 63.8306C47.6555 65.0368 45.7557 65.7757 43.7153 66.262C42.0872 66.6482 40.4472 66.579 38.8096 66.4956C37.3626 66.4217 35.9682 65.9902 34.5951 65.554C33.8562 65.318 33.1959 64.8413 32.4808 64.5123C31.1006 63.8783 29.9254 62.9248 28.9004 61.8664C26.9506 59.8569 25.5275 57.4899 24.7504 54.7629C24.307 53.2087 24.102 51.6355 24.1664 50.1576L24.1688 50.16ZM39.5104 42.0243C40.676 42.0601 41.8869 42.9587 42.285 43.9623C42.5091 44.5272 42.2755 44.5439 41.8417 44.5415C39.6057 44.5296 37.3674 44.5248 35.1315 44.532C34.3949 44.532 33.8228 44.8037 33.5463 45.5618C33.2889 46.2626 33.4176 46.4986 34.1303 46.501C36.7619 46.5153 39.3936 46.5439 42.0252 46.5367C42.5258 46.5367 42.5329 46.7012 42.3661 47.073C41.7844 48.3674 40.8095 49.0539 39.3745 49.0539C38.5426 49.0539 37.7107 49.0587 36.8811 49.0635C36.1827 49.0587 35.4819 48.9753 34.7858 49.1064C34.2066 49.135 34.0326 49.4997 34.054 50.0098C34.0636 50.2196 34.0874 50.4293 34.1232 50.6415C34.259 51.4472 34.8764 51.912 35.3699 52.4293C36.8311 53.9668 38.3424 55.4566 39.8584 56.9416C42.2969 59.3277 41.1885 58.8844 44.6711 58.9297C44.7307 58.9297 44.7927 58.9392 44.8499 58.9297C44.9739 58.9034 45.1455 59.0107 45.2194 58.8391C45.298 58.6555 45.1455 58.553 45.0358 58.4434C44.1086 57.5018 43.1813 56.5602 42.2826 55.5901C41.1242 54.341 39.8822 53.1682 38.6785 51.9597C38.4115 51.6903 38.154 51.4114 37.8322 51.0729C38.0897 51.0729 38.2446 51.0777 38.3996 51.0729C39.6629 51.0205 40.943 51.2398 42.1754 50.7249C43.6795 50.098 44.8165 49.1111 45.3553 47.5498C45.5746 46.9109 45.9631 46.6106 46.6043 46.5462C47.2098 46.4867 48.0655 45.8645 48.087 45.0588C48.0942 44.7823 48.0655 44.613 47.7151 44.6416C47.2813 44.675 46.8403 44.6846 46.4089 44.6369C46.1085 44.6059 45.7367 44.6583 45.5817 44.2507C45.3505 43.6381 45.1193 43.0255 44.8428 42.4343C44.6854 42.0982 44.7617 42.0172 45.1002 42.0219C45.7343 42.0315 46.3707 42.0029 47.0024 42.0339C47.3457 42.0505 47.5244 41.9385 47.6627 41.6215C47.8844 41.1137 48.1585 40.6275 48.2968 40.0864C47.2646 39.9052 46.2277 40.0125 45.1932 40.0292C43.7892 40.022 42.3851 40.0125 40.9811 40.0101C39.0026 40.0053 37.0242 39.9839 35.0481 40.0148C33.8681 40.0339 33.2031 40.9517 33.5773 41.9457C33.6131 42.0005 33.6488 42.0005 33.6869 41.9457C34.4879 41.9337 35.2888 41.8718 36.0897 41.9814C37.2315 42.1054 38.3733 42.0196 39.5151 42.0267L39.5104 42.0243Z" fill="#F1F4FA"/>
<path d="M56.8898 81.3247C55.8124 81.9778 54.7182 82.4832 53.3857 82.3878C52.1033 82.2973 50.8089 82.3711 49.5217 82.3735C50.2416 82.1256 51.0068 82.1471 51.7481 82.0493C53.3667 81.8348 54.9876 81.6298 56.5942 81.3342C56.6896 81.3175 56.7897 81.3271 56.8874 81.3247H56.8898Z" fill="white"/>
<path d="M36.8785 49.0635C37.7104 49.0611 38.5423 49.054 39.3718 49.054C40.8092 49.054 41.7842 48.3675 42.3634 47.0731C42.5303 46.7012 42.5231 46.5368 42.0225 46.5368C39.3909 46.5439 36.7593 46.5153 34.1277 46.501C33.4125 46.4963 33.2838 46.2603 33.5436 45.5618C33.8225 44.8038 34.3946 44.5345 35.1288 44.5321C37.3647 44.5249 39.6031 44.5321 41.839 44.5416C42.2728 44.5416 42.5064 44.5273 42.2824 43.9624C41.8843 42.9564 40.6734 42.0601 39.5077 42.0244C38.3683 41.8814 37.2241 41.9672 36.0823 41.9791C35.2838 41.8695 34.4804 41.9314 33.6819 41.9433C33.6461 41.9171 33.6104 41.9171 33.5723 41.9433C33.198 40.9493 33.8631 40.0316 35.043 40.0125C37.0191 39.9815 38.9976 40.003 40.9761 40.0078C42.3801 40.0101 43.7841 40.0197 45.1881 40.0268C46.2203 40.1508 47.2572 40.0411 48.2917 40.084C48.1535 40.6251 47.8793 41.1114 47.6577 41.6192C47.5194 41.9362 47.343 42.0482 46.9974 42.0315C46.3633 42.0029 45.7292 42.0315 45.0952 42.0196C44.7567 42.0149 44.6804 42.0959 44.8377 42.432C45.1142 43.0232 45.3454 43.6358 45.5767 44.2484C45.7316 44.6584 46.1035 44.6036 46.4038 44.6346C46.8353 44.6799 47.2763 44.6727 47.7101 44.6393C48.0629 44.6131 48.0891 44.78 48.082 45.0565C48.0581 45.8622 47.2047 46.4843 46.5993 46.5439C45.9604 46.6059 45.5719 46.9086 45.3502 47.5475C44.8115 49.1088 43.6745 50.0933 42.1703 50.7226C40.9379 51.2375 39.6579 51.0158 38.3945 51.0706C38.2396 51.0778 38.0846 51.0706 37.8272 51.0706C38.149 51.4091 38.4064 51.688 38.6734 51.9574C39.8772 53.1659 41.1191 54.3363 42.2776 55.5878C43.1763 56.5579 44.1059 57.4971 45.0308 58.4411C45.1404 58.5531 45.293 58.6532 45.2143 58.8368C45.1404 59.0084 44.9712 58.9011 44.8449 58.9274C44.7877 58.9393 44.7257 58.9297 44.6661 58.9274C41.1835 58.8821 42.2919 59.323 39.8534 56.9393C38.3373 55.4567 36.826 53.9644 35.3648 52.4269C34.8714 51.9097 34.254 51.4449 34.1181 50.6392C34.0823 50.4302 34.0592 50.2192 34.049 50.0075C34.0275 49.4974 34.2039 49.135 34.7808 49.104C35.4792 49.1136 36.18 49.197 36.8761 49.0611L36.8785 49.0635Z" fill="#EA6B0C"/>
<path d="M36.0823 41.979C37.2241 41.9671 38.3683 41.8813 39.5077 42.0243C38.3659 42.0171 37.2217 42.1053 36.0823 41.979Z" fill="#FBBA85"/>
<path d="M48.2943 40.0864C47.2597 40.0435 46.2228 40.1532 45.1907 40.0292C46.2252 40.0126 47.2621 39.9053 48.2943 40.0864Z" fill="#FBBA85"/>
<path d="M36.8785 49.0635C36.1824 49.1994 35.4816 49.1159 34.7832 49.1064C35.4792 48.9753 36.1801 49.0587 36.8785 49.0635Z" fill="#FBBA85"/>
<path d="M33.5728 41.9457C33.6086 41.9194 33.6468 41.9218 33.6827 41.9457C33.6468 42.0007 33.6086 42.0007 33.5728 41.9457Z" fill="#FBBA85"/>
</svg>
