<svg width="100" height="100" viewBox="0 0 100 100" fill="none" xmlns="http://www.w3.org/2000/svg">
<g clip-path="url(#clip0_1_1645)">
<path d="M45.6362 100C36.6103 99.9999 27.787 97.3234 20.2822 92.3088C12.7774 87.2943 6.92817 80.1669 3.4741 71.828C0.0200221 63.4891 -0.883725 54.3132 0.877141 45.4607C2.63801 36.6082 6.9844 28.4766 13.3667 22.0943C17.6008 17.8404 22.6325 14.4635 28.1736 12.1569C33.7146 9.85037 39.6563 8.65949 45.6583 8.6525C51.6602 8.6455 57.6046 9.82251 63.1511 12.1161C68.6975 14.4098 73.737 17.7749 77.9811 22.019C82.2251 26.263 85.5903 31.3025 87.8839 36.849C90.1776 42.3954 91.3546 48.3398 91.3476 54.3418C91.3406 60.3438 90.1497 66.2854 87.8431 71.8265C85.5366 77.3676 82.1597 82.3992 77.9057 86.6334C73.6779 90.8844 68.6489 94.2546 63.1099 96.549C57.5708 98.8434 51.6317 100.016 45.6362 100ZM45.6362 11.6576C37.1897 11.6576 28.9329 14.1623 21.9099 18.855C14.8869 23.5476 9.41311 30.2174 6.18077 38.0209C2.94842 45.8245 2.10267 54.4113 3.75048 62.6955C5.39828 70.9797 9.46563 78.5893 15.4382 84.5619C23.4472 92.5709 34.3098 97.0703 45.6362 97.0703C56.9627 97.0703 67.8252 92.5709 75.8343 84.5619C83.8433 76.5529 88.3427 65.6903 88.3427 54.3638C88.3427 43.0374 83.8433 32.1748 75.8343 24.1658C71.8778 20.1877 67.1716 17.0339 61.9881 14.8869C56.8046 12.7399 51.2468 11.6422 45.6362 11.6576Z" fill="#36336A"/>
<path d="M45.6362 87.3592C63.859 87.3592 78.6315 72.5866 78.6315 54.3638C78.6315 36.141 63.859 21.3685 45.6362 21.3685C27.4134 21.3685 12.6409 36.141 12.6409 54.3638C12.6409 72.5866 27.4134 87.3592 45.6362 87.3592Z" fill="#EA6B0C"/>
<path d="M45.6357 21.3685C44.166 21.3688 42.6979 21.4668 41.2412 21.6619C57.3646 23.8174 69.842 37.6599 69.842 54.3638C69.842 71.0677 57.3648 84.9105 41.2412 87.066C42.6979 87.2611 44.166 87.3591 45.6357 87.3593C63.8295 87.3593 78.6311 72.5576 78.6311 54.3638C78.6311 36.1701 63.8295 21.3685 45.6357 21.3685Z" fill="#EA6B0C"/>
<path d="M45.6361 88.8242C26.6346 88.8242 11.1758 73.3652 11.1758 54.3638C11.1758 35.3625 26.6348 19.9037 45.6361 19.9037C64.6375 19.9037 80.0963 35.3625 80.0963 54.3638C80.0963 73.3652 64.6375 88.8242 45.6361 88.8242ZM45.6361 22.8334C28.25 22.8334 14.1055 36.9779 14.1055 54.3638C14.1055 71.7498 28.25 85.8943 45.6361 85.8943C63.0223 85.8943 77.1666 71.7498 77.1666 54.3638C77.1666 36.9779 63.0221 22.8334 45.6361 22.8334Z" fill="#EA6B0C"/>
<path d="M54.8272 41.3053H36.4443C36.0558 41.3053 35.6832 41.151 35.4085 40.8763C35.1338 40.6015 34.9795 40.229 34.9795 39.8405C34.9795 39.452 35.1338 39.0794 35.4085 38.8047C35.6832 38.5299 36.0558 38.3756 36.4443 38.3756H54.8272C55.2157 38.3756 55.5882 38.5299 55.8629 38.8047C56.1377 39.0794 56.292 39.452 56.292 39.8405C56.292 40.229 56.1377 40.6015 55.8629 40.8763C55.5882 41.151 55.2157 41.3053 54.8272 41.3053ZM54.8272 51.3326H36.4443C36.0558 51.3326 35.6832 51.1783 35.4085 50.9036C35.1338 50.6289 34.9795 50.2563 34.9795 49.8678C34.9795 49.4793 35.1338 49.1067 35.4085 48.832C35.6832 48.5573 36.0558 48.403 36.4443 48.403H54.8272C55.2157 48.403 55.5882 48.5573 55.8629 48.832C56.1377 49.1067 56.292 49.4793 56.292 49.8678C56.292 50.2563 56.1377 50.6289 55.8629 50.9036C55.5882 51.1783 55.2157 51.3326 54.8272 51.3326Z" fill="#F1F4FA"/>
<path d="M49.8103 75.1828C49.6122 75.1831 49.4161 75.1431 49.2339 75.0653C49.0518 74.9874 48.8874 74.8733 48.7507 74.7299L35.4399 60.7942C35.2749 60.6214 35.1546 60.4109 35.0895 60.181C35.0245 59.9511 35.0166 59.7088 35.0667 59.4752C35.1168 59.2416 35.2233 59.0237 35.3768 58.8407C35.5304 58.6576 35.7264 58.5149 35.9478 58.425L36.0448 58.3858C36.22 58.3146 36.4073 58.278 36.5964 58.278H39.838C42.0887 58.2779 44.2472 57.3838 45.8387 55.7923C47.4302 54.2008 48.3242 52.0422 48.3242 49.7915C48.3242 47.5408 47.4301 45.3823 45.8386 43.7908C44.247 42.1993 42.0885 41.3053 39.8378 41.3053H36.5964C36.2079 41.3053 35.8353 41.151 35.5606 40.8763C35.2859 40.6015 35.1315 40.229 35.1315 39.8405C35.1315 39.452 35.2859 39.0794 35.5606 38.8047C35.8353 38.5299 36.2079 38.3756 36.5964 38.3756H39.8378C42.8585 38.38 45.7543 39.5813 47.891 41.7166C50.0276 43.8518 51.2309 46.7468 51.2373 49.7675C51.2437 52.7882 50.0526 55.6882 47.925 57.8325C45.7974 59.9767 42.9067 61.1903 39.886 61.2074L50.8692 72.7063C51.0673 72.9137 51.2002 73.1747 51.2513 73.457C51.3024 73.7392 51.2695 74.0303 51.1567 74.294C51.0439 74.5577 50.8562 74.7826 50.6168 74.9406C50.3774 75.0986 50.0971 75.1828 49.8103 75.1828Z" fill="#F1F4FA"/>
<path d="M78.3281 41.8789C89.4882 41.8789 98.5352 32.8319 98.5352 21.6719C98.5352 10.5118 89.4882 1.46484 78.3281 1.46484C67.1681 1.46484 58.1211 10.5118 58.1211 21.6719C58.1211 32.8319 67.1681 41.8789 78.3281 41.8789Z" fill="#514C9F"/>
<path d="M78.3281 1.46484C77.3477 1.46495 76.3686 1.53584 75.3984 1.67695C80.199 2.38063 84.5861 4.78793 87.7583 8.45905C90.9305 12.1302 92.6761 16.8201 92.6761 21.6719C92.6761 26.5237 90.9305 31.2136 87.7583 34.8847C84.5861 38.5558 80.199 40.9631 75.3984 41.6668C78.1464 42.0692 80.9479 41.9009 83.628 41.1723C86.308 40.4437 88.8091 39.1704 90.9751 37.432C93.1411 35.6937 94.9255 33.5274 96.2169 31.0686C97.5083 28.6098 98.2789 25.9112 98.4808 23.1412C98.6827 20.3712 98.3114 17.5894 97.3901 14.9693C96.4688 12.3492 95.0173 9.94718 93.1262 7.91313C91.2352 5.87908 88.9451 4.25668 86.399 3.14722C83.8529 2.03776 81.1054 1.46505 78.3281 1.46484Z" fill="#514C9F"/>
<path d="M78.3281 43.3438C74.0418 43.3438 69.8518 42.0727 66.2879 39.6914C62.724 37.3101 59.9462 33.9254 58.3059 29.9653C56.6656 26.0053 56.2365 21.6478 57.0727 17.4439C57.9089 13.24 59.9729 9.37842 63.0038 6.34756C66.0347 3.31669 69.8962 1.25264 74.1002 0.416429C78.3041 -0.419785 82.6616 0.00938997 86.6216 1.64968C90.5816 3.28998 93.9663 6.06771 96.3476 9.63164C98.729 13.1956 100 17.3856 100 21.6719C99.9935 27.4176 97.7081 32.9262 93.6453 36.989C89.5824 41.0519 84.0739 43.3372 78.3281 43.3438ZM78.3281 2.9297C74.6213 2.9297 70.9977 4.02891 67.9155 6.08833C64.8334 8.14774 62.4312 11.0749 61.0126 14.4996C59.5941 17.9242 59.2229 21.6927 59.9461 25.3283C60.6692 28.9639 62.4543 32.3035 65.0754 34.9246C67.6965 37.5458 71.0361 39.3308 74.6717 40.0539C78.3073 40.7771 82.0758 40.406 85.5005 38.9874C88.9251 37.5689 91.8523 35.1666 93.9117 32.0845C95.9711 29.0023 97.0703 25.3787 97.0703 21.6719C97.0647 16.7029 95.0883 11.939 91.5746 8.42538C88.061 4.91176 83.2971 2.93533 78.3281 2.9297Z" fill="#36336A"/>
<path d="M90.9871 24.06V19.2838C90.9871 19.1437 90.9369 19.0082 90.8456 18.9019C90.7543 18.7957 90.628 18.7256 90.4895 18.7045L89.1227 18.4965C89.0183 18.4813 88.92 18.4379 88.8385 18.371C88.757 18.3041 88.6952 18.2162 88.66 18.1168C88.5145 17.6957 88.3433 17.284 88.1473 16.884C88.1015 16.7886 88.0827 16.6826 88.0929 16.5773C88.1031 16.472 88.1419 16.3716 88.2051 16.2867L89.0258 15.1711C89.1089 15.0582 89.1487 14.9193 89.1382 14.7796C89.1276 14.6398 89.0673 14.5085 88.9682 14.4094L85.5908 11.0324C85.4918 10.9334 85.3605 10.873 85.2208 10.8624C85.0811 10.8518 84.9422 10.8916 84.8293 10.9746L83.7137 11.7953C83.6289 11.8585 83.5284 11.8973 83.4232 11.9074C83.318 11.9176 83.2119 11.8989 83.1166 11.8531C82.7165 11.6571 82.3047 11.4859 81.8836 11.3405C81.7842 11.3052 81.6963 11.2435 81.6294 11.1619C81.5625 11.0804 81.5191 10.9821 81.5039 10.8778L81.2959 9.51096C81.2748 9.37245 81.2047 9.24609 81.0985 9.15479C80.9922 9.06349 80.8567 9.01329 80.7166 9.01331H75.9404C75.8003 9.01329 75.6648 9.06349 75.5586 9.15479C75.4523 9.24609 75.3822 9.37245 75.3611 9.51096L75.1529 10.8778C75.1378 10.9821 75.0944 11.0803 75.0275 11.1619C74.9607 11.2434 74.8728 11.3052 74.7734 11.3405C74.3523 11.4859 73.9405 11.6571 73.5404 11.8531C73.4451 11.8989 73.3391 11.9176 73.2338 11.9074C73.1286 11.8973 73.0282 11.8585 72.9434 11.7953L71.8277 10.9746C71.7149 10.8916 71.5759 10.8517 71.4362 10.8622C71.2964 10.8728 71.1651 10.9331 71.066 11.0323L67.6891 14.4096C67.59 14.5086 67.5296 14.6399 67.519 14.7796C67.5084 14.9194 67.5482 15.0582 67.6312 15.1711L68.452 16.2867C68.5151 16.3715 68.5539 16.472 68.5641 16.5772C68.5743 16.6825 68.5555 16.7885 68.5098 16.8838C68.3137 17.2839 68.1425 17.6957 67.9971 18.1168C67.9618 18.2162 67.9001 18.3041 67.8185 18.371C67.737 18.4379 67.6387 18.4813 67.5344 18.4965L66.1676 18.7045C66.0291 18.7256 65.9027 18.7957 65.8114 18.9019C65.7201 19.0082 65.6699 19.1437 65.6699 19.2838V24.06C65.6699 24.2001 65.7201 24.3356 65.8114 24.4419C65.9027 24.5481 66.0291 24.6182 66.1676 24.6393L67.5344 24.8475C67.6387 24.8627 67.737 24.906 67.8185 24.9729C67.9 25.0398 67.9618 25.1276 67.9971 25.227C68.1425 25.6481 68.3137 26.0599 68.5098 26.46C68.5555 26.5553 68.5743 26.6613 68.5641 26.7666C68.5539 26.8718 68.5151 26.9723 68.452 27.0571L67.6312 28.1727C67.5482 28.2856 67.5083 28.4245 67.5189 28.5642C67.5294 28.704 67.5898 28.8353 67.6889 28.9344L71.0662 32.3114C71.1653 32.4104 71.2965 32.4708 71.4363 32.4814C71.576 32.492 71.7149 32.4522 71.8277 32.3692L72.9434 31.5485C73.0282 31.4853 73.1286 31.4465 73.2338 31.4364C73.3391 31.4262 73.4451 31.4449 73.5404 31.4907C73.9405 31.6867 74.3523 31.8579 74.7734 32.0033C74.8728 32.0386 74.9607 32.1004 75.0275 32.1819C75.0944 32.2635 75.1378 32.3617 75.1529 32.466L75.3611 33.8328C75.3822 33.9713 75.4523 34.0977 75.5586 34.189C75.6648 34.2803 75.8003 34.3305 75.9404 34.3305H80.7166C80.8567 34.3305 80.9922 34.2803 81.0985 34.189C81.2047 34.0977 81.2748 33.9713 81.2959 33.8328L81.5039 32.466C81.5191 32.3617 81.5625 32.2634 81.6294 32.1819C81.6963 32.1003 81.7842 32.0386 81.8836 32.0033C82.3047 31.8579 82.7165 31.6867 83.1166 31.4907C83.2119 31.4449 83.318 31.4262 83.4232 31.4364C83.5284 31.4465 83.6289 31.4853 83.7137 31.5485L84.8293 32.3692C84.9422 32.4522 85.0811 32.4921 85.2208 32.4816C85.3606 32.471 85.4919 32.4107 85.591 32.3115L88.968 28.9342C89.0671 28.8352 89.1274 28.7039 89.138 28.5642C89.1486 28.4244 89.1088 28.2856 89.0258 28.1727L88.2051 27.0571C88.1419 26.9723 88.1032 26.8718 88.093 26.7666C88.0828 26.6613 88.1016 26.5553 88.1473 26.46C88.3433 26.0599 88.5145 25.6481 88.66 25.227C88.6953 25.1276 88.757 25.0398 88.8385 24.9729C88.9201 24.906 89.0183 24.8627 89.1227 24.8475L90.4895 24.6393C90.628 24.6182 90.7543 24.5481 90.8456 24.4419C90.9369 24.3356 90.9871 24.2001 90.9871 24.06Z" fill="#F1F4FA"/>
<path d="M78.3281 25.8486C80.6349 25.8486 82.5049 23.9786 82.5049 21.6719C82.5049 19.3651 80.6349 17.4951 78.3281 17.4951C76.0214 17.4951 74.1514 19.3651 74.1514 21.6719C74.1514 23.9786 76.0214 25.8486 78.3281 25.8486Z" fill="#BBB8DF"/>
</g>
<defs>
<clipPath id="clip0_1_1645">
<rect width="100" height="100" fill="white"/>
</clipPath>
</defs>
</svg>
