<svg width="361" height="324" viewBox="0 0 361 324" fill="none" xmlns="http://www.w3.org/2000/svg">
<path d="M158.064 322.667C213.859 322.667 264.3 292.851 300.76 244.786C337.218 196.723 359.739 130.368 359.739 57.116C359.739 -16.136 337.218 -82.4909 300.76 -130.555C264.3 -178.619 213.859 -208.436 158.064 -208.436C102.269 -208.436 51.8276 -178.619 15.3684 -130.555C-21.0902 -82.4909 -43.6113 -16.136 -43.6113 57.116C-43.6113 130.368 -21.0902 196.723 15.3684 244.786C51.8276 292.851 102.269 322.667 158.064 322.667Z" stroke="#EA6B0C" stroke-opacity="0.4" stroke-width="2"/>
<path d="M126.844 322.667C182.639 322.667 233.08 292.851 269.539 244.786C305.998 196.723 328.519 130.368 328.519 57.116C328.519 -16.136 305.998 -82.4909 269.539 -130.555C233.08 -178.619 182.639 -208.436 126.844 -208.436C71.0481 -208.436 20.6071 -178.619 -15.8521 -130.555C-52.3107 -82.4909 -74.8318 -16.136 -74.8318 57.116C-74.8318 130.368 -52.3107 196.723 -15.8521 244.786C20.6071 292.851 71.0481 322.667 126.844 322.667Z" stroke="#EA6B0C" stroke-opacity="0.4" stroke-width="2"/>
<path d="M93.3931 322.667C149.189 322.667 199.63 292.851 236.089 244.786C272.547 196.723 295.068 130.368 295.068 57.116C295.068 -16.136 272.547 -82.4909 236.089 -130.555C199.63 -178.619 149.189 -208.436 93.3931 -208.436C37.5977 -208.436 -12.8433 -178.619 -49.3025 -130.555C-85.7611 -82.4909 -108.282 -16.136 -108.282 57.116C-108.282 130.368 -85.7611 196.723 -49.3025 244.786C-12.8433 292.851 37.5977 322.667 93.3931 322.667Z" stroke="#EA6B0C" stroke-opacity="0.4" stroke-width="2"/>
<path d="M44.3335 304.103C100.129 304.103 150.57 274.286 187.029 226.222C223.488 178.158 246.009 111.803 246.009 38.5515C246.009 -34.7005 223.488 -101.055 187.029 -149.119C150.57 -197.183 100.129 -227 44.3335 -227C-11.4619 -227 -61.9029 -197.183 -98.3621 -149.119C-134.821 -101.055 -157.342 -34.7005 -157.342 38.5515C-157.342 111.803 -134.821 178.158 -98.3621 226.222C-61.9029 274.286 -11.4619 304.103 44.3335 304.103Z" stroke="#EA6B0C" stroke-opacity="0.4" stroke-width="2"/>
<path d="M19.6753 304.103C75.4707 304.103 125.912 274.286 162.371 226.222C198.83 178.158 221.351 111.803 221.351 38.5515C221.351 -34.7005 198.83 -101.055 162.371 -149.119C125.912 -197.183 75.4707 -227 19.6753 -227C-36.1201 -227 -86.5611 -197.183 -123.02 -149.119C-159.479 -101.055 -182 -34.7005 -182 38.5515C-182 111.803 -159.479 178.158 -123.02 226.222C-86.5611 274.286 -36.1201 304.103 19.6753 304.103Z" stroke="#EA6B0C" stroke-opacity="0.4" stroke-width="2"/>
</svg>
