<svg width="402" height="188" viewBox="0 0 402 188" fill="none" xmlns="http://www.w3.org/2000/svg">
<path d="M341.064 550.667C396.859 550.667 447.3 520.851 483.759 472.786C520.218 424.723 542.739 358.368 542.739 285.116C542.739 211.864 520.218 145.509 483.759 97.4454C447.3 49.3811 396.859 19.5645 341.064 19.5645C285.268 19.5645 234.827 49.3811 198.368 97.4454C161.909 145.509 139.388 211.864 139.388 285.116C139.388 358.368 161.909 424.723 198.368 472.786C234.827 520.851 285.268 550.667 341.064 550.667Z" stroke="#BBB8DF" stroke-opacity="0.3" stroke-width="2"/>
<path d="M309.843 550.667C365.639 550.667 416.08 520.851 452.539 472.786C488.998 424.723 511.519 358.368 511.519 285.116C511.519 211.864 488.998 145.509 452.539 97.4454C416.08 49.3811 365.639 19.5645 309.843 19.5645C254.048 19.5645 203.607 49.3811 167.148 97.4454C130.689 145.509 108.168 211.864 108.168 285.116C108.168 358.368 130.689 424.723 167.148 472.786C203.607 520.851 254.048 550.667 309.843 550.667Z" stroke="#BBB8DF" stroke-opacity="0.3" stroke-width="2"/>
<path d="M276.393 550.667C332.189 550.667 382.63 520.851 419.089 472.786C455.547 424.723 478.068 358.368 478.068 285.116C478.068 211.864 455.547 145.509 419.089 97.4454C382.63 49.3811 332.189 19.5645 276.393 19.5645C220.598 19.5645 170.157 49.3811 133.697 97.4454C97.2389 145.509 74.7178 211.864 74.7178 285.116C74.7178 358.368 97.2389 424.723 133.697 472.786C170.157 520.851 220.598 550.667 276.393 550.667Z" stroke="#BBB8DF" stroke-opacity="0.3" stroke-width="2"/>
<path d="M227.333 532.103C283.128 532.103 333.569 502.286 370.029 454.222C406.487 406.158 429.008 339.803 429.008 266.552C429.008 193.3 406.487 126.945 370.029 78.881C333.569 30.8167 283.128 1 227.333 1C171.538 1 121.097 30.8167 84.6374 78.881C48.1788 126.945 25.6577 193.3 25.6577 266.552C25.6577 339.803 48.1788 406.158 84.6374 454.222C121.097 502.286 171.538 532.103 227.333 532.103Z" stroke="#BBB8DF" stroke-opacity="0.3" stroke-width="2"/>
<path d="M202.675 532.103C258.471 532.103 308.912 502.286 345.371 454.222C381.83 406.158 404.351 339.803 404.351 266.552C404.351 193.3 381.83 126.945 345.371 78.881C308.912 30.8167 258.471 1 202.675 1C146.88 1 96.4389 30.8167 59.9797 78.881C23.5211 126.945 1 193.3 1 266.552C1 339.803 23.5211 406.158 59.9797 454.222C96.4389 502.286 146.88 532.103 202.675 532.103Z" stroke="#BBB8DF" stroke-opacity="0.3" stroke-width="2"/>
</svg>
