<svg width="321" height="356" viewBox="0 0 321 356" fill="none" xmlns="http://www.w3.org/2000/svg">
<path d="M118.064 550.667C173.859 550.667 224.3 520.851 260.759 472.786C297.218 424.723 319.739 358.368 319.739 285.116C319.739 211.864 297.218 145.509 260.759 97.4454C224.3 49.3811 173.859 19.5645 118.064 19.5645C62.2681 19.5645 11.8271 49.3811 -24.6321 97.4454C-61.0907 145.509 -83.6118 211.864 -83.6118 285.116C-83.6118 358.368 -61.0907 424.723 -24.6321 472.786C11.8271 520.851 62.2681 550.667 118.064 550.667Z" stroke="#514C9F" stroke-opacity="0.25" stroke-width="2"/>
<path d="M86.8433 550.667C142.639 550.667 193.08 520.851 229.539 472.786C265.998 424.723 288.519 358.368 288.519 285.116C288.519 211.864 265.998 145.509 229.539 97.4454C193.08 49.3811 142.639 19.5645 86.8433 19.5645C31.0479 19.5645 -19.3931 49.3811 -55.8523 97.4454C-92.311 145.509 -114.832 211.864 -114.832 285.116C-114.832 358.368 -92.311 424.723 -55.8523 472.786C-19.3931 520.851 31.0479 550.667 86.8433 550.667Z" stroke="#514C9F" stroke-opacity="0.25" stroke-width="2"/>
<path d="M53.3931 550.667C109.189 550.667 159.63 520.851 196.089 472.786C232.547 424.723 255.068 358.368 255.068 285.116C255.068 211.864 232.547 145.509 196.089 97.4454C159.63 49.3811 109.189 19.5645 53.3931 19.5645C-2.40233 19.5645 -52.8433 49.3811 -89.3025 97.4454C-125.761 145.509 -148.282 211.864 -148.282 285.116C-148.282 358.368 -125.761 424.723 -89.3025 472.786C-52.8433 520.851 -2.40233 550.667 53.3931 550.667Z" stroke="#514C9F" stroke-opacity="0.25" stroke-width="2"/>
<path d="M4.33304 532.103C60.1284 532.103 110.569 502.286 147.029 454.222C183.487 406.158 206.008 339.803 206.008 266.552C206.008 193.3 183.487 126.945 147.029 78.881C110.569 30.8167 60.1284 1 4.33304 1C-51.4624 1 -101.903 30.8167 -138.363 78.881C-174.821 126.945 -197.342 193.3 -197.342 266.552C-197.342 339.803 -174.821 406.158 -138.363 454.222C-101.903 502.286 -51.4624 532.103 4.33304 532.103Z" stroke="#514C9F" stroke-opacity="0.25" stroke-width="2"/>
<path d="M-20.3247 532.103C35.4707 532.103 85.9118 502.286 122.371 454.222C158.83 406.158 181.351 339.803 181.351 266.552C181.351 193.3 158.83 126.945 122.371 78.881C85.9118 30.8167 35.4707 1 -20.3247 1C-76.1201 1 -126.561 30.8167 -163.02 78.881C-199.479 126.945 -222 193.3 -222 266.552C-222 339.803 -199.479 406.158 -163.02 454.222C-126.561 502.286 -76.1201 532.103 -20.3247 532.103Z" stroke="#514C9F" stroke-opacity="0.25" stroke-width="2"/>
</svg>
