<svg width="355" height="392" viewBox="0 0 355 392" fill="none" xmlns="http://www.w3.org/2000/svg">
<path d="M312.959 390.271C364.161 390.271 410.443 362.909 443.892 318.813C477.341 274.718 498 213.845 498 146.648C498 79.4519 477.341 18.5792 443.892 -25.5161C410.443 -69.6122 364.161 -96.9744 312.959 -96.9744C261.757 -96.9744 215.474 -69.6122 182.025 -25.5161C148.576 18.5792 127.917 79.4519 127.917 146.648C127.917 213.845 148.576 274.718 182.025 318.813C215.474 362.909 261.757 390.271 312.959 390.271Z" stroke="#F1F4FA" stroke-opacity="0.45" stroke-width="2"/>
<path d="M284.326 390.271C335.528 390.271 381.811 362.909 415.26 318.813C448.708 274.718 469.367 213.845 469.367 146.648C469.367 79.4519 448.708 18.5792 415.26 -25.5161C381.811 -69.6122 335.528 -96.9744 284.326 -96.9744C233.124 -96.9744 186.842 -69.6122 153.393 -25.5161C119.944 18.5792 99.2848 79.4519 99.2848 146.648C99.2848 213.845 119.944 274.718 153.393 318.813C186.842 362.909 233.124 390.271 284.326 390.271Z" stroke="#F1F4FA" stroke-opacity="0.45" stroke-width="2"/>
<path d="M253.649 390.271C304.851 390.271 351.133 362.909 384.582 318.813C418.031 274.718 438.69 213.845 438.69 146.648C438.69 79.4519 418.031 18.5792 384.582 -25.5161C351.133 -69.6122 304.851 -96.9744 253.649 -96.9744C202.447 -96.9744 156.164 -69.6122 122.715 -25.5161C89.2666 18.5792 68.6073 79.4519 68.6073 146.648C68.6073 213.845 89.2666 274.718 122.715 318.813C156.164 362.909 202.447 390.271 253.649 390.271Z" stroke="#F1F4FA" stroke-opacity="0.45" stroke-width="2"/>
<path d="M208.655 373.246C259.857 373.246 306.14 345.883 339.589 301.787C373.037 257.692 393.697 196.819 393.697 129.623C393.697 62.4263 373.037 1.55358 339.589 -42.5418C306.14 -86.6378 259.857 -114 208.655 -114C157.453 -114 111.171 -86.6378 77.7216 -42.5418C44.2731 1.55358 23.6139 62.4263 23.6139 129.623C23.6139 196.819 44.2731 257.692 77.7216 301.787C111.171 345.883 157.453 373.246 208.655 373.246Z" stroke="#F1F4FA" stroke-opacity="0.45" stroke-width="2"/>
<path d="M186.041 373.246C237.243 373.246 283.526 345.883 316.975 301.787C350.423 257.692 371.083 196.819 371.083 129.623C371.083 62.4263 350.423 1.55358 316.975 -42.5418C283.526 -86.6378 237.243 -114 186.041 -114C134.839 -114 88.5567 -86.6378 55.1077 -42.5418C21.6593 1.55358 1 62.4263 1 129.623C1 196.819 21.6593 257.692 55.1077 301.787C88.5567 345.883 134.839 373.246 186.041 373.246Z" stroke="#F1F4FA" stroke-opacity="0.45" stroke-width="2"/>
</svg>
