<svg width="50" height="50" viewBox="0 0 50 50" fill="none" xmlns="http://www.w3.org/2000/svg">
<path d="M50 25C50 11.1929 38.8071 0 25 0C11.1929 0 0 11.1929 0 25C0 38.8071 11.1929 50 25 50C38.8071 50 50 38.8071 50 25Z" fill="#F1F4FA"/>
<g clip-path="url(#clip0_1_2103)">
<path d="M31.5736 26.2168H26.9896V23.4376C26.9896 22.8011 26.7368 22.1906 26.2867 21.7405C25.8366 21.2905 25.2262 21.0376 24.5896 21.0376C24.4623 21.0376 24.3403 21.0882 24.2502 21.1782C24.1602 21.2682 24.1096 21.3903 24.1096 21.5176V23.08C24.1102 23.5933 24.0038 24.101 23.7972 24.5708C23.5905 25.0407 23.2883 25.4623 22.9096 25.8088L21.7744 26.8408V26.5048C21.7744 26.1184 21.621 25.7479 21.3478 25.4747C21.0746 25.2015 20.704 25.048 20.3176 25.048H18.424C18.0375 25.048 17.6667 25.2014 17.3931 25.4745C17.1195 25.7477 16.9655 26.1182 16.9648 26.5048V34.8232C16.9655 35.2098 17.1195 35.5803 17.3931 35.8535C17.6667 36.1266 18.0375 36.28 18.424 36.28H20.3152C20.5433 36.2799 20.7681 36.2262 20.9715 36.1233C21.175 36.0203 21.3514 35.8709 21.4864 35.6872H30.28C30.5544 35.6872 30.8175 35.5782 31.0115 35.3842C31.2055 35.1902 31.3144 34.9271 31.3144 34.6528V33.8104C31.3131 33.6279 31.2634 33.449 31.1704 33.292C31.307 33.196 31.4182 33.0683 31.4947 32.9199C31.5712 32.7716 31.6106 32.6069 31.6096 32.44V31.6768C31.6102 31.5615 31.5907 31.447 31.552 31.3384C31.8127 31.319 32.0564 31.202 32.2344 31.0106C32.4124 30.8193 32.5116 30.5677 32.512 30.3064V29.464C32.5111 29.2804 32.4605 29.1004 32.3656 28.9432C32.5563 28.8579 32.7194 28.7211 32.8364 28.548C32.9535 28.375 33.0198 28.1727 33.028 27.964V27.3808C33.0352 26.728 32.392 26.2168 31.5736 26.2168ZM20.3152 35.5768H18.424C18.2227 35.5768 18.0295 35.497 17.8869 35.3548C17.7443 35.2127 17.6639 35.0198 17.6632 34.8184V26.5048C17.6639 26.3034 17.7443 26.1105 17.8869 25.9684C18.0295 25.8262 18.2227 25.7464 18.424 25.7464H20.3152C20.5166 25.7464 20.7098 25.8262 20.8524 25.9684C20.995 26.1105 21.0754 26.3034 21.076 26.5048V34.8232C21.0754 35.0246 20.995 35.2175 20.8524 35.3596C20.7098 35.5018 20.5166 35.5816 20.3152 35.5816V35.5768ZM31.8208 30.2968C31.8208 30.3409 31.8122 30.3846 31.7953 30.4254C31.7784 30.4661 31.7536 30.5032 31.7224 30.5344C31.6912 30.5656 31.6542 30.5903 31.6134 30.6072C31.5727 30.6241 31.529 30.6328 31.4848 30.6328H29.32C29.2324 30.6401 29.1507 30.68 29.0912 30.7447C29.0317 30.8094 28.9986 30.8941 28.9986 30.982C28.9986 31.0699 29.0317 31.1546 29.0912 31.2193C29.1507 31.284 29.2324 31.3239 29.32 31.3312H30.5704C30.6146 31.3312 30.6583 31.3399 30.699 31.3568C30.7398 31.3737 30.7768 31.3984 30.808 31.4296C30.8392 31.4608 30.864 31.4979 30.8809 31.5386C30.8978 31.5794 30.9064 31.6231 30.9064 31.6672V32.44C30.9068 32.4842 30.8983 32.528 30.8815 32.569C30.8647 32.6099 30.84 32.647 30.8087 32.6783C30.7775 32.7096 30.7403 32.7343 30.6994 32.7511C30.6585 32.7678 30.6147 32.7763 30.5704 32.776C30.5327 32.7772 30.4954 32.7845 30.46 32.7976C30.4008 32.7851 30.3406 32.7779 30.28 32.776H28.5448C28.4572 32.7833 28.3755 32.8232 28.316 32.8879C28.2565 32.9526 28.2234 33.0373 28.2234 33.1252C28.2234 33.2131 28.2565 33.2978 28.316 33.3625C28.3755 33.4272 28.4572 33.4671 28.5448 33.4744H30.28C30.3692 33.4744 30.4546 33.5098 30.5176 33.5728C30.5806 33.6358 30.616 33.7213 30.616 33.8104V34.6528C30.616 34.7419 30.5806 34.8274 30.5176 34.8904C30.4546 34.9534 30.3692 34.9888 30.28 34.9888H21.7624C21.766 34.9337 21.766 34.8783 21.7624 34.8232V27.7864L23.368 26.3272C23.8205 25.9162 24.1823 25.4154 24.4303 24.8567C24.6782 24.298 24.8069 23.6937 24.808 23.0824V21.7528C25.2161 21.8063 25.591 22.0061 25.8629 22.3151C26.1348 22.624 26.2853 23.0212 26.2864 23.4328V26.44C26.2851 26.5558 26.3257 26.6681 26.4007 26.7563C26.4757 26.8445 26.58 26.9026 26.6944 26.92C26.7176 26.9224 26.7409 26.9224 26.764 26.92H31.564C32.0128 26.92 32.3272 27.16 32.3272 27.3856V27.9688C32.3272 28.1896 32.0128 28.4344 31.564 28.4344H30.04C29.9524 28.4417 29.8707 28.4816 29.8112 28.5463C29.7517 28.611 29.7186 28.6957 29.7186 28.7836C29.7186 28.8715 29.7517 28.9562 29.8112 29.0209C29.8707 29.0856 29.9524 29.1255 30.04 29.1328H31.48C31.5692 29.1328 31.6546 29.1682 31.7176 29.2312C31.7806 29.2942 31.816 29.3797 31.816 29.4688L31.8208 30.2968Z" fill="#514C9F" stroke="#514C9F" stroke-width="0.5"/>
<path d="M19.4031 23.6088C19.4609 23.6392 19.5262 23.6527 19.5914 23.6478C19.6566 23.6428 19.7191 23.6196 19.7717 23.5808C19.8243 23.5419 19.8649 23.4891 19.8888 23.4283C19.9128 23.3674 19.9191 23.3011 19.9071 23.2368L19.5639 21.3168L20.9631 19.92C21.0092 19.8741 21.0417 19.8163 21.0568 19.753C21.0719 19.6896 21.0691 19.6234 21.0486 19.5616C21.0282 19.4998 20.991 19.4449 20.9411 19.4031C20.8912 19.3613 20.8307 19.3342 20.7663 19.3248L18.8223 19.0536L17.9439 17.304C17.9146 17.2463 17.87 17.1979 17.815 17.164C17.7599 17.1301 17.6965 17.1121 17.6319 17.112C17.5666 17.1123 17.5028 17.1309 17.4477 17.1657C17.3925 17.2005 17.3482 17.2501 17.3199 17.3088L16.4607 19.0728L14.5167 19.3656C14.4524 19.3757 14.3921 19.4035 14.3428 19.446C14.2934 19.4884 14.2568 19.5437 14.2371 19.6058C14.2174 19.6678 14.2154 19.7342 14.2313 19.7973C14.2472 19.8604 14.2804 19.9179 14.3271 19.9632L15.7407 21.3264L15.4191 23.2632C15.4085 23.3272 15.4162 23.3929 15.4413 23.4527C15.4663 23.5126 15.5077 23.5642 15.5607 23.6016C15.62 23.6447 15.6913 23.6682 15.7647 23.6688C15.8215 23.6684 15.8775 23.6544 15.9279 23.628L17.6607 22.704L19.4031 23.6088ZM17.4951 22.0008L16.2231 22.68L16.4631 21.2592C16.4719 21.2031 16.4671 21.1457 16.4491 21.0919C16.4312 21.038 16.4006 20.9892 16.3599 20.9496L15.3207 19.9512L16.7439 19.7352C16.7997 19.7267 16.8527 19.7047 16.8982 19.6713C16.9438 19.6379 16.9806 19.5939 17.0055 19.5432L17.6367 18.24L18.2799 19.536C18.3051 19.5867 18.3424 19.6305 18.3884 19.6635C18.4344 19.6966 18.4878 19.7179 18.5439 19.7256L19.9599 19.92L18.9351 20.9304C18.8946 20.97 18.8644 21.0189 18.8472 21.0729C18.8301 21.1269 18.8264 21.1843 18.8367 21.24L19.0887 22.6584L17.8095 21.996C17.7603 21.9723 17.7063 21.9603 17.6517 21.9612C17.5971 21.962 17.5435 21.9756 17.4951 22.0008ZM35.7615 19.5672C35.7412 19.5048 35.704 19.4493 35.654 19.4069C35.604 19.3646 35.5431 19.3369 35.4783 19.3272L33.5343 19.056L32.6559 17.304C32.6266 17.2463 32.582 17.1979 32.527 17.164C32.4719 17.1301 32.4085 17.1121 32.3439 17.112C32.2786 17.1123 32.2148 17.1309 32.1597 17.1657C32.1045 17.2005 32.0602 17.2501 32.0319 17.3088L31.1727 19.0728L29.2311 19.3656C29.1668 19.3757 29.1065 19.4035 29.0572 19.446C29.0078 19.4884 28.9712 19.5437 28.9515 19.6058C28.9318 19.6678 28.9298 19.7342 28.9457 19.7973C28.9616 19.8604 28.9948 19.9179 29.0415 19.9632L30.4551 21.3264L30.1335 23.2632C30.1234 23.3277 30.1319 23.3937 30.1578 23.4536C30.1837 23.5134 30.226 23.5648 30.2799 23.6016C30.3392 23.6447 30.4105 23.6682 30.4839 23.6688C30.5407 23.6684 30.5967 23.6544 30.6471 23.628L32.3799 22.704L34.1199 23.6088C34.1777 23.6392 34.243 23.6527 34.3082 23.6478C34.3734 23.6428 34.4359 23.6196 34.4885 23.5808C34.5411 23.5419 34.5817 23.4891 34.6056 23.4283C34.6296 23.3674 34.6359 23.3011 34.6239 23.2368L34.2807 21.3168L35.6751 19.92C35.7199 19.8744 35.7516 19.8176 35.7668 19.7555C35.782 19.6934 35.7801 19.6283 35.7615 19.5672ZM33.6567 20.9352C33.6162 20.9748 33.586 21.0237 33.5688 21.0777C33.5517 21.1317 33.548 21.1891 33.5583 21.2448L33.7983 22.6632L32.5215 22.0008C32.4715 21.9747 32.4159 21.9611 32.3595 21.9611C32.3031 21.9611 32.2475 21.9747 32.1975 22.0008L30.9255 22.68L31.1655 21.2592C31.1746 21.2033 31.1702 21.146 31.1526 21.0922C31.1351 21.0383 31.1049 20.9894 31.0647 20.9496L30.0399 19.9512L31.4631 19.7352C31.5189 19.7267 31.5719 19.7047 31.6174 19.6713C31.663 19.6379 31.6998 19.5939 31.7247 19.5432L32.3487 18.24L32.9919 19.536C33.0171 19.5867 33.0544 19.6305 33.1004 19.6635C33.1464 19.6966 33.1998 19.7179 33.2559 19.7256L34.6815 19.9248L33.6567 20.9352ZM23.0967 16.9344L22.7751 18.8712C22.7664 18.9337 22.775 18.9974 22.8 19.0554C22.8249 19.1133 22.8653 19.1634 22.9167 19.2C22.9755 19.2441 23.0472 19.2677 23.1207 19.2672C23.1775 19.2668 23.2335 19.2528 23.2839 19.2264L25.0167 18.3024L26.7591 19.2072C26.815 19.2401 26.8789 19.2568 26.9437 19.2556C27.0085 19.2543 27.0717 19.2351 27.1263 19.2C27.1792 19.1616 27.2202 19.109 27.2444 19.0482C27.2686 18.9875 27.2751 18.9211 27.2631 18.8568L26.9199 16.9368L28.3191 15.5592C28.3729 15.5145 28.4122 15.4547 28.4317 15.3875C28.4513 15.3204 28.4503 15.2489 28.4289 15.1822C28.4075 15.1156 28.3666 15.0569 28.3115 15.0138C28.2564 14.9706 28.1897 14.9449 28.1199 14.94L26.1759 14.6688L25.2999 12.9144C25.2715 12.8554 25.2268 12.8057 25.1711 12.7713C25.1154 12.7368 25.051 12.719 24.9855 12.72C24.9204 12.7208 24.8568 12.7396 24.8017 12.7744C24.7466 12.8091 24.7023 12.8584 24.6735 12.9168L23.8143 14.6832L21.8799 14.976C21.8155 14.9856 21.7552 15.0131 21.7057 15.0552C21.6562 15.0974 21.6195 15.1526 21.5997 15.2146C21.58 15.2765 21.578 15.3428 21.594 15.4058C21.61 15.4689 21.6434 15.5262 21.6903 15.5712L23.0967 16.9344ZM24.0999 15.3456C24.1558 15.3363 24.2086 15.3137 24.2541 15.2799C24.2996 15.2461 24.3364 15.202 24.3615 15.1512L24.9999 13.8576L25.6431 15.1464C25.6689 15.1964 25.7064 15.2395 25.7523 15.2721C25.7983 15.3046 25.8513 15.3257 25.9071 15.3336L27.3327 15.5328L26.3079 16.5432C26.2656 16.5818 26.2337 16.6303 26.2148 16.6844C26.196 16.7384 26.1908 16.7963 26.1999 16.8528L26.4519 18.2712L25.1727 17.6088C25.1228 17.5821 25.0672 17.5682 25.0107 17.5682C24.9541 17.5682 24.8985 17.5821 24.8487 17.6088L23.5767 18.2856L23.8167 16.8648C23.8247 16.8095 23.8195 16.753 23.8016 16.7001C23.7836 16.6471 23.7535 16.5991 23.7135 16.56L22.6767 15.5616L24.0999 15.3456Z" fill="#514C9F" stroke="#514C9F" stroke-width="0.5"/>
</g>
<defs>
<clipPath id="clip0_1_2103">
<rect width="24" height="24" fill="white" transform="translate(13 13)"/>
</clipPath>
</defs>
</svg>
