<svg width="90" height="208" viewBox="0 0 90 208" fill="none" xmlns="http://www.w3.org/2000/svg">
<g clip-path="url(#clip0_1_1411)">
<path d="M64.3222 22.5C64.3222 10.0736 54.2884 0 41.9111 0C29.5338 0 19.5 10.0736 19.5 22.5C19.5 34.9264 29.5338 45 41.9111 45C54.2884 45 64.3222 34.9264 64.3222 22.5Z" fill="#514C9F"/>
<path d="M42.6509 30.8421V27.7221H34.3709V25.2741L42.2429 14.0421H45.7229V25.0581H47.9309V27.7221H45.7229V30.8421H42.6509ZM37.6589 25.0581H42.8429V17.4261L37.6589 25.0581Z" fill="white"/>
</g>
<path d="M54.1514 106.056V110.668C54.1504 110.993 54.0213 111.305 53.7921 111.535C53.5629 111.765 53.2523 111.895 52.9281 111.896H41.6526C41.3284 111.895 41.0178 111.765 40.7886 111.535C40.5594 111.305 40.4302 110.993 40.4293 110.668V93.9463C40.4321 93.6222 40.5621 93.3122 40.7911 93.0836C41.0201 92.8551 41.3296 92.7264 41.6526 92.7255H52.9106C53.072 92.7236 53.2322 92.7538 53.3819 92.8141C53.5317 92.8745 53.6681 92.964 53.7834 93.0774C53.8987 93.1908 53.9905 93.3259 54.0536 93.475C54.1168 93.6241 54.15 93.7843 54.1514 93.9463V101.243" fill="white"/>
<path d="M52.9105 112.096H41.6525C41.2807 112.096 40.924 111.948 40.6611 111.684C40.3982 111.42 40.2505 111.062 40.2505 110.689V93.9458C40.2505 93.5726 40.3982 93.2147 40.6611 92.9508C40.924 92.6868 41.2807 92.5386 41.6525 92.5386H52.9105C53.2823 92.5386 53.639 92.6868 53.9019 92.9508C54.1648 93.2147 54.3125 93.5726 54.3125 93.9458V101.243H53.941V93.9458C53.941 93.6659 53.8302 93.3975 53.633 93.1995C53.4358 93.0016 53.1684 92.8904 52.8895 92.8904H41.6525C41.3736 92.8904 41.1062 93.0016 40.909 93.1995C40.7118 93.3975 40.601 93.6659 40.601 93.9458V110.668C40.601 110.948 40.7118 111.216 40.909 111.414C41.1062 111.612 41.3736 111.723 41.6525 111.723H52.9105C53.1894 111.723 53.4568 111.612 53.654 111.414C53.8512 111.216 53.962 110.948 53.962 110.668V106.055H54.3335V110.668C54.3364 110.856 54.3015 111.043 54.231 111.218C54.1605 111.392 54.0558 111.551 53.9231 111.684C53.7904 111.817 53.6324 111.922 53.4584 111.993C53.2845 112.064 53.0982 112.099 52.9105 112.096Z" fill="#514C9F"/>
<path d="M46.4404 109.612C46.6715 109.467 46.9115 109.336 47.1589 109.222C47.2732 109.17 47.3902 109.124 47.5094 109.084C47.6413 109.03 47.7809 108.998 47.923 108.989L47.7793 108.908C47.7548 108.87 47.7408 108.968 47.7337 108.993L47.6847 109.116C47.6435 109.203 47.614 109.295 47.5971 109.39C47.5879 109.424 47.587 109.46 47.5945 109.494C47.6019 109.528 47.6175 109.56 47.6399 109.587C47.6622 109.614 47.6907 109.635 47.7229 109.649C47.7551 109.662 47.7901 109.668 47.8249 109.665C48.1925 109.599 48.5437 109.461 48.8588 109.26H48.7292C48.7677 109.26 48.8133 109.313 48.8518 109.327C48.9093 109.348 48.9696 109.36 49.0306 109.362C49.1673 109.362 49.304 109.341 49.4407 109.362C49.6545 109.383 49.651 109.049 49.4407 109.032C49.297 109.032 49.1463 109.063 49.0061 109.032C48.8659 109 48.8238 108.901 48.6766 108.968C48.5294 109.035 48.4102 109.123 48.2665 109.183C48.2001 109.211 48.1323 109.236 48.0632 109.257L47.93 109.295C47.8915 109.295 47.8214 109.295 47.8775 109.352L47.9265 109.468C47.9265 109.243 48.1649 109.032 48.1018 108.799C48.0387 108.567 47.7513 108.669 47.5795 108.711C47.114 108.847 46.6711 109.051 46.2652 109.317C46.227 109.339 46.1992 109.375 46.1877 109.417C46.1762 109.46 46.182 109.505 46.2038 109.544C46.2257 109.582 46.2618 109.61 46.3041 109.621C46.3465 109.633 46.3918 109.627 46.4299 109.605L46.4404 109.612Z" fill="#E0E0E0"/>
<path d="M52.8266 95.2192H41.7333V95.5886H52.8266V95.2192Z" fill="#E0E0E0"/>
<path d="M51.5718 97.8404H41.7333V98.2098H51.5718V97.8404Z" fill="#E0E0E0"/>
<path d="M52.8266 100.465H41.7333V100.834H52.8266V100.465Z" fill="#E0E0E0"/>
<path d="M44.7826 103.089H41.7333V103.459H44.7826V103.089Z" fill="#E0E0E0"/>
<path d="M50.1169 103.089H46.0616V103.459H50.1169V103.089Z" fill="#E0E0E0"/>
<path d="M52.8266 105.71H41.7333V106.08H52.8266V105.71Z" fill="#E0E0E0"/>
<path d="M43.2578 110.396C42.9195 110.396 42.5888 110.296 42.3075 110.107C42.0263 109.918 41.807 109.65 41.6776 109.336C41.5481 109.023 41.5142 108.678 41.5802 108.345C41.6462 108.011 41.8091 107.706 42.0483 107.465C42.2875 107.225 42.5923 107.062 42.9241 106.996C43.2559 106.929 43.5998 106.963 43.9124 107.093C44.2249 107.223 44.492 107.443 44.68 107.726C44.8679 108.008 44.9682 108.34 44.9682 108.679C44.9682 109.135 44.788 109.571 44.4673 109.893C44.1465 110.215 43.7114 110.396 43.2578 110.396ZM43.2578 107.336C42.9921 107.336 42.7325 107.415 42.5116 107.563C42.2908 107.711 42.1187 107.922 42.0172 108.168C41.9157 108.415 41.8894 108.686 41.9414 108.947C41.9935 109.209 42.1217 109.449 42.3098 109.637C42.4979 109.825 42.7374 109.953 42.9981 110.005C43.2587 110.057 43.5287 110.029 43.774 109.927C44.0192 109.824 44.2286 109.651 44.3757 109.429C44.5228 109.207 44.6009 108.946 44.6002 108.679C44.5993 108.323 44.4574 107.981 44.2058 107.729C43.9541 107.477 43.6132 107.336 43.2578 107.336Z" fill="#514C9F"/>
<path d="M44.2673 108.68C44.268 108.881 44.2094 109.077 44.0989 109.244C43.9884 109.411 43.831 109.541 43.6466 109.619C43.4622 109.696 43.2591 109.716 43.0631 109.678C42.867 109.639 42.6868 109.543 42.5453 109.401C42.4038 109.26 42.3073 109.079 42.2681 108.882C42.2288 108.686 42.2486 108.482 42.3249 108.297C42.4012 108.111 42.5306 107.953 42.6967 107.841C42.8627 107.73 43.058 107.67 43.2578 107.67C43.525 107.67 43.7812 107.777 43.9704 107.966C44.1596 108.155 44.2664 108.412 44.2673 108.68Z" fill="#514C9F"/>
<path d="M49.9734 108.378C50.0327 107.896 50.2031 107.434 50.4711 107.03C50.7235 106.647 51.0284 106.327 51.3088 105.95C51.8731 105.246 52.4584 104.543 53.0613 103.839C54.246 102.457 55.4482 101.088 56.7591 99.8039C56.7924 99.7752 56.8348 99.759 56.8787 99.7582C56.9227 99.7574 56.9656 99.772 57 99.7995C57.0344 99.8269 57.0582 99.8656 57.0673 99.9088C57.0765 99.9519 57.0703 99.9969 57.05 100.036C56.1036 101.609 55.0486 103.097 53.9761 104.571C53.4363 105.303 52.8895 106.031 52.3287 106.749C52.0448 107.101 51.7855 107.481 51.47 107.804C51.1399 108.159 50.7318 108.431 50.2783 108.599C50.2234 108.618 50.1636 108.614 50.1114 108.589C50.0591 108.564 50.0185 108.52 49.9979 108.466C49.9841 108.438 49.9758 108.408 49.9734 108.378Z" fill="#514C9F"/>
<path d="M50.8802 120.834L48.5767 122.851L48.8185 123.129L51.122 121.113L50.8802 120.834Z" fill="#514C9F"/>
<path d="M48.1367 117.713L47.1626 122.076L47.5217 122.157L48.4958 117.793L48.1367 117.713Z" fill="#514C9F"/>
<path d="M44.706 121.056L44.4374 121.309L45.7191 122.682L45.9877 122.43L44.706 121.056Z" fill="#514C9F"/>
<path d="M71.6971 204.353H68.7144L68.3499 197.422H71.3291L71.6971 204.353Z" fill="#F8CBAA"/>
<path d="M86.7334 204.353H83.7507L82.5835 197.422H85.5627L86.7334 204.353Z" fill="#F8CBAA"/>
<path d="M83.5582 204.005H86.9054C86.9638 204.004 87.0206 204.024 87.0656 204.062C87.1106 204.099 87.1408 204.151 87.1508 204.209L87.6134 206.869C87.623 206.935 87.6182 207.003 87.5993 207.068C87.5804 207.132 87.5479 207.192 87.504 207.242C87.4601 207.293 87.4059 207.334 87.3449 207.362C87.2839 207.389 87.2177 207.404 87.1508 207.404C85.9836 207.382 85.4193 207.312 83.9437 207.312C83.0394 207.312 80.5965 207.407 79.3452 207.407C78.0939 207.407 77.9887 206.165 78.504 206.053C80.8278 205.549 82.2964 204.853 83.0605 204.191C83.1986 204.071 83.3753 204.005 83.5582 204.005Z" fill="#263238"/>
<path d="M68.6408 204.005H71.8935C71.9519 204.004 72.0087 204.024 72.0536 204.062C72.0986 204.099 72.1288 204.151 72.1388 204.209L72.6015 206.869C72.6122 206.935 72.6084 207.003 72.5904 207.067C72.5724 207.132 72.5406 207.191 72.4972 207.242C72.4538 207.293 72.3999 207.334 72.3393 207.362C72.2786 207.39 72.2126 207.404 72.1458 207.404C70.9752 207.382 69.2788 207.312 67.8032 207.312C66.0787 207.312 65.6406 207.407 63.6147 207.407C62.3915 207.407 62.1111 206.165 62.6298 206.053C64.9851 205.542 65.8369 205.486 67.9083 204.241C68.1266 204.097 68.3799 204.015 68.6408 204.005Z" fill="#263238"/>
<path d="M68.5463 111.164L64.4735 109.964C64.4735 109.964 60.3236 119.86 58.9181 120.518C57.0079 121.398 51.9081 124.096 49.7491 125.37C49.6018 125.859 49.5983 127.199 49.8332 127.586C53.3697 127.305 60.625 124.895 62.02 123.551C65.2026 120.483 68.5463 111.164 68.5463 111.164Z" fill="#F8CBAA"/>
<path d="M69.7801 109.295C70.9367 111.885 62.9944 123.241 62.9944 123.241L59.1389 119.224C59.1389 119.224 62.5493 110.629 64.3964 107.332C66.2821 103.944 68.5218 106.446 69.7801 109.295Z" fill="#514C9F"/>
<path opacity="0.4" d="M69.7801 109.295C70.9367 111.885 62.9944 123.241 62.9944 123.241L59.1389 119.224C59.1389 119.224 62.5493 110.629 64.3964 107.332C66.2821 103.944 68.5218 106.446 69.7801 109.295Z" fill="white"/>
<path d="M58.8582 118.869C58.6164 119.013 58.0976 119.959 57.982 120.431C57.8663 120.902 60.5792 124.54 61.6342 124.392C62.6892 124.244 63.8949 123.214 64.1122 122.658C64.3295 122.102 59.3665 118.57 58.8582 118.869Z" fill="#514C9F"/>
<path d="M50.2011 125.145L47.7476 124.695L47.8948 128.213C47.8948 128.213 48.757 128.565 50.6146 127.411L50.2011 125.145Z" fill="#F8CBAA"/>
<path d="M44.7822 125.866L45.2309 128.03L47.8771 128.227L47.7299 124.698L44.7822 125.866Z" fill="#F8CBAA"/>
<path opacity="0.2" d="M68.3499 197.426L68.5391 200.997H71.5184L71.3326 197.426H68.3499Z" fill="black"/>
<path opacity="0.2" d="M85.5662 197.426H82.5835L83.1864 200.997H86.1691L85.5662 197.426Z" fill="black"/>
<path d="M65.991 105.763C65.991 105.763 62.0129 116.043 64.5575 132.871H80.5017C80.726 130.408 79.8007 117.183 82.6993 105.608C80.9472 105.265 79.1746 105.039 77.3928 104.929C75.1351 104.799 72.8718 104.799 70.6141 104.929C69.0542 105.089 67.5086 105.367 65.991 105.763Z" fill="#514C9F"/>
<path opacity="0.2" d="M65.991 105.763C65.991 105.763 62.0129 116.043 64.5575 132.871H80.5017C80.726 130.408 79.8007 117.183 82.6993 105.608C80.9472 105.265 79.1746 105.039 77.3928 104.929C75.1351 104.799 72.8718 104.799 70.6141 104.929C69.0542 105.089 67.5086 105.367 65.991 105.763Z" fill="black"/>
<path opacity="0.2" d="M79.0999 108.466C78.7494 110.372 79.1245 114.928 80.6842 120.195C80.874 115.673 81.4604 111.177 82.4367 106.759V106.738C81.3782 106.629 79.4399 106.678 79.0999 108.466Z" fill="black"/>
<path d="M76.811 98.5688C76.2782 100.757 75.9383 103.47 77.3928 104.93C77.3928 104.93 76.4114 107.153 72.3597 107.153C68.6549 107.153 70.6072 104.93 70.6072 104.93C73.0607 104.349 73.0852 101.331 72.7417 99.6278L76.811 98.5688Z" fill="#F8CBAA"/>
<path d="M72.3772 107.149C74.7641 107.899 75.2373 108.666 75.2373 108.666C75.2373 108.666 78.213 107.452 78.1008 104.82C77.7394 104.552 77.3491 104.326 76.9372 104.145C76.9372 104.145 76.6848 106.094 72.3772 107.149Z" fill="#514C9F"/>
<path d="M72.3771 107.15C71.0382 107.276 69.9236 108.427 69.9236 108.427C69.9236 108.427 69.0719 107.53 69.8885 104.926C69.8885 104.926 70.6841 104.655 71.3431 104.514C71.3256 104.518 70.7893 106.587 72.3771 107.15Z" fill="#514C9F"/>
<path opacity="0.2" d="M72.7486 99.6313C72.9519 100.627 73.029 102.094 72.5593 103.223C72.9424 103.16 73.3143 103.042 73.6634 102.872C75.0654 102.224 75.7874 101.2 76.5655 99.7052C76.6356 99.3146 76.7198 98.9347 76.8109 98.5688L72.7486 99.6313Z" fill="black"/>
<path d="M72.2754 91.5743C71.322 91.8875 69.191 93.7239 71.2239 94.6492C73.2568 95.5745 73.9368 91.0326 72.2754 91.5743Z" fill="#263238"/>
<path d="M78.7069 95.8917C77.7781 98.7625 77.3785 100.465 75.5524 101.661C72.808 103.421 69.636 101.31 69.7096 98.277C69.7727 95.5293 71.2799 91.297 74.3678 90.7516C77.4557 90.2063 79.6358 93.0314 78.7069 95.8917Z" fill="#F8CBAA"/>
<path d="M74.2277 92.7497C72.6505 93.0171 71.3361 92.9327 70.8594 91.6169C70.3827 90.3011 72.5523 88.922 74.0489 89.5412C75.153 88.3872 78.1673 89.2738 78.5564 90.382C80.3089 90.2694 81.9667 92.2959 80.7785 93.3337C81.0473 93.5013 81.2744 93.7282 81.4427 93.9971C81.611 94.266 81.716 94.5699 81.7498 94.8856C81.7836 95.2014 81.7453 95.5207 81.6377 95.8193C81.5301 96.118 81.3562 96.3881 81.129 96.6092C81.6408 98.136 79.7971 99.6594 78.3426 99.0402C76.909 98.611 76.1274 98.9628 75.9276 98.034C75.7278 97.1052 76.2326 96.2081 77.4523 96.0287C76.8354 95.2898 76.6847 94.1218 77.1018 93.6187C75.6262 94.2907 74.417 93.4463 74.2277 92.7497Z" fill="#263238"/>
<path d="M72.335 98.9381C72.6138 98.9616 72.8945 98.9295 73.161 98.8438C73.4275 98.7581 73.6744 98.6203 73.8877 98.4385C73.9008 98.4248 73.9081 98.4065 73.9081 98.3875C73.9081 98.3685 73.9008 98.3502 73.8877 98.3365C73.8815 98.3296 73.8739 98.3242 73.8654 98.3205C73.857 98.3167 73.8479 98.3148 73.8386 98.3148C73.8294 98.3148 73.8203 98.3167 73.8118 98.3205C73.8034 98.3242 73.7958 98.3296 73.7896 98.3365C73.5557 98.5312 73.281 98.6703 72.986 98.7434C72.691 98.8165 72.3834 98.8217 72.0861 98.7587C72.0676 98.7555 72.0486 98.7595 72.0329 98.77C72.0173 98.7805 72.0062 98.7966 72.002 98.8149C71.9994 98.8238 71.9987 98.833 72 98.8421C72.0014 98.8512 72.0046 98.8599 72.0096 98.8676C72.0146 98.8753 72.0212 98.8818 72.029 98.8867C72.0368 98.8916 72.0455 98.8947 72.0546 98.8959C72.1473 98.9147 72.2409 98.9288 72.335 98.9381Z" fill="#263238"/>
<path d="M78.8717 99.8565C78.2752 100.324 77.5217 100.542 76.7687 100.465C75.7908 100.356 75.7172 99.3886 76.3306 98.6568C76.8844 97.9954 78.062 97.2495 78.8787 97.735C79.6954 98.2205 79.6042 99.2725 78.8717 99.8565Z" fill="#F8CBAA"/>
<path d="M75.0372 132.871C75.0372 132.871 74.6306 136.635 74.1118 141.733C73.516 147.513 72.7764 155.018 72.3068 160.731C72.3068 160.759 72.3068 160.784 72.3068 160.809C72.2156 161.896 72.135 162.919 72.0684 163.841C71.4025 173.168 72.5942 200.3 72.5942 200.3H67.54C67.54 200.3 62.8854 172.612 63.001 163.12C63.1097 153.997 64.5537 132.864 64.5537 132.864L75.0372 132.871Z" fill="#514C9F"/>
<path d="M73.0078 198.319C73.0323 198.319 72.9202 200.409 72.9202 200.409H67.0984L66.9512 198.115L73.0078 198.319Z" fill="#263238"/>
<path opacity="0.2" d="M74.1295 141.733C73.5337 147.513 72.7941 155.018 72.3244 160.731C72.3244 160.759 72.3244 160.784 72.3244 160.808C71.2134 155.387 70.8664 148.646 71.2975 137.546L74.1295 141.733Z" fill="black"/>
<path d="M70.2108 132.871C70.2108 132.871 72.5381 154.493 73.9857 163.06C75.5734 172.443 81.8404 200.303 81.8404 200.303H87.3011C87.3011 200.303 83.6209 173.214 82.8989 163.912C82.1208 153.828 80.512 132.871 80.512 132.871H70.2108Z" fill="#514C9F"/>
<path d="M87.3679 198.446C87.3925 198.446 87.5572 200.409 87.5572 200.409H81.5567L81.1185 198.217L87.3679 198.446Z" fill="#263238"/>
<path d="M73.7544 95.7648C73.6913 96.0005 73.5196 96.1658 73.3689 96.1166C73.2182 96.0673 73.1446 95.8633 73.2041 95.6276C73.2637 95.3918 73.439 95.2265 73.5897 95.2757C73.7404 95.325 73.814 95.5396 73.7544 95.7648Z" fill="#263238"/>
<path d="M71.1326 95.1877C71.0695 95.4235 70.8978 95.5888 70.747 95.5396C70.5963 95.4903 70.5227 95.2898 70.5823 95.0505C70.6419 94.8113 70.8172 94.6495 70.9679 94.6987C71.1186 94.748 71.1922 94.952 71.1326 95.1877Z" fill="#263238"/>
<path d="M72.3559 95.4903C71.8919 96.1532 71.3441 96.7528 70.7261 97.274C71.0345 97.7525 71.7776 97.7278 71.7776 97.7278L72.3559 95.4903Z" fill="#630F0F"/>
<path d="M75.1813 95.0753C75.1605 95.0698 75.1412 95.0597 75.1248 95.0457C75.1084 95.0316 75.0954 95.0141 75.0867 94.9944C75.0251 94.8317 74.9244 94.6868 74.7935 94.5726C74.6626 94.4585 74.5057 94.3786 74.3366 94.34C74.3183 94.3375 74.3007 94.3313 74.2849 94.3216C74.2692 94.3119 74.2556 94.2991 74.245 94.2839C74.2345 94.2686 74.2272 94.2514 74.2237 94.2332C74.2201 94.215 74.2204 94.1963 74.2244 94.1782C74.2313 94.1408 74.2522 94.1075 74.2829 94.0852C74.3136 94.063 74.3517 94.0534 74.3892 94.0586C74.6046 94.1028 74.8055 94.2008 74.9733 94.3434C75.1411 94.4861 75.2705 94.6688 75.3495 94.8748C75.3628 94.9104 75.3623 94.9497 75.348 94.9849C75.3337 95.0201 75.3067 95.0486 75.2724 95.0648C75.2441 95.0784 75.212 95.0821 75.1813 95.0753Z" fill="#263238"/>
<path d="M70.6247 93.9846C70.6057 93.9766 70.588 93.966 70.5721 93.9529C70.5588 93.9398 70.5483 93.9242 70.5412 93.907C70.534 93.8898 70.5303 93.8713 70.5303 93.8526C70.5303 93.834 70.534 93.8155 70.5412 93.7983C70.5483 93.7811 70.5588 93.7654 70.5721 93.7523C70.7203 93.5798 70.9072 93.4452 71.1175 93.3596C71.3277 93.2739 71.5553 93.2397 71.7813 93.2598C71.7996 93.2623 71.8172 93.2686 71.833 93.2782C71.8487 93.2879 71.8623 93.3007 71.8729 93.316C71.8834 93.3312 71.8907 93.3484 71.8942 93.3666C71.8978 93.3848 71.8975 93.4036 71.8935 93.4216C71.8858 93.4586 71.8647 93.4914 71.8342 93.5135C71.8037 93.5357 71.7661 93.5456 71.7287 93.5413C71.5491 93.5279 71.3688 93.5573 71.2025 93.627C71.0363 93.6967 70.8887 93.8047 70.7719 93.9423C70.7531 93.9616 70.7297 93.9757 70.7039 93.9831C70.678 93.9905 70.6507 93.991 70.6247 93.9846Z" fill="#263238"/>
<path d="M84.466 109.693L80.7017 111.98C80.7017 111.98 84.9076 121.127 84.8831 122.665C84.813 125.536 86.0433 131.759 85.7103 135.038C86.173 135.203 87.4628 135.242 87.8694 135.013C88.6159 132.048 89.6499 124.255 89.352 122.302C88.7 118.056 84.466 109.693 84.466 109.693Z" fill="#F8CBAA"/>
<path d="M82.6993 105.609C85.5032 106.02 89.4989 120.304 89.4989 120.304L84.3115 122.278C84.3115 122.278 79.7936 114.538 78.686 111.058C77.4943 107.427 79.6955 105.165 82.6993 105.609Z" fill="#514C9F"/>
<path opacity="0.4" d="M82.6993 105.609C85.5032 106.02 89.4989 120.304 89.4989 120.304L84.3115 122.278C84.3115 122.278 79.7936 114.538 78.686 111.058C77.4943 107.427 79.6955 105.165 82.6993 105.609Z" fill="white"/>
<path d="M82.5414 204.529C82.3409 204.547 82.1408 204.492 81.9771 204.374C81.925 204.329 81.8856 204.271 81.8628 204.205C81.8401 204.14 81.8348 204.07 81.8474 204.001C81.8496 203.96 81.8627 203.919 81.8855 203.884C81.9082 203.849 81.9398 203.82 81.9771 203.801C82.3276 203.632 83.2494 204.223 83.3545 204.293C83.3661 204.301 83.3751 204.311 83.3802 204.324C83.3853 204.337 83.3861 204.351 83.3826 204.364C83.3792 204.377 83.3722 204.39 83.3623 204.4C83.3524 204.41 83.34 204.417 83.3265 204.42C83.0699 204.487 82.8064 204.523 82.5414 204.529ZM82.1313 203.899C82.0999 203.897 82.0686 203.903 82.0402 203.917C82.0254 203.925 82.013 203.936 82.0044 203.951C81.9957 203.965 81.9911 203.981 81.9911 203.998C81.9822 204.045 81.9853 204.093 82 204.139C82.0147 204.184 82.0406 204.225 82.0752 204.258C82.2294 204.395 82.6185 204.413 83.1267 204.311C82.826 204.108 82.4874 203.968 82.1313 203.899Z" fill="#514C9F"/>
<path d="M83.3126 204.423C83.3023 204.426 83.2914 204.426 83.2811 204.423C82.9796 204.258 82.4153 203.6 82.496 203.266C82.5091 203.214 82.5389 203.168 82.5807 203.135C82.6225 203.102 82.674 203.083 82.7273 203.083C82.7803 203.075 82.8342 203.08 82.8855 203.095C82.9369 203.11 82.9845 203.136 83.0252 203.171C83.3582 203.456 83.3757 204.321 83.3757 204.356C83.3757 204.369 83.3725 204.382 83.3664 204.394C83.3603 204.406 83.3515 204.416 83.3407 204.423C83.3314 204.424 83.3219 204.424 83.3126 204.423ZM82.7693 203.195H82.7378C82.6467 203.195 82.6362 203.248 82.6327 203.266C82.5836 203.463 82.9411 203.969 83.2355 204.191C83.2343 203.854 83.1276 203.527 82.9306 203.255C82.8859 203.216 82.8286 203.195 82.7693 203.195Z" fill="#514C9F"/>
<path d="M67.3753 204.529C67.1219 204.553 66.8681 204.489 66.6567 204.346C66.6105 204.301 66.5757 204.246 66.5556 204.185C66.5354 204.123 66.5305 204.058 66.5411 203.994C66.5453 203.955 66.5589 203.917 66.5809 203.884C66.6029 203.851 66.6325 203.824 66.6673 203.805C67.0388 203.6 68.2095 204.213 68.3426 204.283C68.3552 204.29 68.365 204.301 68.3707 204.315C68.3764 204.328 68.3776 204.343 68.3742 204.357C68.3716 204.372 68.3644 204.385 68.3538 204.396C68.3431 204.407 68.3294 204.414 68.3146 204.417C68.0055 204.483 67.6911 204.52 67.3753 204.529ZM66.8635 203.899C66.8178 203.897 66.7722 203.906 66.7304 203.924C66.7167 203.932 66.7052 203.944 66.6967 203.957C66.6881 203.97 66.6829 203.986 66.6813 204.002C66.6742 204.043 66.6775 204.086 66.691 204.126C66.7044 204.166 66.7276 204.202 66.7584 204.23C66.9336 204.392 67.4208 204.42 68.0868 204.311C67.7059 204.104 67.292 203.964 66.8635 203.899Z" fill="#514C9F"/>
<path d="M68.3044 204.423H68.2729C67.9224 204.262 67.2214 203.614 67.309 203.276C67.309 203.196 67.3896 203.097 67.5824 203.079C67.6515 203.071 67.7216 203.077 67.7881 203.097C67.8546 203.118 67.9159 203.153 67.968 203.199C68.3185 203.512 68.3745 204.318 68.378 204.353C68.3778 204.366 68.3745 204.378 68.3684 204.389C68.3622 204.4 68.3535 204.409 68.343 204.416C68.3315 204.424 68.3177 204.426 68.3044 204.423ZM67.6315 203.196H67.5894C67.4632 203.196 67.4527 203.259 67.4492 203.273C67.4072 203.477 67.8663 203.977 68.2238 204.205C68.2059 203.869 68.0833 203.546 67.8733 203.284C67.8067 203.224 67.7203 203.193 67.6315 203.196Z" fill="#514C9F"/>
<path d="M85.8782 134.546L84.7356 136.78L88.0864 136.935C88.3281 136.447 88.416 135.896 88.3384 135.357C88.2607 134.818 88.0212 134.315 87.6517 133.916L85.8782 134.546Z" fill="#F8CBAA"/>
<path d="M86.0149 138.511L88.0128 138.236L88.0864 136.934L84.7356 136.78L84.7882 137.508C84.7983 137.656 84.8388 137.801 84.907 137.933C84.9752 138.066 85.0698 138.182 85.1848 138.276C85.2998 138.37 85.4328 138.44 85.5756 138.48C85.7184 138.52 85.8679 138.531 86.0149 138.511Z" fill="#F8CBAA"/>
<path d="M83.5302 121.465C83.4776 121.74 83.8491 122.756 84.1225 123.15C84.3959 123.544 88.9173 123.893 89.4992 122.999C90.081 122.105 90.1055 120.515 89.8286 119.984C89.5517 119.453 83.6388 120.871 83.5302 121.465Z" fill="#514C9F"/>
<path d="M17.4819 110.485C16.9176 111.227 16.3042 112.04 15.7294 112.839C15.1546 113.637 14.6008 114.45 14.0716 115.273C13.0101 116.853 12.0939 118.526 11.3342 120.273C11.2465 120.48 11.1659 120.688 11.0958 120.895C11.0584 120.998 11.0234 121.101 10.9907 121.201L10.9416 121.356L10.9206 121.43V121.451C10.8564 121.721 10.8433 122 10.882 122.274C11.003 123.159 11.2108 124.03 11.5024 124.874C12.1018 126.693 12.9044 128.568 13.693 130.387L11.902 131.527C10.5582 129.863 9.39503 128.06 8.43202 126.148C7.90153 125.116 7.49784 124.023 7.22982 122.894C7.05577 122.163 7.02718 121.405 7.14569 120.663L7.17373 120.494L7.20178 120.382L7.25435 120.164C7.28589 120.019 7.32094 119.875 7.363 119.734C7.44011 119.449 7.52423 119.175 7.61536 118.9C8.34843 116.83 9.30515 114.847 10.4684 112.986C11.0292 112.075 11.604 111.182 12.2209 110.32C12.8378 109.458 13.4477 108.62 14.1592 107.762L17.4819 110.485Z" fill="#514C9F"/>
<path d="M13.2196 129.736L15.0632 130.718L12.9602 133.212C12.9602 133.212 11.6353 132.312 11.5582 130.939L13.2196 129.736Z" fill="#FFC3BD"/>
<path d="M17.5446 132.256L15.2733 134.067L12.9425 133.213L15.063 130.718L17.5446 132.256Z" fill="#FFC3BD"/>
<path d="M45.1011 124.388L47.2812 125.518L47.0884 126.306L45.3359 128.065C45.3359 128.065 44.0741 127.08 44.1021 125.708L45.1011 124.388Z" fill="#FFC3BD"/>
<path d="M45.4166 124.699L47.4145 124.322L48.6973 124.871L47.8421 125.015L47.2813 125.525L45.4166 124.699Z" fill="#FFC3BD"/>
<path d="M49.465 128.325L47.2989 128.793C47.0718 128.842 46.8352 128.813 46.6259 128.712L45.3256 128.079L47.0781 126.32L48.2382 125.968L49.6893 127.639C49.7344 127.695 49.7649 127.761 49.7779 127.832C49.7909 127.903 49.786 127.976 49.7637 128.044C49.7413 128.112 49.7023 128.174 49.6501 128.223C49.5979 128.272 49.5342 128.307 49.465 128.325Z" fill="#FFC3BD"/>
<path d="M25.4697 96.2224C25.5187 96.4581 25.68 96.6234 25.8202 96.5742C25.9604 96.5249 26.0585 96.3244 26.0129 96.0887C25.9674 95.853 25.7991 95.6876 25.6624 95.7369C25.5257 95.7861 25.4101 95.9867 25.4697 96.2224Z" fill="#263238"/>
<path d="M25.6589 96.627C26.0854 97.2914 26.6008 97.894 27.1906 98.4177C26.8401 98.8927 26.1111 98.8575 26.1111 98.8575L25.6589 96.627Z" fill="#514C9F"/>
<path d="M24.3584 95.0859C24.3233 95.0845 24.2899 95.0708 24.2638 95.0472C24.2379 95.0203 24.2234 94.9844 24.2234 94.9469C24.2234 94.9095 24.2379 94.8736 24.2638 94.8467C24.4119 94.6783 24.598 94.548 24.8065 94.4666C25.0151 94.3852 25.24 94.3551 25.4625 94.3788C25.4951 94.3894 25.5229 94.4114 25.5408 94.4408C25.5587 94.4702 25.5655 94.5051 25.56 94.5391C25.5545 94.5731 25.5371 94.604 25.5108 94.6262C25.4846 94.6485 25.4513 94.6605 25.4169 94.6602C25.2405 94.6437 25.0626 94.6696 24.8981 94.7357C24.7336 94.8017 24.587 94.9061 24.4706 95.0402C24.4566 95.0559 24.4393 95.0683 24.4198 95.0762C24.4004 95.0841 24.3794 95.0874 24.3584 95.0859Z" fill="#263238"/>
<path d="M19.1009 100.391C19.5075 102.467 19.7494 105.341 18.3053 106.724C18.3053 106.724 18.8696 108.835 22.7111 108.835C26.9381 108.835 24.744 106.984 24.744 106.984C22.9915 106.439 22.9915 104.43 23.4051 102.819L19.1009 100.391Z" fill="#FFC3BD"/>
<path d="M17.6994 108.145C17.3489 107.589 17.4645 105.904 17.8851 105.63C18.5581 105.186 21.334 105.236 25.0178 106.316C24.5201 107.927 25.3297 108.835 25.3297 108.835L17.6994 108.145Z" fill="#182D64"/>
<path opacity="0.2" d="M14.6145 111.132C13.3002 112.434 12.9181 115.101 13.0618 116.92C13.3843 116.367 13.7278 115.815 14.0818 115.277C14.611 114.45 15.1753 113.644 15.7431 112.835C15.9009 112.613 16.0621 112.388 16.2268 112.163C16.2584 112.019 16.2864 111.875 16.3145 111.734L14.6145 111.132Z" fill="black"/>
<path d="M5.30537 203.899C5.53497 203.98 5.78693 203.966 6.00637 203.86C6.04872 203.822 6.07793 203.771 6.08987 203.715C6.10182 203.658 6.09591 203.6 6.07296 203.547C6.05998 203.504 6.03795 203.464 6.00832 203.43C5.9787 203.396 5.94218 203.369 5.90122 203.35C5.51917 203.167 4.63942 203.526 4.60437 203.54C4.59232 203.545 4.58193 203.553 4.57446 203.564C4.56699 203.575 4.56276 203.587 4.56231 203.6C4.56178 203.613 4.56516 203.626 4.57203 203.638C4.57889 203.649 4.58892 203.658 4.60086 203.663C4.82672 203.767 5.06288 203.846 5.30537 203.899ZM5.76803 203.445L5.84513 203.47C5.86949 203.481 5.89121 203.497 5.90877 203.517C5.92633 203.537 5.93931 203.56 5.94678 203.586C5.98183 203.706 5.94678 203.744 5.92224 203.758C5.77153 203.889 5.22125 203.758 4.81117 203.607C5.11743 203.476 5.44955 203.417 5.78205 203.435L5.76803 203.445Z" fill="#514C9F"/>
<path d="M4.61868 203.66H4.65022C4.97268 203.569 5.65616 203.08 5.66317 202.76C5.66429 202.709 5.64775 202.659 5.6164 202.619C5.58505 202.58 5.54086 202.552 5.49142 202.541C5.44302 202.523 5.39122 202.516 5.33971 202.52C5.28821 202.525 5.23828 202.54 5.1935 202.566C4.81846 202.76 4.58012 203.544 4.56961 203.576C4.56437 203.586 4.56165 203.598 4.56165 203.609C4.56165 203.621 4.56437 203.632 4.56961 203.643C4.58328 203.654 4.60073 203.661 4.61868 203.66ZM5.41782 202.654H5.44936C5.52998 202.682 5.52998 202.724 5.52998 202.742C5.52998 202.932 5.07433 203.312 4.74135 203.467C4.83072 203.156 5.01007 202.879 5.25659 202.672C5.2831 202.657 5.3123 202.648 5.34242 202.645C5.37254 202.642 5.40295 202.645 5.43184 202.654H5.41782Z" fill="#514C9F"/>
<path d="M26.1778 204.364C26.5283 204.364 26.8788 204.314 27.0085 204.149C27.0386 204.106 27.0547 204.055 27.0547 204.003C27.0547 203.951 27.0386 203.9 27.0085 203.857C26.9607 203.778 26.8839 203.721 26.7947 203.699C26.3251 203.572 25.3367 204.135 25.2946 204.159C25.2823 204.166 25.2726 204.177 25.2669 204.189C25.2612 204.202 25.2598 204.216 25.263 204.23C25.2649 204.244 25.271 204.256 25.2804 204.266C25.2898 204.276 25.3021 204.283 25.3156 204.286C25.6003 204.337 25.8888 204.362 26.1778 204.364ZM26.6265 203.815C26.6695 203.809 26.7131 203.809 26.7562 203.815C26.7832 203.82 26.8088 203.832 26.8311 203.848C26.8535 203.865 26.8721 203.886 26.8859 203.91C26.9349 203.994 26.9174 204.033 26.8859 204.057C26.7562 204.24 26.0412 204.244 25.5154 204.17C25.8596 203.981 26.2368 203.86 26.6265 203.815Z" fill="#514C9F"/>
<path d="M25.3222 204.286H25.3503C25.7008 204.135 26.3667 203.519 26.3176 203.199C26.3176 203.122 26.2511 203.03 26.0688 203.009C26.0023 203.003 25.9353 203.01 25.8715 203.03C25.8078 203.05 25.7486 203.082 25.6973 203.125C25.3468 203.424 25.2591 204.181 25.2556 204.219C25.2554 204.231 25.2578 204.242 25.2626 204.253C25.2675 204.263 25.2747 204.272 25.2837 204.279C25.2955 204.285 25.309 204.288 25.3222 204.286ZM26.0232 203.136H26.0653C26.1845 203.136 26.1915 203.196 26.195 203.21C26.2265 203.403 25.7674 203.885 25.4204 204.093C25.4515 203.77 25.5813 203.466 25.7919 203.22C25.8535 203.167 25.9316 203.137 26.0127 203.136H26.0232Z" fill="#514C9F"/>
<path d="M22.2172 204.219H25.0422L25.3226 197.648H22.4976L22.2172 204.219Z" fill="#FFC3BD"/>
<path d="M1.51672 203.006L4.24361 203.586L6.71813 197.299L3.99125 196.719L1.51672 203.006Z" fill="#FFC3BD"/>
<path d="M4.49583 203.228L1.39041 202.552C1.3361 202.541 1.27949 202.548 1.22983 202.573C1.18017 202.598 1.1404 202.639 1.11702 202.689L0.0374837 205.036C0.0114393 205.093 -0.00133641 205.156 0.00011053 205.219C0.00155747 205.282 0.0171903 205.344 0.0458402 205.4C0.0744902 205.456 0.115416 205.505 0.16556 205.543C0.215703 205.581 0.273764 205.608 0.335407 205.62C1.42546 205.835 1.96523 205.887 3.32867 206.183C4.16987 206.366 6.06607 206.83 7.22622 207.08C8.38637 207.33 8.78244 206.215 8.33029 206.007C6.30441 205.078 5.4562 204.248 4.90592 203.495C4.80698 203.358 4.66083 203.263 4.49583 203.228Z" fill="#263238"/>
<path d="M25.0248 203.899H21.9369C21.8809 203.9 21.8267 203.919 21.783 203.954C21.7392 203.99 21.7082 204.038 21.695 204.093L21.1377 206.615C21.124 206.676 21.1242 206.74 21.1383 206.801C21.1523 206.862 21.18 206.919 21.2191 206.967C21.2582 207.016 21.3077 207.055 21.364 207.082C21.4204 207.109 21.482 207.122 21.5443 207.122C22.6589 207.101 24.2677 207.038 25.6662 207.038C27.303 207.038 27.8848 207.125 29.8021 207.125C30.9622 207.125 31.2847 205.95 30.801 205.841C28.5893 205.356 27.615 205.303 25.7047 204.121C25.5025 203.986 25.2673 203.909 25.0248 203.899Z" fill="#263238"/>
<path opacity="0.2" d="M25.3225 197.651L25.1787 201.035H22.3502L22.4939 197.651H25.3225Z" fill="black"/>
<path opacity="0.2" d="M3.99115 196.719L6.71803 197.299L5.44221 200.539L2.71533 199.963L3.99115 196.719Z" fill="black"/>
<path d="M24.2396 132.04C24.2396 132.04 21.0291 153.726 19.2696 161.849C17.3418 170.747 7.0021 200.197 7.0021 200.197L1.92688 199.079C1.92688 199.079 9.16118 175.092 10.777 162.655C12.0213 153.103 14.4712 132.047 14.4712 132.047L24.2396 132.04Z" fill="#182D64"/>
<path opacity="0.1" d="M24.2396 132.04C24.2396 132.04 21.0291 153.726 19.2696 161.849C17.3418 170.747 7.0021 200.197 7.0021 200.197L1.92688 199.079C1.92688 199.079 9.16118 175.092 10.777 162.655C12.0213 153.103 14.4712 132.047 14.4712 132.047L24.2396 132.04Z" fill="white"/>
<path d="M8.21148 198.485C8.23251 198.485 7.26864 200.321 7.26864 200.321L1.57654 199.083L2.05672 197.366L8.21148 198.485Z" fill="#263238"/>
<path opacity="0.3" d="M22.2098 139.766C18.5015 140.498 18.8941 154.384 19.3392 161.526C20.3907 156.478 21.975 146.75 23.0475 139.868C22.7875 139.741 22.4925 139.705 22.2098 139.766Z" fill="black"/>
<path d="M29.6163 132.04C29.6163 132.04 30.0053 153.255 29.6969 161.909C29.378 170.909 26.248 200.38 26.248 200.38H21.4427C21.4427 200.38 21.2674 171.436 21.0536 162.595C20.8223 152.959 19.6516 132.04 19.6516 132.04H29.6163Z" fill="#182D64"/>
<path opacity="0.1" d="M29.6163 132.04C29.6163 132.04 30.0053 153.255 29.6969 161.909C29.378 170.909 26.248 200.38 26.248 200.38H21.4427C21.4427 200.38 21.2674 171.436 21.0536 162.595C20.8223 152.959 19.6516 132.04 19.6516 132.04H29.6163Z" fill="white"/>
<path d="M27.1626 198.467C27.1836 198.467 26.8892 200.462 26.8892 200.462H21.0569L20.8992 198.682L27.1626 198.467Z" fill="#263238"/>
<path d="M29.9875 110.214C30.5658 113.282 31.6384 121.853 29.963 134.321L13.6017 134.068C13.5071 131.89 15.2315 120.069 13.6367 109.574C13.5923 109.276 13.6074 108.973 13.6811 108.681C13.7548 108.389 13.8857 108.115 14.0662 107.875C14.2466 107.634 14.473 107.432 14.7321 107.281C14.9911 107.129 15.2777 107.031 15.575 106.992C16.4022 106.879 17.3625 106.774 18.3089 106.728C20.4487 106.605 22.5938 106.605 24.7335 106.728C25.4345 106.795 26.1355 106.897 26.7594 107.006C27.5581 107.149 28.2944 107.533 28.8709 108.106C29.4474 108.679 29.8368 109.414 29.9875 110.214Z" fill="#514C9F"/>
<path opacity="0.2" d="M30.4362 113.261L27.6813 113.947C27.471 116.529 29.1674 119.453 30.8638 121.687C30.881 118.872 30.7383 116.059 30.4362 113.261Z" fill="black"/>
<path d="M29.3042 108.835C29.7704 109.676 30.2751 110.594 30.7938 111.449C31.3126 112.304 31.8453 113.18 32.3816 114.024C33.415 115.683 34.5876 117.251 35.8866 118.71C36.0478 118.876 36.2055 119.044 36.3668 119.199L36.486 119.315L36.5806 119.4C36.6332 119.456 36.7243 119.519 36.7909 119.579C37.1133 119.833 37.4919 120.1 37.909 120.357C38.7326 120.867 39.6159 121.366 40.5132 121.848C42.3077 122.816 44.1654 123.766 45.9985 124.726L45.273 126.728C43.1986 126.23 41.1562 125.606 39.1568 124.86C38.1543 124.484 37.1484 124.075 36.1425 123.579C35.6074 123.324 35.0889 123.035 34.5898 122.714C34.4531 122.615 34.3234 122.538 34.1762 122.422L33.9659 122.26L33.7941 122.116C33.5593 121.926 33.3455 121.729 33.1282 121.532C32.3001 120.757 31.5272 119.924 30.8149 119.041C30.1139 118.186 29.4584 117.282 28.8381 116.406C28.2177 115.53 27.6288 114.601 27.0856 113.669C26.5423 112.736 26.0025 111.822 25.4978 110.808L29.3042 108.835Z" fill="#514C9F"/>
<path d="M17.5204 97.3196C18.2845 100.183 18.5719 101.893 20.3489 103.089C22.9987 104.884 26.3074 102.826 26.3985 99.7894C26.4896 97.0593 25.2243 92.8339 22.1645 92.257C21.4899 92.1255 20.793 92.1696 20.1401 92.3849C19.4872 92.6002 18.9001 92.9797 18.4346 93.4871C17.9691 93.9946 17.6407 94.6131 17.4807 95.284C17.3207 95.9548 17.3343 96.6556 17.5204 97.3196Z" fill="#FFC3BD"/>
<path d="M23.4475 97.3549C24.1274 96.3522 24.3868 94.8113 23.9101 94.0689C24.3553 94.2554 27.5658 94.4771 26.3075 92.1832C25.0493 89.8894 22.5257 89.2561 20.328 89.8894L21.3971 90.199C21.3971 90.199 18.3933 89.9808 16.9317 91.2016C17.3768 91.2263 17.7624 91.2016 17.7624 91.2016C17.7624 91.2016 14.5448 92.725 15.9468 93.8825C13.6861 95.6099 15.2178 98.0023 18.9401 101.57C19.5885 102.157 21.4251 101.943 21.8317 101.591C21.5723 100.036 23.0654 97.9249 23.4475 97.3549Z" fill="#263238"/>
<path d="M23.8259 95.4024C24.4919 95.8914 25.3155 97.3304 25.6976 98.0481C26.0796 98.7658 26.4827 98.6743 26.6755 98.9593C26.8683 99.2442 27.6569 104.064 26.8122 104.835C25.9675 105.605 23.4264 104.388 23.0934 103.501C22.7604 102.615 23.3703 100.44 23.535 99.9444C23.7083 99.0876 23.6576 98.2003 23.3878 97.3691C23.0934 96.5282 23.8259 95.4024 23.8259 95.4024Z" fill="#263238"/>
<path d="M22.3258 97.4886C22.4166 97.8395 22.5766 98.1685 22.7964 98.4561C23.0161 98.7438 23.2911 98.9842 23.6052 99.1633C24.3798 99.5151 24.4744 98.6109 24.3237 97.756C24.187 96.9785 23.9732 96.3487 23.3458 96.0462C22.6062 95.6627 22.07 96.6372 22.3258 97.4886Z" fill="#FFC3BD"/>
<defs>
<clipPath id="clip0_1_1411">
<rect width="51" height="45" fill="white" transform="translate(19.5)"/>
</clipPath>
</defs>
</svg>
