<svg width="73" height="73" viewBox="0 0 73 73" fill="none" xmlns="http://www.w3.org/2000/svg">
<path d="M66.0082 28.851C66.4165 30.7855 65.9078 33.1169 64.4569 35.0377C62.2144 38.0102 58.6032 38.8542 56.3927 36.9243C54.1822 34.9944 54.2073 31.0227 56.4497 28.0502C58.188 25.7462 60.743 24.7401 62.8372 25.2968C63.5307 24.0216 64.117 22.3882 63.898 20.8529C63.3254 16.8447 58.1835 15.7383 54.9122 15.9619L54.8688 15.9642C52.1861 16.1763 50.247 18.6196 50.1512 21.3091C49.9938 25.769 49.0083 33.0302 45.4427 38.3318C44.1698 40.2207 43.3302 41.4686 43.3462 45.6136V61.5937C43.3462 62.1988 43.1059 62.779 42.6781 63.2068C42.2502 63.6347 41.67 63.875 41.065 63.875C40.4599 63.875 39.8797 63.6347 39.4519 63.2068C39.0241 62.779 38.7837 62.1988 38.7837 61.5937V45.625C38.7632 40.0861 40.2346 37.9007 41.6581 35.7882C43.3576 33.2629 45.283 34.9601 45.5887 23.6223C45.6412 21.7152 44.5051 18.5717 42.874 19.2902C39.2194 20.8985 33.7923 20.8689 30.1241 19.288C28.4998 18.5876 27.3661 21.7198 27.4185 23.6223C27.7242 34.9601 29.6496 33.2629 31.3491 35.7882C32.7726 37.903 34.244 40.0884 34.2235 45.6341V61.5937C34.2235 62.1988 33.9832 62.779 33.5553 63.2068C33.1275 63.6347 32.5473 63.875 31.9422 63.875C31.3372 63.875 30.757 63.6347 30.3292 63.2068C29.9013 62.779 29.661 62.1988 29.661 61.5937V45.625C29.677 41.4708 28.8375 40.223 27.5645 38.3341C23.9967 33.0325 23.0112 25.7713 22.856 21.3114C22.7557 18.6218 20.8166 16.1763 18.1338 15.9665L18.0905 15.9642C14.8169 15.7383 9.67497 16.8447 9.10237 20.8529C8.88337 22.3882 9.46965 24.0216 10.1632 25.2968C12.2573 24.7424 14.8123 25.7462 16.5507 28.0502C18.7931 31.0227 18.8205 34.9944 16.6077 36.9243C14.3972 38.8542 10.7859 38.0079 8.54347 35.0377C7.09487 33.1169 6.58387 30.7855 6.99222 28.851C5.46834 26.6313 4.13153 23.3851 4.5855 20.2096C5.53222 13.5666 12.3897 10.9911 18.4099 11.4108C20.5451 11.5614 22.6712 12.4511 24.6673 13.4708C25.6385 12.1363 26.9671 11.1035 28.4998 10.4915C33.0852 8.70068 39.9152 8.70068 44.5005 10.4915C46.0333 11.1035 47.3619 12.1363 48.333 13.4708C50.3291 12.4488 52.4552 11.5614 54.5882 11.4108C60.6107 10.9888 67.4682 13.5643 68.4149 20.2073C68.8666 23.3851 67.5297 26.6313 66.0082 28.851Z" fill="#514C9F"/>
</svg>
