<svg width="24" height="24" viewBox="0 0 24 24" fill="none" xmlns="http://www.w3.org/2000/svg">
<rect width="24" height="24" rx="4" fill="#EFEFEF"/>
<path d="M9.08989 4C8.89716 4 8.75304 4.15086 8.75304 4.3436V6.74199C8.75304 6.93472 8.89716 7.08559 9.08989 7.08559H14.904C15.0968 7.08559 15.2476 6.93474 15.2476 6.74199V4.3436C15.2476 4.15087 15.0968 4 14.904 4H9.08989ZM9.30552 7.40888V8.74282C9.30552 9.04496 9.11142 9.26056 8.87435 9.42324C8.63727 9.58594 8.34218 9.72259 8.05918 9.88811C7.52856 10.1984 7.0403 10.589 6.98125 11.4578C6.98783 11.4552 6.99458 11.4529 7.00146 11.4511H16.9992C17.006 11.4507 17.0127 11.4507 17.0195 11.4511C16.9575 10.5872 16.464 10.1977 15.9348 9.88815C15.6518 9.72265 15.3634 9.58601 15.1264 9.42331C14.8893 9.26061 14.6885 9.04502 14.6885 8.74288V7.40895L9.30552 7.40888ZM6.97461 11.7809V18.5786C6.98338 18.5756 6.9924 18.5734 7.00156 18.5719H16.9993C17.0085 18.5734 17.0175 18.5756 17.0263 18.5786V11.7809C17.0173 11.7817 17.0083 11.7817 16.9993 11.7809H7.00156C6.99259 11.7817 6.98358 11.7817 6.97461 11.7809ZM12.9099 12.9465C12.9388 12.9467 12.9672 12.9547 12.992 12.9696C13.0168 12.9845 13.0372 13.0058 13.0509 13.0313C13.0647 13.0567 13.0714 13.0854 13.0703 13.1144C13.0692 13.1433 13.0603 13.1714 13.0446 13.1957L12.3305 14.2332L13.4893 14.2063C13.5178 14.206 13.5458 14.2133 13.5706 14.2274C13.5954 14.2415 13.616 14.2619 13.6304 14.2865C13.6447 14.3111 13.6523 14.3391 13.6524 14.3676C13.6525 14.3961 13.645 14.4241 13.6308 14.4488L11.9465 17.2381C11.9328 17.2619 11.9132 17.2818 11.8896 17.296C11.866 17.3101 11.8392 17.318 11.8118 17.3189L10.7743 17.3122C10.7457 17.3125 10.7177 17.3052 10.6929 17.2911C10.6681 17.277 10.6475 17.2566 10.6331 17.232C10.6188 17.2074 10.6112 17.1794 10.6111 17.1509C10.6111 17.1224 10.6185 17.0944 10.6328 17.0697L11.7242 15.2709L10.5182 15.3315C10.4876 15.3335 10.4571 15.3267 10.4302 15.312C10.4033 15.2973 10.3812 15.2752 10.3663 15.2484C10.3515 15.2215 10.3446 15.1911 10.3465 15.1605C10.3483 15.1299 10.3588 15.1004 10.3768 15.0755L11.832 13.0207C11.8466 13.0003 11.8658 12.9836 11.888 12.9719C11.9102 12.9602 11.9349 12.9539 11.96 12.9534L12.9099 12.9465ZM6.97461 18.8951V18.949C6.97461 19.5313 7.46968 20 8.10643 20H12.0003H15.8876C16.5243 20 17.0261 19.5313 17.0261 18.949V18.8951C17.0171 18.8959 17.0081 18.8959 16.9992 18.8951H7.00139C6.99242 18.8959 6.98358 18.8959 6.97461 18.8951Z" fill="#A0A0A0"/>
</svg>
