<svg width="202" height="30" viewBox="0 0 202 30" fill="none" xmlns="http://www.w3.org/2000/svg">
<path d="M67.2984 13.8458C67.2984 10.9632 67.3024 8.08065 67.2917 5.19675C67.2917 4.91397 67.3702 4.85261 67.6417 4.85394C69.99 4.86461 72.3384 4.8286 74.6854 4.87262C76.0878 4.89796 77.4981 4.994 78.7701 5.71164C80.042 6.43061 80.8204 7.49373 81.1464 8.93034C81.4138 10.1122 81.3433 11.2647 80.9867 12.3945C80.4492 14.0952 79.2624 15.1677 77.5779 15.7092C76.769 15.9693 75.9387 16.0574 75.0912 16.052C73.5744 16.0427 72.0563 16.0494 70.5395 16.0494C70.2504 16.0494 70.1058 16.189 70.1058 16.4682C70.1058 18.4971 70.1018 20.5259 70.1111 22.5548C70.1111 22.8109 70.0526 22.8976 69.7838 22.8909C69.064 22.8723 68.3442 22.8723 67.6244 22.8909C67.3636 22.8976 67.2917 22.8242 67.2917 22.5601C67.3011 19.6549 67.2971 16.7497 67.2971 13.8444L67.2984 13.8458ZM70.1058 10.5163C70.1058 11.4154 70.1164 12.3131 70.0991 13.2122C70.0938 13.4709 70.1763 13.523 70.4171 13.5203C71.4137 13.507 72.4116 13.523 73.4081 13.5123C74.3102 13.503 75.2149 13.5763 76.1117 13.3842C77.0936 13.1735 78.1274 12.4598 78.2977 11.35C78.3736 10.8605 78.4042 10.3763 78.3363 9.89075C78.2419 9.21846 77.9758 8.63422 77.401 8.21804C76.741 7.73917 75.984 7.55376 75.199 7.53775C73.593 7.50307 71.9858 7.52308 70.3799 7.5084C70.159 7.50707 70.0978 7.57243 70.1005 7.78852C70.1111 8.69824 70.1044 9.60796 70.1044 10.5177L70.1058 10.5163Z" fill="#514C9F"/>
<path d="M96.8391 24.4813C97.7359 24.8988 98.6579 25.1722 99.6119 25.3256C100.607 25.4857 101.612 25.5471 102.592 25.2629C103.461 25.0122 104.021 24.3092 104.081 23.3821C104.101 23.0767 104.125 22.7699 104.136 22.4631C104.141 22.3297 104.088 22.283 103.96 22.3043C102.808 22.4991 101.642 22.5484 100.485 22.4818C99.3644 22.4164 98.2508 22.1923 97.3274 21.484C96.5264 20.8704 96.0248 20.0447 95.8213 19.0456C95.7201 18.5481 95.6962 18.0505 95.6989 17.5437C95.7108 15.2814 95.7042 13.0177 95.7042 10.7554C95.7042 10.4753 95.8492 10.3353 96.1393 10.3353C96.8378 10.3353 97.5363 10.3486 98.2335 10.3286C98.5089 10.3206 98.5568 10.4166 98.5568 10.6661C98.5475 13.0511 98.5342 15.4361 98.5595 17.8211C98.5728 19.1163 99.2287 19.822 100.461 20.03C101.488 20.2035 102.527 20.1301 103.557 19.986C103.738 19.9607 103.965 20.0621 104.093 19.9007C104.229 19.7286 104.145 19.4938 104.145 19.2871C104.149 16.4805 104.152 13.674 104.142 10.8675C104.142 10.5954 104.205 10.5087 104.486 10.5153C105.239 10.5353 105.992 10.5287 106.746 10.518C106.951 10.5153 107.007 10.574 107.007 10.7794C106.999 14.9719 107.018 19.1657 106.983 23.3581C106.972 24.5933 106.624 25.7578 105.68 26.6422C104.921 27.3545 103.985 27.72 102.973 27.8921C102.052 28.0481 101.119 28.0054 100.197 27.9467C99.2992 27.8894 98.4237 27.66 97.5749 27.3465C97.3593 27.2665 97.35 27.0917 97.3141 26.9356C97.1425 26.1847 96.9868 25.431 96.8298 24.6774C96.8192 24.6267 96.8378 24.5706 96.8444 24.4853L96.8391 24.4813Z" fill="#514C9F"/>
<path d="M93.9724 18.3986C93.9724 19.7178 93.9697 21.0384 93.975 22.3576C93.975 22.555 93.9591 22.6644 93.7129 22.7111C92.9865 22.8485 92.252 22.9179 91.5256 23.0392C90.1259 23.2727 88.7195 23.2407 87.3145 23.2233C86.2541 23.21 85.211 22.9632 84.257 22.5324C83.4228 22.1562 82.8187 21.4679 82.4847 20.5675C82.2705 19.99 82.2878 19.4137 82.3251 18.8201C82.3637 18.2092 82.53 17.6516 82.8626 17.1327C83.3669 16.3471 84.1199 15.9096 84.9741 15.6601C86.2288 15.296 87.5167 15.1706 88.8246 15.304C89.5478 15.3799 90.2174 15.3908 90.9335 15.4974C91.0439 15.5134 91.1104 15.5 91.1011 15.3747C91.0439 14.5863 91.1264 13.754 90.4425 13.1537C89.9862 12.7535 89.4553 12.5548 88.8446 12.5028C88.3589 12.4614 87.8773 12.4401 87.393 12.4507C86.109 12.4788 84.8836 12.7962 83.6849 13.2351C83.4065 13.3359 83.289 13.4671 83.4068 12.995C83.5771 12.3134 83.7381 11.6304 83.8844 10.9434C83.915 10.7967 84.0122 10.7087 84.1825 10.6446C84.9555 10.3525 85.7711 10.2738 86.5694 10.1084C87.1446 9.98869 87.5498 9.96442 88.2698 9.96436C88.9898 9.96429 90.6035 10.0804 91.6786 10.5606C92.6432 10.9928 93.3005 11.7344 93.6477 12.7695C93.9271 13.6019 93.9737 14.4449 93.975 15.3026C93.9764 16.3337 93.975 17.3648 93.975 18.3973L93.9724 18.3986ZM91.1171 19.1122C91.1171 18.6907 91.1104 18.2692 91.1198 17.849C91.1237 17.6676 91.0918 17.5863 90.8763 17.5596C90.3654 17.4969 89.8531 17.4662 89.3409 17.4209C88.2765 17.3275 87.2267 17.3422 86.2128 17.7197C85.7245 17.9011 85.2016 18.4146 85.2509 19.1576C85.2881 19.7232 85.6114 20.21 86.2168 20.4582C86.7104 20.6596 87.2254 20.7529 87.7576 20.7876C88.8193 20.8583 89.8704 20.7903 90.9202 20.6422C91.0825 20.6196 91.1198 20.5555 91.1184 20.4101C91.1131 19.9779 91.1171 19.5458 91.1171 19.1136V19.1122Z" fill="#514C9F"/>
<path d="M59.6635 21.1901C60.8396 21.0625 61.9214 20.7326 62.8807 20.0389C63.1082 19.8749 63.2413 19.8815 63.3717 20.151C63.5753 20.5725 63.8054 20.982 64.0303 21.3942C64.1061 21.5343 64.1301 21.637 63.9651 21.741C62.9752 22.3653 61.9228 22.8215 60.7665 23.0349C59.9629 23.183 59.1473 23.2203 58.3423 23.1563C57.0877 23.0576 55.9208 22.6814 54.8977 21.8904C53.933 21.1448 53.2811 20.1763 52.9085 19.0559C52.5599 18.0088 52.4535 16.9069 52.5959 15.7838C52.6823 15.0995 52.8154 14.4406 53.0749 13.807C53.796 12.0475 55.032 10.8777 56.8987 10.3802C57.7117 10.1641 58.526 10.1627 59.3416 10.2014C60.6069 10.2628 61.7684 10.6603 62.7171 11.534C63.5846 12.333 64.1554 13.2974 64.472 14.4592C64.7195 15.365 64.7714 16.2627 64.7847 17.1817C64.7887 17.4232 64.6583 17.3872 64.5159 17.3872C62.8874 17.3872 61.2588 17.3872 59.6303 17.3872C58.1454 17.3872 56.6619 17.3912 55.1771 17.3832C54.9269 17.3832 54.8471 17.3952 54.9083 17.7086C55.0879 18.629 55.4911 19.4267 56.147 20.0736C56.8601 20.7777 58.1735 21.3518 59.6635 21.1901ZM58.6883 15.4557C59.8724 15.4557 61.0553 15.457 62.2394 15.453C62.3326 15.453 62.4949 15.533 62.4536 15.2983C62.3179 14.5179 62.0225 13.8163 61.4717 13.2387C60.8996 12.6398 60.2277 12.269 59.3788 12.1729C58.2772 12.0475 57.2713 12.1409 56.3519 12.8572C55.5736 13.4642 55.2143 14.2818 54.9402 15.1742C54.871 15.401 54.9216 15.465 55.1704 15.4623C56.3426 15.4477 57.5161 15.4557 58.6883 15.4557Z" fill="#282B35"/>
<path d="M36.318 23.1861C35.5343 23.1647 34.748 23.1221 33.9975 22.8886C33.1487 22.6245 32.373 22.2363 31.757 21.5414C31.3432 21.0758 31.2035 20.5249 31.0837 19.9674C30.9666 19.4178 30.9866 18.8469 31.1356 18.292C31.4336 17.1795 32.1308 16.4192 33.1793 15.9683C33.9403 15.6415 34.736 15.5001 35.5596 15.4281C36.0439 15.3854 36.5282 15.3521 37.0058 15.3868C37.5394 15.4241 38.0742 15.4521 38.6078 15.4895C39.0202 15.5188 39.422 15.5895 39.8305 15.6362C40.0221 15.6589 40.1152 15.6069 40.1152 15.3721C40.1152 14.8652 40.0886 14.361 39.9503 13.8741C39.6988 12.9911 39.0455 12.5269 38.1993 12.3201C37.3717 12.1174 36.5322 12.1814 35.6873 12.2321C34.7307 12.2894 33.9277 12.4361 32.9398 12.8403C32.6594 12.9551 32.6991 12.9445 32.3261 13.0645C32.1798 13.0458 32.1202 13.0631 32.1402 12.9551C32.2519 12.3695 32.3584 11.7826 32.4861 11.201C32.5233 11.0342 32.687 10.9755 32.8493 10.9195C33.8871 10.562 34.9475 10.3433 36.0439 10.2366C37.2028 10.1232 38.331 10.1992 39.446 10.518C40.3947 10.7888 41.1664 11.3224 41.66 12.1841C41.9301 12.6563 42.119 13.1792 42.1722 13.7314C42.449 16.6233 42.2321 19.5245 42.3039 22.4191C42.3093 22.6098 42.268 22.7392 42.0538 22.7632C41.4591 22.8299 40.863 22.8873 40.2709 22.97C39.4886 23.0794 38.7076 23.1834 37.9159 23.1647C37.872 23.1647 37.8281 23.1767 37.7855 23.1834C37.2972 23.1834 36.8076 23.1847 36.3193 23.1861H36.318ZM38.7215 21.1304C39.1307 21.0937 39.5881 20.9586 39.9024 20.9078C40.0527 20.8838 40.1113 20.8464 40.1099 20.689C40.1046 19.7259 40.1046 18.7615 40.1099 17.7985C40.1099 17.6397 40.0514 17.5877 39.901 17.5744C39.1293 17.5063 37.5859 17.3583 37.5859 17.3583L36.6546 17.3609C36.6546 17.3609 35.0659 17.4476 34.3182 17.7624C33.7634 17.9972 33.4161 18.4027 33.3416 19.007C33.2525 19.7193 33.5053 20.2715 34.1439 20.6317C34.4725 20.8171 34.8265 20.9398 35.1897 20.9985C35.6474 21.0718 36.5052 21.1425 36.5052 21.1425C36.5052 21.1425 36.8076 21.1652 36.9247 21.1425C37.0976 21.1425 37.4449 21.1425 37.4449 21.1425C37.4449 21.1425 38.3512 21.1637 38.7215 21.1304Z" fill="#282B35"/>
<path d="M16.6356 14.3636C16.6502 15.456 16.9323 16.5019 17.4392 17.4543C18.1564 18.8002 19.2128 19.8073 20.6178 20.4449C21.7714 20.9691 22.9755 21.1652 24.2275 21.0985C25.2134 21.0451 26.1567 20.789 27.0695 20.4169C27.5378 20.2261 27.9822 19.99 28.4013 19.7072C28.5131 19.6325 28.5942 19.6259 28.6634 19.7806C28.8856 20.2795 29.1158 20.777 29.3646 21.2639C29.4431 21.4173 29.3726 21.4373 29.2715 21.5053C28.5543 21.9895 27.78 22.359 26.9617 22.6245C26.0636 22.9153 25.1456 23.0967 24.1916 23.1113C23.8456 23.1167 23.4931 23.182 23.1431 23.1607C21.9417 23.0847 20.7788 22.8459 19.6625 22.367C18.5529 21.8922 17.5776 21.2332 16.7514 20.3622C15.7269 19.2817 15.0589 17.9918 14.6651 16.5592C14.3112 15.2733 14.2979 13.9514 14.4083 12.6442C14.5467 11.0022 15.1295 9.49488 16.1154 8.15431C16.8099 7.20991 17.6721 6.46293 18.6753 5.86934C19.3139 5.49051 19.9872 5.19305 20.703 4.99297C21.327 4.81823 21.963 4.72352 22.6069 4.65149C23.0793 4.59813 23.5516 4.57412 24.0213 4.6008C25.264 4.67016 26.4774 4.89026 27.6296 5.3918C28.2124 5.64524 28.7752 5.9267 29.2954 6.29352C29.3992 6.36688 29.4192 6.38156 29.3566 6.50561C29.1158 6.98448 28.8896 7.47135 28.6754 7.96223C28.6022 8.1303 28.5197 8.13831 28.3893 8.04893C27.5697 7.47536 26.6477 7.11654 25.6857 6.90044C24.7198 6.68302 23.7392 6.58831 22.7347 6.71237C21.6782 6.84175 20.711 7.17256 19.8089 7.71813C18.8336 8.30904 18.0752 9.11605 17.5164 10.1071C17.1452 10.7648 16.8937 11.4731 16.742 12.2094C16.6635 12.5922 16.6689 12.9924 16.6356 13.3832C16.5912 13.7079 16.6773 14.0316 16.6356 14.3636Z" fill="#282B35"/>
<path d="M0.00284195 17.3768C0.00683349 15.2933 0.0148166 13.2097 0.008164 11.1262C0.008164 10.8607 0.0853337 10.6766 0.274267 10.4899C2.03587 8.74114 3.78682 6.98306 5.54044 5.22765C6.40394 4.36328 7.27143 3.50158 8.12562 2.62787C8.30258 2.4478 8.48353 2.27306 8.66182 2.09565C8.80285 1.95425 8.89466 1.97693 9.00908 2.11566C9.39094 2.57852 9.70494 3.06673 9.90053 3.65098C10.0881 4.20988 10.2198 4.76745 10.2026 5.34903C10.164 6.62424 9.70228 7.72871 8.7962 8.63576C7.05855 10.3752 5.31957 12.1146 3.58325 13.8567C3.49411 13.946 3.36106 14.0114 3.35973 14.1675C3.20938 14.1781 3.1362 14.2995 3.04439 14.3915C2.1157 15.3253 1.18966 16.2617 0.259631 17.1927C0.186453 17.2661 0.138554 17.3862 0.00417246 17.3781L0.00284195 17.3768Z" fill="#514C9F"/>
<path d="M0.00202067 17.3792C0.136402 17.3872 0.184301 17.2671 0.257479 17.1937C1.18751 16.2613 2.11354 15.3263 3.04224 14.3926C3.13405 14.3005 3.20722 14.1791 3.35757 14.1685C4.50181 15.3023 5.64872 16.4334 6.79029 17.5699C7.51808 18.2929 8.25253 19.0092 8.96036 19.7522C9.62562 20.4511 9.9649 21.3088 10.1392 22.2559C10.3241 23.2577 10.07 24.1767 9.70279 25.0798C9.62162 25.2799 9.46063 25.4519 9.31561 25.62C9.23578 25.712 9.15728 25.7894 9.10006 25.9081C8.9271 26.2616 8.7701 26.2763 8.47472 25.9788C7.54736 25.0398 6.63329 24.0887 5.70327 23.1523C3.88313 21.3222 2.055 19.5001 0.236191 17.6673C0.152369 17.5832 -0.020598 17.5552 0.00202067 17.3792Z" fill="#282B35"/>
<path d="M44.4576 11.1003C45.0071 10.8496 45.6071 10.8095 46.1899 10.7268C47.7519 10.5041 49.3272 10.5148 50.8999 10.5161C51.1354 10.5161 51.2312 10.5548 51.2192 10.8189C51.1953 11.3164 51.2033 11.8166 51.2166 12.3155C51.2219 12.5169 51.17 12.5863 50.9585 12.5796C50.4608 12.5636 49.9619 12.5756 49.4643 12.5743C48.642 12.5716 47.8291 12.6743 47.0161 12.7851C46.7461 12.8224 46.6409 12.9304 46.6423 13.2279C46.6543 16.3319 46.6463 19.4359 46.6556 22.5399C46.6556 22.816 46.613 22.9254 46.3043 22.9067C45.7974 22.876 45.2865 22.9 44.7769 22.896C44.6691 22.896 44.5534 22.9294 44.4576 22.8493C44.4669 22.7626 44.4829 22.6759 44.4829 22.5892C44.4829 18.8463 44.4829 15.1034 44.4829 11.3604C44.4829 11.2737 44.4669 11.187 44.4576 11.1003Z" fill="#282B35"/>
<path d="M44.4527 11.1011C44.4607 11.1878 44.478 11.2745 44.478 11.3612C44.478 15.1041 44.478 18.847 44.478 22.59C44.478 22.6767 44.4621 22.7634 44.4527 22.8501C44.4488 22.0417 44.4408 21.2347 44.4408 20.4277C44.4394 17.4291 44.4408 14.4292 44.4408 11.4305C44.4408 11.3212 44.4488 11.2105 44.4527 11.1011Z" fill="#282B35"/>
<mask id="path-11-inside-1_2065_1115" fill="white">
<path d="M115.007 0H202.007V30H115.007V0Z"/>
</mask>
<path d="M116.007 30V0H114.007V30H116.007Z" fill="black" mask="url(#path-11-inside-1_2065_1115)"/>
<path d="M125.945 13V3.2H130.131C130.812 3.2 131.386 3.30733 131.853 3.522C132.32 3.72733 132.674 4.02133 132.917 4.404C133.169 4.77733 133.295 5.22067 133.295 5.734C133.295 6.22867 133.188 6.644 132.973 6.98C132.758 7.316 132.474 7.57267 132.119 7.75C131.774 7.92733 131.391 8.03467 130.971 8.072L131.195 7.904C131.652 7.92267 132.054 8.044 132.399 8.268C132.744 8.492 133.015 8.786 133.211 9.15C133.416 9.50467 133.519 9.89667 133.519 10.326C133.519 10.858 133.393 11.3247 133.141 11.726C132.889 12.1273 132.52 12.44 132.035 12.664C131.55 12.888 130.962 13 130.271 13H125.945ZM128.045 11.292H129.921C130.388 11.292 130.747 11.1893 130.999 10.984C131.26 10.7693 131.391 10.4613 131.391 10.06C131.391 9.65867 131.256 9.346 130.985 9.122C130.724 8.898 130.36 8.786 129.893 8.786H128.045V11.292ZM128.045 7.232H129.767C130.215 7.232 130.556 7.12933 130.789 6.924C131.032 6.71867 131.153 6.42933 131.153 6.056C131.153 5.68267 131.032 5.39333 130.789 5.188C130.556 4.97333 130.21 4.866 129.753 4.866H128.045V7.232ZM137.655 13.168C137.067 13.168 136.568 13.0467 136.157 12.804C135.756 12.5613 135.448 12.2067 135.233 11.74C135.028 11.264 134.925 10.6853 134.925 10.004V5.944H137.025V9.794C137.025 10.3167 137.132 10.718 137.347 10.998C137.562 11.2687 137.907 11.404 138.383 11.404C138.672 11.404 138.929 11.3387 139.153 11.208C139.386 11.0773 139.564 10.886 139.685 10.634C139.816 10.382 139.881 10.074 139.881 9.71V5.944H141.981V13H140.147L139.979 11.88C139.774 12.2627 139.475 12.5753 139.083 12.818C138.691 13.0513 138.215 13.168 137.655 13.168ZM146.74 13.168C146.077 13.168 145.503 13.0653 145.018 12.86C144.542 12.6453 144.164 12.356 143.884 11.992C143.613 11.628 143.459 11.2173 143.422 10.76H145.508C145.545 10.9187 145.61 11.0633 145.704 11.194C145.806 11.3153 145.942 11.4133 146.11 11.488C146.287 11.5533 146.483 11.586 146.698 11.586C146.931 11.586 147.118 11.558 147.258 11.502C147.407 11.4367 147.519 11.3527 147.594 11.25C147.668 11.1473 147.706 11.04 147.706 10.928C147.706 10.7507 147.65 10.6153 147.538 10.522C147.435 10.4287 147.281 10.354 147.076 10.298C146.87 10.2327 146.623 10.172 146.334 10.116C145.998 10.0413 145.662 9.95733 145.326 9.864C144.999 9.76133 144.705 9.63533 144.444 9.486C144.192 9.33667 143.986 9.14533 143.828 8.912C143.678 8.66933 143.604 8.37533 143.604 8.03C143.604 7.61 143.72 7.232 143.954 6.896C144.187 6.55067 144.523 6.28 144.962 6.084C145.4 5.87867 145.932 5.776 146.558 5.776C147.444 5.776 148.14 5.972 148.644 6.364C149.148 6.756 149.446 7.28333 149.54 7.946H147.58C147.524 7.75933 147.407 7.61933 147.23 7.526C147.052 7.42333 146.828 7.372 146.558 7.372C146.25 7.372 146.016 7.42333 145.858 7.526C145.699 7.62867 145.62 7.764 145.62 7.932C145.62 8.044 145.671 8.14667 145.774 8.24C145.886 8.324 146.044 8.39867 146.25 8.464C146.455 8.52933 146.707 8.59467 147.006 8.66C147.575 8.78133 148.065 8.912 148.476 9.052C148.896 9.192 149.222 9.39733 149.456 9.668C149.689 9.92933 149.801 10.312 149.792 10.816C149.801 11.2733 149.68 11.6793 149.428 12.034C149.185 12.3887 148.835 12.6687 148.378 12.874C147.92 13.07 147.374 13.168 146.74 13.168ZM151.388 13V5.944H153.488V13H151.388ZM152.438 5.132C152.065 5.132 151.762 5.02467 151.528 4.81C151.295 4.59533 151.178 4.32467 151.178 3.998C151.178 3.662 151.295 3.38667 151.528 3.172C151.762 2.95733 152.065 2.85 152.438 2.85C152.821 2.85 153.129 2.95733 153.362 3.172C153.605 3.38667 153.726 3.662 153.726 3.998C153.726 4.32467 153.605 4.59533 153.362 4.81C153.129 5.02467 152.821 5.132 152.438 5.132ZM155.339 13V5.944H157.173L157.341 7.078C157.555 6.686 157.859 6.37333 158.251 6.14C158.643 5.89733 159.119 5.776 159.679 5.776C160.267 5.776 160.761 5.902 161.163 6.154C161.564 6.406 161.867 6.77 162.073 7.246C162.287 7.71267 162.395 8.28667 162.395 8.968V13H160.309V9.164C160.309 8.65067 160.197 8.254 159.973 7.974C159.758 7.68467 159.413 7.54 158.937 7.54C158.657 7.54 158.4 7.61 158.167 7.75C157.943 7.88067 157.765 8.072 157.635 8.324C157.504 8.576 157.439 8.87933 157.439 9.234V13H155.339ZM167.615 13.168C166.887 13.168 166.248 13.0187 165.697 12.72C165.147 12.412 164.713 11.9873 164.395 11.446C164.087 10.8953 163.933 10.2653 163.933 9.556C163.933 8.828 164.087 8.17933 164.395 7.61C164.703 7.04067 165.133 6.59267 165.683 6.266C166.234 5.93933 166.873 5.776 167.601 5.776C168.311 5.776 168.931 5.93 169.463 6.238C169.995 6.546 170.411 6.966 170.709 7.498C171.017 8.02067 171.171 8.62733 171.171 9.318C171.171 9.41133 171.167 9.51867 171.157 9.64C171.157 9.752 171.148 9.86867 171.129 9.99H165.431V8.772H169.029C169.011 8.38 168.866 8.06733 168.595 7.834C168.334 7.59133 168.007 7.47 167.615 7.47C167.317 7.47 167.046 7.54 166.803 7.68C166.561 7.82 166.365 8.03 166.215 8.31C166.075 8.59 166.005 8.94467 166.005 9.374V9.794C166.005 10.1207 166.066 10.41 166.187 10.662C166.318 10.914 166.5 11.11 166.733 11.25C166.976 11.39 167.261 11.46 167.587 11.46C167.895 11.46 168.147 11.3993 168.343 11.278C168.549 11.1473 168.707 10.984 168.819 10.788H170.961C170.831 11.236 170.607 11.642 170.289 12.006C169.972 12.3607 169.585 12.6453 169.127 12.86C168.67 13.0653 168.166 13.168 167.615 13.168ZM175.656 13.168C174.993 13.168 174.419 13.0653 173.934 12.86C173.458 12.6453 173.08 12.356 172.8 11.992C172.529 11.628 172.375 11.2173 172.338 10.76H174.424C174.461 10.9187 174.526 11.0633 174.62 11.194C174.722 11.3153 174.858 11.4133 175.026 11.488C175.203 11.5533 175.399 11.586 175.614 11.586C175.847 11.586 176.034 11.558 176.174 11.502C176.323 11.4367 176.435 11.3527 176.51 11.25C176.584 11.1473 176.622 11.04 176.622 10.928C176.622 10.7507 176.566 10.6153 176.454 10.522C176.351 10.4287 176.197 10.354 175.992 10.298C175.786 10.2327 175.539 10.172 175.25 10.116C174.914 10.0413 174.578 9.95733 174.242 9.864C173.915 9.76133 173.621 9.63533 173.36 9.486C173.108 9.33667 172.902 9.14533 172.744 8.912C172.594 8.66933 172.52 8.37533 172.52 8.03C172.52 7.61 172.636 7.232 172.87 6.896C173.103 6.55067 173.439 6.28 173.878 6.084C174.316 5.87867 174.848 5.776 175.474 5.776C176.36 5.776 177.056 5.972 177.56 6.364C178.064 6.756 178.362 7.28333 178.456 7.946H176.496C176.44 7.75933 176.323 7.61933 176.146 7.526C175.968 7.42333 175.744 7.372 175.474 7.372C175.166 7.372 174.932 7.42333 174.774 7.526C174.615 7.62867 174.536 7.764 174.536 7.932C174.536 8.044 174.587 8.14667 174.69 8.24C174.802 8.324 174.96 8.39867 175.166 8.464C175.371 8.52933 175.623 8.59467 175.922 8.66C176.491 8.78133 176.981 8.912 177.392 9.052C177.812 9.192 178.138 9.39733 178.372 9.668C178.605 9.92933 178.717 10.312 178.708 10.816C178.717 11.2733 178.596 11.6793 178.344 12.034C178.101 12.3887 177.751 12.6687 177.294 12.874C176.836 13.07 176.29 13.168 175.656 13.168ZM183.216 13.168C182.554 13.168 181.98 13.0653 181.494 12.86C181.018 12.6453 180.64 12.356 180.36 11.992C180.09 11.628 179.936 11.2173 179.898 10.76H181.984C182.022 10.9187 182.087 11.0633 182.18 11.194C182.283 11.3153 182.418 11.4133 182.586 11.488C182.764 11.5533 182.96 11.586 183.174 11.586C183.408 11.586 183.594 11.558 183.734 11.502C183.884 11.4367 183.996 11.3527 184.07 11.25C184.145 11.1473 184.182 11.04 184.182 10.928C184.182 10.7507 184.126 10.6153 184.014 10.522C183.912 10.4287 183.758 10.354 183.552 10.298C183.347 10.2327 183.1 10.172 182.81 10.116C182.474 10.0413 182.138 9.95733 181.802 9.864C181.476 9.76133 181.182 9.63533 180.92 9.486C180.668 9.33667 180.463 9.14533 180.304 8.912C180.155 8.66933 180.08 8.37533 180.08 8.03C180.08 7.61 180.197 7.232 180.43 6.896C180.664 6.55067 181 6.28 181.438 6.084C181.877 5.87867 182.409 5.776 183.034 5.776C183.921 5.776 184.616 5.972 185.12 6.364C185.624 6.756 185.923 7.28333 186.016 7.946H184.056C184 7.75933 183.884 7.61933 183.706 7.526C183.529 7.42333 183.305 7.372 183.034 7.372C182.726 7.372 182.493 7.42333 182.334 7.526C182.176 7.62867 182.096 7.764 182.096 7.932C182.096 8.044 182.148 8.14667 182.25 8.24C182.362 8.324 182.521 8.39867 182.726 8.464C182.932 8.52933 183.184 8.59467 183.482 8.66C184.052 8.78133 184.542 8.912 184.952 9.052C185.372 9.192 185.699 9.39733 185.932 9.668C186.166 9.92933 186.278 10.312 186.268 10.816C186.278 11.2733 186.156 11.6793 185.904 12.034C185.662 12.3887 185.312 12.6687 184.854 12.874C184.397 13.07 183.851 13.168 183.216 13.168ZM125.945 27V17.2H129.347C130.486 17.2 131.424 17.4053 132.161 17.816C132.908 18.2173 133.458 18.7867 133.813 19.524C134.177 20.252 134.359 21.1107 134.359 22.1C134.359 23.08 134.177 23.9387 133.813 24.676C133.458 25.404 132.908 25.9733 132.161 26.384C131.424 26.7947 130.486 27 129.347 27H125.945ZM128.045 25.194H129.221C129.977 25.194 130.574 25.0727 131.013 24.83C131.452 24.578 131.76 24.2233 131.937 23.766C132.124 23.2993 132.217 22.744 132.217 22.1C132.217 21.4467 132.124 20.8913 131.937 20.434C131.76 19.9673 131.452 19.6127 131.013 19.37C130.574 19.118 129.977 18.992 129.221 18.992H128.045V25.194ZM138.305 27.168C137.717 27.168 137.227 27.0747 136.835 26.888C136.453 26.7013 136.168 26.4493 135.981 26.132C135.804 25.8053 135.715 25.446 135.715 25.054C135.715 24.634 135.818 24.2653 136.023 23.948C136.238 23.6213 136.569 23.3647 137.017 23.178C137.465 22.982 138.03 22.884 138.711 22.884H140.419C140.419 22.5667 140.377 22.3053 140.293 22.1C140.219 21.8947 140.093 21.7407 139.915 21.638C139.738 21.5353 139.495 21.484 139.187 21.484C138.861 21.484 138.585 21.5493 138.361 21.68C138.137 21.8107 137.997 22.016 137.941 22.296H135.925C135.972 21.792 136.135 21.3533 136.415 20.98C136.705 20.6067 137.087 20.3127 137.563 20.098C138.039 19.8833 138.585 19.776 139.201 19.776C139.873 19.776 140.457 19.888 140.951 20.112C141.446 20.3267 141.829 20.644 142.099 21.064C142.379 21.484 142.519 22.0067 142.519 22.632V27H140.769L140.517 25.978C140.415 26.1553 140.293 26.3187 140.153 26.468C140.013 26.608 139.85 26.734 139.663 26.846C139.477 26.9487 139.271 27.028 139.047 27.084C138.823 27.14 138.576 27.168 138.305 27.168ZM138.823 25.572C139.047 25.572 139.243 25.5347 139.411 25.46C139.579 25.3853 139.724 25.2827 139.845 25.152C139.967 25.0213 140.065 24.872 140.139 24.704C140.223 24.5267 140.284 24.3353 140.321 24.13V24.116H138.963C138.73 24.116 138.534 24.1487 138.375 24.214C138.226 24.27 138.114 24.354 138.039 24.466C137.965 24.578 137.927 24.7087 137.927 24.858C137.927 25.0167 137.965 25.152 138.039 25.264C138.123 25.3667 138.231 25.446 138.361 25.502C138.501 25.5487 138.655 25.572 138.823 25.572ZM147.204 27.168C146.542 27.168 145.968 27.0653 145.482 26.86C145.006 26.6453 144.628 26.356 144.348 25.992C144.078 25.628 143.924 25.2173 143.886 24.76H145.972C146.01 24.9187 146.075 25.0633 146.168 25.194C146.271 25.3153 146.406 25.4133 146.574 25.488C146.752 25.5533 146.948 25.586 147.162 25.586C147.396 25.586 147.582 25.558 147.722 25.502C147.872 25.4367 147.984 25.3527 148.058 25.25C148.133 25.1473 148.17 25.04 148.17 24.928C148.17 24.7507 148.114 24.6153 148.002 24.522C147.9 24.4287 147.746 24.354 147.54 24.298C147.335 24.2327 147.088 24.172 146.798 24.116C146.462 24.0413 146.126 23.9573 145.79 23.864C145.464 23.7613 145.17 23.6353 144.908 23.486C144.656 23.3367 144.451 23.1453 144.292 22.912C144.143 22.6693 144.068 22.3753 144.068 22.03C144.068 21.61 144.185 21.232 144.418 20.896C144.652 20.5507 144.988 20.28 145.426 20.084C145.865 19.8787 146.397 19.776 147.022 19.776C147.909 19.776 148.604 19.972 149.108 20.364C149.612 20.756 149.911 21.2833 150.004 21.946H148.044C147.988 21.7593 147.872 21.6193 147.694 21.526C147.517 21.4233 147.293 21.372 147.022 21.372C146.714 21.372 146.481 21.4233 146.322 21.526C146.164 21.6287 146.084 21.764 146.084 21.932C146.084 22.044 146.136 22.1467 146.238 22.24C146.35 22.324 146.509 22.3987 146.714 22.464C146.92 22.5293 147.172 22.5947 147.47 22.66C148.04 22.7813 148.53 22.912 148.94 23.052C149.36 23.192 149.687 23.3973 149.92 23.668C150.154 23.9293 150.266 24.312 150.256 24.816C150.266 25.2733 150.144 25.6793 149.892 26.034C149.65 26.3887 149.3 26.6687 148.842 26.874C148.385 27.07 147.839 27.168 147.204 27.168ZM151.825 27V16.92H153.925V20.952C154.149 20.5973 154.452 20.3127 154.835 20.098C155.218 19.8833 155.666 19.776 156.179 19.776C156.776 19.776 157.276 19.902 157.677 20.154C158.078 20.406 158.382 20.7747 158.587 21.26C158.792 21.736 158.895 22.3147 158.895 22.996V27H156.809V23.192C156.809 22.6693 156.697 22.2633 156.473 21.974C156.258 21.6847 155.913 21.54 155.437 21.54C155.157 21.54 154.9 21.61 154.667 21.75C154.434 21.89 154.252 22.0907 154.121 22.352C153.99 22.604 153.925 22.9073 153.925 23.262V27H151.825ZM164.941 27.168C164.596 27.168 164.283 27.126 164.003 27.042C163.733 26.958 163.49 26.8413 163.275 26.692C163.07 26.5333 162.893 26.356 162.743 26.16L162.505 27H160.643V16.92H162.743V20.868C162.967 20.5507 163.257 20.2893 163.611 20.084C163.966 19.8787 164.405 19.776 164.927 19.776C165.571 19.776 166.145 19.9393 166.649 20.266C167.163 20.5833 167.569 21.022 167.867 21.582C168.166 22.1327 168.315 22.7673 168.315 23.486C168.315 24.186 168.166 24.816 167.867 25.376C167.569 25.936 167.167 26.3747 166.663 26.692C166.159 27.0093 165.585 27.168 164.941 27.168ZM164.423 25.334C164.759 25.334 165.058 25.2547 165.319 25.096C165.59 24.9373 165.8 24.7227 165.949 24.452C166.099 24.172 166.173 23.85 166.173 23.486C166.173 23.122 166.099 22.8 165.949 22.52C165.8 22.2307 165.59 22.0067 165.319 21.848C165.058 21.6893 164.759 21.61 164.423 21.61C164.078 21.61 163.77 21.694 163.499 21.862C163.238 22.0207 163.033 22.24 162.883 22.52C162.734 22.7907 162.659 23.1127 162.659 23.486C162.659 23.8407 162.734 24.158 162.883 24.438C163.033 24.718 163.238 24.9373 163.499 25.096C163.77 25.2547 164.078 25.334 164.423 25.334ZM173.315 27.168C172.633 27.168 172.022 27.0093 171.481 26.692C170.939 26.3747 170.51 25.9407 170.193 25.39C169.875 24.83 169.717 24.1953 169.717 23.486C169.717 22.758 169.875 22.1187 170.193 21.568C170.51 21.008 170.939 20.5693 171.481 20.252C172.031 19.9347 172.643 19.776 173.315 19.776C174.005 19.776 174.621 19.9347 175.163 20.252C175.704 20.5693 176.133 21.008 176.451 21.568C176.768 22.1187 176.927 22.7533 176.927 23.472C176.927 24.1907 176.768 24.83 176.451 25.39C176.133 25.9407 175.704 26.3747 175.163 26.692C174.621 27.0093 174.005 27.168 173.315 27.168ZM173.315 25.348C173.595 25.348 173.842 25.278 174.057 25.138C174.281 24.998 174.458 24.788 174.589 24.508C174.719 24.228 174.785 23.8827 174.785 23.472C174.785 23.0613 174.719 22.716 174.589 22.436C174.458 22.156 174.285 21.946 174.071 21.806C173.856 21.666 173.609 21.596 173.329 21.596C173.049 21.596 172.797 21.666 172.573 21.806C172.358 21.946 172.185 22.156 172.055 22.436C171.924 22.716 171.859 23.0613 171.859 23.472C171.859 23.8827 171.924 24.228 172.055 24.508C172.185 24.788 172.358 24.998 172.573 25.138C172.797 25.278 173.044 25.348 173.315 25.348ZM180.948 27.168C180.36 27.168 179.87 27.0747 179.478 26.888C179.095 26.7013 178.811 26.4493 178.624 26.132C178.447 25.8053 178.358 25.446 178.358 25.054C178.358 24.634 178.461 24.2653 178.666 23.948C178.881 23.6213 179.212 23.3647 179.66 23.178C180.108 22.982 180.673 22.884 181.354 22.884H183.062C183.062 22.5667 183.02 22.3053 182.936 22.1C182.861 21.8947 182.735 21.7407 182.558 21.638C182.381 21.5353 182.138 21.484 181.83 21.484C181.503 21.484 181.228 21.5493 181.004 21.68C180.78 21.8107 180.64 22.016 180.584 22.296H178.568C178.615 21.792 178.778 21.3533 179.058 20.98C179.347 20.6067 179.73 20.3127 180.206 20.098C180.682 19.8833 181.228 19.776 181.844 19.776C182.516 19.776 183.099 19.888 183.594 20.112C184.089 20.3267 184.471 20.644 184.742 21.064C185.022 21.484 185.162 22.0067 185.162 22.632V27H183.412L183.16 25.978C183.057 26.1553 182.936 26.3187 182.796 26.468C182.656 26.608 182.493 26.734 182.306 26.846C182.119 26.9487 181.914 27.028 181.69 27.084C181.466 27.14 181.219 27.168 180.948 27.168ZM181.466 25.572C181.69 25.572 181.886 25.5347 182.054 25.46C182.222 25.3853 182.367 25.2827 182.488 25.152C182.609 25.0213 182.707 24.872 182.782 24.704C182.866 24.5267 182.927 24.3353 182.964 24.13V24.116H181.606C181.373 24.116 181.177 24.1487 181.018 24.214C180.869 24.27 180.757 24.354 180.682 24.466C180.607 24.578 180.57 24.7087 180.57 24.858C180.57 25.0167 180.607 25.152 180.682 25.264C180.766 25.3667 180.873 25.446 181.004 25.502C181.144 25.5487 181.298 25.572 181.466 25.572ZM186.907 27V19.944H188.769L188.965 21.232C189.152 20.9333 189.371 20.6767 189.623 20.462C189.875 20.2473 190.164 20.0793 190.491 19.958C190.827 19.8367 191.186 19.776 191.569 19.776V22.002H190.869C190.589 22.002 190.332 22.0347 190.099 22.1C189.875 22.156 189.679 22.254 189.511 22.394C189.352 22.534 189.226 22.7253 189.133 22.968C189.049 23.2013 189.007 23.4953 189.007 23.85V27H186.907ZM195.867 27.168C195.242 27.168 194.673 27.0093 194.159 26.692C193.655 26.3747 193.254 25.9407 192.955 25.39C192.666 24.83 192.521 24.1953 192.521 23.486C192.521 22.7673 192.671 22.1327 192.969 21.582C193.268 21.022 193.674 20.5833 194.187 20.266C194.71 19.9393 195.289 19.776 195.923 19.776C196.409 19.776 196.833 19.8647 197.197 20.042C197.561 20.21 197.86 20.4573 198.093 20.784V16.92H200.193V27H198.331L198.093 26.09C197.953 26.286 197.781 26.468 197.575 26.636C197.379 26.7947 197.141 26.9207 196.861 27.014C196.581 27.1167 196.25 27.168 195.867 27.168ZM196.413 25.334C196.759 25.334 197.062 25.2547 197.323 25.096C197.594 24.9373 197.799 24.718 197.939 24.438C198.089 24.158 198.163 23.836 198.163 23.472C198.163 23.108 198.089 22.786 197.939 22.506C197.799 22.226 197.594 22.0067 197.323 21.848C197.062 21.6893 196.759 21.61 196.413 21.61C196.077 21.61 195.774 21.6893 195.503 21.848C195.242 22.0067 195.037 22.226 194.887 22.506C194.738 22.786 194.663 23.1033 194.663 23.458C194.663 23.822 194.738 24.1487 194.887 24.438C195.037 24.718 195.242 24.9373 195.503 25.096C195.774 25.2547 196.077 25.334 196.413 25.334Z" fill="#514C9F" fill-opacity="0.4"/>
</svg>
