<svg width="24" height="24" viewBox="0 0 24 24" fill="none" xmlns="http://www.w3.org/2000/svg">
<rect width="24" height="24" rx="4" fill="#ECEBFF"/>
<path fill-rule="evenodd" clip-rule="evenodd" d="M8.88889 8.11111C8.88889 7.28599 9.21667 6.49467 9.80011 5.91122C10.3836 5.32778 11.1749 5 12 5C12.8251 5 13.6164 5.32778 14.1999 5.91122C14.7833 6.49467 15.1111 7.28599 15.1111 8.11111C15.1111 8.93623 14.7833 9.72755 14.1999 10.311C13.6164 10.8944 12.8251 11.2222 12 11.2222C11.1749 11.2222 10.3836 10.8944 9.80011 10.311C9.21667 9.72755 8.88889 8.93623 8.88889 8.11111ZM8.88889 12.7778C7.85749 12.7778 6.86834 13.1875 6.13903 13.9168C5.40972 14.6461 5 15.6353 5 16.6667C5 17.2855 5.24583 17.879 5.68342 18.3166C6.121 18.7542 6.71449 19 7.33333 19H16.6667C17.2855 19 17.879 18.7542 18.3166 18.3166C18.7542 17.879 19 17.2855 19 16.6667C19 15.6353 18.5903 14.6461 17.861 13.9168C17.1317 13.1875 16.1425 12.7778 15.1111 12.7778H8.88889Z" fill="#514C9F"/>
</svg>
