<svg width="328" height="227" viewBox="0 0 328 227" fill="none" xmlns="http://www.w3.org/2000/svg">
<rect x="70.0999" y="140.3" width="12.6" height="54" fill="#ECEBFF" stroke="#514C9F" stroke-width="0.6"/>
<path d="M88.0001 164L49.5001 120.5H154L99.5001 164H88.0001Z" fill="#B9B7E4"/>
<path d="M17.9002 172.1H30.5002V194.3H17.9002V172.1Z" fill="#ECEBFF" stroke="#514C9F" stroke-width="0.6"/>
<rect x="35.3001" y="143.9" width="12.6" height="50.4" fill="#ECEBFF" stroke="#514C9F" stroke-width="0.6"/>
<rect x="52.7" y="155.9" width="12.6" height="38.4" fill="#ECEBFF" stroke="#514C9F" stroke-width="0.6"/>
<rect x="87.4998" y="164.3" width="12.6" height="30" fill="#ECEBFF" stroke="#514C9F" stroke-width="0.6"/>
<path d="M87.5003 164.3H99.9003V166.7H87.5003V164.3Z" fill="#514C9F" stroke="#514C9F" stroke-width="0.6"/>
<path d="M14.4244 124.576C14.1901 124.341 13.8102 124.341 13.5759 124.576L9.75748 128.394C9.52317 128.628 9.52317 129.008 9.75748 129.243C9.9918 129.477 10.3717 129.477 10.606 129.243L14.0001 125.849L17.3942 129.243C17.6285 129.477 18.0084 129.477 18.2428 129.243C18.4771 129.008 18.4771 128.628 18.2428 128.394L14.4244 124.576ZM14.6001 194.9V125H13.4001V194.9H14.6001Z" fill="#514C9F"/>
<path d="M109.324 194.424C109.559 194.19 109.559 193.81 109.324 193.576L105.506 189.757C105.272 189.523 104.892 189.523 104.657 189.757C104.423 189.992 104.423 190.372 104.657 190.606L108.051 194L104.657 197.394C104.423 197.628 104.423 198.008 104.657 198.243C104.892 198.477 105.272 198.477 105.506 198.243L109.324 194.424ZM14 194.6H108.9V193.4H14V194.6Z" fill="#514C9F"/>
<rect x="112.35" y="197.3" width="41.88" height="28.92" rx="0.9" fill="#ECEBFF" stroke="#514C9F" stroke-width="0.6"/>
<path d="M119.85 203.6C120.846 203.6 121.644 202.796 121.644 201.8C121.644 200.804 120.846 200 119.85 200C118.854 200 118.05 200.804 118.05 201.8C118.05 202.796 118.854 203.6 119.85 203.6ZM119.85 204.8C118.452 204.8 115.65 205.502 115.65 206.9V208.4H124.05V206.9C124.05 205.502 121.248 204.8 119.85 204.8Z" fill="#514C9F"/>
<mask id="path-12-inside-1_1945_1504" fill="white">
<path d="M49.0499 50.4C49.0499 49.0745 50.1244 48 51.4499 48H152.85C154.175 48 155.25 49.0745 155.25 50.4V119.4C155.25 120.725 154.175 121.8 152.85 121.8H51.4499C50.1244 121.8 49.0499 120.725 49.0499 119.4V50.4Z"/>
</mask>
<path d="M49.0499 50.4C49.0499 49.0745 50.1244 48 51.4499 48H152.85C154.175 48 155.25 49.0745 155.25 50.4V119.4C155.25 120.725 154.175 121.8 152.85 121.8H51.4499C50.1244 121.8 49.0499 120.725 49.0499 119.4V50.4Z" fill="#ECEBFF"/>
<path d="M48.4499 50.4C48.4499 48.7431 49.7931 47.4 51.4499 47.4H152.85C154.507 47.4 155.85 48.7431 155.85 50.4H154.65C154.65 49.4059 153.844 48.6 152.85 48.6H51.4499C50.4558 48.6 49.6499 49.4059 49.6499 50.4H48.4499ZM155.85 121.8C155.85 123.457 154.507 124.8 152.85 124.8H51.4499C49.7931 124.8 48.4499 123.457 48.4499 121.8L49.6499 118.8C49.6499 118.8 50.4558 118.8 51.4499 118.8H152.85C153.844 118.8 154.65 118.8 154.65 118.8L155.85 121.8ZM51.4499 124.8C49.7931 124.8 48.4499 123.457 48.4499 121.8V50.4C48.4499 48.7431 49.7931 47.4 51.4499 47.4V48.6C50.4558 48.6 49.6499 49.4059 49.6499 50.4V118.8C49.6499 118.8 50.4558 118.8 51.4499 118.8V124.8ZM152.85 47.4C154.507 47.4 155.85 48.7431 155.85 50.4V121.8C155.85 123.457 154.507 124.8 152.85 124.8V118.8C153.844 118.8 154.65 118.8 154.65 118.8V50.4C154.65 49.4059 153.844 48.6 152.85 48.6V47.4Z" fill="#5143C9" mask="url(#path-12-inside-1_1945_1504)"/>
<rect width="98.4" height="2.4" transform="matrix(1 0 0 -1 52.65 87.6001)" fill="#514C9F"/>
<rect width="28.8" height="2.4" transform="matrix(1 0 0 -1 122.25 87.6001)" fill="#D9D9D9"/>
<path fill-rule="evenodd" clip-rule="evenodd" d="M59.4503 94.5C59.4503 93.3065 59.9244 92.1619 60.7683 91.318C61.6123 90.4741 62.7568 90 63.9503 90C65.1438 90 66.2884 90.4741 67.1323 91.318C67.9762 92.1619 68.4503 93.3065 68.4503 94.5C68.4503 95.6935 67.9762 96.8381 67.1323 97.682C66.2884 98.5259 65.1438 99 63.9503 99C62.7568 99 61.6123 98.5259 60.7683 97.682C59.9244 96.8381 59.4503 95.6935 59.4503 94.5ZM63.6935 96.426L66.2843 93.1872L65.8163 92.8128L63.6071 95.5734L62.0423 94.2696L61.6583 94.7304L63.6935 96.426Z" fill="#514C9F"/>
<path fill-rule="evenodd" clip-rule="evenodd" d="M77.4503 94.5C77.4503 93.3065 77.9244 92.1619 78.7683 91.318C79.6123 90.4741 80.7568 90 81.9503 90C83.1438 90 84.2884 90.4741 85.1323 91.318C85.9762 92.1619 86.4503 93.3065 86.4503 94.5C86.4503 95.6935 85.9762 96.8381 85.1323 97.682C84.2884 98.5259 83.1438 99 81.9503 99C80.7568 99 79.6123 98.5259 78.7683 97.682C77.9244 96.8381 77.4503 95.6935 77.4503 94.5ZM81.6935 96.426L84.2843 93.1872L83.8163 92.8128L81.6071 95.5734L80.0423 94.2696L79.6583 94.7304L81.6935 96.426Z" fill="#514C9F"/>
<path fill-rule="evenodd" clip-rule="evenodd" d="M95.4503 94.5C95.4503 93.3065 95.9244 92.1619 96.7683 91.318C97.6123 90.4741 98.7568 90 99.9503 90C101.144 90 102.288 90.4741 103.132 91.318C103.976 92.1619 104.45 93.3065 104.45 94.5C104.45 95.6935 103.976 96.8381 103.132 97.682C102.288 98.5259 101.144 99 99.9503 99C98.7568 99 97.6123 98.5259 96.7683 97.682C95.9244 96.8381 95.4503 95.6935 95.4503 94.5ZM99.6935 96.426L102.284 93.1872L101.816 92.8128L99.6071 95.5734L98.0423 94.2696L97.6583 94.7304L99.6935 96.426Z" fill="#514C9F"/>
<path fill-rule="evenodd" clip-rule="evenodd" d="M115.45 97C115.45 95.4087 116.082 93.8826 117.208 92.7574C118.333 91.6321 119.859 91 121.45 91C123.042 91 124.568 91.6321 125.693 92.7574C126.818 93.8826 127.45 95.4087 127.45 97C127.45 98.5913 126.818 100.117 125.693 101.243C124.568 102.368 123.042 103 121.45 103C119.859 103 118.333 102.368 117.208 101.243C116.082 100.117 115.45 98.5913 115.45 97Z" fill="#514C9F"/>
<path d="M120.011 94.7602H119.451V94.2002H123.931V94.7602H123.371V95.3202C123.371 95.7724 123.142 96.1364 122.854 96.4338C122.658 96.637 122.418 96.8244 122.175 97.0002C122.418 97.176 122.658 97.3634 122.854 97.5666C123.142 97.864 123.371 98.228 123.371 98.6802V99.2402H123.931V99.8002H119.451V99.2402H120.011V98.6802C120.011 98.228 120.239 97.864 120.527 97.5666C120.724 97.3634 120.963 97.176 121.206 97.0002C120.963 96.8244 120.724 96.637 120.527 96.4338C120.239 96.1364 120.011 95.7724 120.011 95.3202V94.7602ZM120.571 94.7602V95.3202C120.571 95.512 120.643 95.694 120.787 95.8802H122.595C122.738 95.694 122.811 95.512 122.811 95.3202V94.7602H120.571ZM121.691 97.3424C121.398 97.549 121.133 97.7458 120.929 97.9561C120.879 98.0081 120.831 98.0628 120.787 98.1202H122.595C122.55 98.0628 122.503 98.0081 122.452 97.9561C122.248 97.7458 121.983 97.549 121.691 97.3424Z" fill="white"/>
<rect x="49.6501" y="50.4004" width="28.8" height="28.8" rx="4.8" fill="#ECEBFF"/>
<path d="M64.0503 63.6004C66.0423 63.6004 67.6383 61.9924 67.6383 60.0004C67.6383 58.0084 66.0423 56.4004 64.0503 56.4004C62.0583 56.4004 60.4503 58.0084 60.4503 60.0004C60.4503 61.9924 62.0583 63.6004 64.0503 63.6004ZM64.0503 66.0004C61.2543 66.0004 55.6503 67.4044 55.6503 70.2004V73.2004H72.4503V70.2004C72.4503 67.4044 66.8463 66.0004 64.0503 66.0004Z" fill="#514C9F"/>
<path d="M111.606 70.3003L108.393 64.6903V63.9423H108.767C109.368 63.9423 109.872 63.8856 110.28 63.7723C110.7 63.659 111.028 63.472 111.266 63.2113C111.504 62.9506 111.646 62.5936 111.691 62.1403H108.393V61.0523H111.674C111.595 60.633 111.436 60.293 111.198 60.0323C110.96 59.7603 110.637 59.562 110.229 59.4373C109.833 59.3126 109.345 59.2503 108.767 59.2503H108.393V58.1623H115.431V59.2503H112.218C112.479 59.4656 112.694 59.7206 112.864 60.0153C113.034 60.31 113.142 60.6556 113.187 61.0523H115.431V62.1403H113.221C113.142 62.9676 112.825 63.6136 112.269 64.0783C111.725 64.5316 111 64.8206 110.093 64.9453L113.34 70.3003H111.606ZM121.998 68.5833L122.44 65.1323L119.618 67.1213L118.836 65.6933L121.964 64.3503L118.836 63.0073L119.618 61.5793L122.44 63.5683L121.998 60.1173H123.817L123.375 63.5683L126.197 61.5793L126.979 63.0073L123.834 64.3503L126.979 65.6933L126.197 67.1213L123.375 65.1323L123.817 68.5833H121.998ZM133.211 68.5833L133.653 65.1323L130.831 67.1213L130.049 65.6933L133.177 64.3503L130.049 63.0073L130.831 61.5793L133.653 63.5683L133.211 60.1173H135.03L134.588 63.5683L137.41 61.5793L138.192 63.0073L135.047 64.3503L138.192 65.6933L137.41 67.1213L134.588 65.1323L135.03 68.5833H133.211ZM144.424 68.5833L144.866 65.1323L142.044 67.1213L141.262 65.6933L144.39 64.3503L141.262 63.0073L142.044 61.5793L144.866 63.5683L144.424 60.1173H146.243L145.801 63.5683L148.623 61.5793L149.405 63.0073L146.26 64.3503L149.405 65.6933L148.623 67.1213L145.801 65.1323L146.243 68.5833H144.424Z" fill="#514C9F"/>
<rect x="81.0499" y="84" width="1.8" height="4.8" fill="#514C9F"/>
<rect x="63.0499" y="84" width="1.8" height="4.8" fill="#514C9F"/>
<rect x="99.0499" y="84" width="1.8" height="4.8" fill="#514C9F"/>
<rect x="121.05" y="84" width="1.8" height="4.8" fill="#514C9F"/>
<rect x="112.35" y="129.3" width="41.88" height="28.92" rx="0.9" fill="#ECEBFF" stroke="#514C9F" stroke-width="0.6"/>
<path d="M119.25 136.2C120.246 136.2 121.044 135.396 121.044 134.4C121.044 133.404 120.246 132.6 119.25 132.6C118.254 132.6 117.45 133.404 117.45 134.4C117.45 135.396 118.254 136.2 119.25 136.2ZM119.25 137.4C117.852 137.4 115.05 138.102 115.05 139.5V141H123.45V139.5C123.45 138.102 120.648 137.4 119.25 137.4Z" fill="#514C9F"/>
<rect x="112.35" y="162.3" width="41.88" height="28.92" rx="0.9" fill="#ECEBFF" stroke="#514C9F" stroke-width="0.6"/>
<path d="M119.85 168.6C120.846 168.6 121.644 167.796 121.644 166.8C121.644 165.804 120.846 165 119.85 165C118.854 165 118.05 165.804 118.05 166.8C118.05 167.796 118.854 168.6 119.85 168.6ZM119.85 169.8C118.452 169.8 115.65 170.502 115.65 171.9V173.4H124.05V171.9C124.05 170.502 121.248 169.8 119.85 169.8Z" fill="#514C9F"/>
<path d="M168.118 62V54.428H165.61V53.6H171.634V54.428H169.126V62H168.118ZM172.148 62V55.844H173.06L173.144 56.996C173.28 56.716 173.456 56.48 173.672 56.288C173.896 56.096 174.164 55.952 174.476 55.856C174.788 55.752 175.14 55.7 175.532 55.7V56.756H175.064C174.816 56.756 174.576 56.792 174.344 56.864C174.12 56.928 173.916 57.036 173.732 57.188C173.556 57.332 173.416 57.532 173.312 57.788C173.208 58.044 173.156 58.364 173.156 58.748V62H172.148ZM178.664 62.144C178.176 62.144 177.768 62.056 177.44 61.88C177.12 61.704 176.88 61.472 176.72 61.184C176.56 60.896 176.48 60.58 176.48 60.236C176.48 59.828 176.584 59.48 176.792 59.192C177.008 58.904 177.308 58.688 177.692 58.544C178.076 58.392 178.528 58.316 179.048 58.316H180.632C180.632 57.924 180.58 57.6 180.476 57.344C180.372 57.08 180.208 56.884 179.984 56.756C179.768 56.62 179.492 56.552 179.156 56.552C178.78 56.552 178.456 56.648 178.184 56.84C177.912 57.024 177.744 57.3 177.68 57.668H176.648C176.696 57.244 176.84 56.888 177.08 56.6C177.32 56.304 177.624 56.08 177.992 55.928C178.36 55.776 178.748 55.7 179.156 55.7C179.716 55.7 180.18 55.804 180.548 56.012C180.916 56.212 181.188 56.496 181.364 56.864C181.548 57.224 181.64 57.652 181.64 58.148V62H180.74L180.68 60.92C180.6 61.088 180.496 61.248 180.368 61.4C180.248 61.544 180.104 61.672 179.936 61.784C179.776 61.896 179.588 61.984 179.372 62.048C179.156 62.112 178.92 62.144 178.664 62.144ZM178.808 61.292C179.08 61.292 179.328 61.232 179.552 61.112C179.784 60.992 179.98 60.832 180.14 60.632C180.3 60.432 180.42 60.208 180.5 59.96C180.588 59.704 180.632 59.44 180.632 59.168V59.096H179.132C178.748 59.096 178.436 59.144 178.196 59.24C177.964 59.328 177.796 59.456 177.692 59.624C177.588 59.792 177.536 59.98 177.536 60.188C177.536 60.412 177.584 60.608 177.68 60.776C177.776 60.936 177.92 61.064 178.112 61.16C178.304 61.248 178.536 61.292 178.808 61.292ZM185.982 62.144C185.406 62.144 184.89 62.012 184.434 61.748C183.986 61.476 183.634 61.1 183.378 60.62C183.122 60.132 182.994 59.568 182.994 58.928C182.994 58.28 183.122 57.716 183.378 57.236C183.634 56.756 183.986 56.38 184.434 56.108C184.89 55.836 185.406 55.7 185.982 55.7C186.694 55.7 187.29 55.892 187.77 56.276C188.258 56.652 188.566 57.156 188.694 57.788H187.662C187.582 57.404 187.382 57.104 187.062 56.888C186.75 56.672 186.386 56.564 185.97 56.564C185.61 56.564 185.282 56.656 184.986 56.84C184.698 57.016 184.466 57.28 184.29 57.632C184.114 57.976 184.026 58.408 184.026 58.928C184.026 59.312 184.074 59.652 184.17 59.948C184.274 60.244 184.414 60.492 184.59 60.692C184.766 60.892 184.97 61.044 185.202 61.148C185.442 61.244 185.698 61.292 185.97 61.292C186.25 61.292 186.506 61.244 186.738 61.148C186.978 61.052 187.178 60.912 187.338 60.728C187.498 60.544 187.606 60.324 187.662 60.068H188.694C188.566 60.684 188.258 61.184 187.77 61.568C187.29 61.952 186.694 62.144 185.982 62.144ZM193.857 62L190.977 58.652L193.641 55.844H194.877L191.829 59.012L191.841 58.292L195.141 62H193.857ZM190.137 62V53.36H191.145V62H190.137ZM200.079 64.64L201.531 61.328H201.183L198.819 55.844H199.911L201.879 60.56L203.931 55.844H204.975L201.123 64.64H200.079ZM208.224 62.144C207.648 62.144 207.136 62.012 206.688 61.748C206.24 61.484 205.888 61.112 205.632 60.632C205.384 60.144 205.26 59.576 205.26 58.928C205.26 58.272 205.388 57.704 205.644 57.224C205.9 56.744 206.252 56.372 206.7 56.108C207.156 55.836 207.672 55.7 208.248 55.7C208.824 55.7 209.336 55.836 209.784 56.108C210.232 56.372 210.58 56.744 210.828 57.224C211.084 57.704 211.212 58.272 211.212 58.928C211.212 59.576 211.084 60.144 210.828 60.632C210.572 61.112 210.216 61.484 209.76 61.748C209.312 62.012 208.8 62.144 208.224 62.144ZM208.224 61.28C208.584 61.28 208.912 61.192 209.208 61.016C209.504 60.84 209.74 60.576 209.916 60.224C210.092 59.872 210.18 59.44 210.18 58.928C210.18 58.4 210.092 57.964 209.916 57.62C209.748 57.268 209.516 57.004 209.22 56.828C208.924 56.652 208.6 56.564 208.248 56.564C207.896 56.564 207.572 56.652 207.276 56.828C206.98 57.004 206.74 57.268 206.556 57.62C206.38 57.964 206.292 58.4 206.292 58.928C206.292 59.44 206.38 59.872 206.556 60.224C206.732 60.576 206.964 60.84 207.252 61.016C207.548 61.192 207.872 61.28 208.224 61.28ZM214.88 62.144C214.416 62.144 214.008 62.056 213.656 61.88C213.312 61.696 213.044 61.416 212.852 61.04C212.668 60.664 212.576 60.192 212.576 59.624V55.844H213.584V59.516C213.584 60.108 213.716 60.552 213.98 60.848C214.252 61.136 214.624 61.28 215.096 61.28C215.432 61.28 215.732 61.204 215.996 61.052C216.26 60.892 216.468 60.66 216.62 60.356C216.78 60.052 216.86 59.684 216.86 59.252V55.844H217.868V62H216.956L216.896 60.968C216.712 61.336 216.444 61.624 216.092 61.832C215.74 62.04 215.336 62.144 214.88 62.144ZM219.551 62V55.844H220.463L220.547 56.996C220.683 56.716 220.859 56.48 221.075 56.288C221.299 56.096 221.567 55.952 221.879 55.856C222.191 55.752 222.543 55.7 222.935 55.7V56.756H222.467C222.219 56.756 221.979 56.792 221.747 56.864C221.523 56.928 221.319 57.036 221.135 57.188C220.959 57.332 220.819 57.532 220.715 57.788C220.611 58.044 220.559 58.364 220.559 58.748V62H219.551ZM229.937 62.144C229.361 62.144 228.853 62.004 228.413 61.724C227.981 61.444 227.641 61.06 227.393 60.572C227.153 60.084 227.033 59.532 227.033 58.916C227.033 58.292 227.153 57.74 227.393 57.26C227.641 56.78 227.981 56.4 228.413 56.12C228.853 55.84 229.365 55.7 229.949 55.7C230.437 55.7 230.865 55.8 231.233 56C231.601 56.2 231.885 56.48 232.085 56.84V53.36H233.093V62H232.181L232.097 61.004C231.977 61.196 231.817 61.38 231.617 61.556C231.417 61.732 231.177 61.876 230.897 61.988C230.625 62.092 230.305 62.144 229.937 62.144ZM230.057 61.268C230.457 61.268 230.805 61.172 231.101 60.98C231.405 60.788 231.637 60.516 231.797 60.164C231.965 59.812 232.049 59.4 232.049 58.928C232.049 58.448 231.965 58.036 231.797 57.692C231.637 57.34 231.405 57.068 231.101 56.876C230.805 56.676 230.457 56.576 230.057 56.576C229.673 56.576 229.329 56.676 229.025 56.876C228.729 57.068 228.493 57.34 228.317 57.692C228.149 58.036 228.065 58.448 228.065 58.928C228.065 59.4 228.149 59.812 228.317 60.164C228.493 60.516 228.729 60.788 229.025 60.98C229.329 61.172 229.673 61.268 230.057 61.268ZM236.765 62.144C236.277 62.144 235.869 62.056 235.541 61.88C235.221 61.704 234.981 61.472 234.821 61.184C234.661 60.896 234.581 60.58 234.581 60.236C234.581 59.828 234.685 59.48 234.893 59.192C235.109 58.904 235.409 58.688 235.793 58.544C236.177 58.392 236.629 58.316 237.149 58.316H238.733C238.733 57.924 238.681 57.6 238.577 57.344C238.473 57.08 238.309 56.884 238.085 56.756C237.869 56.62 237.593 56.552 237.257 56.552C236.881 56.552 236.557 56.648 236.285 56.84C236.013 57.024 235.845 57.3 235.781 57.668H234.749C234.797 57.244 234.941 56.888 235.181 56.6C235.421 56.304 235.725 56.08 236.093 55.928C236.461 55.776 236.849 55.7 237.257 55.7C237.817 55.7 238.281 55.804 238.649 56.012C239.017 56.212 239.289 56.496 239.465 56.864C239.649 57.224 239.741 57.652 239.741 58.148V62H238.841L238.781 60.92C238.701 61.088 238.597 61.248 238.469 61.4C238.349 61.544 238.205 61.672 238.037 61.784C237.877 61.896 237.689 61.984 237.473 62.048C237.257 62.112 237.021 62.144 236.765 62.144ZM236.909 61.292C237.181 61.292 237.429 61.232 237.653 61.112C237.885 60.992 238.081 60.832 238.241 60.632C238.401 60.432 238.521 60.208 238.601 59.96C238.689 59.704 238.733 59.44 238.733 59.168V59.096H237.233C236.849 59.096 236.537 59.144 236.297 59.24C236.065 59.328 235.897 59.456 235.793 59.624C235.689 59.792 235.637 59.98 235.637 60.188C235.637 60.412 235.685 60.608 235.781 60.776C235.877 60.936 236.021 61.064 236.213 61.16C236.405 61.248 236.637 61.292 236.909 61.292ZM241.456 62V55.844H242.464V62H241.456ZM241.96 54.596C241.76 54.596 241.592 54.532 241.456 54.404C241.328 54.268 241.264 54.1 241.264 53.9C241.264 53.7 241.328 53.54 241.456 53.42C241.592 53.292 241.76 53.228 241.96 53.228C242.152 53.228 242.316 53.292 242.452 53.42C242.588 53.54 242.656 53.7 242.656 53.9C242.656 54.1 242.588 54.268 242.452 54.404C242.316 54.532 242.152 54.596 241.96 54.596ZM244.231 62V53.36H245.239V62H244.231ZM247.598 64.64L249.05 61.328H248.702L246.338 55.844H247.43L249.398 60.56L251.45 55.844H252.494L248.642 64.64H247.598ZM168.502 82C168.142 82 167.83 81.944 167.566 81.832C167.302 81.72 167.098 81.532 166.954 81.268C166.818 80.996 166.75 80.632 166.75 80.176V76.696H165.67V75.844H166.75L166.882 74.344H167.758V75.844H169.522V76.696H167.758V80.176C167.758 80.552 167.834 80.808 167.986 80.944C168.138 81.072 168.406 81.136 168.79 81.136H169.462V82H168.502ZM170.859 82V75.844H171.771L171.855 76.996C171.991 76.716 172.167 76.48 172.383 76.288C172.607 76.096 172.875 75.952 173.187 75.856C173.499 75.752 173.851 75.7 174.243 75.7V76.756H173.775C173.527 76.756 173.287 76.792 173.055 76.864C172.831 76.928 172.627 77.036 172.443 77.188C172.267 77.332 172.127 77.532 172.023 77.788C171.919 78.044 171.867 78.364 171.867 78.748V82H170.859ZM177.375 82.144C176.887 82.144 176.479 82.056 176.151 81.88C175.831 81.704 175.591 81.472 175.431 81.184C175.271 80.896 175.191 80.58 175.191 80.236C175.191 79.828 175.295 79.48 175.503 79.192C175.719 78.904 176.019 78.688 176.403 78.544C176.787 78.392 177.239 78.316 177.759 78.316H179.343C179.343 77.924 179.291 77.6 179.187 77.344C179.083 77.08 178.919 76.884 178.695 76.756C178.479 76.62 178.203 76.552 177.867 76.552C177.491 76.552 177.167 76.648 176.895 76.84C176.623 77.024 176.455 77.3 176.391 77.668H175.359C175.407 77.244 175.551 76.888 175.791 76.6C176.031 76.304 176.335 76.08 176.703 75.928C177.071 75.776 177.459 75.7 177.867 75.7C178.427 75.7 178.891 75.804 179.259 76.012C179.627 76.212 179.899 76.496 180.075 76.864C180.259 77.224 180.351 77.652 180.351 78.148V82H179.451L179.391 80.92C179.311 81.088 179.207 81.248 179.079 81.4C178.959 81.544 178.815 81.672 178.647 81.784C178.487 81.896 178.299 81.984 178.083 82.048C177.867 82.112 177.631 82.144 177.375 82.144ZM177.519 81.292C177.791 81.292 178.039 81.232 178.263 81.112C178.495 80.992 178.691 80.832 178.851 80.632C179.011 80.432 179.131 80.208 179.211 79.96C179.299 79.704 179.343 79.44 179.343 79.168V79.096H177.843C177.459 79.096 177.147 79.144 176.907 79.24C176.675 79.328 176.507 79.456 176.403 79.624C176.299 79.792 176.247 79.98 176.247 80.188C176.247 80.412 176.295 80.608 176.391 80.776C176.487 80.936 176.631 81.064 176.823 81.16C177.015 81.248 177.247 81.292 177.519 81.292ZM181.957 82V75.844H182.869L182.929 76.876C183.113 76.508 183.381 76.22 183.733 76.012C184.085 75.804 184.489 75.7 184.945 75.7C185.417 75.7 185.825 75.792 186.169 75.976C186.513 76.16 186.781 76.44 186.973 76.816C187.165 77.184 187.261 77.652 187.261 78.22V82H186.253V78.328C186.253 77.744 186.117 77.304 185.845 77.008C185.573 76.712 185.197 76.564 184.717 76.564C184.397 76.564 184.101 76.644 183.829 76.804C183.565 76.964 183.353 77.196 183.193 77.5C183.041 77.796 182.965 78.164 182.965 78.604V82H181.957ZM191.139 82.144C190.611 82.144 190.159 82.06 189.783 81.892C189.415 81.724 189.127 81.488 188.919 81.184C188.711 80.88 188.583 80.524 188.535 80.116H189.567C189.607 80.324 189.687 80.52 189.807 80.704C189.935 80.88 190.107 81.024 190.323 81.136C190.547 81.24 190.823 81.292 191.151 81.292C191.431 81.292 191.663 81.252 191.847 81.172C192.039 81.084 192.179 80.968 192.267 80.824C192.363 80.672 192.411 80.508 192.411 80.332C192.411 80.076 192.351 79.88 192.231 79.744C192.119 79.608 191.951 79.504 191.727 79.432C191.511 79.352 191.243 79.288 190.923 79.24C190.619 79.192 190.335 79.128 190.071 79.048C189.815 78.96 189.587 78.848 189.387 78.712C189.195 78.576 189.043 78.408 188.931 78.208C188.827 78 188.775 77.752 188.775 77.464C188.775 77.12 188.863 76.816 189.039 76.552C189.223 76.288 189.479 76.08 189.807 75.928C190.143 75.776 190.539 75.7 190.995 75.7C191.651 75.7 192.179 75.856 192.579 76.168C192.979 76.48 193.215 76.928 193.287 77.512H192.291C192.251 77.216 192.115 76.984 191.883 76.816C191.659 76.64 191.359 76.552 190.983 76.552C190.591 76.552 190.295 76.628 190.095 76.78C189.895 76.932 189.795 77.132 189.795 77.38C189.795 77.556 189.843 77.712 189.939 77.848C190.043 77.976 190.203 78.088 190.419 78.184C190.643 78.272 190.923 78.344 191.259 78.4C191.683 78.464 192.059 78.556 192.387 78.676C192.715 78.796 192.975 78.98 193.167 79.228C193.359 79.468 193.451 79.808 193.443 80.248C193.451 80.632 193.359 80.968 193.167 81.256C192.975 81.544 192.707 81.764 192.363 81.916C192.019 82.068 191.611 82.144 191.139 82.144ZM196.898 82.144C196.41 82.144 196.002 82.056 195.674 81.88C195.354 81.704 195.114 81.472 194.954 81.184C194.794 80.896 194.714 80.58 194.714 80.236C194.714 79.828 194.818 79.48 195.026 79.192C195.242 78.904 195.542 78.688 195.926 78.544C196.31 78.392 196.762 78.316 197.282 78.316H198.866C198.866 77.924 198.814 77.6 198.71 77.344C198.606 77.08 198.442 76.884 198.218 76.756C198.002 76.62 197.726 76.552 197.39 76.552C197.014 76.552 196.69 76.648 196.418 76.84C196.146 77.024 195.978 77.3 195.914 77.668H194.882C194.93 77.244 195.074 76.888 195.314 76.6C195.554 76.304 195.858 76.08 196.226 75.928C196.594 75.776 196.982 75.7 197.39 75.7C197.95 75.7 198.414 75.804 198.782 76.012C199.15 76.212 199.422 76.496 199.598 76.864C199.782 77.224 199.874 77.652 199.874 78.148V82H198.974L198.914 80.92C198.834 81.088 198.73 81.248 198.602 81.4C198.482 81.544 198.338 81.672 198.17 81.784C198.01 81.896 197.822 81.984 197.606 82.048C197.39 82.112 197.154 82.144 196.898 82.144ZM197.042 81.292C197.314 81.292 197.562 81.232 197.786 81.112C198.018 80.992 198.214 80.832 198.374 80.632C198.534 80.432 198.654 80.208 198.734 79.96C198.822 79.704 198.866 79.44 198.866 79.168V79.096H197.366C196.982 79.096 196.67 79.144 196.43 79.24C196.198 79.328 196.03 79.456 195.926 79.624C195.822 79.792 195.77 79.98 195.77 80.188C195.77 80.412 195.818 80.608 195.914 80.776C196.01 80.936 196.154 81.064 196.346 81.16C196.538 81.248 196.77 81.292 197.042 81.292ZM204.217 82.144C203.641 82.144 203.125 82.012 202.669 81.748C202.221 81.476 201.869 81.1 201.613 80.62C201.357 80.132 201.229 79.568 201.229 78.928C201.229 78.28 201.357 77.716 201.613 77.236C201.869 76.756 202.221 76.38 202.669 76.108C203.125 75.836 203.641 75.7 204.217 75.7C204.929 75.7 205.525 75.892 206.005 76.276C206.493 76.652 206.801 77.156 206.929 77.788H205.897C205.817 77.404 205.617 77.104 205.297 76.888C204.985 76.672 204.621 76.564 204.205 76.564C203.845 76.564 203.517 76.656 203.221 76.84C202.933 77.016 202.701 77.28 202.525 77.632C202.349 77.976 202.261 78.408 202.261 78.928C202.261 79.312 202.309 79.652 202.405 79.948C202.509 80.244 202.649 80.492 202.825 80.692C203.001 80.892 203.205 81.044 203.437 81.148C203.677 81.244 203.933 81.292 204.205 81.292C204.485 81.292 204.741 81.244 204.973 81.148C205.213 81.052 205.413 80.912 205.573 80.728C205.733 80.544 205.841 80.324 205.897 80.068H206.929C206.801 80.684 206.493 81.184 206.005 81.568C205.525 81.952 204.929 82.144 204.217 82.144ZM210.619 82C210.259 82 209.947 81.944 209.683 81.832C209.419 81.72 209.215 81.532 209.071 81.268C208.935 80.996 208.867 80.632 208.867 80.176V76.696H207.787V75.844H208.867L208.999 74.344H209.875V75.844H211.639V76.696H209.875V80.176C209.875 80.552 209.951 80.808 210.103 80.944C210.255 81.072 210.523 81.136 210.907 81.136H211.579V82H210.619ZM213.085 82V75.844H214.093V82H213.085ZM213.589 74.596C213.389 74.596 213.221 74.532 213.085 74.404C212.957 74.268 212.893 74.1 212.893 73.9C212.893 73.7 212.957 73.54 213.085 73.42C213.221 73.292 213.389 73.228 213.589 73.228C213.781 73.228 213.945 73.292 214.081 73.42C214.217 73.54 214.285 73.7 214.285 73.9C214.285 74.1 214.217 74.268 214.081 74.404C213.945 74.532 213.781 74.596 213.589 74.596ZM218.571 82.144C217.995 82.144 217.483 82.012 217.035 81.748C216.587 81.484 216.235 81.112 215.979 80.632C215.731 80.144 215.607 79.576 215.607 78.928C215.607 78.272 215.735 77.704 215.991 77.224C216.247 76.744 216.599 76.372 217.047 76.108C217.503 75.836 218.019 75.7 218.595 75.7C219.171 75.7 219.683 75.836 220.131 76.108C220.579 76.372 220.927 76.744 221.175 77.224C221.431 77.704 221.559 78.272 221.559 78.928C221.559 79.576 221.431 80.144 221.175 80.632C220.919 81.112 220.563 81.484 220.107 81.748C219.659 82.012 219.147 82.144 218.571 82.144ZM218.571 81.28C218.931 81.28 219.259 81.192 219.555 81.016C219.851 80.84 220.087 80.576 220.263 80.224C220.439 79.872 220.527 79.44 220.527 78.928C220.527 78.4 220.439 77.964 220.263 77.62C220.095 77.268 219.863 77.004 219.567 76.828C219.271 76.652 218.947 76.564 218.595 76.564C218.243 76.564 217.919 76.652 217.623 76.828C217.327 77.004 217.087 77.268 216.903 77.62C216.727 77.964 216.639 78.4 216.639 78.928C216.639 79.44 216.727 79.872 216.903 80.224C217.079 80.576 217.311 80.84 217.599 81.016C217.895 81.192 218.219 81.28 218.571 81.28ZM222.996 82V75.844H223.908L223.968 76.876C224.152 76.508 224.42 76.22 224.772 76.012C225.124 75.804 225.528 75.7 225.984 75.7C226.456 75.7 226.864 75.792 227.208 75.976C227.552 76.16 227.82 76.44 228.012 76.816C228.204 77.184 228.3 77.652 228.3 78.22V82H227.292V78.328C227.292 77.744 227.156 77.304 226.884 77.008C226.612 76.712 226.236 76.564 225.756 76.564C225.436 76.564 225.14 76.644 224.868 76.804C224.604 76.964 224.392 77.196 224.232 77.5C224.08 77.796 224.004 78.164 224.004 78.604V82H222.996ZM232.178 82.144C231.65 82.144 231.198 82.06 230.822 81.892C230.454 81.724 230.166 81.488 229.958 81.184C229.75 80.88 229.622 80.524 229.574 80.116H230.606C230.646 80.324 230.726 80.52 230.846 80.704C230.974 80.88 231.146 81.024 231.362 81.136C231.586 81.24 231.862 81.292 232.19 81.292C232.47 81.292 232.702 81.252 232.886 81.172C233.078 81.084 233.218 80.968 233.306 80.824C233.402 80.672 233.45 80.508 233.45 80.332C233.45 80.076 233.39 79.88 233.27 79.744C233.158 79.608 232.99 79.504 232.766 79.432C232.55 79.352 232.282 79.288 231.962 79.24C231.658 79.192 231.374 79.128 231.11 79.048C230.854 78.96 230.626 78.848 230.426 78.712C230.234 78.576 230.082 78.408 229.97 78.208C229.866 78 229.814 77.752 229.814 77.464C229.814 77.12 229.902 76.816 230.078 76.552C230.262 76.288 230.518 76.08 230.846 75.928C231.182 75.776 231.578 75.7 232.034 75.7C232.69 75.7 233.218 75.856 233.618 76.168C234.018 76.48 234.254 76.928 234.326 77.512H233.33C233.29 77.216 233.154 76.984 232.922 76.816C232.698 76.64 232.398 76.552 232.022 76.552C231.63 76.552 231.334 76.628 231.134 76.78C230.934 76.932 230.834 77.132 230.834 77.38C230.834 77.556 230.882 77.712 230.978 77.848C231.082 77.976 231.242 78.088 231.458 78.184C231.682 78.272 231.962 78.344 232.298 78.4C232.722 78.464 233.098 78.556 233.426 78.676C233.754 78.796 234.014 78.98 234.206 79.228C234.398 79.468 234.49 79.808 234.482 80.248C234.49 80.632 234.398 80.968 234.206 81.256C234.014 81.544 233.746 81.764 233.402 81.916C233.058 82.068 232.65 82.144 232.178 82.144ZM235.201 83.476L235.897 80.824H236.941L235.897 83.476H235.201ZM243.819 84.784C243.267 84.784 242.779 84.712 242.355 84.568C241.931 84.432 241.603 84.22 241.371 83.932C241.139 83.644 241.023 83.288 241.023 82.864C241.023 82.672 241.059 82.472 241.131 82.264C241.211 82.056 241.343 81.852 241.527 81.652C241.719 81.452 241.987 81.272 242.331 81.112L243.051 81.52C242.619 81.696 242.335 81.896 242.199 82.12C242.071 82.352 242.007 82.568 242.007 82.768C242.007 83.032 242.083 83.252 242.235 83.428C242.387 83.604 242.599 83.736 242.871 83.824C243.151 83.912 243.467 83.956 243.819 83.956C244.171 83.956 244.471 83.908 244.719 83.812C244.975 83.716 245.171 83.58 245.307 83.404C245.443 83.236 245.511 83.032 245.511 82.792C245.511 82.496 245.407 82.252 245.199 82.06C244.991 81.876 244.587 81.768 243.987 81.736C243.507 81.704 243.103 81.66 242.775 81.604C242.455 81.548 242.191 81.484 241.983 81.412C241.775 81.332 241.599 81.244 241.455 81.148C241.319 81.052 241.195 80.952 241.083 80.848V80.572L242.259 79.42L243.159 79.732L241.923 80.812L242.079 80.368C242.167 80.432 242.251 80.492 242.331 80.548C242.411 80.604 242.519 80.656 242.655 80.704C242.791 80.744 242.983 80.784 243.231 80.824C243.479 80.856 243.807 80.888 244.215 80.92C244.775 80.96 245.223 81.056 245.559 81.208C245.895 81.36 246.135 81.568 246.279 81.832C246.431 82.088 246.507 82.396 246.507 82.756C246.507 83.1 246.411 83.424 246.219 83.728C246.035 84.04 245.743 84.292 245.343 84.484C244.951 84.684 244.443 84.784 243.819 84.784ZM243.807 80.08C243.303 80.08 242.871 79.984 242.511 79.792C242.159 79.592 241.891 79.328 241.707 79C241.523 78.672 241.431 78.304 241.431 77.896C241.431 77.48 241.523 77.112 241.707 76.792C241.899 76.464 242.171 76.2 242.523 76C242.875 75.8 243.303 75.7 243.807 75.7C244.319 75.7 244.751 75.8 245.103 76C245.455 76.2 245.723 76.464 245.907 76.792C246.091 77.112 246.183 77.48 246.183 77.896C246.183 78.304 246.091 78.672 245.907 79C245.723 79.328 245.455 79.592 245.103 79.792C244.751 79.984 244.319 80.08 243.807 80.08ZM243.807 79.252C244.247 79.252 244.591 79.136 244.839 78.904C245.087 78.672 245.211 78.336 245.211 77.896C245.211 77.448 245.087 77.112 244.839 76.888C244.591 76.656 244.247 76.54 243.807 76.54C243.383 76.54 243.039 76.656 242.775 76.888C242.511 77.112 242.379 77.448 242.379 77.896C242.379 78.336 242.507 78.672 242.763 78.904C243.027 79.136 243.375 79.252 243.807 79.252ZM244.815 76.696L244.515 75.844H246.987V76.6L244.815 76.696ZM250.585 82.144C250.025 82.144 249.525 82.012 249.085 81.748C248.653 81.476 248.313 81.1 248.065 80.62C247.817 80.132 247.693 79.568 247.693 78.928C247.693 78.28 247.817 77.716 248.065 77.236C248.313 76.748 248.653 76.372 249.085 76.108C249.525 75.836 250.033 75.7 250.609 75.7C251.209 75.7 251.713 75.836 252.121 76.108C252.537 76.372 252.853 76.724 253.069 77.164C253.285 77.604 253.393 78.084 253.393 78.604C253.393 78.684 253.393 78.768 253.393 78.856C253.393 78.944 253.389 79.044 253.381 79.156H248.449V78.376H252.397C252.381 77.792 252.201 77.344 251.857 77.032C251.521 76.712 251.097 76.552 250.585 76.552C250.249 76.552 249.937 76.632 249.649 76.792C249.361 76.952 249.125 77.188 248.941 77.5C248.765 77.804 248.677 78.188 248.677 78.652V78.988C248.677 79.492 248.765 79.916 248.941 80.26C249.125 80.604 249.361 80.864 249.649 81.04C249.937 81.208 250.249 81.292 250.585 81.292C251.025 81.292 251.377 81.204 251.641 81.028C251.905 80.844 252.101 80.588 252.229 80.26H253.225C253.121 80.62 252.949 80.944 252.709 81.232C252.477 81.512 252.181 81.736 251.821 81.904C251.469 82.064 251.057 82.144 250.585 82.144ZM256.967 82C256.607 82 256.295 81.944 256.031 81.832C255.767 81.72 255.563 81.532 255.419 81.268C255.283 80.996 255.215 80.632 255.215 80.176V76.696H254.135V75.844H255.215L255.347 74.344H256.223V75.844H257.987V76.696H256.223V80.176C256.223 80.552 256.299 80.808 256.451 80.944C256.603 81.072 256.871 81.136 257.255 81.136H257.927V82H256.967ZM264.311 82L261.971 75.844H263.039L264.899 81.028L266.771 75.844H267.803L265.475 82H264.311ZM270.609 82.144C270.121 82.144 269.713 82.056 269.385 81.88C269.065 81.704 268.825 81.472 268.665 81.184C268.505 80.896 268.425 80.58 268.425 80.236C268.425 79.828 268.529 79.48 268.737 79.192C268.953 78.904 269.253 78.688 269.637 78.544C270.021 78.392 270.473 78.316 270.993 78.316H272.577C272.577 77.924 272.525 77.6 272.421 77.344C272.317 77.08 272.153 76.884 271.929 76.756C271.713 76.62 271.437 76.552 271.101 76.552C270.725 76.552 270.401 76.648 270.129 76.84C269.857 77.024 269.689 77.3 269.625 77.668H268.593C268.641 77.244 268.785 76.888 269.025 76.6C269.265 76.304 269.569 76.08 269.937 75.928C270.305 75.776 270.693 75.7 271.101 75.7C271.661 75.7 272.125 75.804 272.493 76.012C272.861 76.212 273.133 76.496 273.309 76.864C273.493 77.224 273.585 77.652 273.585 78.148V82H272.685L272.625 80.92C272.545 81.088 272.441 81.248 272.313 81.4C272.193 81.544 272.049 81.672 271.881 81.784C271.721 81.896 271.533 81.984 271.317 82.048C271.101 82.112 270.865 82.144 270.609 82.144ZM270.753 81.292C271.025 81.292 271.273 81.232 271.497 81.112C271.729 80.992 271.925 80.832 272.085 80.632C272.245 80.432 272.365 80.208 272.445 79.96C272.533 79.704 272.577 79.44 272.577 79.168V79.096H271.077C270.693 79.096 270.381 79.144 270.141 79.24C269.909 79.328 269.741 79.456 269.637 79.624C269.533 79.792 269.481 79.98 269.481 80.188C269.481 80.412 269.529 80.608 269.625 80.776C269.721 80.936 269.865 81.064 270.057 81.16C270.249 81.248 270.481 81.292 270.753 81.292ZM275.191 82V73.36H276.199V82H275.191ZM280.107 82.144C279.643 82.144 279.235 82.056 278.883 81.88C278.539 81.696 278.271 81.416 278.079 81.04C277.895 80.664 277.803 80.192 277.803 79.624V75.844H278.811V79.516C278.811 80.108 278.943 80.552 279.207 80.848C279.479 81.136 279.851 81.28 280.323 81.28C280.659 81.28 280.959 81.204 281.223 81.052C281.487 80.892 281.695 80.66 281.847 80.356C282.007 80.052 282.087 79.684 282.087 79.252V75.844H283.095V82H282.183L282.123 80.968C281.939 81.336 281.671 81.624 281.319 81.832C280.967 82.04 280.563 82.144 280.107 82.144ZM286.757 82.144C286.269 82.144 285.861 82.056 285.533 81.88C285.213 81.704 284.973 81.472 284.813 81.184C284.653 80.896 284.573 80.58 284.573 80.236C284.573 79.828 284.677 79.48 284.885 79.192C285.101 78.904 285.401 78.688 285.785 78.544C286.169 78.392 286.621 78.316 287.141 78.316H288.725C288.725 77.924 288.673 77.6 288.569 77.344C288.465 77.08 288.301 76.884 288.077 76.756C287.861 76.62 287.585 76.552 287.249 76.552C286.873 76.552 286.549 76.648 286.277 76.84C286.005 77.024 285.837 77.3 285.773 77.668H284.741C284.789 77.244 284.933 76.888 285.173 76.6C285.413 76.304 285.717 76.08 286.085 75.928C286.453 75.776 286.841 75.7 287.249 75.7C287.809 75.7 288.273 75.804 288.641 76.012C289.009 76.212 289.281 76.496 289.457 76.864C289.641 77.224 289.733 77.652 289.733 78.148V82H288.833L288.773 80.92C288.693 81.088 288.589 81.248 288.461 81.4C288.341 81.544 288.197 81.672 288.029 81.784C287.869 81.896 287.681 81.984 287.465 82.048C287.249 82.112 287.013 82.144 286.757 82.144ZM286.901 81.292C287.173 81.292 287.421 81.232 287.645 81.112C287.877 80.992 288.073 80.832 288.233 80.632C288.393 80.432 288.513 80.208 288.593 79.96C288.681 79.704 288.725 79.44 288.725 79.168V79.096H287.225C286.841 79.096 286.529 79.144 286.289 79.24C286.057 79.328 285.889 79.456 285.785 79.624C285.681 79.792 285.629 79.98 285.629 80.188C285.629 80.412 285.677 80.608 285.773 80.776C285.869 80.936 286.013 81.064 286.205 81.16C286.397 81.248 286.629 81.292 286.901 81.292ZM294.496 82.144C294.144 82.144 293.828 82.092 293.548 81.988C293.276 81.884 293.036 81.748 292.828 81.58C292.628 81.404 292.468 81.216 292.348 81.016L292.252 82H291.34V73.36H292.348V76.84C292.54 76.504 292.82 76.232 293.188 76.024C293.556 75.808 293.992 75.7 294.496 75.7C295.08 75.7 295.588 75.84 296.02 76.12C296.46 76.4 296.8 76.78 297.04 77.26C297.28 77.74 297.4 78.292 297.4 78.916C297.4 79.532 297.28 80.084 297.04 80.572C296.8 81.06 296.46 81.444 296.02 81.724C295.588 82.004 295.08 82.144 294.496 82.144ZM294.376 81.268C294.768 81.268 295.112 81.172 295.408 80.98C295.704 80.788 295.936 80.516 296.104 80.164C296.28 79.812 296.368 79.4 296.368 78.928C296.368 78.448 296.28 78.036 296.104 77.692C295.936 77.34 295.704 77.068 295.408 76.876C295.112 76.676 294.768 76.576 294.376 76.576C293.976 76.576 293.624 76.676 293.32 76.876C293.024 77.068 292.792 77.34 292.624 77.692C292.464 78.036 292.384 78.448 292.384 78.928C292.384 79.4 292.464 79.812 292.624 80.164C292.792 80.516 293.024 80.788 293.32 80.98C293.624 81.172 293.976 81.268 294.376 81.268ZM298.84 82V73.36H299.848V82H298.84ZM304.163 82.144C303.603 82.144 303.103 82.012 302.663 81.748C302.231 81.476 301.891 81.1 301.643 80.62C301.395 80.132 301.271 79.568 301.271 78.928C301.271 78.28 301.395 77.716 301.643 77.236C301.891 76.748 302.231 76.372 302.663 76.108C303.103 75.836 303.611 75.7 304.187 75.7C304.787 75.7 305.291 75.836 305.699 76.108C306.115 76.372 306.431 76.724 306.647 77.164C306.863 77.604 306.971 78.084 306.971 78.604C306.971 78.684 306.971 78.768 306.971 78.856C306.971 78.944 306.967 79.044 306.959 79.156H302.027V78.376H305.975C305.959 77.792 305.779 77.344 305.435 77.032C305.099 76.712 304.675 76.552 304.163 76.552C303.827 76.552 303.515 76.632 303.227 76.792C302.939 76.952 302.703 77.188 302.519 77.5C302.343 77.804 302.255 78.188 302.255 78.652V78.988C302.255 79.492 302.343 79.916 302.519 80.26C302.703 80.604 302.939 80.864 303.227 81.04C303.515 81.208 303.827 81.292 304.163 81.292C304.603 81.292 304.955 81.204 305.219 81.028C305.483 80.844 305.679 80.588 305.807 80.26H306.803C306.699 80.62 306.527 80.944 306.287 81.232C306.055 81.512 305.759 81.736 305.399 81.904C305.047 82.064 304.635 82.144 304.163 82.144ZM166.198 102V95.844H167.206V102H166.198ZM166.702 94.596C166.502 94.596 166.334 94.532 166.198 94.404C166.07 94.268 166.006 94.1 166.006 93.9C166.006 93.7 166.07 93.54 166.198 93.42C166.334 93.292 166.502 93.228 166.702 93.228C166.894 93.228 167.058 93.292 167.194 93.42C167.33 93.54 167.398 93.7 167.398 93.9C167.398 94.1 167.33 94.268 167.194 94.404C167.058 94.532 166.894 94.596 166.702 94.596ZM168.973 102V95.844H169.885L169.945 96.876C170.129 96.508 170.397 96.22 170.749 96.012C171.101 95.804 171.505 95.7 171.961 95.7C172.433 95.7 172.841 95.792 173.185 95.976C173.529 96.16 173.797 96.44 173.989 96.816C174.181 97.184 174.277 97.652 174.277 98.22V102H173.269V98.328C173.269 97.744 173.133 97.304 172.861 97.008C172.589 96.712 172.213 96.564 171.733 96.564C171.413 96.564 171.117 96.644 170.845 96.804C170.581 96.964 170.369 97.196 170.209 97.5C170.057 97.796 169.981 98.164 169.981 98.604V102H168.973ZM178.155 102.144C177.627 102.144 177.175 102.06 176.799 101.892C176.431 101.724 176.143 101.488 175.935 101.184C175.727 100.88 175.599 100.524 175.551 100.116H176.583C176.623 100.324 176.703 100.52 176.823 100.704C176.951 100.88 177.123 101.024 177.339 101.136C177.563 101.24 177.839 101.292 178.167 101.292C178.447 101.292 178.679 101.252 178.863 101.172C179.055 101.084 179.195 100.968 179.283 100.824C179.379 100.672 179.427 100.508 179.427 100.332C179.427 100.076 179.367 99.88 179.247 99.744C179.135 99.608 178.967 99.504 178.743 99.432C178.527 99.352 178.259 99.288 177.939 99.24C177.635 99.192 177.351 99.128 177.087 99.048C176.831 98.96 176.603 98.848 176.403 98.712C176.211 98.576 176.059 98.408 175.947 98.208C175.843 98 175.791 97.752 175.791 97.464C175.791 97.12 175.879 96.816 176.055 96.552C176.239 96.288 176.495 96.08 176.823 95.928C177.159 95.776 177.555 95.7 178.011 95.7C178.667 95.7 179.195 95.856 179.595 96.168C179.995 96.48 180.231 96.928 180.303 97.512H179.307C179.267 97.216 179.131 96.984 178.899 96.816C178.675 96.64 178.375 96.552 177.999 96.552C177.607 96.552 177.311 96.628 177.111 96.78C176.911 96.932 176.811 97.132 176.811 97.38C176.811 97.556 176.859 97.712 176.955 97.848C177.059 97.976 177.219 98.088 177.435 98.184C177.659 98.272 177.939 98.344 178.275 98.4C178.699 98.464 179.075 98.556 179.403 98.676C179.731 98.796 179.991 98.98 180.183 99.228C180.375 99.468 180.467 99.808 180.459 100.248C180.467 100.632 180.375 100.968 180.183 101.256C179.991 101.544 179.723 101.764 179.379 101.916C179.035 102.068 178.627 102.144 178.155 102.144ZM182.042 102V95.844H183.05V102H182.042ZM182.546 94.596C182.346 94.596 182.178 94.532 182.042 94.404C181.914 94.268 181.85 94.1 181.85 93.9C181.85 93.7 181.914 93.54 182.042 93.42C182.178 93.292 182.346 93.228 182.546 93.228C182.738 93.228 182.902 93.292 183.038 93.42C183.174 93.54 183.242 93.7 183.242 93.9C183.242 94.1 183.174 94.268 183.038 94.404C182.902 94.532 182.738 94.596 182.546 94.596ZM187.24 104.784C186.688 104.784 186.2 104.712 185.776 104.568C185.352 104.432 185.024 104.22 184.792 103.932C184.56 103.644 184.444 103.288 184.444 102.864C184.444 102.672 184.48 102.472 184.552 102.264C184.632 102.056 184.764 101.852 184.948 101.652C185.14 101.452 185.408 101.272 185.752 101.112L186.472 101.52C186.04 101.696 185.756 101.896 185.62 102.12C185.492 102.352 185.428 102.568 185.428 102.768C185.428 103.032 185.504 103.252 185.656 103.428C185.808 103.604 186.02 103.736 186.292 103.824C186.572 103.912 186.888 103.956 187.24 103.956C187.592 103.956 187.892 103.908 188.14 103.812C188.396 103.716 188.592 103.58 188.728 103.404C188.864 103.236 188.932 103.032 188.932 102.792C188.932 102.496 188.828 102.252 188.62 102.06C188.412 101.876 188.008 101.768 187.408 101.736C186.928 101.704 186.524 101.66 186.196 101.604C185.876 101.548 185.612 101.484 185.404 101.412C185.196 101.332 185.02 101.244 184.876 101.148C184.74 101.052 184.616 100.952 184.504 100.848V100.572L185.68 99.42L186.58 99.732L185.344 100.812L185.5 100.368C185.588 100.432 185.672 100.492 185.752 100.548C185.832 100.604 185.94 100.656 186.076 100.704C186.212 100.744 186.404 100.784 186.652 100.824C186.9 100.856 187.228 100.888 187.636 100.92C188.196 100.96 188.644 101.056 188.98 101.208C189.316 101.36 189.556 101.568 189.7 101.832C189.852 102.088 189.928 102.396 189.928 102.756C189.928 103.1 189.832 103.424 189.64 103.728C189.456 104.04 189.164 104.292 188.764 104.484C188.372 104.684 187.864 104.784 187.24 104.784ZM187.228 100.08C186.724 100.08 186.292 99.984 185.932 99.792C185.58 99.592 185.312 99.328 185.128 99C184.944 98.672 184.852 98.304 184.852 97.896C184.852 97.48 184.944 97.112 185.128 96.792C185.32 96.464 185.592 96.2 185.944 96C186.296 95.8 186.724 95.7 187.228 95.7C187.74 95.7 188.172 95.8 188.524 96C188.876 96.2 189.144 96.464 189.328 96.792C189.512 97.112 189.604 97.48 189.604 97.896C189.604 98.304 189.512 98.672 189.328 99C189.144 99.328 188.876 99.592 188.524 99.792C188.172 99.984 187.74 100.08 187.228 100.08ZM187.228 99.252C187.668 99.252 188.012 99.136 188.26 98.904C188.508 98.672 188.632 98.336 188.632 97.896C188.632 97.448 188.508 97.112 188.26 96.888C188.012 96.656 187.668 96.54 187.228 96.54C186.804 96.54 186.46 96.656 186.196 96.888C185.932 97.112 185.8 97.448 185.8 97.896C185.8 98.336 185.928 98.672 186.184 98.904C186.448 99.136 186.796 99.252 187.228 99.252ZM188.236 96.696L187.936 95.844H190.408V96.6L188.236 96.696ZM191.602 102V93.36H192.61V96.864C192.818 96.504 193.102 96.22 193.462 96.012C193.822 95.804 194.214 95.7 194.638 95.7C195.118 95.7 195.526 95.792 195.862 95.976C196.206 96.16 196.47 96.444 196.654 96.828C196.838 97.204 196.93 97.68 196.93 98.256V102H195.934V98.364C195.934 97.772 195.802 97.324 195.538 97.02C195.274 96.716 194.902 96.564 194.422 96.564C194.094 96.564 193.79 96.648 193.51 96.816C193.238 96.976 193.018 97.212 192.85 97.524C192.69 97.828 192.61 98.204 192.61 98.652V102H191.602ZM200.951 102C200.591 102 200.279 101.944 200.015 101.832C199.751 101.72 199.547 101.532 199.403 101.268C199.267 100.996 199.199 100.632 199.199 100.176V96.696H198.119V95.844H199.199L199.331 94.344H200.207V95.844H201.971V96.696H200.207V100.176C200.207 100.552 200.283 100.808 200.435 100.944C200.587 101.072 200.855 101.136 201.239 101.136H201.911V102H200.951ZM205.589 102.144C205.061 102.144 204.609 102.06 204.233 101.892C203.865 101.724 203.577 101.488 203.369 101.184C203.161 100.88 203.033 100.524 202.985 100.116H204.017C204.057 100.324 204.137 100.52 204.257 100.704C204.385 100.88 204.557 101.024 204.773 101.136C204.997 101.24 205.273 101.292 205.601 101.292C205.881 101.292 206.113 101.252 206.297 101.172C206.489 101.084 206.629 100.968 206.717 100.824C206.813 100.672 206.861 100.508 206.861 100.332C206.861 100.076 206.801 99.88 206.681 99.744C206.569 99.608 206.401 99.504 206.177 99.432C205.961 99.352 205.693 99.288 205.373 99.24C205.069 99.192 204.785 99.128 204.521 99.048C204.265 98.96 204.037 98.848 203.837 98.712C203.645 98.576 203.493 98.408 203.381 98.208C203.277 98 203.225 97.752 203.225 97.464C203.225 97.12 203.313 96.816 203.489 96.552C203.673 96.288 203.929 96.08 204.257 95.928C204.593 95.776 204.989 95.7 205.445 95.7C206.101 95.7 206.629 95.856 207.029 96.168C207.429 96.48 207.665 96.928 207.737 97.512H206.741C206.701 97.216 206.565 96.984 206.333 96.816C206.109 96.64 205.809 96.552 205.433 96.552C205.041 96.552 204.745 96.628 204.545 96.78C204.345 96.932 204.245 97.132 204.245 97.38C204.245 97.556 204.293 97.712 204.389 97.848C204.493 97.976 204.653 98.088 204.869 98.184C205.093 98.272 205.373 98.344 205.709 98.4C206.133 98.464 206.509 98.556 206.837 98.676C207.165 98.796 207.425 98.98 207.617 99.228C207.809 99.468 207.901 99.808 207.893 100.248C207.901 100.632 207.809 100.968 207.617 101.256C207.425 101.544 207.157 101.764 206.813 101.916C206.469 102.068 206.061 102.144 205.589 102.144ZM214.546 102.144C214.058 102.144 213.65 102.056 213.322 101.88C213.002 101.704 212.762 101.472 212.602 101.184C212.442 100.896 212.362 100.58 212.362 100.236C212.362 99.828 212.466 99.48 212.674 99.192C212.89 98.904 213.19 98.688 213.574 98.544C213.958 98.392 214.41 98.316 214.93 98.316H216.514C216.514 97.924 216.462 97.6 216.358 97.344C216.254 97.08 216.09 96.884 215.866 96.756C215.65 96.62 215.374 96.552 215.038 96.552C214.662 96.552 214.338 96.648 214.066 96.84C213.794 97.024 213.626 97.3 213.562 97.668H212.53C212.578 97.244 212.722 96.888 212.962 96.6C213.202 96.304 213.506 96.08 213.874 95.928C214.242 95.776 214.63 95.7 215.038 95.7C215.598 95.7 216.062 95.804 216.43 96.012C216.798 96.212 217.07 96.496 217.246 96.864C217.43 97.224 217.522 97.652 217.522 98.148V102H216.622L216.562 100.92C216.482 101.088 216.378 101.248 216.25 101.4C216.13 101.544 215.986 101.672 215.818 101.784C215.658 101.896 215.47 101.984 215.254 102.048C215.038 102.112 214.802 102.144 214.546 102.144ZM214.69 101.292C214.962 101.292 215.21 101.232 215.434 101.112C215.666 100.992 215.862 100.832 216.022 100.632C216.182 100.432 216.302 100.208 216.382 99.96C216.47 99.704 216.514 99.44 216.514 99.168V99.096H215.014C214.63 99.096 214.318 99.144 214.078 99.24C213.846 99.328 213.678 99.456 213.574 99.624C213.47 99.792 213.418 99.98 213.418 100.188C213.418 100.412 213.466 100.608 213.562 100.776C213.658 100.936 213.802 101.064 213.994 101.16C214.186 101.248 214.418 101.292 214.69 101.292ZM219.129 102V95.844H220.041L220.101 96.876C220.285 96.508 220.553 96.22 220.905 96.012C221.257 95.804 221.661 95.7 222.117 95.7C222.589 95.7 222.997 95.792 223.341 95.976C223.685 96.16 223.953 96.44 224.145 96.816C224.337 97.184 224.433 97.652 224.433 98.22V102H223.425V98.328C223.425 97.744 223.289 97.304 223.017 97.008C222.745 96.712 222.369 96.564 221.889 96.564C221.569 96.564 221.273 96.644 221.001 96.804C220.737 96.964 220.525 97.196 220.365 97.5C220.213 97.796 220.137 98.164 220.137 98.604V102H219.129ZM228.683 102.144C228.107 102.144 227.599 102.004 227.159 101.724C226.727 101.444 226.387 101.06 226.139 100.572C225.899 100.084 225.779 99.532 225.779 98.916C225.779 98.292 225.899 97.74 226.139 97.26C226.387 96.78 226.727 96.4 227.159 96.12C227.599 95.84 228.111 95.7 228.695 95.7C229.183 95.7 229.611 95.8 229.979 96C230.347 96.2 230.631 96.48 230.831 96.84V93.36H231.839V102H230.927L230.843 101.004C230.723 101.196 230.563 101.38 230.363 101.556C230.163 101.732 229.923 101.876 229.643 101.988C229.371 102.092 229.051 102.144 228.683 102.144ZM228.803 101.268C229.203 101.268 229.551 101.172 229.847 100.98C230.151 100.788 230.383 100.516 230.543 100.164C230.711 99.812 230.795 99.4 230.795 98.928C230.795 98.448 230.711 98.036 230.543 97.692C230.383 97.34 230.151 97.068 229.847 96.876C229.551 96.676 229.203 96.576 228.803 96.576C228.419 96.576 228.075 96.676 227.771 96.876C227.475 97.068 227.239 97.34 227.063 97.692C226.895 98.036 226.811 98.448 226.811 98.928C226.811 99.4 226.895 99.812 227.063 100.164C227.239 100.516 227.475 100.788 227.771 100.98C228.075 101.172 228.419 101.268 228.803 101.268ZM239.887 102.144C239.535 102.144 239.219 102.092 238.939 101.988C238.667 101.884 238.427 101.748 238.219 101.58C238.019 101.404 237.859 101.216 237.739 101.016L237.643 102H236.731V93.36H237.739V96.84C237.931 96.504 238.211 96.232 238.579 96.024C238.947 95.808 239.383 95.7 239.887 95.7C240.471 95.7 240.979 95.84 241.411 96.12C241.851 96.4 242.191 96.78 242.431 97.26C242.671 97.74 242.791 98.292 242.791 98.916C242.791 99.532 242.671 100.084 242.431 100.572C242.191 101.06 241.851 101.444 241.411 101.724C240.979 102.004 240.471 102.144 239.887 102.144ZM239.767 101.268C240.159 101.268 240.503 101.172 240.799 100.98C241.095 100.788 241.327 100.516 241.495 100.164C241.671 99.812 241.759 99.4 241.759 98.928C241.759 98.448 241.671 98.036 241.495 97.692C241.327 97.34 241.095 97.068 240.799 96.876C240.503 96.676 240.159 96.576 239.767 96.576C239.367 96.576 239.015 96.676 238.711 96.876C238.415 97.068 238.183 97.34 238.015 97.692C237.855 98.036 237.775 98.448 237.775 98.928C237.775 99.4 237.855 99.812 238.015 100.164C238.183 100.516 238.415 100.788 238.711 100.98C239.015 101.172 239.367 101.268 239.767 101.268ZM246.871 102.144C246.311 102.144 245.811 102.012 245.371 101.748C244.939 101.476 244.599 101.1 244.351 100.62C244.103 100.132 243.979 99.568 243.979 98.928C243.979 98.28 244.103 97.716 244.351 97.236C244.599 96.748 244.939 96.372 245.371 96.108C245.811 95.836 246.319 95.7 246.895 95.7C247.495 95.7 247.999 95.836 248.407 96.108C248.823 96.372 249.139 96.724 249.355 97.164C249.571 97.604 249.679 98.084 249.679 98.604C249.679 98.684 249.679 98.768 249.679 98.856C249.679 98.944 249.675 99.044 249.667 99.156H244.735V98.376H248.683C248.667 97.792 248.487 97.344 248.143 97.032C247.807 96.712 247.383 96.552 246.871 96.552C246.535 96.552 246.223 96.632 245.935 96.792C245.647 96.952 245.411 97.188 245.227 97.5C245.051 97.804 244.963 98.188 244.963 98.652V98.988C244.963 99.492 245.051 99.916 245.227 100.26C245.411 100.604 245.647 100.864 245.935 101.04C246.223 101.208 246.535 101.292 246.871 101.292C247.311 101.292 247.663 101.204 247.927 101.028C248.191 100.844 248.387 100.588 248.515 100.26H249.511C249.407 100.62 249.235 100.944 248.995 101.232C248.763 101.512 248.467 101.736 248.107 101.904C247.755 102.064 247.343 102.144 246.871 102.144ZM256.95 102.144C256.374 102.144 255.862 102.012 255.414 101.748C254.966 101.484 254.614 101.112 254.358 100.632C254.11 100.144 253.986 99.576 253.986 98.928C253.986 98.272 254.114 97.704 254.37 97.224C254.626 96.744 254.978 96.372 255.426 96.108C255.882 95.836 256.398 95.7 256.974 95.7C257.55 95.7 258.062 95.836 258.51 96.108C258.958 96.372 259.306 96.744 259.554 97.224C259.81 97.704 259.938 98.272 259.938 98.928C259.938 99.576 259.81 100.144 259.554 100.632C259.298 101.112 258.942 101.484 258.486 101.748C258.038 102.012 257.526 102.144 256.95 102.144ZM256.95 101.28C257.31 101.28 257.638 101.192 257.934 101.016C258.23 100.84 258.466 100.576 258.642 100.224C258.818 99.872 258.906 99.44 258.906 98.928C258.906 98.4 258.818 97.964 258.642 97.62C258.474 97.268 258.242 97.004 257.946 96.828C257.65 96.652 257.326 96.564 256.974 96.564C256.622 96.564 256.298 96.652 256.002 96.828C255.706 97.004 255.466 97.268 255.282 97.62C255.106 97.964 255.018 98.4 255.018 98.928C255.018 99.44 255.106 99.872 255.282 100.224C255.458 100.576 255.69 100.84 255.978 101.016C256.274 101.192 256.598 101.28 256.95 101.28ZM261.375 102V95.844H262.287L262.347 96.876C262.531 96.508 262.799 96.22 263.151 96.012C263.503 95.804 263.907 95.7 264.363 95.7C264.835 95.7 265.243 95.792 265.587 95.976C265.931 96.16 266.199 96.44 266.391 96.816C266.583 97.184 266.679 97.652 266.679 98.22V102H265.671V98.328C265.671 97.744 265.535 97.304 265.263 97.008C264.991 96.712 264.615 96.564 264.135 96.564C263.815 96.564 263.519 96.644 263.247 96.804C262.983 96.964 262.771 97.196 262.611 97.5C262.459 97.796 262.383 98.164 262.383 98.604V102H261.375ZM273.889 102C273.529 102 273.217 101.944 272.953 101.832C272.689 101.72 272.485 101.532 272.341 101.268C272.205 100.996 272.137 100.632 272.137 100.176V96.696H271.057V95.844H272.137L272.269 94.344H273.145V95.844H274.909V96.696H273.145V100.176C273.145 100.552 273.221 100.808 273.373 100.944C273.525 101.072 273.793 101.136 274.177 101.136H274.849V102H273.889ZM278.794 102.144C278.218 102.144 277.706 102.012 277.258 101.748C276.81 101.484 276.458 101.112 276.202 100.632C275.954 100.144 275.83 99.576 275.83 98.928C275.83 98.272 275.958 97.704 276.214 97.224C276.47 96.744 276.822 96.372 277.27 96.108C277.726 95.836 278.242 95.7 278.818 95.7C279.394 95.7 279.906 95.836 280.354 96.108C280.802 96.372 281.15 96.744 281.398 97.224C281.654 97.704 281.782 98.272 281.782 98.928C281.782 99.576 281.654 100.144 281.398 100.632C281.142 101.112 280.786 101.484 280.33 101.748C279.882 102.012 279.37 102.144 278.794 102.144ZM278.794 101.28C279.154 101.28 279.482 101.192 279.778 101.016C280.074 100.84 280.31 100.576 280.486 100.224C280.662 99.872 280.75 99.44 280.75 98.928C280.75 98.4 280.662 97.964 280.486 97.62C280.318 97.268 280.086 97.004 279.79 96.828C279.494 96.652 279.17 96.564 278.818 96.564C278.466 96.564 278.142 96.652 277.846 96.828C277.55 97.004 277.31 97.268 277.126 97.62C276.95 97.964 276.862 98.4 276.862 98.928C276.862 99.44 276.95 99.872 277.126 100.224C277.302 100.576 277.534 100.84 277.822 101.016C278.118 101.192 278.442 101.28 278.794 101.28ZM283.219 104.64V95.844H284.131L284.227 96.828C284.355 96.628 284.515 96.444 284.707 96.276C284.907 96.108 285.147 95.972 285.427 95.868C285.707 95.756 286.027 95.7 286.387 95.7C286.963 95.7 287.467 95.844 287.899 96.132C288.331 96.412 288.667 96.796 288.907 97.284C289.155 97.764 289.279 98.316 289.279 98.94C289.279 99.556 289.155 100.108 288.907 100.596C288.667 101.076 288.327 101.456 287.887 101.736C287.455 102.008 286.951 102.144 286.375 102.144C285.887 102.144 285.455 102.044 285.079 101.844C284.711 101.644 284.427 101.364 284.227 101.004V104.64H283.219ZM286.255 101.268C286.647 101.268 286.991 101.172 287.287 100.98C287.583 100.788 287.815 100.516 287.983 100.164C288.159 99.812 288.247 99.4 288.247 98.928C288.247 98.448 288.159 98.036 287.983 97.692C287.815 97.34 287.583 97.068 287.287 96.876C286.991 96.676 286.647 96.576 286.255 96.576C285.855 96.576 285.503 96.676 285.199 96.876C284.903 97.068 284.671 97.34 284.503 97.692C284.343 98.036 284.263 98.448 284.263 98.928C284.263 99.4 284.343 99.812 284.503 100.164C284.671 100.516 284.903 100.788 285.199 100.98C285.503 101.172 285.855 101.268 286.255 101.268ZM296.63 102.144C296.054 102.144 295.542 102.012 295.094 101.748C294.646 101.484 294.294 101.112 294.038 100.632C293.79 100.144 293.666 99.576 293.666 98.928C293.666 98.272 293.794 97.704 294.05 97.224C294.306 96.744 294.658 96.372 295.106 96.108C295.562 95.836 296.078 95.7 296.654 95.7C297.23 95.7 297.742 95.836 298.19 96.108C298.638 96.372 298.986 96.744 299.234 97.224C299.49 97.704 299.618 98.272 299.618 98.928C299.618 99.576 299.49 100.144 299.234 100.632C298.978 101.112 298.622 101.484 298.166 101.748C297.718 102.012 297.206 102.144 296.63 102.144ZM296.63 101.28C296.99 101.28 297.318 101.192 297.614 101.016C297.91 100.84 298.146 100.576 298.322 100.224C298.498 99.872 298.586 99.44 298.586 98.928C298.586 98.4 298.498 97.964 298.322 97.62C298.154 97.268 297.922 97.004 297.626 96.828C297.33 96.652 297.006 96.564 296.654 96.564C296.302 96.564 295.978 96.652 295.682 96.828C295.386 97.004 295.146 97.268 294.962 97.62C294.786 97.964 294.698 98.4 294.698 98.928C294.698 99.44 294.786 99.872 294.962 100.224C295.138 100.576 295.37 100.84 295.658 101.016C295.954 101.192 296.278 101.28 296.63 101.28ZM301.415 102V95.016C301.415 94.632 301.479 94.32 301.607 94.08C301.735 93.832 301.923 93.652 302.171 93.54C302.427 93.42 302.739 93.36 303.107 93.36H303.887V94.224H303.275C302.971 94.224 302.751 94.288 302.615 94.416C302.487 94.536 302.423 94.748 302.423 95.052V102H301.415ZM300.479 96.696V95.844H304.007V96.696H300.479ZM166.774 124.64L168.226 121.328H167.878L165.514 115.844H166.606L168.574 120.56L170.626 115.844H171.67L167.818 124.64H166.774ZM174.919 122.144C174.343 122.144 173.831 122.012 173.383 121.748C172.935 121.484 172.583 121.112 172.327 120.632C172.079 120.144 171.955 119.576 171.955 118.928C171.955 118.272 172.083 117.704 172.339 117.224C172.595 116.744 172.947 116.372 173.395 116.108C173.851 115.836 174.367 115.7 174.943 115.7C175.519 115.7 176.031 115.836 176.479 116.108C176.927 116.372 177.275 116.744 177.523 117.224C177.779 117.704 177.907 118.272 177.907 118.928C177.907 119.576 177.779 120.144 177.523 120.632C177.267 121.112 176.911 121.484 176.455 121.748C176.007 122.012 175.495 122.144 174.919 122.144ZM174.919 121.28C175.279 121.28 175.607 121.192 175.903 121.016C176.199 120.84 176.435 120.576 176.611 120.224C176.787 119.872 176.875 119.44 176.875 118.928C176.875 118.4 176.787 117.964 176.611 117.62C176.443 117.268 176.211 117.004 175.915 116.828C175.619 116.652 175.295 116.564 174.943 116.564C174.591 116.564 174.267 116.652 173.971 116.828C173.675 117.004 173.435 117.268 173.251 117.62C173.075 117.964 172.987 118.4 172.987 118.928C172.987 119.44 173.075 119.872 173.251 120.224C173.427 120.576 173.659 120.84 173.947 121.016C174.243 121.192 174.567 121.28 174.919 121.28ZM181.576 122.144C181.112 122.144 180.704 122.056 180.352 121.88C180.008 121.696 179.74 121.416 179.548 121.04C179.364 120.664 179.272 120.192 179.272 119.624V115.844H180.28V119.516C180.28 120.108 180.412 120.552 180.676 120.848C180.948 121.136 181.32 121.28 181.792 121.28C182.128 121.28 182.428 121.204 182.692 121.052C182.956 120.892 183.164 120.66 183.316 120.356C183.476 120.052 183.556 119.684 183.556 119.252V115.844H184.564V122H183.652L183.592 120.968C183.408 121.336 183.14 121.624 182.788 121.832C182.436 122.04 182.032 122.144 181.576 122.144ZM186.246 122V115.844H187.158L187.242 116.996C187.378 116.716 187.554 116.48 187.77 116.288C187.994 116.096 188.262 115.952 188.574 115.856C188.886 115.752 189.238 115.7 189.63 115.7V116.756H189.162C188.914 116.756 188.674 116.792 188.442 116.864C188.218 116.928 188.014 117.036 187.83 117.188C187.654 117.332 187.514 117.532 187.41 117.788C187.306 118.044 187.254 118.364 187.254 118.748V122H186.246ZM197.137 122.144C196.785 122.144 196.469 122.092 196.189 121.988C195.917 121.884 195.677 121.748 195.469 121.58C195.269 121.404 195.109 121.216 194.989 121.016L194.893 122H193.981V113.36H194.989V116.84C195.181 116.504 195.461 116.232 195.829 116.024C196.197 115.808 196.633 115.7 197.137 115.7C197.721 115.7 198.229 115.84 198.661 116.12C199.101 116.4 199.441 116.78 199.681 117.26C199.921 117.74 200.041 118.292 200.041 118.916C200.041 119.532 199.921 120.084 199.681 120.572C199.441 121.06 199.101 121.444 198.661 121.724C198.229 122.004 197.721 122.144 197.137 122.144ZM197.017 121.268C197.409 121.268 197.753 121.172 198.049 120.98C198.345 120.788 198.577 120.516 198.745 120.164C198.921 119.812 199.009 119.4 199.009 118.928C199.009 118.448 198.921 118.036 198.745 117.692C198.577 117.34 198.345 117.068 198.049 116.876C197.753 116.676 197.409 116.576 197.017 116.576C196.617 116.576 196.265 116.676 195.961 116.876C195.665 117.068 195.433 117.34 195.265 117.692C195.105 118.036 195.025 118.448 195.025 118.928C195.025 119.4 195.105 119.812 195.265 120.164C195.433 120.516 195.665 120.788 195.961 120.98C196.265 121.172 196.617 121.268 197.017 121.268ZM203.713 122.144C203.249 122.144 202.841 122.056 202.489 121.88C202.145 121.696 201.877 121.416 201.685 121.04C201.501 120.664 201.409 120.192 201.409 119.624V115.844H202.417V119.516C202.417 120.108 202.549 120.552 202.813 120.848C203.085 121.136 203.457 121.28 203.929 121.28C204.265 121.28 204.565 121.204 204.829 121.052C205.093 120.892 205.301 120.66 205.453 120.356C205.613 120.052 205.693 119.684 205.693 119.252V115.844H206.701V122H205.789L205.729 120.968C205.545 121.336 205.277 121.624 204.925 121.832C204.573 122.04 204.169 122.144 203.713 122.144ZM210.663 122.144C210.135 122.144 209.683 122.06 209.307 121.892C208.939 121.724 208.651 121.488 208.443 121.184C208.235 120.88 208.107 120.524 208.059 120.116H209.091C209.131 120.324 209.211 120.52 209.331 120.704C209.459 120.88 209.631 121.024 209.847 121.136C210.071 121.24 210.347 121.292 210.675 121.292C210.955 121.292 211.187 121.252 211.371 121.172C211.563 121.084 211.703 120.968 211.791 120.824C211.887 120.672 211.935 120.508 211.935 120.332C211.935 120.076 211.875 119.88 211.755 119.744C211.643 119.608 211.475 119.504 211.251 119.432C211.035 119.352 210.767 119.288 210.447 119.24C210.143 119.192 209.859 119.128 209.595 119.048C209.339 118.96 209.111 118.848 208.911 118.712C208.719 118.576 208.567 118.408 208.455 118.208C208.351 118 208.299 117.752 208.299 117.464C208.299 117.12 208.387 116.816 208.563 116.552C208.747 116.288 209.003 116.08 209.331 115.928C209.667 115.776 210.063 115.7 210.519 115.7C211.175 115.7 211.703 115.856 212.103 116.168C212.503 116.48 212.739 116.928 212.811 117.512H211.815C211.775 117.216 211.639 116.984 211.407 116.816C211.183 116.64 210.883 116.552 210.507 116.552C210.115 116.552 209.819 116.628 209.619 116.78C209.419 116.932 209.319 117.132 209.319 117.38C209.319 117.556 209.367 117.712 209.463 117.848C209.567 117.976 209.727 118.088 209.943 118.184C210.167 118.272 210.447 118.344 210.783 118.4C211.207 118.464 211.583 118.556 211.911 118.676C212.239 118.796 212.499 118.98 212.691 119.228C212.883 119.468 212.975 119.808 212.967 120.248C212.975 120.632 212.883 120.968 212.691 121.256C212.499 121.544 212.231 121.764 211.887 121.916C211.543 122.068 211.135 122.144 210.663 122.144ZM214.549 122V115.844H215.557V122H214.549ZM215.053 114.596C214.853 114.596 214.685 114.532 214.549 114.404C214.421 114.268 214.357 114.1 214.357 113.9C214.357 113.7 214.421 113.54 214.549 113.42C214.685 113.292 214.853 113.228 215.053 113.228C215.245 113.228 215.409 113.292 215.545 113.42C215.681 113.54 215.749 113.7 215.749 113.9C215.749 114.1 215.681 114.268 215.545 114.404C215.409 114.532 215.245 114.596 215.053 114.596ZM217.324 122V115.844H218.236L218.296 116.876C218.48 116.508 218.748 116.22 219.1 116.012C219.452 115.804 219.856 115.7 220.312 115.7C220.784 115.7 221.192 115.792 221.536 115.976C221.88 116.16 222.148 116.44 222.34 116.816C222.532 117.184 222.628 117.652 222.628 118.22V122H221.62V118.328C221.62 117.744 221.484 117.304 221.212 117.008C220.94 116.712 220.564 116.564 220.084 116.564C219.764 116.564 219.468 116.644 219.196 116.804C218.932 116.964 218.72 117.196 218.56 117.5C218.408 117.796 218.332 118.164 218.332 118.604V122H217.324ZM226.867 122.144C226.307 122.144 225.807 122.012 225.367 121.748C224.935 121.476 224.595 121.1 224.347 120.62C224.099 120.132 223.975 119.568 223.975 118.928C223.975 118.28 224.099 117.716 224.347 117.236C224.595 116.748 224.935 116.372 225.367 116.108C225.807 115.836 226.315 115.7 226.891 115.7C227.491 115.7 227.995 115.836 228.403 116.108C228.819 116.372 229.135 116.724 229.351 117.164C229.567 117.604 229.675 118.084 229.675 118.604C229.675 118.684 229.675 118.768 229.675 118.856C229.675 118.944 229.671 119.044 229.663 119.156H224.731V118.376H228.679C228.663 117.792 228.483 117.344 228.139 117.032C227.803 116.712 227.379 116.552 226.867 116.552C226.531 116.552 226.219 116.632 225.931 116.792C225.643 116.952 225.407 117.188 225.223 117.5C225.047 117.804 224.959 118.188 224.959 118.652V118.988C224.959 119.492 225.047 119.916 225.223 120.26C225.407 120.604 225.643 120.864 225.931 121.04C226.219 121.208 226.531 121.292 226.867 121.292C227.307 121.292 227.659 121.204 227.923 121.028C228.187 120.844 228.383 120.588 228.511 120.26H229.507C229.403 120.62 229.231 120.944 228.991 121.232C228.759 121.512 228.463 121.736 228.103 121.904C227.751 122.064 227.339 122.144 226.867 122.144ZM233.315 122.144C232.787 122.144 232.335 122.06 231.959 121.892C231.591 121.724 231.303 121.488 231.095 121.184C230.887 120.88 230.759 120.524 230.711 120.116H231.743C231.783 120.324 231.863 120.52 231.983 120.704C232.111 120.88 232.283 121.024 232.499 121.136C232.723 121.24 232.999 121.292 233.327 121.292C233.607 121.292 233.839 121.252 234.023 121.172C234.215 121.084 234.355 120.968 234.443 120.824C234.539 120.672 234.587 120.508 234.587 120.332C234.587 120.076 234.527 119.88 234.407 119.744C234.295 119.608 234.127 119.504 233.903 119.432C233.687 119.352 233.419 119.288 233.099 119.24C232.795 119.192 232.511 119.128 232.247 119.048C231.991 118.96 231.763 118.848 231.563 118.712C231.371 118.576 231.219 118.408 231.107 118.208C231.003 118 230.951 117.752 230.951 117.464C230.951 117.12 231.039 116.816 231.215 116.552C231.399 116.288 231.655 116.08 231.983 115.928C232.319 115.776 232.715 115.7 233.171 115.7C233.827 115.7 234.355 115.856 234.755 116.168C235.155 116.48 235.391 116.928 235.463 117.512H234.467C234.427 117.216 234.291 116.984 234.059 116.816C233.835 116.64 233.535 116.552 233.159 116.552C232.767 116.552 232.471 116.628 232.271 116.78C232.071 116.932 231.971 117.132 231.971 117.38C231.971 117.556 232.019 117.712 232.115 117.848C232.219 117.976 232.379 118.088 232.595 118.184C232.819 118.272 233.099 118.344 233.435 118.4C233.859 118.464 234.235 118.556 234.563 118.676C234.891 118.796 235.151 118.98 235.343 119.228C235.535 119.468 235.627 119.808 235.619 120.248C235.627 120.632 235.535 120.968 235.343 121.256C235.151 121.544 234.883 121.764 234.539 121.916C234.195 122.068 233.787 122.144 233.315 122.144ZM239.374 122.144C238.846 122.144 238.394 122.06 238.018 121.892C237.65 121.724 237.362 121.488 237.154 121.184C236.946 120.88 236.818 120.524 236.77 120.116H237.802C237.842 120.324 237.922 120.52 238.042 120.704C238.17 120.88 238.342 121.024 238.558 121.136C238.782 121.24 239.058 121.292 239.386 121.292C239.666 121.292 239.898 121.252 240.082 121.172C240.274 121.084 240.414 120.968 240.502 120.824C240.598 120.672 240.646 120.508 240.646 120.332C240.646 120.076 240.586 119.88 240.466 119.744C240.354 119.608 240.186 119.504 239.962 119.432C239.746 119.352 239.478 119.288 239.158 119.24C238.854 119.192 238.57 119.128 238.306 119.048C238.05 118.96 237.822 118.848 237.622 118.712C237.43 118.576 237.278 118.408 237.166 118.208C237.062 118 237.01 117.752 237.01 117.464C237.01 117.12 237.098 116.816 237.274 116.552C237.458 116.288 237.714 116.08 238.042 115.928C238.378 115.776 238.774 115.7 239.23 115.7C239.886 115.7 240.414 115.856 240.814 116.168C241.214 116.48 241.45 116.928 241.522 117.512H240.526C240.486 117.216 240.35 116.984 240.118 116.816C239.894 116.64 239.594 116.552 239.218 116.552C238.826 116.552 238.53 116.628 238.33 116.78C238.13 116.932 238.03 117.132 238.03 117.38C238.03 117.556 238.078 117.712 238.174 117.848C238.278 117.976 238.438 118.088 238.654 118.184C238.878 118.272 239.158 118.344 239.494 118.4C239.918 118.464 240.294 118.556 240.622 118.676C240.95 118.796 241.21 118.98 241.402 119.228C241.594 119.468 241.686 119.808 241.678 120.248C241.686 120.632 241.594 120.968 241.402 121.256C241.21 121.544 240.942 121.764 240.598 121.916C240.254 122.068 239.846 122.144 239.374 122.144ZM247.612 122L245.812 115.844H246.82L248.2 120.92H248.08L249.568 115.844H250.708L252.22 120.908L252.1 120.92L253.468 115.844H254.488L252.688 122H251.656L250.084 116.696H250.204L248.644 122H247.612ZM255.741 122V115.844H256.749V122H255.741ZM256.245 114.596C256.045 114.596 255.877 114.532 255.741 114.404C255.613 114.268 255.549 114.1 255.549 113.9C255.549 113.7 255.613 113.54 255.741 113.42C255.877 113.292 256.045 113.228 256.245 113.228C256.437 113.228 256.601 113.292 256.737 113.42C256.873 113.54 256.941 113.7 256.941 113.9C256.941 114.1 256.873 114.268 256.737 114.404C256.601 114.532 256.437 114.596 256.245 114.596ZM260.928 122C260.568 122 260.256 121.944 259.992 121.832C259.728 121.72 259.524 121.532 259.38 121.268C259.244 120.996 259.176 120.632 259.176 120.176V116.696H258.096V115.844H259.176L259.308 114.344H260.184V115.844H261.948V116.696H260.184V120.176C260.184 120.552 260.26 120.808 260.412 120.944C260.564 121.072 260.832 121.136 261.216 121.136H261.888V122H260.928ZM263.285 122V113.36H264.293V116.864C264.501 116.504 264.785 116.22 265.145 116.012C265.505 115.804 265.897 115.7 266.321 115.7C266.801 115.7 267.209 115.792 267.545 115.976C267.889 116.16 268.153 116.444 268.337 116.828C268.521 117.204 268.613 117.68 268.613 118.256V122H267.617V118.364C267.617 117.772 267.485 117.324 267.221 117.02C266.957 116.716 266.585 116.564 266.105 116.564C265.777 116.564 265.473 116.648 265.193 116.816C264.921 116.976 264.701 117.212 264.533 117.524C264.373 117.828 264.293 118.204 264.293 118.652V122H263.285ZM277.094 122.144C276.286 122.144 275.586 121.964 274.994 121.604C274.41 121.236 273.958 120.728 273.638 120.08C273.318 119.424 273.158 118.664 273.158 117.8C273.158 116.936 273.318 116.18 273.638 115.532C273.958 114.876 274.41 114.368 274.994 114.008C275.586 113.64 276.286 113.456 277.094 113.456C278.054 113.456 278.83 113.684 279.422 114.14C280.022 114.596 280.406 115.24 280.574 116.072H279.47C279.334 115.552 279.07 115.136 278.678 114.824C278.294 114.504 277.766 114.344 277.094 114.344C276.51 114.344 275.998 114.484 275.558 114.764C275.118 115.036 274.778 115.432 274.538 115.952C274.306 116.464 274.19 117.08 274.19 117.8C274.19 118.52 274.306 119.14 274.538 119.66C274.778 120.172 275.118 120.568 275.558 120.848C275.998 121.12 276.51 121.256 277.094 121.256C277.766 121.256 278.294 121.104 278.678 120.8C279.07 120.488 279.334 120.076 279.47 119.564H280.574C280.406 120.372 280.022 121.004 279.422 121.46C278.83 121.916 278.054 122.144 277.094 122.144ZM283.968 122.144C283.48 122.144 283.072 122.056 282.744 121.88C282.424 121.704 282.184 121.472 282.024 121.184C281.864 120.896 281.784 120.58 281.784 120.236C281.784 119.828 281.888 119.48 282.096 119.192C282.312 118.904 282.612 118.688 282.996 118.544C283.38 118.392 283.832 118.316 284.352 118.316H285.936C285.936 117.924 285.884 117.6 285.78 117.344C285.676 117.08 285.512 116.884 285.288 116.756C285.072 116.62 284.796 116.552 284.46 116.552C284.084 116.552 283.76 116.648 283.488 116.84C283.216 117.024 283.048 117.3 282.984 117.668H281.952C282 117.244 282.144 116.888 282.384 116.6C282.624 116.304 282.928 116.08 283.296 115.928C283.664 115.776 284.052 115.7 284.46 115.7C285.02 115.7 285.484 115.804 285.852 116.012C286.22 116.212 286.492 116.496 286.668 116.864C286.852 117.224 286.944 117.652 286.944 118.148V122H286.044L285.984 120.92C285.904 121.088 285.8 121.248 285.672 121.4C285.552 121.544 285.408 121.672 285.24 121.784C285.08 121.896 284.892 121.984 284.676 122.048C284.46 122.112 284.224 122.144 283.968 122.144ZM284.112 121.292C284.384 121.292 284.632 121.232 284.856 121.112C285.088 120.992 285.284 120.832 285.444 120.632C285.604 120.432 285.724 120.208 285.804 119.96C285.892 119.704 285.936 119.44 285.936 119.168V119.096H284.436C284.052 119.096 283.74 119.144 283.5 119.24C283.268 119.328 283.1 119.456 282.996 119.624C282.892 119.792 282.84 119.98 282.84 120.188C282.84 120.412 282.888 120.608 282.984 120.776C283.08 120.936 283.224 121.064 283.416 121.16C283.608 121.248 283.84 121.292 284.112 121.292ZM288.551 122V115.844H289.463L289.547 116.996C289.683 116.716 289.859 116.48 290.075 116.288C290.299 116.096 290.567 115.952 290.879 115.856C291.191 115.752 291.543 115.7 291.935 115.7V116.756H291.467C291.219 116.756 290.979 116.792 290.747 116.864C290.523 116.928 290.319 117.036 290.135 117.188C289.959 117.332 289.819 117.532 289.715 117.788C289.611 118.044 289.559 118.364 289.559 118.748V122H288.551ZM295.503 122.144C294.943 122.144 294.443 122.012 294.003 121.748C293.571 121.476 293.231 121.1 292.983 120.62C292.735 120.132 292.611 119.568 292.611 118.928C292.611 118.28 292.735 117.716 292.983 117.236C293.231 116.748 293.571 116.372 294.003 116.108C294.443 115.836 294.951 115.7 295.527 115.7C296.127 115.7 296.631 115.836 297.039 116.108C297.455 116.372 297.771 116.724 297.987 117.164C298.203 117.604 298.311 118.084 298.311 118.604C298.311 118.684 298.311 118.768 298.311 118.856C298.311 118.944 298.307 119.044 298.299 119.156H293.367V118.376H297.315C297.299 117.792 297.119 117.344 296.775 117.032C296.439 116.712 296.015 116.552 295.503 116.552C295.167 116.552 294.855 116.632 294.567 116.792C294.279 116.952 294.043 117.188 293.859 117.5C293.683 117.804 293.595 118.188 293.595 118.652V118.988C293.595 119.492 293.683 119.916 293.859 120.26C294.043 120.604 294.279 120.864 294.567 121.04C294.855 121.208 295.167 121.292 295.503 121.292C295.943 121.292 296.295 121.204 296.559 121.028C296.823 120.844 297.019 120.588 297.147 120.26H298.143C298.039 120.62 297.867 120.944 297.627 121.232C297.395 121.512 297.099 121.736 296.739 121.904C296.387 122.064 295.975 122.144 295.503 122.144ZM299.744 122V113.6H302.468C303.132 113.6 303.676 113.712 304.1 113.936C304.532 114.152 304.852 114.448 305.06 114.824C305.268 115.2 305.372 115.624 305.372 116.096C305.372 116.56 305.268 116.98 305.06 117.356C304.86 117.732 304.544 118.032 304.112 118.256C303.688 118.48 303.14 118.592 302.468 118.592H300.752V122H299.744ZM300.752 117.74H302.444C303.132 117.74 303.62 117.592 303.908 117.296C304.196 116.992 304.34 116.592 304.34 116.096C304.34 115.576 304.196 115.172 303.908 114.884C303.62 114.588 303.132 114.44 302.444 114.44H300.752V117.74ZM308.355 122.144C307.867 122.144 307.459 122.056 307.131 121.88C306.811 121.704 306.571 121.472 306.411 121.184C306.251 120.896 306.171 120.58 306.171 120.236C306.171 119.828 306.275 119.48 306.483 119.192C306.699 118.904 306.999 118.688 307.383 118.544C307.767 118.392 308.219 118.316 308.739 118.316H310.323C310.323 117.924 310.271 117.6 310.167 117.344C310.063 117.08 309.899 116.884 309.675 116.756C309.459 116.62 309.183 116.552 308.847 116.552C308.471 116.552 308.147 116.648 307.875 116.84C307.603 117.024 307.435 117.3 307.371 117.668H306.339C306.387 117.244 306.531 116.888 306.771 116.6C307.011 116.304 307.315 116.08 307.683 115.928C308.051 115.776 308.439 115.7 308.847 115.7C309.407 115.7 309.871 115.804 310.239 116.012C310.607 116.212 310.879 116.496 311.055 116.864C311.239 117.224 311.331 117.652 311.331 118.148V122H310.431L310.371 120.92C310.291 121.088 310.187 121.248 310.059 121.4C309.939 121.544 309.795 121.672 309.627 121.784C309.467 121.896 309.279 121.984 309.063 122.048C308.847 122.112 308.611 122.144 308.355 122.144ZM308.499 121.292C308.771 121.292 309.019 121.232 309.243 121.112C309.475 120.992 309.671 120.832 309.831 120.632C309.991 120.432 310.111 120.208 310.191 119.96C310.279 119.704 310.323 119.44 310.323 119.168V119.096H308.823C308.439 119.096 308.127 119.144 307.887 119.24C307.655 119.328 307.487 119.456 307.383 119.624C307.279 119.792 307.227 119.98 307.227 120.188C307.227 120.412 307.275 120.608 307.371 120.776C307.467 120.936 307.611 121.064 307.803 121.16C307.995 121.248 308.227 121.292 308.499 121.292ZM313.446 124.64L314.898 121.328H314.55L312.186 115.844H313.278L315.246 120.56L317.298 115.844H318.342L314.49 124.64H313.446ZM320.761 113.6L319.681 116.456H318.961L319.633 113.6H320.761ZM323.725 122.144C323.197 122.144 322.745 122.06 322.369 121.892C322.001 121.724 321.713 121.488 321.505 121.184C321.297 120.88 321.169 120.524 321.121 120.116H322.153C322.193 120.324 322.273 120.52 322.393 120.704C322.521 120.88 322.693 121.024 322.909 121.136C323.133 121.24 323.409 121.292 323.737 121.292C324.017 121.292 324.249 121.252 324.433 121.172C324.625 121.084 324.765 120.968 324.853 120.824C324.949 120.672 324.997 120.508 324.997 120.332C324.997 120.076 324.937 119.88 324.817 119.744C324.705 119.608 324.537 119.504 324.313 119.432C324.097 119.352 323.829 119.288 323.509 119.24C323.205 119.192 322.921 119.128 322.657 119.048C322.401 118.96 322.173 118.848 321.973 118.712C321.781 118.576 321.629 118.408 321.517 118.208C321.413 118 321.361 117.752 321.361 117.464C321.361 117.12 321.449 116.816 321.625 116.552C321.809 116.288 322.065 116.08 322.393 115.928C322.729 115.776 323.125 115.7 323.581 115.7C324.237 115.7 324.765 115.856 325.165 116.168C325.565 116.48 325.801 116.928 325.873 117.512H324.877C324.837 117.216 324.701 116.984 324.469 116.816C324.245 116.64 323.945 116.552 323.569 116.552C323.177 116.552 322.881 116.628 322.681 116.78C322.481 116.932 322.381 117.132 322.381 117.38C322.381 117.556 322.429 117.712 322.525 117.848C322.629 117.976 322.789 118.088 323.005 118.184C323.229 118.272 323.509 118.344 323.845 118.4C324.269 118.464 324.645 118.556 324.973 118.676C325.301 118.796 325.561 118.98 325.753 119.228C325.945 119.468 326.037 119.808 326.029 120.248C326.037 120.632 325.945 120.968 325.753 121.256C325.561 121.544 325.293 121.764 324.949 121.916C324.605 122.068 324.197 122.144 323.725 122.144Z" fill="black"/>
<path d="M165.148 155V136.8H171.882C173.147 136.8 174.205 137.008 175.054 137.424C175.903 137.823 176.536 138.377 176.952 139.088C177.385 139.781 177.602 140.57 177.602 141.454C177.602 142.373 177.403 143.144 177.004 143.768C176.605 144.392 176.077 144.877 175.418 145.224C174.777 145.553 174.083 145.744 173.338 145.796L173.702 145.536C174.499 145.553 175.227 145.77 175.886 146.186C176.545 146.585 177.065 147.122 177.446 147.798C177.827 148.474 178.018 149.219 178.018 150.034C178.018 150.97 177.793 151.819 177.342 152.582C176.891 153.327 176.224 153.917 175.34 154.35C174.456 154.783 173.373 155 172.09 155H165.148ZM167.748 152.842H171.752C172.896 152.842 173.78 152.582 174.404 152.062C175.045 151.525 175.366 150.771 175.366 149.8C175.366 148.847 175.037 148.084 174.378 147.512C173.737 146.94 172.844 146.654 171.7 146.654H167.748V152.842ZM167.748 144.652H171.596C172.688 144.652 173.52 144.401 174.092 143.898C174.664 143.378 174.95 142.667 174.95 141.766C174.95 140.899 174.664 140.215 174.092 139.712C173.52 139.192 172.662 138.932 171.518 138.932H167.748V144.652ZM185.799 155.312C184.776 155.312 183.883 155.104 183.121 154.688C182.375 154.272 181.795 153.648 181.379 152.816C180.98 151.984 180.781 150.935 180.781 149.67V141.896H183.381V149.384C183.381 150.615 183.649 151.542 184.187 152.166C184.724 152.79 185.495 153.102 186.501 153.102C187.177 153.102 187.783 152.937 188.321 152.608C188.875 152.279 189.309 151.802 189.621 151.178C189.933 150.554 190.089 149.791 190.089 148.89V141.896H192.689V155H190.375L190.193 152.764C189.794 153.561 189.213 154.185 188.451 154.636C187.688 155.087 186.804 155.312 185.799 155.312ZM201.24 155.312C200.166 155.312 199.212 155.13 198.38 154.766C197.548 154.402 196.881 153.899 196.378 153.258C195.876 152.599 195.564 151.828 195.442 150.944H198.094C198.181 151.36 198.354 151.741 198.614 152.088C198.892 152.435 199.247 152.712 199.68 152.92C200.114 153.111 200.634 153.206 201.24 153.206C201.812 153.206 202.28 153.128 202.644 152.972C203.008 152.799 203.277 152.582 203.45 152.322C203.624 152.045 203.71 151.75 203.71 151.438C203.71 150.97 203.589 150.615 203.346 150.372C203.104 150.129 202.748 149.939 202.28 149.8C201.83 149.644 201.284 149.497 200.642 149.358C200.122 149.237 199.585 149.089 199.03 148.916C198.476 148.743 197.964 148.526 197.496 148.266C197.046 147.989 196.682 147.642 196.404 147.226C196.127 146.81 195.988 146.299 195.988 145.692C195.988 144.947 196.188 144.279 196.586 143.69C196.985 143.101 197.548 142.641 198.276 142.312C199.004 141.965 199.871 141.792 200.876 141.792C202.298 141.792 203.45 142.139 204.334 142.832C205.236 143.508 205.756 144.487 205.894 145.77H203.372C203.303 145.181 203.043 144.721 202.592 144.392C202.159 144.063 201.578 143.898 200.85 143.898C200.105 143.898 199.542 144.045 199.16 144.34C198.779 144.635 198.588 145.016 198.588 145.484C198.588 145.796 198.701 146.065 198.926 146.29C199.169 146.515 199.507 146.706 199.94 146.862C200.391 147.018 200.92 147.165 201.526 147.304C202.376 147.512 203.156 147.746 203.866 148.006C204.594 148.249 205.184 148.621 205.634 149.124C206.102 149.609 206.336 150.311 206.336 151.23C206.354 152.01 206.154 152.712 205.738 153.336C205.322 153.96 204.733 154.445 203.97 154.792C203.208 155.139 202.298 155.312 201.24 155.312ZM209.658 155V142.104H212.258V155H209.658ZM210.958 139.582C210.455 139.582 210.039 139.426 209.71 139.114C209.398 138.802 209.242 138.403 209.242 137.918C209.242 137.45 209.398 137.069 209.71 136.774C210.039 136.462 210.455 136.306 210.958 136.306C211.443 136.306 211.85 136.462 212.18 136.774C212.509 137.069 212.674 137.459 212.674 137.944C212.674 138.412 212.509 138.802 212.18 139.114C211.85 139.426 211.443 139.582 210.958 139.582ZM215.924 155V142.104H218.238L218.42 144.34H218.446C218.862 143.56 219.451 142.945 220.214 142.494C220.976 142.026 221.86 141.792 222.866 141.792C223.906 141.792 224.798 142.009 225.544 142.442C226.289 142.858 226.861 143.491 227.26 144.34C227.676 145.189 227.884 146.264 227.884 147.564V155H225.284V147.824C225.284 146.576 225.015 145.631 224.478 144.99C223.958 144.331 223.186 144.002 222.164 144.002C221.453 144.002 220.82 144.175 220.266 144.522C219.728 144.851 219.304 145.337 218.992 145.978C218.68 146.619 218.524 147.399 218.524 148.318V155H215.924ZM237.163 155.312C235.915 155.312 234.797 155.035 233.809 154.48C232.839 153.908 232.076 153.119 231.521 152.114C230.967 151.109 230.689 149.93 230.689 148.578C230.689 147.226 230.958 146.047 231.495 145.042C232.05 144.019 232.813 143.222 233.783 142.65C234.771 142.078 235.915 141.792 237.215 141.792C238.481 141.792 239.573 142.078 240.491 142.65C241.427 143.205 242.147 143.941 242.649 144.86C243.152 145.779 243.403 146.801 243.403 147.928C243.403 148.101 243.403 148.292 243.403 148.5C243.403 148.708 243.395 148.925 243.377 149.15H232.613V147.33H240.803C240.751 146.273 240.387 145.441 239.711 144.834C239.035 144.227 238.186 143.924 237.163 143.924C236.47 143.924 235.82 144.08 235.213 144.392C234.624 144.704 234.147 145.163 233.783 145.77C233.419 146.377 233.237 147.139 233.237 148.058V148.786C233.237 149.739 233.419 150.545 233.783 151.204C234.147 151.845 234.624 152.331 235.213 152.66C235.82 152.989 236.47 153.154 237.163 153.154C237.978 153.154 238.663 152.972 239.217 152.608C239.772 152.227 240.179 151.715 240.439 151.074H243.039C242.814 151.889 242.433 152.617 241.895 153.258C241.358 153.882 240.691 154.385 239.893 154.766C239.096 155.13 238.186 155.312 237.163 155.312ZM251.336 155.312C250.261 155.312 249.308 155.13 248.476 154.766C247.644 154.402 246.977 153.899 246.474 153.258C245.971 152.599 245.659 151.828 245.538 150.944H248.19C248.277 151.36 248.45 151.741 248.71 152.088C248.987 152.435 249.343 152.712 249.776 152.92C250.209 153.111 250.729 153.206 251.336 153.206C251.908 153.206 252.376 153.128 252.74 152.972C253.104 152.799 253.373 152.582 253.546 152.322C253.719 152.045 253.806 151.75 253.806 151.438C253.806 150.97 253.685 150.615 253.442 150.372C253.199 150.129 252.844 149.939 252.376 149.8C251.925 149.644 251.379 149.497 250.738 149.358C250.218 149.237 249.681 149.089 249.126 148.916C248.571 148.743 248.06 148.526 247.592 148.266C247.141 147.989 246.777 147.642 246.5 147.226C246.223 146.81 246.084 146.299 246.084 145.692C246.084 144.947 246.283 144.279 246.682 143.69C247.081 143.101 247.644 142.641 248.372 142.312C249.1 141.965 249.967 141.792 250.972 141.792C252.393 141.792 253.546 142.139 254.43 142.832C255.331 143.508 255.851 144.487 255.99 145.77H253.468C253.399 145.181 253.139 144.721 252.688 144.392C252.255 144.063 251.674 143.898 250.946 143.898C250.201 143.898 249.637 144.045 249.256 144.34C248.875 144.635 248.684 145.016 248.684 145.484C248.684 145.796 248.797 146.065 249.022 146.29C249.265 146.515 249.603 146.706 250.036 146.862C250.487 147.018 251.015 147.165 251.622 147.304C252.471 147.512 253.251 147.746 253.962 148.006C254.69 148.249 255.279 148.621 255.73 149.124C256.198 149.609 256.432 150.311 256.432 151.23C256.449 152.01 256.25 152.712 255.834 153.336C255.418 153.96 254.829 154.445 254.066 154.792C253.303 155.139 252.393 155.312 251.336 155.312ZM264.615 155.312C263.541 155.312 262.587 155.13 261.755 154.766C260.923 154.402 260.256 153.899 259.753 153.258C259.251 152.599 258.939 151.828 258.817 150.944H261.469C261.556 151.36 261.729 151.741 261.989 152.088C262.267 152.435 262.622 152.712 263.055 152.92C263.489 153.111 264.009 153.206 264.615 153.206C265.187 153.206 265.655 153.128 266.019 152.972C266.383 152.799 266.652 152.582 266.825 152.322C266.999 152.045 267.085 151.75 267.085 151.438C267.085 150.97 266.964 150.615 266.721 150.372C266.479 150.129 266.123 149.939 265.655 149.8C265.205 149.644 264.659 149.497 264.017 149.358C263.497 149.237 262.96 149.089 262.405 148.916C261.851 148.743 261.339 148.526 260.871 148.266C260.421 147.989 260.057 147.642 259.779 147.226C259.502 146.81 259.363 146.299 259.363 145.692C259.363 144.947 259.563 144.279 259.961 143.69C260.36 143.101 260.923 142.641 261.651 142.312C262.379 141.965 263.246 141.792 264.251 141.792C265.673 141.792 266.825 142.139 267.709 142.832C268.611 143.508 269.131 144.487 269.269 145.77H266.747C266.678 145.181 266.418 144.721 265.967 144.392C265.534 144.063 264.953 143.898 264.225 143.898C263.48 143.898 262.917 144.045 262.535 144.34C262.154 144.635 261.963 145.016 261.963 145.484C261.963 145.796 262.076 146.065 262.301 146.29C262.544 146.515 262.882 146.706 263.315 146.862C263.766 147.018 264.295 147.165 264.901 147.304C265.751 147.512 266.531 147.746 267.241 148.006C267.969 148.249 268.559 148.621 269.009 149.124C269.477 149.609 269.711 150.311 269.711 151.23C269.729 152.01 269.529 152.712 269.113 153.336C268.697 153.96 268.108 154.445 267.345 154.792C266.583 155.139 265.673 155.312 264.615 155.312ZM165.148 183V164.8H170.738C172.853 164.8 174.603 165.173 175.99 165.918C177.377 166.663 178.399 167.721 179.058 169.09C179.734 170.442 180.072 172.054 180.072 173.926C180.072 175.798 179.734 177.41 179.058 178.762C178.399 180.114 177.377 181.163 175.99 181.908C174.621 182.636 172.87 183 170.738 183H165.148ZM167.748 180.816H170.634C172.315 180.816 173.65 180.539 174.638 179.984C175.626 179.429 176.328 178.641 176.744 177.618C177.177 176.578 177.394 175.347 177.394 173.926C177.394 172.487 177.177 171.248 176.744 170.208C176.328 169.168 175.626 168.371 174.638 167.816C173.65 167.261 172.315 166.984 170.634 166.984H167.748V180.816ZM187.309 183.312C186.234 183.312 185.341 183.139 184.631 182.792C183.92 182.428 183.391 181.943 183.045 181.336C182.715 180.729 182.551 180.071 182.551 179.36C182.551 178.511 182.767 177.783 183.201 177.176C183.651 176.569 184.293 176.101 185.125 175.772C185.957 175.443 186.962 175.278 188.141 175.278H191.573C191.573 174.533 191.451 173.917 191.209 173.432C190.966 172.929 190.619 172.557 190.169 172.314C189.735 172.071 189.189 171.95 188.531 171.95C187.751 171.95 187.066 172.141 186.477 172.522C185.905 172.903 185.549 173.475 185.411 174.238H182.811C182.915 173.285 183.235 172.487 183.773 171.846C184.31 171.187 184.995 170.685 185.827 170.338C186.676 169.974 187.586 169.792 188.557 169.792C189.753 169.792 190.767 170.009 191.599 170.442C192.448 170.875 193.089 171.491 193.523 172.288C193.956 173.068 194.173 173.995 194.173 175.07V183H191.911L191.703 180.79H191.677C191.486 181.154 191.252 181.492 190.975 181.804C190.715 182.116 190.403 182.385 190.039 182.61C189.692 182.818 189.285 182.983 188.817 183.104C188.366 183.243 187.863 183.312 187.309 183.312ZM187.829 181.206C188.401 181.206 188.912 181.093 189.363 180.868C189.813 180.643 190.195 180.339 190.507 179.958C190.836 179.559 191.079 179.117 191.235 178.632C191.408 178.147 191.503 177.644 191.521 177.124H188.401C187.655 177.124 187.049 177.211 186.581 177.384C186.113 177.557 185.775 177.8 185.567 178.112C185.376 178.424 185.281 178.788 185.281 179.204C185.281 179.603 185.376 179.958 185.567 180.27C185.775 180.565 186.069 180.799 186.451 180.972C186.832 181.128 187.291 181.206 187.829 181.206ZM202.535 183.312C201.461 183.312 200.507 183.13 199.675 182.766C198.843 182.402 198.176 181.899 197.673 181.258C197.171 180.599 196.859 179.828 196.737 178.944H199.389C199.476 179.36 199.649 179.741 199.909 180.088C200.187 180.435 200.542 180.712 200.975 180.92C201.409 181.111 201.929 181.206 202.535 181.206C203.107 181.206 203.575 181.128 203.939 180.972C204.303 180.799 204.572 180.582 204.745 180.322C204.919 180.045 205.005 179.75 205.005 179.438C205.005 178.97 204.884 178.615 204.641 178.372C204.399 178.129 204.043 177.939 203.575 177.8C203.125 177.644 202.579 177.497 201.937 177.358C201.417 177.237 200.88 177.089 200.325 176.916C199.771 176.743 199.259 176.526 198.791 176.266C198.341 175.989 197.977 175.642 197.699 175.226C197.422 174.81 197.283 174.299 197.283 173.692C197.283 172.947 197.483 172.279 197.881 171.69C198.28 171.101 198.843 170.641 199.571 170.312C200.299 169.965 201.166 169.792 202.171 169.792C203.593 169.792 204.745 170.139 205.629 170.832C206.531 171.508 207.051 172.487 207.189 173.77H204.667C204.598 173.181 204.338 172.721 203.887 172.392C203.454 172.063 202.873 171.898 202.145 171.898C201.4 171.898 200.837 172.045 200.455 172.34C200.074 172.635 199.883 173.016 199.883 173.484C199.883 173.796 199.996 174.065 200.221 174.29C200.464 174.515 200.802 174.706 201.235 174.862C201.686 175.018 202.215 175.165 202.821 175.304C203.671 175.512 204.451 175.746 205.161 176.006C205.889 176.249 206.479 176.621 206.929 177.124C207.397 177.609 207.631 178.311 207.631 179.23C207.649 180.01 207.449 180.712 207.033 181.336C206.617 181.96 206.028 182.445 205.265 182.792C204.503 183.139 203.593 183.312 202.535 183.312ZM210.745 183V164.332H213.345V172.236C213.795 171.473 214.402 170.875 215.165 170.442C215.927 170.009 216.785 169.792 217.739 169.792C218.744 169.792 219.619 170.009 220.365 170.442C221.11 170.858 221.682 171.499 222.081 172.366C222.497 173.215 222.705 174.281 222.705 175.564V183H220.131V175.824C220.131 174.576 219.871 173.631 219.351 172.99C218.848 172.331 218.077 172.002 217.037 172.002C216.343 172.002 215.711 172.175 215.139 172.522C214.584 172.851 214.142 173.337 213.813 173.978C213.501 174.619 213.345 175.399 213.345 176.318V183H210.745ZM233.258 183.312C232.547 183.312 231.897 183.208 231.308 183C230.736 182.809 230.233 182.541 229.8 182.194C229.366 181.847 229.002 181.449 228.708 180.998L228.448 183H226.108V164.28H228.708V171.95C229.124 171.291 229.704 170.737 230.45 170.286C231.212 169.818 232.148 169.584 233.258 169.584C234.506 169.584 235.606 169.887 236.56 170.494C237.513 171.083 238.25 171.898 238.77 172.938C239.307 173.961 239.576 175.139 239.576 176.474C239.576 177.774 239.307 178.944 238.77 179.984C238.25 181.024 237.513 181.839 236.56 182.428C235.606 183.017 234.506 183.312 233.258 183.312ZM232.842 181.05C233.639 181.05 234.341 180.859 234.948 180.478C235.572 180.097 236.057 179.559 236.404 178.866C236.768 178.173 236.95 177.367 236.95 176.448C236.95 175.529 236.768 174.732 236.404 174.056C236.057 173.363 235.572 172.825 234.948 172.444C234.341 172.045 233.639 171.846 232.842 171.846C232.027 171.846 231.308 172.045 230.684 172.444C230.077 172.825 229.6 173.363 229.254 174.056C228.907 174.732 228.734 175.529 228.734 176.448C228.734 177.367 228.907 178.173 229.254 178.866C229.6 179.559 230.077 180.097 230.684 180.478C231.308 180.859 232.027 181.05 232.842 181.05ZM248.488 183.312C247.274 183.312 246.174 183.035 245.186 182.48C244.215 181.908 243.444 181.119 242.872 180.114C242.3 179.091 242.014 177.904 242.014 176.552C242.014 175.2 242.3 174.021 242.872 173.016C243.461 171.993 244.25 171.205 245.238 170.65C246.226 170.078 247.326 169.792 248.54 169.792C249.77 169.792 250.871 170.078 251.842 170.65C252.83 171.205 253.61 171.985 254.182 172.99C254.754 173.995 255.04 175.183 255.04 176.552C255.04 177.904 254.745 179.091 254.156 180.114C253.584 181.119 252.804 181.908 251.816 182.48C250.828 183.035 249.718 183.312 248.488 183.312ZM248.514 181.102C249.207 181.102 249.84 180.937 250.412 180.608C251.001 180.261 251.478 179.75 251.842 179.074C252.206 178.398 252.388 177.557 252.388 176.552C252.388 175.529 252.206 174.689 251.842 174.03C251.495 173.354 251.027 172.851 250.438 172.522C249.848 172.175 249.216 172.002 248.54 172.002C247.881 172.002 247.248 172.175 246.642 172.522C246.052 172.851 245.576 173.354 245.212 174.03C244.865 174.706 244.692 175.547 244.692 176.552C244.692 177.557 244.865 178.398 245.212 179.074C245.576 179.75 246.044 180.261 246.616 180.608C247.205 180.937 247.838 181.102 248.514 181.102ZM262.414 183.312C261.339 183.312 260.447 183.139 259.736 182.792C259.025 182.428 258.497 181.943 258.15 181.336C257.821 180.729 257.656 180.071 257.656 179.36C257.656 178.511 257.873 177.783 258.306 177.176C258.757 176.569 259.398 176.101 260.23 175.772C261.062 175.443 262.067 175.278 263.246 175.278H266.678C266.678 174.533 266.557 173.917 266.314 173.432C266.071 172.929 265.725 172.557 265.274 172.314C264.841 172.071 264.295 171.95 263.636 171.95C262.856 171.95 262.171 172.141 261.582 172.522C261.01 172.903 260.655 173.475 260.516 174.238H257.916C258.02 173.285 258.341 172.487 258.878 171.846C259.415 171.187 260.1 170.685 260.932 170.338C261.781 169.974 262.691 169.792 263.662 169.792C264.858 169.792 265.872 170.009 266.704 170.442C267.553 170.875 268.195 171.491 268.628 172.288C269.061 173.068 269.278 173.995 269.278 175.07V183H267.016L266.808 180.79H266.782C266.591 181.154 266.357 181.492 266.08 181.804C265.82 182.116 265.508 182.385 265.144 182.61C264.797 182.818 264.39 182.983 263.922 183.104C263.471 183.243 262.969 183.312 262.414 183.312ZM262.934 181.206C263.506 181.206 264.017 181.093 264.468 180.868C264.919 180.643 265.3 180.339 265.612 179.958C265.941 179.559 266.184 179.117 266.34 178.632C266.513 178.147 266.609 177.644 266.626 177.124H263.506C262.761 177.124 262.154 177.211 261.686 177.384C261.218 177.557 260.88 177.8 260.672 178.112C260.481 178.424 260.386 178.788 260.386 179.204C260.386 179.603 260.481 179.958 260.672 180.27C260.88 180.565 261.175 180.799 261.556 180.972C261.937 181.128 262.397 181.206 262.934 181.206ZM272.545 183V170.104H274.885L275.119 172.626C275.431 172.002 275.812 171.482 276.263 171.066C276.713 170.65 277.242 170.338 277.849 170.13C278.455 169.905 279.14 169.792 279.903 169.792V172.522H279.201C278.629 172.522 278.091 172.6 277.589 172.756C277.103 172.895 276.67 173.12 276.289 173.432C275.925 173.744 275.639 174.169 275.431 174.706C275.24 175.243 275.145 175.911 275.145 176.708V183H272.545ZM288.02 183.312C286.772 183.312 285.671 183.017 284.718 182.428C283.764 181.821 283.019 181.007 282.482 179.984C281.962 178.944 281.702 177.765 281.702 176.448C281.702 175.113 281.962 173.935 282.482 172.912C283.019 171.889 283.764 171.083 284.718 170.494C285.688 169.887 286.798 169.584 288.046 169.584C289.068 169.584 289.97 169.792 290.75 170.208C291.53 170.607 292.136 171.179 292.57 171.924V164.28H295.17V183H292.83L292.57 180.972C292.31 181.371 291.972 181.752 291.556 182.116C291.14 182.463 290.637 182.749 290.048 182.974C289.458 183.199 288.782 183.312 288.02 183.312ZM288.436 181.05C289.25 181.05 289.97 180.859 290.594 180.478C291.218 180.097 291.694 179.559 292.024 178.866C292.37 178.173 292.544 177.367 292.544 176.448C292.544 175.529 292.37 174.732 292.024 174.056C291.694 173.363 291.218 172.825 290.594 172.444C289.97 172.045 289.25 171.846 288.436 171.846C287.656 171.846 286.954 172.045 286.33 172.444C285.706 172.825 285.22 173.363 284.874 174.056C284.527 174.732 284.354 175.529 284.354 176.448C284.354 177.367 284.527 178.173 284.874 178.866C285.22 179.559 285.706 180.097 286.33 180.478C286.954 180.859 287.656 181.05 288.436 181.05ZM299.765 183.13C299.262 183.13 298.846 182.974 298.517 182.662C298.205 182.333 298.049 181.943 298.049 181.492C298.049 181.024 298.205 180.634 298.517 180.322C298.846 179.993 299.262 179.828 299.765 179.828C300.268 179.828 300.675 179.993 300.987 180.322C301.299 180.634 301.455 181.024 301.455 181.492C301.455 181.943 301.299 182.333 300.987 182.662C300.675 182.974 300.268 183.13 299.765 183.13Z" fill="#B9B7E4"/>
</svg>
