<svg width="77" height="60" viewBox="0 0 77 60" fill="none" xmlns="http://www.w3.org/2000/svg">
<g clip-path="url(#clip0_185_818)">
<path d="M16.8143 37.0332C17.0848 37.2901 17.2996 37.5998 17.4458 37.943C17.5919 38.2862 17.6662 38.6556 17.6641 39.0286C17.662 39.7949 17.3566 40.5289 16.815 41.0708C16.2731 41.6125 15.5391 41.9178 14.7729 41.9199H5.73471V56.3307C5.73687 56.7037 5.6627 57.0733 5.51671 57.4167C5.37074 57.76 5.15606 58.0699 4.88589 58.3272C4.62162 58.6003 4.30427 58.8165 3.95339 58.9625C3.6025 59.1085 3.22546 59.181 2.84545 59.176C2.47232 59.1784 2.10265 59.1043 1.75927 58.9583C1.41586 58.8124 1.10603 58.5975 0.848881 58.3272C0.578497 58.0699 0.363692 57.7602 0.217705 57.4168C0.0717173 57.0734 -0.00236649 56.7037 5.76234e-05 56.3307V36.1833C0.0918775 33.1539 1.19337 30.5693 3.30454 28.4297C5.41572 26.2898 7.97036 25.1578 10.9684 25.0333H14.7779C15.1561 25.0273 15.5316 25.0975 15.8821 25.2394C16.2325 25.3814 16.5509 25.5922 16.8185 25.8597C17.0928 26.1185 17.3101 26.4318 17.4564 26.7795C17.6027 27.1271 17.6749 27.5015 17.6683 27.8787C17.666 28.6449 17.3608 29.3791 16.819 29.9207C16.2773 30.4626 15.5431 30.7678 14.7769 30.7701H11.2847C9.84756 30.7952 8.47492 31.371 7.44985 32.3787C6.42478 33.3864 5.82548 34.7487 5.77552 36.1852H14.7708C15.1512 36.1795 15.529 36.2517 15.8804 36.3975C16.2318 36.5433 16.5497 36.7597 16.8143 37.0332Z" fill="black"/>
<path d="M20.8991 32.5129C20.6244 32.2539 20.4071 31.9405 20.261 31.5926C20.1146 31.2447 20.043 30.8701 20.0503 30.4928C20.0447 30.1127 20.1171 29.7356 20.263 29.3846C20.409 29.0337 20.6256 28.7163 20.8991 28.4524C21.156 28.1817 21.4659 27.9667 21.8092 27.8206C22.1526 27.6742 22.5224 27.6001 22.8956 27.6026C23.6615 27.605 24.3955 27.9104 24.937 28.4521C25.4785 28.9939 25.7837 29.7278 25.7858 30.4939C25.793 30.8711 25.721 31.2457 25.5748 31.5935C25.4287 31.9414 25.2114 32.2548 24.937 32.5139C24.6695 32.7809 24.3511 32.9916 24.0005 33.1334C23.65 33.2752 23.2747 33.3451 22.8966 33.3392C22.5253 33.3425 22.157 33.271 21.8138 33.129C21.4707 32.9871 21.1596 32.7774 20.8991 32.5129ZM24.937 36.9876C25.2074 37.2446 25.422 37.5542 25.568 37.8974C25.714 38.2406 25.7881 38.6101 25.7858 38.983V56.3268C25.7883 56.7 25.7142 57.0697 25.5682 57.4131C25.4222 57.7565 25.2074 58.0662 24.937 58.3234C24.673 58.5967 24.3556 58.8131 24.0047 58.9591C23.6538 59.1051 23.2766 59.1776 22.8966 59.1722C22.1464 59.1584 21.4306 58.8541 20.8999 58.3234C20.3694 57.7929 20.0651 57.0772 20.0513 56.3268V38.983C20.0656 38.2329 20.3699 37.5175 20.9005 36.987C21.4312 36.4565 22.1465 36.152 22.8966 36.1377C23.2768 36.1325 23.6538 36.2052 24.0047 36.3515C24.3558 36.4977 24.673 36.7141 24.937 36.9876Z" fill="black"/>
<path d="M48.7334 39.5798C50.9669 41.8161 52.0837 44.5237 52.0837 47.7028C52.0837 50.8817 50.9669 53.5894 48.7334 55.8259C46.5004 58.0601 43.7927 59.1769 40.6103 59.1762H31.9824C31.232 59.1622 30.5163 58.8581 29.9857 58.3274C29.4551 57.7967 29.1507 57.0812 29.137 56.3307V25.3263C29.1315 24.9463 29.2041 24.5691 29.3501 24.2182C29.4962 23.8673 29.7125 23.5499 29.9857 23.2859C30.2428 23.0154 30.5527 22.8004 30.8961 22.6542C31.2395 22.5081 31.6092 22.4338 31.9824 22.4361C32.7485 22.4381 33.4826 22.7435 34.0244 23.2852C34.5661 23.827 34.8715 24.5611 34.8736 25.3274V37.7913C36.6093 36.7612 38.592 36.2216 40.6103 36.2305C43.7927 36.2298 46.5004 37.3463 48.7334 39.5798ZM44.6719 51.7582C45.7894 50.6365 46.3476 49.2762 46.3471 47.6774C46.3464 46.0783 45.788 44.718 44.6719 43.5965C43.5946 42.5192 42.1337 41.9141 40.6103 41.9141C39.087 41.9141 37.6261 42.5192 36.5488 43.5965C35.432 44.718 34.8736 46.0783 34.8736 47.6774C34.8736 49.2762 35.432 50.6365 36.5488 51.7582C37.6262 52.8348 39.0872 53.4396 40.6103 53.4396C42.1335 53.4396 43.5944 52.8348 44.6719 51.7582Z" fill="black"/>
<path d="M76.9997 48.1164V47.9786C76.9078 51.0991 75.7515 53.7456 73.5309 55.918C71.3102 58.0903 68.6407 59.1765 65.5221 59.1765C62.3397 59.1765 59.6324 58.0598 57.4001 55.8261C55.1678 53.5925 54.0512 50.885 54.0498 47.7031C54.0498 44.5207 55.1666 41.813 57.4001 39.5802C59.6338 37.3472 62.3411 36.2304 65.5221 36.2297C68.5202 36.2297 71.1211 37.2546 73.3248 39.3047C73.4769 39.4587 73.5993 39.5802 73.6921 39.6719H73.6462C74.0911 40.2176 74.3185 40.9088 74.2845 41.6121C74.2503 42.3155 73.9572 42.9813 73.4615 43.4815L64.2795 52.6635C64.0987 52.8387 63.8985 52.9927 63.6827 53.1226C64.2734 53.3279 64.8936 53.4366 65.5191 53.4439C66.2748 53.457 67.0251 53.315 67.7237 53.0269C68.4225 52.7388 69.0547 52.3107 69.5815 51.7688C70.6977 50.6527 71.2557 49.2988 71.2557 47.7073C71.3368 47.0259 71.6764 46.4017 72.2046 45.9637C72.7385 45.5066 73.4218 45.2614 74.1246 45.275C74.8124 45.2671 75.4789 45.5121 75.9978 45.9637C76.5258 46.4017 76.8656 47.0259 76.9465 47.7073H76.9925L76.9997 48.1164ZM61.4648 43.607C60.3472 44.7319 59.7892 46.0946 59.7906 47.6949C59.7935 48.1297 59.8397 48.563 59.9283 48.9886C60.011 48.8463 60.12 48.7209 60.2496 48.6194L66.7657 42.0593C66.3587 41.9694 65.9431 41.9231 65.5261 41.9204C64.7698 41.9077 64.0186 42.0507 63.3198 42.3409C62.6212 42.6311 61.9895 43.062 61.4648 43.607Z" fill="black"/>
<path d="M7.89293 19.1944C9.71231 19.1944 11.1872 17.7193 11.1872 15.9C11.1872 14.0806 9.71231 12.6057 7.89293 12.6057C6.07354 12.6057 4.59863 14.0806 4.59863 15.9C4.59863 17.7193 6.07354 19.1944 7.89293 19.1944Z" fill="#F8A63F"/>
<path d="M17.2856 11.936C18.8294 11.936 20.081 10.6844 20.081 9.14066C20.081 7.59676 18.8294 6.34521 17.2856 6.34521C15.7417 6.34521 14.4902 7.59676 14.4902 9.14066C14.4902 10.6844 15.7417 11.936 17.2856 11.936Z" fill="#079F9F"/>
<path d="M8.36038 4.19756C9.4698 4.19756 10.3692 3.2982 10.3692 2.18875C10.3692 1.07931 9.4698 0.179932 8.36038 0.179932C7.25094 0.179932 6.35156 1.07931 6.35156 2.18875C6.35156 3.2982 7.25094 4.19756 8.36038 4.19756Z" fill="#FF3E79"/>
</g>
<defs>
<clipPath id="clip0_185_818">
<rect width="77" height="59" fill="white" transform="translate(0 0.179932)"/>
</clipPath>
</defs>
</svg>
