<svg width="22" height="22" viewBox="0 0 22 22" fill="none" xmlns="http://www.w3.org/2000/svg">
<path d="M20.8835 11C20.8835 5.477 16.4065 1 10.8835 1C5.36055 1 0.883545 5.477 0.883545 11C0.883545 16.523 5.36055 21 10.8835 21" stroke="#514C9F" stroke-width="1.5" stroke-linecap="round" stroke-linejoin="round"/>
<path d="M11.8834 1.04999C11.8834 1.04999 14.8834 4.99999 14.8834 11M9.88343 20.95C9.88343 20.95 6.88343 17 6.88343 11C6.88343 4.99999 9.88343 1.04999 9.88343 1.04999M1.51343 14.5H10.8834M1.51343 7.49999H20.2534" stroke="#514C9F" stroke-width="1.5" stroke-linecap="round" stroke-linejoin="round"/>
<path d="M20.7625 16.917C21.2565 17.221 21.2255 17.96 20.7175 18.018L18.1505 18.309L16.9995 20.621C16.7715 21.08 16.0665 20.855 15.9495 20.287L14.6945 14.171C14.5955 13.691 15.0275 13.389 15.4445 13.646L20.7625 16.917Z" fill="#514C9F" stroke="#514C9F" stroke-width="1.5"/>
</svg>
