<svg width="227" height="31" viewBox="0 0 227 31" fill="none" xmlns="http://www.w3.org/2000/svg">
<g clip-path="url(#clip0_184_740)">
<path d="M109.953 0.152954C109.838 1.34256 109.727 2.53216 109.605 3.72177C109.36 6.08951 109.107 8.45342 108.859 10.8212C108.602 13.2654 108.346 15.7058 108.09 18.1768H102.501C102.54 17.779 102.57 17.3812 102.612 16.9872C102.907 14.4473 100.704 11.9151 97.4294 13.0512C94.9813 13.9004 93.6655 16.8801 94.595 19.3052C95.2376 20.9806 96.8709 21.8948 98.7032 21.6003C98.7911 21.585 98.8753 21.5735 99.0092 21.5582C98.8523 23.0462 98.6993 24.4997 98.5425 25.98C97.7086 26.2745 96.8518 26.3931 95.9835 26.3702C91.6994 26.2401 89.3049 23.0156 88.8688 19.5883C88.471 16.4632 89.2246 13.6441 91.2978 11.2419C93.0229 9.24521 95.2185 8.12063 97.8769 8.07473C100.05 8.03648 101.92 8.725 103.133 10.6834C103.152 10.714 103.186 10.7332 103.259 10.802C103.328 10.1709 103.4 9.58182 103.462 8.99658C103.756 6.15071 104.051 3.30866 104.349 0.462787C104.36 0.359509 104.391 0.260057 104.414 0.160604H109.96L109.953 0.152954Z" fill="#F37B20"/>
<path d="M8.66767 0.152954C8.57969 1.136 8.50319 2.11905 8.39991 3.1021C8.10155 5.98622 7.79554 8.86652 7.48954 11.7506C7.19118 14.5812 6.88517 17.4118 6.58681 20.2423C6.38791 22.1166 6.19283 23.9909 5.9901 25.9264H0V25.7696C0.0229506 25.7008 0.0650266 25.6319 0.0726768 25.5631C0.470487 21.78 0.864472 17.9932 1.26611 14.2063C1.70599 10.0332 2.14588 5.85999 2.59341 1.69064C2.64697 1.17808 2.73877 0.669342 2.81145 0.156779H8.66767V0.152954Z" fill="#F37B20"/>
<path d="M103.626 27.4871C102.895 27.2729 102.222 26.9783 101.725 26.3587C100.439 24.7598 100.929 22.2773 102.765 21.103C104.196 20.1888 106.036 20.2653 107.153 21.2828C108.468 22.4877 108.522 24.6259 107.271 26.068C106.682 26.745 105.951 27.1887 105.079 27.4029C105.007 27.4221 104.942 27.4565 104.873 27.4833H103.622L103.626 27.4871Z" fill="#F37B20"/>
<path d="M53.3682 18.697C52.8174 20.009 52.0791 21.1642 51.1305 22.1778C48.5333 24.9625 45.2857 26.2821 41.5104 26.3892C39.3415 26.4504 37.2569 26.0871 35.3329 25.0466C32.2269 23.3674 30.5094 20.6937 29.928 17.2702C28.9908 11.743 31.7411 6.1086 36.6525 3.40044C38.6951 2.27203 40.8984 1.7327 43.224 1.67532C45.2628 1.62559 47.248 1.88952 49.1032 2.7846C52.2092 4.28021 53.8616 6.81242 54.3512 10.2091H48.6136C48.2884 9.62769 48.0322 9.0042 47.6382 8.49163C46.5939 7.1299 45.1098 6.65176 43.4535 6.59821C38.9667 6.44903 35.9449 9.79599 35.4438 13.5905C35.2449 15.109 35.3826 16.5779 36.0405 17.9702C37.2722 20.5828 39.7967 21.7188 42.5317 21.4357C44.4634 21.2368 46.0431 20.3762 47.2327 18.827C47.3016 18.7391 47.4393 18.6587 47.5464 18.6587C49.4475 18.6511 51.3447 18.6549 53.2458 18.6587C53.2687 18.6587 53.2955 18.674 53.3682 18.7008V18.697Z" fill="#F37B20"/>
<path d="M74.3593 18.5707C73.8774 20.1696 74.9905 21.9712 76.6544 22.3079C77.5724 22.4953 78.4943 22.4609 79.3855 22.1395C80.1276 21.8718 80.6669 21.3707 81.0571 20.6898C81.1259 20.5713 81.2942 20.4297 81.4205 20.4297C83.0997 20.4144 84.7789 20.4183 86.4543 20.4221C86.4925 20.4221 86.527 20.4374 86.6341 20.4603C86.4772 20.8658 86.351 21.2713 86.1674 21.6461C85.2379 23.5548 83.7079 24.8171 81.7724 25.5898C79.4046 26.5308 76.9527 26.6799 74.497 26.0564C71.5364 25.3067 69.6774 23.4018 69.096 20.3877C68.4457 17.0024 69.1036 13.8888 71.3987 11.238C72.9938 9.39433 75.0784 8.42658 77.473 8.12822C79.4658 7.87959 81.4281 8.02112 83.268 8.89706C85.7466 10.079 87.0548 12.091 87.3111 14.8068C87.4182 15.962 87.2384 17.0828 86.9439 18.1997C86.8636 18.5019 86.7412 18.5784 86.4428 18.5784C82.5642 18.5669 78.6893 18.5707 74.8107 18.5707H74.3593ZM81.8795 15.3538C82.1204 13.9118 81.497 12.6151 80.315 12.0681C78.7352 11.3336 76.5932 11.8194 75.4954 13.1735C74.9866 13.8008 74.7112 14.5238 74.6462 15.3538H81.8756H81.8795Z" fill="#F37B20"/>
<path d="M14.4937 25.9073H8.94727C9.55928 20.1161 10.1713 14.3402 10.7833 8.54137H16.3068C16.2302 9.29491 16.1537 10.0485 16.0658 10.9053C16.1996 10.7446 16.2723 10.6605 16.3412 10.5763C17.6647 8.9124 19.451 8.20476 21.5127 8.08618C22.993 8.00203 24.4351 8.15886 25.6935 9.02715C27.1432 10.0332 27.6558 11.5288 27.6252 13.2003C27.5984 14.7189 27.4493 16.2375 27.3039 17.7484C27.0476 20.3877 26.7531 23.0232 26.4739 25.6625C26.4662 25.739 26.4547 25.8117 26.4433 25.9035H20.916C20.9504 25.4904 20.981 25.0849 21.0231 24.6794C21.2985 22.0937 21.6045 19.5117 21.834 16.9222C21.9029 16.1457 21.8493 15.3309 21.6963 14.5659C21.4668 13.449 20.6482 12.8522 19.5198 12.7949C17.7756 12.7069 16.4559 13.5369 15.8745 15.2506C15.5723 16.138 15.4308 17.0905 15.3199 18.0276C15.0177 20.6363 14.7691 23.2489 14.4937 25.9035V25.9073Z" fill="#F37B20"/>
<path d="M60.062 25.9074H54.5156C55.1315 20.1009 55.7435 14.3173 56.3555 8.52231H61.8789C61.791 9.38678 61.6991 10.2436 61.5997 11.2152C62.5215 9.92612 63.6614 9.10372 65.0346 8.60264C66.4078 8.10155 67.8155 8.13597 69.2996 8.354C68.9821 10.0676 68.6646 11.7736 68.3395 13.5026C67.8728 13.4337 67.4291 13.3343 66.9816 13.3113C65.0002 13.2004 63.2177 13.6135 61.9975 15.3539C61.3855 16.2222 61.0489 17.2129 60.915 18.2495C60.6472 20.3533 60.4369 22.461 60.2035 24.5686C60.1538 25.0085 60.1079 25.4445 60.0582 25.9035L60.062 25.9074Z" fill="#F37B20"/>
<path d="M123.217 11.1999L121.458 25.1385L120.532 28.4166C120.352 28.9751 120.085 29.4073 119.733 29.7172C119.381 30.0232 118.88 30.18 118.226 30.18H116.428L118.807 11.1999L117.373 10.9551C117.093 10.8977 116.864 10.783 116.684 10.6147C116.504 10.4464 116.435 10.1977 116.485 9.87259L116.703 8.12835H119.209L119.373 6.80104C119.507 5.77592 119.786 4.8579 120.218 4.04315C120.647 3.22841 121.194 2.53607 121.852 1.96613C122.51 1.39619 123.271 0.960127 124.131 0.657945C124.992 0.355763 125.918 0.202759 126.908 0.202759C127.681 0.202759 128.396 0.313687 129.051 0.535542L128.653 2.7694C128.592 3.03715 128.423 3.19781 128.144 3.24753C127.865 3.30108 127.551 3.32786 127.199 3.32786C126.713 3.32786 126.27 3.39289 125.864 3.51911C125.459 3.64534 125.103 3.8519 124.793 4.13878C124.483 4.42566 124.231 4.7967 124.032 5.25571C123.833 5.71472 123.692 6.27701 123.607 6.93875L123.462 8.12453H127.639L127.222 11.1961H123.229L123.217 11.1999Z" fill="#0E489B"/>
<path d="M135.342 7.9715L133.109 25.8691H128.698L130.932 7.9715H135.342ZM136.486 2.75407C136.486 3.1251 136.406 3.47701 136.241 3.80214C136.077 4.12728 135.863 4.41416 135.599 4.65514C135.331 4.89994 135.029 5.09502 134.692 5.24038C134.352 5.38573 134.004 5.45841 133.64 5.45841C133.277 5.45841 132.952 5.38573 132.623 5.24038C132.298 5.09502 132.007 4.89994 131.751 4.65514C131.498 4.41033 131.295 4.12728 131.142 3.80214C130.989 3.47701 130.917 3.12893 130.917 2.75407C130.917 2.37921 130.997 2.0273 131.154 1.69069C131.311 1.35408 131.517 1.05955 131.77 0.81092C132.022 0.562289 132.317 0.363384 132.65 0.21803C132.982 0.0726768 133.323 0 133.675 0C134.027 0 134.39 0.0726768 134.727 0.21803C135.067 0.363384 135.365 0.558464 135.625 0.80327C135.886 1.04808 136.096 1.33878 136.253 1.67539C136.41 2.012 136.49 2.37156 136.49 2.75789L136.486 2.75407Z" fill="#0E489B"/>
<path d="M142.355 11.6704C143.299 10.3316 144.344 9.33705 145.495 8.67914C146.646 8.02122 147.832 7.69226 149.052 7.69226C149.825 7.69226 150.521 7.84526 151.141 8.14745C151.757 8.44963 152.265 8.88952 152.667 9.46328C153.065 10.037 153.348 10.7485 153.512 11.59C153.677 12.4316 153.685 13.3955 153.539 14.478L152.143 25.8691H147.66L149.056 14.478C149.213 13.3151 149.152 12.4813 148.876 11.9764C148.597 11.4715 148.088 11.219 147.35 11.219C146.853 11.219 146.344 11.3567 145.824 11.6283C145.304 11.8999 144.803 12.29 144.317 12.7988C143.831 13.3037 143.387 13.908 142.982 14.6119C142.577 15.3157 142.248 16.1036 141.991 16.9758L140.955 25.8729H136.472L138.706 7.95619H140.974C141.444 7.95619 141.812 8.06712 142.072 8.28898C142.332 8.51083 142.462 8.86274 142.462 9.35235L142.355 11.6742V11.6704Z" fill="#0E489B"/>
<path d="M167.21 22.1359C166.387 23.3561 165.458 24.3276 164.421 25.0506C163.384 25.7735 162.256 26.1331 161.036 26.1331C160.332 26.1331 159.678 25.9992 159.066 25.7314C158.454 25.4637 157.922 25.0659 157.467 24.538C157.012 24.0102 156.656 23.3446 156.396 22.549C156.136 21.7533 156.006 20.82 156.006 19.749C156.006 18.678 156.144 17.6375 156.423 16.6277C156.702 15.6141 157.096 14.6654 157.612 13.7742C158.125 12.883 158.748 12.0682 159.475 11.3223C160.202 10.5764 161.017 9.93763 161.916 9.40212C162.818 8.8666 163.79 8.44967 164.838 8.15514C165.886 7.85678 166.988 7.71143 168.151 7.71143C168.984 7.71143 169.822 7.7688 170.664 7.88738C171.505 8.00213 172.324 8.21251 173.123 8.5147L170.889 25.873H168.51C167.94 25.873 167.558 25.7353 167.359 25.4637C167.16 25.1921 167.06 24.8517 167.06 24.4424L167.206 22.1397L167.21 22.1359ZM168.445 10.7983C168.277 10.7868 168.116 10.7792 167.963 10.7715C167.81 10.7677 167.665 10.7639 167.519 10.7639C166.513 10.7639 165.584 10.9857 164.723 11.4256C163.863 11.8693 163.124 12.4622 162.501 13.2119C161.877 13.9616 161.388 14.8338 161.032 15.8283C160.676 16.8228 160.497 17.8709 160.497 18.9763C160.497 20.231 160.703 21.1528 161.112 21.7342C161.525 22.3156 162.088 22.6063 162.799 22.6063C163.296 22.6063 163.782 22.4419 164.26 22.1091C164.739 21.7763 165.194 21.3249 165.622 20.7473C166.051 20.1736 166.445 19.4927 166.8 18.7162C167.156 17.9359 167.47 17.0982 167.734 16.2031L168.441 10.7945L168.445 10.7983Z" fill="#0E489B"/>
<path d="M180.915 11.6704C181.86 10.3316 182.904 9.33705 184.056 8.67914C185.207 8.02122 186.393 7.69226 187.613 7.69226C188.386 7.69226 189.082 7.84526 189.701 8.14745C190.317 8.44963 190.826 8.88952 191.228 9.46328C191.625 10.037 191.909 10.7485 192.073 11.59C192.238 12.4316 192.245 13.3955 192.1 14.478L190.704 25.8691H186.221L187.617 14.478C187.774 13.3151 187.712 12.4813 187.437 11.9764C187.158 11.4715 186.649 11.219 185.911 11.219C185.414 11.219 184.905 11.3567 184.385 11.6283C183.864 11.8999 183.363 12.29 182.877 12.7988C182.392 13.3037 181.948 13.908 181.543 14.6119C181.137 15.3157 180.808 16.1036 180.552 16.9758L179.515 25.8729H175.032L177.266 7.95619H179.534C180.005 7.95619 180.372 8.06712 180.632 8.28898C180.892 8.51083 181.022 8.86274 181.022 9.35235L180.915 11.6742V11.6704Z" fill="#0E489B"/>
<path d="M206.754 24.3352C206.191 24.779 205.618 25.1309 205.036 25.3986C204.455 25.6664 203.847 25.8538 203.212 25.9647C202.577 26.0757 201.877 26.1292 201.115 26.1292C200.037 26.1292 199.073 25.9533 198.22 25.5975C197.367 25.2418 196.644 24.7407 196.051 24.0904C195.458 23.4402 195.003 22.656 194.689 21.7342C194.376 20.8162 194.219 19.791 194.219 18.6626C194.219 17.6987 194.326 16.7539 194.544 15.8359C194.762 14.9179 195.076 14.0496 195.489 13.2348C195.902 12.4201 196.395 11.678 196.977 11.001C197.558 10.3278 198.212 9.74634 198.939 9.25672C199.666 8.76711 200.454 8.38843 201.307 8.11302C202.16 7.84144 203.066 7.70374 204.022 7.70374C205.258 7.70374 206.306 7.91412 207.171 8.33105C208.035 8.74799 208.8 9.37913 209.466 10.2168L208.031 11.8578C207.936 11.9611 207.813 12.0567 207.668 12.1447C207.522 12.2326 207.366 12.2747 207.197 12.2747C206.991 12.2747 206.807 12.2135 206.643 12.0911C206.478 11.9687 206.287 11.8387 206.061 11.6971C205.836 11.5594 205.56 11.4256 205.227 11.3031C204.895 11.1807 204.462 11.1195 203.931 11.1195C203.242 11.1195 202.58 11.2993 201.953 11.6589C201.322 12.0184 200.767 12.531 200.282 13.1927C199.796 13.8545 199.413 14.6539 199.13 15.5834C198.847 16.5129 198.702 17.5419 198.702 18.6703C198.702 19.9861 199.004 20.9998 199.608 21.7151C200.213 22.4304 201.035 22.7861 202.075 22.7861C202.534 22.7861 202.94 22.7402 203.292 22.6484C203.644 22.5566 203.954 22.4418 204.225 22.3079C204.497 22.1741 204.738 22.0287 204.94 21.8719C205.147 21.7151 205.338 21.5697 205.522 21.4358C205.702 21.3019 205.878 21.1872 206.038 21.0954C206.203 21.0036 206.379 20.9577 206.574 20.9577C206.731 20.9577 206.88 20.9959 207.018 21.0724C207.155 21.1489 207.281 21.2446 207.389 21.3593L208.513 22.6866C207.897 23.3369 207.304 23.8839 206.742 24.3276L206.754 24.3352Z" fill="#0E489B"/>
<path d="M214.66 18.5784C214.66 21.3937 215.9 22.8013 218.382 22.8013C218.914 22.8013 219.388 22.7516 219.797 22.6522C220.207 22.5527 220.57 22.4341 220.876 22.2964C221.186 22.1549 221.461 21.9981 221.71 21.8259C221.959 21.65 222.188 21.4932 222.398 21.3555C222.609 21.2178 222.819 21.0954 223.026 20.9997C223.232 20.9003 223.454 20.8505 223.699 20.8505C223.844 20.8505 223.986 20.885 224.124 20.9538C224.261 21.0227 224.387 21.1183 224.495 21.2331L225.638 22.5604C224.996 23.1762 224.368 23.7117 223.749 24.1669C223.133 24.6221 222.502 24.9931 221.859 25.2838C221.216 25.5745 220.539 25.7887 219.824 25.9303C219.109 26.068 218.336 26.1407 217.498 26.1407C216.408 26.1407 215.421 25.9647 214.538 25.609C213.654 25.2532 212.897 24.756 212.27 24.1095C211.638 23.4631 211.153 22.6866 210.808 21.7724C210.464 20.8582 210.292 19.8407 210.292 18.7123C210.292 17.7713 210.399 16.8457 210.609 15.9391C210.82 15.0326 211.126 14.1719 211.527 13.3572C211.925 12.5424 212.419 11.7927 212.996 11.108C213.578 10.4233 214.232 9.83045 214.966 9.32936C215.697 8.82827 216.504 8.43811 217.38 8.15888C218.256 7.87965 219.197 7.74194 220.203 7.74194C221.209 7.74194 222.02 7.87582 222.754 8.14358C223.485 8.41134 224.097 8.75559 224.586 9.18018C225.076 9.60477 225.443 10.0791 225.684 10.6031C225.925 11.1272 226.048 11.6397 226.048 12.137C226.048 12.9402 225.879 13.6708 225.546 14.3364C225.214 14.9982 224.621 15.591 223.768 16.1151C222.915 16.6391 221.748 17.0905 220.272 17.4653C218.795 17.844 216.917 18.1424 214.645 18.3642V18.5899L214.66 18.5784ZM219.962 10.7293C219.357 10.7293 218.795 10.8479 218.275 11.0889C217.755 11.3261 217.284 11.6627 216.867 12.0911C216.45 12.5233 216.087 13.0359 215.777 13.6364C215.467 14.237 215.223 14.891 215.043 15.5987C216.542 15.3998 217.751 15.1818 218.665 14.9446C219.579 14.7074 220.283 14.4512 220.78 14.1758C221.278 13.9042 221.607 13.6058 221.771 13.2845C221.936 12.9632 222.016 12.6304 222.016 12.2823C222.016 12.1064 221.978 11.9266 221.897 11.743C221.817 11.5556 221.698 11.3911 221.534 11.2457C221.369 11.1004 221.159 10.978 220.899 10.8785C220.639 10.7791 220.325 10.7293 219.966 10.7293H219.962Z" fill="#0E489B"/>
</g>
<defs>
<clipPath id="clip0_184_740">
<rect width="226.063" height="30.18" fill="white"/>
</clipPath>
</defs>
</svg>
