<svg width="80" height="80" viewBox="0 0 80 80" fill="none" xmlns="http://www.w3.org/2000/svg">
<path d="M56.5029 69.7867C56.2839 69.9398 56.0628 70.0929 55.8438 70.2459C55.7694 70.2141 55.7481 70.2672 55.7269 70.3203C54.7957 70.9326 53.8816 71.5725 52.8717 72.0572C52.7931 72.0169 52.7803 72.0658 52.7761 72.1253C52.7378 72.138 52.6974 72.1487 52.6591 72.1614C52.5805 72.121 52.5677 72.1721 52.5614 72.2316L52.5592 72.238C52.4891 72.2741 52.3658 72.1933 52.3466 72.3379V72.34C52.3126 72.3506 52.2786 72.3613 52.2425 72.3719C50.3482 73.3753 48.3668 74.179 46.3366 74.8571C45.4203 75.1633 44.4657 75.3631 43.5218 75.5757C42.3589 75.8393 41.1811 76.0179 39.997 76.1688C37.9284 76.4325 35.8556 76.3666 33.7807 76.3495C32.8623 76.341 31.9524 76.1837 31.0382 76.0796C30.0943 75.9711 29.161 75.8181 28.2362 75.6225C26.9287 75.3461 25.6468 74.9677 24.367 74.5829C24.1522 74.5191 24.0162 74.3724 23.8206 74.3044C21.6755 73.5837 19.6431 72.6121 17.683 71.4896C16.0715 70.5691 14.5684 69.4976 13.1292 68.3134C11.8621 67.2739 10.7438 66.0918 9.58308 64.9523C8.569 63.9574 7.66334 62.8519 6.85122 61.6783C4.98676 58.9805 3.41356 56.1275 2.24428 53.0533C1.57248 51.2867 1.09627 49.4711 0.730605 47.6215C0.428719 46.0951 0.21825 44.5623 0.0906926 43.0082C-0.0241089 41.6136 -0.0156051 40.219 0.0375438 38.835C0.101322 37.1937 0.277777 35.5525 0.628559 33.9325C1.03249 32.0723 1.47469 30.2249 2.13161 28.4369C2.40373 27.6971 2.72475 26.9743 3.01813 26.2408C3.83875 24.1765 5.03353 22.3206 6.22619 20.4604C7.4635 18.5342 8.9793 16.8441 10.5419 15.1965C11.7303 13.9464 13.0845 12.8664 14.4685 11.8354L14.5493 11.7673L17.8318 9.60736C17.87 9.5861 17.9062 9.56484 17.9444 9.54358C19.4603 8.70383 21.0186 7.95762 22.6301 7.32196C24.7645 6.48221 26.9521 5.82317 29.212 5.41923C30.2091 5.24065 31.2189 5.14499 32.2224 5.01956C33.8551 4.81334 35.4878 4.74743 37.1205 4.8431C38.7235 4.93877 40.3265 5.04932 41.9188 5.31719C42.4695 5.4086 43.0243 5.55104 43.592 5.59356C44.0086 5.62333 44.4062 5.85293 44.8186 5.96348C46.5045 6.40993 48.1436 6.99031 49.7721 7.61747C50.6714 7.964 51.5026 8.42321 52.3551 8.8484C54.8446 10.0921 57.5425 12.0033 59.5706 13.7997C60.1276 14.293 60.6506 14.8138 61.1906 15.3198C61.3777 15.4963 61.3713 15.6047 61.1906 15.7833C59.5451 17.416 57.906 19.053 56.2754 20.6985C56.0798 20.8962 55.9671 20.8494 55.8141 20.6708C54.7277 19.4314 53.399 18.4662 52.083 17.5053C51.256 16.8994 50.3716 16.3573 49.4553 15.8683C47.7376 14.9499 45.9539 14.2122 44.1043 13.619C42.614 13.1407 41.0918 12.8494 39.5314 12.6581C37.9242 12.4604 36.3233 12.3052 34.7118 12.3754C32.4286 12.4774 30.1772 12.8069 27.9726 13.4468C25.6893 14.1101 23.5272 15.0583 21.4757 16.2425C20.098 17.0376 18.8288 17.9964 17.6171 19.0296C14.6662 21.5425 12.3256 24.5337 10.5589 27.9756C9.39599 30.2397 8.60301 32.6293 8.08428 35.1209C7.52728 37.7911 7.50177 40.4826 7.65484 43.1868C7.65696 43.2399 7.63783 43.3059 7.66121 43.3441C8.14593 44.1392 7.71861 45.0683 8.06302 45.8995C8.40317 46.7201 8.26711 47.6981 8.86025 48.4507C9.01119 48.642 8.76458 48.8461 8.84749 49.0884C9.6426 51.3781 10.5887 53.6061 11.9429 55.6151C12.5934 56.5824 13.1759 57.6029 13.9625 58.4873C14.7598 59.3844 15.5634 60.2731 16.4329 61.098C18.5907 63.1453 21.025 64.7844 23.71 66.0684C25.3449 66.8487 27.0329 67.4822 28.7826 67.9223C30.0666 68.2454 31.372 68.5133 32.7007 68.6281C34.1952 68.7578 35.6962 68.947 37.1822 68.7152C37.8327 68.6153 38.4727 68.7365 39.1083 68.6132C40.3074 68.3836 41.5298 68.2837 42.7161 67.9648C44.1745 67.5736 45.601 67.1017 46.9786 66.4915C47.8502 66.1067 48.724 65.724 49.5467 65.2244C50.0506 64.9183 50.6267 64.7014 51.0519 64.2954C51.6599 63.715 52.4763 63.4684 53.0928 62.9156C53.7136 62.3586 54.3471 61.8123 54.9828 61.2744C56.3668 60.103 57.5297 58.7339 58.5672 57.2755C59.9023 55.3983 61.1842 53.4594 61.9262 51.2527C62.3088 50.1132 62.8446 49.0268 63.0997 47.8384C63.3654 46.5904 63.6227 45.3425 63.8119 44.0797C63.9884 42.8998 64.1414 41.7135 64.0883 40.5251C64.0202 38.9965 64.0011 37.4637 63.6333 35.9543C63.4632 35.2612 63.4335 34.5299 63.1784 33.8475C63.1061 33.654 63.2103 33.4925 63.3633 33.3373C65.1959 31.5174 67.0221 29.6912 68.8419 27.8587C69.1246 27.5738 69.1991 27.6121 69.3415 27.9969C70.1175 30.0824 70.7404 32.2148 71.0954 34.4066C71.3569 36.0266 71.5057 37.6614 71.5886 39.3069C71.6439 40.4337 71.5227 41.5498 71.5759 42.6681C71.6035 43.2548 71.5886 43.8862 71.5015 44.4177C71.0571 47.1347 70.5363 49.841 69.6136 52.4581C68.674 55.1304 67.4643 57.6624 65.8932 60.0116C64.9025 61.4934 63.865 62.9433 62.6277 64.2507C61.2523 65.7028 59.8789 67.1527 58.3206 68.4112C57.7593 68.8641 57.164 69.2765 56.5837 69.7081C56.5071 69.6741 56.4901 69.7123 56.5007 69.7782L56.5029 69.7867Z" fill="#504CA0"/>
<path d="M77.7117 12.6709C78.4494 13.1258 79.2424 13.5021 79.8334 14.1739C80.0545 14.4269 80.0672 14.5906 79.8015 14.8053C79.5825 14.9818 79.3976 15.2008 79.1977 15.4006C74.2187 20.3775 69.2376 25.3522 64.2586 30.3312C57.3238 37.2639 50.3996 44.2094 43.4477 51.1251C42.4868 52.0818 41.4876 53.0023 40.5288 53.9633C40.2077 54.2864 39.9016 54.6266 39.5933 54.9646C38.5665 56.085 37.2101 56.5527 35.773 55.1814C35.6837 55.0964 35.5987 55.0071 35.5094 54.9178C28.4533 47.8639 21.3994 40.81 14.3434 33.7561C14.2052 33.6179 14.0521 33.4967 13.9288 33.3883C14.6687 32.7144 15.4 32.1149 16.2312 31.6429C17.6301 30.8478 19.1162 30.378 20.7361 30.2993C22.7026 30.2036 24.582 30.497 26.3487 31.3857C27.2182 31.8236 28.0239 32.3657 28.7148 33.0545C31.6572 35.9883 34.5931 38.9307 37.5439 41.8836C40.3396 39.088 43.0884 36.269 45.9117 33.5286C52.5723 27.0615 59.0479 20.4115 65.6512 13.8891C66.0912 13.4554 66.6525 13.1428 67.1585 12.7729C67.1882 12.7793 67.1903 12.875 67.2456 12.8027C67.2201 12.7878 67.1967 12.7708 67.1712 12.7559C67.7176 12.4562 68.3128 12.2797 68.8847 12.0437C69.6352 11.7333 70.4218 11.4846 71.1999 11.3741C71.7718 11.2911 72.3968 11.2571 73.0027 11.3145C74.1656 11.4251 75.3094 11.6058 76.3957 12.0565C76.8039 12.2266 77.2078 12.4073 77.6139 12.5816C77.6139 12.6475 77.6394 12.6836 77.7117 12.6709Z" fill="#EA6B0C"/>
<path d="M17.949 9.54785C17.9107 9.56911 17.8746 9.59037 17.8363 9.61163C17.8576 9.56273 17.8746 9.50321 17.949 9.54785Z" fill="#5650A2"/>
<path d="M14.5556 11.7719L14.4732 11.8412C14.4624 11.7719 14.4775 11.735 14.5556 11.7719Z" fill="#5650A2"/>
<path d="M67.1683 12.7558C67.1938 12.7707 67.2172 12.7877 67.2427 12.8026C67.1874 12.8748 67.1853 12.7813 67.1555 12.7728L67.1704 12.7537L67.1683 12.7558Z" fill="#5650A2"/>
</svg>
