<svg width="100" height="98" viewBox="0 0 100 98" fill="none" xmlns="http://www.w3.org/2000/svg">
<path d="M10.4964 36.3976C10.4964 36.5417 10.4702 36.7251 10.3266 36.7513C10.2645 36.7621 10.2005 36.7529 10.1439 36.7251C9.68695 36.5548 9.23002 36.3845 8.7731 36.1879C6.8018 35.3494 4.93494 34.2619 3.08113 33.1745C2.40227 32.7814 1.72341 32.3752 1.16205 31.838C0.600685 31.2878 0.156816 30.5802 0.104596 29.7941C0.0132109 28.5887 0.835674 27.4489 1.90618 26.8724C2.96363 26.2959 4.21691 26.1911 5.41797 26.2173C6.47542 26.2304 7.53288 26.3352 8.57727 26.5186C9.34752 26.6496 10.1047 26.8331 10.8619 27.0558C10.8619 27.0558 10.4833 34.9825 10.4833 36.3845L10.4964 36.3976Z" fill="#FBDAA6"/>
<path d="M12.5721 62.6671C12.298 63.7546 11.11 69.965 11.11 69.965C11.0186 69.965 10.9272 69.965 10.8358 69.9781H10.8097C10.5356 69.9781 10.2484 69.9912 9.9742 69.9912H9.94809C9.64783 69.9912 9.36062 69.9912 9.06035 69.965C8.96897 69.965 8.87758 69.965 8.7862 69.9519C7.98984 69.8994 7.20655 69.7946 6.42325 69.6374C5.41801 69.4409 4.39973 69.1264 3.62948 68.4975C2.85924 67.8686 2.3762 66.8336 2.68952 65.9164C2.88535 65.3268 3.39449 64.8421 3.95586 64.5276C4.53028 64.2001 5.16997 64.0166 5.80966 63.8332C6.78879 63.5449 7.76791 63.2698 8.76009 63.0209C8.85147 62.9947 8.95591 62.9685 9.0473 62.9554C9.63477 62.8112 10.2222 62.6802 10.8097 62.5754C11.3058 62.4837 11.8019 62.4051 12.311 62.3527H12.5199C12.6113 62.4051 12.5983 62.5492 12.5721 62.6409V62.6671Z" fill="#FBDAA6"/>
<path d="M10.0133 51.9103L9.85661 58.1993C8.72082 58.8806 7.35005 58.9985 6.0315 58.8151C5.70512 58.7758 5.3918 58.7102 5.07848 58.6185C4.42574 58.4482 3.75993 58.1993 3.19857 57.8324C2.76775 57.5442 2.40221 57.2035 2.12806 56.758C1.60586 55.8933 1.5667 54.8189 1.69725 53.8101C1.8278 52.7488 2.14112 51.6744 2.83303 50.8752C3.74688 49.8271 5.26125 49.3947 6.63203 49.6567C6.89313 49.7091 7.15423 49.7746 7.41533 49.8795C8.45972 50.2725 9.37357 51.0193 10.0263 51.9234L10.0133 51.9103Z" fill="#FBDAA6"/>
<path d="M10.0133 40.0006L9.84356 46.7351C9.1647 47.1412 8.39446 47.364 7.61116 47.4426C7.49366 47.4426 7.37617 47.4688 7.25867 47.4688C6.49919 47.5 5.73907 47.425 5.00016 47.246C4.90878 47.2198 4.81739 47.2067 4.72601 47.1805C3.48579 46.8661 2.23251 46.2765 1.5667 45.189C1.00534 44.2588 0.966175 43.1058 1.09673 42.0314C1.24033 40.9046 1.5667 39.7517 2.32389 38.8869C3.30302 37.7602 4.92183 37.3016 6.39704 37.5767C6.59287 37.616 6.78869 37.6553 6.97146 37.7208C8.19863 38.1008 9.26914 38.9524 10.0263 40.0006H10.0133Z" fill="#FBDAA6"/>
<path d="M8.83841 46.1716C8.57731 46.7088 8.15955 47.1674 7.62429 47.4425C6.76267 47.5343 5.86187 47.4425 5.00024 47.246H5.03941C5.91409 47.2067 6.89322 47.3639 7.6504 46.8267C8.38148 46.3027 8.70786 45.3724 8.79924 44.5208C9.00812 42.6079 8.49898 40.5902 7.59818 38.9131C7.57207 38.8607 7.6504 38.8214 7.67651 38.8607C8.19871 39.6337 8.59036 40.4591 8.86452 41.3501C9.32144 42.8568 9.54338 44.7173 8.83841 46.1716Z" fill="#FBDAA6"/>
<path d="M8.1595 57.636C7.62425 58.2911 6.86706 58.6973 6.03154 58.8021C5.70516 58.7628 5.39184 58.6973 5.07852 58.6055C4.42578 58.4352 3.75997 58.1863 3.19861 57.8194C3.22472 57.767 3.27694 57.7408 3.34221 57.767C3.5772 57.8587 3.82525 57.9242 4.07329 58.0029C4.29523 58.0815 4.51716 58.147 4.7391 58.1863C5.20907 58.2911 5.69211 58.3173 6.16209 58.2518C6.95844 58.1208 7.6373 57.7146 8.10728 57.0464C8.53809 56.4306 8.79919 55.6838 8.91669 54.937C9.16473 53.4695 8.79919 51.9628 7.82007 50.8229C7.82007 50.8229 7.82007 50.7967 7.83312 50.8098C8.52504 51.3601 8.9428 52.1724 9.12557 53.0241C9.47805 54.557 9.17779 56.3913 8.17255 57.636H8.1595Z" fill="#FBDAA6"/>
<path d="M10.4964 36.3975C10.4964 36.5416 10.4703 36.7251 10.3267 36.7513C10.2645 36.762 10.2006 36.7528 10.1439 36.7251C9.68696 36.5547 9.23004 36.3844 8.77311 36.1879C8.21175 34.0522 8.4859 31.7856 8.57729 29.5713C8.61645 28.5494 8.61645 27.5274 8.57729 26.5186C9.34753 26.6496 10.1047 26.833 10.8619 27.0557C10.8619 27.0557 10.4833 34.9825 10.4833 36.3844L10.4964 36.3975Z" fill="#EAB86E"/>
<path d="M10.0134 40.0006L9.84365 46.7351C9.16479 47.1412 8.39455 47.364 7.61125 47.4426C7.49376 47.4426 7.37626 47.4688 7.25877 47.4688C8.53815 46.5647 9.09952 44.8353 8.99508 43.2368C8.87758 41.5467 8.13345 39.9744 7.37626 38.4546C7.24571 38.2056 7.11516 37.9436 6.97156 37.7078C8.19873 38.0877 9.26923 38.9394 10.0264 39.9875L10.0134 40.0006Z" fill="#EAB86E"/>
<path d="M10.0133 51.9104L9.8566 58.1994C8.72082 58.8807 7.35005 58.9986 6.03149 58.8152C6.76257 58.6186 7.41532 58.1863 7.8853 57.5967C8.19862 57.2036 8.42055 56.7581 8.62943 56.2996C8.91664 55.6314 9.15163 54.9238 9.15163 54.1901C9.15163 53.3254 8.8122 52.5131 8.44666 51.7269C8.21167 51.2291 7.96363 50.7574 7.66337 50.2857C7.61115 50.194 7.49365 50.0368 7.40227 49.8665C8.44666 50.2595 9.36051 51.0063 10.0133 51.9104Z" fill="#EAB86E"/>
<path d="M12.8594 62.6672C12.546 63.7546 11.1622 69.965 11.1622 69.965C11.0578 69.965 10.9533 69.965 10.8489 69.9781H10.8228C10.5486 69.9781 10.2614 69.9912 9.98726 69.9912H9.96115C9.66089 69.9912 9.37368 69.9912 9.07342 69.965C8.98203 69.965 8.89065 69.965 8.79926 69.9519V69.8209C8.79926 68.4845 8.81232 67.1481 8.82537 65.8117V64.0691C8.82537 63.8464 8.74704 63.3878 8.77315 63.0209L10.8228 62.5755C11.3841 62.4837 11.9325 62.4182 12.5069 62.3658C13.0813 62.3134 12.546 62.3658 12.5591 62.3658C12.6374 62.3658 12.7158 62.3658 12.8071 62.392C12.9116 62.4444 12.8985 62.5886 12.8594 62.6803V62.6672Z" fill="#EAB86E"/>
<path d="M2.72862 41.9003C2.78084 41.481 2.84612 41.0749 3.00278 40.6818C3.38137 39.7123 4.19078 39.0048 4.98713 38.3365C4.86964 38.1793 4.64771 38.1269 4.45188 38.1793C4.25606 38.2186 4.08634 38.3365 3.92968 38.4545C3.16293 39.0483 2.55432 39.8232 2.15801 40.7101C1.7617 41.597 1.58998 42.5685 1.65812 43.5381C1.69728 44.0752 1.82783 44.6386 2.11504 45.1103C2.24559 45.3199 2.7939 46.093 2.97667 45.7392C3.13333 45.451 2.75473 44.4159 2.71557 44.1014C2.63725 43.3742 2.63725 42.6406 2.71557 41.9134L2.72862 41.9003Z" fill="#F3DCD0"/>
<path d="M3.2117 53.5743C3.25087 53.1943 3.31614 52.8012 3.45975 52.4344C3.81223 51.5303 4.56942 50.8752 5.31356 50.2463C5.19606 50.1022 4.98718 50.0629 4.81747 50.0891C4.6347 50.1284 4.47804 50.2332 4.33443 50.3512C2.89839 51.4386 2.07592 53.2991 2.21953 55.0941C2.25869 55.6051 2.38924 56.1161 2.65034 56.5615C2.76784 56.7581 3.27698 57.4787 3.45975 57.138C3.60335 56.876 3.25087 55.9064 3.22476 55.6051C3.15948 54.9253 3.15948 54.2409 3.22476 53.5612L3.2117 53.5743Z" fill="#F3DCD0"/>
<path d="M99.6487 97.8724C98.6043 97.3221 97.5469 96.7849 96.5025 96.2477C91.0977 93.4963 89.4006 91.531 83.8653 89.0678C81.0976 87.8362 78.3169 86.6308 75.5101 85.4647C72.8207 84.3511 70.1184 83.2112 67.181 82.936C66.6588 82.8836 66.1366 82.8705 65.6013 82.9098H65.4969C64.9094 82.9753 64.335 83.1195 63.7606 83.2636C63.1209 83.4208 62.4812 83.578 61.8415 83.696C60.9538 83.8663 60.066 83.9973 59.1783 84.0235C58.2122 84.0497 57.2592 83.9711 56.3193 83.7877C55.4315 83.6042 54.596 83.2243 53.7213 83.0278C51.9981 82.6347 50.3009 81.7438 48.8127 80.8135C47.3766 79.9226 45.6533 78.9792 45.1703 77.2891C44.6089 75.3369 45.3531 73.2667 45.7708 71.3669C46.3714 68.6679 46.3844 65.8248 45.81 63.1126C45.1442 59.9812 43.7082 57.0464 43.186 53.8888C42.7551 51.3077 42.9379 48.6611 43.4862 46.0931C43.5645 45.7262 43.6559 45.3594 43.8779 45.058C44.152 44.7043 44.5828 44.5077 45.0006 44.3374C46.5411 43.7216 48.1991 43.3285 49.609 42.4507C54.7266 39.2538 51.737 30.7375 50.8492 26.1255L50.7317 25.4966C50.0137 21.5398 49.6351 17.6354 51.1887 13.993C51.4498 13.3772 51.737 12.7483 52.1417 12.1719C52.9772 10.9796 54.0346 10.5996 55.0399 10.5996C55.6143 10.5996 56.4106 10.901 56.8415 11.2809C57.2853 11.6609 57.4681 12.3029 57.6117 12.8663C57.8859 13.993 57.8075 15.1722 57.925 16.3383C57.9381 16.5348 57.9642 16.7314 58.0034 16.9279C58.3689 19.3125 60.8885 28.9425 61.5021 31.4188C63.1078 37.9043 69.6092 43.8526 70.8625 50.4167C71.0322 51.3077 71.1367 52.2117 71.2933 53.1158C71.4239 53.8495 71.5805 54.5701 71.8286 55.2645C71.8416 55.3038 71.8547 55.3562 71.8808 55.3955C72.7685 57.767 72.8599 59.1165 74.8834 60.6495C83.1342 66.9122 89.3483 68.7858 99.6748 69.3623C99.6748 69.3623 100.184 98.1213 99.6748 97.8593L99.6487 97.8724Z" fill="#FBDAA6"/>
<path d="M59.0478 44.809C58.6823 44.6911 58.3298 44.5863 57.9773 44.4421C57.664 44.3111 57.3507 44.167 57.0373 44.0098C55.8885 43.4595 54.7788 42.752 53.865 41.8741C53.4081 41.4418 52.9903 40.9439 52.6378 40.4198C52.4681 40.1709 52.2723 39.8564 52.1417 39.5289C52.1678 39.3454 52.207 39.162 52.2201 38.9786C52.2462 38.7952 52.2592 38.6117 52.2853 38.4414C52.3506 38.4676 52.3898 38.52 52.4159 38.5724C52.4812 38.769 52.4942 38.9917 52.5595 39.1882C52.6248 39.3979 52.7292 39.5944 52.8336 39.7909C53.0295 40.1316 53.2514 40.446 53.4864 40.7474C53.9564 41.3239 54.5047 41.8479 55.0921 42.3065C55.6927 42.7782 56.3454 43.1843 57.0112 43.5774C57.3376 43.7739 57.677 43.9574 58.0165 44.1408C58.3689 44.3373 58.7084 44.547 59.0609 44.7435C59.087 44.7566 59.0609 44.809 59.0347 44.7959L59.0478 44.809Z" fill="#FBDAA6"/>
<path d="M55.5752 26.3482C54.2044 26.7543 52.7162 26.9378 51.3584 26.3875C51.1757 26.322 51.006 26.2303 50.8362 26.1385L50.7188 25.5096C50.9929 25.7062 51.2932 25.8765 51.5934 26.0075C52.8337 26.5316 54.2566 26.5316 55.5621 26.3089C55.5883 26.3089 55.6013 26.3482 55.5621 26.3482H55.5752Z" fill="#FBDAA6"/>
<path d="M54.6743 73.9873C54.6743 73.9873 54.6091 74.0397 54.596 73.9873C54.361 73.1226 54.0477 72.2709 53.6952 71.4455C53.0715 69.9538 52.2313 68.563 51.2017 67.3183C50.9276 66.9777 50.6273 66.6632 50.327 66.3488L50.5881 65.9033C51.5934 66.9122 52.468 68.0521 53.16 69.2968C53.5647 70.0305 53.9041 70.7904 54.1782 71.5765C54.4524 72.3626 54.596 73.1619 54.6874 73.9742L54.6743 73.9873Z" fill="#FBDAA6"/>
<path d="M58.0426 67.1218C56.7632 67.2659 55.4838 66.5191 54.348 66.0081C52.5595 65.2089 50.6535 64.2656 48.9694 63.0471L49.2305 62.5885C50.0138 63.1781 50.8493 63.7022 51.7109 64.187C52.69 64.7372 53.6953 65.2351 54.7005 65.733C55.2096 65.9819 55.7318 66.2309 56.241 66.4798C56.8154 66.755 57.3898 66.9908 58.0295 66.9777C58.1209 66.9777 58.1078 67.0956 58.0295 67.1087L58.0426 67.1218Z" fill="#FBDAA6"/>
<path d="M71.9461 57.8587C71.92 59.4702 71.672 61.0687 71.1106 62.5754C71.1106 62.6147 71.0453 62.6016 71.0584 62.5623C71.3586 61.0163 71.5545 59.4309 71.5675 57.8587C71.5675 57.0987 71.5283 56.3257 71.437 55.5658C71.3456 54.7797 71.1236 54.0067 71.0975 53.2205C71.0975 53.1288 71.215 53.0895 71.2672 53.1288C71.3978 53.8625 71.5545 54.5832 71.8025 55.2776C71.8025 55.3431 71.8156 55.4086 71.8286 55.461C71.92 56.2471 71.9592 57.0463 71.9461 57.8456V57.8587Z" fill="#FBDAA6"/>
<path d="M67.4683 82.1106C66.8547 82.3988 66.2411 82.6608 65.6145 82.8967H65.5101C64.9226 82.9622 64.3482 83.1063 63.7737 83.2504C63.134 83.4077 62.4944 83.5649 61.8547 83.6828L61.1497 83.8007C60.4969 83.8924 59.8311 83.9579 59.1784 83.9973C59.1392 83.9317 59.1653 83.84 59.2567 83.8138C59.9356 83.6304 60.6275 83.5911 61.3194 83.4863C62.0113 83.3946 62.7032 83.2766 63.3951 83.1325C64.7529 82.8574 66.1367 82.5167 67.4422 82.045C67.4683 82.045 67.4814 82.0844 67.4552 82.0975L67.4683 82.1106Z" fill="#FBDAA6"/>
<path d="M53.852 82.4905C53.852 82.7002 53.852 82.8574 53.8128 83.067C52.1418 82.7264 50.3663 81.7961 48.7867 80.8266C47.3506 79.9356 45.6273 78.9923 45.1443 77.3021C44.5829 75.3499 45.3271 73.2798 45.7448 71.38C46.3454 68.681 46.3584 65.8378 45.784 63.1257C45.1182 59.9943 43.6822 57.0595 43.16 53.9019C42.7291 51.3208 42.9119 48.6741 43.4602 46.1061C43.5385 45.7393 43.6299 45.3724 43.8519 45.0711C44.126 44.7173 44.5568 44.5208 44.9746 44.3505C46.5151 43.7347 48.1731 43.3416 49.583 42.4638C54.7006 39.2669 51.711 30.7505 50.8232 26.1386L50.7057 25.5097C49.9877 21.5529 49.6091 17.6485 51.1627 14.0061C51.1627 14.4909 51.1627 14.9626 51.1757 15.4473C51.1888 16.7968 51.2149 18.1595 51.2279 19.5221C51.254 21.1991 51.2671 22.8762 51.5021 24.5402C51.9068 27.3964 52.9251 30.1347 53.3298 32.991C53.7214 35.7817 53.4995 38.6642 52.6901 41.3632C51.7762 44.4029 52.0243 48.4514 52.1287 51.6352C52.2332 54.9631 52.194 56.9939 52.1287 60.3219C52.1026 61.6452 51.9721 62.9554 51.9198 64.2787C51.8285 66.7157 51.9851 69.1657 52.2462 71.5896C52.5726 74.5245 53.1731 77.2497 53.617 80.1715C53.7345 80.9445 53.852 81.7175 53.8389 82.5036L53.852 82.4905Z" fill="#EAB86E"/>
<path d="M57.9773 16.941C57.9773 16.941 57.8729 17.0065 57.8076 17.0196C57.6379 17.072 57.4682 17.1375 57.2985 17.1899C57.1945 17.2228 57.0846 17.2324 56.9765 17.2182C56.8684 17.204 56.7647 17.1662 56.6727 17.1076C56.5807 17.0489 56.5025 16.9708 56.4438 16.8786C56.385 16.7865 56.347 16.6825 56.3324 16.5741C56.1627 15.3032 56.1105 14.0192 56.1627 12.7614C56.1757 12.3946 56.2149 12.0277 56.3585 11.7264C56.463 11.5298 56.6196 11.3595 56.8154 11.2809C57.2332 11.0975 57.4421 12.3028 57.5857 12.8662C57.8598 13.993 57.7815 15.1722 57.899 16.3383C57.9121 16.5348 57.9382 16.7313 57.9773 16.9279V16.941Z" fill="#F3DCD0"/>
<path d="M10.7705 5.35876V76.1491C10.7705 78.3765 12.5721 80.1715 14.7784 80.1715H45.4967C46.5597 80.1715 47.5791 79.7477 48.3307 78.9934C49.0824 78.239 49.5046 77.2159 49.5046 76.1491V5.35876C49.5046 3.13141 47.703 1.33643 45.4967 1.33643H40.5359C40.34 1.33643 40.1834 1.49365 40.1834 1.69018C40.1834 2.64663 39.7917 3.51137 39.1651 4.14027C38.5384 4.76916 37.6768 5.14912 36.7238 5.14912H23.3294C21.4234 5.14912 19.8829 3.60308 19.8829 1.69018C19.8819 1.59668 19.8444 1.50729 19.7785 1.44117C19.7126 1.37505 19.6236 1.33745 19.5304 1.33643H14.7784C12.559 1.33643 10.7705 3.13141 10.7705 5.35876Z" fill="#F1F4FA"/>
<path d="M9.17786 14.2419V20.544C9.17786 20.7405 9.33452 20.9108 9.53034 20.9239V13.8619C9.33452 13.875 9.17786 14.0454 9.17786 14.2419Z" fill="white"/>
<path d="M9.17786 16.1156V20.544C9.17786 20.7406 9.33452 20.9109 9.53034 20.924H9.55645C9.76533 20.924 9.93505 20.7537 9.93505 20.544V16.1156C9.93505 16.0148 9.89516 15.9181 9.82416 15.8469C9.75316 15.7756 9.65686 15.7356 9.55645 15.7356H9.53034C9.33452 15.7487 9.17786 15.919 9.17786 16.1156Z" fill="#292562"/>
<path d="M9.17786 10.7305V15.159C9.17786 15.3556 9.33452 15.5259 9.53034 15.539H9.55645C9.76533 15.539 9.93505 15.3687 9.93505 15.159V10.7305C9.93505 10.6298 9.89516 10.5331 9.82416 10.4619C9.75316 10.3906 9.65686 10.3506 9.55645 10.3506H9.53034C9.33452 10.3637 9.17786 10.534 9.17786 10.7305Z" fill="#292562"/>
<path d="M9.17786 22.1556V24.776C9.17786 24.9725 9.33452 25.1429 9.53034 25.156H9.55645C9.76533 25.156 9.93505 24.9856 9.93505 24.776V22.1556C9.93505 22.0548 9.89516 21.9582 9.82416 21.8869C9.75316 21.8157 9.65686 21.7756 9.55645 21.7756H9.53034C9.33452 21.7887 9.17786 21.9591 9.17786 22.1556Z" fill="#292562"/>
<path d="M9.53027 5.18841V76.3195C9.53372 77.6945 10.0795 79.0121 11.0483 79.9844C12.017 80.9567 13.33 81.5044 14.7 81.5079H45.562C46.9321 81.5044 48.245 80.9567 49.2138 79.9844C50.1826 79.0121 50.7283 77.6945 50.7318 76.3195V5.18841C50.7283 3.81342 50.1826 2.49574 49.2138 1.52347C48.245 0.551205 46.9321 0.00345911 45.562 0L14.7 0C13.33 0.00345911 12.017 0.551205 11.0483 1.52347C10.0795 2.49574 9.53372 3.81342 9.53027 5.18841ZM10.7836 5.35874C10.7836 3.13139 12.5721 1.33641 14.7914 1.33641H19.5434C19.6366 1.33743 19.7257 1.37503 19.7916 1.44115C19.8574 1.50727 19.8949 1.59666 19.8959 1.69016C19.8959 3.60306 21.4364 5.14911 23.3424 5.14911H36.7368C37.6899 5.14911 38.5515 4.76915 39.1781 4.14025C39.8048 3.51135 40.1964 2.64661 40.1964 1.69016C40.1964 1.49363 40.3531 1.33641 40.5489 1.33641H45.5098C47.7291 1.33641 49.5177 3.13139 49.5177 5.35874V76.1491C49.5177 77.2159 49.0954 78.239 48.3438 78.9933C47.5922 79.7477 46.5727 80.1715 45.5098 80.1715H14.7914C13.7285 80.1715 12.7091 79.7477 11.9574 78.9933C11.2058 78.239 10.7836 77.2159 10.7836 76.1491V5.35874Z" fill="#292562"/>
<path d="M25.8359 3.01346C25.8359 3.13138 25.8882 3.2493 25.9665 3.32791C26.0448 3.40652 26.1623 3.45893 26.2798 3.45893H33.7864C34.0345 3.45893 34.2303 3.2624 34.2303 3.01346C34.2303 2.88244 34.1781 2.77763 34.0997 2.69901C34.0159 2.61658 33.9037 2.56967 33.7864 2.56799H26.2798C26.0318 2.56799 25.8359 2.76452 25.8359 3.01346Z" fill="white"/>
<path d="M24.3999 3.01346C24.3999 3.2624 24.5957 3.45893 24.8438 3.45893C25.0918 3.45893 25.2876 3.2624 25.2876 3.01346C25.2876 2.76452 25.0918 2.56799 24.8438 2.56799C24.5957 2.56799 24.3999 2.76452 24.3999 3.01346Z" fill="white"/>
<path d="M33.0993 13.2399C33.0993 12.7354 33.1001 12.2309 33.098 11.7262C33.098 11.6767 33.113 11.666 33.1647 11.6662C33.6124 11.6681 34.0601 11.6618 34.5075 11.6695C34.7747 11.6739 35.0436 11.6907 35.2861 11.8163C35.5285 11.9421 35.6769 12.1282 35.7391 12.3796C35.79 12.5865 35.7766 12.7882 35.7087 12.9859C35.6062 13.2836 35.38 13.4713 35.0589 13.566C34.9046 13.6116 34.7464 13.627 34.5849 13.626C34.2957 13.6244 34.0063 13.6256 33.7171 13.6256C33.6621 13.6256 33.6345 13.65 33.6345 13.6989C33.6345 14.054 33.6338 14.409 33.6355 14.7641C33.6355 14.8089 33.6244 14.8241 33.5731 14.823C33.4359 14.8197 33.2987 14.8197 33.1614 14.823C33.1117 14.8241 33.098 14.8113 33.098 14.7651C33.0998 14.2566 33.099 13.7481 33.099 13.2397L33.0993 13.2399ZM33.6345 12.6572C33.6345 12.8145 33.6366 12.9717 33.6332 13.129C33.6322 13.1743 33.648 13.1834 33.6939 13.1829C33.8838 13.1806 34.0741 13.1834 34.264 13.1815C34.436 13.1799 34.6084 13.1927 34.7793 13.1591C34.9665 13.1222 35.1636 12.9973 35.1961 12.8031C35.2106 12.7174 35.2163 12.6327 35.2035 12.5477C35.1854 12.4301 35.1347 12.3278 35.0251 12.255C34.8993 12.1712 34.755 12.1387 34.6053 12.1359C34.2992 12.1298 33.9929 12.1333 33.6867 12.1308C33.6447 12.1305 33.633 12.142 33.6335 12.1798C33.6355 12.339 33.6343 12.4982 33.6343 12.6574L33.6345 12.6572Z" fill="#514C9F"/>
<path d="M38.7311 15.1012C38.9022 15.1742 39.0779 15.2221 39.2597 15.2489C39.4495 15.2769 39.641 15.2877 39.8279 15.238C39.9935 15.1941 40.1002 15.071 40.1116 14.9088C40.1154 14.8553 40.12 14.8016 40.1221 14.7479C40.1231 14.7246 40.1129 14.7164 40.0886 14.7202C39.8689 14.7543 39.6468 14.7629 39.4261 14.7512C39.2126 14.7398 39.0003 14.7006 38.8243 14.5766C38.6715 14.4692 38.576 14.3247 38.5371 14.1498C38.5179 14.0628 38.5133 13.9757 38.5138 13.887C38.5161 13.491 38.5148 13.0949 38.5148 12.6989C38.5148 12.6499 38.5424 12.6254 38.5977 12.6254C38.7309 12.6254 38.864 12.6277 38.997 12.6242C39.0494 12.6228 39.0586 12.6396 39.0586 12.6833C39.0568 13.1007 39.0543 13.5181 39.0591 13.9355C39.0616 14.1622 39.1867 14.2857 39.4215 14.3221C39.6173 14.3525 39.8154 14.3396 40.0118 14.3144C40.0462 14.31 40.0896 14.3277 40.1139 14.2995C40.1398 14.2694 40.1238 14.2283 40.1238 14.1921C40.1246 13.7009 40.1251 13.2097 40.1233 12.7185C40.1233 12.6709 40.1353 12.6557 40.1888 12.6569C40.3324 12.6604 40.4758 12.6592 40.6197 12.6574C40.6587 12.6569 40.6693 12.6672 40.6693 12.7031C40.6678 13.4369 40.6714 14.1709 40.6648 14.9046C40.6627 15.1208 40.5963 15.3246 40.4165 15.4794C40.2717 15.604 40.0933 15.668 39.9004 15.6981C39.7248 15.7254 39.5471 15.7179 39.3713 15.7077C39.2001 15.6976 39.0332 15.6575 38.8714 15.6026C38.8304 15.5886 38.8286 15.558 38.8217 15.5307C38.7889 15.3993 38.7593 15.2674 38.7293 15.1355C38.7273 15.1266 38.7309 15.1168 38.7321 15.1019L38.7311 15.1012Z" fill="#514C9F"/>
<path d="M38.1846 14.0364C38.1846 14.2673 38.1841 14.4984 38.1851 14.7293C38.1851 14.7639 38.1821 14.783 38.1352 14.7912C37.9967 14.8152 37.8568 14.8274 37.7183 14.8486C37.4514 14.8895 37.1833 14.8839 36.9156 14.8808C36.7134 14.8785 36.5145 14.8353 36.3327 14.7599C36.1737 14.6941 36.0585 14.5736 35.9948 14.416C35.954 14.3149 35.9573 14.2141 35.9644 14.1102C35.9718 14.0033 36.0034 13.9057 36.0669 13.8149C36.1631 13.6774 36.3065 13.6008 36.4694 13.5571C36.7086 13.4934 36.9541 13.4715 37.2034 13.4948C37.3413 13.5081 37.4688 13.51 37.6054 13.5287C37.6264 13.5315 37.6391 13.5291 37.6373 13.5072C37.6264 13.3692 37.6422 13.2235 37.5118 13.1185C37.4249 13.0484 37.3236 13.0137 37.2072 13.0046C37.1147 12.9973 37.0228 12.9936 36.9304 12.9955C36.6857 13.0004 36.4521 13.0559 36.2237 13.1327C36.1705 13.1504 36.1482 13.1733 36.1707 13.0907C36.2031 12.9714 36.2338 12.8519 36.2617 12.7317C36.2675 12.706 36.2861 12.6906 36.3185 12.6794C36.4659 12.6282 36.6213 12.6145 36.7735 12.5855C36.8832 12.5646 36.9604 12.5603 37.0977 12.5603C37.2349 12.5603 37.5425 12.5806 37.7474 12.6646C37.9313 12.7403 38.0565 12.8701 38.1228 13.0512C38.1761 13.1969 38.1849 13.3445 38.1851 13.4946C38.1854 13.675 38.1851 13.8555 38.1851 14.0362L38.1846 14.0364ZM37.6404 14.1613C37.6404 14.0876 37.6391 14.0138 37.6409 13.9402C37.6417 13.9085 37.6356 13.8942 37.5945 13.8896C37.497 13.8786 37.3995 13.8732 37.3019 13.8653C37.0989 13.849 36.8988 13.8515 36.7055 13.9176C36.6125 13.9493 36.5128 14.0392 36.5222 14.1693C36.5293 14.2682 36.5909 14.3534 36.7063 14.3969C36.8004 14.4321 36.8985 14.4485 36.9999 14.4545C37.2024 14.4669 37.4028 14.455 37.6029 14.4291C37.6338 14.4251 37.6409 14.4139 37.6406 14.3885C37.6396 14.3128 37.6404 14.2372 37.6404 14.1616V14.1613Z" fill="#514C9F"/>
<path d="M31.6445 14.5246C31.8686 14.5022 32.0749 14.4445 32.2577 14.3231C32.3011 14.2944 32.3265 14.2956 32.3514 14.3427C32.3901 14.4165 32.434 14.4882 32.4769 14.5603C32.4913 14.5848 32.4959 14.6028 32.4645 14.621C32.2758 14.7302 32.0751 14.8101 31.8547 14.8475C31.7015 14.8734 31.5461 14.8799 31.3926 14.8687C31.1534 14.8514 30.931 14.7856 30.736 14.6471C30.5521 14.5166 30.4278 14.3472 30.3568 14.1511C30.2904 13.9678 30.2701 13.775 30.2972 13.5784C30.3137 13.4586 30.339 13.3433 30.3885 13.2324C30.526 12.9245 30.7616 12.7198 31.1174 12.6327C31.2724 12.5949 31.4276 12.5946 31.5831 12.6014C31.8243 12.6121 32.0457 12.6817 32.2266 12.8346C32.3919 12.9745 32.5007 13.1432 32.5611 13.3466C32.6082 13.5051 32.6181 13.6622 32.6207 13.8231C32.6214 13.8653 32.5966 13.859 32.5694 13.859C32.259 13.859 31.9486 13.859 31.6381 13.859C31.3551 13.859 31.0723 13.8597 30.7892 13.8583C30.7416 13.8583 30.7263 13.8604 30.738 13.9153C30.7722 14.0764 30.8491 14.216 30.9741 14.3292C31.1101 14.4524 31.3604 14.5529 31.6445 14.5246ZM31.4586 13.521C31.6843 13.521 31.9098 13.5212 32.1355 13.5205C32.1533 13.5205 32.1842 13.5345 32.1763 13.4934C32.1505 13.3568 32.0942 13.2341 31.9891 13.133C31.8801 13.0282 31.752 12.9633 31.5902 12.9464C31.3802 12.9245 31.1884 12.9408 31.0132 13.0662C30.8648 13.1724 30.7963 13.3155 30.7441 13.4717C30.7309 13.5114 30.7405 13.5226 30.788 13.5221C31.0114 13.5196 31.2351 13.521 31.4586 13.521Z" fill="#282B35"/>
<path d="M27.1948 14.8748C27.0454 14.871 26.8955 14.8636 26.7525 14.8227C26.5907 14.7765 26.4428 14.7086 26.3254 14.5869C26.2465 14.5055 26.2199 14.409 26.197 14.3114C26.1747 14.2153 26.1785 14.1154 26.2069 14.0182C26.2637 13.8235 26.3966 13.6905 26.5965 13.6116C26.7416 13.5544 26.8933 13.5296 27.0502 13.517C27.1426 13.5095 27.2349 13.5037 27.3259 13.5098C27.4277 13.5163 27.5296 13.5212 27.6313 13.5277C27.7099 13.5329 27.7865 13.5452 27.8644 13.5534C27.9009 13.5574 27.9187 13.5483 27.9187 13.5072C27.9187 13.4185 27.9136 13.3302 27.8872 13.245C27.8393 13.0905 27.7148 13.0092 27.5534 12.9731C27.3957 12.9376 27.2356 12.9488 27.0746 12.9577C26.8922 12.9677 26.7392 12.9934 26.5509 13.0641C26.4974 13.0842 26.505 13.0823 26.4339 13.1033C26.406 13.1001 26.3946 13.1031 26.3984 13.0842C26.4197 12.9817 26.44 12.879 26.4644 12.7772C26.4715 12.748 26.5027 12.7377 26.5336 12.7279C26.7314 12.6654 26.9336 12.6271 27.1426 12.6084C27.3635 12.5886 27.5785 12.6019 27.7911 12.6577C27.9719 12.7051 28.119 12.7984 28.2131 12.9492C28.2646 13.0319 28.3006 13.1234 28.3108 13.2201C28.3635 13.7262 28.3222 14.2339 28.3359 14.7405C28.3369 14.7739 28.329 14.7966 28.2882 14.8008C28.1748 14.8124 28.0612 14.8225 27.9483 14.8369C27.7992 14.8561 27.6503 14.8743 27.4994 14.871C27.491 14.871 27.4827 14.8731 27.4746 14.8743C27.3815 14.8743 27.2882 14.8745 27.1951 14.8748H27.1948ZM27.653 14.515C27.731 14.5086 27.8182 14.4849 27.8781 14.476C27.9067 14.4718 27.9179 14.4653 27.9177 14.4377C27.9166 14.2692 27.9166 14.1004 27.9177 13.9318C27.9177 13.9041 27.9065 13.895 27.8778 13.8926C27.7307 13.8807 27.4365 13.8548 27.4365 13.8548L27.259 13.8553C27.259 13.8553 26.9562 13.8705 26.8136 13.9255C26.7079 13.9666 26.6416 14.0376 26.6275 14.1434C26.6105 14.268 26.6587 14.3647 26.7804 14.4277C26.843 14.4602 26.9105 14.4816 26.9797 14.4919C27.067 14.5048 27.2305 14.5171 27.2305 14.5171C27.2305 14.5171 27.2882 14.5211 27.3105 14.5171C27.3434 14.5171 27.4096 14.5171 27.4096 14.5171C27.4096 14.5171 27.5824 14.5208 27.653 14.515Z" fill="#282B35"/>
<path d="M23.4412 13.3304C23.444 13.5216 23.4978 13.7047 23.5944 13.8713C23.7311 14.1069 23.9325 14.2832 24.2004 14.3947C24.4203 14.4865 24.6498 14.5208 24.8885 14.5091C25.0764 14.4998 25.2562 14.455 25.4302 14.3898C25.5195 14.3565 25.6042 14.3151 25.6841 14.2656C25.7054 14.2526 25.7209 14.2514 25.734 14.2785C25.7764 14.3658 25.8203 14.4529 25.8677 14.5381C25.8827 14.5649 25.8692 14.5684 25.85 14.5803C25.7133 14.6651 25.5656 14.7297 25.4097 14.7762C25.2385 14.8271 25.0635 14.8588 24.8816 14.8614C24.8157 14.8623 24.7484 14.8738 24.6817 14.8701C24.4527 14.8567 24.2311 14.815 24.0183 14.7312C23.8067 14.648 23.6208 14.5327 23.4633 14.3803C23.268 14.1912 23.1407 13.9654 23.0656 13.7147C22.9982 13.4896 22.9956 13.2583 23.0167 13.0295C23.0431 12.7421 23.1541 12.4783 23.3421 12.2437C23.4745 12.0784 23.6388 11.9477 23.8301 11.8438C23.9518 11.7775 24.0801 11.7254 24.2166 11.6904C24.3355 11.6598 24.4568 11.6433 24.5795 11.6307C24.6696 11.6213 24.7596 11.6171 24.8491 11.6218C25.086 11.6339 25.3173 11.6724 25.537 11.7602C25.6481 11.8046 25.7554 11.8538 25.8545 11.918C25.8743 11.9309 25.8781 11.9335 25.8662 11.9552C25.8203 12.039 25.7772 12.1242 25.7363 12.2101C25.7224 12.2395 25.7067 12.2409 25.6818 12.2253C25.5256 12.1249 25.3498 12.0621 25.1664 12.0243C24.9823 11.9862 24.7954 11.9696 24.6039 11.9913C24.4025 12.014 24.2181 12.0719 24.0461 12.1674C23.8602 12.2708 23.7157 12.412 23.6091 12.5855C23.5384 12.7006 23.4904 12.8245 23.4615 12.9534C23.4466 13.0204 23.4476 13.0904 23.4412 13.1588C23.4328 13.2157 23.4492 13.2723 23.4412 13.3304Z" fill="#282B35"/>
<path d="M20.2712 13.8578C20.272 13.4931 20.2735 13.1285 20.2723 12.7638C20.2723 12.7174 20.287 12.6852 20.323 12.6525C20.6588 12.3464 20.9926 12.0387 21.3268 11.7315C21.4914 11.5802 21.6568 11.4294 21.8196 11.2765C21.8534 11.245 21.8879 11.2144 21.9219 11.1834C21.9487 11.1586 21.9662 11.1626 21.988 11.1869C22.0608 11.2679 22.1207 11.3533 22.158 11.4556C22.1937 11.5534 22.2189 11.651 22.2156 11.7528C22.2082 11.9759 22.1202 12.1692 21.9475 12.328C21.6162 12.6324 21.2847 12.9368 20.9538 13.2417C20.9368 13.2574 20.9114 13.2688 20.9111 13.2961C20.8825 13.298 20.8685 13.3192 20.851 13.3353C20.674 13.4988 20.4975 13.6626 20.3202 13.8256C20.3062 13.8384 20.2971 13.8594 20.2715 13.858L20.2712 13.8578Z" fill="#514C9F"/>
<path d="M20.2711 13.8578C20.2968 13.8592 20.3059 13.8382 20.3198 13.8254C20.4971 13.6622 20.6736 13.4985 20.8507 13.3351C20.8682 13.319 20.8821 13.2978 20.9108 13.2959C21.1289 13.4943 21.3475 13.6923 21.5651 13.8912C21.7039 14.0177 21.8439 14.1431 21.9788 14.2731C22.1056 14.3955 22.1703 14.5456 22.2035 14.7113C22.2388 14.8866 22.1903 15.0475 22.1203 15.2055C22.1049 15.2406 22.0742 15.2707 22.0465 15.3001C22.0313 15.3162 22.0164 15.3297 22.0055 15.3505C21.9725 15.4124 21.9426 15.415 21.8862 15.3629C21.7095 15.1985 21.5352 15.0321 21.3579 14.8682C21.011 14.5479 20.6625 14.229 20.3158 13.9082C20.2998 13.8935 20.2668 13.8886 20.2711 13.8578Z" fill="#282B35"/>
<path d="M28.7449 12.7594C28.8496 12.7155 28.964 12.7085 29.0751 12.6941C29.3729 12.6551 29.6732 12.657 29.9729 12.6572C30.0178 12.6572 30.0361 12.664 30.0338 12.7102C30.0293 12.7973 30.0308 12.8848 30.0333 12.9721C30.0343 13.0074 30.0244 13.0195 29.9841 13.0183C29.8892 13.0155 29.7941 13.0176 29.6993 13.0174C29.5425 13.0169 29.3876 13.0349 29.2326 13.0543C29.1811 13.0608 29.1611 13.0797 29.1613 13.1318C29.1636 13.675 29.1621 14.2183 29.1639 14.7615C29.1639 14.8098 29.1557 14.829 29.0969 14.8257C29.0003 14.8204 28.9029 14.8246 28.8057 14.8239C28.7852 14.8239 28.7631 14.8297 28.7449 14.8157C28.7467 14.8005 28.7497 14.7853 28.7497 14.7702C28.7497 14.1151 28.7497 13.46 28.7497 12.805C28.7497 12.7898 28.7467 12.7746 28.7449 12.7594Z" fill="#282B35"/>
<path d="M28.7447 12.7594C28.7462 12.7746 28.7495 12.7897 28.7495 12.8049C28.7495 13.46 28.7495 14.1151 28.7495 14.7701C28.7495 14.7853 28.7465 14.8005 28.7447 14.8156C28.7439 14.6742 28.7424 14.5329 28.7424 14.3917C28.7422 13.8669 28.7424 13.3419 28.7424 12.8171C28.7424 12.7979 28.7439 12.7785 28.7447 12.7594Z" fill="#282B35"/>
<g clip-path="url(#clip0_1_1592)">
<path d="M28.3748 26H21.9998V32.375H28.3748V26ZM27.3123 31.3125H23.0623V27.0625H27.3123V31.3125Z" fill="#36336A"/>
<path d="M24.1248 28.125H26.2498V30.25H24.1248V28.125ZM21.9998 43H28.3748V36.625H21.9998V43ZM23.0623 37.6875H27.3123V41.9375H23.0623V37.6875Z" fill="#36336A"/>
<path d="M24.1248 38.75H26.2498V40.875H24.1248V38.75ZM32.6248 26V32.375H38.9998V26H32.6248ZM37.9373 31.3125H33.6873V27.0625H37.9373V31.3125Z" fill="#36336A"/>
<path d="M34.7498 28.125H36.8748V30.25H34.7498V28.125ZM24.1248 33.4375H21.9998V35.5625H25.1873V34.5H24.1248V33.4375ZM29.4373 35.5625H31.5623V37.6875H29.4373V35.5625ZM25.1873 33.4375H27.3123V34.5H25.1873V33.4375ZM31.5623 38.75H29.4373V39.8125H30.4998V40.875H31.5623V39.8125V38.75ZM28.3748 33.4375V34.5H27.3123V35.5625H29.4373V33.4375H28.3748ZM30.4998 30.25H31.5623V32.375H30.4998V30.25ZM31.5623 34.5V35.5625H33.6873V33.4375H30.4998V34.5H31.5623ZM29.4373 32.375H30.4998V33.4375H29.4373V32.375ZM31.5623 40.875H33.6873V43H31.5623V40.875ZM29.4373 40.875H30.4998V43H29.4373V40.875ZM31.5623 37.6875H32.6248V38.75H31.5623V37.6875ZM31.5623 29.1875V27.0625H30.4998V26H29.4373V30.25H30.4998V29.1875H31.5623ZM34.7498 40.875H35.8123V43H34.7498V40.875ZM34.7498 38.75H36.8748V39.8125H34.7498V38.75ZM33.6873 39.8125H34.7498V40.875H33.6873V39.8125ZM32.6248 38.75H33.6873V39.8125H32.6248V38.75ZM36.8748 36.625V37.6875H37.9373V38.75H38.9998V36.625H37.9373H36.8748ZM37.9373 39.8125H36.8748V43H38.9998V40.875H37.9373V39.8125ZM32.6248 36.625V37.6875H35.8123V35.5625H33.6873V36.625H32.6248ZM34.7498 33.4375V34.5H36.8748V35.5625H38.9998V33.4375H36.8748H34.7498Z" fill="#36336A"/>
</g>
<path d="M21.6842 50.4759C21.4788 50.4759 21.2948 50.4425 21.1322 50.3759C20.9695 50.3092 20.8388 50.2105 20.7402 50.0799C20.6442 49.9492 20.5935 49.7919 20.5882 49.6079H21.3162C21.3268 49.7119 21.3628 49.7919 21.4242 49.8479C21.4855 49.9012 21.5655 49.9279 21.6642 49.9279C21.7655 49.9279 21.8455 49.9052 21.9042 49.8599C21.9628 49.8119 21.9922 49.7465 21.9922 49.6639C21.9922 49.5945 21.9682 49.5372 21.9202 49.4919C21.8748 49.4465 21.8175 49.4092 21.7482 49.3799C21.6815 49.3505 21.5855 49.3172 21.4602 49.2799C21.2788 49.2239 21.1308 49.1679 21.0162 49.1119C20.9015 49.0559 20.8028 48.9732 20.7202 48.8639C20.6375 48.7545 20.5962 48.6119 20.5962 48.4359C20.5962 48.1745 20.6908 47.9705 20.8802 47.8239C21.0695 47.6745 21.3162 47.5999 21.6202 47.5999C21.9295 47.5999 22.1788 47.6745 22.3682 47.8239C22.5575 47.9705 22.6588 48.1759 22.6722 48.4399H21.9322C21.9268 48.3492 21.8935 48.2785 21.8322 48.2279C21.7708 48.1745 21.6922 48.1479 21.5962 48.1479C21.5135 48.1479 21.4468 48.1705 21.3962 48.2159C21.3455 48.2585 21.3202 48.3212 21.3202 48.4039C21.3202 48.4945 21.3628 48.5652 21.4482 48.6159C21.5335 48.6665 21.6668 48.7212 21.8482 48.7799C22.0295 48.8412 22.1762 48.8999 22.2882 48.9559C22.4028 49.0119 22.5015 49.0932 22.5842 49.1999C22.6668 49.3065 22.7082 49.4439 22.7082 49.6119C22.7082 49.7719 22.6668 49.9172 22.5842 50.0479C22.5042 50.1785 22.3868 50.2825 22.2322 50.3599C22.0775 50.4372 21.8948 50.4759 21.6842 50.4759ZM22.9931 49.3319C22.9931 49.0999 23.0398 48.8972 23.1331 48.7239C23.2291 48.5505 23.3611 48.4172 23.5291 48.3239C23.6998 48.2305 23.8944 48.1839 24.1131 48.1839C24.3931 48.1839 24.6264 48.2572 24.8131 48.4039C25.0024 48.5505 25.1264 48.7572 25.1851 49.0239H24.4571C24.3958 48.8532 24.2771 48.7679 24.1011 48.7679C23.9758 48.7679 23.8758 48.8172 23.8011 48.9159C23.7264 49.0119 23.6891 49.1505 23.6891 49.3319C23.6891 49.5132 23.7264 49.6532 23.8011 49.7519C23.8758 49.8479 23.9758 49.8959 24.1011 49.8959C24.2771 49.8959 24.3958 49.8105 24.4571 49.6399H25.1851C25.1264 49.9012 25.0024 50.1065 24.8131 50.2559C24.6238 50.4052 24.3904 50.4799 24.1131 50.4799C23.8944 50.4799 23.6998 50.4332 23.5291 50.3399C23.3611 50.2465 23.2291 50.1132 23.1331 49.9399C23.0398 49.7665 22.9931 49.5639 22.9931 49.3319ZM25.415 49.3279C25.415 49.0985 25.4576 48.8972 25.543 48.7239C25.631 48.5505 25.7496 48.4172 25.899 48.3239C26.0483 48.2305 26.215 48.1839 26.399 48.1839C26.5563 48.1839 26.6936 48.2159 26.811 48.2799C26.931 48.3439 27.023 48.4279 27.087 48.5319V48.2159H27.771V50.4479H27.087V50.1319C27.0203 50.2359 26.927 50.3199 26.807 50.3839C26.6896 50.4479 26.5523 50.4799 26.395 50.4799C26.2136 50.4799 26.0483 50.4332 25.899 50.3399C25.7496 50.2439 25.631 50.1092 25.543 49.9359C25.4576 49.7599 25.415 49.5572 25.415 49.3279ZM27.087 49.3319C27.087 49.1612 27.039 49.0265 26.943 48.9279C26.8496 48.8292 26.735 48.7799 26.599 48.7799C26.463 48.7799 26.347 48.8292 26.251 48.9279C26.1576 49.0239 26.111 49.1572 26.111 49.3279C26.111 49.4985 26.1576 49.6345 26.251 49.7359C26.347 49.8345 26.463 49.8839 26.599 49.8839C26.735 49.8839 26.8496 49.8345 26.943 49.7359C27.039 49.6372 27.087 49.5025 27.087 49.3319ZM29.6258 48.1919C29.8872 48.1919 30.0952 48.2772 30.2498 48.4479C30.4072 48.6159 30.4858 48.8479 30.4858 49.1439V50.4479H29.8058V49.2359C29.8058 49.0865 29.7672 48.9705 29.6898 48.8879C29.6125 48.8052 29.5085 48.7639 29.3778 48.7639C29.2472 48.7639 29.1432 48.8052 29.0658 48.8879C28.9885 48.9705 28.9498 49.0865 28.9498 49.2359V50.4479H28.2658V48.2159H28.9498V48.5119C29.0192 48.4132 29.1125 48.3359 29.2298 48.2799C29.3472 48.2212 29.4792 48.1919 29.6258 48.1919ZM34.3208 50.4479H33.6368L32.4928 48.7159V50.4479H31.8088V47.6399H32.4928L33.6368 49.3799V47.6399H34.3208V50.4479ZM35.8326 50.4799C35.6139 50.4799 35.4166 50.4332 35.2406 50.3399C35.0673 50.2465 34.9299 50.1132 34.8286 49.9399C34.7299 49.7665 34.6806 49.5639 34.6806 49.3319C34.6806 49.1025 34.7313 48.9012 34.8326 48.7279C34.9339 48.5519 35.0726 48.4172 35.2486 48.3239C35.4246 48.2305 35.6219 48.1839 35.8406 48.1839C36.0593 48.1839 36.2566 48.2305 36.4326 48.3239C36.6086 48.4172 36.7473 48.5519 36.8486 48.7279C36.9499 48.9012 37.0006 49.1025 37.0006 49.3319C37.0006 49.5612 36.9486 49.7639 36.8446 49.9399C36.7433 50.1132 36.6033 50.2465 36.4246 50.3399C36.2486 50.4332 36.0513 50.4799 35.8326 50.4799ZM35.8326 49.8879C35.9633 49.8879 36.0739 49.8399 36.1646 49.7439C36.2579 49.6479 36.3046 49.5105 36.3046 49.3319C36.3046 49.1532 36.2593 49.0159 36.1686 48.9199C36.0806 48.8239 35.9713 48.7759 35.8406 48.7759C35.7073 48.7759 35.5966 48.8239 35.5086 48.9199C35.4206 49.0132 35.3766 49.1505 35.3766 49.3319C35.3766 49.5105 35.4193 49.6479 35.5046 49.7439C35.5926 49.8399 35.7019 49.8879 35.8326 49.8879ZM40.5675 48.2159L39.9635 50.4479H39.2075L38.8555 48.9999L38.4915 50.4479H37.7395L37.1315 48.2159H37.8155L38.1315 49.8119L38.5075 48.2159H39.2315L39.6115 49.8039L39.9235 48.2159H40.5675Z" fill="#EA6B0C"/>
<defs>
<clipPath id="clip0_1_1592">
<rect width="17" height="17" fill="white" transform="translate(21.9998 26)"/>
</clipPath>
</defs>
</svg>
