<svg width="34" height="46" viewBox="0 0 34 46" fill="none" xmlns="http://www.w3.org/2000/svg">
<path d="M1.375 45.375H32.625C32.7576 45.375 32.8848 45.3223 32.9786 45.2286C33.0723 45.1348 33.125 45.0076 33.125 44.875V35.5C33.125 27.905 28.42 22.6 21.69 22.6C21.6132 22.5988 21.5372 22.6154 21.4678 22.6483C21.3985 22.6813 21.3376 22.7297 21.29 22.79C20.5 23.835 18.9 24.5 17.155 24.535C15.315 24.57 13.655 23.915 12.695 22.775C12.6481 22.7201 12.5898 22.6761 12.5242 22.6458C12.4586 22.6156 12.3872 22.6 12.315 22.6C5.58 22.6 0.875 27.905 0.875 35.5V44.875C0.875 45.0076 0.927678 45.1348 1.02145 45.2286C1.11521 45.3223 1.24239 45.375 1.375 45.375ZM17.175 25.535C18.3548 25.5272 19.515 25.2321 20.555 24.675L17 34.085L13.43 24.635C14.5755 25.2642 15.8687 25.5749 17.175 25.535ZM1.875 35.5C1.875 29.87 4.505 25.71 8.69 24.21V28.84C7.92145 28.9601 7.22089 29.3503 6.71412 29.9405C6.20735 30.5306 5.92756 31.2821 5.925 32.06V37.3C5.925 37.4326 5.97768 37.5598 6.07145 37.6536C6.16521 37.7473 6.29239 37.8 6.425 37.8H7.625V36.8H6.925V32.06C6.98884 31.508 7.25336 30.9988 7.66822 30.6291C8.08308 30.2595 8.61935 30.0552 9.175 30.0552C9.73065 30.0552 10.2669 30.2595 10.6818 30.6291C11.0966 30.9988 11.3612 31.508 11.425 32.06V36.8H10.75V37.8H11.95C12.0826 37.8 12.2098 37.7473 12.3036 37.6536C12.3973 37.5598 12.45 37.4326 12.45 37.3V32.06C12.4476 31.2829 12.1685 30.532 11.6628 29.9419C11.157 29.3518 10.4576 28.9612 9.69 28.84V23.915C10.4365 23.7298 11.2011 23.6275 11.97 23.61L16.53 35.675C16.565 35.7715 16.6289 35.8549 16.713 35.9139C16.7971 35.9728 16.8973 36.0044 17 36.0044C17.1027 36.0044 17.2029 35.9728 17.287 35.9139C17.3711 35.8549 17.435 35.7715 17.47 35.675L22.03 23.61C22.9513 23.6328 23.8657 23.7757 24.75 24.035V30.38C24.2555 30.5021 23.8228 30.8011 23.5336 31.2204C23.2444 31.6397 23.1187 32.1504 23.1803 32.656C23.2418 33.1616 23.4863 33.6273 23.8676 33.965C24.2489 34.3027 24.7406 34.4892 25.25 34.4892C25.7594 34.4892 26.2511 34.3027 26.6324 33.965C27.0137 33.6273 27.2582 33.1616 27.3197 32.656C27.3813 32.1504 27.2556 31.6397 26.9664 31.2204C26.6772 30.8011 26.2445 30.5021 25.75 30.38V24.38C29.68 26 32.125 30.07 32.125 35.5V44.375H1.875V35.5ZM25.25 31.315C25.4646 31.315 25.6744 31.3786 25.8528 31.4979C26.0312 31.6171 26.1703 31.7865 26.2524 31.9848C26.3345 32.183 26.356 32.4012 26.3142 32.6117C26.2723 32.8221 26.169 33.0155 26.0172 33.1672C25.8655 33.319 25.6721 33.4223 25.4617 33.4642C25.2512 33.506 25.033 33.4845 24.8348 33.4024C24.6365 33.3203 24.4671 33.1812 24.3479 33.0028C24.2286 32.8244 24.165 32.6146 24.165 32.4C24.165 32.1122 24.2793 31.8363 24.4828 31.6328C24.6863 31.4293 24.9622 31.315 25.25 31.315ZM8.635 13.415H8.81C9.12931 15.3567 10.1281 17.1219 11.6282 18.3955C13.1284 19.669 15.0322 20.3682 17 20.3682C18.9678 20.3682 20.8716 19.669 22.3718 18.3955C23.8719 17.1219 24.8707 15.3567 25.19 13.415H25.365C26.1797 13.415 26.9611 13.0917 27.5376 12.5161C28.1141 11.9405 28.4387 11.1597 28.44 10.345V9.845C28.4387 9.3393 28.2369 8.85477 27.8788 8.49766C27.5208 8.14054 27.0357 7.94 26.53 7.94H25.315V5.345C25.3137 4.09358 24.816 2.8938 23.9311 2.00892C23.0462 1.12403 21.8464 0.626324 20.595 0.625H13.405C12.154 0.626325 10.9548 1.12419 10.0707 2.00922C9.1866 2.89425 8.69 4.09404 8.69 5.345V7.94H7.47C6.96517 7.94132 6.48139 8.14245 6.12442 8.49942C5.76745 8.85639 5.56632 9.34017 5.565 9.845V10.345C5.565 11.1592 5.88845 11.9401 6.46418 12.5158C7.03992 13.0916 7.82079 13.415 8.635 13.415ZM25.315 12.065V8.94H26.53C26.7705 8.94 27.0012 9.03518 27.1717 9.20476C27.3422 9.37434 27.4387 9.60452 27.44 9.845V10.345C27.4387 10.8945 27.2195 11.421 26.8305 11.809C26.4415 12.1971 25.9145 12.415 25.365 12.415H25.315V12.065ZM17 19.375C15.4515 19.3739 13.9434 18.8815 12.6926 17.9686C11.4419 17.0557 10.5131 15.7694 10.04 14.295C10.15 13.45 12.915 12.565 17 12.565C18.683 12.5417 20.3623 12.7265 22 13.115C23.18 13.44 23.9 13.875 23.955 14.295C23.4822 15.7686 22.5541 17.0543 21.3044 17.9671C20.0546 18.8799 18.5476 19.3728 17 19.375ZM9.69 8.44V5.345C9.69 4.35926 10.0812 3.41382 10.7778 2.71633C11.4743 2.01884 12.4193 1.62632 13.405 1.625H20.595C21.5812 1.62632 22.5266 2.01868 23.224 2.71602C23.9213 3.41337 24.3137 4.3588 24.315 5.345V9.415C23.8867 9.43166 23.4597 9.3589 23.0611 9.20136C22.6625 9.04382 22.3011 8.80496 22 8.5C21.12 7.5 21.385 5.905 21.39 5.895C21.4109 5.78405 21.3935 5.6693 21.3409 5.56944C21.2882 5.46958 21.2033 5.39047 21.1 5.345C20.9971 5.29961 20.882 5.29022 20.7731 5.31834C20.6642 5.34646 20.568 5.41046 20.5 5.5C18.17 8.54 11.355 9.25 9.68 9.38L9.69 8.44ZM9.69 10.395C11.19 10.29 17.265 9.71 20.39 7.065C20.459 7.83254 20.7588 8.56118 21.25 9.155C21.6422 9.57054 22.1183 9.89782 22.6468 10.1151C23.1753 10.3323 23.7439 10.4346 24.315 10.415V12.065C24.3109 12.3996 24.2859 12.7336 24.24 13.065C22.855 11.99 19.74 11.565 17 11.565C14.26 11.565 11.145 11.97 9.76 13.065C9.71579 12.7335 9.69241 12.3995 9.69 12.065V10.395ZM6.565 9.845C6.565 9.60498 6.66035 9.37479 6.83007 9.20507C6.99979 9.03535 7.22998 8.94 7.47 8.94H8.69V12.44H8.635C8.086 12.44 7.55949 12.2219 7.17129 11.8337C6.78309 11.4455 6.565 10.919 6.565 10.37V9.845Z" fill="#514C9F" stroke="#514C9F"/>
</svg>
