<svg width="50" height="46" viewBox="0 0 50 46" fill="none" xmlns="http://www.w3.org/2000/svg">
<path fill-rule="evenodd" clip-rule="evenodd" d="M42.2721 26.489C42.1798 26.489 42.0645 26.4544 41.9837 26.4083L37.3932 23.7555L36.6781 24.9896C36.5627 25.1972 36.3321 25.3126 36.0898 25.278C35.8592 25.2434 35.6631 25.0704 35.6054 24.8397L34.3713 20.2145C34.279 19.9031 34.4635 19.5802 34.775 19.511L39.4001 18.2653C39.6308 18.2076 39.873 18.2884 40.0229 18.4729C40.1614 18.6574 40.1729 18.9227 40.0575 19.1303L39.3424 20.3645L43.933 23.0173C44.2098 23.1903 44.3136 23.5363 44.1406 23.8247L42.7796 26.1892C42.6988 26.3276 42.572 26.4198 42.4336 26.466C42.3644 26.4775 42.3182 26.489 42.2721 26.489ZM45.1325 34.0669H31.8799L34.7173 37.2734H35.3401C38.362 37.2734 40.8073 39.7301 40.8073 42.7405V44.3553C40.8073 44.6782 40.542 44.9319 40.219 44.9319H9.78073C9.45778 44.9319 9.1925 44.6782 9.1925 44.3553V42.7405C9.1925 39.7301 11.6377 37.2734 14.6596 37.2734H15.2709L18.1198 34.0669H4.86724C2.22595 34.0669 0.0806193 31.9446 0.0229492 29.3264C0.0229492 29.3149 0.0229492 29.2918 0.0229492 29.2803V29.2572V29.2111V5.91234V5.86621V5.8316C0.0229492 5.82007 0.0229492 5.80854 0.0229492 5.797C0.0806193 3.17878 2.23748 1.06805 4.86724 1.06805H45.1325C47.7623 1.06805 49.9191 3.17878 49.9768 5.797C49.9768 5.80854 49.9768 5.82007 49.9768 5.8316V5.86621V5.91234V29.2111V29.2572V29.2803C49.9768 29.2918 49.9768 29.3149 49.9768 29.3264C49.9191 31.9446 47.7738 34.0669 45.1325 34.0669ZM30.2998 34.0669H19.6885L16.8511 37.2734H33.1487L30.2998 34.0669ZM4.86724 2.23299C3.06793 2.23299 1.55697 3.53633 1.24556 5.24337H48.7542C48.4428 3.53633 46.9318 2.23299 45.1325 2.23299H4.86724ZM1.18789 6.41984V28.7036H48.8119V6.41984H1.18789ZM1.24556 29.8685C1.55697 31.5871 3.0564 32.8904 4.86724 32.8904H19.377C19.4116 32.8904 19.4462 32.8904 19.4809 32.8904H30.5189C30.5535 32.8904 30.5881 32.8904 30.6227 32.8904H45.1325C46.9434 32.8904 48.4428 31.5871 48.7542 29.8685H1.24556ZM34.4635 38.4614C34.4289 38.4614 34.3943 38.4498 34.3597 38.4498H15.64C15.6054 38.4498 15.5708 38.4614 15.5362 38.4614C15.5016 38.4614 15.467 38.4498 15.4324 38.4498H14.6596C13.5408 38.4498 12.5258 38.8766 11.7646 39.5686H38.2352C37.4739 38.8766 36.4589 38.4498 35.3401 38.4498H34.5789C34.5443 38.4498 34.4981 38.4614 34.4635 38.4614ZM10.3574 43.767H39.6423V42.7405C39.6423 42.0138 39.4578 41.3333 39.1464 40.7451H10.8534C10.542 41.3333 10.3574 42.0138 10.3574 42.7405V43.767ZM25.0056 9.81084H6.35513C6.04371 9.81084 5.77843 9.54556 5.77843 9.22261C5.77843 8.89965 6.04371 8.63437 6.35513 8.63437H25.0056C25.3286 8.63437 25.5939 8.89965 25.5939 9.22261C25.5939 9.54556 25.3286 9.81084 25.0056 9.81084ZM25.0056 15.3702H6.35513C6.04371 15.3702 5.77843 15.105 5.77843 14.782C5.77843 14.4591 6.04371 14.1938 6.35513 14.1938H25.0056C25.3286 14.1938 25.5939 14.4591 25.5939 14.782C25.5939 15.105 25.3286 15.3702 25.0056 15.3702ZM25.0056 20.9181H6.35513C6.04371 20.9181 5.77843 20.6528 5.77843 20.3299C5.77843 20.0185 6.04371 19.7532 6.35513 19.7532H25.0056C25.3286 19.7532 25.5939 20.0185 25.5939 20.3299C25.5939 20.6528 25.3286 20.9181 25.0056 20.9181ZM25.0056 26.489H6.35513C6.04371 26.489 5.77843 26.2238 5.77843 25.9008C5.77843 25.5779 6.04371 25.3126 6.35513 25.3126H25.0056C25.3286 25.3126 25.5939 25.5779 25.5939 25.9008C25.5939 26.2238 25.3286 26.489 25.0056 26.489ZM43.6331 17.6078H32.1683C31.8453 17.6078 31.5916 17.3541 31.5916 17.0311V9.22261C31.5916 8.89965 31.8453 8.63437 32.1683 8.63437H43.6331C43.9561 8.63437 44.2213 8.89965 44.2213 9.22261V17.0311C44.2213 17.3541 43.9561 17.6078 43.6331 17.6078ZM32.7565 16.4429H43.0564V9.81084H32.7565V16.4429ZM37.174 22.3714C37.2779 22.3714 37.3701 22.406 37.4739 22.4521L42.0529 25.105L42.8372 23.7555L38.2467 21.0911C37.9699 20.9296 37.8661 20.5836 38.0391 20.2953C38.0391 20.2837 38.0506 20.2837 38.0506 20.2722C38.0506 20.2722 38.0506 20.2722 38.0506 20.2607L38.339 19.7647L35.6516 20.4914L36.3667 23.1903L36.5743 22.8212C36.5973 22.7982 36.6089 22.7636 36.6319 22.7405C36.6435 22.7174 36.6665 22.6828 36.6665 22.6597C36.7819 22.4752 36.978 22.3714 37.174 22.3714Z" fill="#514C9F" stroke="#514C9F"/>
</svg>
