<svg width="87" height="100" viewBox="0 0 87 100" fill="none" xmlns="http://www.w3.org/2000/svg">
<path opacity="0.17" d="M86.4396 26.1076V89.3215C86.4396 95.2191 81.6588 99.9999 75.7612 99.9999H12.5473C6.6497 99.9999 1.8689 95.2191 1.8689 89.3215V26.1076C1.8689 20.21 6.6497 15.4292 12.5473 15.4292H75.7612C81.6588 15.4292 86.4396 20.21 86.4396 26.1076Z" fill="#BBB8DF"/>
<path d="M84.6567 24.2855V87.4994C84.6567 93.397 79.8759 98.1778 73.9783 98.1778H10.7643C4.86674 98.1778 0.0859375 93.397 0.0859375 87.4994V24.2855C0.0859375 18.3879 4.86674 13.6071 10.7643 13.6071H73.9783C79.8759 13.6071 84.6567 18.3879 84.6567 24.2855Z" fill="#BBB8DF"/>
<path d="M84.5707 21.6171V84.831C84.5707 90.7286 79.7899 95.5095 73.8923 95.5095H10.6784C4.78081 95.5095 0 90.7286 0 84.831V21.6171C0 15.7195 4.78081 10.9387 10.6784 10.9387H73.8923C79.7899 10.9387 84.5707 15.7195 84.5707 21.6171Z" fill="white"/>
<path d="M84.6541 21.6171C84.6541 15.7208 79.8746 10.9387 73.9757 10.9387H10.7643C4.86544 10.9387 0.0859375 15.7208 0.0859375 21.6171V30.1583H84.6567V21.6171H84.6541Z" fill="#514C9F"/>
<g style="mix-blend-mode:multiply" opacity="0.9">
<path d="M84.6567 27.0266V30.1583H0.0859375V27.0266H84.6567Z" fill="#4551A3"/>
</g>
<g style="mix-blend-mode:multiply" opacity="0.9">
<path d="M19.1178 16.0358C19.1178 17.8935 17.6121 19.3992 15.7545 19.3992C13.8968 19.3992 12.3911 17.8935 12.3911 16.0358C12.3911 14.1782 13.8968 12.6725 15.7545 12.6725C17.6121 12.6725 19.1178 14.1782 19.1178 16.0358Z" fill="#4551A3"/>
</g>
<path d="M15.7546 0C14.7003 0 13.8386 0.861665 13.8386 1.91597V16.3326C13.8386 17.3869 14.7003 18.2486 15.7546 18.2486C16.8089 18.2486 17.6706 17.3869 17.6706 16.3326V1.91597C17.6706 0.861665 16.8089 0 15.7546 0Z" fill="#EDEDEE"/>
<g style="mix-blend-mode:multiply" opacity="0.9">
<path d="M72.3488 16.0358C72.3488 17.8935 70.8431 19.3992 68.9854 19.3992C67.1278 19.3992 65.6221 17.8935 65.6221 16.0358C65.6221 14.1782 67.1278 12.6725 68.9854 12.6725C70.8431 12.6725 72.3488 14.1782 72.3488 16.0358Z" fill="#4551A3"/>
</g>
<path d="M70.9013 1.91597V16.3326C70.9013 16.8407 70.6994 17.3281 70.3401 17.6874C69.9808 18.0467 69.4934 18.2486 68.9853 18.2486C68.4772 18.2486 67.9898 18.0467 67.6305 17.6874C67.2712 17.3281 67.0693 16.8407 67.0693 16.3326V1.91597C67.0693 1.40782 67.2712 0.920488 67.6305 0.561174C67.9898 0.20186 68.4772 0 68.9853 0C69.4934 0 69.9808 0.20186 70.3401 0.561174C70.6994 0.920488 70.9013 1.40782 70.9013 1.91597Z" fill="#EDEDEE"/>
<path d="M44.2572 62.4069C44.2572 63.5861 44.2624 64.768 44.252 65.9472C44.252 66.1581 44.3067 66.2232 44.5202 66.2206C46.8578 66.2128 49.1955 66.2128 51.5358 66.2206C51.7857 66.2206 51.8404 66.1399 51.8404 65.9056C51.8326 63.5783 51.8326 61.251 51.8404 58.9212C51.8404 58.6686 51.7623 58.6192 51.528 58.6192C49.2007 58.627 46.8735 58.6296 44.5462 58.6192C44.2885 58.6192 44.2494 58.7025 44.252 58.9316C44.2624 60.09 44.2572 61.2484 44.2572 62.4069ZM48.0267 55.2272C49.1955 55.2272 50.3644 55.2194 51.5332 55.2324C51.7805 55.235 51.843 55.1569 51.8404 54.9174C51.8326 52.5901 51.8326 50.2629 51.8404 47.933C51.8404 47.6857 51.7701 47.6284 51.5306 47.6284C49.2033 47.6362 46.8761 47.6388 44.5488 47.6284C44.2963 47.6284 44.2494 47.7039 44.252 47.9382C44.2598 50.2655 44.2624 52.5927 44.252 54.9226C44.252 55.2012 44.3509 55.235 44.5852 55.2324C45.7333 55.222 46.8813 55.2272 48.0267 55.2272ZM15.4526 62.4095C15.4526 61.251 15.4474 60.0926 15.4578 58.9316C15.4578 58.7025 15.424 58.6166 15.1637 58.6192C12.8234 58.6296 10.4857 58.6296 8.1454 58.6192C7.92933 58.6192 7.84863 58.6634 7.84863 58.9003C7.85644 61.2406 7.85644 63.5783 7.84863 65.9186C7.84863 66.1373 7.89549 66.218 8.13238 66.218C10.4831 66.2102 12.8312 66.2102 15.1819 66.218C15.3902 66.218 15.4578 66.1659 15.4552 65.9472C15.4448 64.768 15.45 63.5861 15.45 62.4043L15.4526 62.4095ZM23.7413 66.218C24.9101 66.218 26.0816 66.2128 27.2504 66.2232C27.4899 66.2232 27.5914 66.1841 27.5888 65.9082C27.5758 63.5783 27.5784 61.251 27.5888 58.9212C27.5888 58.7051 27.542 58.6218 27.3051 58.6244C24.9544 58.6322 22.6037 58.6322 20.2556 58.6244C20.0343 58.6244 19.99 58.6999 19.9926 58.9029C19.9979 61.2432 20.0005 63.5809 19.9926 65.9212C19.9926 66.1711 20.0655 66.2284 20.3024 66.2258C21.4504 66.2128 22.5985 66.2206 23.7465 66.2206L23.7413 66.218ZM35.9061 58.627C34.7477 58.627 33.5892 58.6348 32.4308 58.6218C32.1835 58.6218 32.1002 58.6739 32.1028 58.9394C32.1132 61.2562 32.1132 63.5757 32.1028 65.8926C32.1028 66.1399 32.1575 66.2258 32.4204 66.2232C34.7477 66.2128 37.0776 66.2128 39.4048 66.2232C39.6469 66.2232 39.712 66.1633 39.7094 65.9186C39.699 63.5887 39.699 61.2615 39.7094 58.9316C39.7094 58.6582 39.6157 58.6192 39.3788 58.6218C38.2204 58.6322 37.0619 58.627 35.9035 58.627H35.9061ZM72.3147 66.218C73.4731 66.218 74.6316 66.2102 75.79 66.2232C76.0477 66.2258 76.1128 66.1503 76.1128 65.8952C76.1024 63.5783 76.1024 61.2589 76.1128 58.942C76.1128 58.6817 76.0399 58.6192 75.7874 58.6218C73.4601 58.6322 71.1302 58.6322 68.803 58.6218C68.5531 58.6218 68.5036 58.6921 68.5036 58.929C68.5114 61.2588 68.514 63.5861 68.5036 65.916C68.5036 66.1555 68.5557 66.2284 68.8056 66.2258C69.9744 66.2128 71.1459 66.2206 72.3147 66.2206V66.218ZM60.1889 55.2272C61.3474 55.2272 62.5084 55.2194 63.6668 55.2324C63.9089 55.2324 63.9766 55.1725 63.9766 54.9252C63.9662 52.5953 63.9662 50.2655 63.9766 47.9356C63.9766 47.6935 63.9193 47.6284 63.6746 47.6284C61.3448 47.6388 59.0149 47.6388 56.685 47.6284C56.4351 47.6284 56.3778 47.7013 56.3778 47.9382C56.3856 50.2785 56.3856 52.6188 56.3778 54.9617C56.3778 55.1751 56.4351 55.2324 56.6459 55.2298C57.8278 55.2194 59.0071 55.2246 60.1889 55.2246V55.2272ZM63.9714 62.4251C63.9714 61.2771 63.961 60.1264 63.9792 58.9784C63.9818 58.7025 63.9271 58.6166 63.6304 58.6192C61.3447 58.6348 59.0591 58.6348 56.7709 58.6192C56.4559 58.6192 56.3752 58.6999 56.3778 59.0097C56.3908 61.3187 56.3882 63.6252 56.3778 65.9342C56.3778 66.1581 56.4273 66.2232 56.6616 66.2232C58.9914 66.2128 61.3213 66.2154 63.6512 66.2232C63.8985 66.2232 63.9844 66.1711 63.9818 65.9056C63.9662 64.7472 63.974 63.5861 63.974 62.4277L63.9714 62.4251ZM11.6832 77.201C12.8312 77.201 13.9818 77.1957 15.1298 77.2062C15.3641 77.2062 15.463 77.1697 15.463 76.8964C15.45 74.5665 15.4526 72.2366 15.463 69.9067C15.463 69.6881 15.4214 69.6126 15.1845 69.6126C12.8442 69.623 10.5039 69.623 8.16362 69.6126C7.91892 69.6126 7.85644 69.6751 7.85644 69.9198C7.86686 72.2392 7.86686 74.5587 7.85644 76.8782C7.85644 77.1281 7.91111 77.2114 8.17664 77.2088C9.34809 77.1931 10.5169 77.2036 11.6884 77.2036L11.6832 77.201ZM72.3251 44.2026C73.4836 44.2026 74.642 44.1974 75.8004 44.2078C76.0295 44.2078 76.1258 44.1635 76.1232 43.9058C76.1128 41.5889 76.1154 39.2695 76.1232 36.9526C76.1232 36.7313 76.0633 36.6532 75.8316 36.6532C73.4914 36.6611 71.1537 36.6611 68.8134 36.6532C68.5635 36.6532 68.5062 36.7365 68.5062 36.9708C68.514 39.2773 68.5166 41.5863 68.5062 43.8928C68.5062 44.1687 68.6103 44.2104 68.8472 44.2078C70.0057 44.1974 71.1641 44.2026 72.3225 44.2026H72.3251ZM11.6623 55.1934C12.8208 55.1934 13.9792 55.1881 15.1376 55.1986C15.3667 55.1986 15.4604 55.1517 15.4604 54.8966C15.45 52.5797 15.4526 50.2603 15.4604 47.9434C15.4604 47.7221 15.4006 47.644 15.1689 47.644C12.8286 47.6518 10.4909 47.6518 8.15061 47.644C7.9007 47.644 7.84343 47.7273 7.84603 47.9616C7.85384 50.2681 7.85644 52.5771 7.84603 54.8836C7.84603 55.1621 7.95276 55.2012 8.18966 55.1986C9.34809 55.1907 10.5065 55.1934 11.665 55.1934H11.6623ZM35.8905 55.1934C37.0593 55.1934 38.2308 55.1881 39.3996 55.1986C39.6391 55.1986 39.7146 55.1335 39.7146 54.8888C39.7068 52.5719 39.7068 50.2524 39.7146 47.9356C39.7146 47.7039 39.6365 47.644 39.4152 47.644C37.075 47.6492 34.7373 47.6518 32.397 47.644C32.1731 47.644 32.0976 47.7065 32.1002 47.9356C32.108 50.2524 32.108 52.5719 32.1002 54.8888C32.1002 55.1361 32.1783 55.1986 32.4178 55.196C33.5762 55.1855 34.7347 55.1907 35.8931 55.1907L35.8905 55.1934ZM68.514 51.4213C68.514 52.6032 68.5192 53.785 68.5088 54.9643C68.5088 55.1595 68.5531 55.2246 68.7587 55.2246C71.1198 55.2168 73.4836 55.2168 75.8447 55.2246C76.0712 55.2246 76.1128 55.1439 76.1128 54.9408C76.1076 52.6005 76.105 50.2577 76.1128 47.9174C76.1128 47.6883 76.0451 47.6284 75.8212 47.631C73.4809 47.6388 71.1407 47.6414 68.8004 47.631C68.5426 47.631 68.5036 47.7143 68.5062 47.9434C68.5166 49.1018 68.5114 50.2629 68.5114 51.4213H68.514ZM35.8723 77.1723C37.0411 77.1723 38.2126 77.1671 39.3814 77.1775C39.6313 77.1775 39.7172 77.1203 39.7146 76.8547C39.7042 74.5587 39.7042 72.2626 39.7146 69.9666C39.7146 69.6933 39.6365 69.623 39.3684 69.623C37.0619 69.6334 34.7555 69.6334 32.449 69.623C32.1861 69.623 32.0976 69.6855 32.0976 69.964C32.108 72.26 32.108 74.5561 32.0976 76.8521C32.0976 77.1124 32.1731 77.1827 32.4282 77.1801C33.5762 77.1671 34.7243 77.1749 35.8723 77.1749V77.1723ZM72.3277 77.1723C73.4862 77.1723 74.6446 77.1671 75.803 77.1775C76.0347 77.1775 76.1258 77.1307 76.1258 76.8755C76.1154 74.5587 76.118 72.2392 76.1258 69.9224C76.1258 69.6985 76.0633 69.623 75.8343 69.623C73.494 69.6308 71.1563 69.6308 68.816 69.623C68.5635 69.623 68.5114 69.7089 68.5114 69.9432C68.5192 72.2496 68.5218 74.5587 68.5114 76.8651C68.5114 77.1437 68.6181 77.1827 68.855 77.1801C70.0135 77.1723 71.1719 77.1749 72.3303 77.1749L72.3277 77.1723ZM11.6545 88.1631C12.8234 88.1631 13.9948 88.1579 15.1637 88.1683C15.3876 88.1683 15.463 88.1084 15.463 87.8768C15.4552 85.5599 15.4552 83.2404 15.463 80.9235C15.463 80.6762 15.3849 80.6138 15.1481 80.6138C12.8208 80.6216 10.4909 80.6216 8.16362 80.6138C7.92673 80.6138 7.84603 80.6736 7.84863 80.9235C7.85644 83.23 7.85905 85.5391 7.84863 87.8455C7.84863 88.1084 7.92933 88.1735 8.18185 88.1709C9.34028 88.1579 10.4987 88.1657 11.6571 88.1657L11.6545 88.1631ZM35.8905 88.1631C37.0593 88.1631 38.2308 88.1579 39.3996 88.1683C39.6391 88.1683 39.7172 88.1058 39.7146 87.8585C39.7068 85.5417 39.7068 83.2222 39.7146 80.9053C39.7146 80.6736 39.6391 80.6138 39.4152 80.6138C37.075 80.6216 34.7373 80.6216 32.397 80.6138C32.1757 80.6138 32.0976 80.6736 32.0976 80.9053C32.1054 83.2222 32.1054 85.5417 32.0976 87.8585C32.0976 88.1058 32.1731 88.1709 32.4126 88.1683C33.571 88.1579 34.7295 88.1631 35.8879 88.1631H35.8905ZM19.9978 73.4341C19.9978 74.5821 20.0057 75.7301 19.9926 76.8782C19.9926 77.1229 20.0421 77.2088 20.3076 77.2088C22.6245 77.1983 24.9414 77.1983 27.2582 77.2088C27.5055 77.2088 27.594 77.1515 27.5914 76.8886C27.581 74.5613 27.5836 72.234 27.5914 69.9041C27.5914 69.6751 27.5264 69.6152 27.2999 69.6152C24.9622 69.623 22.6219 69.6256 20.2842 69.6152C20.0213 69.6152 19.99 69.7063 19.9926 69.9302C20.0031 71.099 19.9978 72.2679 19.9978 73.4393V73.4341ZM44.2624 40.4149C44.2624 41.5733 44.2676 42.7344 44.2572 43.8928C44.2572 44.1323 44.3197 44.2104 44.567 44.2078C46.8735 44.2 49.1825 44.2 51.489 44.2078C51.7181 44.2078 51.8144 44.1635 51.8144 43.9058C51.804 41.5863 51.8066 39.2695 51.8144 36.95C51.8144 36.7261 51.7519 36.6506 51.5228 36.6506C49.2059 36.6584 46.8865 36.6584 44.5696 36.6506C44.3197 36.6506 44.2598 36.7313 44.2624 36.9682C44.2729 38.1162 44.2676 39.2643 44.2676 40.4123L44.2624 40.4149ZM56.4195 40.3967C56.4195 41.5551 56.4247 42.7161 56.4143 43.8746C56.4143 44.1219 56.4715 44.2104 56.7371 44.2104C59.0435 44.2 61.3526 44.2 63.659 44.2104C63.9063 44.2104 63.9688 44.1323 63.9688 43.8954C63.961 41.5889 63.9584 39.2799 63.9688 36.9734C63.9688 36.6975 63.8647 36.6558 63.6278 36.6558C61.3317 36.6637 59.0357 36.6637 56.7397 36.6558C56.4767 36.6558 56.4117 36.7365 56.4143 36.9891C56.4273 38.1267 56.4195 39.2643 56.4195 40.4019V40.3967ZM27.5524 51.4343C27.5524 50.2759 27.5472 49.1148 27.5576 47.9564C27.5576 47.7169 27.4951 47.6414 27.2478 47.6414C24.9309 47.6492 22.6115 47.6492 20.2946 47.6414C20.0603 47.6414 20.0057 47.7221 20.0057 47.9434C20.0109 50.2629 20.0109 52.5797 20.0057 54.8992C20.0057 55.1231 20.0655 55.1986 20.2972 55.1986C22.6141 55.1907 24.9335 55.1907 27.2504 55.1986C27.5003 55.1986 27.5602 55.1179 27.5576 54.881C27.5472 53.733 27.5524 52.5849 27.5524 51.4369V51.4343ZM51.8066 73.4133C51.8066 72.2548 51.8014 71.0938 51.8118 69.9354C51.8118 69.6933 51.7441 69.6204 51.4994 69.6204C49.1929 69.6282 46.8839 69.6282 44.5774 69.6204C44.3457 69.6204 44.2546 69.6672 44.2546 69.9224C44.265 72.2418 44.2624 74.5587 44.2546 76.8782C44.2546 77.102 44.3197 77.1749 44.5488 77.1749C46.8657 77.1671 49.1851 77.1671 51.502 77.1749C51.7545 77.1749 51.8092 77.089 51.8066 76.8547C51.7961 75.7067 51.8014 74.5587 51.8014 73.4107L51.8066 73.4133ZM60.1759 77.1723C61.3343 77.1723 62.4928 77.1671 63.6538 77.1775C63.8907 77.1775 63.9714 77.1177 63.9714 76.8703C63.9636 74.5509 63.9636 72.234 63.9714 69.9146C63.9714 69.6829 63.8933 69.623 63.672 69.623C61.3552 69.6308 59.0357 69.6282 56.7188 69.623C56.4976 69.623 56.4169 69.6803 56.4195 69.9146C56.4273 72.234 56.4273 74.5509 56.4195 76.8703C56.4195 77.1177 56.4976 77.1801 56.7371 77.1801C57.8851 77.1697 59.0331 77.1749 60.1811 77.1749L60.1759 77.1723ZM23.7647 88.1631C24.9231 88.1631 26.0816 88.1579 27.2426 88.1683C27.4795 88.1683 27.5602 88.1084 27.5602 87.8585C27.5524 85.5391 27.5524 83.2222 27.5602 80.9027C27.5602 80.6684 27.4795 80.6112 27.2608 80.6112C24.944 80.6164 22.6245 80.6164 20.3076 80.6112C20.0864 80.6112 20.0083 80.671 20.0083 80.9027C20.0161 83.2222 20.0161 85.5391 20.0083 87.8585C20.0083 88.1058 20.0864 88.1683 20.3259 88.1657C21.4739 88.1553 22.6219 88.1605 23.7699 88.1605L23.7647 88.1631ZM44.2624 84.3728C44.2624 85.5312 44.2676 86.6923 44.2572 87.8507C44.2572 88.0876 44.3171 88.1683 44.5644 88.1683C46.8813 88.1605 49.2007 88.1605 51.5176 88.1683C51.7493 88.1683 51.8092 88.0902 51.8092 87.8689C51.804 85.5495 51.804 83.2326 51.8092 80.9131C51.8092 80.6919 51.7493 80.6138 51.5176 80.6138C49.2007 80.6216 46.8813 80.6216 44.5644 80.6138C44.3171 80.6138 44.2546 80.6919 44.2572 80.9314C44.2676 82.0794 44.2624 83.2274 44.2624 84.3754V84.3728ZM60.1941 88.1631C61.3526 88.1631 62.511 88.1579 63.672 88.1683C63.8959 88.1683 63.9714 88.1058 63.9714 87.8741C63.9636 85.5547 63.9636 83.2378 63.9714 80.9183C63.9714 80.6684 63.8881 80.6112 63.6538 80.6112C61.3474 80.619 59.0383 80.619 56.7318 80.6112C56.4924 80.6112 56.4143 80.6736 56.4169 80.921C56.4247 83.2274 56.4273 85.5365 56.4169 87.8429C56.4169 88.111 56.5054 88.1683 56.7527 88.1657C57.9007 88.1553 59.0487 88.1605 60.1967 88.1605L60.1941 88.1631Z" fill="white"/>
<path d="M44.2575 62.4069C44.2575 61.2485 44.2627 60.0901 44.2523 58.9317C44.2523 58.7026 44.2913 58.6193 44.5464 58.6193C46.8737 58.6297 49.201 58.6297 51.5283 58.6193C51.7652 58.6193 51.8433 58.6687 51.8407 58.9212C51.8302 61.2485 51.8329 63.5758 51.8407 65.9057C51.8407 66.1426 51.786 66.2233 51.5361 66.2207C49.1984 66.2102 46.8607 66.2129 44.5204 66.2207C44.3043 66.2207 44.2497 66.1582 44.2523 65.9473C44.2627 64.7681 44.2575 63.5862 44.2575 62.4069Z" fill="#524CA0"/>
<path d="M48.0269 55.2273C46.8789 55.2273 45.7309 55.2221 44.5855 55.2325C44.3512 55.2325 44.2496 55.2013 44.2522 54.9228C44.2653 52.5955 44.2627 50.2682 44.2522 47.9383C44.2522 47.704 44.2965 47.6285 44.549 47.6285C46.8763 47.639 49.2036 47.639 51.5308 47.6285C51.7703 47.6285 51.8432 47.6858 51.8406 47.9331C51.8302 50.2604 51.8328 52.5877 51.8406 54.9175C51.8406 55.157 51.7808 55.2351 51.5334 55.2325C50.3646 55.2195 49.1958 55.2273 48.0269 55.2273Z" fill="#524CA0"/>
<path d="M15.4527 62.4096C15.4527 63.5914 15.4475 64.7707 15.4579 65.9525C15.4579 66.1712 15.3928 66.2233 15.1846 66.2233C12.8339 66.2181 10.4858 66.2155 8.13507 66.2233C7.89818 66.2233 7.85132 66.1426 7.85132 65.9239C7.85913 63.5836 7.85913 61.2459 7.85132 58.9056C7.85132 58.6687 7.92941 58.6219 8.14808 58.6245C10.4884 58.6323 12.8261 58.6323 15.1664 58.6245C15.4241 58.6245 15.4631 58.7104 15.4605 58.9369C15.4501 60.0953 15.4553 61.2537 15.4553 62.4148L15.4527 62.4096Z" fill="#524CA0"/>
<path d="M23.7441 66.218C22.5961 66.218 21.4481 66.2102 20.3001 66.2232C20.0606 66.2232 19.9877 66.1686 19.9903 65.9186C20.0007 63.5784 19.9981 61.2407 19.9903 58.9004C19.9903 58.6973 20.032 58.6218 20.2532 58.6218C22.6039 58.6296 24.9546 58.6296 27.3027 58.6218C27.5396 58.6218 27.5865 58.7025 27.5865 58.9186C27.5787 61.2485 27.5761 63.5757 27.5865 65.9056C27.5865 66.1816 27.4876 66.2232 27.2481 66.2206C26.0792 66.2102 24.9078 66.2154 23.7389 66.2154L23.7441 66.218Z" fill="#524CA0"/>
<path d="M35.9087 58.6271C37.0671 58.6271 38.2256 58.6323 39.384 58.6219C39.6209 58.6219 39.7146 58.6584 39.7146 58.9317C39.7016 61.2616 39.7042 63.5889 39.7146 65.9187C39.7146 66.1634 39.6521 66.2259 39.41 66.2233C37.0827 66.2129 34.7529 66.2129 32.4256 66.2233C32.1601 66.2233 32.1054 66.14 32.108 65.8927C32.1158 63.5758 32.1184 61.2564 32.108 58.9395C32.108 58.674 32.1913 58.6193 32.436 58.6219C33.5944 58.6349 34.7529 58.6271 35.9113 58.6271H35.9087Z" fill="#524CA0"/>
<path d="M72.3145 66.2181C71.1457 66.2181 69.9742 66.2102 68.8054 66.2233C68.5555 66.2259 68.5034 66.153 68.5034 65.9135C68.5138 63.5836 68.5138 61.2563 68.5034 58.9264C68.5034 58.6896 68.5529 58.6193 68.8028 58.6193C71.1301 58.6297 73.4599 58.6297 75.7872 58.6193C76.0397 58.6193 76.1126 58.6817 76.1126 58.9395C76.1022 61.2563 76.1022 63.5758 76.1126 65.8927C76.1126 66.1478 76.0502 66.2233 75.7898 66.2207C74.6314 66.2076 73.473 66.2155 72.3145 66.2155V66.2181Z" fill="#524CA0"/>
<path d="M60.1891 55.2273C59.0073 55.2273 57.828 55.2221 56.6461 55.2325C56.4327 55.2325 56.3754 55.1778 56.378 54.9644C56.3858 52.6241 56.3858 50.2838 56.378 47.9409C56.378 47.704 56.4353 47.6311 56.6852 47.6311C59.0151 47.6415 61.345 47.6415 63.6748 47.6311C63.9195 47.6311 63.9794 47.6962 63.9768 47.9383C63.9664 50.2682 63.9664 52.598 63.9768 54.9279C63.9768 55.1752 63.9091 55.2351 63.667 55.2351C62.5086 55.2221 61.3476 55.2299 60.1891 55.2299V55.2273Z" fill="#EA6B0C"/>
<path d="M63.9717 62.4251C63.9717 63.5836 63.9639 64.7446 63.9795 65.903C63.9821 66.1686 63.8962 66.2232 63.6489 66.2206C61.319 66.2128 58.9891 66.2128 56.6592 66.2206C56.4276 66.2206 56.3755 66.1556 56.3755 65.9317C56.3833 63.6226 56.3859 61.3162 56.3755 59.0071C56.3755 58.6973 56.4536 58.614 56.7686 58.6166C59.0542 58.6323 61.3398 58.6323 63.6281 58.6166C63.9248 58.6166 63.9821 58.6999 63.9769 58.9759C63.9613 60.1239 63.9691 61.2719 63.9691 62.4225L63.9717 62.4251Z" fill="#524CA0"/>
<path d="M11.6833 77.201C10.5118 77.201 9.34296 77.1932 8.17151 77.2062C7.90599 77.2088 7.85132 77.1229 7.85132 76.8756C7.85913 74.5561 7.85913 72.2366 7.85132 69.9172C7.85132 69.6725 7.9138 69.61 8.1585 69.61C10.4988 69.6204 12.8391 69.6204 15.1794 69.61C15.4163 69.61 15.4605 69.6855 15.4579 69.9042C15.4501 72.234 15.4475 74.5639 15.4579 76.8938C15.4579 77.1671 15.3616 77.2062 15.1247 77.2036C13.9767 77.1932 12.8287 77.1984 11.678 77.1984L11.6833 77.201Z" fill="#EA6B0C"/>
<path d="M72.3227 44.2027C71.1643 44.2027 70.0058 44.1974 68.8474 44.2079C68.6105 44.2079 68.5038 44.1688 68.5064 43.8929C68.5168 41.5864 68.5168 39.2774 68.5064 36.9709C68.5064 36.734 68.5637 36.6533 68.8136 36.6533C71.1539 36.6611 73.4916 36.6611 75.8318 36.6533C76.0635 36.6533 76.1234 36.7314 76.1234 36.9527C76.1156 39.2696 76.1156 41.589 76.1234 43.9059C76.1234 44.1636 76.0271 44.2079 75.8006 44.2079C74.6422 44.1974 73.4837 44.2027 72.3253 44.2027H72.3227Z" fill="#BBB8DF"/>
<path d="M11.66 55.1934C10.5016 55.1934 9.34312 55.1882 8.18469 55.1986C7.9478 55.1986 7.84106 55.1622 7.84106 54.8836C7.85148 52.5772 7.85148 50.2681 7.84106 47.9617C7.84106 47.7274 7.89573 47.6415 8.14564 47.6441C10.4859 47.6519 12.8236 47.6519 15.1639 47.6441C15.3956 47.6441 15.4555 47.7196 15.4555 47.9435C15.4477 50.2603 15.4477 52.5798 15.4555 54.8967C15.4555 55.1518 15.3644 55.2012 15.1327 55.1986C13.9742 55.1882 12.8158 55.1934 11.6574 55.1934H11.66Z" fill="#BBB8DF"/>
<path d="M35.8879 55.1934C34.7294 55.1934 33.571 55.1882 32.4126 55.1986C32.1757 55.1986 32.095 55.1387 32.095 54.8914C32.1028 52.5746 32.1028 50.2551 32.095 47.9382C32.095 47.7066 32.1705 47.6441 32.3917 47.6467C34.732 47.6545 37.0697 47.6545 39.41 47.6467C39.6313 47.6467 39.7094 47.704 39.7094 47.9382C39.7016 50.2551 39.7016 52.5746 39.7094 54.8914C39.7094 55.1361 39.6339 55.2038 39.3944 55.2012C38.2255 55.1908 37.0541 55.196 35.8853 55.196L35.8879 55.1934Z" fill="#BBB8DF"/>
<path d="M68.5116 51.4213C68.5116 50.2629 68.5168 49.1019 68.5063 47.9434C68.5063 47.7143 68.5428 47.6284 68.8005 47.631C71.1408 47.6415 73.4811 47.6415 75.8214 47.631C76.0453 47.631 76.1129 47.6883 76.1129 47.9174C76.1051 50.2577 76.1051 52.6006 76.1129 54.9409C76.1129 55.1439 76.0713 55.2246 75.8448 55.2246C73.4837 55.2168 71.12 55.2168 68.7589 55.2246C68.5532 55.2246 68.5064 55.1595 68.509 54.9643C68.5168 53.7824 68.5142 52.6006 68.5142 51.4213H68.5116Z" fill="#EA6B0C"/>
<path d="M35.8697 77.1724C34.7217 77.1724 33.5737 77.1646 32.4256 77.1776C32.1705 77.1802 32.0924 77.1099 32.095 76.8496C32.1054 74.5536 32.1054 72.2575 32.095 69.9615C32.095 69.683 32.1835 69.6205 32.4465 69.6205C34.7529 69.6309 37.0594 69.6309 39.3658 69.6205C39.634 69.6205 39.7147 69.6908 39.712 69.9641C39.7016 72.2601 39.7016 74.5562 39.712 76.8522C39.712 77.1177 39.6261 77.1776 39.3788 77.175C38.21 77.1646 37.0385 77.1698 35.8697 77.1698V77.1724Z" fill="#BBB8DF"/>
<path d="M72.3253 77.1724C71.1668 77.1724 70.0084 77.1672 68.85 77.1776C68.6131 77.1776 68.5063 77.1412 68.5063 76.8626C68.5168 74.5562 68.5168 72.2471 68.5063 69.9407C68.5063 69.7064 68.5584 69.6205 68.8109 69.6205C71.1512 69.6283 73.4889 69.6283 75.8292 69.6205C76.0609 69.6205 76.1234 69.696 76.1208 69.9199C76.1129 72.2367 76.1129 74.5562 76.1208 76.873C76.1208 77.1282 76.0296 77.1776 75.798 77.175C74.6395 77.1646 73.4811 77.1698 72.3227 77.1698L72.3253 77.1724Z" fill="#BBB8DF"/>
<path d="M11.6496 88.1631C10.4911 88.1631 9.33271 88.1553 8.17428 88.1683C7.92176 88.1683 7.84106 88.1059 7.84106 87.8429C7.85148 85.5365 7.85148 83.2274 7.84106 80.921C7.84106 80.6737 7.91916 80.6112 8.15605 80.6112C10.4833 80.619 12.8132 80.619 15.1405 80.6112C15.38 80.6112 15.4581 80.6737 15.4555 80.921C15.4477 83.2379 15.4477 85.5573 15.4555 87.8742C15.4555 88.1059 15.38 88.1683 15.1561 88.1657C13.9873 88.1579 12.8158 88.1605 11.647 88.1605L11.6496 88.1631Z" fill="#BBB8DF"/>
<path d="M35.888 88.1632C34.7296 88.1632 33.5711 88.158 32.4127 88.1684C32.1732 88.1684 32.0951 88.1059 32.0977 87.8586C32.1055 85.5418 32.1055 83.2223 32.0977 80.9055C32.0977 80.6738 32.1758 80.6139 32.3971 80.6139C34.7374 80.6191 37.0751 80.6217 39.4154 80.6139C39.6392 80.6139 39.7147 80.6738 39.7147 80.9055C39.7069 83.2223 39.7069 85.5418 39.7147 87.8586C39.7147 88.1059 39.6366 88.171 39.3997 88.1684C38.2309 88.158 37.0594 88.1632 35.8906 88.1632H35.888Z" fill="#BBB8DF"/>
<path d="M19.9955 73.4342C19.9955 72.2653 20.0007 71.0965 19.9903 69.925C19.9903 69.7011 20.0216 69.6074 20.2819 69.61C22.6196 69.6205 24.9599 69.6205 27.2976 69.61C27.524 69.61 27.5891 69.6699 27.5891 69.899C27.5813 72.2263 27.5813 74.5535 27.5891 76.8834C27.5891 77.1464 27.5032 77.2062 27.2559 77.2036C24.939 77.1958 22.6222 77.1932 20.3053 77.2036C20.0398 77.2036 19.9877 77.1177 19.9903 76.873C20.0033 75.725 19.9955 74.577 19.9955 73.429V73.4342Z" fill="#EA6B0C"/>
<path d="M44.2572 40.415C44.2572 39.2669 44.2624 38.1189 44.252 36.9709C44.252 36.734 44.3093 36.6533 44.5592 36.6533C46.8761 36.6611 49.1955 36.6611 51.5124 36.6533C51.7441 36.6533 51.8066 36.7288 51.804 36.9527C51.7962 39.2722 51.7962 41.589 51.804 43.9085C51.804 44.1662 51.7076 44.2105 51.4786 44.2105C49.1721 44.2027 46.8631 44.2027 44.5566 44.2105C44.3093 44.2105 44.2468 44.1324 44.2468 43.8955C44.2572 42.737 44.252 41.576 44.252 40.4176L44.2572 40.415Z" fill="#BBB8DF"/>
<path d="M56.4172 40.3967C56.4172 39.2591 56.425 38.1215 56.4119 36.9839C56.4093 36.7313 56.4744 36.6506 56.7373 36.6506C59.0334 36.661 61.3294 36.6584 63.6255 36.6506C63.8624 36.6506 63.9691 36.6923 63.9665 36.9682C63.9561 39.2747 63.9561 41.5837 63.9665 43.8902C63.9665 44.1297 63.904 44.2078 63.6567 44.2052C61.3502 44.1974 59.0412 44.1948 56.7347 44.2052C56.4692 44.2052 56.4093 44.1193 56.4119 43.8694C56.4224 42.7109 56.4172 41.5499 56.4172 40.3915V40.3967Z" fill="#BBB8DF"/>
<path d="M27.5499 51.4344C27.5499 52.5824 27.5447 53.7304 27.5551 54.8785C27.5551 55.1154 27.4978 55.1987 27.2479 55.1961C24.9311 55.1882 22.6116 55.1882 20.2947 55.1961C20.063 55.1961 20.0032 55.1206 20.0032 54.8967C20.011 52.5772 20.011 50.2604 20.0032 47.9409C20.0032 47.7222 20.0578 47.6389 20.2921 47.6389C22.609 47.6467 24.9285 47.6467 27.2453 47.6389C27.4926 47.6389 27.5577 47.7144 27.5551 47.9539C27.5447 49.1123 27.5499 50.2734 27.5499 51.4318V51.4344Z" fill="#BBB8DF"/>
<path d="M51.8014 73.4133C51.8014 74.5613 51.7962 75.7094 51.8066 76.8574C51.8066 77.0917 51.7519 77.1776 51.502 77.1776C49.1851 77.1698 46.8657 77.1698 44.5488 77.1776C44.3197 77.1776 44.2546 77.1047 44.2546 76.8808C44.2624 74.5613 44.2624 72.2445 44.2546 69.925C44.2546 69.6699 44.3458 69.623 44.5774 69.623C46.8839 69.6309 49.1929 69.6309 51.4994 69.623C51.7441 69.623 51.8144 69.6959 51.8118 69.938C51.8014 71.0965 51.8066 72.2575 51.8066 73.4159L51.8014 73.4133Z" fill="#BBB8DF"/>
<path d="M60.1706 77.1724C59.0226 77.1724 57.8745 77.1672 56.7265 77.1776C56.4896 77.1776 56.4089 77.1177 56.4089 76.8678C56.4167 74.5484 56.4167 72.2315 56.4089 69.912C56.4089 69.6778 56.487 69.6205 56.7083 69.6205C59.0252 69.6257 61.3446 69.6257 63.6615 69.6205C63.8828 69.6205 63.9609 69.6804 63.9609 69.912C63.9531 72.2315 63.9531 74.5484 63.9609 76.8678C63.9609 77.1151 63.8828 77.1776 63.6433 77.175C62.4848 77.1646 61.3264 77.1698 60.1654 77.1698L60.1706 77.1724Z" fill="#BBB8DF"/>
<path d="M23.7595 88.1632C22.6114 88.1632 21.4634 88.158 20.3154 88.1684C20.0785 88.1684 19.9978 88.1086 19.9978 87.8612C20.0056 85.5418 20.0056 83.2249 19.9978 80.9055C19.9978 80.6738 20.0759 80.6139 20.2972 80.6139C22.614 80.6217 24.9335 80.6191 27.2504 80.6139C27.4716 80.6139 27.5523 80.6712 27.5497 80.9055C27.5419 83.2249 27.5419 85.5418 27.5497 87.8612C27.5497 88.1086 27.4716 88.171 27.2321 88.171C26.0737 88.1606 24.9153 88.1658 23.7542 88.1658L23.7595 88.1632Z" fill="#BBB8DF"/>
<path d="M44.2575 84.3729C44.2575 83.2248 44.2627 82.0768 44.2523 80.9288C44.2523 80.6919 44.3121 80.6112 44.5595 80.6112C46.8763 80.619 49.1958 80.619 51.5127 80.6112C51.7443 80.6112 51.8042 80.6893 51.8042 80.9106C51.799 83.23 51.799 85.5469 51.8042 87.8664C51.8042 88.0876 51.7443 88.1683 51.5127 88.1657C49.1958 88.1579 46.8763 88.1579 44.5595 88.1657C44.3095 88.1657 44.2497 88.085 44.2523 87.8481C44.2627 86.6897 44.2575 85.5287 44.2575 84.3703V84.3729Z" fill="#BBB8DF"/>
<path d="M60.1888 88.1632C59.0408 88.1632 57.8928 88.158 56.7447 88.1684C56.4974 88.1684 56.4089 88.1112 56.4089 87.8456C56.4193 85.5392 56.4193 83.2301 56.4089 80.9237C56.4089 80.6764 56.4844 80.6139 56.7239 80.6139C59.0304 80.6217 61.3394 80.6217 63.6459 80.6139C63.8828 80.6139 63.9661 80.6712 63.9635 80.9211C63.9557 83.2405 63.9557 85.5574 63.9635 87.8769C63.9635 88.1086 63.888 88.171 63.6641 88.171C62.5057 88.1606 61.3472 88.1658 60.1862 88.1658L60.1888 88.1632Z" fill="#BBB8DF"/>
</svg>
