<svg width="50" height="50" viewBox="0 0 50 50" fill="none" xmlns="http://www.w3.org/2000/svg">
<path d="M50 25C50 11.1929 38.8071 0 25 0C11.1929 0 0 11.1929 0 25C0 38.8071 11.1929 50 25 50C38.8071 50 50 38.8071 50 25Z" fill="#F1F4FA"/>
<path d="M12.8125 12C12.597 12 12.3903 12.0856 12.238 12.238C12.0856 12.3903 12 12.597 12 12.8125V32.3125C12 32.528 12.0856 32.7347 12.238 32.887C12.3903 33.0394 12.597 33.125 12.8125 33.125H22.1059C21.926 32.5986 21.8067 32.0534 21.75 31.5H13.625V16.875H31.5V21.75C32.059 21.815 32.6115 21.9206 33.125 22.1059V12.8125C33.125 12.597 33.0394 12.3903 32.887 12.238C32.7347 12.0856 32.528 12 32.3125 12H12.8125ZM13.625 13.625H31.5V15.25H13.625V13.625ZM15.25 18.5V20.125H16.875V18.5H15.25ZM18.5 18.5V20.125H20.125V18.5H18.5ZM21.75 18.5V20.125H23.375V18.5H21.75ZM25 18.5V20.125H26.625V18.5H25ZM28.25 18.5V20.125H29.875V18.5H28.25ZM15.25 21.75V23.375H16.875V21.75H15.25ZM18.5 21.75V23.375H20.125V21.75H18.5ZM21.75 21.75V23.375H23.375V21.75H21.75ZM25 21.75V23.375H25.8629C26.1245 23.2011 26.3455 23.0143 26.625 22.8664V21.75H25ZM30.6875 23.375C26.6575 23.375 23.375 26.6575 23.375 30.6875C23.375 34.7175 26.6575 38 30.6875 38C34.7175 38 38 34.7175 38 30.6875C38 26.6575 34.7175 23.375 30.6875 23.375ZM30.6875 24.6961C31.4746 24.6955 32.254 24.85 32.9813 25.1509C33.7086 25.4517 34.3694 25.893 34.926 26.4494C35.4827 27.0059 35.9241 27.6666 36.2251 28.3938C36.5262 29.121 36.6809 29.9004 36.6805 30.6875C36.6811 31.4747 36.5266 32.2543 36.2256 32.9817C35.9247 33.7091 35.4833 34.37 34.9266 34.9266C34.37 35.4833 33.7091 35.9247 32.9817 36.2256C32.2543 36.5266 31.4747 36.6811 30.6875 36.6805C29.9003 36.6811 29.1207 36.5266 28.3933 36.2256C27.6659 35.9247 27.005 35.4833 26.4484 34.9266C25.8917 34.37 25.4503 33.7091 25.1494 32.9817C24.8484 32.2543 24.6939 31.4747 24.6945 30.6875C24.6939 29.9003 24.8484 29.1207 25.1494 28.3933C25.4503 27.6659 25.8917 27.005 26.4484 26.4484C27.005 25.8917 27.6659 25.4503 28.3933 25.1494C29.1207 24.8484 29.9003 24.6955 30.6875 24.6961ZM15.25 25V26.625H16.875V25H15.25ZM18.5 25V26.625H20.125V25H18.5ZM21.75 25V26.625H22.868C23.0142 26.3455 23.2011 26.1245 23.375 25.8629V25H21.75ZM30.5347 26.625C30.3467 26.661 30.1773 26.7622 30.0566 26.9109C29.9359 27.0595 29.8716 27.246 29.875 27.4375V30.6875C29.875 30.903 29.9606 31.1097 30.113 31.262C30.2653 31.4144 30.472 31.5 30.6875 31.5H33.5816C33.7971 31.5 34.0038 31.4144 34.1562 31.262C34.3085 31.1097 34.3941 30.903 34.3941 30.6875C34.3941 30.472 34.3085 30.2653 34.1562 30.113C34.0038 29.9606 33.7971 29.875 33.5816 29.875H31.5V27.4375C31.5 27.222 31.4144 27.0153 31.262 26.863C31.1097 26.7106 30.903 26.625 30.6875 26.625C30.6367 26.6202 30.5856 26.6202 30.5347 26.625ZM15.25 28.25V29.875H16.875V28.25H15.25ZM18.5 28.25V29.875H20.125V28.25H18.5Z" fill="#514C9F"/>
</svg>
