<svg width="30" height="31" viewBox="0 0 30 31" fill="none" xmlns="http://www.w3.org/2000/svg">
<g clip-path="url(#clip0_360_4278)">
<path d="M12.9582 19.1915C12.9582 19.2392 12.9034 19.2774 12.8342 19.2774C12.7554 19.2846 12.7006 19.2464 12.7006 19.1915C12.7006 19.1438 12.7554 19.1056 12.8246 19.1056C12.8962 19.0985 12.9582 19.1366 12.9582 19.1915ZM12.2162 19.0841C12.1995 19.1318 12.2472 19.1867 12.3188 19.201C12.3808 19.2249 12.4524 19.201 12.4667 19.1533C12.481 19.1056 12.4357 19.0508 12.3641 19.0292C12.3021 19.0126 12.2329 19.0364 12.2162 19.0841ZM13.2708 19.0436C13.2016 19.0603 13.1539 19.1056 13.161 19.1605C13.1682 19.2082 13.2302 19.2392 13.3018 19.2225C13.371 19.2058 13.4187 19.1605 13.4116 19.1128C13.4044 19.0674 13.34 19.0364 13.2708 19.0436ZM14.8407 9.90076C11.5315 9.90076 9 12.4131 9 15.7224C9 18.3684 10.6654 20.6326 13.0441 21.4295C13.3495 21.4844 13.4569 21.2959 13.4569 21.1408C13.4569 20.9929 13.4497 20.1769 13.4497 19.6759C13.4497 19.6759 11.7796 20.0337 11.4289 18.9649C11.4289 18.9649 11.1569 18.2705 10.7656 18.0916C10.7656 18.0916 10.2192 17.717 10.8038 17.7242C10.8038 17.7242 11.3978 17.7719 11.7247 18.3398C12.2472 19.2607 13.1229 18.9959 13.464 18.8384C13.5189 18.4567 13.674 18.1918 13.8458 18.0344C12.5121 17.8864 11.1664 17.6931 11.1664 15.3979C11.1664 14.7418 11.3477 14.4125 11.7295 13.9926C11.6675 13.8375 11.4647 13.1981 11.7915 12.3726C12.2902 12.2175 13.4378 13.0168 13.4378 13.0168C13.915 12.8831 14.428 12.814 14.9362 12.814C15.4444 12.814 15.9573 12.8831 16.4345 13.0168C16.4345 13.0168 17.5821 12.2151 18.0808 12.3726C18.4077 13.2005 18.2049 13.8375 18.1428 13.9926C18.5246 14.4149 18.7584 14.7441 18.7584 15.3979C18.7584 17.7003 17.3531 17.884 16.0194 18.0344C16.2389 18.2228 16.425 18.5807 16.425 19.1414C16.425 19.9454 16.4178 20.9404 16.4178 21.136C16.4178 21.2911 16.5276 21.4796 16.8306 21.4247C19.2165 20.6326 20.8341 18.3684 20.8341 15.7224C20.8341 12.4131 18.15 9.90076 14.8407 9.90076ZM11.3191 18.1298C11.2881 18.1536 11.2952 18.2085 11.3358 18.2539C11.374 18.292 11.4289 18.3087 11.4599 18.2777C11.4909 18.2539 11.4837 18.199 11.4432 18.1536C11.405 18.1154 11.3501 18.0987 11.3191 18.1298ZM11.0614 17.9365C11.0447 17.9675 11.0686 18.0057 11.1163 18.0296C11.1545 18.0534 11.2022 18.0463 11.2189 18.0128C11.2356 17.9818 11.2117 17.9437 11.164 17.9198C11.1163 17.9055 11.0781 17.9126 11.0614 17.9365ZM11.8345 18.7859C11.7963 18.8169 11.8106 18.8885 11.8655 18.9338C11.9204 18.9887 11.9896 18.9959 12.0206 18.9577C12.0516 18.9266 12.0373 18.8551 11.9896 18.8097C11.9371 18.7549 11.8655 18.7477 11.8345 18.7859ZM11.5625 18.4352C11.5243 18.459 11.5243 18.521 11.5625 18.5759C11.6006 18.6308 11.6651 18.6547 11.6961 18.6308C11.7343 18.5998 11.7343 18.5378 11.6961 18.4829C11.6627 18.428 11.6006 18.4041 11.5625 18.4352Z" fill="#514C9F"/>
</g>
<rect x="1" y="1.66998" width="28" height="28" rx="14" stroke="#514C9F" stroke-width="2"/>
<defs>
<clipPath id="clip0_360_4278">
<rect width="12" height="11.5385" fill="white" transform="translate(9 9.90076)"/>
</clipPath>
</defs>
</svg>
