<svg width="82" height="82" viewBox="0 0 82 82" fill="none" xmlns="http://www.w3.org/2000/svg">
<path d="M53.3484 32.9L51.4235 34.7848C51.2363 34.9674 50.9917 35.0586 50.7483 35.0586C50.5011 35.0586 50.2552 34.9649 50.0668 34.7786C49.6948 34.4061 49.6973 33.8067 50.073 33.4378L51.9989 31.552L50.5854 30.1402L48.66 32.0255C48.4728 32.2081 48.2281 32.2993 47.9847 32.2993C47.7376 32.2993 47.4917 32.2056 47.3032 32.0193C46.9313 31.6468 46.9338 31.0474 47.3095 30.6785L49.2358 28.7922L47.8217 27.3797L45.8965 29.265C45.7093 29.4475 45.4646 29.5388 45.2212 29.5388C44.9741 29.5388 44.7282 29.4451 44.5397 29.2588C44.1677 28.8863 44.1702 28.2868 44.5459 27.918L46.4722 26.0318L45.0581 24.6194L43.133 26.5044C42.9457 26.687 42.7011 26.7783 42.4577 26.7783C42.2106 26.7783 41.9647 26.6845 41.7762 26.4983C41.4042 26.1258 41.4067 25.5263 41.7824 25.1575L43.7086 23.2714L42.2936 21.8582L40.367 23.7439C40.181 23.9265 39.9363 24.0177 39.6929 24.0177C39.4458 24.0177 39.1999 23.924 39.0114 23.7365C38.6394 23.3652 38.6419 22.7657 39.0189 22.3969L40.9453 20.5115L40.9411 20.5072L44.5404 16.9822C38.6708 13.7226 31.5227 14.0222 27.3498 14.3285C20.1575 14.8563 20.5556 19.5558 20.7 20.4607C20.7152 20.5564 20.6799 20.6519 20.6084 20.7145C15.9632 24.7835 17.0406 30.2797 17.2944 31.3109C17.3205 31.4172 17.2861 31.527 17.2043 31.5968L13.3841 34.8565C13.3841 34.8565 12.0873 35.6455 13.4003 37.4426C13.9631 38.2127 13.9501 38.7253 13.7515 39.0596C13.2256 39.9451 12.8996 40.9435 13.0994 41.9621C13.2319 42.6375 13.4486 43.2977 13.8027 43.6886C14.5577 44.522 13.9348 45.9652 13.6434 46.529C13.5402 46.7285 13.4871 46.9401 13.492 47.1664C13.516 48.2639 14.1736 51.1666 20.6292 50.2123C27.2027 49.2406 29.5195 61.8744 30.1145 66.1652C31.135 65.9509 32.0695 65.4839 32.7941 64.7844C35.3604 62.3026 37.2876 57.4698 31.8929 48.5357C22.4478 32.8988 24.7644 26.1751 24.868 25.8963C25.0503 25.4054 25.6007 25.1513 26.0975 25.3326C26.5918 25.5115 26.8464 26.0493 26.6717 26.5377C26.6342 26.6525 24.702 32.9346 33.538 47.5637C39.8926 58.0841 36.6398 63.7174 34.1347 66.1387C32.7604 67.4684 30.8532 68.1974 28.8535 68.1974C28.4104 68.1974 27.9623 68.1617 27.5155 68.0889L25.2959 67.7269C27.2521 71.6406 30.9655 73.9241 34.528 75.2459C38.7125 76.7984 43.2293 77.1958 47.641 76.631C70.5805 73.6945 66.99 63.6543 66.2729 59.3817C66.2247 59.0951 65.864 59.0764 65.7488 59.3417C65.1691 60.6772 63.4377 60.9073 63.4377 60.9073C56.8902 60.6625 56.3204 52.8062 56.5723 48.0897C56.6793 46.0871 56.1358 44.1429 55.2479 42.36C54.0487 39.952 54.1758 37.3549 54.1758 37.3549C54.1716 35.5804 54.0557 33.9544 53.8615 32.4367L53.3682 32.9198L53.3484 32.9ZM43.1979 44.9586C40.4955 44.9586 38.2962 42.784 38.2962 40.1122C38.2962 37.9931 41.0959 34.3321 42.2992 32.8556C42.5214 32.5843 42.8484 32.4301 43.1979 32.4301H43.2029C43.5536 32.4313 43.8807 32.588 44.0991 32.8593C45.2999 34.3321 48.0996 37.9931 48.0996 40.1122C48.0996 42.784 45.9002 44.9586 43.1979 44.9586Z" fill="#514C9F"/>
<path d="M40.2134 40.1123C40.2134 41.7405 41.5527 43.064 43.1978 43.064C44.843 43.064 46.1823 41.7405 46.1823 40.1123C46.1823 39.2192 44.9828 37.0976 43.1978 34.7922C41.4142 37.0976 40.2134 39.2192 40.2134 40.1123ZM68.7486 5.56976C68.102 4.92589 66.9561 4.98756 66.1348 5.71285L55.5288 15.1219C54.514 16.0211 53.2134 16.4429 52.0401 16.2431L49.2866 15.7966C48.8497 15.7238 48.3791 15.8903 48.0221 16.2394L43.6522 20.5196L53.3807 30.2382L57.7456 25.9642C58.1076 25.6114 58.2786 25.1427 58.205 24.7097L57.7606 22.0516C57.5634 20.8798 57.999 19.5821 58.9264 18.5818L68.5751 8.15391C69.319 7.35092 69.3951 6.21611 68.7486 5.56976Z" fill="#514C9F"/>
</svg>
