<svg width="51" height="50" viewBox="0 0 51 50" fill="none" xmlns="http://www.w3.org/2000/svg">
<path d="M21.7891 10.7422H23.3027V12.2559C23.3033 12.709 23.4835 13.1433 23.8039 13.4637C24.1242 13.7841 24.5586 13.9643 25.0117 13.9648H25.9883C26.4414 13.9643 26.8758 13.7841 27.1961 13.4637C27.5165 13.1433 27.6967 12.709 27.6973 12.2559V10.7422H29.2109C29.664 10.7417 30.0984 10.5615 30.4188 10.2411C30.7392 9.92068 30.9194 9.4863 30.9199 9.0332V8.05664C30.9194 7.60355 30.7392 7.16916 30.4188 6.84878C30.0984 6.52839 29.664 6.34817 29.2109 6.34766H27.6973V4.83398C27.6967 4.38089 27.5165 3.94651 27.1961 3.62612C26.8758 3.30574 26.4414 3.12552 25.9883 3.125H25.0117C24.5586 3.12552 24.1242 3.30574 23.8039 3.62612C23.4835 3.94651 23.3033 4.38089 23.3027 4.83398V6.34766H21.7891C21.336 6.34817 20.9016 6.52839 20.5812 6.84878C20.2608 7.16916 20.0806 7.60355 20.0801 8.05664V9.0332C20.0806 9.4863 20.2608 9.92068 20.5812 10.2411C20.9016 10.5615 21.336 10.7417 21.7891 10.7422ZM21.5449 8.05664C21.545 7.99191 21.5707 7.92986 21.6165 7.88409C21.6623 7.83832 21.7243 7.81258 21.7891 7.8125H24.0352C24.2294 7.8125 24.4157 7.73533 24.5531 7.59798C24.6904 7.46062 24.7676 7.27433 24.7676 7.08008V4.83398C24.7677 4.76926 24.7934 4.7072 24.8392 4.66144C24.8849 4.61567 24.947 4.58992 25.0117 4.58984H25.9883C26.053 4.58992 26.1151 4.61567 26.1608 4.66144C26.2066 4.7072 26.2323 4.76926 26.2324 4.83398V7.08008C26.2324 7.27433 26.3096 7.46062 26.4469 7.59798C26.5843 7.73533 26.7706 7.8125 26.9648 7.8125H29.2109C29.2757 7.81258 29.3377 7.83832 29.3835 7.88409C29.4293 7.92986 29.455 7.99191 29.4551 8.05664V9.0332C29.455 9.09793 29.4293 9.15998 29.3835 9.20575C29.3377 9.25152 29.2757 9.27727 29.2109 9.27734H26.9648C26.7706 9.27734 26.5843 9.35451 26.4469 9.49187C26.3096 9.62922 26.2324 9.81552 26.2324 10.0098V12.2559C26.2323 12.3206 26.2066 12.3826 26.1608 12.4284C26.1151 12.4742 26.053 12.4999 25.9883 12.5H25.0117C24.947 12.4999 24.8849 12.4742 24.8392 12.4284C24.7934 12.3826 24.7677 12.3206 24.7676 12.2559V10.0098C24.7676 9.81552 24.6904 9.62922 24.5531 9.49187C24.4157 9.35451 24.2294 9.27734 24.0352 9.27734H21.7891C21.7243 9.27727 21.6623 9.25152 21.6165 9.20575C21.5707 9.15998 21.545 9.09793 21.5449 9.0332V8.05664ZM46.8379 13.6719H38.7812V12.9395C38.7802 11.9685 38.394 11.0377 37.7074 10.3511C37.0209 9.66461 36.0901 9.27843 35.1191 9.27734H33.9111C33.9316 9.03584 33.9426 8.7917 33.9426 8.54492C33.9426 3.8332 30.1552 0 25.5 0C20.8448 0 17.0574 3.8332 17.0574 8.54492C17.0574 8.7917 17.0685 9.03584 17.0888 9.27734H15.8809C14.9099 9.27843 13.9791 9.66461 13.2926 10.3511C12.606 11.0377 12.2198 11.9685 12.2188 12.9395V13.6719H4.16211C3.19119 13.673 2.26035 14.0591 1.57381 14.7457C0.887262 15.4322 0.501086 16.3631 0.5 17.334L0.5 46.3379C0.501086 47.3088 0.887262 48.2397 1.57381 48.9262C2.26035 49.6127 3.19119 49.9989 4.16211 50H46.8379C47.8088 49.9989 48.7397 49.6127 49.4262 48.9262C50.1127 48.2397 50.4989 47.3088 50.5 46.3379V17.334C50.4989 16.3631 50.1127 15.4322 49.4262 14.7457C48.7397 14.0591 47.8088 13.673 46.8379 13.6719ZM12.2188 33.5938H6.35938V30.957H12.2188V33.5938ZM12.2188 25.0977H6.35938V22.4609H12.2188V25.0977ZM12.2188 20.9961H6.21289C5.86336 20.9965 5.52825 21.1355 5.2811 21.3827C5.03394 21.6298 4.89492 21.9649 4.89453 22.3145V25.2441C4.89492 25.5937 5.03394 25.9288 5.2811 26.1759C5.52825 26.4231 5.86336 26.5621 6.21289 26.5625H12.2188V29.4922H6.21289C5.86336 29.4926 5.52825 29.6316 5.2811 29.8788C5.03394 30.1259 4.89492 30.461 4.89453 30.8105V33.7402C4.89492 34.0898 5.03394 34.4249 5.2811 34.672C5.52825 34.9192 5.86336 35.0582 6.21289 35.0586H12.2188V48.5352H4.16211C3.57956 48.5345 3.02105 48.3028 2.60912 47.8909C2.19719 47.479 1.96549 46.9204 1.96484 46.3379V17.334C1.96549 16.7514 2.19719 16.1929 2.60912 15.781C3.02105 15.3691 3.57956 15.1374 4.16211 15.1367H12.2188V20.9961ZM25.5 1.46484C29.3475 1.46484 32.4777 4.64092 32.4777 8.54492C32.4777 12.4489 29.3475 15.625 25.5 15.625C21.6525 15.625 18.5223 12.4489 18.5223 8.54492C18.5223 4.64092 21.6525 1.46484 25.5 1.46484ZM28.8203 48.5352H22.1797V40.1855C22.1799 39.9914 22.2571 39.8052 22.3944 39.6679C22.5317 39.5306 22.7179 39.4533 22.9121 39.4531H28.0879C28.2821 39.4533 28.4683 39.5306 28.6056 39.6679C28.7429 39.8052 28.8201 39.9914 28.8203 40.1855V48.5352ZM37.3164 48.5352H30.2852V40.1855C30.2845 39.603 30.0528 39.0445 29.6409 38.6326C29.229 38.2206 28.6704 37.9889 28.0879 37.9883H22.9121C22.3296 37.9889 21.771 38.2206 21.3591 38.6326C20.9472 39.0445 20.7155 39.603 20.7148 40.1855V48.5352H13.6836V12.9395C13.6842 12.3569 13.9159 11.7984 14.3279 11.3865C14.7398 10.9745 15.2983 10.7428 15.8809 10.7422H17.3409C18.3015 14.3926 21.5951 17.0898 25.5 17.0898C29.4049 17.0898 32.6985 14.3926 33.6591 10.7422H35.1191C35.7017 10.7428 36.2602 10.9745 36.6721 11.3865C37.0841 11.7984 37.3158 12.3569 37.3164 12.9395V48.5352ZM38.7812 22.4609H44.6406V25.0977H38.7812V22.4609ZM38.7812 30.957H44.6406V33.5938H38.7812V30.957ZM49.0352 46.3379C49.0345 46.9204 48.8028 47.479 48.3909 47.8909C47.979 48.3028 47.4204 48.5345 46.8379 48.5352H38.7812V35.0586H44.7871C45.1366 35.0582 45.4717 34.9192 45.7189 34.672C45.9661 34.4249 46.1051 34.0898 46.1055 33.7402V30.8105C46.1051 30.461 45.9661 30.1259 45.7189 29.8788C45.4717 29.6316 45.1366 29.4926 44.7871 29.4922H38.7812V26.5625H44.7871C45.1366 26.5621 45.4717 26.4231 45.7189 26.1759C45.9661 25.9288 46.1051 25.5937 46.1055 25.2441V22.3145C46.1051 21.9649 45.9661 21.6298 45.7189 21.3827C45.4717 21.1355 45.1366 20.9965 44.7871 20.9961H38.7812V15.1367H46.8379C47.4204 15.1374 47.979 15.3691 48.3909 15.781C48.8028 16.1929 49.0345 16.7514 49.0352 17.334V46.3379ZM33.0684 20.9961H27.5508C27.2013 20.9965 26.8661 21.1355 26.619 21.3827C26.3718 21.6298 26.2328 21.9649 26.2324 22.3145V25.2441C26.2328 25.5937 26.3718 25.9288 26.619 26.1759C26.8661 26.4231 27.2013 26.5621 27.5508 26.5625H33.0684C33.4179 26.5621 33.753 26.4231 34.0002 26.1759C34.2473 25.9288 34.3863 25.5937 34.3867 25.2441V22.3145C34.3863 21.9649 34.2473 21.6298 34.0002 21.3827C33.753 21.1355 33.4179 20.9965 33.0684 20.9961ZM32.9219 25.0977H27.6973V22.4609H32.9219V25.0977ZM33.0684 29.4922H27.5508C27.2013 29.4926 26.8661 29.6316 26.619 29.8788C26.3718 30.1259 26.2328 30.461 26.2324 30.8105V33.7402C26.2328 34.0898 26.3718 34.4249 26.619 34.672C26.8661 34.9192 27.2013 35.0582 27.5508 35.0586H33.0684C33.4179 35.0582 33.753 34.9192 34.0002 34.672C34.2473 34.4249 34.3863 34.0898 34.3867 33.7402V30.8105C34.3863 30.461 34.2473 30.1259 34.0002 29.8788C33.753 29.6316 33.4179 29.4926 33.0684 29.4922ZM32.9219 33.5938H27.6973V30.957H32.9219V33.5938ZM23.4492 29.4922H17.9316C17.5821 29.4926 17.247 29.6316 16.9998 29.8788C16.7527 30.1259 16.6137 30.461 16.6133 30.8105V33.7402C16.6137 34.0898 16.7527 34.4249 16.9998 34.672C17.247 34.9192 17.5821 35.0582 17.9316 35.0586H23.4492C23.7987 35.0582 24.1339 34.9192 24.381 34.672C24.6282 34.4249 24.7672 34.0898 24.7676 33.7402V30.8105C24.7672 30.461 24.6282 30.1259 24.381 29.8788C24.1339 29.6316 23.7987 29.4926 23.4492 29.4922ZM23.3027 33.5938H18.0781V30.957H23.3027V33.5938ZM23.4492 20.9961H17.9316C17.5821 20.9965 17.247 21.1355 16.9998 21.3827C16.7527 21.6298 16.6137 21.9649 16.6133 22.3145V25.2441C16.6137 25.5937 16.7527 25.9288 16.9998 26.1759C17.247 26.4231 17.5821 26.5621 17.9316 26.5625H23.4492C23.7987 26.5621 24.1339 26.4231 24.381 26.1759C24.6282 25.9288 24.7672 25.5937 24.7676 25.2441V22.3145C24.7672 21.9649 24.6282 21.6298 24.381 21.3827C24.1339 21.1355 23.7987 20.9965 23.4492 20.9961ZM23.3027 25.0977H18.0781V22.4609H23.3027V25.0977Z" fill="#514C9F" stroke="#514C9F"/>
</svg>
