<svg width="66" height="66" viewBox="0 0 66 66" fill="none" xmlns="http://www.w3.org/2000/svg">
<path d="M41.8002 38.5C39.2002 37.8 37.1002 40.1 33.5002 40.1C29.7002 40.1 28.2002 38.2 26.5002 38.2C24.0002 38.2 23.3002 40.5 23.8002 43.2C23.8002 43.3 25.2002 54.6 23.0002 62.9C22.9002 63.2 23.0002 63.5 23.2002 63.7C23.4002 63.9 23.7002 64.1 24.0002 64.1H38.3002C38.8002 64.1 39.2002 63.8 39.3002 63.3C39.8002 59.5 41.5002 49 42.9002 46.8C44.9002 43.5 45.5002 39.5 41.8002 38.5ZM38.5002 47.6C34.9002 49.6 30.9002 49.2 28.4002 47.1C28.0002 46.8 27.9002 46.1 28.3002 45.7C28.6002 45.3 29.3002 45.2 29.7002 45.6C29.9002 45.7 33.2002 48.4 37.6002 45.9C38.1002 45.6 38.7002 45.8 38.9002 46.3C39.1002 46.7 38.9002 47.3 38.5002 47.6ZM48.0002 36C47.5002 36.3 46.9002 36.1 46.7002 35.7C46.4002 35.2 46.6002 34.7 47.0002 34.4C55.6002 29.1 54.7002 20.8 47.1002 17.6C45.9002 17.1 46.7002 15.3 47.9002 15.8C57.5002 20.2 57.4002 30.1 48.0002 36Z" fill="#514C9F"/>
<path d="M42.0999 16.8C38.1999 12.3 33.7999 1.7 33.6999 1.6C33.5999 1.2 33.2999 1 32.8999 1H16.2999C15.8999 1 15.4999 1.2 15.3999 1.6C15.2999 2 15.3999 2.4 15.5999 2.7C18.4999 5.4 20.5999 12.4 20.5999 12.4C21.0999 13.9 23.0999 18.3 22.6999 23.2C22.2999 27.3 23.5999 31.3 26.0999 34C32.2999 40.6 43.2999 38.3 45.6999 30C46.7999 25.7 45.4999 20.7 42.0999 16.8ZM37.4999 31.7C37.0999 32.1 36.4999 32 36.0999 31.6C35.6999 31.2 35.7999 30.6 36.1999 30.2C37.4999 29 38.0999 27.8 38.0999 26.5C38.0999 24.3 36.1999 22.5 36.1999 22.4C35.7999 22 35.7999 21.4 36.0999 21C36.4999 20.6 37.0999 20.6 37.4999 20.9C37.5999 21 39.9999 23.3 39.9999 26.4C40.0999 28.5 39.1999 30.2 37.4999 31.7ZM21.3999 49.7V64C21.3999 64.5 20.9999 65 20.3999 65H11.8999C11.4999 65 11.0999 64.8 10.9999 64.4C10.8999 64 10.9999 63.6 11.2999 63.3C11.2999 63.3 16.6999 58.2 19.5999 49.4C19.6999 48.9 20.1999 48.7 20.6999 48.7C20.9999 48.9 21.3999 49.3 21.3999 49.7Z" fill="#514C9F"/>
</svg>
