<svg width="30" height="31" viewBox="0 0 30 31" fill="none" xmlns="http://www.w3.org/2000/svg">
<g clip-path="url(#clip0_360_4274)">
<path d="M11.6861 21.67H9.19822V13.6582H11.6861V21.67ZM10.4408 12.5653C9.64528 12.5653 9 11.9064 9 11.1108C9 10.7287 9.1518 10.3622 9.42201 10.092C9.69222 9.82178 10.0587 9.66998 10.4408 9.66998C10.823 9.66998 11.1895 9.82178 11.4597 10.092C11.7299 10.3622 11.8817 10.7287 11.8817 11.1108C11.8817 11.9064 11.2361 12.5653 10.4408 12.5653ZM20.9976 21.67H18.515V17.7699C18.515 16.8404 18.4963 15.6484 17.2215 15.6484C15.928 15.6484 15.7298 16.6583 15.7298 17.7029V21.67H13.2446V13.6582H15.6307V14.7511H15.6655C15.9977 14.1216 16.809 13.4573 18.0195 13.4573C20.5374 13.4573 21.0003 15.1154 21.0003 17.269V21.67H20.9976Z" fill="#514C9F"/>
</g>
<rect x="1" y="1.66998" width="28" height="28" rx="14" stroke="#514C9F" stroke-width="2"/>
<defs>
<clipPath id="clip0_360_4274">
<rect width="12" height="12" fill="white" transform="translate(9 9.66998)"/>
</clipPath>
</defs>
</svg>
