<svg width="50" height="50" viewBox="0 0 50 50" fill="none" xmlns="http://www.w3.org/2000/svg">
<path d="M50 25C50 11.1929 38.8071 0 25 0C11.1929 0 0 11.1929 0 25C0 38.8071 11.1929 50 25 50C38.8071 50 50 38.8071 50 25Z" fill="#F1F4FA"/>
<path d="M25.1836 16.875C25.0984 16.8748 25.0154 16.8479 24.9463 16.798C24.8772 16.7482 24.8255 16.6779 24.7985 16.5971L24.3922 15.3784C24.3783 15.337 24.3712 15.2937 24.3711 15.25V14.8438C24.3711 14.1718 24.9179 13.625 25.5898 13.625C26.2618 13.625 26.8086 14.1718 26.8086 14.8438V15.25C26.8086 15.3577 26.7658 15.4611 26.6896 15.5373C26.6134 15.6134 26.5101 15.6562 26.4023 15.6562C26.2946 15.6562 26.1913 15.6134 26.1151 15.5373C26.0389 15.4611 25.9961 15.3577 25.9961 15.25V14.8438C25.9961 14.736 25.9533 14.6327 25.8771 14.5565C25.8009 14.4803 25.6976 14.4375 25.5898 14.4375C25.4821 14.4375 25.3788 14.4803 25.3026 14.5565C25.2264 14.6327 25.1836 14.736 25.1836 14.8438V15.1842L25.5687 16.3404C25.5889 16.4014 25.5943 16.4664 25.5845 16.5299C25.5747 16.5934 25.55 16.6537 25.5124 16.7059C25.4749 16.758 25.4255 16.8005 25.3683 16.8299C25.3112 16.8593 25.2479 16.8748 25.1836 16.875Z" fill="#514C9F"/>
<path d="M28.8399 18.5H25.5899C25.4993 18.5 25.4113 18.4697 25.3399 18.4139C25.2685 18.3581 25.2178 18.28 25.1959 18.1921L24.7896 16.5671C24.7753 16.5148 24.7716 16.4603 24.7786 16.4066C24.7857 16.3529 24.8034 16.3012 24.8307 16.2545C24.8581 16.2078 24.8945 16.167 24.9378 16.1345C24.9811 16.102 25.0305 16.0786 25.0831 16.0655C25.1356 16.0524 25.1902 16.0499 25.2437 16.0582C25.2972 16.0665 25.3485 16.0854 25.3946 16.1138C25.4407 16.1422 25.4806 16.1796 25.5121 16.2236C25.5435 16.2677 25.5659 16.3176 25.5777 16.3704L25.9076 17.6875H28.523L28.8529 16.3704C28.881 16.2681 28.948 16.1808 29.0396 16.1272C29.1312 16.0736 29.2401 16.058 29.343 16.0837C29.446 16.1094 29.5348 16.1743 29.5905 16.2647C29.6462 16.355 29.6643 16.4635 29.641 16.5671L29.2348 18.1921C29.2126 18.28 29.1617 18.358 29.0902 18.4138C29.0187 18.4695 28.9306 18.4999 28.8399 18.5ZM28.4337 29.0406H25.9962C25.8884 29.0406 25.7851 28.9978 25.7089 28.9216C25.6327 28.8454 25.5899 28.7421 25.5899 28.6343C25.5899 28.5266 25.6327 28.4232 25.7089 28.347C25.7851 28.2709 25.8884 28.2281 25.9962 28.2281H28.4337C28.5414 28.2281 28.6447 28.2709 28.7209 28.347C28.7971 28.4232 28.8399 28.5266 28.8399 28.6343C28.8399 28.7421 28.7971 28.8454 28.7209 28.9216C28.6447 28.9978 28.5414 29.0406 28.4337 29.0406ZM28.4337 30.6778H25.1837C25.0759 30.6778 24.9726 30.6349 24.8964 30.5588C24.8202 30.4826 24.7774 30.3792 24.7774 30.2715C24.7774 30.1638 24.8202 30.0604 24.8964 29.9842C24.9726 29.9081 25.0759 29.8653 25.1837 29.8653H28.4337C28.5414 29.8653 28.6447 29.9081 28.7209 29.9842C28.7971 30.0604 28.8399 30.1638 28.8399 30.2715C28.8399 30.3792 28.7971 30.4826 28.7209 30.5588C28.6447 30.6349 28.5414 30.6778 28.4337 30.6778ZM27.6212 34.7403C27.5134 34.7403 27.41 34.6976 27.3335 34.6216L24.896 32.1841C24.822 32.1075 24.7811 32.0049 24.782 31.8984C24.7829 31.7919 24.8257 31.69 24.901 31.6146C24.9763 31.5393 25.0782 31.4966 25.1847 31.4957C25.2912 31.4947 25.3939 31.5357 25.4705 31.6097L27.908 34.0472C27.9646 34.104 28.0032 34.1763 28.0188 34.255C28.0344 34.3337 28.0263 34.4152 27.9957 34.4893C27.965 34.5635 27.913 34.6268 27.8464 34.6715C27.7798 34.7162 27.7014 34.7401 27.6212 34.7403Z" fill="#514C9F"/>
<path d="M25.9961 32.2906H25.1836C25.0758 32.2906 24.9725 32.2478 24.8963 32.1716C24.8201 32.0954 24.7773 31.9921 24.7773 31.8843C24.7773 31.7766 24.8201 31.6732 24.8963 31.597C24.9725 31.5209 25.0758 31.4781 25.1836 31.4781H25.9961C26.668 31.4781 27.2148 30.9312 27.2148 30.2593C27.2148 29.5874 26.668 29.0406 25.9961 29.0406H25.1836C25.0758 29.0406 24.9725 28.9978 24.8963 28.9216C24.8201 28.8454 24.7773 28.7421 24.7773 28.6343C24.7773 28.5266 24.8201 28.4232 24.8963 28.347C24.9725 28.2709 25.0758 28.2281 25.1836 28.2281H25.9961C27.1157 28.2281 28.0273 29.1389 28.0273 30.2593C28.0273 31.3797 27.1157 32.2906 25.9961 32.2906Z" fill="#514C9F"/>
<path d="M21.1212 25H15.467C15.3593 25 15.256 24.9572 15.1798 24.881C15.1036 24.8048 15.0608 24.7015 15.0608 24.5938C15.0608 24.486 15.1036 24.3827 15.1798 24.3065C15.256 24.2303 15.3593 24.1875 15.467 24.1875H20.715V17.6875H15.467C15.3593 17.6875 15.256 17.6447 15.1798 17.5685C15.1036 17.4923 15.0608 17.389 15.0608 17.2812C15.0608 17.1735 15.1036 17.0702 15.1798 16.994C15.256 16.9178 15.3593 16.875 15.467 16.875H21.1212C21.229 16.875 21.3323 16.9178 21.4085 16.994C21.4847 17.0702 21.5275 17.1735 21.5275 17.2812V24.5938C21.5275 24.7015 21.4847 24.8048 21.4085 24.881C21.3323 24.9572 21.229 25 21.1212 25Z" fill="#514C9F"/>
<path d="M17.8711 24.5938C17.7633 24.5938 17.66 24.5509 17.5838 24.4748C17.5076 24.3986 17.4648 24.2952 17.4648 24.1875V17.6875C17.4648 17.5798 17.5076 17.4764 17.5838 17.4002C17.66 17.3241 17.7633 17.2812 17.8711 17.2812C17.9788 17.2812 18.0822 17.3241 18.1584 17.4002C18.2345 17.4764 18.2773 17.5798 18.2773 17.6875V24.1875C18.2773 24.2952 18.2345 24.3986 18.1584 24.4748C18.0822 24.5509 17.9788 24.5938 17.8711 24.5938ZM22.7794 24.1875H21.1211C21.0133 24.1875 20.91 24.1447 20.8338 24.0685C20.7576 23.9923 20.7148 23.889 20.7148 23.7812V18.0938C20.7148 17.986 20.7576 17.8827 20.8338 17.8065C20.91 17.7303 21.0133 17.6875 21.1211 17.6875H21.9669C22.0747 17.6875 22.178 17.7303 22.2542 17.8065C22.3304 17.8827 22.3732 17.986 22.3732 18.0938C22.3732 18.2015 22.3304 18.3048 22.2542 18.381C22.178 18.4572 22.0747 18.5 21.9669 18.5H21.5273V23.375H22.7794C22.8872 23.375 22.9905 23.4178 23.0667 23.494C23.1429 23.5702 23.1857 23.6735 23.1857 23.7812C23.1857 23.889 23.1429 23.9923 23.0667 24.0685C22.9905 24.1447 22.8872 24.1875 22.7794 24.1875ZM29.2128 23.375H27.3058C27.1981 23.375 27.0948 23.3322 27.0186 23.256C26.9424 23.1798 26.8996 23.0765 26.8996 22.9688C26.8996 22.861 26.9424 22.7577 27.0186 22.6815C27.0948 22.6053 27.1981 22.5625 27.3058 22.5625H29.2128C29.3205 22.5625 29.4239 22.5197 29.5 22.4435C29.5762 22.3673 29.619 22.264 29.619 22.1562C29.619 22.0485 29.5762 21.9452 29.5 21.869C29.4239 21.7928 29.3205 21.75 29.2128 21.75H27.3058C27.1981 21.75 27.0948 21.7072 27.0186 21.631C26.9424 21.5548 26.8996 21.4515 26.8996 21.3438C26.8996 21.236 26.9424 21.1327 27.0186 21.0565C27.0948 20.9803 27.1981 20.9375 27.3058 20.9375H29.2128C29.8847 20.9375 30.4315 21.4843 30.4315 22.1562C30.4315 22.8282 29.8847 23.375 29.2128 23.375Z" fill="#514C9F"/>
<path d="M29.2128 21.75H27.3059C27.1982 21.75 27.0948 21.7072 27.0186 21.631C26.9425 21.5548 26.8997 21.4515 26.8997 21.3438C26.8997 21.236 26.9425 21.1327 27.0186 21.0565C27.0948 20.9803 27.1982 20.9375 27.3059 20.9375H29.2128C29.3206 20.9375 29.4239 20.8947 29.5001 20.8185C29.5763 20.7423 29.6191 20.639 29.6191 20.5312C29.6191 20.4235 29.5763 20.3202 29.5001 20.244C29.4239 20.1678 29.3206 20.125 29.2128 20.125H27.3059C27.1982 20.125 27.0948 20.0822 27.0186 20.006C26.9425 19.9298 26.8997 19.8265 26.8997 19.7188C26.8997 19.611 26.9425 19.5077 27.0186 19.4315C27.0948 19.3553 27.1982 19.3125 27.3059 19.3125H29.2128C29.8848 19.3125 30.4316 19.8593 30.4316 20.5312C30.4316 21.2032 29.8848 21.75 29.2128 21.75Z" fill="#514C9F"/>
<path d="M29.2128 20.125H27.3058C27.1981 20.125 27.0948 20.0822 27.0186 20.006C26.9424 19.9298 26.8996 19.8265 26.8996 19.7188C26.8996 19.611 26.9424 19.5077 27.0186 19.4315C27.0948 19.3553 27.1981 19.3125 27.3058 19.3125H29.2128C29.3205 19.3125 29.4239 19.2697 29.5 19.1935C29.5762 19.1173 29.619 19.014 29.619 18.9062C29.619 18.7985 29.5762 18.6952 29.5 18.619C29.4239 18.5428 29.3205 18.5 29.2128 18.5H25.5898C25.4821 18.5 25.3788 18.4572 25.3026 18.381C25.2264 18.3048 25.1836 18.2015 25.1836 18.0938C25.1836 17.986 25.2264 17.8827 25.3026 17.8065C25.3788 17.7303 25.4821 17.6875 25.5898 17.6875H29.2128C29.8847 17.6875 30.4315 18.2343 30.4315 18.9062C30.4315 19.5782 29.8847 20.125 29.2128 20.125Z" fill="#514C9F"/>
<path d="M25.59 18.5C25.4994 18.5001 25.4115 18.4698 25.3402 18.414C25.2689 18.3581 25.2184 18.28 25.1967 18.1921L24.866 16.875H23.8423L23.1419 18.2758C23.1084 18.3431 23.0567 18.3998 22.9926 18.4394C22.9286 18.4791 22.8548 18.5 22.7795 18.5H21.967C21.8593 18.5 21.756 18.4572 21.6798 18.381C21.6036 18.3048 21.5608 18.2015 21.5608 18.0938C21.5608 17.986 21.6036 17.8827 21.6798 17.8065C21.756 17.7303 21.8593 17.6875 21.967 17.6875H22.5285L23.2289 16.2868C23.2625 16.2193 23.3144 16.1626 23.3785 16.123C23.4427 16.0833 23.5166 16.0624 23.592 16.0625H25.1837C25.2743 16.0625 25.3624 16.0928 25.4338 16.1486C25.5052 16.2044 25.5559 16.2825 25.5778 16.3704L25.984 17.9954C25.999 18.0553 26.0001 18.1178 25.9872 18.1782C25.9744 18.2385 25.948 18.2952 25.91 18.3438C25.8721 18.3924 25.8235 18.4318 25.768 18.4588C25.7126 18.4859 25.6517 18.5 25.59 18.5Z" fill="#514C9F"/>
<path d="M22.7795 18.5H21.967C21.8593 18.5 21.756 18.4572 21.6798 18.381C21.6036 18.3048 21.5608 18.2015 21.5608 18.0938C21.5608 17.986 21.6036 17.8827 21.6798 17.8065C21.756 17.7303 21.8593 17.6875 21.967 17.6875H22.7795C22.8873 17.6875 22.9906 17.7303 23.0668 17.8065C23.143 17.8827 23.1858 17.986 23.1858 18.0938C23.1858 18.2015 23.143 18.3048 23.0668 18.381C22.9906 18.4572 22.8873 18.5 22.7795 18.5Z" fill="#514C9F"/>
<path d="M19.4961 23.375C19.7205 23.375 19.9023 23.1931 19.9023 22.9688C19.9023 22.7444 19.7205 22.5625 19.4961 22.5625C19.2717 22.5625 19.0898 22.7444 19.0898 22.9688C19.0898 23.1931 19.2717 23.375 19.4961 23.375Z" fill="#514C9F"/>
<path d="M28.0273 15.6562C27.9196 15.6562 27.8163 15.6134 27.7401 15.5373C27.6639 15.4611 27.6211 15.3577 27.6211 15.25V14.8438C27.6211 14.736 27.5783 14.6327 27.5021 14.5565C27.4259 14.4803 27.3226 14.4375 27.2148 14.4375C27.1071 14.4375 27.0038 14.4803 26.9276 14.5565C26.8514 14.6327 26.8086 14.736 26.8086 14.8438V15.25C26.8086 15.3577 26.7658 15.4611 26.6896 15.5373C26.6134 15.6134 26.5101 15.6562 26.4023 15.6562C26.2946 15.6562 26.1913 15.6134 26.1151 15.5373C26.0389 15.4611 25.9961 15.3577 25.9961 15.25V14.8438C25.9961 14.1718 26.5429 13.625 27.2148 13.625C27.8868 13.625 28.4336 14.1718 28.4336 14.8438V15.25C28.4336 15.3577 28.3908 15.4611 28.3146 15.5373C28.2384 15.6134 28.1351 15.6562 28.0273 15.6562Z" fill="#514C9F"/>
<path d="M29.2462 16.875C29.1819 16.8748 29.1186 16.8593 29.0614 16.8299C29.0043 16.8005 28.9549 16.758 28.9173 16.7059C28.8798 16.6537 28.8551 16.5934 28.8453 16.5299C28.8355 16.4664 28.8409 16.4014 28.8611 16.3404L29.2462 15.1842V14.8438C29.2462 14.736 29.2034 14.6327 29.1272 14.5565C29.051 14.4803 28.9477 14.4375 28.8399 14.4375C28.7322 14.4375 28.6289 14.4803 28.5527 14.5565C28.4765 14.6327 28.4337 14.736 28.4337 14.8438V15.25C28.4337 15.3577 28.3909 15.4611 28.3147 15.5373C28.2385 15.6134 28.1352 15.6562 28.0274 15.6562C27.9197 15.6562 27.8164 15.6134 27.7402 15.5373C27.664 15.4611 27.6212 15.3577 27.6212 15.25V14.8438C27.6212 14.1718 28.168 13.625 28.8399 13.625C29.5119 13.625 30.0587 14.1718 30.0587 14.8438V15.25C30.0586 15.2937 30.0515 15.337 30.0376 15.3784L29.6313 16.5971C29.6044 16.678 29.5527 16.7483 29.4836 16.7982C29.4145 16.8481 29.3314 16.8749 29.2462 16.875ZM31.2774 36.375H22.3399C20.9465 36.375 19.6928 35.6007 19.0696 34.3543C18.4464 33.1079 18.5789 31.6406 19.4149 30.525L24.0462 24.35C24.084 24.2995 24.1331 24.2586 24.1895 24.2304C24.2459 24.2022 24.3081 24.1875 24.3712 24.1875H29.2462C29.3092 24.1875 29.3714 24.2022 29.4279 24.2304C29.4843 24.2586 29.5333 24.2995 29.5712 24.35L34.2024 30.525C34.6119 31.0673 34.8613 31.7135 34.9224 32.3903C34.9834 33.0671 34.8536 33.7475 34.5477 34.3543C34.2457 34.9629 33.7793 35.4748 33.2013 35.832C32.6233 36.1891 31.9569 36.3772 31.2774 36.375ZM24.5743 25L20.0649 31.0117C19.7424 31.4317 19.546 31.9347 19.4985 32.4621C19.451 32.9895 19.5545 33.5195 19.7968 33.9903C20.0279 34.4666 20.3898 34.8673 20.8401 35.1457C21.2904 35.4241 21.8106 35.5686 22.3399 35.5625H31.2774C31.8067 35.5683 32.3268 35.4236 32.777 35.1453C33.2273 34.8669 33.5892 34.4664 33.8206 33.9903C34.0627 33.5194 34.1661 32.9894 34.1184 32.462C34.0708 31.9346 33.8742 31.4316 33.5516 31.0117L29.0431 25H24.5743Z" fill="#514C9F"/>
<path d="M25.2706 26.625C25.2067 26.6252 25.1437 26.6103 25.0867 26.5816C25.0298 26.5528 24.9804 26.5109 24.9427 26.4594C24.905 26.4079 24.88 26.3482 24.8697 26.2852C24.8595 26.2222 24.8643 26.1577 24.8838 26.0969L25.3965 24.4719C25.4225 24.3895 25.4741 24.3175 25.5438 24.2664C25.6135 24.2152 25.6976 24.1876 25.7841 24.1875H27.8348C28.0119 24.1875 28.1687 24.3029 28.2224 24.4719L28.7351 26.0969C28.7511 26.1478 28.757 26.2013 28.7524 26.2545C28.7477 26.3077 28.7326 26.3594 28.708 26.4067C28.6834 26.4541 28.6497 26.4961 28.6088 26.5304C28.5679 26.5647 28.5207 26.5907 28.4698 26.6067C28.4189 26.6228 28.3653 26.6287 28.3122 26.624C28.259 26.6194 28.2073 26.6043 28.1599 26.5797C28.1126 26.555 28.0705 26.5213 28.0362 26.4804C28.0019 26.4396 27.976 26.3923 27.9599 26.3414L27.5366 25H26.0814L25.6581 26.3406C25.632 26.423 25.5803 26.4949 25.5107 26.546C25.441 26.5971 25.357 26.6248 25.2706 26.625Z" fill="#514C9F"/>
<path d="M26.8086 26.625C26.7008 26.625 26.5975 26.5822 26.5213 26.506C26.4451 26.4298 26.4023 26.3265 26.4023 26.2188V24.5938C26.4023 24.486 26.4451 24.3827 26.5213 24.3065C26.5975 24.2303 26.7008 24.1875 26.8086 24.1875C26.9163 24.1875 27.0197 24.2303 27.0959 24.3065C27.172 24.3827 27.2148 24.486 27.2148 24.5938V26.2188C27.2148 26.3265 27.172 26.4298 27.0959 26.506C27.0197 26.5822 26.9163 26.625 26.8086 26.625Z" fill="#514C9F"/>
<path d="M28.4668 25H23.5918C23.4841 24.9998 23.3808 24.9572 23.3042 24.8814L22.4917 24.0689C22.4177 23.9923 22.3768 23.8896 22.3777 23.7831C22.3786 23.6766 22.4214 23.5747 22.4967 23.4994C22.572 23.4241 22.6739 23.3813 22.7804 23.3804C22.8869 23.3795 22.9895 23.4204 23.0662 23.4944L23.76 24.1875H28.4668C28.5746 24.1875 28.6779 24.2303 28.7541 24.3065C28.8303 24.3827 28.8731 24.486 28.8731 24.5938C28.8731 24.7015 28.8303 24.8048 28.7541 24.881C28.6779 24.9572 28.5746 25 28.4668 25Z" fill="#514C9F"/>
<path d="M29.2128 25H27.3059C27.1982 25 27.0948 24.9572 27.0186 24.881C26.9425 24.8048 26.8997 24.7015 26.8997 24.5938C26.8997 24.486 26.9425 24.3827 27.0186 24.3065C27.0948 24.2303 27.1982 24.1875 27.3059 24.1875H29.2128C29.3206 24.1875 29.4239 24.1447 29.5001 24.0685C29.5763 23.9923 29.6191 23.889 29.6191 23.7812C29.6191 23.6735 29.5763 23.5702 29.5001 23.494C29.4239 23.4178 29.3206 23.375 29.2128 23.375H27.3059C27.1982 23.375 27.0948 23.3322 27.0186 23.256C26.9425 23.1798 26.8997 23.0765 26.8997 22.9688C26.8997 22.861 26.9425 22.7577 27.0186 22.6815C27.0948 22.6053 27.1982 22.5625 27.3059 22.5625H29.2128C29.8848 22.5625 30.4316 23.1093 30.4316 23.7812C30.4316 24.4532 29.8848 25 29.2128 25Z" fill="#514C9F"/>
</svg>
