<svg width="80" height="80" viewBox="0 0 80 80" fill="none" xmlns="http://www.w3.org/2000/svg">
<path d="M64.7641 46.25C64.4533 46.25 64.1552 46.1265 63.9354 45.9067C63.7157 45.687 63.5922 45.3889 63.5922 45.0781V41.4281C63.593 40.4075 63.9987 39.429 64.7202 38.7072C65.4417 37.9854 66.4201 37.5793 67.4406 37.5781C67.8398 37.5781 68.2227 37.4196 68.5052 37.1375C68.7876 36.8554 68.9465 36.4726 68.9469 36.0734V33.2C68.9469 32.8892 69.0703 32.5911 69.2901 32.3713C69.5099 32.1516 69.808 32.0281 70.1188 32.0281C70.4296 32.0281 70.7276 32.1516 70.9474 32.3713C71.1672 32.5911 71.2906 32.8892 71.2906 33.2V36.0734C71.2894 37.094 70.8833 38.0724 70.1615 38.7939C69.4397 39.5154 68.4612 39.921 67.4406 39.9219C67.0414 39.9223 66.6587 40.0811 66.3766 40.3636C66.0944 40.646 65.9359 41.0289 65.9359 41.4281V45.0765C65.9361 45.2306 65.906 45.3831 65.8472 45.5255C65.7884 45.6678 65.7021 45.7972 65.5933 45.9062C65.4844 46.0152 65.3552 46.1016 65.2129 46.1606C65.0706 46.2196 64.9181 46.25 64.7641 46.25ZM52.7344 5.80311V74.0844C52.7344 75.3259 52.2418 76.5168 51.3648 77.3956C50.4877 78.2744 49.2978 78.7694 48.0563 78.7719L5.86875 78.8843C5.25239 78.8856 4.64184 78.7652 4.07204 78.5302C3.50225 78.2952 2.98439 77.9501 2.54812 77.5147C2.11186 77.0793 1.76574 76.5622 1.52958 75.9928C1.29343 75.4235 1.17187 74.8132 1.17188 74.1968V5.91561C1.17187 4.67403 1.66445 3.48316 2.5415 2.60436C3.41855 1.72555 4.60842 1.23059 5.85 1.22811L48.0375 1.11561C48.6539 1.11438 49.2644 1.23471 49.8342 1.46973C50.404 1.70475 50.9219 2.04983 51.3581 2.48523C51.7944 2.92063 52.1405 3.43779 52.3767 4.00711C52.6128 4.57644 52.7344 5.18675 52.7344 5.80311Z" fill="#514C9F"/>
<path d="M43.3594 8.2688H10.5469C9.25246 8.2688 8.20312 9.31813 8.20312 10.6125V20.6422C8.20312 21.9367 9.25246 22.986 10.5469 22.986H43.3594C44.6538 22.986 45.7031 21.9367 45.7031 20.6422V10.6125C45.7031 9.31813 44.6538 8.2688 43.3594 8.2688Z" fill="#F1F4FA"/>
<path d="M16.0156 37.0485H9.76562C8.90268 37.0485 8.20312 37.748 8.20312 38.611V42.5172C8.20312 43.3802 8.90268 44.0797 9.76562 44.0797H16.0156C16.8786 44.0797 17.5781 43.3802 17.5781 42.5172V38.611C17.5781 37.748 16.8786 37.0485 16.0156 37.0485Z" fill="#F1F4FA"/>
<path d="M16.0156 51.111H9.76562C8.90268 51.111 8.20312 51.8105 8.20312 52.6735V56.5797C8.20312 57.4427 8.90268 58.1422 9.76562 58.1422H16.0156C16.8786 58.1422 17.5781 57.4427 17.5781 56.5797V52.6735C17.5781 51.8105 16.8786 51.111 16.0156 51.111Z" fill="#F1F4FA"/>
<path d="M16.0156 64.8313H9.76562C8.90268 64.8313 8.20312 65.5309 8.20312 66.3938V70.3C8.20312 71.163 8.90268 71.8625 9.76562 71.8625H16.0156C16.8786 71.8625 17.5781 71.163 17.5781 70.3V66.3938C17.5781 65.5309 16.8786 64.8313 16.0156 64.8313Z" fill="#F1F4FA"/>
<path d="M30.0781 37.0485H23.8281C22.9652 37.0485 22.2656 37.748 22.2656 38.611V42.5172C22.2656 43.3802 22.9652 44.0797 23.8281 44.0797H30.0781C30.9411 44.0797 31.6406 43.3802 31.6406 42.5172V38.611C31.6406 37.748 30.9411 37.0485 30.0781 37.0485Z" fill="#F1F4FA"/>
<path d="M44.1406 37.0485H37.8906C37.0277 37.0485 36.3281 37.748 36.3281 38.611V42.5172C36.3281 43.3802 37.0277 44.0797 37.8906 44.0797H44.1406C45.0036 44.0797 45.7031 43.3802 45.7031 42.5172V38.611C45.7031 37.748 45.0036 37.0485 44.1406 37.0485Z" fill="#F1F4FA"/>
<path d="M30.0781 51.111H23.8281C22.9652 51.111 22.2656 51.8105 22.2656 52.6735V56.5797C22.2656 57.4427 22.9652 58.1422 23.8281 58.1422H30.0781C30.9411 58.1422 31.6406 57.4427 31.6406 56.5797V52.6735C31.6406 51.8105 30.9411 51.111 30.0781 51.111Z" fill="#F1F4FA"/>
<path d="M30.0781 64.8313H23.8281C22.9652 64.8313 22.2656 65.5309 22.2656 66.3938V70.3C22.2656 71.163 22.9652 71.8625 23.8281 71.8625H30.0781C30.9411 71.8625 31.6406 71.163 31.6406 70.3V66.3938C31.6406 65.5309 30.9411 64.8313 30.0781 64.8313Z" fill="#F1F4FA"/>
<path d="M44.1406 51.111H37.8906C37.0277 51.111 36.3281 51.8105 36.3281 52.6735V70.3C36.3281 71.163 37.0277 71.8625 37.8906 71.8625H44.1406C45.0036 71.8625 45.7031 71.163 45.7031 70.3V52.6735C45.7031 51.8105 45.0036 51.111 44.1406 51.111Z" fill="#F1F4FA"/>
<path d="M17.5781 31.1891H8.20312C7.89232 31.1891 7.59425 31.0656 7.37448 30.8459C7.15471 30.6261 7.03125 30.328 7.03125 30.0172C7.03125 29.7064 7.15471 29.4083 7.37448 29.1886C7.59425 28.9688 7.89232 28.8453 8.20312 28.8453H17.5781C17.8889 28.8453 18.187 28.9688 18.4068 29.1886C18.6265 29.4083 18.75 29.7064 18.75 30.0172C18.75 30.328 18.6265 30.6261 18.4068 30.8459C18.187 31.0656 17.8889 31.1891 17.5781 31.1891Z" fill="#EA6B0C"/>
<path d="M31.6406 31.1891H22.2656C21.9548 31.1891 21.6568 31.0656 21.437 30.8459C21.2172 30.6261 21.0938 30.328 21.0938 30.0172C21.0938 29.7064 21.2172 29.4083 21.437 29.1886C21.6568 28.9688 21.9548 28.8453 22.2656 28.8453H31.6406C31.9514 28.8453 32.2495 28.9688 32.4693 29.1886C32.689 29.4083 32.8125 29.7064 32.8125 30.0172C32.8125 30.328 32.689 30.6261 32.4693 30.8459C32.2495 31.0656 31.9514 31.1891 31.6406 31.1891Z" fill="#EAC435"/>
<path d="M45.7031 31.1891H36.3281C36.0173 31.1891 35.7193 31.0656 35.4995 30.8459C35.2797 30.6261 35.1562 30.328 35.1562 30.0172C35.1562 29.7064 35.2797 29.4083 35.4995 29.1886C35.7193 28.9688 36.0173 28.8453 36.3281 28.8453H45.7031C46.0139 28.8453 46.312 28.9688 46.5318 29.1886C46.7515 29.4083 46.875 29.7064 46.875 30.0172C46.875 30.328 46.7515 30.6261 46.5318 30.8459C46.312 31.0656 46.0139 31.1891 45.7031 31.1891Z" fill="#03A89E"/>
<path d="M52.7344 51.575V74.0843C52.7353 74.7515 52.5935 75.4111 52.3183 76.0188C52.0431 76.6266 51.641 77.1684 51.1391 77.6078C48.0953 74.0566 46.4895 69.4956 46.6373 64.8208C46.785 60.1461 48.6756 55.6956 51.9375 52.3437C52.1969 52.075 52.4625 51.8187 52.7344 51.575Z" fill="#514C9F"/>
<path d="M74.7093 54.514C73.5252 53.3029 72.132 52.3157 70.5968 51.6C70.2763 51.4481 70.0058 51.2078 69.8171 50.9076C69.6283 50.6073 69.5291 50.2594 69.5312 49.9047V46.639C69.5312 46.2246 69.3666 45.8272 69.0736 45.5342C68.7805 45.2412 68.3831 45.0765 67.9687 45.0765H61.5625C61.1481 45.0765 60.7506 45.2412 60.4576 45.5342C60.1646 45.8272 60 46.2246 60 46.639V49.9047C60.002 50.2594 59.9029 50.6073 59.7141 50.9076C59.5253 51.2078 59.2548 51.4481 58.9343 51.6C57.3992 52.3157 56.006 53.3029 54.8218 54.514C52.1818 57.2269 50.7046 60.863 50.7046 64.6484C50.7046 68.4339 52.1818 72.0699 54.8218 74.7828C56.1154 76.1109 57.6618 77.1665 59.3699 77.8873C61.078 78.608 62.9132 78.9794 64.7671 78.9794C66.6211 78.9794 68.4563 78.608 70.1644 77.8873C71.8725 77.1665 73.4189 76.1109 74.7125 74.7828C77.3525 72.0699 78.8297 68.4339 78.8297 64.6484C78.8297 60.863 77.3525 57.2269 74.7125 54.514H74.7093Z" fill="#EA6B0C"/>
<path d="M74.7095 54.514C73.5253 53.3029 72.1321 52.3157 70.597 51.6C70.2765 51.4481 70.006 51.2078 69.8172 50.9076C69.6284 50.6073 69.5293 50.2594 69.5313 49.9047V46.639C69.5313 46.2246 69.3667 45.8272 69.0737 45.5342C68.7807 45.2412 68.3832 45.0765 67.9688 45.0765H63.2813C63.6957 45.0765 64.0932 45.2412 64.3862 45.5342C64.6792 45.8272 64.8438 46.2246 64.8438 46.639V49.9047C64.8418 50.2594 64.9409 50.6073 65.1297 50.9076C65.3185 51.2078 65.589 51.4481 65.9095 51.6C67.4446 52.3157 68.8378 53.3029 70.022 54.514C72.662 57.2269 74.1392 60.863 74.1392 64.6484C74.1392 68.4339 72.662 72.0699 70.022 74.7828C67.9745 76.8853 65.3131 78.2846 62.4204 78.7797C63.1947 78.9117 63.9787 78.9786 64.7642 78.9797C66.6185 78.9817 68.4543 78.6113 70.1627 77.8904C71.8711 77.1694 73.4173 76.1127 74.7095 74.7828C77.3495 72.0699 78.8267 68.4339 78.8267 64.6484C78.8267 60.863 77.3495 57.2269 74.7095 54.514Z" fill="#EA6B0C"/>
<path d="M70.3125 60.4375H68.5125C68.3591 59.7466 68.0725 59.0923 67.6687 58.511H70.3125C70.6233 58.511 70.9214 58.3875 71.1411 58.1678C71.3609 57.948 71.4844 57.6499 71.4844 57.3391C71.4844 57.0283 71.3609 56.7302 71.1411 56.5105C70.9214 56.2907 70.6233 56.1672 70.3125 56.1672H59.2188C58.9079 56.1672 58.6099 56.2907 58.3901 56.5105C58.1703 56.7302 58.0469 57.0283 58.0469 57.3391C58.0469 57.6499 58.1703 57.948 58.3901 58.1678C58.6099 58.3875 58.9079 58.511 59.2188 58.511H63.2047C63.8195 58.5119 64.4202 58.6956 64.9304 59.0386C65.4406 59.3816 65.8374 59.8686 66.0703 60.4375H59.2188C58.9079 60.4375 58.6099 60.561 58.3901 60.7808C58.1703 61.0006 58.0469 61.2986 58.0469 61.6094C58.0469 61.9202 58.1703 62.2183 58.3901 62.4381C58.6099 62.6578 58.9079 62.7813 59.2188 62.7813H66.0703C65.8374 63.3503 65.4406 63.8372 64.9304 64.1802C64.4202 64.5233 63.8195 64.7069 63.2047 64.7079H59.2188C58.9882 64.708 58.7629 64.7762 58.5709 64.9038C58.379 65.0314 58.2289 65.2128 58.1395 65.4253C58.0501 65.6378 58.0254 65.8719 58.0684 66.0983C58.1114 66.3248 58.2202 66.5336 58.3813 66.6985L66.6359 75.1438C66.8541 75.3615 67.1492 75.4845 67.4574 75.4862C67.7656 75.4879 68.0621 75.368 68.2826 75.1527C68.5031 74.9373 68.6298 74.6438 68.6354 74.3356C68.641 74.0275 68.525 73.7295 68.3125 73.5063L62.0031 67.0516H63.2047C64.4437 67.0494 65.6449 66.6253 66.6106 65.8491C67.5763 65.0728 68.2487 63.9908 68.5172 62.7813H70.3125C70.6233 62.7813 70.9214 62.6578 71.1411 62.4381C71.3609 62.2183 71.4844 61.9202 71.4844 61.6094C71.4844 61.2986 71.3609 61.0006 71.1411 60.7808C70.9214 60.561 70.6233 60.4375 70.3125 60.4375Z" fill="white"/>
<path d="M70.1187 29.2656C69.8079 29.2656 69.5098 29.1422 69.29 28.9224C69.0703 28.7026 68.9468 28.4046 68.9468 28.0938V25.7109C68.9468 25.4001 69.0703 25.1021 69.29 24.8823C69.5098 24.6625 69.8079 24.5391 70.1187 24.5391C70.4295 24.5391 70.7276 24.6625 70.9473 24.8823C71.1671 25.1021 71.2906 25.4001 71.2906 25.7109V28.0938C71.2906 28.4046 71.1671 28.7026 70.9473 28.9224C70.7276 29.1422 70.4295 29.2656 70.1187 29.2656ZM66.5124 31.3469C66.3073 31.347 66.1058 31.2931 65.9281 31.1906L63.8656 30C63.7322 29.9231 63.6153 29.8206 63.5215 29.6985C63.4277 29.5763 63.3589 29.4369 63.319 29.2882C63.2791 29.1395 63.2689 28.9844 63.289 28.8317C63.309 28.679 63.3589 28.5318 63.4359 28.3984C63.5128 28.2651 63.6153 28.1482 63.7374 28.0544C63.8595 27.9606 63.9989 27.8918 64.1477 27.8519C64.2964 27.812 64.4515 27.8018 64.6042 27.8218C64.7568 27.8419 64.9041 27.8918 65.0374 27.9687L67.0999 29.1594C67.3238 29.2883 67.4989 29.4875 67.5978 29.7262C67.6968 29.9648 67.7141 30.2295 67.6471 30.479C67.5801 30.7285 67.4325 30.9488 67.2273 31.1058C67.0221 31.2628 66.7708 31.3475 66.5124 31.3469ZM64.4515 36.6984C64.1933 36.6987 63.9422 36.6137 63.7373 36.4566C63.5324 36.2996 63.385 36.0792 63.3182 35.8298C63.2514 35.5804 63.2689 35.3159 63.3678 35.0774C63.4668 34.8389 63.6418 34.6398 63.8656 34.5109L65.9281 33.3188C66.1974 33.1634 66.5175 33.1213 66.8178 33.2019C67.1182 33.2825 67.3742 33.4791 67.5296 33.7484C67.685 34.0178 67.7271 34.3379 67.6465 34.6382C67.5659 34.9386 67.3693 35.1946 67.0999 35.35L65.0374 36.5406C64.8594 36.6439 64.6573 36.6983 64.4515 36.6984ZM75.7812 36.6984C75.5761 36.6986 75.3745 36.6447 75.1968 36.5422L73.1327 35.35C72.8634 35.1946 72.6668 34.9386 72.5862 34.6382C72.5056 34.3379 72.5477 34.0178 72.7031 33.7484C72.8585 33.4791 73.1145 33.2825 73.4149 33.2019C73.7152 33.1213 74.0353 33.1634 74.3046 33.3188L76.3687 34.5109C76.5926 34.6398 76.7676 34.8391 76.8666 35.0777C76.9655 35.3164 76.9828 35.581 76.9158 35.8305C76.8488 36.08 76.7012 36.3004 76.496 36.4574C76.2908 36.6143 76.0395 36.6991 75.7812 36.6984ZM73.7234 31.3469C73.4657 31.3462 73.2154 31.2608 73.0111 31.1037C72.8068 30.9466 72.6599 30.7267 72.593 30.4778C72.5262 30.2289 72.5431 29.965 72.6413 29.7267C72.7394 29.4884 72.9132 29.289 73.1359 29.1594L75.1999 27.9687C75.4693 27.8133 75.7894 27.7713 76.0897 27.8519C76.3901 27.9325 76.6461 28.1291 76.8015 28.3984C76.9569 28.6678 76.9989 28.9879 76.9184 29.2882C76.8378 29.5886 76.6412 29.8446 76.3718 30L74.3078 31.1906C74.13 31.2931 73.9285 31.347 73.7234 31.3469Z" fill="#EAC435"/>
</svg>
