<svg width="100" height="100" viewBox="0 0 100 100" fill="none" xmlns="http://www.w3.org/2000/svg">
<path d="M52.875 16.8125C53.1876 16.0517 53.1876 15.1983 52.875 14.4375C52.7263 14.0539 52.5033 13.7034 52.2187 13.4062L45.9688 7.15622C45.6774 6.86485 45.3315 6.63372 44.9508 6.47603C44.5701 6.31834 44.1621 6.23718 43.75 6.23718C43.3379 6.23718 42.9299 6.31834 42.5492 6.47603C42.1685 6.63372 41.8226 6.86485 41.5312 7.15622C40.9428 7.74467 40.6122 8.54278 40.6122 9.37497C40.6122 10.2072 40.9428 11.0053 41.5312 11.5937L42.5938 12.625C25.8125 13.9062 12.5 30.1562 12.5 50C12.5 68.5625 24.375 84.375 40.125 87.125H40.625C41.4538 87.1913 42.275 86.9256 42.9079 86.3865C43.5409 85.8473 43.9337 85.0788 44 84.25C44.0663 83.4212 43.8007 82.6 43.2615 81.967C42.7223 81.3341 41.9538 80.9413 41.125 80.875C28.375 78.8437 18.75 65.625 18.75 50C18.75 33.75 29.125 20.375 42.3125 18.9062L41.5312 19.6562C41.2383 19.9467 41.0059 20.2924 40.8472 20.6732C40.6886 21.054 40.6069 21.4624 40.6069 21.875C40.6069 22.2875 40.6886 22.696 40.8472 23.0768C41.0059 23.4576 41.2383 23.8032 41.5312 24.0937C41.8218 24.3866 42.1674 24.6191 42.5482 24.7778C42.929 24.9364 43.3375 25.0181 43.75 25.0181C44.1625 25.0181 44.571 24.9364 44.9518 24.7778C45.3326 24.6191 45.6782 24.3866 45.9688 24.0937L52.2187 17.8437C52.5033 17.5465 52.7263 17.1961 52.875 16.8125Z" fill="#514C9F"/>
<path d="M87.5 50C87.5 31.4375 75.625 15.625 59.875 12.875C59.4647 12.8093 59.0454 12.8251 58.6411 12.9215C58.2368 13.0179 57.8555 13.1929 57.5189 13.4367C57.1823 13.6804 56.897 13.9881 56.6793 14.3421C56.4616 14.6961 56.3157 15.0896 56.25 15.5C56.1844 15.9103 56.2002 16.3296 56.2966 16.7339C56.393 17.1382 56.568 17.5195 56.8118 17.8561C57.0555 18.1927 57.3632 18.478 57.7172 18.6957C58.0712 18.9134 58.4647 19.0593 58.875 19.125C71.625 21.1562 81.25 34.375 81.25 50C81.25 66.2499 70.875 79.6249 57.6875 81.2499L58.4688 80.4999C59.0572 79.9115 59.3878 79.1134 59.3878 78.2812C59.3878 77.449 59.0572 76.6509 58.4688 76.0624C57.8803 75.474 57.0822 75.1434 56.25 75.1434C55.4178 75.1434 54.6197 75.474 54.0313 76.0624L47.7813 82.3124C47.4968 82.6096 47.2738 82.9601 47.125 83.3437C46.8125 84.1045 46.8125 84.9579 47.125 85.7187C47.2738 86.1023 47.4968 86.4528 47.7813 86.7499L54.0313 92.9999C54.3218 93.2928 54.6674 93.5253 55.0482 93.684C55.429 93.8426 55.8375 93.9243 56.25 93.9243C56.6626 93.9243 57.071 93.8426 57.4518 93.684C57.8327 93.5253 58.1783 93.2928 58.4688 92.9999C58.7617 92.7094 58.9942 92.3638 59.1528 91.983C59.3115 91.6022 59.3932 91.1937 59.3932 90.7812C59.3932 90.3687 59.3115 89.9602 59.1528 89.5794C58.9942 89.1986 58.7617 88.853 58.4688 88.5624L57.4063 87.4999C74.1875 86.0937 87.5 69.8437 87.5 50Z" fill="#07070E"/>
<path d="M55.8417 40.5791C55.8417 40.8962 55.8195 41.2133 55.7789 41.5268C55.7974 41.4007 55.8158 41.2709 55.8306 41.1448C55.7419 41.7718 55.572 42.3808 55.3244 42.9646C55.3724 42.8493 55.4242 42.734 55.4722 42.6187C55.2246 43.188 54.9069 43.7213 54.5189 44.2114L54.7517 43.9195C54.3674 44.4024 53.9203 44.8384 53.4252 45.2132L53.7245 44.9862C53.222 45.3609 52.6751 45.6745 52.0913 45.9159C52.2095 45.869 52.3278 45.8186 52.446 45.7718C51.8474 46.0132 51.223 46.179 50.5801 46.2654C50.7094 46.2474 50.8424 46.2294 50.9717 46.215C50.3251 46.2979 49.6748 46.2979 49.0282 46.215C49.1575 46.233 49.2905 46.251 49.4198 46.2654C48.7769 46.179 48.1525 46.0132 47.5539 45.7718C47.6721 45.8186 47.7904 45.869 47.9086 45.9159C47.3248 45.6745 46.7779 45.3646 46.2754 44.9862L46.5747 45.2132C46.0796 44.8384 45.6325 44.4024 45.2482 43.9195L45.481 44.2114C45.0967 43.7213 44.7753 43.188 44.5277 42.6187C44.5757 42.734 44.6275 42.8493 44.6755 42.9646C44.4279 42.3808 44.258 41.7718 44.1693 41.1448C44.1878 41.2709 44.2062 41.4007 44.221 41.5268C44.136 40.8962 44.136 40.2619 44.221 39.6313C44.2025 39.7574 44.1841 39.8872 44.1693 40.0133C44.258 39.3863 44.4279 38.7773 44.6755 38.1935C44.6275 38.3088 44.5757 38.4241 44.5277 38.5395C44.7753 37.9701 45.093 37.4368 45.481 36.9467L45.2482 37.2386C45.6325 36.7557 46.0796 36.3197 46.5747 35.9449L46.2754 36.1719C46.7779 35.7972 47.3248 35.4837 47.9086 35.2422C47.7904 35.2891 47.6721 35.3395 47.5539 35.3864C48.1525 35.1449 48.7769 34.9792 49.4198 34.8927C49.2905 34.9107 49.1575 34.9287 49.0282 34.9431C49.6748 34.8602 50.3251 34.8602 50.9717 34.9431C50.8424 34.9251 50.7094 34.9071 50.5801 34.8927C51.223 34.9792 51.8474 35.1449 52.446 35.3864C52.3278 35.3395 52.2095 35.2891 52.0913 35.2422C52.6751 35.4837 53.222 35.7936 53.7245 36.1719L53.4252 35.9449C53.9203 36.3197 54.3674 36.7557 54.7517 37.2386L54.5189 36.9467C54.9032 37.4368 55.2246 37.9701 55.4722 38.5395C55.4242 38.4241 55.3724 38.3088 55.3244 38.1935C55.572 38.7773 55.7419 39.3863 55.8306 40.0133C55.8121 39.8872 55.7937 39.7574 55.7789 39.6313C55.8195 39.9448 55.838 40.2619 55.8417 40.5791C55.8454 41.3322 56.5179 42.0565 57.3197 42.0205C58.1178 41.9844 58.8014 41.3862 58.7977 40.5791C58.7903 38.853 58.2582 37.0872 57.2162 35.6818C56.9354 35.3035 56.6361 34.9323 56.3036 34.5972C55.9673 34.2585 55.5978 33.9666 55.2136 33.6819C54.5152 33.163 53.7356 32.781 52.9079 32.4855C49.5713 31.2927 45.5475 32.3558 43.2899 35.0368C42.9795 35.4044 42.6839 35.7864 42.4327 36.1972C42.1814 36.6044 41.9856 37.0368 41.8045 37.4764C41.4646 38.2908 41.2909 39.1557 41.2207 40.0313C41.084 41.7466 41.5422 43.5376 42.4585 45.0078C43.3416 46.4276 44.6755 47.6456 46.2348 48.3339C46.693 48.5357 47.1622 48.723 47.65 48.8564C48.134 48.9861 48.6254 49.0582 49.1242 49.1158C50.0332 49.2203 50.9606 49.1483 51.8585 48.9717C55.269 48.2942 58.1252 45.4294 58.6536 42.0673C58.7312 41.5772 58.7903 41.0872 58.7903 40.5899C58.794 39.8367 58.1067 39.1124 57.3123 39.1485C56.5142 39.1737 55.8417 39.7719 55.8417 40.5791ZM60.7449 63.112H41.786C40.9473 63.112 40.1085 63.1192 39.2698 63.112C39.1774 63.112 39.085 63.1048 38.9963 63.094C39.1257 63.112 39.2587 63.13 39.388 63.1444C39.2402 63.1228 39.0998 63.0831 38.9631 63.0291C39.0813 63.0759 39.1996 63.1264 39.3178 63.1732C39.17 63.112 39.0333 63.0327 38.904 62.9354L39.2033 63.1624C39.0924 63.0723 38.9889 62.975 38.9003 62.8669L39.133 63.1588C39.0333 63.0327 38.9557 62.8994 38.8892 62.7552C38.9372 62.8705 38.9889 62.9858 39.037 63.1012C38.9816 62.9678 38.9446 62.8273 38.9187 62.6868C38.9372 62.8129 38.9557 62.9426 38.9705 63.0687C38.9113 62.6327 38.952 62.1714 38.952 61.7318V60.1895C38.952 59.8039 38.9742 59.4219 39.0259 59.04C39.0074 59.1661 38.9889 59.2958 38.9742 59.4219C39.0776 58.6832 39.2771 57.9589 39.5764 57.2706C39.5284 57.3859 39.4767 57.5013 39.4286 57.6166C39.7169 56.9607 40.0863 56.3445 40.5334 55.7788L40.3007 56.0707C40.7477 55.5121 41.2613 55.0076 41.8378 54.5716L41.5385 54.7986C42.1186 54.3626 42.7504 54.0022 43.4229 53.7212C43.3047 53.768 43.1864 53.8184 43.0682 53.8653C43.7739 53.577 44.5129 53.3788 45.2741 53.2779C45.1448 53.2959 45.0117 53.314 44.8824 53.3284C45.4293 53.2599 45.9724 53.2563 46.523 53.2563H53.2848C53.8945 53.2563 54.5004 53.2527 55.1101 53.3284C54.9808 53.3104 54.8478 53.2923 54.7184 53.2779C55.4759 53.3788 56.2186 53.5734 56.9243 53.8653C56.8061 53.8184 56.6878 53.768 56.5696 53.7212C57.2421 54.0022 57.8739 54.3626 58.454 54.7986L58.1548 54.5716C58.7275 55.0076 59.2448 55.5085 59.6919 56.0707L59.4591 55.7788C59.9062 56.3445 60.2757 56.9607 60.5639 57.6166C60.5158 57.5013 60.4641 57.3859 60.4161 57.2706C60.7117 57.9589 60.9149 58.6796 61.0184 59.4219C60.9999 59.2958 60.9814 59.1661 60.9666 59.04C61.0368 59.5841 61.0405 60.1246 61.0405 60.6724V62.4561C61.0405 62.6615 61.0479 62.8669 61.0221 63.0687C61.0405 62.9426 61.059 62.8129 61.0738 62.6868C61.0516 62.8309 61.011 62.9678 60.9555 63.1012C61.0036 62.9858 61.0553 62.8705 61.1033 62.7552C61.0405 62.8994 60.9592 63.0327 60.8595 63.1588L61.0923 62.8669C60.9999 62.975 60.9001 63.0759 60.7893 63.1624L61.0886 62.9354C60.9592 63.0327 60.8225 63.1084 60.6747 63.1732C60.793 63.1264 60.9112 63.0759 61.0294 63.0291C60.8927 63.0831 60.7486 63.1192 60.6045 63.1444C60.7338 63.1264 60.8669 63.1084 60.9962 63.094C60.9149 63.1048 60.8299 63.1084 60.7449 63.112C60.3643 63.1156 59.9727 63.2705 59.6993 63.5336C59.4443 63.7822 59.2485 64.193 59.2669 64.5534C59.3039 65.3245 59.9173 66.0056 60.7449 65.9948C62.1823 65.9732 63.446 65.0579 63.8672 63.7138C64.0335 63.1804 63.9965 62.6075 63.9965 62.0597C63.9965 60.8057 64.0371 59.5625 63.8154 58.3193C63.4903 56.4995 62.5518 54.7878 61.2659 53.4437C59.9801 52.0996 58.2508 51.1122 56.4218 50.6726C55.3724 50.4203 54.3157 50.3807 53.2441 50.3807H46.6893C45.5919 50.3807 44.5018 50.4311 43.434 50.7086C41.6198 51.1771 39.9127 52.1752 38.6527 53.5302C37.3816 54.8959 36.4616 56.6112 36.1623 58.4418C35.9628 59.6706 36.0034 60.903 36.0034 62.1426C36.0034 62.712 35.9702 63.3066 36.1808 63.8507C36.4542 64.5498 36.8902 65.1011 37.5294 65.5155C38.0282 65.8362 38.6601 65.9912 39.2513 65.9984C39.5395 66.002 39.8277 65.9984 40.1159 65.9984H60.7486C61.5209 65.9984 62.2636 65.3353 62.2266 64.557C62.1897 63.7714 61.5763 63.112 60.7449 63.112Z" fill="#EA6B0C"/>
</svg>
