<svg width="50" height="50" viewBox="0 0 50 50" fill="none" xmlns="http://www.w3.org/2000/svg">
<path d="M50 25C50 11.1929 38.8071 0 25 0C11.1929 0 0 11.1929 0 25C0 38.8071 11.1929 50 25 50C38.8071 50 50 38.8071 50 25Z" fill="#F1F4FA"/>
<g clip-path="url(#clip0_1_2112)">
<path d="M25.0126 32.1022L24.9037 31.75H24.535H14.5C14.2348 31.75 13.9804 31.6446 13.7929 31.4571L13.4402 31.8098L13.7929 31.4571C13.6054 31.2696 13.5 31.0152 13.5 30.75V18.75C13.5 18.4848 13.6054 18.2304 13.7929 18.0429C13.9804 17.8554 14.2348 17.75 14.5 17.75H35.5C35.7652 17.75 36.0196 17.8554 36.2071 18.0429C36.3946 18.2304 36.5 18.4848 36.5 18.75V30.3742C36.4978 31.7794 35.9921 33.1372 35.0746 34.2015C34.157 35.2657 32.8884 35.9658 31.4989 36.1749C30.1094 36.3839 28.6909 36.0879 27.5009 35.3407C26.3109 34.5935 25.4281 33.4445 25.0126 32.1022ZM31.375 22.375H30.875V22.875V24.045V24.4907L31.3178 24.5417C31.7593 24.5926 32.1935 24.6945 32.6115 24.8453L32.6938 24.875H32.7812H34.75H35.25V24.375V22.875V22.375H34.75H31.375ZM18.625 27.125H19.125V26.625V25.125V24.875V24.625V24.375V22.875V22.375H18.625H15.25H14.75V22.875V24.375V24.625V24.875V25.125V26.625V27.125H15.25H18.625ZM24.374 29.3292L24.8179 29.3895L24.9264 28.9548C25.1844 27.9206 25.7188 26.9761 26.4725 26.2225C27.2261 25.4688 28.1706 24.9344 29.2048 24.6764L29.6395 24.5679L29.5792 24.124C29.4633 23.2702 29.1111 22.4657 28.5625 21.8013C28.0138 21.1369 27.2905 20.639 26.474 20.3637C25.6576 20.0884 24.7804 20.0466 23.9415 20.2431C23.1025 20.4397 22.3352 20.8666 21.7259 21.4759C21.1166 22.0852 20.6897 22.8525 20.4931 23.6915C20.2966 24.5304 20.3384 25.4076 20.6137 26.224C20.889 27.0405 21.3869 27.7638 22.0513 28.3125C22.7157 28.8611 23.5202 29.2133 24.374 29.3292ZM27.6388 34.8441C28.5227 35.4348 29.5619 35.75 30.625 35.75C31.3309 35.75 32.0298 35.611 32.6819 35.3409C33.334 35.0707 33.9266 34.6748 34.4257 34.1757C34.9248 33.6766 35.3207 33.084 35.5909 32.4319C35.861 31.7798 36 31.0809 36 30.375C36 29.3119 35.6848 28.2727 35.0941 27.3888C34.5035 26.5049 33.6641 25.816 32.6819 25.4091C31.6998 25.0023 30.619 24.8959 29.5764 25.1033C28.5337 25.3107 27.576 25.8226 26.8243 26.5743C26.0726 27.326 25.5607 28.2837 25.3533 29.3264C25.1459 30.369 25.2523 31.4498 25.6591 32.4319C26.066 33.4141 26.7549 34.2535 27.6388 34.8441Z" stroke="#514C9F"/>
<path d="M31.375 26.25H29.875V30.375C29.8747 30.5267 29.9204 30.675 30.0061 30.8002C30.0918 30.9254 30.2135 31.0216 30.355 31.0762L33.2613 32.2012L33.8013 30.7988L31.375 29.8613V26.25Z" fill="#514C9F"/>
</g>
<defs>
<clipPath id="clip0_1_2112">
<rect width="24" height="24" fill="white" transform="translate(13 15)"/>
</clipPath>
</defs>
</svg>
