<svg width="50" height="48" viewBox="0 0 50 48" fill="none" xmlns="http://www.w3.org/2000/svg">
<path d="M3.125 46.6562H23.4375C25.1609 46.6562 26.5625 45.2547 26.5625 43.5312V38.0625C26.5625 37.8553 26.4802 37.6566 26.3337 37.5101C26.1872 37.3636 25.9885 37.2812 25.7812 37.2812H1.5625V20.0938H22.6562C23.6891 20.0938 23.6906 18.5312 22.6562 18.5312H1.5625V16.1875C1.5625 15.3258 2.26328 14.625 3.125 14.625C3.53544 14.6259 3.94198 14.5453 4.32108 14.388C4.70019 14.2307 5.04433 13.9998 5.33359 13.7086C5.72549 13.3139 6.00373 12.8208 6.13906 12.2812H14.0625C15.0953 12.2812 15.0969 10.7188 14.0625 10.7188H6.25V9.15625H20.3125V10.7188H19.5312C18.4984 10.7188 18.4969 12.2812 19.5312 12.2812H20.4234C20.7727 13.625 21.9859 14.625 23.4375 14.625C24.2992 14.625 25 15.3266 25 16.1875V34.9375C25 35.9711 26.5625 35.9719 26.5625 34.9375V16.1875C26.5635 15.777 26.4831 15.3704 26.3258 14.9913C26.1684 14.6122 25.9374 14.2681 25.6461 13.9789C25.3568 13.6877 25.0127 13.4568 24.6336 13.2995C24.2545 13.1422 23.8479 13.0616 23.4375 13.0625C22.5758 13.0625 21.875 12.3617 21.875 11.5V9.15625C22.7367 9.15625 23.4375 8.45547 23.4375 7.59375V2.90625C23.4375 2.04453 22.7367 1.34375 21.875 1.34375H4.6875C3.82578 1.34375 3.125 2.04453 3.125 2.90625V7.59375C3.125 8.45547 3.82578 9.15625 4.6875 9.15625V11.5C4.6875 11.9164 4.525 12.3086 4.22891 12.6039C3.93281 12.8992 3.54141 13.0625 3.125 13.0625C1.40156 13.0625 0 14.4641 0 16.1875V43.5312C0 45.2547 1.40156 46.6562 3.125 46.6562ZM4.6875 2.90625H6.25V5.25C6.25 6.28281 7.8125 6.28438 7.8125 5.25V2.90625H9.375V5.25C9.375 6.28281 10.9375 6.28438 10.9375 5.25V2.90625H12.5V5.25C12.5 6.28281 14.0625 6.28438 14.0625 5.25V2.90625H15.625V5.25C15.625 6.28281 17.1875 6.28438 17.1875 5.25V2.90625H18.75V5.25C18.75 6.28281 20.3125 6.28438 20.3125 5.25V2.90625H21.875L21.8758 7.59375H4.6875V2.90625ZM25 38.8438V43.5312C25 44.393 24.2992 45.0938 23.4375 45.0938H3.125C2.26328 45.0938 1.5625 44.393 1.5625 43.5312V38.8438H25ZM46.0938 30.3289C45.05 30.3289 44.0695 30.7352 43.332 31.4727L35.5984 39.2062C33.1531 41.6523 34.8891 45.875 38.3602 45.875C39.4039 45.875 40.3844 45.4688 41.1219 44.7313L48.8555 36.9969C49.2193 36.6351 49.5078 36.2047 49.7043 35.7306C49.9008 35.2566 50.0013 34.7483 50 34.2352C50 32.0773 48.2539 30.3289 46.0938 30.3289ZM40.0172 43.6266C39.132 44.5117 37.5883 44.5117 36.7031 43.6266C36.2641 43.1867 36.0175 42.5906 36.0175 41.9691C36.0175 41.3477 36.2641 40.7516 36.7031 40.3117L40.0172 36.9977L43.332 40.3125L40.0172 43.6266ZM47.7508 35.8922L44.4359 39.207L41.1211 35.8922L44.4359 32.5773C46.6281 30.3859 49.9242 33.7172 47.7508 35.8922ZM32.8125 38.0625C35.3727 38.0625 37.5 35.9805 37.5 33.375C37.5 30.7898 35.3977 28.6875 32.8125 28.6875C30.2523 28.6875 28.125 30.7695 28.125 33.375C28.125 35.9602 30.2273 38.0625 32.8125 38.0625ZM30.1305 31.7977L34.3898 36.057C31.6336 37.6852 28.4883 34.5789 30.1305 31.7977ZM35.4945 34.9523L31.2352 30.693C33.9914 29.0648 37.1367 32.1711 35.4945 34.9523Z" fill="#514C9F" stroke="#514C9F"/>
</svg>
