<svg width="296" height="471" viewBox="0 0 296 471" fill="none" xmlns="http://www.w3.org/2000/svg">
<path d="M93.064 469.667C148.859 469.667 199.3 439.851 235.76 391.786C272.218 343.723 294.739 277.368 294.739 204.116C294.739 130.864 272.218 64.5091 235.76 16.4454C199.3 -31.6189 148.859 -61.4355 93.064 -61.4355C37.2686 -61.4355 -13.1724 -31.6189 -49.6316 16.4454C-86.0902 64.5091 -108.611 130.864 -108.611 204.116C-108.611 277.368 -86.0902 343.723 -49.6316 391.786C-13.1724 439.851 37.2686 469.667 93.064 469.667Z" stroke="#EA6B0C" stroke-opacity="0.15" stroke-width="2"/>
<path d="M61.8435 469.667C117.639 469.667 168.08 439.851 204.539 391.786C240.998 343.723 263.519 277.368 263.519 204.116C263.519 130.864 240.998 64.5091 204.539 16.4454C168.08 -31.6189 117.639 -61.4355 61.8435 -61.4355C6.04811 -61.4355 -44.3929 -31.6189 -80.8521 16.4454C-117.311 64.5091 -139.832 130.864 -139.832 204.116C-139.832 277.368 -117.311 343.723 -80.8521 391.786C-44.3929 439.851 6.04811 469.667 61.8435 469.667Z" stroke="#EA6B0C" stroke-opacity="0.15" stroke-width="2"/>
<path d="M28.3931 469.667C84.1885 469.667 134.63 439.851 171.089 391.786C207.547 343.723 230.068 277.368 230.068 204.116C230.068 130.864 207.547 64.5091 171.089 16.4454C134.63 -31.6189 84.1885 -61.4355 28.3931 -61.4355C-27.4023 -61.4355 -77.8433 -31.6189 -114.303 16.4454C-150.761 64.5091 -173.282 130.864 -173.282 204.116C-173.282 277.368 -150.761 343.723 -114.303 391.786C-77.8433 439.851 -27.4023 469.667 28.3931 469.667Z" stroke="#EA6B0C" stroke-opacity="0.15" stroke-width="2"/>
<path d="M-20.6665 451.103C35.1289 451.103 85.57 421.286 122.029 373.222C158.488 325.158 181.009 258.803 181.009 185.552C181.009 112.3 158.488 45.9446 122.029 -2.119C85.57 -50.1833 35.1289 -80 -20.6665 -80C-76.4619 -80 -126.903 -50.1833 -163.362 -2.119C-199.821 45.9446 -222.342 112.3 -222.342 185.552C-222.342 258.803 -199.821 325.158 -163.362 373.222C-126.903 421.286 -76.4619 451.103 -20.6665 451.103Z" stroke="#EA6B0C" stroke-opacity="0.15" stroke-width="2"/>
<path d="M-45.3247 451.103C10.4707 451.103 60.9118 421.286 97.3709 373.222C133.83 325.158 156.351 258.803 156.351 185.552C156.351 112.3 133.83 45.9446 97.3709 -2.119C60.9118 -50.1833 10.4707 -80 -45.3247 -80C-101.12 -80 -151.561 -50.1833 -188.02 -2.119C-224.479 45.9446 -247 112.3 -247 185.552C-247 258.803 -224.479 325.158 -188.02 373.222C-151.561 421.286 -101.12 451.103 -45.3247 451.103Z" stroke="#EA6B0C" stroke-opacity="0.15" stroke-width="2"/>
</svg>
