<svg width="293" height="373" viewBox="0 0 293 373" fill="none" xmlns="http://www.w3.org/2000/svg">
<path d="M90.0636 371.667C145.859 371.667 196.3 341.851 232.759 293.786C269.218 245.723 291.739 179.368 291.739 106.116C291.739 32.864 269.218 -33.4909 232.759 -81.5546C196.3 -129.619 145.859 -159.436 90.0636 -159.436C34.2682 -159.436 -16.1728 -129.619 -52.632 -81.5546C-89.0906 -33.4909 -111.612 32.864 -111.612 106.116C-111.612 179.368 -89.0906 245.723 -52.632 293.786C-16.1728 341.851 34.2682 371.667 90.0636 371.667Z" stroke="#EA6B0C" stroke-opacity="0.3" stroke-width="2"/>
<path d="M58.8435 371.667C114.639 371.667 165.08 341.851 201.539 293.786C237.998 245.723 260.519 179.368 260.519 106.116C260.519 32.864 237.998 -33.4909 201.539 -81.5546C165.08 -129.619 114.639 -159.436 58.8435 -159.436C3.04805 -159.436 -47.393 -129.619 -83.8521 -81.5546C-120.311 -33.4909 -142.832 32.864 -142.832 106.116C-142.832 179.368 -120.311 245.723 -83.8521 293.786C-47.393 341.851 3.04805 371.667 58.8435 371.667Z" stroke="#EA6B0C" stroke-opacity="0.3" stroke-width="2"/>
<path d="M25.3931 371.667C81.1885 371.667 131.63 341.851 168.089 293.786C204.547 245.723 227.068 179.368 227.068 106.116C227.068 32.864 204.547 -33.4909 168.089 -81.5546C131.63 -129.619 81.1885 -159.436 25.3931 -159.436C-30.4023 -159.436 -80.8433 -129.619 -117.303 -81.5546C-153.761 -33.4909 -176.282 32.864 -176.282 106.116C-176.282 179.368 -153.761 245.723 -117.303 293.786C-80.8433 341.851 -30.4023 371.667 25.3931 371.667Z" stroke="#EA6B0C" stroke-opacity="0.3" stroke-width="2"/>
<path d="M-23.667 353.103C32.1284 353.103 82.5695 323.286 119.029 275.222C155.487 227.158 178.008 160.803 178.008 87.5515C178.008 14.2995 155.487 -52.0554 119.029 -100.119C82.5695 -148.183 32.1284 -178 -23.667 -178C-79.4624 -178 -129.903 -148.183 -166.363 -100.119C-202.821 -52.0554 -225.342 14.2995 -225.342 87.5515C-225.342 160.803 -202.821 227.158 -166.363 275.222C-129.903 323.286 -79.4624 353.103 -23.667 353.103Z" stroke="#EA6B0C" stroke-opacity="0.3" stroke-width="2"/>
<path d="M-48.3247 353.103C7.47073 353.103 57.9118 323.286 94.3709 275.222C130.83 227.158 153.351 160.803 153.351 87.5515C153.351 14.2995 130.83 -52.0554 94.3709 -100.119C57.9118 -148.183 7.47073 -178 -48.3247 -178C-104.12 -178 -154.561 -148.183 -191.02 -100.119C-227.479 -52.0554 -250 14.2995 -250 87.5515C-250 160.803 -227.479 227.158 -191.02 275.222C-154.561 323.286 -104.12 353.103 -48.3247 353.103Z" stroke="#EA6B0C" stroke-opacity="0.3" stroke-width="2"/>
</svg>
