<svg width="153" height="225" viewBox="0 0 153 225" fill="none" xmlns="http://www.w3.org/2000/svg">
<path d="M95.0644 21.5C95.0644 9.62588 85.4241 0 73.5322 0C61.6403 0 52 9.62588 52 21.5C52 33.3741 61.6403 43 73.5322 43C85.4241 43 95.0644 33.3741 95.0644 21.5Z" fill="#514C9F"/>
<path d="M67.0507 29.3158V27.0838C68.0747 26.2358 69.0667 25.3958 70.0267 24.5638C71.0027 23.7318 71.8667 22.9078 72.6187 22.0918C73.3867 21.2758 73.9947 20.4838 74.4427 19.7158C74.9067 18.9318 75.1387 18.1718 75.1387 17.4358C75.1387 16.7478 74.9467 16.1398 74.5627 15.6118C74.1947 15.0838 73.5787 14.8198 72.7147 14.8198C71.8347 14.8198 71.1707 15.1078 70.7227 15.6838C70.2747 16.2598 70.0507 16.9558 70.0507 17.7718H67.0747C67.1067 16.5398 67.3787 15.5158 67.8907 14.6998C68.4027 13.8678 69.0827 13.2518 69.9307 12.8518C70.7787 12.4358 71.7307 12.2278 72.7867 12.2278C74.4987 12.2278 75.8267 12.6998 76.7707 13.6438C77.7307 14.5718 78.2107 15.7798 78.2107 17.2678C78.2107 18.1958 77.9947 19.0998 77.5627 19.9798C77.1467 20.8598 76.5947 21.7078 75.9067 22.5238C75.2187 23.3398 74.4747 24.1078 73.6747 24.8278C72.8747 25.5318 72.0987 26.1878 71.3467 26.7958H78.6187V29.3158H67.0507Z" fill="white"/>
<path d="M59.4759 218.06C58.9532 218.065 58.4381 217.935 57.9802 217.683L46.2367 210.904C45.9252 210.747 45.6633 210.507 45.4803 210.21C45.2973 209.913 45.2004 209.571 45.2004 209.222C45.2004 208.874 45.2973 208.532 45.4803 208.235C45.6633 207.938 45.9252 207.698 46.2367 207.541L59.4546 199.911C59.9137 199.662 60.4279 199.531 60.9503 199.531C61.4727 199.531 61.9869 199.662 62.446 199.911L74.1865 206.687C74.4971 206.845 74.758 207.085 74.9403 207.382C75.1225 207.678 75.219 208.02 75.219 208.368C75.219 208.716 75.1225 209.058 74.9403 209.355C74.758 209.651 74.4971 209.892 74.1865 210.049L60.9685 217.683C60.5116 217.934 59.9976 218.064 59.4759 218.06Z" fill="#E0E0E0"/>
<path opacity="0.1" d="M78.1141 85.0323C78.1141 84.9867 78.1142 84.9411 78.0929 84.8986C78.0716 84.856 78.0929 84.8378 78.0716 84.8074C78.0726 84.8003 78.0726 84.7931 78.0716 84.7861C78.0663 84.7652 78.0592 84.7449 78.0503 84.7253C78.052 84.7142 78.052 84.7029 78.0503 84.6918C78.042 84.6687 78.0319 84.6464 78.0199 84.625C77.9975 84.5768 77.9689 84.5319 77.9348 84.4912C77.9223 84.4736 77.908 84.4573 77.8922 84.4426C77.8783 84.4251 77.8619 84.4097 77.8436 84.397C77.818 84.3753 77.7905 84.356 77.7615 84.3392L77.7129 84.3118C77.5668 84.2568 77.4094 84.2385 77.2546 84.2587C77.0998 84.2788 76.9523 84.3368 76.8252 84.4274L31.362 110.641C30.9696 110.885 30.6471 111.227 30.4257 111.632C30.3921 111.687 30.3626 111.744 30.3375 111.803C30.3132 111.848 30.2919 111.894 30.2706 111.939C30.2432 111.997 30.2188 112.056 30.1977 112.116C30.1734 112.176 30.1551 112.237 30.1369 112.298C30.1186 112.359 30.1126 112.386 30.1034 112.432C30.1007 112.442 30.1007 112.452 30.1034 112.462C30.1034 112.502 30.0852 112.541 30.0791 112.581C30.0776 112.607 30.0776 112.634 30.0791 112.66C30.0791 112.696 30.0791 112.73 30.0791 112.766C30.0762 112.823 30.0762 112.88 30.0791 112.936V192.888C30.0791 192.937 30.0791 192.98 30.0791 193.025C30.0791 193.071 30.0791 193.104 30.0791 193.144C30.085 193.186 30.0941 193.228 30.1065 193.268L30.1247 193.329C30.133 193.356 30.1432 193.383 30.1551 193.408C30.1918 193.496 30.2456 193.576 30.3132 193.642L30.3618 193.691L30.3953 193.712L30.4439 193.74C30.4978 193.769 30.5549 193.791 30.6142 193.807H30.6841H30.7722C30.9875 193.801 31.1973 193.738 31.3802 193.624L76.8039 167.441C77.1898 167.189 77.5109 166.85 77.7412 166.452C77.9715 166.053 78.1045 165.605 78.1293 165.145V85.1934C78.1202 85.1326 78.1172 85.081 78.1141 85.0323Z" fill="#36336A"/>
<path d="M80.9656 86.6557C80.9656 86.6101 80.9656 86.5645 80.9443 86.5219C80.9231 86.4794 80.9443 86.4611 80.9231 86.4307C80.9241 86.4237 80.9241 86.4165 80.9231 86.4094C80.9178 86.3886 80.9107 86.3682 80.9018 86.3486C80.9035 86.3376 80.9035 86.3263 80.9018 86.3152C80.8935 86.2921 80.8833 86.2698 80.8714 86.2483C80.849 86.2002 80.8204 86.1552 80.7863 86.1146C80.7737 86.097 80.7595 86.0807 80.7437 86.0659C80.7298 86.0484 80.7134 86.0331 80.6951 86.0203C80.6695 85.9987 80.642 85.9793 80.613 85.9626L80.5643 85.9352C80.2816 85.768 79.5703 85.3576 79.3635 85.239C79.2148 85.1699 79.0502 85.1422 78.887 85.1588C78.7238 85.1754 78.5681 85.2357 78.4363 85.3333L32.9731 111.547C32.5806 111.792 32.2572 112.133 32.0338 112.538C31.9729 112.641 31.919 112.748 31.8727 112.857C31.8271 112.967 31.7845 113.076 31.7511 113.186L31.7055 113.353C31.6686 113.514 31.6493 113.678 31.6477 113.842V193.794C31.6477 193.834 31.6477 193.873 31.6477 193.91C31.6477 193.946 31.6477 193.983 31.6477 194.016L31.6659 194.117C31.6708 194.149 31.679 194.18 31.6903 194.211C31.7151 194.287 31.7488 194.359 31.7906 194.427C31.8304 194.49 31.8808 194.545 31.9395 194.591C31.9639 194.612 31.9904 194.63 32.0186 194.646L32.2466 194.776L32.6479 195.01L33.0613 195.248L33.1768 195.314L33.2103 195.336L33.2589 195.363C33.3128 195.392 33.3699 195.415 33.4291 195.43H33.4991H33.5872C33.8025 195.424 34.0123 195.361 34.1952 195.248L79.6463 169.064C80.0322 168.813 80.3533 168.474 80.5836 168.075C80.8139 167.676 80.9469 167.229 80.9717 166.769V86.8168C80.9717 86.756 80.9687 86.7043 80.9656 86.6557ZM40.1627 113.535C40.1611 113.504 40.1611 113.473 40.1627 113.441C40.1627 113.402 40.1627 113.362 40.1627 113.32C40.1873 112.853 40.3219 112.399 40.5554 111.994C40.7889 111.589 41.1148 111.246 41.5064 110.991L41.6007 110.942C41.6731 110.907 41.7484 110.877 41.8256 110.854H41.8682C41.9022 110.981 41.9195 111.112 41.9199 111.243C41.8941 111.709 41.759 112.162 41.5256 112.566C41.2922 112.97 40.9669 113.314 40.5762 113.569C40.4617 113.635 40.3391 113.686 40.2114 113.721C40.1894 113.661 40.1731 113.599 40.1627 113.535ZM70.4411 95.8304C70.4659 95.3642 70.6001 94.9104 70.8331 94.5058C71.066 94.1012 71.391 93.7572 71.7818 93.5018C71.82 93.4791 71.8596 93.4588 71.9003 93.441L71.9672 93.4106L72.0584 93.3771L72.1466 93.3558C72.1796 93.4808 72.196 93.6096 72.1952 93.7389C72.1706 94.2055 72.0361 94.6596 71.8026 95.0643C71.5691 95.469 71.2432 95.8128 70.8515 96.0675C70.739 96.1348 70.6171 96.185 70.4898 96.2165C70.4568 96.0905 70.4404 95.9607 70.4411 95.8304Z" fill="#36336A"/>
<path d="M32.8881 114.563V194.515C32.8756 194.663 32.8964 194.813 32.949 194.952C33.0015 195.091 33.0846 195.217 33.1921 195.321L32.0278 194.649C31.8916 194.555 31.7834 194.426 31.7149 194.275C31.6463 194.125 31.62 193.959 31.6386 193.794V113.842C31.655 113.382 31.7889 112.933 32.0278 112.538L33.2711 113.256C33.0332 113.651 32.9012 114.101 32.8881 114.563Z" fill="#263238"/>
<path d="M80.9657 86.6557C80.9657 86.6101 80.9657 86.5645 80.9444 86.5219C80.9232 86.4793 80.9444 86.4611 80.9232 86.4307C80.9241 86.4236 80.9241 86.4165 80.9232 86.4094C80.9179 86.3886 80.9108 86.3682 80.9019 86.3486C80.9036 86.3375 80.9036 86.3263 80.9019 86.3152C80.8936 86.2921 80.8834 86.2697 80.8715 86.2483C80.8491 86.2002 80.8204 86.1552 80.7864 86.1145C80.7738 86.097 80.7596 86.0807 80.7438 86.0659C80.7299 86.0484 80.7135 86.033 80.6952 86.0203C80.6696 85.9986 80.6421 85.9793 80.6131 85.9625L80.5644 85.9352C80.4184 85.8801 80.261 85.8619 80.1062 85.882C79.9514 85.9022 79.8039 85.9601 79.6768 86.0507L34.2136 112.265C33.8212 112.509 33.4986 112.85 33.2772 113.256C33.2437 113.31 33.2142 113.367 33.1891 113.426C33.1648 113.472 33.1435 113.517 33.1222 113.563C33.0948 113.62 33.0704 113.679 33.0492 113.739C33.0249 113.8 33.0067 113.861 32.9884 113.921C32.9702 113.982 32.9641 114.01 32.955 114.055C32.9523 114.065 32.9523 114.076 32.955 114.086C32.955 114.125 32.9368 114.165 32.9307 114.204C32.9292 114.23 32.9292 114.257 32.9307 114.283C32.9307 114.32 32.9307 114.353 32.9307 114.39C32.9277 114.446 32.9277 114.503 32.9307 114.56V194.512C32.9307 194.56 32.9307 194.603 32.9307 194.649C32.9307 194.694 32.9307 194.728 32.9307 194.767C32.9366 194.809 32.9457 194.851 32.958 194.892L32.9763 194.953C32.9846 194.98 32.9947 195.006 33.0067 195.032C33.0434 195.119 33.0971 195.199 33.1648 195.266L33.2134 195.314L33.2468 195.336L33.2955 195.363C33.3493 195.392 33.4065 195.415 33.4657 195.43H33.5356H33.6238C33.839 195.424 34.0489 195.361 34.2318 195.248L79.6464 169.064C80.0322 168.813 80.3534 168.474 80.5837 168.075C80.814 167.676 80.947 167.229 80.9718 166.769V86.8168C80.9718 86.756 80.9688 86.7043 80.9657 86.6557ZM40.1628 113.535C40.1612 113.504 40.1612 113.472 40.1628 113.441C40.1628 113.402 40.1628 113.362 40.1628 113.32C40.1874 112.853 40.322 112.399 40.5555 111.994C40.789 111.589 41.1149 111.246 41.5065 110.991L41.6008 110.942C41.6732 110.907 41.7485 110.877 41.8257 110.854H41.8683C41.9022 110.981 41.9196 111.112 41.92 111.243C41.8942 111.709 41.7591 112.162 41.5257 112.566C41.2923 112.97 40.967 113.314 40.5763 113.569C40.4618 113.635 40.3392 113.686 40.2115 113.721C40.1895 113.661 40.1732 113.599 40.1628 113.535ZM70.4412 95.8304C70.466 95.3642 70.6002 94.9104 70.8332 94.5058C71.0661 94.1012 71.3911 93.7572 71.7819 93.5017C71.8201 93.4791 71.8597 93.4588 71.9004 93.4409L71.9673 93.4105L72.0585 93.3771L72.1467 93.3558C72.1797 93.4808 72.1961 93.6096 72.1953 93.7389C72.1707 94.2054 72.0362 94.6596 71.8027 95.0643C71.5692 95.469 71.2433 95.8127 70.8516 96.0675C70.7391 96.1348 70.6172 96.185 70.4899 96.2165C70.4568 96.0905 70.4405 95.9607 70.4412 95.8304Z" fill="#36336A"/>
<path d="M33.6633 179.935L80.1966 153.071V97.2683L33.6633 124.133V179.935Z" fill="white"/>
<path d="M41.5854 110.942C41.6573 110.905 41.7327 110.876 41.8104 110.854C41.7332 110.877 41.6579 110.907 41.5854 110.942Z" fill="#263238"/>
<path d="M42.835 111.769C42.8092 112.235 42.6742 112.688 42.4407 113.092C42.2073 113.496 41.8821 113.84 41.4913 114.095C40.8833 114.45 40.3544 114.271 40.1963 113.709C40.324 113.674 40.4466 113.623 40.5611 113.557C40.9518 113.302 41.2771 112.958 41.5105 112.554C41.7439 112.15 41.879 111.697 41.9048 111.231C41.9044 111.1 41.8871 110.969 41.8531 110.842H41.8105C42.3972 110.696 42.835 111.04 42.835 111.769Z" fill="#263238"/>
<path d="M73.1254 94.28C73.1008 94.7466 72.9663 95.2007 72.7328 95.6054C72.4993 96.0101 72.1734 96.3539 71.7817 96.6087C71.1737 96.9643 70.6478 96.7819 70.4897 96.2195C70.6171 96.1881 70.739 96.1379 70.8515 96.0706C71.2432 95.8158 71.569 95.472 71.8026 95.0674C72.0361 94.6627 72.1706 94.2085 72.1952 93.7419C72.1959 93.6127 72.1796 93.4839 72.1465 93.3589C72.712 93.213 73.1254 93.5656 73.1254 94.28Z" fill="#263238"/>
<path d="M39.8284 137.144C39.7851 137.144 39.742 137.136 39.7019 137.12C39.6617 137.104 39.6251 137.079 39.5943 137.049C39.5635 137.018 39.539 136.982 39.5224 136.942C39.5057 136.902 39.4971 136.859 39.4971 136.816V125.686C39.4971 125.628 39.5126 125.571 39.542 125.521C39.5714 125.471 39.6136 125.429 39.6643 125.4L48.0243 120.573C48.0618 120.551 48.1032 120.537 48.1461 120.532C48.189 120.526 48.2326 120.529 48.2744 120.541C48.3162 120.552 48.3553 120.571 48.3896 120.598C48.4239 120.624 48.4526 120.657 48.4742 120.695C48.4957 120.732 48.5097 120.774 48.5153 120.816C48.5208 120.859 48.5179 120.903 48.5066 120.945C48.4953 120.986 48.4759 121.026 48.4495 121.06C48.423 121.094 48.3901 121.123 48.3526 121.144L40.1446 125.875V136.819C40.1439 136.903 40.1106 136.984 40.0517 137.045C39.9928 137.105 39.9129 137.141 39.8284 137.144Z" fill="#514C9F"/>
<path d="M39.8284 171.578C39.7705 171.579 39.7135 171.563 39.6643 171.533C39.6136 171.504 39.5714 171.462 39.542 171.412C39.5126 171.362 39.4971 171.305 39.4971 171.247V160.123C39.505 160.041 39.5431 159.965 39.6041 159.91C39.6651 159.854 39.7445 159.824 39.8269 159.824C39.9093 159.824 39.9887 159.854 40.0497 159.91C40.1107 159.965 40.1489 160.041 40.1567 160.123V170.675L48.0243 166.137C48.0616 166.115 48.1028 166.1 48.1457 166.095C48.1885 166.089 48.2321 166.091 48.2739 166.102C48.3157 166.113 48.3549 166.133 48.3893 166.159C48.4236 166.185 48.4525 166.218 48.4742 166.255C48.496 166.293 48.5101 166.334 48.5158 166.378C48.5215 166.421 48.5186 166.465 48.5073 166.507C48.496 166.549 48.4765 166.588 48.45 166.623C48.4234 166.657 48.3903 166.686 48.3526 166.708L39.9926 171.533C39.9433 171.563 39.8864 171.579 39.8284 171.578Z" fill="#514C9F"/>
<path d="M74.0315 117.384C73.9444 117.384 73.8609 117.349 73.7993 117.288C73.7378 117.226 73.7032 117.143 73.7032 117.056V106.51L65.8387 111.049C65.7629 111.092 65.6729 111.104 65.5885 111.081C65.5042 111.058 65.4323 111.003 65.3888 110.927C65.3452 110.851 65.3336 110.761 65.3564 110.677C65.3792 110.593 65.4346 110.521 65.5104 110.477L73.8673 105.653C73.9173 105.624 73.9739 105.609 74.0315 105.609C74.0891 105.609 74.1456 105.624 74.1956 105.653C74.2463 105.681 74.2885 105.723 74.3179 105.773C74.3473 105.823 74.3628 105.88 74.3628 105.938V117.062C74.3612 117.148 74.3255 117.231 74.2635 117.291C74.2014 117.351 74.118 117.385 74.0315 117.384Z" fill="#514C9F"/>
<path d="M65.6745 156.655C65.6166 156.655 65.5595 156.64 65.5093 156.611C65.459 156.583 65.4174 156.541 65.3887 156.491C65.367 156.453 65.3529 156.412 65.3473 156.369C65.3416 156.326 65.3445 156.282 65.3559 156.24C65.3672 156.198 65.3866 156.159 65.4131 156.125C65.4397 156.091 65.4727 156.062 65.5103 156.041L73.7183 151.31V140.366C73.7262 140.284 73.7644 140.208 73.8254 140.153C73.8863 140.097 73.9658 140.067 74.0482 140.067C74.1306 140.067 74.21 140.097 74.271 140.153C74.332 140.208 74.3701 140.284 74.378 140.366V151.49C74.378 151.548 74.3624 151.605 74.3331 151.655C74.3037 151.705 74.2615 151.747 74.2108 151.775L65.8386 156.6C65.7893 156.631 65.7329 156.65 65.6745 156.655Z" fill="#514C9F"/>
<path d="M68.8999 144.58L71.1434 143.285V137.26C71.1222 137.26 71.11 137.26 71.1009 137.26L69.0002 138.476C68.8938 138.536 68.8878 138.625 68.8878 138.731C68.8878 139.613 68.8878 140.494 68.8878 141.379C68.8878 141.522 68.9212 141.555 69.0306 141.488C69.3012 141.321 69.5748 141.184 69.8484 141.011C69.973 140.932 70.0278 140.944 70.0247 141.129C70.0247 141.497 70.0247 141.859 70.0247 142.218C70.0343 142.279 70.0234 142.343 69.9938 142.397C69.9641 142.452 69.9174 142.496 69.8606 142.522C69.5809 142.674 69.3042 142.844 69.0246 142.999C68.9771 143.022 68.9383 143.059 68.9137 143.106C68.889 143.152 68.88 143.205 68.8878 143.257C68.8878 143.698 68.8878 144.139 68.8878 144.58L67.7508 145.236V137.67C67.4468 137.843 67.1732 138.007 66.8966 138.162C66.5622 138.354 66.6108 138.39 66.5926 137.944C66.5926 137.576 66.5926 137.208 66.5926 136.822L65.4556 137.478V135.958C65.1516 136.113 64.8476 136.299 64.5436 136.472C64.3217 136.6 64.3217 136.6 64.3217 136.314V135.402C64.3217 135.098 64.3217 135.098 64.5618 134.952L65.4495 134.438V132.918C65.1182 133.113 64.802 133.286 64.4737 133.484C64.3582 133.557 64.3186 133.526 64.3217 133.368C64.3217 133.031 64.3217 132.7 64.3217 132.368C64.3217 132.037 64.3217 132.064 64.5618 131.921L65.4586 131.401C65.4586 130.933 65.4586 130.489 65.4586 130.061C65.4586 129.894 65.41 129.891 65.3006 129.957C65.0239 130.128 64.7442 130.261 64.4676 130.444C64.349 130.517 64.3156 130.48 64.3186 130.325C64.3186 129.951 64.3186 129.587 64.3186 129.21C64.3186 129.052 64.2791 129.03 64.1636 129.1C63.887 129.27 63.6073 129.432 63.3306 129.58C63.2753 129.607 63.2305 129.652 63.2035 129.707C63.1765 129.762 63.1688 129.824 63.1817 129.885C63.1817 130.258 63.1817 130.641 63.1817 131.018C63.19 131.066 63.183 131.116 63.1617 131.159C63.1404 131.203 63.1059 131.239 63.0631 131.262C62.7257 131.45 62.3882 131.645 62.0508 131.836C62.0508 129.459 62.0508 127.082 62.0508 124.704C62.0508 124.276 62.0508 124.276 61.7225 124.464L60.926 124.923V123.403C61.2604 123.212 61.5796 123.02 61.9018 122.844C61.957 122.817 62.0018 122.773 62.0293 122.718C62.0568 122.663 62.0654 122.6 62.0538 122.54C62.0538 121.667 62.0538 120.795 62.0538 119.916C62.0538 119.752 62.0174 119.713 61.8927 119.789C61.6374 119.947 61.382 120.074 61.1266 120.239C60.9655 120.342 60.9047 120.327 60.9078 120.087C60.9078 119.251 60.9078 118.427 60.9078 117.591C60.9078 117.393 60.8743 117.341 60.7162 117.436C59.7029 118.027 58.6896 118.612 57.6762 119.19C57.6063 119.221 57.5489 119.275 57.5131 119.343C57.4773 119.41 57.4651 119.488 57.4786 119.564C57.4786 120.397 57.4786 121.239 57.4786 122.072C57.4921 122.148 57.4796 122.226 57.4433 122.295C57.4069 122.363 57.3487 122.417 57.278 122.449C57.0166 122.585 56.7551 122.753 56.4937 122.899C56.3782 122.969 56.3356 122.941 56.3386 122.783C56.3386 122.424 56.3386 122.075 56.3386 121.713C56.3386 121.534 56.3052 121.479 56.1623 121.57C55.8948 121.737 55.6273 121.889 55.3628 122.032C55.3057 122.058 55.2586 122.101 55.2289 122.156C55.1992 122.211 55.1885 122.274 55.1986 122.336C55.1986 122.701 55.1986 123.075 55.1986 123.449C55.1908 123.534 55.1592 123.615 55.1074 123.683C54.7639 123.893 54.4204 124.087 54.0586 124.291V121.269C53.6938 121.479 53.3503 121.673 53.0068 121.877C52.9612 121.94 52.9329 122.013 52.9247 122.09C52.9247 122.473 52.9247 122.853 52.9247 123.227C52.9371 123.288 52.9286 123.351 52.9004 123.406C52.8722 123.461 52.8261 123.505 52.7697 123.531C52.493 123.686 52.2134 123.856 51.9367 124.008C51.8809 124.035 51.8355 124.079 51.8075 124.134C51.7794 124.189 51.7704 124.252 51.7817 124.312C51.7817 124.644 51.7817 124.978 51.7817 125.312C51.7817 125.647 51.7817 125.616 52.0218 125.483C52.6298 125.124 53.2652 124.762 53.8884 124.409C53.9431 124.379 54.0434 124.388 54.0434 124.428C54.0434 124.878 54.0434 125.34 54.0434 125.823C53.706 126.015 53.3898 126.206 53.0767 126.376C53.0162 126.405 52.9667 126.452 52.9359 126.512C52.9052 126.571 52.8948 126.639 52.9065 126.705C52.9065 127.136 52.9065 127.574 52.9065 128.009L54.0374 127.364V128.884L52.946 129.544V131.064C53.2713 130.879 53.5966 130.696 53.9218 130.502C54.0434 130.429 54.086 130.447 54.083 130.617C54.083 131.058 54.083 131.487 54.083 131.921L55.2625 131.262C55.2625 131.766 55.2138 132.28 55.2442 132.766C55.9465 132.362 56.6305 131.961 57.3297 131.569C57.3844 131.535 57.4878 131.547 57.4908 131.587C57.4908 132.037 57.4908 132.499 57.4908 132.982C56.4055 133.612 55.3263 134.229 54.2441 134.861C54.1802 134.897 54.0799 134.907 54.0799 135.065C54.0799 135.524 54.0799 135.977 54.0799 136.466C54.4143 136.272 54.7305 136.098 55.0436 135.904C55.1804 135.822 55.2321 135.843 55.226 136.034C55.226 136.396 55.226 136.743 55.226 137.104C55.226 137.299 55.2716 137.314 55.4084 137.235C56.0468 136.858 56.6852 136.497 57.3236 136.123C57.4513 136.047 57.503 136.062 57.4999 136.247C57.4999 136.606 57.4999 136.962 57.4999 137.311C57.5109 137.378 57.4992 137.447 57.4667 137.506C57.4342 137.566 57.3828 137.613 57.3206 137.64C57.05 137.789 56.7764 137.959 56.5058 138.108C56.4555 138.132 56.4142 138.171 56.3879 138.221C56.3617 138.27 56.3519 138.326 56.3599 138.381C56.3599 138.728 56.3599 139.084 56.3599 139.424C56.3763 139.504 56.3651 139.587 56.3281 139.66C56.2911 139.733 56.2305 139.791 56.1562 139.825C55.9009 139.956 55.6455 140.129 55.3902 140.26C55.3302 140.288 55.2811 140.335 55.2504 140.394C55.2197 140.453 55.209 140.52 55.2199 140.585C55.2199 141.534 55.2199 142.452 55.2199 143.416L54.083 144.072C54.083 144.507 54.083 144.942 54.083 145.379C54.083 145.537 54.1225 145.562 54.238 145.492C54.5572 145.3 54.8794 145.118 55.2169 144.923C55.2625 145.835 55.2169 146.796 55.2351 147.72C55.2461 147.786 55.2354 147.853 55.2046 147.911C55.1739 147.97 55.1248 148.017 55.0649 148.045C54.7396 148.225 54.4113 148.419 54.086 148.611C54.086 149.037 54.086 149.468 54.086 149.891C54.0982 149.959 54.0868 150.029 54.0537 150.09C54.0205 150.151 53.9675 150.199 53.9036 150.225C53.6543 150.359 53.405 150.529 53.1558 150.651C52.9764 150.736 52.9399 150.845 52.946 151.061C52.946 151.459 52.946 151.87 52.946 152.277C53.2743 152.095 53.5996 151.921 53.9249 151.727C54.0586 151.645 54.0921 151.684 54.0921 151.858C54.0921 152.712 54.0921 153.566 54.0921 154.414C54.1062 154.489 54.0951 154.567 54.0605 154.635C54.0258 154.704 53.9696 154.758 53.9006 154.791C53.2014 155.193 52.5143 155.566 51.8182 156.007C51.8182 156.448 51.8182 156.868 51.8182 157.29C51.8182 157.457 51.8546 157.494 51.9793 157.418C52.2498 157.251 52.5234 157.114 52.797 156.941C52.9156 156.868 52.9642 156.886 52.9612 157.059C52.9612 157.427 52.9612 157.789 52.9612 158.147C52.9679 158.209 52.9558 158.271 52.9265 158.325C52.8972 158.379 52.852 158.423 52.797 158.451C52.5204 158.603 52.2407 158.755 51.9641 158.935C51.9002 158.987 51.8527 159.057 51.8273 159.135C51.8273 159.591 51.8273 160.047 51.8273 160.506L54.0982 159.196C54.0982 158.761 54.0982 158.345 54.0982 157.935C54.0855 157.869 54.0951 157.8 54.1253 157.74C54.1556 157.68 54.2048 157.632 54.2654 157.603C54.542 157.454 54.8217 157.299 55.0983 157.123C55.2169 157.05 55.2534 157.086 55.2503 157.241C55.2503 157.615 55.2503 157.98 55.2503 158.354C55.2503 158.491 55.2716 158.546 55.3871 158.476C56.0559 158.084 56.7217 157.701 57.3874 157.321C57.4345 157.297 57.4729 157.259 57.4969 157.212C57.5209 157.165 57.5294 157.111 57.5212 157.059C57.5212 156.691 57.5212 156.314 57.5212 155.949C57.5142 155.888 57.5258 155.827 57.5546 155.772C57.5834 155.718 57.6279 155.674 57.6823 155.645C57.9559 155.496 58.2265 155.341 58.5001 155.174C58.6278 155.095 58.6612 155.15 58.6582 155.308C58.6582 155.652 58.6582 155.986 58.6582 156.333C58.6582 156.557 58.7038 156.579 58.8649 156.488C59.938 155.846 61.0081 155.272 62.0812 154.609C62.0812 153.186 62.0812 151.769 62.0812 150.353C62.0812 150.158 62.1116 150.049 62.2727 149.976C62.5281 149.845 62.7834 149.672 63.0388 149.541C63.1039 149.514 63.1577 149.466 63.191 149.404C63.2243 149.341 63.235 149.27 63.2212 149.201C63.2212 148.836 63.2212 148.459 63.2212 148.091C63.2129 148.036 63.2223 147.98 63.2479 147.931C63.2736 147.882 63.3143 147.842 63.3641 147.817C63.6498 147.662 63.9326 147.498 64.2153 147.328C64.3278 147.258 64.3582 147.301 64.3582 147.44C64.3582 147.83 64.3582 148.21 64.3582 148.599C64.3582 148.736 64.3946 148.763 64.4919 148.702C64.8324 148.501 65.1516 148.322 65.4951 148.121C65.4951 149.113 65.4951 150.061 65.4951 151.006C65.4987 151.052 65.488 151.097 65.4646 151.135C65.4411 151.174 65.4061 151.205 65.3644 151.222C65.0756 151.389 64.7868 151.551 64.498 151.724C64.3855 151.791 64.3521 151.754 64.3551 151.611C64.3551 151.237 64.3551 150.873 64.3551 150.499C64.3551 150.35 64.3308 150.295 64.2062 150.371C63.9295 150.541 63.6529 150.702 63.3732 150.854C63.3193 150.883 63.2754 150.928 63.2472 150.982C63.219 151.036 63.2078 151.098 63.2151 151.158C63.2151 151.496 63.2151 151.833 63.2151 152.183C63.2151 152.399 63.2577 152.441 63.4188 152.341C63.7228 152.146 64.0268 151.982 64.3521 151.797V153.256L65.489 152.599C65.489 152.216 65.489 151.855 65.489 151.49C65.489 151.064 65.4404 151.134 65.7687 150.946C66.3767 150.593 66.9847 150.237 67.5927 149.897C67.6594 149.866 67.7139 149.813 67.7474 149.748C67.781 149.682 67.7918 149.607 67.7782 149.535C67.7326 147.86 68.0244 148.228 66.7689 148.851C66.7202 148.875 66.6351 148.851 66.6351 148.802C66.6351 148.359 66.6351 147.906 66.6351 147.437C67.3222 147.009 67.997 146.647 68.6841 146.24C68.9151 146.106 68.9151 146.106 68.9151 145.787C68.8756 145.382 68.8665 145.005 68.8999 144.58ZM54.0982 127.364V125.844C54.4782 125.629 54.8399 125.397 55.2169 125.169C55.2169 124.732 55.2442 124.285 55.2442 123.85C55.2352 123.798 55.2431 123.745 55.2666 123.698C55.2901 123.651 55.3281 123.613 55.375 123.589C55.679 123.428 55.9556 123.26 56.2444 123.09C56.3478 123.029 56.3782 123.066 56.3782 123.196C56.3782 124.591 56.3782 125.985 56.3782 127.38C56.3855 127.435 56.3754 127.492 56.3492 127.541C56.3231 127.591 56.2822 127.631 56.2322 127.656C55.9526 127.808 55.6759 127.96 55.3962 128.136C55.2807 128.206 55.2382 128.182 55.2412 128.024C55.2412 127.58 55.2412 127.158 55.2412 126.72L54.0982 127.364ZM56.2049 130.69C55.9009 130.86 55.5969 131.049 55.2777 131.231C55.2526 131.178 55.2332 131.122 55.2199 131.064C55.2199 130.681 55.2199 130.295 55.2199 129.915C55.2107 129.86 55.2193 129.803 55.2444 129.754C55.2696 129.704 55.31 129.663 55.3598 129.638C55.6425 129.486 55.9252 129.334 56.2079 129.149C56.3265 129.079 56.3599 129.125 56.3569 129.273C56.3569 129.638 56.3569 130.003 56.3569 130.359C56.3695 130.425 56.36 130.493 56.3297 130.553C56.2995 130.613 56.2502 130.661 56.1897 130.69H56.2049ZM64.4433 138.056L65.4526 137.481V138.983C65.0908 139.193 64.7442 139.397 64.3946 139.591C64.3703 139.591 64.3247 139.546 64.3247 139.497C64.3247 139.096 64.3247 138.685 64.3247 138.281C64.3186 138.236 64.3267 138.19 64.348 138.15C64.3692 138.109 64.4025 138.077 64.4433 138.056ZM62.1663 133.308C62.4703 133.134 62.753 132.97 63.0479 132.794C63.1452 132.736 63.1878 132.754 63.1878 132.891C63.1878 133.28 63.1878 133.666 63.1878 134.049C63.1939 134.102 63.1837 134.154 63.1587 134.201C63.1337 134.247 63.095 134.284 63.0479 134.308C62.7652 134.466 62.4794 134.612 62.1967 134.8C62.0751 134.873 62.0478 134.821 62.0478 134.672C62.0478 134.25 62.0478 133.833 62.0478 133.414C62.0837 133.376 62.1234 133.341 62.1663 133.311V133.308ZM62.0508 136.572C62.0427 136.52 62.052 136.466 62.0773 136.42C62.1025 136.373 62.1423 136.336 62.1906 136.314C62.3366 136.235 62.4794 136.15 62.6254 136.065C62.7713 135.98 62.9142 135.904 63.057 135.816C63.1513 135.758 63.1878 135.788 63.1847 135.913C63.1847 136.308 63.1847 136.7 63.1847 137.089C63.1913 137.138 63.1822 137.188 63.1587 137.231C63.1352 137.274 63.0985 137.309 63.054 137.329C62.75 137.494 62.4764 137.658 62.1846 137.831C62.0873 137.892 62.0478 137.865 62.0508 137.728C62.0538 137.345 62.0538 136.959 62.0508 136.576V136.572ZM60.9138 127.775C60.9221 127.826 60.914 127.879 60.8905 127.925C60.867 127.972 60.8294 128.009 60.7831 128.033C60.4791 128.197 60.1934 128.368 59.9015 128.541C59.8225 128.586 59.7769 128.586 59.7769 128.462C59.7769 128.006 59.7769 127.55 59.7769 127.091C60.1022 126.902 60.4274 126.72 60.7527 126.525C60.8682 126.455 60.9047 126.486 60.9017 126.644C60.9078 127.027 60.9108 127.416 60.9138 127.778V127.775ZM58.6338 129.067C58.6454 129.127 58.6368 129.19 58.6093 129.244C58.5818 129.299 58.537 129.344 58.4818 129.371C58.2052 129.523 57.9255 129.675 57.6489 129.851C57.5303 129.921 57.4938 129.885 57.4969 129.733C57.4969 128.854 57.4969 127.981 57.4969 127.109C57.4969 127.012 57.4969 126.911 57.6002 126.848L59.7799 125.592V127.112C59.4759 127.297 59.1385 127.498 58.8193 127.668C58.7487 127.7 58.6911 127.755 58.6558 127.824C58.6205 127.893 58.6095 127.972 58.6247 128.048C58.6399 128.368 58.6278 128.723 58.6338 129.07V129.067ZM57.4969 122.552C57.485 122.491 57.4938 122.428 57.5219 122.373C57.55 122.318 57.5958 122.274 57.6519 122.248C57.889 122.117 58.1292 121.974 58.3694 121.838C58.6734 121.664 58.6308 121.728 58.6308 121.324C58.6308 121.02 58.6308 120.698 58.6308 120.391C58.6238 120.33 58.6355 120.268 58.6642 120.214C58.693 120.159 58.7375 120.115 58.7919 120.087C59.0655 119.938 59.3361 119.783 59.6097 119.615C59.7374 119.536 59.786 119.561 59.783 119.743C59.783 120.187 59.783 120.588 59.783 121.032L60.9138 120.378C60.9138 120.865 60.9138 121.318 60.9138 121.78C60.8861 121.856 60.8364 121.923 60.771 121.971C60.0687 122.385 59.3634 122.777 58.6612 123.23C58.6612 123.668 58.6399 124.115 58.6399 124.546C58.6494 124.602 58.6406 124.659 58.6148 124.709C58.589 124.758 58.5477 124.799 58.497 124.823C58.2174 124.975 57.9407 125.127 57.6641 125.303C57.5486 125.373 57.503 125.352 57.506 125.194C57.504 124.31 57.5009 123.43 57.4969 122.552ZM55.2412 143.379C55.5878 143.178 55.9343 142.975 56.2809 142.771C56.3082 142.771 56.3569 142.814 56.3569 142.859C56.3569 143.265 56.3569 143.678 56.3569 144.1C56.3491 144.163 56.3215 144.223 56.2778 144.27C55.9343 144.477 55.5938 144.671 55.2412 144.878V143.379ZM56.363 156.177C56.3705 156.233 56.3601 156.29 56.3334 156.34C56.3066 156.39 56.2648 156.43 56.214 156.454C55.9313 156.612 55.6486 156.776 55.3628 156.947C55.2655 157.004 55.223 156.983 55.226 156.843C55.226 156.649 55.226 156.46 55.226 156.266C55.226 156.071 55.226 155.87 55.226 155.658C55.2422 155.576 55.2812 155.502 55.3385 155.442C55.6425 155.259 55.9282 155.098 56.2201 154.925C56.3265 154.861 56.3538 154.91 56.3538 155.037C56.3599 155.42 56.3599 155.797 56.363 156.174V156.177ZM56.363 151.617C56.3547 151.701 56.3242 151.781 56.2748 151.849C55.9374 152.055 55.5999 152.247 55.2351 152.457V151.432C55.2351 150.952 55.2351 150.949 55.5908 150.745L56.4025 150.292C56.3633 150.735 56.3481 151.179 56.3569 151.624L56.363 151.617ZM57.3023 149.757C56.9983 149.915 56.6943 150.107 56.3903 150.283C56.3472 149.846 56.335 149.406 56.3538 148.967C56.3538 148.824 56.3204 148.787 56.211 148.854C55.9282 149.024 55.6425 149.188 55.3598 149.34C55.3142 149.368 55.229 149.34 55.226 149.298C55.226 148.854 55.226 148.401 55.226 147.915L56.1046 147.41C56.3842 147.246 56.3599 147.298 56.3599 146.912V144.233L57.1017 143.805C57.4938 143.577 57.4938 143.577 57.4938 144.109C57.4938 145.863 57.4938 147.62 57.4938 149.374C57.4999 149.581 57.4604 149.675 57.2962 149.763L57.3023 149.757ZM59.6188 152.973C58.3754 153.618 58.6734 153.885 58.6399 152.21C58.6399 152.064 58.6034 152.037 58.497 152.104C57.2202 152.794 57.5577 152.998 57.4999 151.371C57.4894 151.305 57.501 151.237 57.5329 151.179C57.5648 151.12 57.6152 151.073 57.6762 151.046C58.3785 150.648 59.0807 150.237 59.786 149.83C59.786 150.766 59.786 151.709 59.786 152.642C59.7996 152.71 59.7899 152.78 59.7584 152.841C59.727 152.902 59.6756 152.951 59.6127 152.979L59.6188 152.973ZM60.9199 149.17L59.7799 149.827C59.7799 148.875 59.7799 147.924 59.7799 146.972C59.774 146.924 59.7831 146.875 59.8059 146.832C59.8287 146.789 59.8642 146.754 59.9076 146.732C60.2116 146.568 60.4974 146.398 60.7922 146.224C60.8682 146.179 60.9169 146.176 60.9169 146.3C60.9108 147.246 60.9138 148.194 60.9138 149.176L60.9199 149.17ZM60.9199 144.416C60.9269 144.477 60.9153 144.538 60.8865 144.593C60.8577 144.647 60.8132 144.691 60.7588 144.72C60.4882 144.866 60.2146 145.024 59.9441 145.191C59.8225 145.264 59.7738 145.249 59.7799 145.075C59.7799 144.704 59.7799 144.349 59.7799 143.981C59.7799 143.817 59.7495 143.777 59.6218 143.853C59.3452 144.027 59.0655 144.157 58.7889 144.343C58.6764 144.41 58.6278 144.391 58.6308 144.23C58.6308 143.85 58.6308 143.473 58.6308 143.096C58.6227 143.041 58.6328 142.985 58.6597 142.936C58.6866 142.887 58.7288 142.848 58.7798 142.826C59.0686 142.665 59.3574 142.491 59.6492 142.327C59.6935 142.307 59.73 142.273 59.7536 142.23C59.7771 142.187 59.7863 142.138 59.7799 142.09C59.7799 141.658 59.7799 141.218 59.7799 140.756C59.0777 141.12 58.3785 141.552 57.6762 141.956C57.5394 142.035 57.4908 142.011 57.4938 141.823C57.4938 141.455 57.4938 141.093 57.4938 140.731C57.482 140.671 57.4908 140.608 57.5189 140.552C57.547 140.497 57.5928 140.453 57.6489 140.427C57.9194 140.275 58.193 140.123 58.4666 139.959C58.5238 139.934 58.5709 139.89 58.6006 139.835C58.6303 139.78 58.6409 139.717 58.6308 139.655C58.6308 137.709 58.6521 135.733 58.6126 133.8C58.2903 133.989 57.9802 134.159 57.6702 134.35C57.5303 134.435 57.4878 134.399 57.4908 134.213C57.4908 133.794 57.4908 133.384 57.4908 132.94L59.7738 131.623V130.407C59.7738 130.103 59.7738 130.103 59.9988 129.976C60.2238 129.848 60.5004 129.696 60.7497 129.541C60.8774 129.462 60.9108 129.504 60.9078 129.666C60.9078 130.611 60.9078 131.532 60.9078 132.478L62.0417 131.824V133.396C62.0052 133.4 61.9695 133.41 61.9353 133.423C61.2209 133.849 60.5065 134.22 59.7921 134.679V136.174L60.6767 135.664C60.9169 135.527 60.9169 135.527 60.9169 135.837V140.093C61.6222 139.682 62.3153 139.29 63.0206 138.877C63.1482 138.801 63.1969 138.816 63.1908 139.001C63.1908 139.354 63.1908 139.704 63.1908 140.047C63.2048 140.119 63.1941 140.194 63.1605 140.259C63.1268 140.324 63.0722 140.376 63.0054 140.406C62.3062 140.798 61.6191 141.202 60.9169 141.607C60.9138 142.555 60.9108 143.485 60.9169 144.422L60.9199 144.416ZM65.4556 145.048C64.3764 145.674 63.3063 146.288 62.2271 146.918C62.0903 146.997 62.0478 146.975 62.0478 146.787C62.0478 145.427 62.0478 144.07 62.0478 142.716C62.036 142.644 62.0484 142.57 62.083 142.506C62.1177 142.442 62.1726 142.391 62.2393 142.361C63.2526 141.785 64.2659 141.201 65.2793 140.61C65.4282 140.521 65.4678 140.555 65.4678 140.749C65.4526 142.187 65.4586 143.61 65.4556 145.048ZM46.2762 150.064C46.1638 150.131 46.1182 150.116 46.1182 149.958C46.1182 149.073 46.1182 148.194 46.1182 147.316C46.1106 147.255 46.1214 147.194 46.149 147.14C46.1766 147.086 46.2199 147.041 46.2732 147.012C46.9359 146.635 47.5966 146.254 48.2553 145.869C48.3738 145.799 48.4042 145.838 48.4042 145.99C48.4042 146.434 48.4042 146.872 48.4042 147.313C49.1004 146.912 49.7966 146.504 50.4927 146.112C50.5573 146.085 50.6106 146.037 50.6439 145.976C50.6771 145.914 50.6881 145.843 50.6751 145.775C50.6751 145.355 50.6751 144.926 50.6751 144.501C49.9182 144.863 49.1551 145.385 48.4042 145.772C48.4042 145.322 48.4042 144.896 48.4042 144.464C48.4042 144.318 48.3678 144.288 48.2614 144.352C47.9817 144.519 47.705 144.656 47.4284 144.838C47.3007 144.914 47.2642 144.878 47.2642 144.714C47.2642 143.768 47.2642 142.85 47.2642 141.902C46.562 142.309 45.8719 142.701 45.1697 143.118C45.0238 143.206 44.9751 143.169 44.9812 142.972C44.9812 142.619 44.9812 142.269 44.9812 141.926C44.9672 141.857 44.9775 141.786 45.0101 141.724C45.0428 141.662 45.096 141.613 45.1606 141.585C46.2398 140.959 47.319 140.369 48.3982 139.704C48.3982 138.731 48.3982 137.785 48.3982 136.837C48.3982 136.712 48.3465 136.718 48.2705 136.764C47.9665 136.934 47.6807 137.108 47.3858 137.272C47.3422 137.294 47.3067 137.33 47.2843 137.373C47.262 137.417 47.2539 137.466 47.2612 137.515C47.2612 137.971 47.2612 138.396 47.2612 138.862L46.5073 139.299C46.1151 139.524 46.1151 139.524 46.1151 138.995V138.004C45.7807 138.199 45.4767 138.384 45.1727 138.545C45.0116 138.628 44.9751 138.728 44.9751 138.922C44.9751 139.834 44.9964 140.746 44.9751 141.695L42.7346 142.99C42.7012 143.458 42.7346 143.868 42.7164 144.325C42.7164 144.501 42.765 144.51 42.8836 144.437C43.1633 144.27 43.4399 144.133 43.7196 143.954C43.8199 143.893 43.8564 143.923 43.8564 144.057C43.8564 144.437 43.8564 144.817 43.8564 145.191C43.8647 145.25 43.8535 145.31 43.8244 145.362C43.7953 145.415 43.75 145.456 43.6953 145.48C43.4308 145.629 43.1633 145.784 42.8958 145.936C42.8326 145.966 42.781 146.016 42.7487 146.077C42.7163 146.139 42.705 146.21 42.7164 146.279C42.7164 147.191 42.7012 148.146 42.7164 149.061C43.0508 148.869 43.367 148.681 43.6983 148.501C43.7439 148.474 43.829 148.501 43.829 148.526C43.829 148.985 43.829 149.438 43.829 149.945L42.7164 150.587V152.107C43.0508 151.912 43.367 151.736 43.6831 151.545C43.8017 151.475 43.8382 151.508 43.8351 151.66C43.8351 152.043 43.8351 152.417 43.8351 152.797C43.8351 152.928 43.8686 152.964 43.9719 152.903C44.2597 152.731 44.5485 152.564 44.8383 152.402C44.8851 152.377 44.923 152.338 44.9469 152.291C44.9708 152.243 44.9796 152.19 44.9721 152.137C44.9721 151.7 44.9721 151.262 44.9721 150.815L46.0878 150.17C46.103 150.596 46.0878 151.025 46.0878 151.459C46.0878 151.608 46.1151 151.66 46.2367 151.587C46.5225 151.414 46.8052 151.25 47.0879 151.095C47.1442 151.069 47.19 151.025 47.2176 150.969C47.2453 150.914 47.2531 150.851 47.2399 150.791C47.2399 150.359 47.2399 149.921 47.2399 149.483C46.939 149.684 46.6076 149.869 46.2762 150.064ZM44.9842 150.806C44.6225 151.016 44.282 151.216 43.9385 151.414C43.9111 151.414 43.8564 151.38 43.8564 151.338C43.8564 150.891 43.8564 150.426 43.8564 149.958C44.2182 149.748 44.5526 149.553 44.8839 149.371C44.9204 149.35 44.9812 149.392 44.9842 149.438C44.9873 149.873 44.9842 150.325 44.9842 150.806ZM45.9662 145.686C45.7382 145.811 45.5102 145.945 45.2822 146.079C44.9508 146.276 44.9782 146.197 44.9782 146.638C44.9782 146.942 44.9782 147.261 44.9782 147.568C44.9866 147.624 44.977 147.682 44.9508 147.732C44.9246 147.782 44.8831 147.823 44.8322 147.848C44.5495 148.006 44.2668 148.152 43.9841 148.337C43.8746 148.404 43.8412 148.365 43.8412 148.225C43.8412 147.778 43.8412 147.334 43.8412 146.89C43.8412 146.446 43.8412 146.045 43.8412 145.626C43.8286 145.56 43.8381 145.491 43.8684 145.431C43.8986 145.372 43.9478 145.323 44.0084 145.294C44.6559 144.929 45.3065 144.552 45.954 144.173C46.0665 144.106 46.1151 144.121 46.1121 144.282C46.1121 144.656 46.1121 145.027 46.1121 145.392C46.122 145.45 46.1133 145.51 46.0871 145.563C46.0608 145.616 46.0185 145.659 45.9662 145.686ZM63.4036 126.534L71.1434 122.066V111.754C71.1434 111.45 71.1434 111.45 70.9094 111.578L63.4036 115.91C63.1847 116.034 63.1847 116.037 63.1847 116.326V126.358C63.1847 126.647 63.1847 126.647 63.4036 126.522V126.534ZM64.5132 116.776C66.2764 115.763 68.0386 114.749 69.7998 113.736C69.9761 113.636 70.0126 113.697 70.0095 113.912C70.0095 115.086 70.0095 116.256 70.0095 117.427C70.0095 118.597 70.0095 119.77 70.0095 120.938C70.0234 121.017 70.0107 121.098 69.9733 121.169C69.9358 121.24 69.8759 121.297 69.8028 121.33C68.0396 122.343 66.2774 123.357 64.5162 124.37C64.3673 124.455 64.3156 124.437 64.3156 124.227C64.3156 121.868 64.3156 119.511 64.3156 117.156C64.3023 117.08 64.3144 117.001 64.3501 116.933C64.3858 116.864 64.4431 116.809 64.5132 116.776ZM42.9292 138.36C45.4443 136.905 47.9574 135.453 50.4684 134.004C50.6873 133.879 50.6873 133.879 50.6873 133.587V123.555C50.6873 123.266 50.6873 123.266 50.4684 123.391C47.8905 124.89 45.3004 126.346 42.7377 127.866C42.7134 131.325 42.7377 134.752 42.7377 138.202C42.7134 138.412 42.7559 138.445 42.917 138.36H42.9292ZM43.8625 128.96C43.8521 128.891 43.8642 128.82 43.897 128.757C43.9298 128.695 43.9816 128.645 44.0449 128.614C45.8243 127.6 47.6027 126.574 49.3801 125.534C49.523 125.449 49.5534 125.507 49.5534 125.68C49.5534 126.878 49.5534 128.07 49.5534 129.261C49.5534 130.453 49.5534 131.605 49.5534 132.772C49.5653 132.845 49.553 132.919 49.5184 132.984C49.4838 133.049 49.4287 133.101 49.3618 133.131C47.5905 134.145 45.8182 135.168 44.0449 136.202C43.9111 136.281 43.8594 136.262 43.8594 136.074C43.8574 133.695 43.8544 131.32 43.8503 128.951L43.8625 128.96ZM50.4866 150.672C47.9026 152.17 45.3197 153.662 42.7377 155.15C42.7103 158.616 42.7377 162.045 42.7377 165.501C42.7377 165.714 42.7802 165.747 42.9414 165.653C45.5274 164.155 48.1134 162.662 50.6994 161.172C50.6994 157.727 50.6994 154.282 50.6994 150.836C50.6782 150.602 50.6356 150.569 50.4745 150.663L50.4866 150.672ZM49.3618 160.427C47.5926 161.441 45.8253 162.461 44.0601 163.489C43.902 163.58 43.8594 163.537 43.8625 163.337C43.8625 160.984 43.8625 158.634 43.8625 156.287C43.8476 156.208 43.8595 156.126 43.8964 156.054C43.9333 155.983 43.9931 155.926 44.0662 155.892C44.9538 155.387 45.8446 154.87 46.7322 154.357C47.6199 153.843 48.4894 153.347 49.3679 152.837C49.5169 152.748 49.5564 152.788 49.5534 152.982C49.5534 155.348 49.5534 157.712 49.5534 160.075C49.5599 160.146 49.5437 160.218 49.5072 160.28C49.4706 160.341 49.4155 160.39 49.3497 160.418L49.3618 160.427ZM71.1434 125.09L70.0217 125.738C70.0217 125.279 70.0217 124.853 70.0217 124.422C70.0217 124.279 69.9882 124.242 69.8758 124.309C69.593 124.479 69.3103 124.644 69.0276 124.799C68.9768 124.824 68.9355 124.866 68.9098 124.917C68.8841 124.967 68.8753 125.025 68.8847 125.081C68.8847 125.455 68.8847 125.832 68.8847 126.215C68.8847 126.361 68.9212 126.385 69.0276 126.322C69.3073 126.151 69.5839 126.018 69.8636 125.832C69.9913 125.753 70.0247 125.799 70.0217 125.96C70.0217 126.328 70.0217 126.692 70.0217 127.048C70.031 127.11 70.0197 127.174 69.9895 127.228C69.9593 127.283 69.9118 127.327 69.8545 127.352C69.1492 127.753 68.4622 128.155 67.7538 128.568C67.7538 129.058 67.7538 129.523 67.7538 129.982C67.7538 130.021 67.8359 130.04 67.8785 130.015C68.1399 129.875 68.4014 129.711 68.6628 129.568C68.9242 129.425 68.8786 129.447 68.8786 129.742C68.8786 130.581 68.8786 131.417 68.8786 132.256C68.8786 132.42 68.9182 132.456 69.0428 132.38C69.3103 132.216 69.5778 132.076 69.8423 131.912C69.973 131.833 70.0217 131.857 70.0186 132.037C70.0186 132.377 70.0186 132.712 70.0186 133.037C70.037 133.12 70.0261 133.206 69.9879 133.281C69.9496 133.357 69.8863 133.417 69.8089 133.45C69.1188 133.824 68.4378 134.259 67.7478 134.624C67.7478 133.691 67.7478 132.779 67.7478 131.845C67.7478 131.657 67.7052 131.623 67.5684 131.712C67.3009 131.876 67.0334 132.016 66.7658 132.174C66.7064 132.202 66.6578 132.248 66.6271 132.306C66.5964 132.364 66.5853 132.431 66.5956 132.496C66.5956 133.426 66.5774 134.372 66.5956 135.293C66.9726 135.065 67.3343 134.876 67.7082 134.685C67.7082 135.18 67.7356 135.648 67.7295 136.165C68.0578 135.974 68.3588 135.816 68.6415 135.621C68.8209 135.505 68.8604 135.569 68.8513 135.791C68.8513 136.147 68.8513 136.487 68.8513 136.84C68.8513 136.968 68.8786 137.01 68.985 136.946C69.289 136.773 69.5626 136.606 69.8514 136.448C69.8985 136.424 69.9369 136.386 69.9614 136.339C69.9859 136.292 69.9953 136.239 69.9882 136.186C69.9882 135.84 69.9882 135.49 69.9882 135.141C69.9882 134.855 69.9882 134.852 70.2071 134.727L71.1009 134.21C71.1526 132.724 71.1009 131.286 71.1222 129.815C71.1222 129.672 71.0766 129.666 70.9823 129.723C70.7026 129.888 70.426 130.027 70.1463 130.207C70.0217 130.283 69.9822 130.243 69.9852 130.079C69.9852 129.711 69.9852 129.349 69.9852 128.991C69.9733 128.93 69.9822 128.867 70.0103 128.812C70.0384 128.757 70.0841 128.713 70.1402 128.687C70.4017 128.544 70.6631 128.383 70.9246 128.24C70.9948 128.21 71.0528 128.157 71.0892 128.089C71.1256 128.022 71.1383 127.944 71.1252 127.869C71.1282 126.945 71.1586 126.002 71.1313 125.081L71.1434 125.09ZM52.9399 143.191C52.9399 142.823 52.9399 142.455 52.9399 142.087C52.9399 141.655 52.9399 141.655 53.2652 141.479L54.0647 141.02V138.001L52.9764 138.631C52.9546 138.652 52.9361 138.677 52.9217 138.704C52.9313 138.726 52.9375 138.749 52.9399 138.773C52.9399 139.685 52.9399 140.597 52.9399 141.509C52.9468 141.558 52.9378 141.607 52.9142 141.65C52.8906 141.693 52.8538 141.727 52.8092 141.747C52.5052 141.911 52.2316 142.075 51.9428 142.248C51.8334 142.312 51.7999 142.276 51.7999 142.133C51.7999 141.759 51.7999 141.394 51.7999 141.02C51.7999 140.868 51.7695 140.829 51.651 140.898C50.9943 141.281 50.3407 141.658 49.6841 142.032C49.628 142.058 49.5822 142.102 49.5541 142.158C49.526 142.213 49.5172 142.276 49.529 142.336C49.529 142.704 49.529 143.075 49.529 143.446C49.529 143.604 49.5655 143.637 49.681 143.564C49.9577 143.397 50.2374 143.26 50.514 143.081C50.6326 143.008 50.669 143.048 50.666 143.2C50.666 143.644 50.666 144.084 50.666 144.525C51.4321 144.033 52.1799 143.616 52.9399 143.191ZM70.1828 146.869C70.4564 146.726 70.727 146.565 71.0006 146.404C71.0506 146.379 71.0913 146.339 71.117 146.289C71.1427 146.239 71.1519 146.183 71.1434 146.127C71.1434 145.747 71.1434 145.361 71.1434 144.972C71.1434 144.847 71.11 144.82 71.0188 144.878C70.7148 145.051 70.429 145.221 70.1342 145.385C70.0879 145.411 70.0508 145.45 70.0279 145.497C70.005 145.545 69.9975 145.598 70.0065 145.65C70.0065 146.021 70.0065 146.395 70.0065 146.76C70.0132 146.821 70.0011 146.883 69.9718 146.937C69.9425 146.991 69.8973 147.036 69.8423 147.064C69.5687 147.213 69.2982 147.368 69.0246 147.532C68.9704 147.556 68.9257 147.598 68.8972 147.65C68.8687 147.702 68.8579 147.762 68.8665 147.82C68.8665 148.694 68.8665 149.569 68.8665 150.444C68.8665 150.617 68.9151 150.629 69.0337 150.557C69.3559 150.362 69.6782 150.183 70.0004 149.997L71.0006 149.42C71.0484 149.399 71.088 149.363 71.1133 149.317C71.1385 149.271 71.1481 149.219 71.1404 149.167C71.1404 148.784 71.1404 148.398 71.1404 148.009C71.1404 147.86 71.0978 147.845 70.9945 147.909C70.7148 148.076 70.4382 148.213 70.1585 148.392C70.046 148.462 70.0004 148.432 70.0034 148.277C70.0034 147.918 70.0034 147.562 70.0034 147.209C69.9929 147.141 70.0047 147.072 70.037 147.011C70.0694 146.95 70.1205 146.901 70.1828 146.872V146.869ZM52.946 135.755C52.9425 135.705 52.9354 135.655 52.9247 135.606L51.9185 136.186C51.809 136.247 51.809 136.338 51.809 136.439C51.809 137.323 51.809 138.202 51.809 139.087C51.809 139.263 51.8607 139.269 51.9762 139.199C52.2747 138.998 52.5936 138.83 52.9278 138.697C52.939 138.636 52.9461 138.574 52.949 138.512L52.946 135.755ZM53.937 147.161L51.809 148.377C51.809 148.812 51.809 149.243 51.809 149.681C51.809 149.851 51.8546 149.866 51.9732 149.797C52.6754 149.386 53.3777 148.982 54.0769 148.581C54.0769 148.137 54.0769 147.696 54.0769 147.249C54.086 147.103 54.0404 147.094 53.937 147.155V147.161ZM50.5596 138.482C50.2556 138.661 49.9516 138.831 49.6476 139.001C49.6068 139.021 49.5733 139.053 49.5515 139.093C49.5297 139.133 49.5208 139.178 49.526 139.223C49.526 139.628 49.526 140.035 49.526 140.439C49.526 140.573 49.5746 140.576 49.6598 140.524C49.8087 140.433 49.9638 140.351 50.1097 140.263C50.2556 140.175 50.4137 140.108 50.5414 140.008C50.5994 139.949 50.6395 139.875 50.6569 139.795C50.6569 139.385 50.6569 138.98 50.6569 138.579C50.6751 138.457 50.6599 138.424 50.5596 138.476V138.482ZM43.7318 139.394C43.4278 139.555 43.1238 139.728 42.8198 139.91C42.7649 139.962 42.7258 140.029 42.7073 140.102C42.7073 140.558 42.7073 141.014 42.7073 141.488C43.069 141.278 43.4065 141.087 43.7439 140.88C43.7931 140.83 43.8251 140.765 43.8351 140.695C43.8351 140.284 43.8351 139.877 43.8351 139.479C43.8442 139.43 43.7743 139.375 43.7318 139.397V139.394ZM52.946 133.882C52.946 134.01 52.9673 134.058 53.0737 133.995C53.3777 133.821 53.6604 133.651 53.9553 133.487C53.9989 133.465 54.0347 133.43 54.0576 133.387C54.0805 133.344 54.0893 133.295 54.083 133.247C54.083 132.803 54.083 132.353 54.083 131.906L52.9551 132.56C52.946 133.004 52.949 133.441 52.946 133.885V133.882ZM50.5474 135.451L49.6658 135.961C49.6219 135.984 49.5861 136.019 49.5632 136.063C49.5403 136.106 49.5316 136.156 49.5382 136.205C49.5382 136.603 49.5382 137.001 49.5382 137.402C49.5382 137.521 49.5777 137.533 49.6598 137.484C49.9638 137.308 50.2678 137.135 50.5566 136.965C50.597 136.945 50.6302 136.913 50.6515 136.873C50.6728 136.833 50.681 136.787 50.6751 136.743C50.6751 136.545 50.6751 136.344 50.6751 136.135C50.6751 135.925 50.6751 135.736 50.6751 135.527C50.6782 135.42 50.6386 135.399 50.5474 135.454V135.451ZM47.2886 147.972V149.477L48.4194 148.827V147.307L47.2886 147.972ZM51.9337 128.608C51.8901 128.63 51.8545 128.666 51.8316 128.709C51.8088 128.753 51.7999 128.802 51.806 128.851C51.806 129.234 51.806 129.614 51.806 130.003C51.806 130.167 51.8577 130.17 51.9641 130.106C52.2894 129.912 52.6146 129.729 52.9399 129.544V128.024C52.6055 128.219 52.2681 128.413 51.9337 128.599V128.608ZM51.961 131.611C51.9046 131.637 51.8585 131.681 51.8303 131.736C51.8021 131.791 51.7936 131.854 51.806 131.915C51.806 132.282 51.806 132.653 51.806 133.028C51.806 133.189 51.8486 133.21 51.961 133.14C52.2863 132.946 52.6146 132.76 52.9399 132.572V131.052C52.6146 131.24 52.2863 131.432 51.961 131.611ZM66.4679 126.264C66.1639 126.437 65.8782 126.607 65.5833 126.772C65.5399 126.794 65.5044 126.829 65.4816 126.871C65.4587 126.914 65.4497 126.963 65.4556 127.012C65.4556 127.41 65.4556 127.814 65.4556 128.209C65.4556 128.261 65.5073 128.322 65.5346 128.307C65.8782 128.121 66.2217 127.918 66.5834 127.699C66.5834 127.215 66.5834 126.787 66.5834 126.328C66.5926 126.215 66.547 126.218 66.4679 126.264ZM51.809 153.068C51.809 153.481 51.809 153.897 51.809 154.308C51.809 154.35 51.8638 154.396 51.8942 154.381C52.2377 154.192 52.5812 153.989 52.9308 153.788V152.268L51.9519 152.846C51.9066 152.861 51.8678 152.891 51.8419 152.932C51.816 152.972 51.8044 153.02 51.809 153.068ZM64.2092 142.732C64.0602 142.801 63.9052 142.899 63.7593 142.984C63.6134 143.069 63.4553 143.16 63.3094 143.242C63.2683 143.262 63.2344 143.294 63.2121 143.334C63.1898 143.373 63.1802 143.419 63.1847 143.464C63.1847 143.868 63.1847 144.279 63.1847 144.68C63.1847 144.729 63.2516 144.777 63.2881 144.759C63.5921 144.595 63.8961 144.419 64.2001 144.23C64.2526 144.174 64.2884 144.105 64.3034 144.03C64.3034 143.619 64.3034 143.212 64.3034 142.814C64.3126 142.774 64.2487 142.725 64.2092 142.744V142.732ZM52.7697 146.304C52.8331 146.276 52.8853 146.229 52.9179 146.168C52.9505 146.107 52.9615 146.037 52.949 145.969C52.949 145.55 52.949 145.121 52.949 144.695L54.0769 144.036V142.534L52.949 143.184C52.949 143.686 52.949 144.188 52.949 144.704C52.6238 144.89 52.2985 145.084 51.9732 145.261C51.9193 145.29 51.8754 145.334 51.8472 145.388C51.819 145.443 51.8078 145.504 51.8151 145.565C51.8151 145.993 51.8151 146.431 51.8151 146.866L48.4164 148.833C48.4164 149.274 48.4164 149.717 48.4164 150.161C48.4164 150.313 48.459 150.322 48.5623 150.262L51.8212 148.377C51.8212 147.872 51.8212 147.371 51.8212 146.857C52.1313 146.687 52.4505 146.492 52.7697 146.316V146.304ZM65.6502 122.184C66.7233 121.558 67.7782 120.947 68.8604 120.327C68.8938 118.877 68.8604 117.472 68.8786 116.031C68.8786 115.812 68.827 115.785 68.6689 115.879C67.5958 116.521 66.5409 117.095 65.4556 117.755C65.4556 119.187 65.4556 120.606 65.4556 122.041C65.4526 122.263 65.5012 122.285 65.6502 122.196V122.184ZM44.9782 133.888C44.9782 134.061 45.0146 134.098 45.1484 134.019C45.6652 133.715 46.182 133.411 46.6988 133.107C47.2156 132.803 47.7111 132.517 48.2188 132.234C48.2827 132.208 48.3357 132.16 48.3689 132.099C48.402 132.039 48.4134 131.968 48.4012 131.9C48.4012 130.532 48.4012 129.164 48.4012 127.787C48.4012 127.623 48.3647 127.589 48.2401 127.659C47.2065 128.267 46.1729 128.864 45.1393 129.45C45.0854 129.479 45.0415 129.523 45.0133 129.577C44.9851 129.632 44.9739 129.693 44.9812 129.754C44.9873 131.158 44.9873 132.526 44.9842 133.9L44.9782 133.888ZM48.2279 154.998C47.1548 155.627 46.0999 156.238 45.0116 156.858C44.9812 158.309 45.0116 159.713 44.9964 161.151C44.9964 161.364 45.039 161.406 45.2031 161.309C46.2762 160.668 47.3311 160.093 48.4164 159.433C48.4164 158.001 48.4164 156.582 48.4164 155.15C48.4073 154.946 48.3678 154.907 48.2279 154.998Z" fill="#263238"/>
<path d="M46.2063 179.847C46.216 179.54 46.2526 179.235 46.3157 178.935C46.3776 178.645 46.4714 178.362 46.5954 178.093C46.7175 177.833 46.8728 177.589 47.0575 177.369C47.243 177.15 47.4652 176.965 47.7141 176.822C47.9075 176.694 48.1326 176.621 48.3647 176.612C48.4503 176.612 48.5352 176.628 48.6145 176.66C48.6938 176.693 48.7659 176.741 48.8267 176.801C48.9607 176.948 49.0576 177.125 49.1095 177.318C49.1774 177.57 49.2152 177.829 49.2219 178.09C49.2219 178.187 49.2219 178.296 49.2219 178.418C49.2219 178.54 49.2219 178.661 49.2219 178.792C49.2219 178.923 49.2219 179.044 49.2219 179.166C49.2219 179.288 49.2219 179.4 49.2219 179.503C49.2102 179.793 49.1756 180.082 49.1186 180.367C49.0623 180.647 48.9746 180.921 48.8571 181.181L49.2432 181.811C49.2474 181.832 49.2474 181.853 49.2432 181.875C49.247 181.924 49.2365 181.974 49.2128 182.017C49.1957 182.056 49.1684 182.088 49.1338 182.112L48.6474 182.391C48.5866 182.422 48.541 182.422 48.5106 182.391C48.4832 182.361 48.4589 182.334 48.4437 182.312L48.2795 182.045C48.1943 182.135 48.1029 182.219 48.0059 182.297C47.9106 182.375 47.8089 182.444 47.7019 182.504C47.506 182.633 47.2794 182.707 47.0453 182.72C46.8726 182.719 46.7068 182.652 46.5832 182.531C46.4479 182.385 46.3517 182.208 46.3035 182.014C46.2373 181.763 46.2006 181.505 46.1941 181.245C46.1941 181.145 46.1941 181.036 46.1941 180.917C46.1941 180.798 46.1941 180.674 46.1941 180.543C46.1941 180.412 46.1941 180.288 46.1941 180.166C46.1941 180.044 46.2032 179.947 46.2063 179.847ZM48.5288 178.546C48.551 178.276 48.4658 178.008 48.2917 177.801C48.1458 177.679 47.9543 177.685 47.7141 177.822C47.4618 177.975 47.2607 178.199 47.1365 178.467C46.9845 178.785 46.9036 179.132 46.8994 179.485C46.8994 179.689 46.8994 179.914 46.8994 180.16C46.8994 180.406 46.8994 180.625 46.8994 180.82C46.8872 180.952 46.9019 181.086 46.9426 181.213C46.9834 181.34 47.0493 181.458 47.1365 181.558C47.2824 181.68 47.4739 181.671 47.7141 181.534C47.9656 181.382 48.1665 181.159 48.2917 180.893C48.4432 180.575 48.5241 180.229 48.5288 179.877C48.5288 179.674 48.5288 179.449 48.5288 179.205C48.5288 178.962 48.5319 178.74 48.5319 178.546H48.5288Z" fill="#FAFAFA"/>
<path d="M51.3653 174.807C51.7939 174.56 52.1162 174.527 52.3381 174.703C52.56 174.88 52.6725 175.238 52.6725 175.782C52.6745 176.15 52.617 176.515 52.5022 176.865C52.391 177.192 52.2187 177.495 51.9946 177.758L52.7029 179.3C52.7138 179.325 52.719 179.352 52.7181 179.379C52.7183 179.427 52.7068 179.475 52.6846 179.519C52.6702 179.559 52.6423 179.593 52.6056 179.616L52.1709 179.868C52.101 179.908 52.0523 179.914 52.0189 179.868C51.9894 179.841 51.9656 179.808 51.949 179.771L51.268 178.33L50.587 178.725V180.564C50.5859 180.625 50.5714 180.684 50.5445 180.738C50.5255 180.786 50.4914 180.828 50.4472 180.856L50.0338 181.096C50.0204 181.108 50.0031 181.115 49.9851 181.115C49.9672 181.115 49.9499 181.108 49.9365 181.096C49.9211 181.079 49.9094 181.059 49.902 181.037C49.8947 181.015 49.892 180.992 49.8939 180.969V175.864C49.895 175.804 49.9096 175.745 49.9365 175.691C49.9563 175.642 49.9901 175.6 50.0338 175.57L51.3653 174.807ZM50.5962 177.737L51.3379 177.308C51.5248 177.205 51.6851 177.059 51.8061 176.883C51.9318 176.671 51.9921 176.427 51.9794 176.181C51.9794 175.877 51.9216 175.722 51.8061 175.691C51.6406 175.669 51.4727 175.711 51.3379 175.81L50.5962 176.238V177.737Z" fill="#FAFAFA"/>
<path d="M56.7126 175.494C56.7165 175.428 56.7352 175.365 56.7673 175.308C56.7888 175.265 56.8213 175.228 56.8616 175.202L57.2781 174.962C57.2924 174.951 57.3101 174.945 57.3282 174.945C57.3464 174.945 57.364 174.951 57.3784 174.962C57.394 174.979 57.4054 175 57.4117 175.023C57.418 175.045 57.4191 175.069 57.4149 175.092C57.4024 175.331 57.3678 175.568 57.3115 175.801C57.2483 176.057 57.1566 176.306 57.0379 176.542C56.9107 176.793 56.7535 177.026 56.5697 177.239C56.3753 177.461 56.1452 177.65 55.8888 177.798C55.7016 177.919 55.4854 177.989 55.2625 177.999C55.0905 177.998 54.9251 177.932 54.8005 177.813C54.655 177.67 54.5501 177.49 54.4965 177.293C54.4207 177.032 54.3789 176.762 54.3718 176.491C54.3718 176.293 54.3718 176.074 54.3718 175.834C54.3718 175.594 54.3718 175.369 54.3718 175.162C54.3841 174.843 54.4258 174.525 54.4965 174.214C54.565 173.916 54.667 173.628 54.8005 173.353C54.9227 173.095 55.0781 172.854 55.2625 172.636C55.4392 172.424 55.651 172.244 55.8888 172.104C56.0927 171.971 56.3271 171.893 56.5697 171.876C56.7395 171.872 56.9051 171.928 57.0379 172.034C57.167 172.149 57.2617 172.297 57.3115 172.463C57.371 172.652 57.4057 172.848 57.4149 173.046C57.418 173.107 57.4055 173.168 57.3784 173.223C57.3553 173.269 57.3208 173.309 57.2781 173.338L56.8616 173.578C56.8469 173.587 56.8301 173.592 56.8129 173.592C56.7958 173.592 56.779 173.587 56.7643 173.578C56.7339 173.563 56.7157 173.521 56.7096 173.457C56.6995 173.364 56.6749 173.274 56.6366 173.189C56.603 173.116 56.5492 173.054 56.4816 173.01C56.4069 172.968 56.3208 172.949 56.2353 172.958C56.1123 172.977 55.9944 173.02 55.8888 173.086C55.755 173.165 55.6365 173.268 55.5392 173.39C55.439 173.511 55.3551 173.645 55.2899 173.788C55.2203 173.937 55.1692 174.095 55.1379 174.256C55.1017 174.421 55.0803 174.589 55.0741 174.758C55.0741 174.962 55.0741 175.184 55.0741 175.427C55.0741 175.67 55.0741 175.889 55.0741 176.083C55.0775 176.23 55.0989 176.376 55.1379 176.518C55.1632 176.625 55.2155 176.723 55.2899 176.804C55.3561 176.871 55.4452 176.91 55.5392 176.913C55.664 176.912 55.7856 176.874 55.8888 176.804C56.018 176.731 56.1349 176.639 56.2353 176.53C56.3305 176.427 56.4141 176.314 56.4846 176.193C56.5492 176.079 56.6022 175.959 56.6427 175.834C56.6773 175.723 56.7008 175.609 56.7126 175.494Z" fill="#FAFAFA"/>
<path d="M57.892 173.098C57.9043 172.797 57.9409 172.497 58.0014 172.201C58.0638 171.912 58.1576 171.631 58.2811 171.362C58.4032 171.102 58.5585 170.859 58.7432 170.639C58.9278 170.418 59.1501 170.232 59.3998 170.088C59.5945 169.963 59.8189 169.89 60.0504 169.879C60.1364 169.878 60.2216 169.894 60.3011 169.927C60.3805 169.96 60.4524 170.009 60.5125 170.07C60.6492 170.216 60.7465 170.393 60.7952 170.587C60.8649 170.839 60.9027 171.098 60.9077 171.359C60.9077 171.456 60.9077 171.566 60.9077 171.684C60.9077 171.803 60.9077 171.931 60.9077 172.058C60.9077 172.186 60.9077 172.314 60.9077 172.435C60.9077 172.557 60.9077 172.669 60.9077 172.773C60.8984 173.073 60.8618 173.373 60.7982 173.667C60.7363 173.957 60.6425 174.239 60.5185 174.509C60.396 174.768 60.2396 175.011 60.0534 175.229C59.869 175.447 59.6478 175.631 59.3998 175.773C59.2038 175.901 58.9771 175.975 58.7432 175.986C58.6575 175.987 58.5726 175.97 58.4933 175.938C58.4141 175.906 58.3419 175.858 58.2811 175.798C58.1445 175.653 58.0481 175.474 58.0014 175.281C57.9365 175.029 57.8997 174.771 57.892 174.512C57.892 174.414 57.892 174.305 57.892 174.186C57.892 174.068 57.892 173.94 57.892 173.812C57.892 173.685 57.892 173.557 57.892 173.436C57.892 173.314 57.8889 173.201 57.892 173.098ZM60.2145 171.797C60.2264 171.664 60.2116 171.53 60.1709 171.402C60.1302 171.275 60.0644 171.157 59.9774 171.055C59.8315 170.931 59.64 170.937 59.3998 171.076C59.1469 171.228 58.9456 171.453 58.8222 171.721C58.6715 172.04 58.5907 172.387 58.5851 172.739C58.5851 172.943 58.5851 173.168 58.5851 173.411C58.5851 173.654 58.5851 173.876 58.5851 174.074C58.5736 174.207 58.5886 174.34 58.6294 174.467C58.6701 174.594 58.7356 174.711 58.8222 174.813C58.9681 174.934 59.1597 174.925 59.3998 174.785C59.6518 174.635 59.853 174.413 59.9774 174.147C60.1295 173.83 60.2104 173.483 60.2145 173.132C60.2145 172.928 60.2145 172.703 60.2145 172.46C60.2145 172.216 60.2206 171.995 60.2145 171.8V171.797Z" fill="#FAFAFA"/>
<path d="M62.9902 168.094C63.1886 167.967 63.415 167.89 63.6499 167.869C63.735 167.863 63.8205 167.876 63.9006 167.905C63.9807 167.934 64.0538 167.98 64.115 168.04C64.2566 168.183 64.3555 168.363 64.4008 168.559C64.4747 168.83 64.5155 169.109 64.5224 169.389C64.5386 169.772 64.5386 170.161 64.5224 170.557C64.5109 170.883 64.4702 171.207 64.4008 171.526C64.3402 171.82 64.2453 172.106 64.1181 172.378C63.9979 172.633 63.8434 172.87 63.659 173.083C63.474 173.292 63.2564 173.469 63.0146 173.609L61.7226 174.354C61.7089 174.365 61.6917 174.371 61.6739 174.371C61.6561 174.371 61.6389 174.365 61.6253 174.354C61.6106 174.336 61.5995 174.316 61.5927 174.294C61.5859 174.272 61.5836 174.249 61.5858 174.226V169.119C61.5857 169.059 61.5992 168.999 61.6253 168.945C61.6451 168.897 61.679 168.856 61.7226 168.827L62.9902 168.094ZM63.8293 169.791C63.8259 169.644 63.8044 169.498 63.7654 169.356C63.7388 169.248 63.6843 169.15 63.6074 169.07C63.5721 169.037 63.5305 169.011 63.4851 168.993C63.4397 168.976 63.3914 168.968 63.3429 168.97C63.2074 168.979 63.0766 169.023 62.9629 169.097L62.2758 169.493V173.046L62.9902 172.636C63.1276 172.555 63.2508 172.453 63.355 172.332C63.4561 172.21 63.5419 172.076 63.6104 171.934C63.6793 171.784 63.7313 171.627 63.7654 171.466C63.802 171.298 63.8234 171.127 63.8293 170.955C63.8455 170.56 63.8455 170.172 63.8293 169.791Z" fill="#FAFAFA"/>
<path d="M67.5837 169.976C67.597 169.964 67.6143 169.958 67.6323 169.958C67.6502 169.958 67.6676 169.964 67.6809 169.976C67.6964 169.993 67.7082 170.012 67.7155 170.034C67.7229 170.055 67.7256 170.078 67.7235 170.101V170.66C67.7224 170.721 67.7079 170.782 67.6809 170.836C67.662 170.885 67.6279 170.927 67.5837 170.955L65.3341 172.253C65.3207 172.265 65.3034 172.272 65.2854 172.272C65.2675 172.272 65.2501 172.265 65.2368 172.253C65.2214 172.236 65.2097 172.216 65.2023 172.194C65.195 172.172 65.1923 172.148 65.1942 172.125V167.036C65.1953 166.976 65.2099 166.917 65.2368 166.863C65.2566 166.814 65.2904 166.772 65.3341 166.742L67.5441 165.468C67.5575 165.456 67.5748 165.449 67.5928 165.449C67.6107 165.449 67.628 165.456 67.6414 165.468C67.6561 165.485 67.6672 165.506 67.674 165.528C67.6808 165.55 67.6831 165.573 67.6809 165.595V166.155C67.681 166.215 67.6675 166.274 67.6414 166.328C67.6216 166.376 67.5877 166.418 67.5441 166.447L65.8873 167.404V168.66L67.4317 167.769C67.445 167.757 67.4623 167.751 67.4803 167.751C67.4982 167.751 67.5156 167.757 67.5289 167.769C67.5436 167.787 67.5547 167.807 67.5615 167.829C67.5683 167.851 67.5706 167.874 67.5685 167.897V168.456C67.5685 168.516 67.555 168.575 67.5289 168.629C67.5091 168.678 67.4752 168.719 67.4317 168.748L65.8873 169.639V170.952L67.5837 169.976Z" fill="#FAFAFA"/>
<path d="M58.6733 216.676L46.9329 209.897C46.7033 209.748 46.5122 209.547 46.3754 209.309C46.2385 209.072 46.1598 208.806 46.1455 208.532V206.936C46.1602 206.663 46.2392 206.397 46.376 206.16C46.5128 205.923 46.7036 205.721 46.9329 205.571L60.1538 197.944C60.3982 197.82 60.6685 197.755 60.9427 197.755C61.2169 197.755 61.4872 197.82 61.7316 197.944L73.4599 204.717C73.6892 204.867 73.88 205.068 74.0168 205.305C74.1536 205.543 74.2325 205.809 74.2473 206.082V207.672C74.233 207.946 74.1542 208.212 74.0174 208.449C73.8806 208.686 73.6895 208.888 73.4599 209.037L60.2389 216.67C59.9966 216.794 59.7288 216.859 59.4569 216.86C59.185 216.861 58.9166 216.798 58.6733 216.676Z" fill="#36336A"/>
<path d="M60.1539 197.944L46.933 205.577C46.4983 205.827 46.4983 206.237 46.933 206.489L58.6735 213.269C58.9178 213.393 59.1881 213.458 59.4623 213.458C59.7365 213.458 60.0069 213.393 60.2512 213.269L73.46 205.626C73.8947 205.377 73.8947 204.966 73.46 204.714L61.7317 197.944C61.4873 197.82 61.217 197.755 60.9428 197.755C60.6686 197.755 60.3983 197.82 60.1539 197.944Z" fill="#36336A"/>
<path d="M59.4758 213.448V216.862C59.2016 216.867 58.9307 216.802 58.6885 216.673L46.948 209.894C46.719 209.745 46.5283 209.544 46.3915 209.307C46.2547 209.071 46.1756 208.805 46.1606 208.532V206.933C46.174 206.689 46.2383 206.451 46.3493 206.233C46.4602 206.015 46.6155 205.823 46.8051 205.669C46.5194 205.918 46.568 206.255 46.948 206.477L58.6885 213.256C58.9298 213.388 59.2012 213.454 59.4758 213.448Z" fill="#263238"/>
<path d="M58.3571 206.152C58.4635 205.72 59.2053 205.292 59.9531 205.24L60.6493 205.182C61.0384 205.149 61.3941 204.945 61.4488 204.72C61.5035 204.495 61.236 204.343 60.8408 204.377L60.1447 204.434C59.4085 204.491 58.6937 204.708 58.0501 205.07C57.4421 205.416 57.056 205.845 56.9496 206.286L56.3112 208.888C56.0893 209.779 57.1655 210.408 58.7067 210.271L59.4029 210.213C60.1389 210.156 60.8537 209.939 61.4975 209.578C62.1055 209.228 62.4885 208.8 62.5949 208.362L62.8989 207.122C62.9536 206.9 62.6861 206.745 62.2909 206.778C61.8957 206.812 61.5461 207.015 61.4914 207.237L61.1874 208.478C61.081 208.906 60.3392 209.335 59.5914 209.39L58.8922 209.447C58.1231 209.511 57.585 209.198 57.6944 208.754L58.345 206.134L58.3571 206.152ZM63.4461 204.936L64.0936 202.316C64.1435 202.102 64.1173 201.878 64.0196 201.682C63.9219 201.487 63.7588 201.331 63.5586 201.242C62.9816 200.961 62.3347 200.855 61.6981 200.938L60.9959 200.984C60.2608 201.041 59.547 201.258 58.9043 201.619C58.2963 201.966 57.9103 202.398 57.8039 202.835L57.5242 203.969C57.4695 204.191 57.737 204.346 58.1322 204.313C58.5274 204.279 58.877 204.076 58.9317 203.854L59.2114 202.72C59.2585 202.587 59.3313 202.465 59.4258 202.361C59.5202 202.257 59.6343 202.172 59.7616 202.112C60.0825 201.93 60.4396 201.821 60.8074 201.793L61.5066 201.735C61.8242 201.694 62.1467 201.748 62.4338 201.89C62.5344 201.934 62.6164 202.012 62.6653 202.11C62.7142 202.209 62.7269 202.321 62.7013 202.428L62.0538 205.048C61.9474 205.48 61.2026 205.909 60.4578 205.96C60.0717 205.994 59.716 206.198 59.6583 206.423C59.6005 206.648 59.8711 206.8 60.2663 206.766C61.0009 206.709 61.7145 206.493 62.3578 206.134C62.9658 205.784 63.3519 205.356 63.4613 204.918L63.4461 204.936Z" fill="white"/>
<path d="M69.8909 194.798V193.202C69.9051 192.928 69.9839 192.662 70.1207 192.425C70.2576 192.187 70.4486 191.986 70.6782 191.837L90.7878 180.218C91.0322 180.093 91.3025 180.028 91.5767 180.028C91.8509 180.028 92.1212 180.093 92.3656 180.218L104.109 187C104.339 187.149 104.531 187.35 104.668 187.587C104.806 187.825 104.885 188.091 104.9 188.365V189.961C104.885 190.235 104.806 190.501 104.668 190.738C104.531 190.976 104.339 191.177 104.109 191.326L83.9965 202.945C83.7521 203.069 83.4818 203.134 83.2076 203.134C82.9334 203.134 82.6631 203.069 82.4187 202.945L70.6782 196.166C70.4486 196.016 70.2575 195.814 70.1207 195.576C69.9839 195.338 69.9051 195.071 69.8909 194.798Z" fill="#E0E0E0"/>
<path d="M104.897 188.362V189.958C104.882 190.231 104.804 190.498 104.667 190.735C104.53 190.972 104.339 191.174 104.109 191.323L83.9966 202.942C83.7549 203.072 83.4836 203.137 83.2092 203.13V199.713C83.4834 199.718 83.7544 199.654 83.9966 199.525L104.109 187.912C104.489 187.693 104.538 187.353 104.252 187.103C104.441 187.257 104.596 187.448 104.707 187.665C104.818 187.882 104.882 188.119 104.897 188.362Z" fill="#F0F0F0"/>
<path d="M74.3383 198.275L71.2983 198.865V202.291C71.2996 202.351 71.3145 202.41 71.3418 202.464C71.3692 202.518 71.4083 202.564 71.4563 202.6C71.5043 202.637 71.5598 202.662 71.6188 202.673C71.6778 202.685 71.7387 202.683 71.7969 202.668L78.7889 200.844V197.418L74.3383 198.275Z" fill="#F0F0F0"/>
<path d="M83.209 199.57C82.9595 199.577 82.7125 199.519 82.4916 199.403L78.7889 197.275L71.7422 199.127H71.6722C71.6245 199.125 71.5781 199.111 71.538 199.085C71.498 199.059 71.466 199.022 71.4455 198.979C71.425 198.936 71.4169 198.888 71.4221 198.84C71.4272 198.793 71.4454 198.748 71.4746 198.71L74.542 194.813L70.7511 192.624C70.6771 192.605 70.6116 192.562 70.5647 192.502C70.5179 192.442 70.4924 192.367 70.4924 192.291C70.4924 192.215 70.5179 192.141 70.5647 192.08C70.6116 192.02 70.6771 191.977 70.7511 191.958L90.8638 180.339C91.0863 180.227 91.332 180.169 91.5812 180.169C91.8304 180.169 92.0761 180.227 92.2986 180.339L104.039 187.119C104.113 187.137 104.179 187.18 104.226 187.241C104.272 187.301 104.298 187.375 104.298 187.451C104.298 187.528 104.272 187.602 104.226 187.662C104.179 187.722 104.113 187.765 104.039 187.784L83.9265 199.403C83.7056 199.519 83.4586 199.577 83.209 199.57Z" fill="#FAFAFA"/>
<path d="M91.5812 180.312C91.806 180.308 92.0284 180.359 92.2287 180.461L103.969 187.24C104.082 187.307 104.155 187.386 104.155 187.45C104.155 187.514 104.082 187.596 103.969 187.663L83.8565 199.279C83.6553 199.378 83.4337 199.43 83.209 199.43C82.9843 199.43 82.7627 199.378 82.5615 199.279L78.9135 197.172L78.8132 197.114L78.7007 197.144L71.7087 198.968H71.6752C71.6539 198.968 71.6331 198.961 71.6154 198.95C71.5976 198.938 71.5836 198.921 71.5749 198.902C71.5653 198.883 71.5616 198.861 71.5643 198.84C71.567 198.819 71.576 198.799 71.5901 198.783L74.5541 195.013L74.7578 194.758L74.4751 194.594L70.8271 192.487C70.7116 192.42 70.6416 192.338 70.6416 192.274C70.6416 192.211 70.7116 192.132 70.8271 192.065L90.9397 180.446C91.1398 180.343 91.3624 180.292 91.5872 180.297M91.5872 180.014C91.3119 180.008 91.0397 180.073 90.7968 180.203L70.6842 191.821C70.2495 192.071 70.2495 192.478 70.6842 192.733L74.3322 194.84L71.3682 198.61C71.3224 198.668 71.2938 198.738 71.2854 198.811C71.2771 198.885 71.2894 198.959 71.3209 199.026C71.3525 199.093 71.4021 199.15 71.4641 199.19C71.5262 199.23 71.5982 199.253 71.6722 199.254C71.7075 199.259 71.7433 199.259 71.7786 199.254L78.7706 197.43L82.4186 199.537C82.662 199.665 82.9339 199.73 83.209 199.725C83.4832 199.731 83.7542 199.666 83.9964 199.537L104.109 187.912C104.547 187.66 104.547 187.252 104.109 187L92.3685 180.221C92.1269 180.091 91.8555 180.026 91.5812 180.032L91.5872 180.014Z" fill="#E0E0E0"/>
<path d="M83.653 194.922C83.5352 194.916 83.4211 194.879 83.3216 194.816L78.0198 191.752C77.8374 191.648 77.9104 191.502 78.2387 191.314L78.5761 191.119C78.9004 190.931 79.1527 190.888 79.3331 190.992L83.8749 193.615L85.1304 192.892C85.2221 192.838 85.3298 192.819 85.4344 192.837C85.5694 192.863 85.6983 192.915 85.8144 192.989L86.0758 193.138C86.1804 193.187 86.2704 193.262 86.3373 193.357C86.3646 193.417 86.3373 193.475 86.243 193.527L83.9843 194.831C83.8845 194.892 83.7697 194.923 83.653 194.922Z" fill="#514C9F"/>
<path d="M81.9718 190.04L81.4672 189.736C81.2878 189.633 81.3851 189.472 81.7712 189.256C82.1573 189.04 82.4491 188.952 82.6315 189.07L83.1361 189.374C83.3155 189.478 83.2182 189.639 82.8321 189.858C82.4461 190.076 82.1603 190.146 81.9718 190.04ZM86.7993 192.898L82.9081 190.648C82.7298 190.545 82.8088 190.396 83.1453 190.201L83.3793 190.064C83.7178 189.862 83.9762 189.816 84.1545 189.928L88.0518 192.168C88.2322 192.271 88.1532 192.42 87.8147 192.615L87.5806 192.752C87.2493 192.958 86.9909 193.004 86.8085 192.901L86.7993 192.898Z" fill="#514C9F"/>
<path d="M88.9243 191.679L86.237 190.128C85.9486 189.954 85.6502 189.798 85.3432 189.66C85.1456 189.578 85.0392 189.526 84.9906 189.505C84.8872 189.444 84.9328 189.335 85.1213 189.171C85.2887 189.022 85.4699 188.89 85.6624 188.775C85.7521 188.716 85.86 188.691 85.9664 188.705C86.071 188.727 86.1729 188.759 86.2704 188.803C86.3829 188.851 86.471 188.891 86.5379 188.915C86.4742 188.743 86.4742 188.553 86.5379 188.38C86.6302 188.175 86.7915 188.008 86.9939 187.909C87.2973 187.732 87.6468 187.651 87.9971 187.675C88.3915 187.708 88.7726 187.833 89.1098 188.04L92.1498 189.8C92.3291 189.906 92.2562 190.049 91.9309 190.238L91.6451 190.405C91.3199 190.593 91.0675 190.636 90.8851 190.529L88.1218 188.933C88.002 188.859 87.8687 188.81 87.7296 188.788C87.6075 188.774 87.4845 188.802 87.38 188.867C87.3075 188.9 87.251 188.96 87.2225 189.035C87.1941 189.109 87.1961 189.192 87.228 189.265L90.1799 190.952C90.2711 191.004 90.2984 191.064 90.265 191.137C90.1879 191.246 90.0828 191.331 89.961 191.384L89.657 191.554C89.356 191.742 89.1037 191.782 88.9243 191.679Z" fill="#514C9F"/>
<path d="M96.4666 187.48C96.5578 187.532 96.4666 187.641 96.1626 187.812L95.6914 188.082C95.6138 188.134 95.5272 188.171 95.436 188.192C95.3588 188.208 95.2791 188.208 95.2019 188.192L92.5237 187.511L92.4294 187.565L94.2534 188.617C94.4338 188.721 94.3609 188.867 94.0346 189.055L93.764 189.21C93.4377 189.399 93.1854 189.441 93.007 189.338L87.1763 185.969C86.9939 185.866 87.0669 185.72 87.3952 185.532L87.6627 185.377C87.991 185.188 88.2434 185.146 88.4227 185.249L91.9278 187.274L91.9704 187.249L91.0007 185.863C90.9611 185.802 90.952 185.754 90.9703 185.723C91.0285 185.665 91.0964 185.616 91.1709 185.58L91.6087 185.328C91.9127 185.152 92.1103 185.091 92.2167 185.149C92.2644 185.184 92.3038 185.23 92.3322 185.282L93.3354 186.778L96.2598 187.426C96.3308 187.435 96.4002 187.454 96.4666 187.48Z" fill="#514C9F"/>
<path d="M16.4083 106.969C16.8855 106.233 17.4662 105.829 17.983 105.789L20.5943 96.7485C20.4219 96.6466 20.2785 96.5021 20.1779 96.329C19.5972 95.3926 19.807 93.593 20.643 92.304C21.479 91.015 22.6281 90.7354 23.2057 91.6747C23.7833 92.6141 23.5766 94.4107 22.7406 95.6997C22.2633 96.4354 21.6827 96.8397 21.1659 96.8792L18.5545 105.92C18.7263 106.023 18.8695 106.167 18.971 106.34C19.0935 106.545 19.1799 106.771 19.2263 107.005L25.0236 103.123C25.0678 102.249 25.3392 101.401 25.811 100.664C26.6439 99.3842 27.7961 99.1014 28.3737 100.056C28.9513 101.011 28.7446 102.792 27.9086 104.081C27.0726 105.37 25.9235 105.65 25.3459 104.71C25.222 104.505 25.1356 104.28 25.0905 104.044L19.2932 107.911C19.2465 108.783 18.9753 109.628 18.5059 110.365C17.6699 111.651 16.5207 111.933 15.9401 110.994C15.3595 110.055 15.5723 108.264 16.4083 106.969Z" fill="#EA6B0C"/>
<path d="M110.378 200.543C110.405 202.045 110.524 204.231 110.378 204.854C110.232 205.477 107.727 206.07 105.769 206.173C103.812 206.277 101.456 205.961 101.316 207.335C101.176 208.709 102.398 209.645 103.298 210.071C104.818 210.776 106.529 210.624 108.028 210.402C109.527 210.18 110.323 210.344 111.907 210.73C113.491 211.116 114.382 210.879 115.056 210.539C116.06 210.037 115.792 208.326 115.44 207.21C115.087 206.094 115.136 205.082 115.257 203.529C115.379 201.975 115.829 199.725 115.829 199.725L110.378 200.543Z" fill="#FFBDA7"/>
<path d="M115.439 207.201C115.439 207.201 115.439 207.675 114.412 207.891C113.384 208.107 111.676 208.049 110.49 208.128C108.703 208.244 107.344 208.447 105.295 208.128C103.495 207.845 103.571 206.42 105.183 206.192C103.359 206.222 101.443 206.097 101.316 207.335C101.173 208.724 102.398 209.645 103.298 210.071C104.818 210.776 106.529 210.624 108.028 210.402C109.527 210.18 110.323 210.344 111.907 210.73C113.491 211.116 114.382 210.879 115.056 210.539C116.06 210.028 115.792 208.316 115.439 207.201Z" fill="#36336A"/>
<path d="M128.973 196.816C129.813 198.032 131.202 200.336 131.405 200.911C131.609 201.486 131.77 203.629 131.405 204.255C130.88 204.638 130.056 204.863 129.35 205.207C128.335 205.708 128.116 206.541 128.782 207.176C129.694 208.067 131.214 208.171 132.105 208.119C133.418 207.918 133.509 206.447 133.698 205.146C133.886 203.845 133.652 201.288 134.649 199.716C135.646 198.145 137.385 197.996 137.613 198.519C137.507 197.728 137.069 197.704 136.124 197.169C135.178 196.634 134.351 196.649 133.828 195.406C133.22 193.937 132.643 192.18 132.643 192.18L128.973 196.816Z" fill="#FFBDA7"/>
<path d="M130.822 208.152C131.764 208.31 132.427 208.307 134.102 207.487C135.546 206.778 135.926 206.48 136.133 206.085C136.482 205.477 136.105 203.93 136.409 202.604C136.633 201.673 136.953 200.767 137.364 199.902C137.689 199.099 137.668 198.753 137.613 198.519C137.501 198.017 136.479 197.953 135.506 198.519C134.534 199.084 133.904 200.16 133.585 202.723C133.266 205.286 133.758 208.088 130.822 208.152Z" fill="#263238"/>
<path d="M137.604 198.519C137.498 197.728 137.224 197.607 136.276 197.075C135.926 196.877 135.579 196.734 135.257 196.567C134.345 196.394 132.895 197.114 132.825 199.038C132.755 200.963 133.081 203.401 132.503 204.307C132.01 205.076 131.199 205.024 131.387 204.261C130.086 204.738 129.639 204.744 128.907 205.146C128.062 205.608 127.776 206.818 128.557 207.304C129.59 208.008 130.849 208.3 132.086 208.125C133.4 207.924 133.491 206.453 133.679 205.152C133.868 203.851 133.652 201.288 134.649 199.716C135.646 198.145 137.385 197.996 137.604 198.519Z" fill="#36336A"/>
<path d="M129.223 197.579C129.223 197.579 124.453 190.572 121.903 186.027C120.018 182.683 119.847 182.02 119.385 179.826C118.391 175.108 118.169 174.001 118.169 174.001L116.689 183.531C116.926 184.565 117.403 186.614 117.422 187.818C117.409 190.171 117.218 192.519 116.85 194.843C116.507 197.462 116.023 200.061 115.4 202.629C115.029 202.887 113.953 202.933 113.017 202.905C112.108 202.851 111.209 202.684 110.341 202.407C110.341 202.407 109.563 191.177 109.381 188.085C109.165 184.38 109.077 182.917 108.973 180.887C108.788 177.646 108.347 172.949 108.472 166.994C108.724 155.138 111.363 149.736 111.363 149.736L124.739 147.878C125.848 151.87 128.156 152.335 128.387 157.783C128.445 159.02 127.779 161.476 127.779 163.394C127.709 169.62 127.153 179.4 127.153 179.4C128.621 180.756 129.697 181.978 130.709 185.121C131.317 187.027 132.695 191.855 133.269 193.816C131.57 193.819 129.202 196.816 129.223 197.579Z" fill="#36336A"/>
<path d="M115.716 156.57L116.069 156.515C116.373 158.661 116.893 161.096 117.175 161.291C117.668 161.625 119.486 161.899 119.896 161.795C120.306 161.692 120.665 161.361 121.392 160.373C121.902 159.68 121.848 159.248 121.726 158.302C121.684 157.95 121.632 157.548 121.598 157.044L121.957 157.02C121.988 157.512 122.039 157.907 122.082 158.257C122.203 159.208 122.276 159.777 121.678 160.595C120.893 161.662 120.495 162.026 119.978 162.151C119.903 162.168 119.827 162.178 119.75 162.181C119.03 162.212 117.464 161.926 116.978 161.595C116.415 161.224 115.859 157.655 115.716 156.57Z" fill="#36336A"/>
<path d="M110.226 156.253L110.569 156.354C109.557 160.002 109.779 163.324 111.591 164.337C111.922 161.88 112.387 159.342 113.029 156.624L113.375 156.709C111.314 165.459 111.065 172.35 111.329 180.634C111.533 186.945 111.937 197.792 112.12 202.826L111.758 202.765C111.57 197.701 111.174 186.927 110.974 180.646C110.791 175.041 110.852 170.064 111.542 164.723C109.466 163.668 109.138 160.157 110.226 156.253Z" fill="#36336A"/>
<path d="M128.235 159.518C128.012 159.731 127.742 159.89 127.447 159.98C126.882 160.008 125.949 159.202 125.681 158.597C125.553 158.248 125.473 157.883 125.444 157.512C125.389 156.962 125.288 156.418 125.14 155.886L125.484 155.782C125.631 156.334 125.732 156.898 125.788 157.466C125.81 157.806 125.876 158.141 125.985 158.464C126.21 158.974 127.028 159.646 127.405 159.631C127.746 159.456 128.049 159.215 128.296 158.923C128.296 159.087 128.262 159.336 128.235 159.518Z" fill="#36336A"/>
<path d="M130.345 195.694C130.43 195.597 130.512 195.503 130.6 195.412C128.317 191.429 123.413 182.717 122.976 180.604C122.413 177.895 121.456 168.821 121.41 163.939H121.051C121.091 168.839 122.061 177.956 122.626 180.677C123.082 182.893 128.077 191.742 130.345 195.694Z" fill="#36336A"/>
<path d="M123.349 155.147C124.261 156.591 124.809 159.123 123.635 161.899L123.316 161.768C124.432 159.12 123.924 156.722 123.058 155.357L123.349 155.147Z" fill="#36336A"/>
<path d="M118.148 174.004L119.601 164.011C119.601 164.011 123.362 163.486 123.882 159.959C123.973 162.051 123.137 163.85 120.802 164.823L118.936 174.047L119.373 179.823L118.148 174.004Z" fill="#36336A"/>
<path d="M93.5026 128.735V118.427C93.5201 118.331 93.5083 118.232 93.4687 118.143C93.4291 118.054 93.3636 117.979 93.2807 117.928C93.1954 117.88 93.0973 117.859 92.9999 117.869C92.9025 117.879 92.8104 117.919 92.7365 117.983L88.2312 120.585C88.1412 120.648 88.0669 120.73 88.0142 120.826C87.9614 120.922 87.9317 121.029 87.9272 121.138V131.447C87.9084 131.543 87.92 131.642 87.9603 131.731C88.0006 131.819 88.0676 131.893 88.1519 131.942C88.2363 131.991 88.3338 132.012 88.4308 132.003C88.5279 131.994 88.6196 131.955 88.6933 131.891L93.2016 129.289C93.2975 129.233 93.3763 129.152 93.4293 129.054C93.4824 128.956 93.5077 128.846 93.5026 128.735Z" fill="#36336A"/>
<path d="M93.2201 128.839L88.5871 131.514V121.16L88.0065 120.825C87.9506 120.917 87.9192 121.022 87.9153 121.129V131.438C87.9001 131.534 87.9133 131.632 87.9533 131.721C87.9933 131.809 88.0583 131.884 88.1403 131.937C88.2258 131.982 88.3228 132.001 88.4191 131.991C88.5154 131.981 88.6067 131.943 88.6814 131.882L93.1897 129.28C93.3133 129.213 93.4099 129.105 93.4633 128.976H93.4451L93.2201 128.839Z" fill="#263238"/>
<path d="M93.1775 118.332L88.66 120.941C88.5952 120.984 88.5411 121.042 88.5021 121.109C88.4631 121.177 88.4402 121.252 88.4351 121.33V131.55C88.4351 131.769 88.5901 131.854 88.7816 131.748L93.1805 129.21C93.254 129.161 93.3151 129.096 93.3589 129.019C93.4027 128.943 93.4281 128.857 93.4328 128.769V118.478C93.4298 118.317 93.3173 118.253 93.1775 118.332Z" fill="#36336A"/>
<path d="M93.22 118.995V128.51C93.2154 128.594 93.191 128.676 93.1487 128.748C93.1064 128.82 93.0475 128.882 92.9768 128.927L88.9032 131.28C88.7695 131.359 88.6631 131.28 88.6631 131.143V121.552C88.6706 121.414 88.7317 121.284 88.8333 121.19L88.8546 121.169L88.9032 121.135L90.0493 120.476L90.1253 120.43C90.1648 120.409 90.1983 120.43 90.1983 120.476C90.1983 120.521 90.2348 120.54 90.2804 120.515L91.6149 119.743C91.6372 119.729 91.6559 119.71 91.6696 119.687C91.6833 119.664 91.6917 119.639 91.694 119.612C91.6953 119.588 91.702 119.564 91.7136 119.543C91.7251 119.521 91.7413 119.502 91.7608 119.488L92.8826 118.84H92.9039C93.0741 118.725 93.22 118.804 93.22 118.995Z" fill="#263238"/>
<path d="M92.8827 118.834V128.285C92.8779 128.369 92.8533 128.45 92.811 128.523C92.7688 128.595 92.71 128.657 92.6395 128.702L88.6602 131.003V121.552C88.6677 121.414 88.7288 121.284 88.8304 121.19L88.8517 121.169L88.9003 121.135L90.0464 120.476L90.1224 120.43C90.1619 120.409 90.1954 120.43 90.1954 120.476C90.1954 120.521 90.2318 120.54 90.2774 120.515L91.612 119.743C91.6343 119.729 91.653 119.71 91.6667 119.687C91.6804 119.664 91.6887 119.639 91.691 119.612C91.6924 119.588 91.6991 119.564 91.7106 119.543C91.7222 119.521 91.7383 119.502 91.7579 119.488L92.8827 118.834Z" fill="white"/>
<path d="M90.484 120.12L91.092 119.767C91.1285 119.746 91.1558 119.767 91.1558 119.801C91.1546 119.823 91.1481 119.844 91.137 119.863C91.1259 119.882 91.1105 119.898 91.092 119.91L90.484 120.263C90.4475 120.284 90.4202 120.263 90.4202 120.229C90.4214 120.207 90.4279 120.186 90.439 120.167C90.4501 120.148 90.4655 120.132 90.484 120.12Z" fill="#263238"/>
<path d="M91.3962 119.542C91.4388 119.521 91.4722 119.542 91.4722 119.585C91.4709 119.611 91.4634 119.637 91.4501 119.66C91.4369 119.682 91.4184 119.702 91.3962 119.716C91.3567 119.74 91.3232 119.716 91.3232 119.673C91.3246 119.647 91.3319 119.622 91.3446 119.599C91.3572 119.577 91.3749 119.557 91.3962 119.542Z" fill="#263238"/>
<path d="M88.3288 122.449C88.3278 122.407 88.3169 122.365 88.2968 122.328C88.2767 122.291 88.2481 122.26 88.2132 122.236C88.2008 122.229 88.1866 122.225 88.1722 122.225C88.1578 122.225 88.1436 122.229 88.1312 122.236L88.043 122.288C88.0304 122.297 88.0204 122.309 88.014 122.324C88.0076 122.338 88.005 122.354 88.0065 122.37V123.26C88.0078 123.303 88.0192 123.344 88.0399 123.381C88.0605 123.418 88.0897 123.45 88.1251 123.473C88.1367 123.48 88.1498 123.483 88.1631 123.483C88.1764 123.483 88.1894 123.48 88.2011 123.473L88.2923 123.421C88.3054 123.412 88.3157 123.399 88.3221 123.384C88.3286 123.369 88.3308 123.352 88.3288 123.336V122.449Z" fill="#36336A"/>
<path d="M88.2407 122.497V123.388C88.2407 123.467 88.189 123.501 88.1251 123.464C88.0898 123.441 88.0605 123.409 88.0399 123.372C88.0193 123.335 88.0079 123.294 88.0066 123.251V122.361C88.0066 122.281 88.0583 122.248 88.1251 122.285C88.1596 122.309 88.188 122.34 88.208 122.377C88.2281 122.414 88.2393 122.455 88.2407 122.497Z" fill="#36336A"/>
<path d="M88.3288 124.005C88.3274 123.963 88.3162 123.921 88.2962 123.884C88.2762 123.846 88.2478 123.814 88.2132 123.789C88.2006 123.783 88.1865 123.779 88.1722 123.779C88.1579 123.779 88.1438 123.783 88.1312 123.789L88.043 123.841C88.0304 123.85 88.0204 123.863 88.014 123.877C88.0076 123.892 88.005 123.907 88.0065 123.923V124.814C88.0078 124.856 88.0192 124.898 88.0399 124.935C88.0605 124.972 88.0897 125.003 88.1251 125.027C88.1367 125.033 88.1498 125.036 88.1631 125.036C88.1764 125.036 88.1894 125.033 88.2011 125.027L88.2923 124.975C88.3054 124.965 88.3157 124.952 88.3221 124.937C88.3286 124.922 88.3308 124.906 88.3288 124.89V124.005Z" fill="#36336A"/>
<path d="M88.2407 124.054V124.944C88.2407 125.024 88.189 125.057 88.1251 125.02C88.0898 124.997 88.0605 124.966 88.0399 124.929C88.0193 124.892 88.0079 124.85 88.0066 124.808V123.917C88.0066 123.838 88.0583 123.804 88.1251 123.841C88.1596 123.865 88.188 123.897 88.208 123.934C88.2281 123.971 88.2393 124.012 88.2407 124.054Z" fill="#36336A"/>
<path d="M125.86 131.739C128.292 132.316 129.612 132.991 130.615 136.299C131.563 139.43 133.15 144.717 133.567 146.96C133.77 148.052 133.871 149.088 132.351 149.736C128.916 151.189 125.605 152.207 125.605 152.207L124.264 148.152L127.937 146.328L127.025 143.373L125.86 131.739Z" fill="#FFBDA7"/>
<path d="M127.931 146.322C128.241 147.026 128.776 147.607 129.451 147.976C128.557 148.085 127.685 147.149 127.457 146.562L127.931 146.322Z" fill="#F0997A"/>
<path d="M114.038 119.624C113.612 119.056 113.673 118.205 113.977 117.566C114.281 116.928 114.871 116.268 116.5 115.566C118.44 114.73 123.726 114.177 125.754 117.715C126.058 118.244 120.528 127.601 120.638 129.59C119.422 128.118 115.442 122.962 115.442 122.962C114.448 122.455 113.856 122.05 113.707 121.056C113.663 120.556 113.779 120.055 114.038 119.624Z" fill="#263238"/>
<path d="M114.616 122.367C114.616 122.367 113.071 124.531 113.211 124.726C113.515 125.004 113.842 125.256 114.19 125.476L114.616 122.367Z" fill="#F0997A"/>
<path d="M116.628 118.366C115.667 118.74 114.804 119.393 114.379 121.406C114.263 121.932 114.628 122.692 114.379 123.388C113.354 126.364 114.132 128.963 114.683 129.562C115.056 129.967 117.115 130.283 118.242 130.058C119.638 129.772 122.705 128.641 124.274 126.604C126.122 124.206 126.751 120.85 124.991 119.36C122.529 117.269 117.656 117.968 116.628 118.366Z" fill="#FFBDA7"/>
<path d="M123.273 128.261L123.45 131.286C125.128 132.268 121.653 133.548 117.978 131.97L117.71 129.234L123.273 128.261Z" fill="#FFBDA7"/>
<path d="M117.826 130.486C117.893 131.186 117.963 132.231 116.877 132.52C115.859 132.794 114.211 132.961 112.603 133.563C112.603 133.563 118.394 134.475 121.419 133.976C124.444 133.478 124.985 131.52 124.985 131.52C123.891 131.374 123.435 131.192 123.392 130.486H117.826Z" fill="#FFBDA7"/>
<path d="M114.804 129.653C115.269 129.957 116.324 130.231 117.792 130.131L117.725 129.374C117.265 129.519 116.791 129.621 116.312 129.678C115.811 129.744 115.303 129.736 114.804 129.653Z" fill="#F0997A"/>
<path d="M115.178 119.357C115.035 120.673 115.835 121.151 116.394 121.452C116.133 121.922 116.009 122.456 116.038 122.993C116.123 123.671 116.342 124.239 116.984 124.513C117.376 124.677 117.51 124.513 117.674 124.209C117.911 123.771 118.218 123.096 119.179 123.297C120.282 123.531 120.458 125.227 119.729 126.279C119.587 126.502 119.394 126.687 119.165 126.819C118.936 126.951 118.679 127.025 118.416 127.036C118.271 127.024 118.131 126.981 118.005 126.91C117.879 126.839 117.769 126.742 117.683 126.626C117.683 126.626 117.652 128.094 119.473 129.094C119.473 129.094 121.297 130.31 123.286 129.863C124.235 128.954 125.134 127.994 125.979 126.987C128.247 124.166 128.715 118.804 125.289 117.582C125.125 117.524 122.307 116.809 120.729 117.037C115.935 117.712 115.202 119.129 115.178 119.357Z" fill="#263238"/>
<path d="M125.748 117.715C126.289 117.715 127.925 118.551 127.922 122.187C127.922 124.641 127.314 127.927 126.529 129.465C124.426 131.785 118.321 132.228 115.64 131.256C117.385 130.456 117.698 128.289 117.689 126.61C118.486 127.826 119.945 128.103 121.708 127.218C123.471 126.334 125.748 117.715 125.748 117.715Z" fill="#263238"/>
<path d="M128.22 134.748C127.715 132.292 126.396 131.76 125.788 131.654C124.842 131.487 124.268 131.389 124.268 131.389C124.286 131.693 124.477 132.371 121.763 132.712C120.015 132.931 117.005 132.484 117.005 132.484L114.315 132.848C113.321 133.456 110.883 135.809 109.733 138.524C108.821 140.67 109.165 142.856 110.785 144.452C110.91 145.799 110.691 148.468 110.691 148.468C109.758 153.332 109.238 155.384 109.238 155.384C109.238 155.384 110.512 157.375 118.759 157.19C125.143 157.047 128.092 154.192 128.092 154.192C127.907 153.238 127.241 151.195 126.034 148.018C126.186 144.911 129.311 140.056 128.22 134.748Z" fill="#514C9F"/>
<path d="M100.601 136.269C100.601 136.269 94.436 132.484 94.0651 131.976C93.7399 131.541 93.7611 131 93.6882 130.489C93.5961 129.905 93.42 129.337 93.1653 128.802C93.0042 128.45 92.7823 128.118 92.6424 127.76C92.5026 127.401 92.5269 127.063 92.4053 126.729C92.2837 126.395 91.9432 126.501 91.7304 126.729C91.4712 127.062 91.3513 127.483 91.396 127.902C91.396 128.088 91.4143 128.273 91.4264 128.459C91.4566 128.629 91.4688 128.802 91.4629 128.976C91.4579 129.066 91.4238 129.152 91.3656 129.222C91.2258 129.346 90.9643 129.152 90.8488 129.058C90.0863 128.43 89.4577 127.656 89.0005 126.781C88.8059 126.404 88.6965 126.012 88.4624 125.647C88.2647 125.306 88.0155 124.999 87.7237 124.735C87.532 124.55 87.2914 124.425 87.0306 124.373C86.6111 124.397 86.8421 125.124 86.8755 125.355C86.9316 125.614 86.9137 125.884 86.8239 126.133C86.7029 126.425 86.7029 126.753 86.8239 127.045C86.9151 127.349 87.0944 127.714 87.0367 128.036C87.0086 128.151 86.973 128.264 86.9303 128.374C86.8567 128.726 86.8949 129.093 87.0397 129.422C87.1839 129.727 87.2119 130.074 87.1187 130.398C86.9667 131.155 87.5626 131.918 88.0307 132.465C88.5742 133.065 89.1864 133.599 89.8547 134.055C90.2074 134.308 90.5418 134.584 90.9005 134.828C91.2592 135.071 91.5663 135.229 91.8733 135.469C92.5968 136.044 95.3571 138.725 98.5613 141.321C99.6223 142.178 99.9475 142.476 102.003 142.105C105.699 141.44 106.532 141.254 108.742 140.844C112.114 140.217 112.53 140.114 112.53 140.114C114.631 139.202 114.926 136.682 114.98 135.423C115.035 134.518 114.805 133.619 114.321 132.852C112.396 132.94 110.736 133.39 107.657 134.289C104.018 135.35 100.601 136.269 100.601 136.269Z" fill="#FFBDA7"/>
<path d="M119.699 112.742L118.531 110.547L119.471 107.835V106.176L116.595 107.835V109.495L117.832 111.623C117.851 111.655 117.88 111.681 117.914 111.696L119.699 112.742Z" fill="#514C9F"/>
<path opacity="0.2" d="M119.699 112.742L118.531 110.547L119.471 107.835V106.176L116.595 107.835V109.495L117.832 111.623C117.851 111.655 117.88 111.681 117.914 111.696L119.699 112.742Z" fill="#36336A"/>
<path d="M125.873 91.6656C125.857 91.3663 125.77 91.0751 125.62 90.8157C125.47 90.5563 125.261 90.336 125.009 90.173L124.307 89.7656C124.04 89.6307 123.745 89.5604 123.445 89.5604C123.146 89.5604 122.851 89.6307 122.583 89.7656L112.676 95.5142C112.423 95.6779 112.212 95.8994 112.061 96.1604C111.909 96.4215 111.822 96.7147 111.807 97.016V110.568C111.823 110.868 111.909 111.159 112.059 111.418C112.209 111.678 112.419 111.898 112.67 112.061L113.372 112.465C113.639 112.602 113.934 112.673 114.234 112.673C114.534 112.673 114.829 112.602 115.096 112.465L118.4 110.55L119.635 112.678C119.652 112.709 119.678 112.734 119.709 112.75C119.74 112.766 119.775 112.773 119.81 112.77C119.845 112.767 119.878 112.754 119.906 112.732C119.934 112.71 119.955 112.681 119.966 112.648L121.27 108.872L125.009 106.701C125.26 106.538 125.469 106.317 125.619 106.058C125.769 105.799 125.856 105.508 125.873 105.209V91.6656Z" fill="#514C9F"/>
<path opacity="0.2" d="M111.807 110.559C111.823 110.858 111.909 111.15 112.059 111.409C112.209 111.668 112.419 111.889 112.67 112.052L113.372 112.456C113.615 112.579 113.881 112.648 114.152 112.66C114.424 112.672 114.694 112.627 114.947 112.526C114.543 112.681 114.233 112.45 114.233 111.961V98.4083C114.243 98.1087 114.33 97.8168 114.485 97.5601L112.053 96.1587C111.898 96.4155 111.812 96.7073 111.801 97.0069L111.807 110.559Z" fill="#36336A"/>
<path opacity="0.3" d="M125.845 91.4194C125.742 91.0546 125.411 90.936 125.012 91.1671L115.108 96.9157C114.852 97.0732 114.642 97.2955 114.5 97.5602L112.068 96.1618C112.212 95.8985 112.422 95.6766 112.676 95.5173L122.59 89.7656C122.857 89.6321 123.152 89.5626 123.451 89.5626C123.751 89.5626 124.046 89.6321 124.313 89.7656L125.019 90.173C125.233 90.3146 125.417 90.498 125.559 90.7121C125.701 90.9263 125.798 91.1668 125.845 91.4194Z" fill="white"/>
<path d="M122.659 95.8578C121.869 95.4018 120.863 95.4778 119.829 96.0736C117.54 97.4021 115.655 100.968 115.655 104.032C115.655 105.674 116.199 106.929 117.148 107.477C117.49 107.675 117.878 107.78 118.273 107.781C118.875 107.758 119.46 107.579 119.972 107.261C122.273 105.932 124.143 102.36 124.143 99.3021C124.149 97.6605 123.62 96.408 122.659 95.8578ZM115.971 103.762C116.057 102.174 116.515 100.629 117.306 99.2504C117.491 99.3384 117.687 99.3998 117.89 99.4328C117.439 100.598 117.193 101.832 117.163 103.081L115.971 103.762ZM120.06 101.746L122.349 100.424C122.296 101.601 122.048 102.762 121.617 103.859C121.073 103.855 120.538 103.989 120.06 104.248V101.746ZM120.06 101.4V98.916C120.682 98.5272 121.238 98.0407 121.705 97.475C122.154 98.2694 122.379 99.171 122.355 100.083L120.06 101.4ZM120.06 98.5542V96.3685C120.35 96.4058 120.628 96.5007 120.881 96.6474C121.133 96.7941 121.353 96.9897 121.529 97.2227C121.106 97.7387 120.609 98.1895 120.054 98.5603L120.06 98.5542ZM119.756 98.7366C119.318 98.9946 118.823 99.1408 118.315 99.1622C118.687 98.2589 119.171 97.406 119.756 96.6238V98.7366ZM118.197 99.4632H118.276C118.794 99.4478 119.301 99.3114 119.756 99.065V101.576L117.464 102.901C117.517 101.725 117.764 100.565 118.194 99.4693L118.197 99.4632ZM119.756 101.92V104.409C119.133 104.799 118.577 105.287 118.109 105.853C117.658 105.059 117.433 104.157 117.458 103.245L119.756 101.92ZM119.756 104.765V106.96C119.466 106.923 119.187 106.828 118.934 106.682C118.681 106.535 118.461 106.339 118.285 106.106C118.707 105.591 119.201 105.142 119.753 104.771L119.756 104.765ZM120.06 104.583C120.498 104.326 120.991 104.18 121.498 104.157C121.127 105.06 120.644 105.913 120.06 106.695V104.583ZM122.653 100.248L123.848 99.5605C123.759 101.148 123.301 102.693 122.51 104.072C122.325 103.984 122.129 103.922 121.927 103.889C122.372 102.727 122.616 101.498 122.647 100.254L122.653 100.248ZM123.854 99.2109L122.638 99.907C122.64 98.961 122.383 98.0325 121.893 97.2227C122.154 96.893 122.392 96.5467 122.608 96.1861C123.383 96.712 123.83 97.7942 123.848 99.217L123.854 99.2109ZM122.362 96.0341C122.166 96.3594 121.952 96.673 121.72 96.9734C121.381 96.5531 120.915 96.2534 120.392 96.1192C120.752 95.9544 121.142 95.8654 121.538 95.8578C121.82 95.859 122.099 95.9212 122.355 96.0402L122.362 96.0341ZM119.209 96.8762C118.724 97.5866 118.316 98.3469 117.993 99.144C117.802 99.1212 117.617 99.0678 117.443 98.9859C117.912 98.1944 118.507 97.484 119.203 96.8822L119.209 96.8762ZM115.965 104.111L117.166 103.415C117.162 104.362 117.42 105.291 117.911 106.1C117.651 106.429 117.412 106.776 117.197 107.136C116.421 106.625 115.978 105.528 115.959 104.117L115.965 104.111ZM117.458 107.285C117.652 106.961 117.866 106.648 118.096 106.349C118.433 106.769 118.897 107.068 119.419 107.2C119.117 107.356 118.785 107.445 118.445 107.461C118.106 107.476 117.767 107.419 117.452 107.291L117.458 107.285ZM120.598 106.44C121.085 105.73 121.493 104.968 121.814 104.169C122.005 104.193 122.19 104.247 122.365 104.327C121.896 105.124 121.3 105.838 120.598 106.44Z" fill="white"/>
</svg>
