<svg width="64" height="64" viewBox="0 0 64 64" fill="none" xmlns="http://www.w3.org/2000/svg">
<g clip-path="url(#clip0_385_4325)">
<path d="M61.7335 30C60.4001 30.9333 58.5335 31.6 56.4001 32.1333H56.2668C55.8668 32.1333 55.6001 31.8667 55.4668 31.4667C55.3335 31.0667 55.6001 30.6667 56.0001 30.5333C58.0001 30.1333 59.6001 29.4667 60.8001 28.6667V28.5333V28.4C60.8001 28.2667 60.8001 28 60.8001 27.7333C58.2668 29.0667 54.5335 29.8667 50.8001 29.8667C47.3335 29.8667 43.8668 29.2 41.4668 27.7333C41.4668 27.8667 41.4668 28.1333 41.4668 28.2667V28.4V28.5333C43.0668 29.7333 45.4668 30.6667 48.4001 30.9333C48.8001 30.9333 49.2001 31.3333 49.0668 31.7333C49.0668 32.1333 48.6668 32.4 48.2668 32.4H48.1335C45.8668 32.1333 42.8001 31.4667 40.5335 29.7333L39.8668 30.4C44.0001 32.4 47.4668 33.3333 50.6668 33.3333C54.2668 33.3333 57.7335 32.1333 61.8668 30.4L61.7335 30ZM44.9335 23.7333C46.1335 24.2667 47.3335 23.7333 48.2668 22.9333C47.0668 23.2 46.0001 23.4667 44.9335 23.7333ZM60.9335 25.2C60.4001 24.5333 59.3335 24 58.0001 23.4667C58.1335 24.2667 58.2668 25.0667 58.1335 25.8667C58.1335 26.2667 57.7335 26.5333 57.3335 26.5333C57.3335 26.5333 57.3335 26.5333 57.2001 26.5333C56.8001 26.5333 56.4001 26.1333 56.5335 25.7333C56.6668 24.6667 56.5335 23.7333 56.0001 22.8C55.0668 21.3333 53.4668 20.6667 52.5335 20.2667C52.2668 20.8 51.7335 21.6 50.9335 22.5333C48.1335 26 45.8668 25.8667 44.4001 25.2C44.0001 25.0667 43.8668 24.5333 44.0001 24.1333C44.0001 24 44.1335 24 44.1335 24C43.2001 24.4 42.4001 24.8 41.8668 25.3333C41.8668 25.4667 41.7335 25.6 41.7335 26C46.2668 29.6 56.6668 28.9333 60.9335 26C61.0668 25.6 61.0668 25.3333 60.9335 25.2ZM63.2001 31.8667C58.6668 33.8667 54.9335 35.0667 50.9335 35.0667C47.3335 35.0667 43.6001 34 39.0668 31.7333C38.9335 32.1333 38.6668 33.0667 38.8001 34.6667C38.9335 36.8 39.4668 38.1333 39.7335 38.4C41.8668 40.1333 46.6668 41.3333 51.7335 41.3333C56.6668 41.3333 60.8001 40.2667 62.5335 38.5333C63.3335 37.6 63.7335 32.9333 63.2001 31.8667ZM16.6668 19.3333C15.4668 19.3333 14.5335 20.2667 14.5335 21.4667C14.5335 22.6667 15.4668 23.6 16.6668 23.6C17.8668 23.6 18.8001 22.6667 18.8001 21.4667C18.8001 20.4 17.8668 19.3333 16.6668 19.3333ZM16.6668 19.3333C15.4668 19.3333 14.5335 20.2667 14.5335 21.4667C14.5335 22.6667 15.4668 23.6 16.6668 23.6C17.8668 23.6 18.8001 22.6667 18.8001 21.4667C18.8001 20.4 17.8668 19.3333 16.6668 19.3333ZM34.9335 21.4667C34.9335 21.2 34.8001 20.9333 34.8001 20.6667C34.0001 17.2 32.2668 14.2667 29.6001 12.2667C27.6001 10.8 25.0668 9.99999 22.5335 9.99999C19.8668 9.99999 17.4668 10.8 15.4668 12.2667C12.8001 14.1333 11.0668 17.2 10.2668 20.6667C10.2668 20.9333 10.1335 21.0667 10.1335 21.3333V21.4667C10.0001 22.4 9.8668 23.4667 9.8668 24.4C9.8668 32.1333 14.9335 40.4 22.5335 40.4C30.1335 40.4 35.2001 32.1333 35.2001 24.4C35.2001 23.4667 35.0668 22.4 34.9335 21.4667ZM12.9335 21.6C12.9335 19.6 14.5335 17.8667 16.5335 17.8667C18.5335 17.8667 20.1335 19.6 20.1335 21.6C20.1335 23.6 18.6668 25.3333 16.6668 25.3333C14.6668 25.3333 12.9335 23.6 12.9335 21.6ZM27.0668 34.8C25.8668 36.1333 24.1335 36.8 22.4001 36.8C20.6668 36.8 18.9335 36.1333 17.7335 34.8C17.4668 34.5333 17.4668 34 17.7335 33.7333C18.0001 33.4667 18.5335 33.4667 18.8001 33.7333C19.7335 34.8 21.0668 35.3333 22.4001 35.3333C23.7335 35.3333 24.9335 34.8 26.0001 33.7333C26.2668 33.4667 26.8001 33.3333 27.0668 33.7333C27.3335 34 27.3335 34.5333 27.0668 34.8ZM28.1335 25.3333C26.1335 25.3333 24.5335 23.6 24.5335 21.6C24.5335 19.6 26.1335 17.8667 28.1335 17.8667C30.1335 17.8667 31.8668 19.6 31.8668 21.6C31.8668 23.6 30.2668 25.3333 28.1335 25.3333ZM28.1335 19.3333C26.9335 19.3333 26.0001 20.2667 26.0001 21.4667C26.0001 22.6667 26.9335 23.6 28.1335 23.6C29.3335 23.6 30.2668 22.6667 30.2668 21.4667C30.2668 20.4 29.3335 19.3333 28.1335 19.3333ZM16.6668 19.3333C15.4668 19.3333 14.5335 20.2667 14.5335 21.4667C14.5335 22.6667 15.4668 23.6 16.6668 23.6C17.8668 23.6 18.8001 22.6667 18.8001 21.4667C18.8001 20.4 17.8668 19.3333 16.6668 19.3333ZM32.0001 8.13333C32.0001 9.33333 31.7335 10.5333 31.2001 11.6C33.0668 13.2 34.5335 15.3333 35.4668 17.7333C35.6001 18 35.7335 18.2667 35.7335 18.5333C35.8668 18.1333 35.8668 17.7333 35.8668 17.2C36.0001 13.8667 34.5335 10.6667 32.0001 8.13333ZM22.4001 0.399994C19.4668 0.399994 16.6668 1.99999 15.3335 4.39999C17.4668 3.33333 19.8668 2.66666 22.4001 2.66666C24.9335 2.66666 27.3335 3.19999 29.4668 4.39999C28.1335 1.99999 25.4668 0.399994 22.4001 0.399994ZM30.2668 6.93333C28.0001 5.19999 25.3335 4.39999 22.4001 4.39999C19.4668 4.39999 16.6668 5.33333 14.2668 7.06666L14.1335 7.19999L14.0001 7.33333C10.8001 9.73333 8.93346 13.3333 8.93346 17.3333C8.93346 17.7333 8.93346 18.2667 9.0668 18.6667C9.20013 18.4 9.20013 18.1333 9.33346 17.8667C10.4001 15.0667 12.1335 12.8 14.4001 11.0667C16.6668 9.33333 19.4668 8.39999 22.4001 8.39999C25.2001 8.39999 27.7335 9.19999 29.8668 10.6667C30.1335 9.86666 30.4001 8.93333 30.4001 7.99999C30.4001 7.73333 30.4001 7.33333 30.2668 6.93333ZM22.4001 46.2667C20.6668 46.2667 18.9335 46 17.3335 45.3333C16.4001 44.9333 15.4668 44.5333 14.5335 43.8667C15.4668 46.9333 18.5335 51.2 21.7335 55.0667C23.6001 52.9333 26.8001 48 28.8001 44.6667C26.8001 45.7333 24.6668 46.2667 22.4001 46.2667ZM42.2668 48.6667C40.0001 45.2 36.4001 43.0667 32.5335 42.8H31.7335C30.5335 44.8 25.3335 53.2 22.6668 56.1333C25.2001 59.0667 27.8668 61.8667 29.4668 63.4667H43.2001L43.7335 61.8667C45.4668 57.6 44.8001 52.5333 42.2668 48.6667ZM21.2001 56.8C21.0668 56.6667 21.0668 56.6667 21.0668 56.6667C17.2001 52.1333 13.2001 46.6667 12.6668 42.9333C12.5335 42.9333 12.5335 42.9333 12.4001 42.9333C8.53346 43.2 5.0668 45.3333 2.6668 48.8C0.133462 52.6667 -0.533204 57.6 0.933462 62.1333L1.4668 63.7333H27.2001C26.0001 62.1333 23.6001 59.6 21.2001 56.8ZM38.4001 6.93333C38.0001 6.93333 37.6001 6.53333 37.6001 6.13333V3.06666C37.6001 2.66666 38.0001 2.26666 38.4001 2.26666C38.8001 2.26666 39.2001 2.66666 39.2001 3.06666V6.13333C39.2001 6.66666 38.8001 6.93333 38.4001 6.93333Z" fill="#514C9F"/>
<path d="M40 5.46667H36.9333C36.5333 5.46667 36.1333 5.06667 36.1333 4.66667C36.1333 4.26667 36.5333 3.86667 36.9333 3.86667H40C40.4 3.86667 40.8 4.26667 40.8 4.66667C40.8 5.06667 40.4 5.46667 40 5.46667ZM47.0666 15.7333C46.6666 15.7333 46.2666 15.3333 46.2666 14.9333V11.7333C46.2666 11.3333 46.6666 10.9333 47.0666 10.9333C47.4666 10.9333 47.8666 11.3333 47.8666 11.7333V14.8C47.8666 15.3333 47.6 15.7333 47.0666 15.7333Z" fill="#514C9F"/>
<path d="M48.6665 14.1333H45.5998C45.1998 14.1333 44.7998 13.7333 44.7998 13.3333C44.7998 12.9333 45.1998 12.5333 45.5998 12.5333H48.6665C49.0665 12.5333 49.4665 12.9333 49.4665 13.3333C49.4665 13.7333 49.0665 14.1333 48.6665 14.1333Z" fill="#514C9F"/>
<path d="M61.5998 6.93333C61.1998 6.93333 60.7998 6.53333 60.7998 6.13333V3.06666C60.7998 2.66666 61.1998 2.26666 61.5998 2.26666C61.9998 2.26666 62.3998 2.66666 62.3998 3.06666V6.13333C62.3998 6.66666 62.1331 6.93333 61.5998 6.93333Z" fill="#514C9F"/>
<path d="M63.2002 5.46667H60.1335C59.7335 5.46667 59.3335 5.06667 59.3335 4.66667C59.3335 4.26667 59.7335 3.86667 60.1335 3.86667H63.2002C63.6002 3.86667 64.0002 4.26667 64.0002 4.66667C64.0002 5.06667 63.6002 5.46667 63.2002 5.46667Z" fill="#514C9F"/>
</g>
<defs>
<clipPath id="clip0_385_4325">
<rect width="64" height="64" fill="white"/>
</clipPath>
</defs>
</svg>
