<svg width="55" height="55" viewBox="0 0 55 55" fill="none" xmlns="http://www.w3.org/2000/svg">
<path fill-rule="evenodd" clip-rule="evenodd" d="M34.9379 2.24956L29.7797 4.56063C29.0586 4.88353 28.2775 5.05044 27.4874 5.05044C26.6973 5.05044 25.9161 4.88353 25.195 4.56063L20.0368 2.24945C15.1016 0.0380654 9.1889 1.7132 6.3809 6.32225C4.20603 9.89295 3.36159 14.6571 4.59597 19.373L12.4876 49.5261C13.1282 51.9743 14.9999 53.6372 17.1142 53.6372C19.1382 53.6372 20.951 52.1099 21.6604 49.8053L25.7733 36.45C26.2919 34.7667 28.6829 34.7667 29.2014 36.45L33.3144 49.8053C34.0237 52.1099 35.8357 53.6372 37.8606 53.6372C39.9748 53.6372 41.8466 51.9743 42.4871 49.5261L50.3787 19.373C51.6131 14.6571 50.7687 9.89295 48.5938 6.32235C45.7858 1.7132 39.8732 0.0381727 34.9379 2.24956Z" fill="#514C9F"/>
<path fill-rule="evenodd" clip-rule="evenodd" d="M27.4872 33.963C28.8437 33.963 29.9783 34.7981 30.3755 36.0903L34.4884 49.4463C35.0348 51.221 36.3904 52.4129 37.8608 52.4129C39.4163 52.4129 40.7974 51.128 41.298 49.217L49.1895 19.0639C50.284 14.8834 49.6843 10.4712 47.5431 6.95764C45.0831 2.92072 39.8818 1.37707 35.4419 3.36652L30.2837 5.6776C29.404 6.07131 28.451 6.27483 27.4872 6.27483C26.5234 6.27483 25.5704 6.07131 24.6907 5.6776L19.5325 3.36663C15.0919 1.37718 9.89032 2.92169 7.43133 6.95774C5.29009 10.4712 4.69046 14.8835 5.78487 19.064L13.6764 49.2171C14.177 51.1281 15.558 52.413 17.1136 52.413C18.584 52.413 19.9396 51.2211 20.486 49.4464L24.599 36.0903C24.9962 34.7981 26.1308 33.963 27.4872 33.963ZM37.8608 54.862C35.3034 54.862 33.0042 52.9738 32.14 50.1656L28.027 36.8095C27.9197 36.4634 27.6429 36.412 27.4872 36.412C27.3316 36.412 27.0547 36.4634 26.9474 36.8094L22.8344 50.1656C21.9702 52.9738 19.6709 54.8621 17.1136 54.8621C14.4227 54.8621 12.0848 52.8415 11.2985 49.835L3.40752 19.682C2.14531 14.8639 2.84731 9.76264 5.33005 5.68662C8.43218 0.595146 14.9722 -1.3624 20.5408 1.13236L25.6981 3.44419C26.2609 3.69605 26.8705 3.82624 27.4871 3.82624C28.1037 3.82624 28.7133 3.69605 29.2761 3.44419L34.4334 1.13236C40.0028 -1.36412 46.5412 0.595254 49.6441 5.68662C52.1269 9.76264 52.8289 14.8639 51.5667 19.682L43.6758 49.835C42.8895 52.8416 40.5516 54.862 37.8607 54.862" fill="#514C9F"/>
<path fill-rule="evenodd" clip-rule="evenodd" d="M25.1948 4.56073C25.1948 4.56073 28.5836 6.48315 34.0228 8.40568L25.1948 4.56073Z" fill="#DADAEA"/>
<path fill-rule="evenodd" clip-rule="evenodd" d="M34.0226 9.63113C33.8866 9.63113 33.7474 9.60825 33.6114 9.56012C28.1338 7.62373 24.7287 5.70539 24.5861 5.62526C23.9972 5.29064 23.7916 4.54373 24.1265 3.95592C24.4617 3.36897 25.2128 3.16326 25.8017 3.49637C25.8353 3.51506 29.1766 5.39344 34.4338 7.25227C35.0728 7.47839 35.407 8.17803 35.1809 8.81558C35.0015 9.31767 34.5281 9.63113 34.0226 9.63113Z" fill="#DADAEA"/>
<path opacity="0.15" fill-rule="evenodd" clip-rule="evenodd" d="M27.4873 34.4943C26.9687 32.8111 22.1432 33.8494 20.8588 36.4503L16.7458 49.8056C16.347 51.1003 15.5933 52.1354 14.6562 52.8065C15.3861 53.3289 16.2249 53.6366 17.1136 53.6366C19.1385 53.6366 20.9505 52.1102 21.6608 49.8056L25.0299 38.8642L27.4873 34.4943ZM48.5935 6.32257C46.1674 2.33969 41.4237 0.554341 36.9954 1.56733C39.7027 2.18447 42.1511 3.81556 43.6788 6.32247C45.8536 9.89231 46.6982 14.6573 45.4638 19.3733L37.572 49.5264C37.2009 50.9451 36.4089 52.0856 35.403 52.8064C36.1345 53.3296 36.9733 53.6365 37.8603 53.6365C39.9745 53.6365 41.8463 51.9745 42.4869 49.5264L50.3785 19.3733C51.6129 14.6573 50.7685 9.89231 48.5936 6.32257" fill="#DADAEA"/>
</svg>
