<svg width="30" height="31" viewBox="0 0 30 31" fill="none" xmlns="http://www.w3.org/2000/svg">
<g clip-path="url(#clip0_1_2543)">
<path d="M20.9129 11.9482C20.6223 12.3613 20.271 12.7215 19.8726 13.0151C19.8726 13.123 19.8726 13.2309 19.8726 13.3448C19.8758 15.3041 19.1413 17.1827 17.8337 18.5597C16.526 19.9365 14.7547 20.6965 12.9168 20.6693C11.8543 20.673 10.8054 20.4145 9.85221 19.9141C9.80082 19.8901 9.76767 19.836 9.76786 19.7762V19.7102C9.76786 19.6242 9.83332 19.5544 9.91407 19.5544C10.9585 19.5177 11.9657 19.1319 12.7931 18.4515C11.8477 18.4313 10.9972 17.8346 10.6057 16.9171C10.5859 16.867 10.5921 16.8095 10.622 16.7655C10.6518 16.7214 10.7011 16.6971 10.7519 16.7013C11.0392 16.7321 11.3294 16.7036 11.6066 16.6174C10.563 16.3866 9.77887 15.4636 9.66665 14.3338C9.66266 14.2796 9.68546 14.2271 9.7268 14.1953C9.76815 14.1634 9.82207 14.1569 9.86908 14.1779C10.1491 14.3096 10.4515 14.3789 10.7575 14.3817C9.84309 13.7423 9.44811 12.526 9.79598 11.4208C9.83188 11.3134 9.91816 11.2341 10.0231 11.2119C10.128 11.1898 10.2361 11.2282 10.3077 11.3129C11.5417 12.7121 13.2372 13.5459 15.0367 13.6385C14.9906 13.4425 14.968 13.2411 14.9693 13.0391C14.9861 11.9798 15.6013 11.0361 16.5268 10.6499C17.4524 10.2637 18.5051 10.5113 19.1922 11.2769C19.6605 11.1819 20.1133 11.0143 20.5361 10.7794C20.5671 10.7588 20.6064 10.7588 20.6373 10.7794C20.6567 10.8125 20.6567 10.8543 20.6373 10.8873C20.4325 11.387 20.0865 11.8061 19.6477 12.0861C20.032 12.0386 20.4096 11.942 20.7723 11.7984C20.8029 11.7763 20.8429 11.7763 20.8735 11.7984C20.8991 11.8109 20.9182 11.8347 20.9258 11.8636C20.9334 11.8925 20.9287 11.9234 20.9129 11.9482Z" fill="#514C9F"/>
</g>
<rect x="1" y="1.66992" width="28" height="28" rx="14" stroke="#514C9F" stroke-width="2"/>
<defs>
<clipPath id="clip0_1_2543">
<rect width="12" height="10.4" fill="white" transform="translate(9 10.47)"/>
</clipPath>
</defs>
</svg>
