<svg width="203" height="221" viewBox="0 0 203 221" fill="none" xmlns="http://www.w3.org/2000/svg">
<g clip-path="url(#clip0_1_881)">
<path d="M120.443 22C120.443 9.84974 110.606 0 98.4716 0C86.337 0 76.5 9.84974 76.5 22C76.5 34.1503 86.337 44 98.4716 44C110.606 44 120.443 34.1503 120.443 22Z" fill="#514C9F"/>
<path d="M96.9236 30.5789V17.2829L94.1636 17.9309V15.5789L98.2196 13.7789H100.116V30.5789H96.9236Z" fill="white"/>
</g>
<path d="M141.796 116.973L137.768 115.351C137.768 115.351 132.454 125.031 130.931 125.522C128.86 126.187 124.573 128.036 122.032 128.36C121.686 128.766 121.122 130.027 121.175 130.485C124.589 131.625 132.092 130.112 133.7 128.92C137.358 126.215 141.796 116.973 141.796 116.973Z" fill="#F8CBAA"/>
<path d="M143.034 114.77C143.785 117.54 139.717 123.112 139.717 123.112L134.386 120.128C134.386 120.128 135.385 117.836 136.603 115.504C138.556 111.737 142.177 111.611 143.034 114.77Z" fill="#514C9F"/>
<path opacity="0.2" d="M143.034 114.77C143.785 117.54 139.717 123.112 139.717 123.112L134.386 120.128C134.386 120.128 135.385 117.836 136.603 115.504C138.556 111.737 142.177 111.611 143.034 114.77Z" fill="black"/>
<path opacity="0.2" d="M136.501 121.32L138.6 122.496L138.97 116.06C137.748 116.997 136.887 119.82 136.501 121.32Z" fill="black"/>
<path d="M139.526 112.686C139.526 112.686 135.377 121.908 137.797 139.078H154.146C154.406 136.572 153.545 124.341 156.659 112.532C154.866 112.182 153.051 111.95 151.227 111.838C148.913 111.704 146.594 111.704 144.28 111.838C142.677 112.001 141.087 112.284 139.526 112.686Z" fill="#514C9F"/>
<path opacity="0.2" d="M139.526 112.686C139.526 112.686 135.377 121.908 137.797 139.078H154.146C154.406 136.572 153.545 124.341 156.659 112.532C154.866 112.182 153.051 111.95 151.227 111.838C148.913 111.704 146.594 111.704 144.28 111.838C142.677 112.001 141.087 112.284 139.526 112.686Z" fill="black"/>
<g style="mix-blend-mode:multiply">
<path d="M135.734 219.862C135.71 220.3 141.909 220.653 149.579 220.653C157.248 220.653 163.492 220.3 163.517 219.862C163.541 219.424 157.345 219.075 149.672 219.075C141.999 219.075 135.762 219.428 135.734 219.862Z" fill="#E8ECF1"/>
</g>
<path d="M146.647 208.354L143.748 209.475L146.245 215.921L149.145 214.8L146.647 208.354Z" fill="#F8CBAA"/>
<path d="M159.578 216.743H156.521L155.401 209.675H158.458L159.578 216.743Z" fill="#F8CBAA"/>
<path d="M156.31 216.391H159.745C159.804 216.391 159.862 216.412 159.907 216.451C159.953 216.489 159.983 216.543 159.992 216.601L160.435 219.315C160.444 219.383 160.439 219.452 160.419 219.518C160.399 219.583 160.365 219.644 160.32 219.696C160.274 219.747 160.218 219.788 160.156 219.816C160.093 219.844 160.025 219.859 159.956 219.858C158.758 219.838 158.182 219.765 156.671 219.765C155.742 219.765 153.829 219.862 152.538 219.862C151.247 219.862 151.162 218.597 151.694 218.479C154.081 217.964 155.007 217.262 155.803 216.581C155.943 216.458 156.123 216.39 156.31 216.391Z" fill="#263238"/>
<path d="M146.16 215.344L149.408 214.395C149.466 214.379 149.528 214.383 149.583 214.407C149.639 214.43 149.684 214.472 149.712 214.525L150.93 216.958C150.959 217.02 150.973 217.087 150.973 217.155C150.972 217.223 150.957 217.29 150.928 217.351C150.899 217.413 150.857 217.467 150.805 217.511C150.753 217.554 150.692 217.586 150.626 217.603C149.445 217.928 148.653 218.126 147.175 218.556C146.156 218.852 145.117 219.335 144.11 219.655C143.411 219.878 141.771 219.886 140.923 219.886C139.668 219.886 139.388 218.564 139.928 218.504C141.288 218.353 141.471 218.422 142.222 218.045C143.451 217.509 144.565 216.74 145.502 215.782C145.679 215.581 145.906 215.43 146.16 215.344Z" fill="#263238"/>
<path d="M122.543 128.344L119.181 126.937L117.797 130.66C119.175 130.869 120.576 130.869 121.954 130.66L122.543 128.344Z" fill="#F8CBAA"/>
<path d="M116.68 126.839L116.591 129.313L117.797 130.651L119.181 126.929L116.68 126.839Z" fill="#F8CBAA"/>
<path d="M147.045 208.901L144.136 210.023L145.425 213.356L148.334 212.234L147.045 208.901Z" fill="#CF6F64"/>
<path d="M158.458 209.675H155.401L155.981 213.321H159.038L158.458 209.675Z" fill="#CF6F64"/>
<path opacity="0.2" d="M137.277 134.435C137.338 135.169 137.407 135.919 137.496 136.69L149.652 132.748C151.55 132.186 153.2 130.995 154.329 129.37C154.378 128.287 154.438 127.148 154.532 125.959C154.572 125.383 154.621 124.791 154.674 124.191C154.727 123.591 154.8 122.926 154.877 122.285L137.277 134.435Z" fill="black"/>
<path d="M141.248 121.133L140.842 121.085C141.081 119.057 142.595 117.459 144.191 117.5V117.905C142.794 117.877 141.463 119.317 141.248 121.133Z" fill="white"/>
<path d="M143.411 124.877H143.342V124.471C144.739 124.524 146.05 123.068 146.265 121.255L146.671 121.304C146.456 123.287 144.991 124.877 143.411 124.877Z" fill="white"/>
<path d="M151 104.024C150.427 106.258 149.753 110.35 151.227 111.838C151.227 111.838 150.196 114.105 146.042 114.105C142.246 114.105 144.28 111.838 144.28 111.838C146.806 111.246 146.85 109.405 146.517 107.661L151 104.024Z" fill="#F8CBAA"/>
<path d="M149.173 105.508L146.521 107.662C146.604 108.062 146.651 108.469 146.664 108.878C147.439 109.649 148.994 107.698 149.152 106.7C149.233 106.308 149.24 105.903 149.173 105.508Z" fill="#CF6F64"/>
<path d="M141.962 103.995C142.146 104.315 142.395 104.593 142.692 104.812C142.989 105.031 143.328 105.187 143.687 105.269C144.662 105.484 145.149 104.587 144.881 103.687C144.641 102.876 143.842 101.785 142.851 101.972C142.639 102.015 142.44 102.109 142.272 102.245C142.103 102.381 141.97 102.556 141.883 102.754C141.796 102.952 141.758 103.168 141.771 103.384C141.785 103.6 141.85 103.81 141.962 103.995Z" fill="#CF6F64"/>
<path d="M143.574 96.8457C142.055 97.5392 141.519 103.566 143.428 104.458C145.336 105.35 146.448 95.5277 143.574 96.8457Z" fill="#263238"/>
<path d="M151.462 100.662C151.097 103.687 151.056 105.467 149.432 107.017C148.929 107.531 148.293 107.896 147.596 108.072C146.898 108.248 146.165 108.228 145.477 108.014C144.79 107.8 144.176 107.4 143.701 106.859C143.227 106.318 142.912 105.657 142.79 104.948C142.299 102.231 142.977 97.7418 146.014 96.5374C146.652 96.2562 147.354 96.1507 148.046 96.2317C148.739 96.3127 149.397 96.5773 149.953 96.998C150.509 97.4187 150.942 97.9803 151.207 98.6245C151.473 99.2687 151.561 99.9721 151.462 100.662Z" fill="#F8CBAA"/>
<path d="M146.473 98.411C148.722 97.8392 150.374 97.4499 149.781 99.3194C148.998 101.818 148.056 104.235 149.319 104.344C150.09 104.413 153.5 102.969 153.066 101.505C152.688 100.232 154.284 99.8831 154.568 99.2383C155.62 96.9024 152.611 97.2106 153.147 95.7912C153.683 94.3718 150.711 92.0846 149.087 93.2242C146.444 95.0653 141.909 95.0369 144.292 92.0075C146.002 89.846 142.953 90.288 142.953 90.288C142.953 90.288 144.796 91.3789 141.694 93.066C138.413 94.8666 141.422 99.7047 146.473 98.411Z" fill="#263238"/>
<path d="M152.656 103.995C152.212 104.637 151.545 105.091 150.784 105.269C149.782 105.484 149.396 104.587 149.773 103.687C150.11 102.876 151.036 101.785 151.994 101.972C152.952 102.158 153.172 103.201 152.656 103.995Z" fill="#F8CBAA"/>
<path d="M137.796 139.078C137.796 139.078 135.052 163.614 134.837 172.925C134.617 182.609 144.138 212.826 144.138 212.826L149.01 210.798C149.01 210.798 143.326 183.189 144.138 173.679C144.999 163.309 148.555 139.095 148.555 139.095L137.796 139.078Z" fill="#514C9F"/>
<path opacity="0.2" d="M144.617 145.814C142.429 150.348 143.903 159.315 145.088 164.627C145.539 160.876 146.075 156.805 146.582 153.037C146.534 147.246 146.083 142.773 144.617 145.814Z" fill="black"/>
<path d="M148.795 209.192C148.819 209.192 149.372 210.742 149.372 210.742L143.753 213.102L142.867 211.455L148.795 209.192Z" fill="#514C9F"/>
<path d="M143.598 139.078C143.598 139.078 145.697 162.413 147.086 171.153C148.612 180.727 154.597 212.615 154.597 212.615H160.195C160.195 212.615 156.842 181.502 156.209 172.021C155.518 161.736 154.146 139.078 154.146 139.078H143.598Z" fill="#514C9F"/>
<path d="M160.281 211.159C160.305 211.159 160.467 212.72 160.467 212.72H154.312L153.874 210.928L160.281 211.159Z" fill="#514C9F"/>
<path opacity="0.2" d="M158.137 209.31C158.124 209.31 158.112 209.306 158.102 209.298C158.093 209.289 158.086 209.278 158.084 209.265C158.052 208.982 155.027 180.878 154.459 172.361C153.842 163.123 152.599 142.631 152.587 142.424C152.587 142.418 152.587 142.411 152.59 142.404C152.592 142.398 152.595 142.392 152.6 142.387C152.604 142.382 152.61 142.378 152.616 142.376C152.622 142.373 152.629 142.372 152.636 142.372C152.649 142.372 152.662 142.377 152.672 142.386C152.682 142.395 152.688 142.407 152.689 142.42C152.689 142.627 153.943 163.103 154.56 172.357C155.129 180.874 158.153 208.957 158.182 209.261C158.183 209.268 158.183 209.275 158.181 209.282C158.179 209.288 158.176 209.294 158.172 209.3C158.168 209.305 158.163 209.309 158.157 209.313C158.151 209.316 158.144 209.318 158.137 209.318V209.31Z" fill="black"/>
<path d="M146.818 101.505C146.818 101.753 146.663 101.951 146.501 101.951C146.339 101.951 146.221 101.753 146.237 101.505C146.253 101.258 146.391 101.059 146.554 101.059C146.716 101.059 146.834 101.262 146.818 101.505Z" fill="#263238"/>
<path d="M144.033 101.505C144.033 101.753 143.874 101.951 143.716 101.951C143.557 101.951 143.436 101.753 143.448 101.505C143.46 101.258 143.606 101.059 143.769 101.059C143.931 101.059 144.049 101.262 144.033 101.505Z" fill="#263238"/>
<path d="M144.91 101.631C144.571 102.387 144.134 103.094 143.61 103.736C144.016 104.141 144.776 103.955 144.776 103.955L144.91 101.631Z" fill="#DF5753"/>
<path d="M144.983 104.989C144.973 104.989 144.964 104.987 144.955 104.983C144.947 104.98 144.939 104.974 144.932 104.967C144.926 104.961 144.921 104.952 144.918 104.944C144.915 104.935 144.913 104.925 144.914 104.916C144.915 104.896 144.923 104.878 144.938 104.864C144.952 104.851 144.971 104.843 144.991 104.843C145.301 104.845 145.608 104.778 145.889 104.646C146.17 104.514 146.418 104.321 146.615 104.081C146.629 104.068 146.647 104.062 146.666 104.062C146.684 104.062 146.702 104.068 146.716 104.081C146.729 104.094 146.737 104.112 146.737 104.131C146.737 104.15 146.729 104.168 146.716 104.182C146.506 104.437 146.241 104.642 145.941 104.782C145.641 104.922 145.314 104.992 144.983 104.989Z" fill="#263238"/>
<path d="M147.313 100.759C147.294 100.769 147.272 100.774 147.25 100.774C147.228 100.774 147.207 100.769 147.187 100.759C147.035 100.661 146.863 100.6 146.683 100.581C146.503 100.562 146.321 100.586 146.152 100.65C146.135 100.658 146.118 100.663 146.099 100.664C146.081 100.665 146.062 100.663 146.045 100.657C146.027 100.65 146.011 100.641 145.998 100.629C145.984 100.616 145.973 100.601 145.965 100.585C145.95 100.549 145.95 100.508 145.964 100.472C145.979 100.435 146.007 100.406 146.042 100.39C146.255 100.304 146.485 100.269 146.713 100.291C146.941 100.312 147.161 100.388 147.354 100.512C147.369 100.522 147.383 100.536 147.393 100.552C147.403 100.567 147.41 100.585 147.414 100.603C147.417 100.622 147.417 100.641 147.413 100.659C147.409 100.678 147.401 100.695 147.39 100.71C147.37 100.734 147.343 100.751 147.313 100.759Z" fill="#263238"/>
<path d="M142.957 99.948C142.935 99.9428 142.915 99.9316 142.9 99.9156C142.886 99.9024 142.876 99.8866 142.868 99.8692C142.861 99.8518 142.857 99.8331 142.857 99.8142C142.857 99.7953 142.861 99.7766 142.868 99.7592C142.876 99.7418 142.886 99.726 142.9 99.7128C143.055 99.5385 143.249 99.4024 143.466 99.3152C143.683 99.228 143.917 99.192 144.15 99.21C144.169 99.2128 144.187 99.2195 144.203 99.2296C144.219 99.2396 144.233 99.2529 144.243 99.2685C144.254 99.2841 144.261 99.3017 144.265 99.3202C144.268 99.3387 144.268 99.3578 144.264 99.3762C144.255 99.4138 144.233 99.4469 144.202 99.4693C144.17 99.4917 144.132 99.5019 144.093 99.4979C143.909 99.4863 143.724 99.5168 143.553 99.587C143.382 99.6573 143.23 99.7655 143.107 99.9034C143.088 99.924 143.065 99.939 143.038 99.9469C143.012 99.9547 142.983 99.9551 142.957 99.948Z" fill="#263238"/>
<path d="M158.23 116.523L154.008 115.399C154.008 115.399 149.867 125.582 148.401 126.243C146.412 127.152 141.373 130.299 139.23 131.787C139.112 132.294 139.205 133.636 139.473 134.005C143.127 133.34 150.122 130.652 151.584 129.285C154.917 126.166 158.23 116.523 158.23 116.523Z" fill="#F8CBAA"/>
<path d="M155.283 216.926C155.077 216.942 154.871 216.886 154.702 216.768C154.65 216.721 154.611 216.661 154.589 216.594C154.567 216.527 154.562 216.456 154.576 216.387C154.579 216.344 154.593 216.302 154.617 216.266C154.642 216.231 154.675 216.202 154.714 216.184C155.055 216.01 156.01 216.614 156.119 216.683C156.131 216.69 156.141 216.701 156.146 216.714C156.151 216.728 156.151 216.742 156.148 216.756C156.144 216.77 156.137 216.783 156.127 216.794C156.117 216.804 156.105 216.812 156.091 216.817C155.826 216.882 155.555 216.918 155.283 216.926ZM154.877 216.293C154.846 216.287 154.814 216.287 154.783 216.293C154.768 216.301 154.755 216.314 154.746 216.329C154.738 216.344 154.734 216.361 154.735 216.379C154.724 216.426 154.726 216.475 154.74 216.521C154.754 216.568 154.78 216.609 154.816 216.642C154.974 216.784 155.372 216.8 155.896 216.699C155.584 216.494 155.233 216.356 154.865 216.293H154.877Z" fill="#514C9F"/>
<path d="M156.071 216.816C156.06 216.82 156.049 216.82 156.038 216.816C155.734 216.646 155.161 215.977 155.246 215.636C155.259 215.582 155.29 215.534 155.333 215.5C155.377 215.465 155.43 215.446 155.486 215.446C155.54 215.438 155.596 215.443 155.648 215.459C155.701 215.475 155.749 215.502 155.79 215.539C156.127 215.827 156.148 216.711 156.148 216.756C156.15 216.769 156.147 216.783 156.141 216.794C156.134 216.806 156.124 216.815 156.111 216.82C156.098 216.823 156.083 216.822 156.071 216.816ZM155.526 215.58H155.498C155.405 215.58 155.393 215.632 155.388 215.653C155.34 215.851 155.701 216.358 156.002 216.597C156 216.255 155.894 215.921 155.697 215.64C155.65 215.599 155.589 215.578 155.526 215.58Z" fill="#514C9F"/>
<path d="M144.503 216.419C144.255 216.506 143.984 216.506 143.736 216.419C143.68 216.389 143.632 216.344 143.597 216.291C143.562 216.237 143.542 216.175 143.537 216.111C143.532 216.071 143.537 216.03 143.552 215.993C143.567 215.955 143.591 215.922 143.622 215.896C143.947 215.604 145.275 215.896 145.425 215.953C145.439 215.956 145.452 215.965 145.461 215.977C145.47 215.988 145.474 216.003 145.474 216.018C145.474 216.033 145.47 216.048 145.462 216.061C145.455 216.074 145.443 216.084 145.429 216.091C145.13 216.225 144.82 216.335 144.503 216.419ZM143.842 215.937C143.795 215.946 143.752 215.967 143.716 215.997C143.703 216.007 143.693 216.02 143.687 216.035C143.681 216.05 143.68 216.067 143.683 216.083C143.686 216.125 143.699 216.166 143.722 216.202C143.745 216.239 143.776 216.268 143.813 216.289C144.028 216.403 144.528 216.314 145.173 216.042C144.738 215.932 144.288 215.897 143.842 215.937Z" fill="#514C9F"/>
<path d="M145.417 216.091H145.385C144.979 216.018 144.167 215.551 144.142 215.202C144.142 215.121 144.179 215.008 144.374 214.943C144.44 214.92 144.509 214.91 144.579 214.914C144.649 214.918 144.717 214.936 144.78 214.967C145.218 215.182 145.45 215.961 145.462 215.997C145.465 216.01 145.464 216.022 145.461 216.034C145.457 216.047 145.451 216.058 145.442 216.066C145.435 216.076 145.427 216.085 145.417 216.091ZM144.455 215.065H144.414C144.288 215.109 144.289 215.162 144.289 215.178C144.289 215.389 144.877 215.774 145.287 215.904C145.193 215.578 144.993 215.293 144.719 215.093C144.637 215.052 144.543 215.041 144.455 215.065Z" fill="#514C9F"/>
<path d="M139.575 131.548L135.34 133.494L134.849 134.711L136.412 135.761C136.412 135.761 139.335 135.445 140.167 133.567L139.575 131.548Z" fill="#F8CBAA"/>
<path d="M139.753 134.074C139.659 133.262 139.39 132.479 138.966 131.779L139.636 131.276C140.14 132.082 140.461 132.989 140.578 133.932L139.753 134.074Z" fill="#263238"/>
<path d="M140.476 132.124C140.566 132.264 140.609 132.429 140.602 132.596C140.594 132.762 140.536 132.922 140.434 133.054C140.332 133.186 140.192 133.284 140.032 133.333C139.873 133.383 139.702 133.382 139.544 133.331C139.385 133.281 139.245 133.182 139.144 133.05C139.043 132.917 138.986 132.756 138.979 132.59C138.973 132.423 139.018 132.259 139.109 132.119C139.199 131.979 139.331 131.87 139.485 131.807C139.659 131.719 139.86 131.703 140.046 131.762C140.231 131.821 140.386 131.951 140.476 132.124Z" fill="#263238"/>
<path d="M132.478 135.068L133.042 135.636L136.842 134.013L135.34 133.494L132.478 135.068Z" fill="#F8CBAA"/>
<path opacity="0.2" d="M148.795 209.192C148.819 209.192 149.372 210.742 149.372 210.742L143.753 213.102L142.867 211.455L148.795 209.192Z" fill="black"/>
<path opacity="0.2" d="M160.281 211.159C160.305 211.159 160.467 212.72 160.467 212.72H154.312L153.874 210.928L160.281 211.159Z" fill="black"/>
<path d="M159.331 115.355C160.447 118.952 156.083 123.871 156.083 123.871L150.053 121.413C150.768 119.334 151.592 117.294 152.522 115.302C154.373 111.315 158.202 111.725 159.331 115.355Z" fill="#514C9F"/>
<path opacity="0.2" d="M159.331 115.355C160.447 118.952 156.083 123.871 156.083 123.871L150.053 121.413C150.768 119.334 151.592 117.294 152.522 115.302C154.373 111.315 158.202 111.725 159.331 115.355Z" fill="black"/>
<path d="M99.4212 79.3143H96.8269V79.732H99.4212V79.3143Z" fill="#514C9F"/>
<path d="M133.005 95.8467L132.691 102.807L133.109 102.826L133.423 95.8655L133.005 95.8467Z" fill="#514C9F"/>
<path d="M132.198 81.1878H84.2897L79.8318 180.837H127.74L132.198 81.1878Z" fill="#514C9F"/>
<path opacity="0.56" d="M130.769 82.5587H82.8607L78.4028 182.208H126.311L130.769 82.5587Z" fill="#FAFAFA"/>
<path opacity="0.07" d="M129.339 83.9252H81.4314L76.9695 183.574H124.877L129.339 83.9252Z" fill="#514C9F"/>
<path d="M123.887 127.387H82.9946L82.6536 135.011H123.546L123.887 127.387Z" fill="white"/>
<path d="M105.483 121.823H83.2423L83.092 125.234H105.333L105.483 121.823Z" fill="#514C9F"/>
<path d="M122.965 147.964H82.073L81.7319 155.588H122.624L122.965 147.964Z" fill="white"/>
<path opacity="0.47" d="M115.467 165.885H87.9682L87.5581 175.022H115.056L115.467 165.885Z" fill="#514C9F"/>
<path d="M113.627 176.441H86.1289C86.1169 176.444 86.1044 176.444 86.0924 176.441C86.0884 176.429 86.0884 176.416 86.0924 176.404L86.4984 167.264C86.4983 167.257 86.4996 167.251 86.5021 167.246C86.5046 167.24 86.5083 167.235 86.5128 167.231C86.5174 167.226 86.5229 167.223 86.5288 167.221C86.5346 167.219 86.5409 167.218 86.5471 167.219H114.045C114.051 167.217 114.056 167.215 114.062 167.215C114.067 167.215 114.073 167.217 114.078 167.219C114.081 167.224 114.082 167.23 114.082 167.235C114.082 167.241 114.081 167.247 114.078 167.251L113.68 176.413C113.675 176.422 113.668 176.43 113.658 176.435C113.649 176.44 113.638 176.442 113.627 176.441ZM86.1776 176.344H113.579L113.985 167.3H86.5836L86.1776 176.344Z" fill="white"/>
<path d="M100.68 142.4H82.3206L82.1704 145.815H100.526L100.68 142.4Z" fill="#514C9F"/>
<path d="M114.943 102.758C114.838 104.977 114.048 107.109 112.681 108.862C111.67 110.186 110.368 111.26 108.876 112.003C107.384 112.746 105.741 113.138 104.074 113.148C102.727 113.159 101.392 112.893 100.151 112.369C98.9103 111.844 97.7903 111.071 96.86 110.098C95.9296 109.124 95.2086 107.971 94.7414 106.709C94.2742 105.447 94.0706 104.102 94.1433 102.758C94.286 99.97 95.4899 97.3413 97.5087 95.41C99.5274 93.4787 102.209 92.3907 105.004 92.3685C106.352 92.356 107.689 92.6197 108.931 93.1434C110.173 93.6672 111.294 94.4398 112.226 95.4135C113.157 96.3873 113.879 97.5414 114.346 98.8048C114.814 100.068 115.017 101.414 114.943 102.758Z" fill="white"/>
<path d="M115.921 94.5423C115.895 95.1323 115.685 95.6993 115.32 96.1644C115.051 96.516 114.704 96.8014 114.307 96.9989C113.91 97.1964 113.474 97.3008 113.03 97.304C112.601 97.3066 112.177 97.2041 111.796 97.0055C111.416 96.8068 111.089 96.5181 110.846 96.1644C110.524 95.6866 110.364 95.1177 110.391 94.5423C110.431 93.8019 110.751 93.1044 111.288 92.592C111.824 92.0795 112.536 91.7908 113.278 91.7846C113.636 91.7813 113.991 91.8513 114.321 91.9903C114.651 92.1293 114.949 92.3342 115.196 92.5926C115.444 92.851 115.636 93.1572 115.761 93.4925C115.885 93.8278 115.94 94.1851 115.921 94.5423Z" fill="#514C9F"/>
<path d="M87.3997 131.199C87.3802 131.526 87.2374 131.833 87.0001 132.059C86.7628 132.285 86.4486 132.412 86.1208 132.416C85.9626 132.418 85.8057 132.387 85.6597 132.326C85.5138 132.265 85.3819 132.174 85.2723 132.06C85.1627 131.946 85.0777 131.811 85.0226 131.663C84.9674 131.515 84.9432 131.357 84.9516 131.199C84.9692 130.872 85.1114 130.563 85.3491 130.337C85.5869 130.111 85.9022 129.984 86.2305 129.982C86.3885 129.981 86.5452 130.012 86.6909 130.073C86.8365 130.135 86.9681 130.225 87.0776 130.339C87.1871 130.453 87.2721 130.588 87.3275 130.736C87.3829 130.884 87.4075 131.041 87.3997 131.199Z" fill="#263238"/>
<path d="M92.8725 131.199C92.8539 131.526 92.7114 131.834 92.4739 132.06C92.2363 132.286 91.9216 132.413 91.5936 132.416C91.4357 132.417 91.2792 132.386 91.1337 132.325C90.9883 132.263 90.8569 132.173 90.7478 132.059C90.6386 131.945 90.554 131.81 90.499 131.662C90.4441 131.514 90.42 131.357 90.4284 131.199C90.4459 130.872 90.5876 130.565 90.8245 130.338C91.0613 130.112 91.3756 129.985 91.7032 129.982C91.8614 129.981 92.0184 130.011 92.1643 130.072C92.3103 130.133 92.4421 130.224 92.5517 130.338C92.6613 130.452 92.7463 130.587 92.8015 130.735C92.8567 130.883 92.8808 131.041 92.8725 131.199Z" fill="#263238"/>
<path d="M98.3495 131.199C98.3309 131.526 98.1884 131.834 97.9509 132.06C97.7133 132.286 97.3986 132.413 97.0706 132.416C96.9125 132.417 96.7558 132.386 96.6102 132.325C96.4645 132.263 96.3329 132.173 96.2234 132.059C96.1139 131.945 96.0289 131.81 95.9735 131.662C95.9181 131.514 95.8936 131.357 95.9013 131.199C95.9199 130.872 96.0624 130.564 96.2999 130.338C96.5374 130.112 96.8522 129.985 97.1802 129.982C97.3384 129.981 97.4954 130.011 97.6413 130.072C97.7873 130.133 97.9191 130.224 98.0287 130.338C98.1383 130.452 98.2233 130.587 98.2785 130.735C98.3336 130.883 98.3578 131.041 98.3495 131.199Z" fill="#263238"/>
<path d="M86.4781 151.776C86.4586 152.103 86.3158 152.41 86.0785 152.636C85.8412 152.862 85.527 152.989 85.1992 152.993C85.0412 152.994 84.8845 152.963 84.7388 152.902C84.5932 152.84 84.4615 152.75 84.3521 152.636C84.2426 152.522 84.1576 152.387 84.1022 152.239C84.0468 152.091 84.0222 151.934 84.03 151.776C84.0485 151.449 84.191 151.141 84.4286 150.915C84.6661 150.689 84.9808 150.562 85.3089 150.56C85.4669 150.558 85.6236 150.589 85.7693 150.651C85.9149 150.712 86.0465 150.802 86.156 150.916C86.2655 151.03 86.3505 151.165 86.4059 151.313C86.4613 151.461 86.4859 151.618 86.4781 151.776Z" fill="#263238"/>
<path d="M91.9509 151.776C91.9323 152.103 91.7904 152.41 91.5537 152.636C91.317 152.862 91.0033 152.989 90.676 152.993C90.5178 152.995 90.3608 152.964 90.2149 152.903C90.0689 152.842 89.9371 152.752 89.8275 152.638C89.7179 152.523 89.6329 152.388 89.5777 152.24C89.5226 152.092 89.4984 151.934 89.5067 151.776C89.5253 151.449 89.6678 151.141 89.9053 150.915C90.1429 150.689 90.4576 150.562 90.7856 150.56C90.9435 150.558 91.1 150.589 91.2455 150.651C91.391 150.712 91.5223 150.802 91.6315 150.916C91.7406 151.03 91.8253 151.165 91.8802 151.313C91.9351 151.461 91.9592 151.619 91.9509 151.776Z" fill="#263238"/>
<path d="M97.4401 151.776C97.4215 152.103 97.279 152.411 97.0415 152.637C96.804 152.863 96.4892 152.99 96.1612 152.993C96.0033 152.994 95.8469 152.962 95.7015 152.901C95.5561 152.839 95.4247 152.749 95.3154 152.635C95.206 152.521 95.121 152.386 95.0653 152.239C95.0097 152.091 94.9848 151.934 94.9919 151.776C95.0114 151.449 95.1542 151.142 95.3916 150.916C95.6289 150.691 95.9431 150.563 96.2708 150.56C96.4291 150.558 96.586 150.588 96.7319 150.649C96.8779 150.71 97.0097 150.801 97.1193 150.915C97.2289 151.029 97.3139 151.164 97.3691 151.312C97.4243 151.46 97.4484 151.618 97.4401 151.776Z" fill="#263238"/>
<path d="M102.905 151.776C102.885 152.103 102.742 152.41 102.505 152.636C102.268 152.862 101.954 152.989 101.626 152.993C101.468 152.993 101.311 152.962 101.166 152.901C101.021 152.839 100.889 152.749 100.78 152.635C100.671 152.521 100.586 152.386 100.53 152.239C100.474 152.091 100.449 151.934 100.457 151.776C100.476 151.449 100.619 151.142 100.856 150.916C101.093 150.691 101.408 150.563 101.735 150.56C101.893 150.558 102.05 150.589 102.196 150.651C102.342 150.712 102.473 150.802 102.583 150.916C102.692 151.03 102.777 151.165 102.832 151.313C102.888 151.461 102.912 151.618 102.905 151.776Z" fill="#263238"/>
<path d="M108.402 151.776C108.382 152.103 108.24 152.41 108.002 152.636C107.765 152.862 107.451 152.989 107.123 152.993C106.965 152.995 106.808 152.964 106.662 152.903C106.516 152.842 106.384 152.752 106.275 152.638C106.165 152.523 106.08 152.388 106.025 152.24C105.97 152.092 105.945 151.934 105.954 151.776C105.972 151.449 106.115 151.141 106.352 150.915C106.59 150.689 106.905 150.562 107.233 150.56C107.391 150.558 107.547 150.589 107.693 150.651C107.839 150.712 107.97 150.802 108.08 150.916C108.189 151.03 108.274 151.165 108.33 151.313C108.385 151.461 108.41 151.618 108.402 151.776Z" fill="#263238"/>
<path d="M107.571 102.217C109.27 100.557 109.361 97.8968 107.772 96.2747C106.184 94.6525 103.519 94.6832 101.82 96.3431C100.121 98.003 100.031 100.664 101.619 102.286C103.207 103.908 105.872 103.877 107.571 102.217Z" fill="#514C9F"/>
<path d="M112.681 108.862C111.67 110.186 110.368 111.26 108.876 112.003C107.384 112.746 105.741 113.138 104.074 113.148C102.457 113.162 100.862 112.778 99.4292 112.031C97.9961 111.283 96.7692 110.195 95.8567 108.862C97.8298 106.899 100.952 105.618 104.411 105.618C107.87 105.618 110.883 106.899 112.681 108.862Z" fill="#514C9F"/>
<path opacity="0.1" d="M107.571 102.217C109.27 100.557 109.361 97.8968 107.772 96.2747C106.184 94.6525 103.519 94.6832 101.82 96.3431C100.121 98.003 100.031 100.664 101.619 102.286C103.207 103.908 105.872 103.877 107.571 102.217Z" fill="white"/>
<path opacity="0.1" d="M112.681 108.862C111.67 110.186 110.368 111.26 108.876 112.003C107.384 112.746 105.741 113.138 104.074 113.148C102.457 113.162 100.862 112.778 99.4292 112.031C97.9961 111.283 96.7692 110.195 95.8567 108.862C97.8298 106.899 100.952 105.618 104.411 105.618C107.87 105.618 110.883 106.899 112.681 108.862Z" fill="white"/>
<path d="M52.9464 136.848C52.5607 137.692 52.1546 138.62 51.8014 139.521C51.4482 140.421 51.0869 141.35 50.7743 142.274C50.136 144.096 49.6498 145.968 49.3208 147.871L49.2315 148.467C49.2229 148.569 49.2326 148.672 49.2599 148.771C49.3557 149.107 49.5066 149.425 49.7065 149.712C50.2279 150.454 50.8327 151.135 51.5091 151.739C52.2223 152.402 52.9704 153.026 53.7502 153.609C54.5298 154.209 55.3499 154.793 56.1578 155.345L55.3986 156.768C53.4694 155.929 51.6382 154.88 49.9379 153.641C49.0308 152.981 48.2121 152.207 47.5019 151.338C47.0809 150.821 46.7526 150.235 46.5316 149.606C46.403 149.214 46.3372 148.803 46.3367 148.39C46.3367 148.292 46.3367 148.15 46.3367 148.081V147.883L46.3773 147.477C46.61 145.364 47.0548 143.28 47.7049 141.256C48.0216 140.259 48.3586 139.265 48.7443 138.296C49.13 137.327 49.5278 136.378 50.0191 135.392L52.9464 136.848Z" fill="#F8CBAA"/>
<path d="M55.5855 155.093L58.4559 153.642L57.7129 156.789C57.7129 156.789 55.7438 157.34 54.8303 156.383L55.5855 155.093Z" fill="#F8CBAA"/>
<path d="M61.0827 154.157L60.3194 156.76L57.7129 156.789L58.4559 153.642L61.0827 154.157Z" fill="#F8CBAA"/>
<path d="M65.1346 121.664C65.2881 122.226 65.5018 122.77 65.772 123.287C65.6931 123.376 65.5914 123.442 65.4778 123.479C65.3641 123.515 65.2427 123.52 65.1265 123.493L65.1346 121.664Z" fill="#DF5753"/>
<path d="M65.0494 121.689C65.2175 121.689 65.3539 121.48 65.3539 121.222C65.3539 120.965 65.2175 120.756 65.0494 120.756C64.8812 120.756 64.7449 120.965 64.7449 121.222C64.7449 121.48 64.8812 121.689 65.0494 121.689Z" fill="#263238"/>
<path d="M64.96 120.772L65.5771 120.598C65.5771 120.598 65.2766 121.076 64.96 120.772Z" fill="#263238"/>
<path d="M57.2055 124.641C57.5749 126.527 57.9444 129.986 56.6208 131.247C56.6208 131.247 57.1405 133.162 60.6524 133.162C64.5135 133.162 62.4957 131.247 62.4957 131.247C60.3885 130.745 60.4413 129.183 60.8108 127.715L57.2055 124.641Z" fill="#F8CBAA"/>
<path d="M56.1782 120.342C56.3731 123.494 56.3893 124.832 57.9808 126.45C60.3803 128.883 64.2129 127.959 64.964 124.828C65.642 121.989 65.2117 117.317 62.122 116.064C61.4438 115.785 60.7056 115.683 59.9771 115.769C59.2486 115.854 58.554 116.124 57.9589 116.552C57.3638 116.98 56.888 117.553 56.5764 118.217C56.2648 118.88 56.1277 119.612 56.1782 120.342Z" fill="#F8CBAA"/>
<path d="M56.4909 116.798C54.9075 117.374 52.7963 116.944 53.6245 121.823C54.5015 126.989 53.1536 128.689 53.1536 128.689C53.1536 128.689 59.1583 129.966 65.2889 128.611C65.2889 128.611 63.4172 125.343 63.941 122.934C64.6109 119.892 64.0831 118.769 64.0831 118.769C64.0831 118.769 58.7158 115.987 56.4909 116.798Z" fill="#263238"/>
<path d="M63.1897 121.985C63.1913 122.584 63.3631 123.171 63.685 123.676C64.1154 124.333 64.6229 124.082 64.7487 123.384C64.8624 122.772 64.7772 121.689 64.2291 121.267C63.681 120.845 63.1978 121.259 63.1897 121.985Z" fill="#F8CBAA"/>
<path d="M55.1144 117.329C54.6597 116.052 56.8278 114.085 61.4156 114.896C66.0034 115.707 66.2023 119.523 66.2023 119.523L65.2766 118.42L65.3172 119.58L60.6036 120.484L55.1144 117.329Z" fill="#263238"/>
<path d="M55.5044 131.463C55.4773 131.277 55.5237 131.089 55.6336 130.937C55.7436 130.786 55.9085 130.683 56.0931 130.651C57.5222 130.416 60.7702 129.938 62.4023 130.165C63.6203 130.335 63.937 131.041 63.9898 131.621C63.998 131.722 63.9844 131.824 63.9499 131.92C63.9154 132.016 63.8607 132.103 63.7895 132.176C63.7184 132.249 63.6324 132.306 63.5374 132.343C63.4424 132.38 63.3405 132.397 63.2387 132.391L56.1824 132.075C56.016 132.067 55.8577 132.001 55.7341 131.889C55.6106 131.778 55.5294 131.627 55.5044 131.463Z" fill="#514C9F"/>
<path opacity="0.6" d="M55.5044 131.463C55.4773 131.277 55.5237 131.089 55.6336 130.937C55.7436 130.786 55.9085 130.683 56.0931 130.651C57.5222 130.416 60.7702 129.938 62.4023 130.165C63.6203 130.335 63.937 131.041 63.9898 131.621C63.998 131.722 63.9844 131.824 63.9499 131.92C63.9154 132.016 63.8607 132.103 63.7895 132.176C63.7184 132.249 63.6324 132.306 63.5374 132.343C63.4424 132.38 63.3405 132.397 63.2387 132.391L56.1824 132.075C56.016 132.067 55.8577 132.001 55.7341 131.889C55.6106 131.778 55.5294 131.627 55.5044 131.463Z" fill="black"/>
<path d="M59.5845 202.31L62.2032 204.127L66.5839 198.194L63.9652 196.381L59.5845 202.31Z" fill="#F8CBAA"/>
<path d="M53.4783 202.193L56.2431 203.766L60.1204 197.492L57.3556 195.919L53.4783 202.193Z" fill="#F8CBAA"/>
<path d="M66.5799 198.194L64.3226 201.252L61.7039 199.439L63.9612 196.381L66.5799 198.194Z" fill="#CF6F64"/>
<path d="M57.3515 195.919L60.1204 197.496L58.1229 200.729L55.354 199.151L57.3515 195.919Z" fill="#CF6F64"/>
<path d="M61.7931 151.269C61.7931 151.269 72.0162 164.137 70.0958 176.445C68.549 186.385 59.5764 199.845 59.5764 199.845L55.358 197.752C58.3313 191.801 60.8687 185.642 62.9502 179.324C63.5921 177.363 63.7794 175.281 63.4981 173.237C63.2168 171.193 62.4741 169.239 61.3262 167.523C56.1457 159.968 47.847 164.465 53.4295 151.269H61.7931Z" fill="#514C9F"/>
<path opacity="0.6" d="M61.7931 151.269C61.7931 151.269 72.0162 164.137 70.0958 176.445C68.549 186.385 59.5764 199.845 59.5764 199.845L55.358 197.752C58.3313 191.801 60.8687 185.642 62.9502 179.324C63.5921 177.363 63.7794 175.281 63.4981 173.237C63.2168 171.193 62.4741 169.239 61.3262 167.523C56.1457 159.968 47.847 164.465 53.4295 151.269H61.7931Z" fill="black"/>
<path opacity="0.4" d="M66.8073 159.534L65.3213 158.058C65.3213 158.175 68.1998 175.926 69.0078 180.914C69.4845 179.457 69.8496 177.966 70.0999 176.453C71.05 170.415 69.0646 164.246 66.8073 159.534Z" fill="black"/>
<path d="M66.3567 151.269C66.3567 151.269 78.6666 167.442 79.0158 177.138C79.304 185.249 65.6178 200.964 65.6178 200.964L61.639 198.393C61.639 198.393 69.6494 187.232 71.6672 178.116C70.8877 169.08 54.4041 151.269 54.4041 151.269H66.3567Z" fill="#514C9F"/>
<path opacity="0.6" d="M66.3567 151.269C66.3567 151.269 78.6666 167.442 79.0158 177.138C79.304 185.249 65.6178 200.964 65.6178 200.964L61.639 198.393C61.639 198.393 69.6494 187.232 71.6672 178.116C70.8877 169.08 54.4041 151.269 54.4041 151.269H66.3567Z" fill="black"/>
<path d="M51.1277 131.969C49.8122 132.282 48.5496 137.059 48.5496 137.059L53.6936 140.49C53.6936 140.49 55.4069 136.71 54.806 135.056C54.1848 133.332 52.7801 131.576 51.1277 131.969Z" fill="#514C9F"/>
<path opacity="0.2" d="M52.1346 135.047L51.7773 139.212L53.6896 140.494C54.2176 139.306 54.6085 138.063 54.8548 136.787L52.1346 135.047Z" fill="black"/>
<path d="M67.8792 132.063C67.8792 132.063 69.3977 132.594 66.3567 151.265H53.4216C53.6408 145.993 53.6449 142.749 51.1277 131.969C52.9389 131.596 54.7748 131.355 56.6209 131.247C58.5766 131.107 60.5399 131.107 62.4957 131.247C65.021 131.479 67.8792 132.063 67.8792 132.063Z" fill="#514C9F"/>
<path d="M69.1947 135.048C69.487 135.859 69.7955 136.73 70.1203 137.57C70.4451 138.409 70.7537 139.273 71.0826 140.125L72.0773 142.672L72.329 143.308L72.4589 143.625L72.5198 143.783C72.5198 143.811 72.5198 143.811 72.5198 143.807C72.4456 143.703 72.3484 143.617 72.2356 143.556C72.075 143.461 71.8939 143.407 71.7078 143.398C71.5532 143.393 71.3993 143.422 71.2571 143.483C71.0704 143.568 71.0704 143.604 71.0744 143.6C71.1082 143.573 71.1382 143.542 71.1638 143.507C71.3885 143.212 71.583 142.896 71.7443 142.562C71.9352 142.189 72.1179 141.792 72.3006 141.39C72.6578 140.579 72.9867 139.74 73.3156 138.892C73.6444 138.044 73.957 137.189 74.2615 136.325L75.1872 133.738L76.7503 134.143C76.4418 135.992 76.0439 137.793 75.5648 139.626C75.3334 140.539 75.0614 141.443 74.7528 142.355C74.5985 142.814 74.428 143.268 74.2331 143.734C74.03 144.24 73.7799 144.726 73.4861 145.186C73.3781 145.341 73.2587 145.487 73.1288 145.624C72.9215 145.848 72.6698 146.026 72.3899 146.147C72.1415 146.254 71.8724 146.304 71.6022 146.293C71.2996 146.282 71.0048 146.194 70.7456 146.038C70.4397 145.847 70.1859 145.584 70.0067 145.271C69.9458 145.166 69.893 145.06 69.8564 144.983L69.7793 144.829L69.625 144.513L69.3165 143.884C68.9105 143.041 68.5045 142.189 68.1512 141.333C67.798 140.478 67.4245 139.61 67.0753 138.738C66.7262 137.866 66.4136 136.994 66.1172 136.053L69.1947 135.048Z" fill="#F8CBAA"/>
<path d="M67.8791 132.063C69.4341 132.432 71.1839 137.022 71.1839 137.022L66.5596 140.952C66.5596 140.952 63.5674 135.948 64.1723 134.297C64.8016 132.578 65.8491 131.58 67.8791 132.063Z" fill="#514C9F"/>
<path d="M75.9219 132.286L77.5459 130.931L78.6746 132.687L77.8423 134.151C77.8423 134.151 76.5187 135.368 75.3494 134.747C75.1639 134.331 75.1193 133.865 75.2227 133.421C75.326 132.976 75.5714 132.578 75.9219 132.286Z" fill="#F8CBAA"/>
<path d="M80.4774 130.935L80.3556 131.377L77.7857 131.807L77.5339 130.931L80.4774 130.935Z" fill="#F8CBAA"/>
<path d="M65.9344 201.171L61.2979 198.178L62.1302 196.734L67.3391 199.934L65.9344 201.171Z" fill="#514C9F"/>
<path d="M58.058 203.555C57.6512 203.506 57.2603 203.367 56.9131 203.15C56.8987 203.145 56.8863 203.136 56.8775 203.123C56.8687 203.111 56.864 203.096 56.864 203.081C56.864 203.066 56.8687 203.051 56.8775 203.039C56.8863 203.026 56.8987 203.017 56.9131 203.012C57.0389 202.971 58.1311 202.635 58.4478 202.894C58.4834 202.924 58.5104 202.962 58.5261 203.006C58.5418 203.049 58.5456 203.096 58.5371 203.142C58.5314 203.215 58.5072 203.285 58.4667 203.346C58.4262 203.407 58.3708 203.457 58.3057 203.49C58.2296 203.532 58.1446 203.554 58.058 203.555ZM57.1445 203.109C57.652 203.369 58.058 203.462 58.2529 203.365C58.2953 203.341 58.331 203.307 58.3566 203.266C58.3822 203.225 58.3968 203.178 58.399 203.13C58.399 203.065 58.399 203.036 58.3625 203.02C58.192 202.882 57.583 202.988 57.1364 203.109H57.1445Z" fill="#263238"/>
<path d="M56.9413 203.178C56.9199 203.178 56.8994 203.169 56.8845 203.154C56.8784 203.143 56.8752 203.13 56.8752 203.117C56.8752 203.105 56.8784 203.092 56.8845 203.081C56.8845 203.044 57.1483 202.164 57.5625 201.966C57.6154 201.941 57.6728 201.929 57.731 201.929C57.7891 201.929 57.8466 201.941 57.8994 201.966C57.9565 201.984 58.0058 202.02 58.0397 202.069C58.0735 202.118 58.0899 202.178 58.0862 202.237C58.0578 202.602 57.3148 203.105 56.9738 203.19L56.9413 203.178ZM57.7289 202.071C57.6894 202.072 57.6507 202.082 57.6153 202.099C57.3635 202.221 57.1565 202.695 57.055 202.983C57.4122 202.833 57.9035 202.436 57.9198 202.213C57.9198 202.176 57.9197 202.132 57.8264 202.091C57.796 202.075 57.763 202.064 57.7289 202.059V202.071Z" fill="#263238"/>
<path d="M63.8514 205.307C63.3926 205.307 62.7552 204.719 62.4061 204.358C62.3971 204.346 62.3923 204.331 62.3923 204.316C62.3923 204.3 62.3971 204.285 62.4061 204.273C62.4141 204.26 62.4255 204.249 62.439 204.242C62.4526 204.235 62.4679 204.232 62.4832 204.232C62.6456 204.232 64.0544 204.443 64.2534 204.841C64.2744 204.876 64.2855 204.917 64.2855 204.958C64.2855 205 64.2744 205.04 64.2534 205.076C64.2235 205.138 64.1784 205.191 64.1223 205.231C64.0662 205.271 64.001 205.295 63.9326 205.303L63.8514 205.307ZM62.674 204.415C63.1856 204.91 63.6362 205.185 63.892 205.153C63.9368 205.147 63.9795 205.13 64.0163 205.104C64.0531 205.078 64.0829 205.043 64.1031 205.003C64.1122 204.989 64.1171 204.973 64.1171 204.956C64.1171 204.94 64.1122 204.924 64.1031 204.91C63.9976 204.691 63.2465 204.504 62.674 204.415Z" fill="#263238"/>
<path d="M62.7189 204.395C62.6278 204.397 62.5367 204.391 62.4469 204.374C62.4344 204.373 62.4226 204.368 62.4126 204.36C62.4026 204.352 62.3949 204.342 62.3901 204.33C62.384 204.318 62.3809 204.305 62.3809 204.291C62.3809 204.278 62.384 204.265 62.3901 204.253C62.4144 204.224 62.9625 203.563 63.4822 203.519C63.6293 203.507 63.7751 203.554 63.8882 203.649C64.0466 203.786 64.0384 203.908 63.9978 203.985C63.8963 204.261 63.194 204.395 62.7189 204.395ZM62.6134 204.245C63.0681 204.269 63.7948 204.119 63.8882 203.92C63.8882 203.92 63.9207 203.855 63.8151 203.766C63.7731 203.73 63.7241 203.702 63.671 203.685C63.6179 203.669 63.5619 203.663 63.5066 203.669C63.1565 203.766 62.8448 203.969 62.6134 204.249V204.245Z" fill="#263238"/>
<path d="M57.0512 202.74L53.6083 201.767C53.5489 201.749 53.485 201.754 53.4288 201.78C53.3727 201.806 53.3281 201.852 53.3038 201.909L52.1426 204.516C52.1153 204.583 52.1025 204.655 52.105 204.727C52.1075 204.799 52.1253 204.87 52.1571 204.935C52.189 204.999 52.2341 205.057 52.2897 205.103C52.3453 205.149 52.41 205.183 52.4796 205.202C53.6976 205.518 54.2822 205.607 55.7966 206.041C56.7304 206.301 58.0621 206.783 59.3491 207.148C60.6361 207.513 61.0665 206.26 60.5671 205.993C58.3098 204.8 58.1311 203.965 57.514 203.073C57.4035 202.911 57.2397 202.793 57.0512 202.74Z" fill="#514C9F"/>
<path d="M62.4997 203.884L59.5603 201.856C59.5104 201.82 59.449 201.803 59.3876 201.809C59.3263 201.815 59.2692 201.843 59.2273 201.889L57.2785 203.981C57.2311 204.035 57.1956 204.099 57.1746 204.168C57.1536 204.236 57.1475 204.309 57.1568 204.38C57.166 204.452 57.1903 204.52 57.2281 204.581C57.2659 204.643 57.3163 204.695 57.376 204.735C58.4113 205.429 58.9472 205.709 60.2423 206.605C61.0543 207.156 62.6256 208.381 63.7218 209.144C64.818 209.906 65.634 208.86 65.2443 208.446C63.4985 206.585 63.1168 205.417 62.8286 204.358C62.7785 204.166 62.662 203.998 62.4997 203.884Z" fill="#514C9F"/>
<path d="M60.1164 200.112L54.8181 197.48L55.3662 196.045L61.0259 198.819L60.1164 200.112Z" fill="#514C9F"/>
<path d="M53.2267 150.507L52.7801 151.674C52.7355 151.764 52.841 151.857 52.9912 151.857H66.4217C66.5395 151.857 66.6369 151.8 66.645 151.727L66.7587 150.567C66.7587 150.49 66.6653 150.421 66.5395 150.421H53.4378C53.3984 150.418 53.3586 150.423 53.3219 150.438C53.2852 150.453 53.2525 150.477 53.2267 150.507Z" fill="#514C9F"/>
<path opacity="0.4" d="M53.2267 150.507L52.7801 151.674C52.7355 151.764 52.841 151.857 52.9912 151.857H66.4217C66.5395 151.857 66.6369 151.8 66.645 151.727L66.7587 150.567C66.7587 150.49 66.6653 150.421 66.5395 150.421H53.4378C53.3984 150.418 53.3586 150.423 53.3219 150.438C53.2852 150.453 53.2525 150.477 53.2267 150.507Z" fill="white"/>
<path d="M55.3418 151.971H54.9886C54.9195 151.971 54.8668 151.934 54.8708 151.889L55.0373 150.385C55.0373 150.344 55.1022 150.308 55.1713 150.308H55.5245C55.5935 150.308 55.6463 150.344 55.6422 150.385L55.4758 151.889C55.4717 151.934 55.4108 151.971 55.3418 151.971Z" fill="#514C9F"/>
<path d="M63.6241 151.971H63.2749C63.2059 151.971 63.1531 151.934 63.1572 151.889L63.3196 150.385C63.3196 150.344 63.3886 150.308 63.4576 150.308H63.8068C63.8758 150.308 63.9327 150.344 63.9245 150.385L63.7621 151.889C63.7418 151.934 63.6972 151.971 63.6241 151.971Z" fill="#514C9F"/>
<g style="mix-blend-mode:multiply">
<path d="M55.0332 220.649C61.0403 220.649 65.91 220.296 65.91 219.862C65.91 219.427 61.0403 219.075 55.0332 219.075C49.0262 219.075 44.1565 219.427 44.1565 219.862C44.1565 220.296 49.0262 220.649 55.0332 220.649Z" fill="#F5F5F5"/>
</g>
<path d="M61.6592 218.751C59.7348 218.191 57.5992 217.473 56.3082 216.723C56.2716 216.699 56.231 216.687 56.1945 216.666V207.963H60.088C60.3836 207.946 60.6613 207.816 60.8644 207.601C61.0674 207.386 61.1806 207.101 61.1806 206.806C61.1806 206.51 61.0674 206.225 60.8644 206.01C60.6613 205.795 60.3836 205.665 60.088 205.648H56.2148V165.978H53.8762V205.648H50.007C49.8491 205.638 49.6908 205.661 49.5421 205.715C49.3933 205.769 49.2572 205.853 49.142 205.962C49.0268 206.07 48.935 206.201 48.8723 206.346C48.8096 206.491 48.7773 206.648 48.7773 206.806C48.7773 206.964 48.8096 207.12 48.8723 207.265C48.935 207.41 49.0268 207.541 49.142 207.65C49.2572 207.758 49.3933 207.842 49.5421 207.896C49.6908 207.95 49.8491 207.973 50.007 207.963H53.8762V216.654C53.8397 216.654 53.8031 216.687 53.7666 216.711C52.4552 217.473 50.3359 218.191 48.4115 218.739C48.2815 218.778 48.1698 218.862 48.0968 218.977C48.0237 219.091 47.9941 219.228 48.0132 219.362C48.0324 219.496 48.099 219.619 48.2011 219.709C48.3032 219.798 48.434 219.848 48.5698 219.85H61.5009C61.6307 219.841 61.7535 219.788 61.8488 219.7C61.9442 219.611 62.0063 219.493 62.0249 219.364C62.0434 219.236 62.0172 219.105 61.9507 218.993C61.8841 218.881 61.7813 218.796 61.6592 218.751Z" fill="#EA6B0C"/>
<path d="M62.256 161.939H47.8187C46.6572 161.939 45.7156 162.879 45.7156 164.039V168.326C45.7156 169.486 46.6572 170.427 47.8187 170.427H62.256C63.4175 170.427 64.3591 169.486 64.3591 168.326V164.039C64.3591 162.879 63.4175 161.939 62.256 161.939Z" fill="#514C9F"/>
<path d="M47.6846 170.431V171.169C47.6846 171.777 48.3464 172.272 49.1584 172.272H60.9324C61.7444 172.272 62.4061 171.777 62.4061 171.169V170.431H47.6846Z" fill="#514C9F"/>
<path opacity="0.3" d="M47.6846 170.431V171.169C47.6846 171.777 48.3464 172.272 49.1584 172.272H60.9324C61.7444 172.272 62.4061 171.777 62.4061 171.169V170.431H47.6846Z" fill="white"/>
<defs>
<clipPath id="clip0_1_881">
<rect width="50" height="44" fill="white" transform="translate(76.5)"/>
</clipPath>
</defs>
</svg>
