<svg width="68" height="68" viewBox="0 0 68 68" fill="none" xmlns="http://www.w3.org/2000/svg">
<g clip-path="url(#clip0_293_8444)">
<path d="M34 19.5819C39.3975 19.5819 43.7857 15.1938 43.7857 9.79625C43.7857 4.38812 39.3975 0 34 0C28.6025 0 24.2144 4.38812 24.2144 9.78563C24.2144 15.1831 28.6025 19.5819 34 19.5819ZM16.1075 43.945H25.6807C31.9494 43.6475 33.0544 39.7481 33.1607 39.2912C33.235 38.8981 33.575 38.6219 33.9894 38.6219C34.3932 38.6219 34.7332 38.8981 34.8182 39.3019C34.8288 39.3444 35.7744 43.6369 42.3513 43.945H51.8713C53.04 43.945 53.9538 43.0312 53.9538 41.8625V34.4038C54.1344 26.1375 41.055 24.2994 35.4238 23.8956L35.1157 23.8744L38.3244 34.6587L47.26 37.2937C47.7063 37.4319 47.9613 37.8994 47.8338 38.3456C47.7665 38.5586 47.6194 38.7372 47.4233 38.8442C47.2272 38.9511 46.9974 38.9781 46.7819 38.9194L37.4 36.1463C37.2666 36.107 37.1451 36.0348 37.0467 35.9364C36.9483 35.8381 36.8762 35.7166 36.8369 35.5831L33.9363 25.8612L29.6013 35.7956C29.5057 36.0081 29.325 36.1781 29.1019 36.2631L21.1863 38.9194C21.1225 38.9406 21.0375 38.9619 20.9313 38.9619C20.57 38.9619 20.2513 38.7281 20.1344 38.3881C20.06 38.1756 20.0707 37.9419 20.1769 37.74C20.2832 37.5381 20.4532 37.3894 20.6657 37.3256L28.2094 34.7969L32.9694 23.885L32.6188 23.9062C26.9663 24.2994 13.8232 26.1163 14.0038 34.3825V41.8837C14.0357 43.01 14.9707 43.945 16.1075 43.945ZM56.1425 56.4506C54.91 55.4412 53.4013 54.8887 51.7013 54.825L51.5738 54.8144C51.0425 54.8144 50.5007 54.8675 49.9482 54.9844L40.63 57.5556L41.2782 57.7788C44.2213 58.7881 46.0169 61.0194 45.9744 63.6012C45.9425 65.1525 45.2625 66.5444 44.0088 67.6281L43.5625 68H51.4782C55.3775 68 58.5438 65.0462 58.5438 61.4125C58.5544 59.5106 57.6725 57.7044 56.1425 56.4506Z" fill="#514C9F"/>
<path d="M39.9924 59.1706C39.0574 58.9475 38.0374 58.7456 36.9324 58.565L36.3693 58.4694H36.3587C36.3055 58.4588 36.263 58.4481 36.1887 58.4269L17.3505 54.7931C17.0637 54.74 16.7874 54.6975 16.458 54.6763C16.4049 54.6763 16.3412 54.6656 16.2774 54.655L16.2562 54.6444H16.1712C15.9799 54.6338 15.7887 54.6231 15.608 54.6231C14.0037 54.6231 12.5799 55.0906 11.5174 55.9831C10.1787 57.0988 9.4668 58.7669 9.4668 60.8281C9.4668 64.7913 12.6862 68.0106 16.6493 68.0106H38.2074C38.2393 68.0106 38.9193 67.9575 39.833 67.7769C42.4999 67.2456 44.2424 65.6094 44.2955 63.58C44.3168 61.5294 42.638 59.8081 39.9924 59.1706ZM42.3299 45.6344C37.6443 45.4219 35.3068 43.4244 34.1699 41.7988L33.9999 41.5438L33.8299 41.7988C32.7037 43.4244 30.3874 45.4219 25.7337 45.6344H22.3018V49.4381C22.3018 49.6719 22.1955 49.9056 22.0149 50.0756L18.3812 53.2525L36.4862 57.7044L36.6774 57.7363L36.7412 57.7575L49.6718 53.3056L45.9849 50.0756C45.8957 49.9949 45.8241 49.8966 45.7747 49.7869C45.7254 49.6772 45.6993 49.5584 45.698 49.4381V45.6344H42.3299Z" fill="#514C9F"/>
</g>
<defs>
<clipPath id="clip0_293_8444">
<rect width="68" height="68" fill="white"/>
</clipPath>
</defs>
</svg>
