<svg width="140" height="200" viewBox="0 0 140 200" fill="none" xmlns="http://www.w3.org/2000/svg">
<path d="M92.4 58.3627H125.5V198.763H0.5V24.7627H91.9V57.8627V58.3627H92.4Z" fill="white" stroke="black"/>
<path d="M99.4 51.3627H132.5V191.763H7.5V17.7627H98.9V50.8627V51.3627H99.4Z" fill="#514C9F"/>
<path d="M99.4 51.3627H132.5V191.763H7.5V17.7627H98.9V50.8627V51.3627H99.4Z" fill="white" fill-opacity="0.2"/>
<path d="M99.4 51.3627H132.5V191.763H7.5V17.7627H98.9V50.8627V51.3627H99.4Z" fill="white" fill-opacity="0.2"/>
<path d="M99.4 51.3627H132.5V191.763H7.5V17.7627H98.9V50.8627V51.3627H99.4Z" stroke="black"/>
<path d="M106.4 44.3627H139.5V184.763H14.5V10.7627H105.9V43.8627V44.3627H106.4Z" fill="white" stroke="black"/>
<path d="M106.4 10.2627L140 43.8627H106.4V10.2627Z" fill="#ECEBFF"/>
<rect x="21.7598" y="16.5356" width="39.9" height="39.9" transform="rotate(-11 21.7598 16.5356)" fill="#514C9F"/>
<rect x="21.7598" y="16.5356" width="39.9" height="39.9" transform="rotate(-11 21.7598 16.5356)" fill="white" fill-opacity="0.2"/>
<rect x="21.7598" y="16.5356" width="39.9" height="39.9" transform="rotate(-11 21.7598 16.5356)" fill="white" fill-opacity="0.2"/>
<path d="M35.6653 19.162L37.7127 25.8589C38.6485 28.9198 41.8885 30.6425 44.9494 29.7067V29.7067C48.0103 28.7709 49.7331 25.5309 48.7973 22.47L43.7139 5.84317C42.7781 2.78227 39.5381 1.05954 36.4772 1.99535L36.2463 2.06595C33.3129 2.96277 31.662 6.06776 32.5588 9.00113V9.00113L32.9003 10.2628" stroke="black"/>
<path d="M27.6504 90.4126H117.25" stroke="black"/>
<path d="M27.6504 97.4126H117.25" stroke="black"/>
<path d="M27.6504 111.413H117.25" stroke="black"/>
<path d="M27.6504 125.413H117.25" stroke="black"/>
<path d="M27.6504 153.413H47.2504" stroke="black"/>
<path d="M27.6504 160.413H47.2504" stroke="black"/>
<ellipse cx="41.3002" cy="86.5629" rx="16.1" ry="16.1" fill="#514C9F" fill-opacity="0.2"/>
<path d="M62.6506 107.913L51.8506 97.1128M41.0506 102.513C38.9232 102.513 36.8166 102.094 34.8511 101.28C32.8856 100.466 31.0998 99.2722 29.5955 97.7679C28.0911 96.2636 26.8979 94.4777 26.0837 92.5123C25.2696 90.5468 24.8506 88.4402 24.8506 86.3128C24.8506 84.1854 25.2696 82.0788 26.0837 80.1133C26.8979 78.1478 28.0911 76.362 29.5955 74.8577C31.0998 73.3534 32.8856 72.1601 34.8511 71.3459C36.8166 70.5318 38.9232 70.1128 41.0506 70.1128C45.3471 70.1128 49.4676 71.8196 52.5057 74.8577C55.5438 77.8958 57.2506 82.0163 57.2506 86.3128C57.2506 90.6093 55.5438 94.7298 52.5057 97.7679C49.4676 100.806 45.3471 102.513 41.0506 102.513Z" stroke="black"/>
</svg>
