<svg width="96" height="16" viewBox="0 0 96 16" fill="none" xmlns="http://www.w3.org/2000/svg">
<path d="M2.4 14L3 9.8H0L5.4 2H6.6L6 6.8H9.6L3.6 14H2.4Z" fill="#149540"/>
<path d="M13.9721 12L15.4481 3.6H20.4401L20.2961 4.404H16.3121L15.7961 7.392H19.1441L19.0001 8.172H15.6521L14.9801 12H13.9721ZM21.7032 12.144C21.2552 12.144 20.8912 12.072 20.6112 11.928C20.3312 11.776 20.1232 11.58 19.9872 11.34C19.8512 11.092 19.7832 10.828 19.7832 10.548C19.7832 10.108 19.9072 9.728 20.1552 9.408C20.4032 9.088 20.7472 8.844 21.1872 8.676C21.6352 8.5 22.1552 8.412 22.7472 8.412H24.3432L24.3552 8.34C24.3792 8.204 24.3912 8.068 24.3912 7.932C24.3912 7.548 24.2792 7.256 24.0552 7.056C23.8392 6.856 23.5352 6.756 23.1432 6.756C22.7592 6.756 22.4032 6.856 22.0752 7.056C21.7472 7.248 21.5192 7.532 21.3912 7.908H20.3472C20.4752 7.476 20.6832 7.112 20.9712 6.816C21.2672 6.52 21.6152 6.296 22.0152 6.144C22.4152 5.984 22.8352 5.904 23.2752 5.904C23.9872 5.904 24.5192 6.072 24.8712 6.408C25.2312 6.744 25.4112 7.2 25.4112 7.776C25.4112 7.864 25.4072 7.956 25.3992 8.052C25.3912 8.148 25.3792 8.244 25.3632 8.34L24.7272 12H23.8152L23.9352 10.944C23.7112 11.28 23.4152 11.564 23.0472 11.796C22.6872 12.028 22.2392 12.144 21.7032 12.144ZM22.0032 11.292C22.3872 11.292 22.7312 11.192 23.0352 10.992C23.3472 10.792 23.6032 10.532 23.8032 10.212C24.0032 9.892 24.1352 9.556 24.1992 9.204V9.192H22.6872C22.1192 9.192 21.6712 9.304 21.3432 9.528C21.0232 9.744 20.8632 10.044 20.8632 10.428C20.8632 10.7 20.9592 10.912 21.1512 11.064C21.3512 11.216 21.6352 11.292 22.0032 11.292ZM28.5439 12.144C27.7999 12.144 27.2199 11.956 26.8039 11.58C26.3879 11.196 26.2079 10.68 26.2639 10.032H27.2839C27.2679 10.368 27.3679 10.664 27.5839 10.92C27.7999 11.168 28.1679 11.292 28.6879 11.292C29.1119 11.292 29.4519 11.2 29.7079 11.016C29.9639 10.824 30.0919 10.56 30.0919 10.224C30.0919 9.96 29.9719 9.768 29.7319 9.648C29.4999 9.528 29.1879 9.428 28.7959 9.348C28.4999 9.284 28.2119 9.196 27.9319 9.084C27.6519 8.964 27.4159 8.8 27.2239 8.592C27.0399 8.384 26.9479 8.12 26.9479 7.8C26.9479 7.44 27.0519 7.12 27.2599 6.84C27.4679 6.552 27.7519 6.324 28.1119 6.156C28.4799 5.988 28.8959 5.904 29.3599 5.904C29.9919 5.904 30.4959 6.064 30.8719 6.384C31.2559 6.696 31.4319 7.144 31.3999 7.728H30.3919C30.4079 7.432 30.3119 7.196 30.1039 7.02C29.9039 6.844 29.6199 6.756 29.2519 6.756C28.8839 6.756 28.5799 6.844 28.3399 7.02C28.1079 7.188 27.9919 7.396 27.9919 7.644C27.9919 7.884 28.1039 8.064 28.3279 8.184C28.5599 8.304 28.8679 8.408 29.2519 8.496C29.5799 8.568 29.8879 8.664 30.1759 8.784C30.4639 8.904 30.6959 9.068 30.8719 9.276C31.0559 9.484 31.1479 9.756 31.1479 10.092C31.1479 10.508 31.0359 10.872 30.8119 11.184C30.5879 11.488 30.2799 11.724 29.8879 11.892C29.4959 12.06 29.0479 12.144 28.5439 12.144ZM34.3296 12C33.8336 12 33.4496 11.904 33.1776 11.712C32.9056 11.512 32.7696 11.176 32.7696 10.704C32.7696 10.624 32.7736 10.54 32.7816 10.452C32.7896 10.356 32.8016 10.256 32.8176 10.152L33.3936 6.9H32.4696L32.6256 6.048H33.5496L33.9336 4.62H34.8216L34.5576 6.048H36.3216L36.1656 6.9H34.4136L33.8256 10.152C33.8096 10.28 33.8016 10.392 33.8016 10.488C33.8016 10.736 33.8656 10.908 33.9936 11.004C34.1296 11.092 34.3456 11.136 34.6416 11.136H35.4216L35.2656 12H34.3296ZM39.0404 12.144C38.3044 12.144 37.7124 11.916 37.2644 11.46C36.8244 11.004 36.6044 10.392 36.6044 9.624C36.6044 8.936 36.7564 8.312 37.0604 7.752C37.3644 7.184 37.7804 6.736 38.3084 6.408C38.8444 6.072 39.4524 5.904 40.1324 5.904C40.6524 5.904 41.0884 6.008 41.4404 6.216C41.8004 6.416 42.0684 6.688 42.2444 7.032C42.4284 7.376 42.5204 7.756 42.5204 8.172C42.5204 8.332 42.5004 8.516 42.4604 8.724C42.4284 8.924 42.3964 9.1 42.3644 9.252H37.6124C37.5964 9.388 37.5884 9.508 37.5884 9.612C37.5884 10.18 37.7484 10.604 38.0684 10.884C38.3884 11.156 38.7644 11.292 39.1964 11.292C39.6124 11.292 39.9764 11.196 40.2884 11.004C40.6084 10.804 40.8564 10.544 41.0324 10.224H42.0284C41.7804 10.776 41.3964 11.236 40.8764 11.604C40.3564 11.964 39.7444 12.144 39.0404 12.144ZM40.0004 6.756C39.5204 6.756 39.0684 6.904 38.6444 7.2C38.2204 7.488 37.9284 7.912 37.7684 8.472H41.5124C41.5204 8.424 41.5244 8.38 41.5244 8.34C41.5324 8.292 41.5364 8.248 41.5364 8.208C41.5364 7.752 41.3964 7.396 41.1164 7.14C40.8364 6.884 40.4644 6.756 40.0004 6.756ZM43.2207 12L44.2647 6.048H45.1887L45.0807 7.104C45.3367 6.736 45.6727 6.444 46.0887 6.228C46.5127 6.012 46.9927 5.904 47.5287 5.904L47.3487 6.96H47.0727C46.7127 6.96 46.3727 7.016 46.0527 7.128C45.7407 7.24 45.4727 7.432 45.2487 7.704C45.0247 7.968 44.8727 8.332 44.7927 8.796L44.2287 12H43.2207ZM50.604 14.64L52.128 6.048H53.064L52.968 7.032C53.216 6.72 53.52 6.456 53.88 6.24C54.248 6.016 54.7 5.904 55.236 5.904C55.748 5.904 56.188 6.016 56.556 6.24C56.924 6.464 57.204 6.768 57.396 7.152C57.596 7.536 57.696 7.972 57.696 8.46C57.696 9.156 57.544 9.784 57.24 10.344C56.944 10.896 56.536 11.336 56.016 11.664C55.496 11.984 54.908 12.144 54.252 12.144C53.932 12.144 53.636 12.088 53.364 11.976C53.1 11.864 52.872 11.72 52.68 11.544C52.496 11.368 52.36 11.184 52.272 10.992L51.612 14.64H50.604ZM54.312 11.268C54.768 11.268 55.172 11.152 55.524 10.92C55.876 10.688 56.152 10.372 56.352 9.972C56.552 9.572 56.652 9.116 56.652 8.604C56.652 8.076 56.5 7.64 56.196 7.296C55.9 6.952 55.496 6.78 54.984 6.78C54.528 6.78 54.12 6.9 53.76 7.14C53.4 7.38 53.116 7.708 52.908 8.124C52.7 8.532 52.596 8.988 52.596 9.492C52.596 10.028 52.752 10.46 53.064 10.788C53.376 11.108 53.792 11.268 54.312 11.268ZM58.5254 12L59.5694 6.048H60.4934L60.3854 7.104C60.6414 6.736 60.9774 6.444 61.3934 6.228C61.8174 6.012 62.2974 5.904 62.8334 5.904L62.6534 6.96H62.3774C62.0174 6.96 61.6774 7.016 61.3574 7.128C61.0454 7.24 60.7774 7.432 60.5534 7.704C60.3294 7.968 60.1774 8.332 60.0974 8.796L59.5334 12H58.5254ZM65.4804 12.144C64.9844 12.144 64.5444 12.032 64.1604 11.808C63.7764 11.584 63.4764 11.276 63.2604 10.884C63.0444 10.492 62.9364 10.048 62.9364 9.552C62.9364 9.024 63.0284 8.54 63.2124 8.1C63.3964 7.66 63.6484 7.276 63.9684 6.948C64.2884 6.62 64.6604 6.364 65.0844 6.18C65.5084 5.996 65.9684 5.904 66.4644 5.904C66.9604 5.904 67.4004 6.012 67.7844 6.228C68.1684 6.444 68.4684 6.744 68.6844 7.128C68.9004 7.512 69.0084 7.956 69.0084 8.46C69.0084 8.98 68.9164 9.464 68.7324 9.912C68.5564 10.36 68.3044 10.752 67.9764 11.088C67.6564 11.416 67.2844 11.676 66.8604 11.868C66.4364 12.052 65.9764 12.144 65.4804 12.144ZM65.6124 11.28C66.0604 11.28 66.4604 11.16 66.8124 10.92C67.1724 10.68 67.4564 10.352 67.6644 9.936C67.8724 9.52 67.9764 9.052 67.9764 8.532C67.9764 7.972 67.8124 7.54 67.4844 7.236C67.1644 6.924 66.7804 6.768 66.3324 6.768C65.8924 6.768 65.4964 6.888 65.1444 7.128C64.7924 7.368 64.5124 7.696 64.3044 8.112C64.0964 8.528 63.9924 8.996 63.9924 9.516C63.9924 9.892 64.0644 10.212 64.2084 10.476C64.3604 10.732 64.5604 10.932 64.8084 11.076C65.0564 11.212 65.3244 11.28 65.6124 11.28ZM72.5337 12.144C72.0457 12.144 71.6137 12.04 71.2377 11.832C70.8617 11.616 70.5697 11.32 70.3617 10.944C70.1537 10.56 70.0497 10.116 70.0497 9.612C70.0497 9.084 70.1417 8.596 70.3257 8.148C70.5097 7.692 70.7657 7.296 71.0937 6.96C71.4217 6.624 71.8017 6.364 72.2337 6.18C72.6657 5.996 73.1297 5.904 73.6257 5.904C74.3457 5.904 74.9177 6.092 75.3417 6.468C75.7657 6.844 75.9817 7.352 75.9897 7.992H74.9577C74.9577 7.584 74.8137 7.28 74.5257 7.08C74.2377 6.872 73.8897 6.768 73.4817 6.768C73.0417 6.768 72.6417 6.888 72.2817 7.128C71.9217 7.36 71.6337 7.684 71.4177 8.1C71.2017 8.508 71.0937 8.976 71.0937 9.504C71.0937 10.072 71.2497 10.512 71.5617 10.824C71.8737 11.136 72.2497 11.292 72.6897 11.292C73.0977 11.292 73.4777 11.188 73.8297 10.98C74.1897 10.772 74.4457 10.464 74.5977 10.056H75.6297C75.4777 10.464 75.2497 10.828 74.9457 11.148C74.6417 11.46 74.2817 11.704 73.8657 11.88C73.4577 12.056 73.0137 12.144 72.5337 12.144ZM79.3177 12.144C78.5817 12.144 77.9897 11.916 77.5417 11.46C77.1017 11.004 76.8817 10.392 76.8817 9.624C76.8817 8.936 77.0337 8.312 77.3377 7.752C77.6417 7.184 78.0577 6.736 78.5857 6.408C79.1217 6.072 79.7297 5.904 80.4097 5.904C80.9297 5.904 81.3657 6.008 81.7177 6.216C82.0777 6.416 82.3457 6.688 82.5217 7.032C82.7057 7.376 82.7977 7.756 82.7977 8.172C82.7977 8.332 82.7777 8.516 82.7377 8.724C82.7057 8.924 82.6737 9.1 82.6417 9.252H77.8897C77.8737 9.388 77.8657 9.508 77.8657 9.612C77.8657 10.18 78.0257 10.604 78.3457 10.884C78.6657 11.156 79.0417 11.292 79.4737 11.292C79.8897 11.292 80.2537 11.196 80.5657 11.004C80.8857 10.804 81.1337 10.544 81.3097 10.224H82.3057C82.0577 10.776 81.6737 11.236 81.1537 11.604C80.6337 11.964 80.0217 12.144 79.3177 12.144ZM80.2777 6.756C79.7977 6.756 79.3457 6.904 78.9217 7.2C78.4977 7.488 78.2057 7.912 78.0457 8.472H81.7897C81.7977 8.424 81.8017 8.38 81.8017 8.34C81.8097 8.292 81.8137 8.248 81.8137 8.208C81.8137 7.752 81.6737 7.396 81.3937 7.14C81.1137 6.884 80.7417 6.756 80.2777 6.756ZM85.79 12.144C85.046 12.144 84.466 11.956 84.05 11.58C83.634 11.196 83.454 10.68 83.51 10.032H84.53C84.514 10.368 84.614 10.664 84.83 10.92C85.046 11.168 85.414 11.292 85.934 11.292C86.358 11.292 86.698 11.2 86.954 11.016C87.21 10.824 87.338 10.56 87.338 10.224C87.338 9.96 87.218 9.768 86.978 9.648C86.746 9.528 86.434 9.428 86.042 9.348C85.746 9.284 85.458 9.196 85.178 9.084C84.898 8.964 84.662 8.8 84.47 8.592C84.286 8.384 84.194 8.12 84.194 7.8C84.194 7.44 84.298 7.12 84.506 6.84C84.714 6.552 84.998 6.324 85.358 6.156C85.726 5.988 86.142 5.904 86.606 5.904C87.238 5.904 87.742 6.064 88.118 6.384C88.502 6.696 88.678 7.144 88.646 7.728H87.638C87.654 7.432 87.558 7.196 87.35 7.02C87.15 6.844 86.866 6.756 86.498 6.756C86.13 6.756 85.826 6.844 85.586 7.02C85.354 7.188 85.238 7.396 85.238 7.644C85.238 7.884 85.35 8.064 85.574 8.184C85.806 8.304 86.114 8.408 86.498 8.496C86.826 8.568 87.134 8.664 87.422 8.784C87.71 8.904 87.942 9.068 88.118 9.276C88.302 9.484 88.394 9.756 88.394 10.092C88.394 10.508 88.282 10.872 88.058 11.184C87.834 11.488 87.526 11.724 87.134 11.892C86.742 12.06 86.294 12.144 85.79 12.144ZM91.9541 12.144C91.2101 12.144 90.6301 11.956 90.2141 11.58C89.7981 11.196 89.6181 10.68 89.6741 10.032H90.6941C90.6781 10.368 90.7781 10.664 90.9941 10.92C91.2101 11.168 91.5781 11.292 92.0981 11.292C92.5221 11.292 92.8621 11.2 93.1181 11.016C93.3741 10.824 93.5021 10.56 93.5021 10.224C93.5021 9.96 93.3821 9.768 93.1421 9.648C92.9101 9.528 92.5981 9.428 92.2061 9.348C91.9101 9.284 91.6221 9.196 91.3421 9.084C91.0621 8.964 90.8261 8.8 90.6341 8.592C90.4501 8.384 90.3581 8.12 90.3581 7.8C90.3581 7.44 90.4621 7.12 90.6701 6.84C90.8781 6.552 91.1621 6.324 91.5221 6.156C91.8901 5.988 92.3061 5.904 92.7701 5.904C93.4021 5.904 93.9061 6.064 94.2821 6.384C94.6661 6.696 94.8421 7.144 94.8101 7.728H93.8021C93.8181 7.432 93.7221 7.196 93.5141 7.02C93.3141 6.844 93.0301 6.756 92.6621 6.756C92.2941 6.756 91.9901 6.844 91.7501 7.02C91.5181 7.188 91.4021 7.396 91.4021 7.644C91.4021 7.884 91.5141 8.064 91.7381 8.184C91.9701 8.304 92.2781 8.408 92.6621 8.496C92.9901 8.568 93.2981 8.664 93.5861 8.784C93.8741 8.904 94.1061 9.068 94.2821 9.276C94.4661 9.484 94.5581 9.756 94.5581 10.092C94.5581 10.508 94.4461 10.872 94.2221 11.184C93.9981 11.488 93.6901 11.724 93.2981 11.892C92.9061 12.06 92.4581 12.144 91.9541 12.144Z" fill="#149540"/>
</svg>
