<svg width="23" height="20" viewBox="0 0 23 20" fill="none" xmlns="http://www.w3.org/2000/svg">
<path d="M13.9898 0.0419604C15.1504 0.274083 15.9048 1.40345 15.6727 2.56406L15.57 3.07294C15.3334 4.2648 14.896 5.39862 14.2844 6.42978H20.7124C21.8954 6.42978 22.8551 7.38952 22.8551 8.57245C22.8551 9.39827 22.3864 10.117 21.699 10.4741C22.1855 10.8669 22.498 11.4695 22.498 12.1436C22.498 13.1881 21.7481 14.0586 20.7615 14.246C20.9579 14.5719 21.0695 14.9513 21.0695 15.3576C21.0695 16.3084 20.4491 17.1163 19.592 17.3931C19.6232 17.5404 19.6411 17.6966 19.6411 17.8573C19.6411 19.0403 18.6814 20 17.4984 20H13.1461C12.298 20 11.4722 19.75 10.7669 19.2813L9.0483 18.1341C7.85644 17.3395 7.14222 16.0004 7.14222 14.5674V9.60361C7.14222 8.30015 7.73592 7.07258 8.74922 6.25569L9.07955 5.99232C10.2625 5.04598 11.0704 3.71574 11.3651 2.23373L11.4677 1.72485C11.6998 0.564235 12.8292 -0.190162 13.9898 0.0419604ZM1.42844 7.144H4.28533C5.07544 7.144 5.71377 7.78234 5.71377 8.57245V18.5716C5.71377 19.3617 5.07544 20 4.28533 20H1.42844C0.638336 20 0 19.3617 0 18.5716V8.57245C0 7.78234 0.638336 7.144 1.42844 7.144Z" fill="#149540"/>
</svg>
