<svg width="125" height="125" viewBox="0 0 125 125" fill="none" xmlns="http://www.w3.org/2000/svg">
<g filter="url(#filter0_d_1222_1140)">
<circle cx="65.0504" cy="59.4" r="59.4" fill="#FFE4A2"/>
<path d="M82.4877 63.7914C80.607 62.6764 78.1771 63.2984 77.0627 65.1803C74.8564 68.9045 70.6663 71.2176 66.1282 71.2176C61.4727 71.2176 57.2414 68.7762 55.0861 64.8459C54.0349 62.9284 51.6282 62.2258 49.71 63.2777C47.7919 64.3289 47.0899 66.7362 48.1419 68.6538C51.688 75.1203 58.58 79.1378 66.1282 79.1378C73.4507 79.1378 80.2518 75.3363 83.8766 69.2165C84.9918 67.3351 84.3698 64.9059 82.4877 63.7914Z" fill="#514C9F"/>
<path d="M64.9498 0.400391C50.0613 0.400391 36.0513 5.83443 25.1291 15.7596C23.0139 14.51 20.9521 13.864 18.9741 13.864C7.39952 13.864 6.49981 33.1419 6.49981 39.0504C6.49981 41.0219 6.87046 42.9758 7.52743 44.7395C6.2366 49.6093 5.5498 54.6619 5.5498 59.8004C5.5498 92.5536 32.1966 119.2 64.9498 119.2C97.703 119.2 124.35 92.5536 124.35 59.8004C124.35 27.0472 97.703 0.400391 64.9498 0.400391ZM18.9741 21.784C19.3163 21.784 20.6151 21.9374 22.994 23.9328C24.7104 25.3431 26.5383 27.4591 28.272 30.0398C30.876 33.9457 32.0419 37.3797 32.0419 39.0504C32.0419 43.9192 28.0806 47.8805 23.2113 47.8805C21.2705 47.8805 19.5058 47.2051 17.9635 46.0546C16.7504 45.18 15.8276 43.9901 15.2179 42.6297C14.6982 41.5375 14.4198 40.3027 14.4198 39.0505C14.4198 29.3263 16.8677 21.784 18.9741 21.784ZM64.9498 111.28C36.5633 111.28 13.4698 88.1869 13.4698 59.8004C13.4698 57.4808 13.6232 55.1804 13.9281 52.9142C14.0077 52.9694 14.0914 53.0163 14.1718 53.0698C14.3307 53.1758 14.4916 53.2775 14.6537 53.3775C14.8587 53.5043 15.0657 53.6265 15.2752 53.7434C15.4406 53.8358 15.6071 53.9255 15.7752 54.0118C15.9894 54.1218 16.2059 54.2254 16.4244 54.3253C16.5942 54.4032 16.7641 54.48 16.9365 54.5517C17.1605 54.6449 17.3873 54.73 17.6151 54.8129C17.7877 54.8757 17.9595 54.9395 18.1342 54.9964C18.3699 55.0731 18.6088 55.1397 18.848 55.2056C19.0197 55.2529 19.1906 55.3033 19.364 55.3449C19.6159 55.4052 19.871 55.4532 20.1263 55.5015C20.292 55.533 20.4563 55.5695 20.6234 55.5958C20.9064 55.6404 21.1927 55.6701 21.4793 55.6999C21.6223 55.7147 21.7634 55.7369 21.9071 55.748C22.3386 55.7815 22.7733 55.8003 23.2113 55.8003C32.4474 55.8003 39.9619 48.2863 39.9619 39.0501C39.9619 33.8565 36.3952 27.9462 34.8541 25.6348C34.282 24.783 33.7022 23.9796 33.118 23.2162C32.9418 22.986 32.7624 22.7832 32.5851 22.5612C32.1729 22.0446 31.7604 21.532 31.3441 21.061C31.3052 21.0172 31.2675 20.9649 31.2287 20.9215C40.5736 12.7683 52.404 8.32039 64.9498 8.32039C93.3363 8.32039 116.43 31.4139 116.43 59.8004C116.43 88.1869 93.3363 111.28 64.9498 111.28Z" fill="#514C9F"/>
<path d="M22.9941 23.933C20.6152 21.9376 19.3165 21.7842 18.9742 21.7842C16.8679 21.7842 14.4199 29.3265 14.4199 39.0507C14.4199 40.3029 14.6983 41.5377 15.218 42.6299C15.8277 43.9902 16.7505 45.1802 17.9636 46.0548C19.5059 47.2053 21.2707 47.8807 23.2114 47.8807C28.0807 47.8807 32.0421 43.9194 32.0421 39.0506C32.0421 37.3798 30.8761 33.9459 28.2721 30.04C26.5384 27.4593 24.7105 25.3433 22.9941 23.933Z" fill="#B9B7D9"/>
<path d="M53.5172 26.9606C52.1496 25.2565 49.6558 24.9832 47.9504 26.3529L37.4007 34.8253C35.6953 36.1942 35.4233 38.6867 36.793 40.3921C37.5748 41.366 38.7233 41.8726 39.8828 41.8726C40.753 41.8726 41.6289 41.5871 42.3598 41L52.9095 32.5276C54.6148 31.1584 54.8869 28.666 53.5172 26.9606Z" fill="#514C9F"/>
<path d="M92.2263 34.0654L80.3463 26.1454C78.5261 24.9312 76.0666 25.4242 74.8548 27.2437C73.6419 29.0632 74.1336 31.5221 75.9531 32.7351L87.8331 40.6551C88.5078 41.105 89.2711 41.321 90.0257 41.321C91.3057 41.321 92.5613 40.7016 93.3244 39.5569C94.5375 37.7373 94.0458 35.2785 92.2263 34.0654Z" fill="#514C9F"/>
<path d="M52.4097 57.1603C55.6903 57.1603 58.3497 53.6144 58.3497 49.2403C58.3497 44.8662 55.6903 41.3203 52.4097 41.3203C49.1292 41.3203 46.4697 44.8662 46.4697 49.2403C46.4697 53.6144 49.1292 57.1603 52.4097 57.1603Z" fill="#514C9F"/>
<path d="M80.1295 57.1603C83.41 57.1603 86.0695 53.6144 86.0695 49.2403C86.0695 44.8662 83.41 41.3203 80.1295 41.3203C76.8489 41.3203 74.1895 44.8662 74.1895 49.2403C74.1895 53.6144 76.8489 57.1603 80.1295 57.1603Z" fill="#514C9F"/>
</g>
<defs>
<filter id="filter0_d_1222_1140" x="0.269804" y="0" width="124.181" height="124.48" filterUnits="userSpaceOnUse" color-interpolation-filters="sRGB">
<feFlood flood-opacity="0" result="BackgroundImageFix"/>
<feColorMatrix in="SourceAlpha" type="matrix" values="0 0 0 0 0 0 0 0 0 0 0 0 0 0 0 0 0 0 127 0" result="hardAlpha"/>
<feOffset dx="-5.28" dy="5.28"/>
<feComposite in2="hardAlpha" operator="out"/>
<feColorMatrix type="matrix" values="0 0 0 0 0.317647 0 0 0 0 0.298039 0 0 0 0 0.623529 0 0 0 0.4 0"/>
<feBlend mode="normal" in2="BackgroundImageFix" result="effect1_dropShadow_1222_1140"/>
<feBlend mode="normal" in="SourceGraphic" in2="effect1_dropShadow_1222_1140" result="shape"/>
</filter>
</defs>
</svg>
