<svg width="86" height="86" viewBox="0 0 86 86" fill="none" xmlns="http://www.w3.org/2000/svg">
<g filter="url(#filter0_d_924_2302)">
<path d="M86 16C86 5.60765 65.391 0 46 0C26.609 0 6 5.60765 6 16C6 18.568 7.27538 20.9424 9.75858 23.0919C7.26738 28.4231 6 34.0994 6 40C6 62.0564 23.944 80 46 80C68.056 80 86 62.0564 86 40C86 34.0996 84.7326 28.4234 82.2417 23.0924C84.7234 20.9449 86 18.5692 86 16Z" fill="#FFE4A2"/>
<path d="M86 16C86 5.60765 65.391 0 46 0C26.609 0 6 5.60765 6 16C6 18.568 7.27538 20.9424 9.75858 23.0919C7.26738 28.4231 6 34.0994 6 40C6 62.0564 23.944 80 46 80C68.056 80 86 62.0564 86 40C86 34.0996 84.7326 28.4234 82.2417 23.0924C84.7234 20.9449 86 18.5692 86 16ZM46 5.33333C67.1619 5.33333 80.6667 11.651 80.6667 16C80.6667 17.6649 78.6172 19.2865 77.4032 20.0998C71.4067 24.0894 59.0803 26.6667 46 26.6667C44.365 26.6667 42.7417 26.6264 41.1412 26.5481C29.9371 26.0003 19.8438 23.5907 14.5968 20.0998L14.5952 20.0988C13.3729 19.2784 11.3333 17.6612 11.3333 16C11.3333 11.651 24.8381 5.33333 46 5.33333ZM46 74.6667C26.8845 74.6667 11.3333 59.1155 11.3333 40C11.3333 35.1493 12.3177 30.4705 14.2639 26.0547C14.3102 26.078 14.3613 26.0998 14.408 26.1231C14.5838 26.2108 14.77 26.2948 14.9507 26.3809C15.2792 26.5373 15.6101 26.6927 15.9546 26.8435C16.1641 26.9351 16.3809 27.024 16.5961 27.1136C16.9313 27.2532 17.2703 27.391 17.619 27.5253C17.8484 27.6137 18.0814 27.7002 18.3164 27.7862C18.6711 27.9161 19.0319 28.0432 19.3991 28.1678C19.641 28.2499 19.8834 28.3314 20.1305 28.411C20.5124 28.5341 20.9025 28.6532 21.2964 28.7707C21.5415 28.8437 21.7841 28.9177 22.0337 28.9885C22.463 29.1104 22.9028 29.2266 23.3449 29.3416C23.5716 29.4006 23.7936 29.462 24.0236 29.5192C24.5985 29.6621 25.1854 29.7981 25.7797 29.9297C25.8846 29.9529 25.9852 29.9786 26.0907 30.0014C26.7972 30.1545 27.5175 30.2989 28.249 30.4355C28.4489 30.4728 28.6548 30.5056 28.8565 30.5417C29.3903 30.6372 29.9262 30.7308 30.4716 30.8173C30.7473 30.8612 31.028 30.9004 31.3066 30.9419C31.7882 31.0135 32.2711 31.0838 32.7608 31.1484C33.0691 31.1892 33.3804 31.2266 33.6916 31.2645C34.1633 31.322 34.6368 31.3769 35.1149 31.4278C35.438 31.4622 35.7623 31.4948 36.0883 31.5261C36.5672 31.5723 37.0488 31.6145 37.5334 31.6539C37.862 31.6806 38.1901 31.7072 38.5211 31.7308C39.0215 31.7667 39.5257 31.7969 40.0313 31.8256C40.3483 31.8436 40.6637 31.8632 40.9826 31.8783C41.539 31.9047 42.0996 31.9236 42.6612 31.9413C42.9341 31.9499 43.205 31.962 43.479 31.9685C44.315 31.9884 45.1551 32 46 32C46.8448 32 47.685 31.9884 48.521 31.9686C48.7952 31.9621 49.0662 31.95 49.3394 31.9414C49.9007 31.9238 50.4612 31.9048 51.0174 31.8784C51.3358 31.8633 51.6508 31.8437 51.9673 31.8258C52.4743 31.7971 52.9799 31.7667 53.4818 31.7308C53.8102 31.7073 54.136 31.6809 54.462 31.6543C54.9494 31.6147 55.4339 31.5723 55.9155 31.5259C56.2387 31.4948 56.5603 31.4625 56.8807 31.4284C57.3643 31.3769 57.8432 31.3213 58.32 31.2632C58.6246 31.226 58.9293 31.1895 59.231 31.1497C59.7328 31.0835 60.2276 31.0116 60.721 30.938C60.9868 30.8982 61.2549 30.8607 61.5183 30.8189C62.0919 30.7279 62.6559 30.6299 63.2165 30.529C63.3899 30.4978 63.5674 30.4697 63.7394 30.4376C64.4804 30.2994 65.2098 30.153 65.9252 29.9978C65.9753 29.9868 66.0231 29.9746 66.0731 29.9636C66.7264 29.8204 67.3683 29.6705 67.9982 29.5135C68.1928 29.465 68.3806 29.413 68.5729 29.3632C69.054 29.2387 69.5308 29.1121 69.9968 28.9796C70.2153 28.9175 70.4277 28.8526 70.6428 28.7888C71.0708 28.6617 71.4938 28.5323 71.9076 28.3985C72.1266 28.3276 72.3414 28.2555 72.5563 28.1828C72.9555 28.0477 73.3469 27.9098 73.7315 27.7684C73.9384 27.6924 74.1444 27.6161 74.3469 27.5382C74.7292 27.3913 75.1006 27.2404 75.4668 27.0873C75.6519 27.0098 75.8391 26.9333 76.02 26.8543C76.4021 26.6874 76.7696 26.5155 77.1322 26.3417C77.2794 26.271 77.4322 26.2025 77.5762 26.1308C77.6281 26.1049 77.6849 26.0807 77.7364 26.0547C79.6823 30.4705 80.6667 35.1493 80.6667 40C80.6667 59.1155 65.1155 74.6667 46 74.6667Z" fill="#514C9F"/>
<path d="M26.6232 22.3811C31.835 23.4253 38.7165 24 46.0003 24C53.2841 24 60.1657 23.4253 65.3775 22.3811C70.013 21.4532 75.3337 19.8889 75.3337 16C75.3337 12.1111 70.013 10.5468 65.3775 9.61893C60.1657 8.57467 53.2841 8 46.0003 8C38.7165 8 31.835 8.57467 26.6232 9.61893C21.9877 10.5468 16.667 12.1111 16.667 16C16.667 19.8889 21.9877 21.4532 26.6232 22.3811ZM46.0003 13.3333C57.6023 13.3333 65.3784 14.802 68.6483 16C65.3784 17.198 57.6023 18.6667 46.0003 18.6667C34.3984 18.6667 26.6223 17.198 23.3523 16C26.6223 14.802 34.3984 13.3333 46.0003 13.3333Z" fill="#514C9F"/>
<path d="M56.9215 52.4652C55.6555 51.7144 54.0183 52.1328 53.2683 53.4001C51.7826 55.908 48.961 57.4661 45.905 57.4661C42.77 57.4661 39.9207 55.822 38.4693 53.1753C37.7618 51.8846 36.1412 51.4105 34.849 52.1189C33.5574 52.8272 33.0847 54.4488 33.793 55.7395C36.181 60.0945 40.8221 62.7994 45.905 62.7994C50.836 62.7994 55.4159 60.2395 57.8568 56.1189C58.6078 54.8515 58.1889 53.2161 56.9215 52.4652Z" fill="#514C9F"/>
<path d="M38.0003 44.0003C38.0003 45.4734 39.1944 46.667 40.667 46.667C42.1396 46.667 43.3337 45.4734 43.3337 44.0003C43.3337 38.8537 39.1466 34.667 34.0003 34.667C28.854 34.667 24.667 38.8537 24.667 44.0003C24.667 45.4734 25.861 46.667 27.3337 46.667C28.8063 46.667 30.0003 45.4734 30.0003 44.0003C30.0003 41.7946 31.7946 40.0003 34.0003 40.0003C36.206 40.0003 38.0003 41.7946 38.0003 44.0003Z" fill="#514C9F"/>
<path d="M58.0003 34.667C52.854 34.667 48.667 38.8537 48.667 44.0003C48.667 45.4734 49.861 46.667 51.3337 46.667C52.8063 46.667 54.0003 45.4734 54.0003 44.0003C54.0003 41.7946 55.7946 40.0003 58.0003 40.0003C60.206 40.0003 62.0003 41.7946 62.0003 44.0003C62.0003 45.4734 63.1944 46.667 64.667 46.667C66.1396 46.667 67.3337 45.4734 67.3337 44.0003C67.3337 38.8537 63.1466 34.667 58.0003 34.667Z" fill="#514C9F"/>
</g>
<defs>
<filter id="filter0_d_924_2302" x="0.72" y="0" width="85.28" height="85.28" filterUnits="userSpaceOnUse" color-interpolation-filters="sRGB">
<feFlood flood-opacity="0" result="BackgroundImageFix"/>
<feColorMatrix in="SourceAlpha" type="matrix" values="0 0 0 0 0 0 0 0 0 0 0 0 0 0 0 0 0 0 127 0" result="hardAlpha"/>
<feOffset dx="-5.28" dy="5.28"/>
<feComposite in2="hardAlpha" operator="out"/>
<feColorMatrix type="matrix" values="0 0 0 0 0.317647 0 0 0 0 0.298039 0 0 0 0 0.623529 0 0 0 0.4 0"/>
<feBlend mode="normal" in2="BackgroundImageFix" result="effect1_dropShadow_924_2302"/>
<feBlend mode="normal" in="SourceGraphic" in2="effect1_dropShadow_924_2302" result="shape"/>
</filter>
</defs>
</svg>
