<svg width="32" height="32" viewBox="0 0 32 32" fill="none" xmlns="http://www.w3.org/2000/svg">
<rect width="32.0001" height="32" rx="4" fill="#ECEBFF"/>
<path d="M21.6283 18.547L19.6488 18.321C19.416 18.2937 19.1801 18.3195 18.9587 18.3964C18.7374 18.4733 18.5363 18.5995 18.3707 18.7653L16.9367 20.1993C14.7242 19.0741 12.9259 17.2758 11.8007 15.0633L13.2425 13.6215C13.5777 13.2864 13.7413 12.8188 13.6868 12.3434L13.4607 10.3795C13.4166 9.99927 13.2341 9.6486 12.9481 9.39423C12.6621 9.13986 12.2926 8.99955 11.9098 9H10.5616C9.6809 9 8.94831 9.73259 9.00286 10.6133C9.41592 17.2689 14.7389 22.5841 21.3867 22.9971C22.2674 23.0517 23 22.3191 23 21.4384V20.0902C23.0078 19.303 22.4155 18.6406 21.6283 18.547Z" fill="#514C9F"/>
</svg>
