<svg width="32" height="32" viewBox="0 0 32 32" fill="none" xmlns="http://www.w3.org/2000/svg">
<rect width="32.0001" height="32" rx="4" fill="#ECEBFF"/>
<path fill-rule="evenodd" clip-rule="evenodd" d="M7.45312 10.5638C7.45312 9.88385 7.72324 9.23173 8.20405 8.75092C8.68486 8.27012 9.33697 8 10.0169 8H21.9814C22.6614 8 23.3135 8.27012 23.7943 8.75092C24.2751 9.23173 24.5452 9.88385 24.5452 10.5638V19.1098C24.5452 19.7898 24.2751 20.4419 23.7943 20.9227C23.3135 21.4035 22.6614 21.6737 21.9814 21.6737H18.416C18.1893 21.6737 17.972 21.7638 17.8118 21.9241L16.2162 23.5196C15.1907 24.546 13.4354 23.8187 13.4354 22.3676C13.4354 22.1836 13.3622 22.007 13.2321 21.8769C13.102 21.7468 12.9255 21.6737 12.7414 21.6737H10.0169C9.33697 21.6737 8.68486 21.4035 8.20405 20.9227C7.72324 20.4419 7.45313 19.7898 7.45312 19.1098V10.5638ZM11.7261 10.5638C11.4995 10.5638 11.2821 10.6538 11.1218 10.8141C10.9616 10.9744 10.8715 11.1918 10.8715 11.4184C10.8715 11.6451 10.9616 11.8624 11.1218 12.0227C11.2821 12.183 11.4995 12.273 11.7261 12.273H20.2722C20.4988 12.273 20.7162 12.183 20.8765 12.0227C21.0367 11.8624 21.1268 11.6451 21.1268 11.4184C21.1268 11.1918 21.0367 10.9744 20.8765 10.8141C20.7162 10.6538 20.4988 10.5638 20.2722 10.5638H11.7261ZM11.7261 13.9822C11.4995 13.9822 11.2821 14.0723 11.1218 14.2325C10.9616 14.3928 10.8715 14.6102 10.8715 14.8368C10.8715 15.0635 10.9616 15.2809 11.1218 15.4411C11.2821 15.6014 11.4995 15.6914 11.7261 15.6914H20.2722C20.4988 15.6914 20.7162 15.6014 20.8765 15.4411C21.0367 15.2809 21.1268 15.0635 21.1268 14.8368C21.1268 14.6102 21.0367 14.3928 20.8765 14.2325C20.7162 14.0723 20.4988 13.9822 20.2722 13.9822H11.7261ZM11.7261 17.4006C11.4995 17.4006 11.2821 17.4907 11.1218 17.6509C10.9616 17.8112 10.8715 18.0286 10.8715 18.2552C10.8715 18.4819 10.9616 18.6993 11.1218 18.8595C11.2821 19.0198 11.4995 19.1098 11.7261 19.1098H15.1446C15.3712 19.1098 15.5886 19.0198 15.7489 18.8595C15.9091 18.6993 15.9992 18.4819 15.9992 18.2552C15.9992 18.0286 15.9091 17.8112 15.7489 17.6509C15.5886 17.4907 15.3712 17.4006 15.1446 17.4006H11.7261Z" fill="#514C9F"/>
</svg>
