<svg width="25" height="24" viewBox="0 0 25 24" fill="none" xmlns="http://www.w3.org/2000/svg">
<path d="M23.6743 9.90715L12.8337 0.271016C12.3519 -0.0903388 11.7496 -0.0903388 11.2678 0.271016L0.42717 9.90715C-0.0546371 10.389 -0.175089 11.1117 0.306718 11.5935C0.788525 12.0753 1.51123 12.1957 1.99304 11.7139L2.3544 11.2321V22.7955C2.3544 23.5182 2.8362 24 3.55891 24H20.4221C21.1449 24 21.6267 23.5182 21.6267 22.7955V11.2321L21.988 11.5935C22.4698 12.0753 23.1925 11.9548 23.6743 11.473C24.1562 11.1117 24.1562 10.2685 23.6743 9.90715ZM14.3996 15.5684H13.195V16.7729C13.195 17.4956 12.7132 17.9774 11.9905 17.9774C11.2678 17.9774 10.786 17.4956 10.786 16.7729V15.5684H9.5815C8.85879 15.5684 8.37698 15.0866 8.37698 14.3639C8.37698 13.6412 8.85879 13.1593 9.5815 13.1593H10.786V11.9548C10.786 11.2321 11.2678 10.7503 11.9905 10.7503C12.7132 10.7503 13.195 11.2321 13.195 11.9548V13.1593H14.3996C15.1223 13.1593 15.6041 13.6412 15.6041 14.3639C15.6041 15.0866 15.1223 15.5684 14.3996 15.5684Z" fill="#514C9F"/>
</svg>
