<svg width="119" height="100" viewBox="0 0 119 100" fill="none" xmlns="http://www.w3.org/2000/svg">
<path d="M109.703 7.30332H106.679V3.15031C106.678 2.31511 106.346 1.5144 105.755 0.923825C105.165 0.333249 104.364 0.00102021 103.529 1.25213e-05H98.1917C97.3564 0.00101947 96.5556 0.333207 95.9648 0.923748C95.374 1.51429 95.0415 2.31499 95.0402 3.15031V7.30332H83.1269V3.15031C83.1256 2.31411 82.7924 1.51264 82.2005 0.921955C81.6086 0.331269 80.8065 -0.000324924 79.9703 1.25213e-05H74.6394C73.8043 0.00135513 73.0038 0.333692 72.4133 0.924196C71.8228 1.5147 71.4904 2.31521 71.4891 3.15031V7.30332H59.5746V3.15031C59.5732 2.31499 59.2407 1.51429 58.6499 0.923748C58.0592 0.333207 57.2583 0.00101947 56.423 1.25213e-05H51.0921C50.2569 0.00102021 49.4562 0.333249 48.8657 0.923825C48.2751 1.5144 47.9428 2.31511 47.9418 3.15031V7.30332H36.021V3.15031C36.02 2.31511 35.6877 1.5144 35.0972 0.923825C34.5066 0.333249 33.7059 0.00102021 32.8707 1.25213e-05H27.5398C27.1252 -0.00115575 26.7144 0.0794399 26.3309 0.237187C25.9475 0.394935 25.5989 0.626737 25.3051 0.919336C25.0113 1.21193 24.7781 1.55959 24.6188 1.9424C24.4596 2.32521 24.3773 2.73568 24.3768 3.15031V7.30332H21.3598C19.1472 7.30567 17.0259 8.18567 15.4613 9.75022C13.8968 11.3148 13.0168 13.4361 13.0144 15.6487V55.134C9.9671 56.674 7.28838 58.854 5.16151 61.525C3.03463 64.196 1.50978 67.2948 0.691281 70.6096C-0.12722 73.9244 -0.220062 77.3769 0.419106 80.7308C1.05827 84.0848 2.41437 87.2611 4.39463 90.0426C6.37488 92.824 8.93257 95.1448 11.8927 96.8464C14.8529 98.5479 18.1456 99.59 21.5457 99.9013C24.9459 100.213 28.3731 99.7857 31.593 98.65C34.8129 97.5143 37.7495 95.6964 40.2019 93.3209H109.703C111.915 93.3182 114.037 92.4379 115.601 90.8732C117.166 89.3084 118.046 87.187 118.048 84.9742V15.6487C118.045 13.4362 117.165 11.3151 115.601 9.75059C114.036 8.18611 111.915 7.306 109.703 7.30332ZM98.3859 3.34577H103.336V16.7542H98.3859V3.34577ZM74.8336 3.34577H79.7837V16.7542H74.8336V3.34577ZM51.2812 3.34577H56.2314V16.7542H51.2851L51.2812 3.34577ZM27.7276 3.34577H32.6777V16.7542H27.7276V3.34577ZM39.8161 58.8923C38.1653 57.3634 36.3064 56.0759 34.2948 55.068H39.5381C39.6114 55.0699 39.6812 55.1 39.7329 55.152C39.7847 55.204 39.8144 55.2739 39.8161 55.3472V58.8923ZM72.0387 80.9075C72.0367 80.9809 72.0067 81.0506 71.9547 81.1024C71.9027 81.1541 71.8328 81.1839 71.7594 81.1855H59.3017C59.2285 81.1839 59.1587 81.1541 59.1069 81.1023C59.0551 81.0505 59.0253 80.9807 59.0237 80.9075V73.4646C59.0253 73.3914 59.0551 73.3216 59.1069 73.2698C59.1587 73.2181 59.2285 73.1882 59.3017 73.1866H71.7594C71.8328 73.1882 71.9027 73.218 71.9547 73.2697C72.0067 73.3215 72.0367 73.3913 72.0387 73.4646V80.9075ZM78.7657 66.0001C78.1564 69.6537 77.0151 73.1983 75.3781 76.521V73.4646C75.3771 72.5038 74.995 71.5827 74.3156 70.9034C73.6363 70.224 72.7151 69.8419 71.7544 69.8409H59.3017C58.341 69.8422 57.4201 70.2244 56.7408 70.9037C56.0615 71.583 55.6793 72.5039 55.678 73.4646V80.9075C55.6793 81.8682 56.0615 82.7891 56.7408 83.4684C57.4201 84.1477 58.341 84.5299 59.3017 84.5313H69.2146C66.4881 86.8699 63.3727 88.7124 60.0099 89.9751H43.0755C45.8956 85.9958 47.4174 81.2424 47.4328 76.3652C47.4483 71.488 45.9566 66.7251 43.1618 62.728V55.3472C43.1608 54.3865 42.7787 53.4653 42.0993 52.786C41.42 52.1066 40.4988 51.7245 39.5381 51.7235H27.0791C26.2133 51.7217 25.376 52.0322 24.7208 52.598C24.3882 52.5853 24.0557 52.5764 23.7206 52.5764C21.2202 52.5745 18.7354 52.9695 16.3589 53.7467V28.1623H114.538C113.458 38.7796 110.858 46.9118 106.532 52.7757C105.855 52.1014 104.938 51.723 103.982 51.7235H91.5205C90.5597 51.7245 89.6386 52.1066 88.9593 52.786C88.2799 53.4653 87.8978 54.3865 87.8968 55.3472V62.7902C87.8975 63.1338 87.9466 63.4756 88.0427 63.8056C85.5057 64.2741 82.9363 64.5465 80.3574 64.6204C79.975 64.6343 79.609 64.7788 79.3203 65.0299C79.0316 65.2809 78.8376 65.6234 78.7708 66.0001H78.7657ZM104.255 55.3472V55.4868C100.732 59.1217 96.286 61.7282 91.3936 63.0262C91.3518 63.0023 91.3169 62.968 91.2922 62.9266C91.2676 62.8853 91.2539 62.8383 91.2527 62.7902V55.3472C91.2543 55.2739 91.2841 55.204 91.3358 55.152C91.3876 55.1 91.4573 55.0699 91.5307 55.068H103.988C104.061 55.0715 104.129 55.1023 104.179 55.1541C104.23 55.2059 104.259 55.275 104.26 55.3472H104.255ZM114.697 84.9742C114.696 86.2999 114.169 87.5709 113.231 88.5084C112.294 89.446 111.023 89.9734 109.698 89.9751H79.7088C87.9023 87.0793 95.2709 82.2386 101.182 75.8686C107.082 69.4719 111.545 61.8878 114.273 53.6248C114.422 53.1882 114.563 52.7491 114.702 52.3086L114.697 84.9742ZM39.5381 33.6049H27.0791C26.1185 33.6062 25.1977 33.9885 24.5186 34.6678C23.8395 35.3471 23.4576 36.268 23.4566 37.2286V44.6702C23.4576 45.6308 23.8395 46.5517 24.5186 47.231C25.1977 47.9104 26.1185 48.2926 27.0791 48.294H39.5381C40.4987 48.2926 41.4197 47.9104 42.099 47.2311C42.7783 46.5518 43.1605 45.6309 43.1618 44.6702V37.2286C43.1605 36.2679 42.7783 35.347 42.099 34.6677C41.4197 33.9884 40.4987 33.6062 39.5381 33.6049ZM39.8161 44.6728C39.8141 44.7459 39.7842 44.8155 39.7325 44.8672C39.6808 44.9189 39.6112 44.9488 39.5381 44.9507H27.0791C27.006 44.9485 26.9366 44.9185 26.885 44.8669C26.8333 44.8152 26.8033 44.7458 26.8011 44.6728V37.2286C26.8033 37.1556 26.8333 37.0862 26.885 37.0345C26.9366 36.9829 27.006 36.9529 27.0791 36.9506H39.5381C39.6112 36.9525 39.6808 36.9825 39.7325 37.0342C39.7842 37.0859 39.8141 37.1555 39.8161 37.2286V44.6728ZM71.7594 33.6049H59.3017C58.341 33.6062 57.4201 33.9884 56.7408 34.6677C56.0615 35.347 55.6793 36.2679 55.678 37.2286V44.6702C55.6793 45.6309 56.0615 46.5518 56.7408 47.2311C57.4201 47.9104 58.341 48.2926 59.3017 48.294H71.7594C72.7202 48.293 73.6413 47.9109 74.3207 47.2315C75.0001 46.5521 75.3822 45.631 75.3832 44.6702V37.2286C75.3822 36.2678 75.0001 35.3467 74.3207 34.6673C73.6413 33.988 72.7202 33.6059 71.7594 33.6049ZM72.0387 44.6728C72.0364 44.746 72.0063 44.8156 71.9543 44.8673C71.9024 44.919 71.8327 44.9488 71.7594 44.9507H59.3017C59.2288 44.9478 59.1598 44.9172 59.1088 44.865C59.0579 44.8128 59.0288 44.7432 59.0275 44.6702V37.2286C59.0295 37.1555 59.0594 37.0859 59.1111 37.0342C59.1628 36.9825 59.2324 36.9525 59.3055 36.9506H71.7633C71.8365 36.9525 71.9062 36.9824 71.9581 37.0341C72.0101 37.0858 72.0402 37.1554 72.0425 37.2286L72.0387 44.6728ZM91.5205 48.2965H103.978C104.94 48.2962 105.862 47.9141 106.542 47.2341C107.223 46.5542 107.605 45.632 107.606 44.6702V37.2286C107.604 36.2679 107.222 35.347 106.543 34.6677C105.864 33.9884 104.943 33.6062 103.982 33.6049H91.5205C90.5598 33.6062 89.6389 33.9884 88.9596 34.6677C88.2803 35.347 87.8981 36.2679 87.8968 37.2286V44.6702C87.8975 45.6313 88.2794 46.5529 88.9587 47.2328C89.6381 47.9126 90.5594 48.2952 91.5205 48.2965ZM91.2425 37.2286C91.2445 37.1555 91.2744 37.0859 91.3261 37.0342C91.3778 36.9825 91.4474 36.9525 91.5205 36.9506H103.978C104.051 36.9525 104.121 36.9825 104.173 37.0342C104.224 37.0859 104.254 37.1555 104.256 37.2286V44.6702C104.254 44.7434 104.224 44.8129 104.173 44.8647C104.121 44.9164 104.051 44.9463 103.978 44.9482H91.5205C91.4474 44.9463 91.3778 44.9164 91.3261 44.8647C91.2744 44.8129 91.2445 44.7434 91.2425 44.6702V37.2286ZM71.7594 51.7235H59.3017C58.3409 51.7245 57.4198 52.1066 56.7404 52.786C56.0611 53.4653 55.679 54.3865 55.678 55.3472V62.7902C55.6793 63.7508 56.0615 64.6717 56.7408 65.351C57.4201 66.0303 58.341 66.4125 59.3017 66.4139H71.7594C72.7202 66.4129 73.6413 66.0308 74.3207 65.3514C75.0001 64.672 75.3822 63.7509 75.3832 62.7902V55.3472C75.3825 54.3864 75.0005 53.465 74.3211 52.7856C73.6416 52.1062 72.7203 51.7242 71.7594 51.7235ZM72.0387 62.7902C72.0367 62.8635 72.0067 62.9333 71.9547 62.985C71.9027 63.0368 71.8328 63.0665 71.7594 63.0681H59.3017C59.2285 63.0665 59.1587 63.0367 59.1069 62.9849C59.0551 62.9331 59.0253 62.8634 59.0237 62.7902V55.3472C59.0253 55.2739 59.0551 55.204 59.1068 55.152C59.1586 55.1 59.2284 55.0699 59.3017 55.068H71.7594C71.8329 55.0699 71.9028 55.1 71.9548 55.1519C72.0067 55.2039 72.0368 55.2738 72.0387 55.3472V62.7902Z" fill="#514C9F"/>
<path d="M31.5576 67.5996H16.1992H20.3879C21.869 67.5996 23.2896 68.1836 24.3369 69.2231C25.3843 70.2626 25.9727 71.6724 25.9727 73.1425C25.9727 74.6125 25.3843 76.0224 24.3369 77.0619C23.2896 78.1013 21.869 78.6853 20.3879 78.6853H16.1992L24.5765 86.9996M16.1992 73.1425H31.5576" stroke="white" stroke-opacity="0.2" stroke-width="2.4" stroke-linecap="round" stroke-linejoin="round"/>
<path d="M31.5576 67.5996H16.1992H20.3879C21.869 67.5996 23.2896 68.1836 24.3369 69.2231C25.3843 70.2626 25.9727 71.6724 25.9727 73.1425C25.9727 74.6125 25.3843 76.0224 24.3369 77.0619C23.2896 78.1013 21.869 78.6853 20.3879 78.6853H16.1992L24.5765 86.9996M16.1992 73.1425H31.5576" stroke="white" stroke-width="2.4" stroke-linecap="round" stroke-linejoin="round"/>
</svg>
