<svg width="30" height="34" viewBox="0 0 30 34" fill="none" xmlns="http://www.w3.org/2000/svg">
<path fill-rule="evenodd" clip-rule="evenodd" d="M3.333 0C2.44903 0 1.60127 0.351154 0.976213 0.976213C0.351154 1.60127 0 2.44903 0 3.333V31.4969C0 31.7376 0.047416 31.976 0.13954 32.1984C0.231665 32.4208 0.366694 32.6229 0.536917 32.7931C0.707141 32.9633 0.909226 33.0983 1.13163 33.1905C1.35404 33.2826 1.59242 33.33 1.83315 33.33H28.1638C28.4046 33.33 28.643 33.2826 28.8654 33.1905C29.0878 33.0983 29.2899 32.9633 29.4601 32.7931C29.6303 32.6229 29.7653 32.4208 29.8575 32.1984C29.9496 31.976 29.997 31.7376 29.997 31.4969V14.9985C29.997 14.1145 29.6458 13.2668 29.0208 12.6417C28.3957 12.0167 27.548 11.6655 26.664 11.6655H25.8307C25.6098 11.6655 25.3978 11.7533 25.2416 11.9096C25.0853 12.0658 24.9975 12.2778 24.9975 12.4988V29.997H23.331V3.333C23.331 2.44903 22.9798 1.60127 22.3548 0.976213C21.7297 0.351154 20.882 0 19.998 0H3.333ZM11.6655 4.9995C11.2235 4.9995 10.7996 5.17508 10.4871 5.48761C10.1746 5.80014 9.999 6.22402 9.999 6.666V8.3325H8.3325C7.89052 8.3325 7.46664 8.50808 7.15411 8.82061C6.84158 9.13314 6.666 9.55702 6.666 9.999C6.666 10.441 6.84158 10.8649 7.15411 11.1774C7.46664 11.4899 7.89052 11.6655 8.3325 11.6655H9.999V13.332C9.999 13.774 10.1746 14.1979 10.4871 14.5104C10.7996 14.8229 11.2235 14.9985 11.6655 14.9985C12.1075 14.9985 12.5314 14.8229 12.8439 14.5104C13.1564 14.1979 13.332 13.774 13.332 13.332V11.6655H14.9985C15.4405 11.6655 15.8644 11.4899 16.1769 11.1774C16.4894 10.8649 16.665 10.441 16.665 9.999C16.665 9.55702 16.4894 9.13314 16.1769 8.82061C15.8644 8.50808 15.4405 8.3325 14.9985 8.3325H13.332V6.666C13.332 6.22402 13.1564 5.80014 12.8439 5.48761C12.5314 5.17508 12.1075 4.9995 11.6655 4.9995ZM11.6655 19.998C10.7815 19.998 9.93377 20.3492 9.30871 20.9742C8.68365 21.5993 8.3325 22.447 8.3325 23.331V29.997H14.9985V23.331C14.9985 22.447 14.6473 21.5993 14.0223 20.9742C13.3972 20.3492 12.5495 19.998 11.6655 19.998Z" fill="#514C9F"/>
</svg>
