<svg width="132" height="32" viewBox="0 0 132 32" fill="none" xmlns="http://www.w3.org/2000/svg">
<path d="M82.8285 14.5794C82.8285 11.0316 82.8334 7.48387 82.8203 3.93447C82.8203 3.58642 82.9169 3.5109 83.251 3.51254C86.1413 3.52568 89.0316 3.48135 91.9202 3.53553C93.6462 3.56672 95.382 3.68492 96.9475 4.56817C98.513 5.45306 99.471 6.76152 99.8722 8.52965C100.201 9.98422 100.115 11.4027 99.6757 12.7932C99.0141 14.8864 97.5534 16.2064 95.4802 16.8729C94.4846 17.193 93.4628 17.3014 92.4197 17.2948C90.5528 17.2833 88.6844 17.2915 86.8176 17.2915C86.4617 17.2915 86.2837 17.4634 86.2837 17.807C86.2837 20.3041 86.2788 22.8012 86.2903 25.2982C86.2903 25.6134 86.2182 25.7201 85.8874 25.7119C85.0015 25.689 84.1156 25.689 83.2297 25.7119C82.9087 25.7201 82.8203 25.6299 82.8203 25.3048C82.8318 21.7291 82.8269 18.1534 82.8269 14.5778L82.8285 14.5794ZM86.2837 10.4817C86.2837 11.5882 86.2968 12.6931 86.2755 13.7996C86.269 14.1181 86.3705 14.1821 86.6669 14.1788C87.8935 14.1624 89.1216 14.1821 90.3481 14.169C91.4584 14.1575 92.5719 14.2478 93.6757 14.0114C94.8842 13.752 96.1565 12.8737 96.3662 11.5077C96.4595 10.9052 96.4972 10.3093 96.4137 9.71169C96.2974 8.88426 95.9699 8.16519 95.2624 7.65297C94.4502 7.06359 93.5185 6.83539 92.5523 6.81569C90.5758 6.77301 88.5976 6.79763 86.6211 6.77957C86.3492 6.77793 86.2739 6.85838 86.2772 7.12434C86.2903 8.24399 86.2821 9.36365 86.2821 10.4833L86.2837 10.4817Z" fill="#514C9F"/>
<path d="M119.193 27.6693C120.296 28.1831 121.431 28.5197 122.605 28.7085C123.83 28.9055 125.067 28.981 126.273 28.6313C127.343 28.3227 128.032 27.4575 128.106 26.3165C128.13 25.9405 128.16 25.5629 128.173 25.1853C128.18 25.0212 128.114 24.9637 127.957 24.99C126.539 25.2297 125.104 25.2904 123.68 25.2083C122.301 25.1279 120.93 24.8521 119.794 23.9803C118.808 23.2251 118.19 22.2089 117.94 20.9792C117.815 20.3669 117.786 19.7545 117.789 19.1307C117.804 16.3463 117.796 13.5603 117.796 10.7759C117.796 10.4312 117.974 10.2588 118.331 10.2588C119.191 10.2588 120.051 10.2752 120.909 10.2506C121.248 10.2407 121.307 10.3589 121.307 10.6659C121.295 13.6013 121.279 16.5367 121.31 19.4721C121.326 21.0662 122.134 21.9347 123.65 22.1908C124.914 22.4042 126.193 22.314 127.461 22.1366C127.683 22.1055 127.963 22.2302 128.121 22.0316C128.288 21.8198 128.184 21.5309 128.184 21.2764C128.189 17.8222 128.193 14.368 128.181 10.9138C128.181 10.5789 128.258 10.4722 128.604 10.4804C129.531 10.505 130.457 10.4968 131.386 10.4837C131.638 10.4804 131.707 10.5526 131.707 10.8055C131.697 15.9654 131.72 21.127 131.677 26.2869C131.664 27.8072 131.235 29.2404 130.074 30.3289C129.139 31.2055 127.988 31.6554 126.742 31.8671C125.609 32.0592 124.461 32.0067 123.326 31.9345C122.221 31.8639 121.143 31.5815 120.098 31.1957C119.833 31.0972 119.821 30.8821 119.777 30.69C119.566 29.7657 119.374 28.8382 119.181 27.9106C119.168 27.8482 119.191 27.7793 119.199 27.6742L119.193 27.6693Z" fill="#514C9F"/>
<path d="M115.662 20.1834C115.662 21.807 115.659 23.4323 115.665 25.056C115.665 25.299 115.646 25.4336 115.343 25.491C114.449 25.6601 113.545 25.7455 112.651 25.8949C110.928 26.1822 109.197 26.1428 107.468 26.1215C106.163 26.1051 104.879 25.8013 103.705 25.2711C102.678 24.8081 101.934 23.961 101.523 22.8528C101.26 22.1419 101.281 21.4327 101.327 20.7021C101.374 19.9502 101.579 19.264 101.988 18.6254C102.609 17.6584 103.536 17.1199 104.587 16.8129C106.131 16.3647 107.717 16.2104 109.326 16.3746C110.216 16.468 111.04 16.4815 111.922 16.6126C112.058 16.6323 112.14 16.6159 112.128 16.4616C112.058 15.4913 112.159 14.4669 111.318 13.7281C110.756 13.2356 110.103 12.991 109.351 12.9269C108.753 12.876 108.16 12.8498 107.564 12.8629C105.984 12.8974 104.476 13.2881 103 13.8282C102.658 13.9524 102.513 14.1139 102.658 13.5327C102.868 12.6938 103.066 11.8532 103.246 11.0078C103.284 10.8272 103.403 10.7188 103.613 10.64C104.564 10.2805 105.568 10.1836 106.551 9.98004C107.259 9.83269 107.757 9.80282 108.643 9.80273C109.53 9.80265 111.516 9.94556 112.839 10.5366C114.026 11.0685 114.835 11.9813 115.262 13.2553C115.606 14.2797 115.664 15.3173 115.665 16.3729C115.667 17.642 115.665 18.911 115.665 20.1817L115.662 20.1834ZM112.148 21.0617C112.148 20.5429 112.14 20.0241 112.151 19.507C112.156 19.2837 112.117 19.1835 111.851 19.1507C111.223 19.0736 110.592 19.0358 109.962 18.98C108.652 18.8651 107.36 18.8831 106.112 19.3477C105.511 19.571 104.867 20.2031 104.928 21.1175C104.974 21.8136 105.372 22.4128 106.117 22.7182C106.724 22.9661 107.358 23.081 108.013 23.1237C109.32 23.2107 110.613 23.127 111.905 22.9447C112.105 22.9168 112.151 22.838 112.149 22.6591C112.143 22.1272 112.148 21.5952 112.148 21.0633V21.0617Z" fill="#514C9F"/>
<path d="M73.4381 23.6162C74.8856 23.4591 76.2171 23.053 77.3977 22.1993C77.6778 21.9974 77.8415 22.0056 78.002 22.3372C78.2525 22.856 78.5358 23.36 78.8126 23.8673C78.9059 24.0397 78.9354 24.1661 78.7323 24.2942C77.514 25.0625 76.2187 25.624 74.7957 25.8867C73.8066 26.0689 72.8028 26.1149 71.812 26.0361C70.2678 25.9146 68.8317 25.4516 67.5724 24.4781C66.3852 23.5603 65.5828 22.3684 65.1243 20.9894C64.6952 19.7006 64.5642 18.3446 64.7394 16.9622C64.8459 16.12 65.0096 15.309 65.329 14.5292C66.2165 12.3638 67.7378 10.924 70.0353 10.3116C71.0358 10.0457 72.038 10.044 73.0418 10.0916C74.5992 10.1671 76.0287 10.6564 77.1963 11.7317C78.264 12.7151 78.9665 13.9021 79.3562 15.332C79.6608 16.4467 79.7247 17.5516 79.7411 18.6828C79.746 18.9799 79.5855 18.9356 79.4103 18.9356C77.4059 18.9356 75.4016 18.9356 73.3972 18.9356C71.5697 18.9356 69.7438 18.9405 67.9163 18.9307C67.6084 18.9307 67.5102 18.9454 67.5855 19.3313C67.8066 20.464 68.3028 21.4458 69.1101 22.242C69.9877 23.1086 71.6042 23.8152 73.4381 23.6162ZM72.2378 16.5584C73.6952 16.5584 75.151 16.56 76.6084 16.5551C76.7231 16.5551 76.9228 16.6536 76.8721 16.3647C76.7051 15.4042 76.3415 14.5407 75.6636 13.8298C74.9594 13.0927 74.1325 12.6363 73.0877 12.5181C71.7318 12.3638 70.4938 12.4787 69.3623 13.3603C68.4043 14.1073 67.9622 15.1137 67.6248 16.212C67.5397 16.4911 67.6019 16.5699 67.9081 16.5666C69.3508 16.5485 70.7951 16.5584 72.2378 16.5584Z" fill="#282B35"/>
<path d="M44.7032 26.0765C43.7387 26.0502 42.7709 25.9977 41.8473 25.7104C40.8026 25.3853 39.8479 24.9076 39.0897 24.0522C38.5804 23.4793 38.4085 22.8012 38.2611 22.115C38.117 21.4386 38.1415 20.736 38.325 20.053C38.6918 18.6838 39.5498 17.748 40.8402 17.1931C41.7769 16.7909 42.7562 16.6169 43.7698 16.5282C44.3659 16.4757 44.962 16.4346 45.5498 16.4773C46.2065 16.5233 46.8648 16.5578 47.5215 16.6037C48.0291 16.6399 48.5236 16.7269 49.0264 16.7843C49.2622 16.8122 49.3768 16.7482 49.3768 16.4593C49.3768 15.8354 49.3441 15.2148 49.1737 14.6156C48.8643 13.5288 48.0602 12.9575 47.0187 12.703C46.0002 12.4535 44.9669 12.5323 43.927 12.5946C42.7496 12.6652 41.7614 12.8457 40.5455 13.3433C40.2004 13.4845 40.2492 13.4714 39.7902 13.6191C39.6101 13.5961 39.5367 13.6174 39.5613 13.4845C39.6989 12.7637 39.8299 12.0414 39.9871 11.3256C40.0329 11.1204 40.2343 11.0481 40.4341 10.9792C41.7114 10.5392 43.0165 10.27 44.3659 10.1386C45.7922 9.99908 47.1808 10.0927 48.5531 10.485C49.7207 10.8183 50.6705 11.475 51.278 12.5355C51.6104 13.1167 51.843 13.7603 51.9085 14.4399C52.2491 17.9992 51.9822 21.57 52.0706 25.1325C52.0771 25.3673 52.0264 25.5265 51.7627 25.5561C51.0307 25.6381 50.2971 25.7087 49.5684 25.8105C48.6055 25.9451 47.6443 26.0732 46.6699 26.0502C46.6159 26.0502 46.5618 26.065 46.5094 26.0732C45.9085 26.0732 45.3058 26.0748 44.7049 26.0765H44.7032ZM47.6615 23.5465C48.1651 23.5012 48.7281 23.335 49.1148 23.2724C49.2998 23.2429 49.3719 23.1969 49.3703 23.0032C49.3637 21.8179 49.3637 20.6309 49.3703 19.4456C49.3703 19.2502 49.2982 19.1862 49.1132 19.1698C48.1634 19.086 46.2638 18.9038 46.2638 18.9038L45.1175 18.9071C45.1175 18.9071 43.1623 19.0138 42.242 19.4012C41.5591 19.6902 41.1317 20.1893 41.04 20.933C40.9303 21.8096 41.2414 22.4893 42.0275 22.9326C42.4319 23.1608 42.8675 23.3118 43.3146 23.3841C43.8779 23.4744 44.9336 23.5614 44.9336 23.5614C44.9336 23.5614 45.3058 23.5893 45.4499 23.5614C45.6628 23.5614 46.0902 23.5614 46.0902 23.5614C46.0902 23.5614 47.2057 23.5874 47.6615 23.5465Z" fill="#282B35"/>
<path d="M20.4685 15.2162C20.4865 16.5608 20.8336 17.848 21.4575 19.0202C22.3402 20.6767 23.6404 21.9162 25.3697 22.7009C26.7894 23.3461 28.2714 23.5874 29.8123 23.5053C31.0258 23.4397 32.1868 23.1245 33.3101 22.6664C33.8866 22.4317 34.4335 22.1411 34.9493 21.793C35.0869 21.7011 35.1868 21.6929 35.2719 21.8833C35.5454 22.4973 35.8287 23.1097 36.1349 23.7089C36.2315 23.8977 36.1448 23.9223 36.0203 24.0061C35.1377 24.602 34.1846 25.0568 33.1775 25.3835C32.0722 25.7414 30.9422 25.9646 29.7681 25.9827C29.3424 25.9893 28.9084 26.0697 28.4777 26.0434C26.999 25.9499 25.5678 25.656 24.1939 25.0666C22.8282 24.4822 21.6278 23.6712 20.6109 22.5991C19.35 21.2693 18.528 19.6818 18.0432 17.9186C17.6077 16.3359 17.5913 14.709 17.7272 13.1001C17.8975 11.0791 18.6147 9.22398 19.8282 7.57405C20.683 6.41171 21.7441 5.49234 22.9788 4.76178C23.7649 4.29553 24.5935 3.92942 25.4745 3.68316C26.2425 3.4681 27.0252 3.35153 27.8178 3.26288C28.3991 3.19721 28.9805 3.16766 29.5585 3.2005C31.088 3.28587 32.5814 3.55675 33.9996 4.17404C34.7168 4.48597 35.4095 4.83237 36.0498 5.28384C36.1775 5.37414 36.2021 5.3922 36.1251 5.54488C35.8287 6.13426 35.5503 6.73349 35.2867 7.33764C35.1966 7.5445 35.0951 7.55435 34.9346 7.44435C33.9259 6.73841 32.791 6.29679 31.6071 6.03083C30.4182 5.76323 29.2114 5.64667 27.975 5.79935C26.6748 5.95859 25.4843 6.36574 24.374 7.03721C23.1737 7.76449 22.2403 8.75773 21.5525 9.97753C21.0956 10.7869 20.7861 11.6587 20.5995 12.5649C20.5028 13.0361 20.5094 13.5286 20.4685 14.0096C20.4138 14.4092 20.5197 14.8076 20.4685 15.2162Z" fill="#282B35"/>
<path d="M0.00390625 18.9253C0.00881891 16.3609 0.0186442 13.7966 0.0104565 11.2322C0.0104565 10.9055 0.105435 10.6789 0.337967 10.4491C2.50609 8.29679 4.66111 6.133 6.81941 3.97249C7.88218 2.90865 8.94986 1.8481 10.0012 0.772768C10.219 0.551135 10.4417 0.336069 10.6611 0.11772C10.8347 -0.0563026 10.9477 -0.0283933 11.0885 0.142346C11.5585 0.712024 11.9449 1.3129 12.1857 2.03197C12.4166 2.71985 12.5787 3.40609 12.5574 4.12189C12.5099 5.69137 11.9417 7.05072 10.8265 8.16709C8.68785 10.3079 6.54757 12.4487 4.41056 14.5928C4.30085 14.7028 4.13709 14.7832 4.13545 14.9753C3.95041 14.9885 3.86035 15.1379 3.74735 15.2511C2.60434 16.4003 1.4646 17.5528 0.319954 18.6988C0.229889 18.7891 0.170937 18.9368 0.0055438 18.927L0.00390625 18.9253Z" fill="#514C9F"/>
<path d="M0.00248698 18.9282C0.16788 18.938 0.226832 18.7903 0.316897 18.7C1.46155 17.5524 2.60128 16.4016 3.7443 15.2524C3.85729 15.1391 3.94735 14.9897 4.1324 14.9766C5.54069 16.372 6.95226 17.7642 8.35729 19.163C9.25303 20.0528 10.157 20.9344 11.0281 21.8488C11.8469 22.7091 12.2645 23.7647 12.479 24.9303C12.7066 26.1633 12.3939 27.2944 11.9419 28.4059C11.842 28.6521 11.6439 28.8639 11.4654 29.0708C11.3671 29.184 11.2705 29.2793 11.2001 29.4254C10.9872 29.8604 10.794 29.8785 10.4304 29.5124C9.28905 28.3566 8.16405 27.1861 7.0194 26.0336C4.77923 23.7811 2.52923 21.5385 0.290696 19.2828C0.187531 19.1794 -0.0253514 19.1449 0.00248698 18.9282Z" fill="#282B35"/>
<path d="M54.7109 11.1996C55.3872 10.891 56.1258 10.8417 56.843 10.7399C58.7655 10.4658 60.7044 10.4789 62.64 10.4806C62.9298 10.4806 63.0477 10.5282 63.033 10.8532C63.0035 11.4656 63.0133 12.0812 63.0297 12.6952C63.0363 12.9431 62.9724 13.0285 62.712 13.0203C62.0996 13.0006 61.4855 13.0154 60.8731 13.0137C59.861 13.0104 58.8605 13.1369 57.86 13.2731C57.5275 13.3191 57.3982 13.4521 57.3998 13.8182C57.4145 17.6385 57.4047 21.4588 57.4162 25.2791C57.4162 25.6189 57.3638 25.7535 56.9839 25.7305C56.36 25.6928 55.7311 25.7223 55.104 25.7174C54.9713 25.7174 54.8288 25.7584 54.7109 25.6599C54.7224 25.5532 54.7421 25.4465 54.7421 25.3398C54.7421 20.7331 54.7421 16.1264 54.7421 11.5198C54.7421 11.4131 54.7224 11.3063 54.7109 11.1996Z" fill="#282B35"/>
<path d="M54.7108 11.1997C54.7206 11.3064 54.7419 11.4131 54.7419 11.5198C54.7419 16.1265 54.7419 20.7332 54.7419 25.3399C54.7419 25.4466 54.7222 25.5533 54.7108 25.66C54.7059 24.6651 54.696 23.6719 54.696 22.6786C54.6944 18.988 54.696 15.2958 54.696 11.6052C54.696 11.4706 54.7059 11.3343 54.7108 11.1997Z" fill="#282B35"/>
</svg>
