<svg width="154" height="36" viewBox="0 0 154 36" fill="none" xmlns="http://www.w3.org/2000/svg">
<g clip-path="url(#clip0_1352_2056)">
<path d="M67.698 14.398C64.418 14.398 62.231 16.6 62.231 19.881C62.231 23.163 64.417 25.323 67.698 25.323C70.979 25.323 73.185 23.143 73.185 19.881C73.185 16.62 70.999 14.398 67.698 14.398ZM67.698 23.184C66.048 23.184 65.12 21.98 65.12 19.881C65.12 17.782 66.048 16.537 67.698 16.537C69.348 16.537 70.298 17.741 70.298 19.881C70.298 22.021 69.328 23.184 67.698 23.184ZM130.844 14.398C127.481 14.398 125.336 16.537 125.336 19.881C125.336 23.226 127.46 25.323 130.844 25.323C133.753 25.323 135.548 23.973 135.918 21.937C135.94 21.813 135.856 21.771 135.691 21.771H133.381C133.258 21.771 133.176 21.813 133.134 21.958C132.866 22.747 132.103 23.226 130.885 23.226C129.298 23.226 128.389 22.291 128.245 20.65H135.754C135.814 20.6492 135.872 20.6248 135.914 20.5819C135.957 20.5391 135.981 20.4813 135.981 20.421V19.84C135.981 16.454 134.041 14.398 130.844 14.398ZM128.245 18.947C128.409 17.349 129.317 16.497 130.864 16.497C132.246 16.497 133.113 17.39 133.215 18.947H128.243H128.245ZM84.553 19.134V24.95C84.5547 24.9804 84.55 25.0107 84.5393 25.0392C84.5285 25.0676 84.5119 25.0934 84.4905 25.115C84.4691 25.1366 84.4434 25.1535 84.415 25.1645C84.3867 25.1755 84.3564 25.1805 84.326 25.179H81.933C81.788 25.179 81.706 25.096 81.706 24.95V19.134C81.706 17.431 81.066 16.641 79.643 16.641C78.22 16.641 77.539 17.43 77.539 19.134V24.95C77.539 25.096 77.457 25.179 77.333 25.179H74.941C74.796 25.179 74.714 25.096 74.714 24.95V14.773C74.714 14.627 74.796 14.544 74.941 14.544H77.191C77.335 14.544 77.417 14.627 77.417 14.773V16.1H77.5C78.242 14.999 79.4 14.397 80.822 14.397C83.236 14.397 84.555 15.996 84.555 19.133L84.553 19.134ZM153.311 14.771L150.693 24.462C150.638 24.6668 150.517 24.8478 150.349 24.977C150.181 25.1063 149.975 25.1765 149.763 25.177H147.604C147.388 25.1769 147.178 25.104 147.009 24.9701C146.839 24.8362 146.719 24.6491 146.669 24.439L144.857 16.994H144.795L142.986 24.439C142.935 24.649 142.816 24.8359 142.646 24.9697C142.477 25.1035 142.267 25.1765 142.051 25.177H139.952C139.74 25.1765 139.534 25.1063 139.366 24.977C139.198 24.8478 139.077 24.6668 139.022 24.462L136.403 14.771C136.396 14.7445 136.394 14.7167 136.4 14.6897C136.405 14.6627 136.416 14.6372 136.432 14.6153C136.449 14.5933 136.47 14.5755 136.495 14.5631C136.519 14.5508 136.547 14.5442 136.574 14.544H139.108C139.158 14.5441 139.206 14.5611 139.245 14.5921C139.284 14.6232 139.311 14.6665 139.322 14.715L141.155 22.671H141.237L143.096 14.715C143.107 14.6666 143.135 14.6235 143.174 14.5926C143.213 14.5618 143.261 14.545 143.311 14.545H146.526C146.576 14.5451 146.624 14.5619 146.663 14.5927C146.701 14.6236 146.729 14.6667 146.74 14.715L148.596 22.671H148.678L150.507 14.715C150.518 14.6665 150.546 14.6233 150.585 14.5924C150.624 14.5615 150.672 14.5448 150.722 14.545H153.135C153.253 14.545 153.339 14.658 153.309 14.771H153.311ZM61.75 24.959C61.7557 24.9852 61.7554 25.0123 61.7492 25.0384C61.7431 25.0644 61.7312 25.0888 61.7144 25.1097C61.6977 25.1306 61.6764 25.1475 61.6523 25.1591C61.6282 25.1707 61.6018 25.1769 61.575 25.177H59.038C58.9858 25.1767 58.9354 25.1578 58.8958 25.1237C58.8562 25.0896 58.8301 25.0426 58.822 24.991L57.492 17.048H57.409L55.171 25.015C55.1583 25.0613 55.1309 25.1023 55.0928 25.1315C55.0547 25.1608 55.008 25.1767 54.96 25.177H51.868C51.8201 25.1765 51.7737 25.1604 51.7358 25.1312C51.6979 25.102 51.6706 25.0612 51.658 25.015L49.421 17.048H49.339L48.007 24.991C47.9987 25.0427 47.9724 25.0897 47.9326 25.1238C47.8929 25.1579 47.8423 25.1767 47.79 25.177H45.38C45.3532 25.1769 45.3268 25.1707 45.3027 25.1591C45.2786 25.1475 45.2573 25.1306 45.2406 25.1097C45.2238 25.0888 45.2119 25.0644 45.2058 25.0384C45.1996 25.0123 45.1993 24.9852 45.205 24.959L47.261 15.309C47.3065 15.0927 47.4249 14.8985 47.5964 14.7589C47.7678 14.6193 47.9819 14.5428 48.203 14.542H50.358C50.5663 14.5422 50.7688 14.61 50.9352 14.7354C51.1015 14.8608 51.2225 15.0368 51.28 15.237L53.48 22.725H53.542L55.739 15.237C55.7971 15.037 55.9185 14.8612 56.0848 14.7359C56.2512 14.6106 56.4537 14.5426 56.662 14.542H58.754C59.208 14.542 59.599 14.861 59.694 15.307L61.754 24.957L61.75 24.959ZM91.36 14.399C87.998 14.399 85.852 16.537 85.852 19.881C85.852 23.226 87.976 25.323 91.361 25.323C94.27 25.323 96.065 23.973 96.435 21.937C96.456 21.813 96.372 21.771 96.208 21.771H93.898C93.774 21.771 93.692 21.813 93.651 21.958C93.383 22.747 92.619 23.226 91.401 23.226C89.814 23.226 88.906 22.291 88.761 20.65H96.271C96.3311 20.649 96.3885 20.6244 96.4307 20.5816C96.4729 20.5388 96.4967 20.4811 96.497 20.421V19.84C96.497 16.454 94.557 14.398 91.361 14.398L91.36 14.399ZM88.761 18.947C88.926 17.349 89.834 16.497 91.381 16.497C92.763 16.497 93.63 17.39 93.731 18.947H88.761ZM119.911 14.814L116.2 24.556C116.131 24.7388 116.008 24.8962 115.847 25.0075C115.686 25.1187 115.495 25.1785 115.3 25.179H113.239C113.044 25.1787 112.853 25.119 112.692 25.0077C112.532 24.8964 112.409 24.7389 112.34 24.556L108.628 14.814C108.565 14.649 108.628 14.544 108.793 14.544H111.288C111.412 14.544 111.515 14.586 111.557 14.731L114.28 22.671H114.362L117.085 14.731C117.126 14.586 117.229 14.544 117.353 14.544H119.745C119.89 14.544 119.973 14.649 119.911 14.814ZM123.811 14.773V24.95C123.811 25.096 123.728 25.179 123.605 25.179H121.213C121.068 25.179 120.986 25.096 120.986 24.95V14.773C120.986 14.627 121.068 14.544 121.213 14.544H123.605C123.728 14.544 123.811 14.627 123.811 14.773ZM124.186 11.101C124.186 12.094 123.385 12.901 122.398 12.901C121.922 12.8991 121.467 12.7085 121.132 12.371C120.796 12.0335 120.609 11.5767 120.61 11.101C120.61 10.107 121.411 9.301 122.398 9.301C123.385 9.301 124.186 10.107 124.186 11.101ZM107.555 14.773V26.008C107.555 28.044 106.463 29.124 104.461 29.124H98.993C98.87 29.124 98.788 29.041 98.788 28.895V27.275C98.788 27.13 98.87 27.047 98.993 27.047H104.432C104.468 27.0469 104.504 27.0396 104.538 27.0256C104.571 27.0116 104.601 26.9912 104.627 26.9655C104.652 26.9397 104.673 26.9092 104.686 26.8757C104.7 26.8422 104.707 26.8062 104.707 26.77V23.744H104.625C104.212 24.595 102.994 25.218 101.779 25.218C99.119 25.218 97.797 23.703 97.797 20.587V14.77C97.797 14.644 97.899 14.541 98.024 14.541H100.416C100.54 14.541 100.622 14.624 100.622 14.77V20.813C100.622 22.245 101.364 23.014 102.664 23.014C103.963 23.014 104.705 22.287 104.705 20.813V14.77C104.705 14.644 104.807 14.541 104.933 14.541H107.325C107.45 14.541 107.552 14.644 107.552 14.77L107.555 14.773ZM18.379 36C28.253 36 36.257 27.941 36.257 18C36.257 8.059 28.253 0 18.38 0C8.507 0 0.5 8.059 0.5 18C0.5 27.941 8.505 36 18.379 36Z" fill="#144835"/>
<path fill-rule="evenodd" clip-rule="evenodd" d="M28.0175 25.1842L23.6275 14.7762L19.2355 25.1842H14.1055L11.1595 18.1982L8.21347 25.1842H3.48047L8.69447 13.7092C8.84195 13.3836 9.07996 13.1072 9.38014 12.9131C9.68031 12.7189 10.03 12.6152 10.3875 12.6142H11.9335C12.6595 12.6142 13.3255 13.0442 13.6275 13.7092L16.4095 19.8322L20.9145 9.91622C21.0787 9.55486 21.3431 9.24817 21.6763 9.03247C22.0095 8.81677 22.3975 8.70112 22.7945 8.69922H24.4565C25.2625 8.69922 26.0005 9.17622 26.3365 9.91622L33.2725 25.1842H28.0145H28.0175Z" fill="white"/>
</g>
<defs>
<clipPath id="clip0_1352_2056">
<rect width="153" height="36" fill="white" transform="translate(0.5)"/>
</clipPath>
</defs>
</svg>
