<svg width="140" height="53" viewBox="0 0 140 53" fill="none" xmlns="http://www.w3.org/2000/svg">
<path fill-rule="evenodd" clip-rule="evenodd" d="M46.0239 10C46.3345 10 46.658 10.0109 46.9992 10.0311C47.339 10.0514 47.7049 10.1128 48.097 10.2147L47.788 12.6694C47.5197 12.5668 47.2617 12.495 47.0152 12.454C46.7674 12.4135 46.4992 12.3931 46.2104 12.3931C45.6944 12.3931 45.2817 12.4699 44.9728 12.623C44.6637 12.7763 44.4202 12.9961 44.2451 13.2822C44.0702 13.5692 43.9566 13.9111 43.9055 14.3101C43.853 14.709 43.8282 15.1644 43.8282 15.6755V19.0191H47.1376V21.4117H43.7976V33.5597H41.013V21.4117H37.8567V19.0191H41.013V15.7673C41.013 13.8244 41.3892 12.3773 42.1414 11.4268C42.8951 10.4757 44.1884 10 46.0239 10Z" fill="#0D3AB3"/>
<path fill-rule="evenodd" clip-rule="evenodd" d="M51.8394 11.7795C51.2839 11.7795 50.8042 11.979 50.4019 12.3772C49.9995 12.7762 49.7983 13.2519 49.7983 13.8039C49.7983 14.3562 49.9995 14.8319 50.4019 15.2302C50.8042 15.6291 51.2839 15.8286 51.8394 15.8286C52.3963 15.8286 52.876 15.6291 53.2784 15.2302C53.6808 14.8319 53.8819 14.3562 53.8819 13.8039C53.8819 13.2519 53.6808 12.7762 53.2784 12.3772C52.876 11.979 52.3963 11.7795 51.8394 11.7795Z" fill="#0D3AB3"/>
<path fill-rule="evenodd" clip-rule="evenodd" d="M50.4485 33.5596H53.2316V19.019H50.4485V33.5596Z" fill="#0D3AB3"/>
<path fill-rule="evenodd" clip-rule="evenodd" d="M69.0574 19.9704C68.572 19.5209 68.0048 19.1876 67.356 18.9729C66.7058 18.7583 66.0293 18.6514 65.3296 18.6514C64.1953 18.6514 63.1937 18.8914 62.3277 19.3721C61.4618 19.8526 60.8538 20.4816 60.5024 21.2585H60.4411V19.0193H57.6565V33.5598H60.4411V26.0745C60.4411 25.2361 60.5432 24.5104 60.7503 23.8968C60.9558 23.283 61.2459 22.7771 61.6163 22.3781C61.988 21.9791 62.4211 21.6878 62.9167 21.5042C63.4109 21.3199 63.9475 21.2282 64.5248 21.2282C64.9577 21.2282 65.3762 21.2947 65.7771 21.4269C66.1795 21.5606 66.5353 21.7752 66.8457 22.0716C67.1549 22.368 67.4012 22.7568 67.5879 23.2375C67.7729 23.7182 67.8664 24.2957 67.8664 24.9701V33.5598H70.6509V24.2032C70.6509 23.2425 70.5066 22.4092 70.2179 21.703C69.9279 20.9976 69.5414 20.4201 69.0574 19.9704Z" fill="#0D3AB3"/>
<path fill-rule="evenodd" clip-rule="evenodd" d="M99.2379 19.0193L95.0725 30.3696H95.0099L90.6683 19.0193H87.4507L93.5185 33.6517L92.6161 35.9524C92.4732 36.3211 92.3304 36.6478 92.1859 36.9347C92.0431 37.2202 91.8637 37.471 91.648 37.6857C91.4322 37.9004 91.177 38.0645 90.8798 38.1764C90.5823 38.2892 90.2193 38.3456 89.7892 38.3456C89.2352 38.3456 88.6812 38.2329 88.1286 38.0081L87.7905 40.5233C88.1811 40.6868 88.5863 40.7946 89.0077 40.8457C89.4276 40.8965 89.8445 40.9225 90.2557 40.9225C91.0153 40.9225 91.6567 40.8197 92.1802 40.6152C92.705 40.4107 93.1511 40.1245 93.5214 39.7566C93.8902 39.3887 94.2095 38.9433 94.4763 38.4222C94.7432 37.9004 94.9997 37.3228 95.2462 36.689L102.208 19.0193H99.2379Z" fill="#0D3AB3"/>
<path fill-rule="evenodd" clip-rule="evenodd" d="M79.5396 24.8331L81.3737 26.1066L85.5185 20.2383L81.3737 14.3699L79.5396 15.6434L81.9987 19.1266H74.1396V21.3471H82.0008L79.5396 24.8331Z" fill="#0D3AB3"/>
<path fill-rule="evenodd" clip-rule="evenodd" d="M80.1333 27.8104L78.2992 26.5354L74.1455 32.4046L78.2992 38.2738L80.1333 36.9986L77.679 33.5322H85.5407V31.3118H77.6545L80.1333 27.8104Z" fill="#0D3AB3"/>
<path d="M0.856689 51V43.835H3.14169C3.58169 43.835 3.96086 43.8783 4.27919 43.965C4.59752 44.0516 4.85919 44.175 5.06419 44.335C5.26919 44.495 5.42086 44.6908 5.51919 44.9225C5.61752 45.1541 5.66669 45.415 5.66669 45.705C5.66669 45.8816 5.63919 46.0516 5.58419 46.215C5.52919 46.3783 5.44586 46.53 5.33419 46.67C5.22252 46.81 5.08252 46.935 4.91419 47.045C4.74586 47.155 4.54836 47.245 4.32169 47.315C4.84502 47.4183 5.24002 47.6066 5.50669 47.88C5.77336 48.1533 5.90669 48.5133 5.90669 48.96C5.90669 49.2633 5.85086 49.54 5.73919 49.79C5.62752 50.04 5.46419 50.255 5.24919 50.435C5.03419 50.615 4.77086 50.7541 4.45919 50.8525C4.14752 50.9508 3.79169 51 3.39169 51H0.856689ZM1.82669 47.735V50.23H3.37669C3.65336 50.23 3.89086 50.1983 4.08919 50.135C4.28752 50.0716 4.45086 49.9825 4.57919 49.8675C4.70752 49.7525 4.80169 49.6158 4.86169 49.4575C4.92169 49.2991 4.95169 49.125 4.95169 48.935C4.95169 48.565 4.82086 48.2725 4.55919 48.0575C4.29752 47.8425 3.90169 47.735 3.37169 47.735H1.82669ZM1.82669 47.045H3.10669C3.38002 47.045 3.61669 47.015 3.81669 46.955C4.01669 46.895 4.18252 46.8116 4.31419 46.705C4.44586 46.5983 4.54336 46.4691 4.60669 46.3175C4.67002 46.1658 4.70169 46 4.70169 45.82C4.70169 45.4 4.57502 45.0916 4.32169 44.895C4.06836 44.6983 3.67502 44.6 3.14169 44.6H1.82669V47.045Z" fill="#575757"/>
<path d="M7.18677 51V45.935H7.69677C7.79343 45.935 7.8601 45.9533 7.89677 45.99C7.93343 46.0266 7.95843 46.09 7.97177 46.18L8.03177 46.97C8.2051 46.6166 8.41927 46.3408 8.67427 46.1425C8.92927 45.9441 9.22843 45.845 9.57177 45.845C9.71177 45.845 9.83843 45.8608 9.95177 45.8925C10.0651 45.9241 10.1701 45.9683 10.2668 46.025L10.1518 46.69C10.1284 46.7733 10.0768 46.815 9.99677 46.815C9.9501 46.815 9.87843 46.7991 9.78177 46.7675C9.6851 46.7358 9.5501 46.72 9.37677 46.72C9.06677 46.72 8.8076 46.81 8.59927 46.99C8.39093 47.17 8.21677 47.4316 8.07677 47.775V51H7.18677Z" fill="#575757"/>
<path d="M12.2067 45.9351V51.0001H11.3167V45.9351H12.2067ZM12.4067 44.3451C12.4067 44.4317 12.3892 44.5126 12.3542 44.5876C12.3192 44.6626 12.2726 44.7292 12.2142 44.7876C12.1559 44.8459 12.0884 44.8917 12.0117 44.9251C11.9351 44.9584 11.8534 44.9751 11.7667 44.9751C11.6801 44.9751 11.5992 44.9584 11.5242 44.9251C11.4492 44.8917 11.3826 44.8459 11.3242 44.7876C11.2659 44.7292 11.2201 44.6626 11.1867 44.5876C11.1534 44.5126 11.1367 44.4317 11.1367 44.3451C11.1367 44.2584 11.1534 44.1759 11.1867 44.0976C11.2201 44.0192 11.2659 43.9509 11.3242 43.8926C11.3826 43.8342 11.4492 43.7884 11.5242 43.7551C11.5992 43.7217 11.6801 43.7051 11.7667 43.7051C11.8534 43.7051 11.9351 43.7217 12.0117 43.7551C12.0884 43.7884 12.1559 43.8342 12.2142 43.8926C12.2726 43.9509 12.3192 44.0192 12.3542 44.0976C12.3892 44.1759 12.4067 44.2584 12.4067 44.3451Z" fill="#575757"/>
<path d="M17.3417 51C17.2151 51 17.1351 50.9383 17.1017 50.815L17.0217 50.2C16.8051 50.4633 16.5576 50.6742 16.2792 50.8325C16.0009 50.9908 15.6817 51.07 15.3217 51.07C15.0317 51.07 14.7684 51.0142 14.5317 50.9025C14.2951 50.7908 14.0934 50.6267 13.9267 50.41C13.7601 50.1933 13.6317 49.9233 13.5417 49.6C13.4517 49.2767 13.4067 48.905 13.4067 48.485C13.4067 48.1117 13.4567 47.7642 13.5567 47.4425C13.6567 47.1208 13.8009 46.8417 13.9892 46.605C14.1776 46.3683 14.4067 46.1825 14.6767 46.0475C14.9467 45.9125 15.2534 45.845 15.5967 45.845C15.9067 45.845 16.1717 45.8975 16.3917 46.0025C16.6117 46.1075 16.8084 46.255 16.9817 46.445V43.635H17.8717V51H17.3417ZM15.6167 50.35C15.9067 50.35 16.1609 50.2833 16.3792 50.15C16.5976 50.0167 16.7984 49.8283 16.9817 49.585V47.135C16.8184 46.915 16.6392 46.7608 16.4442 46.6725C16.2492 46.5842 16.0334 46.54 15.7967 46.54C15.3234 46.54 14.9601 46.7083 14.7067 47.045C14.4534 47.3817 14.3267 47.8617 14.3267 48.485C14.3267 48.815 14.3551 49.0975 14.4117 49.3325C14.4684 49.5675 14.5517 49.7608 14.6617 49.9125C14.7717 50.0642 14.9067 50.175 15.0667 50.245C15.2267 50.315 15.4101 50.35 15.6167 50.35Z" fill="#575757"/>
<path d="M21.0717 45.8501C21.2917 45.8501 21.4976 45.8743 21.6892 45.9226C21.8809 45.9709 22.0551 46.0418 22.2117 46.1351H23.5867V46.4651C23.5867 46.5751 23.5167 46.6451 23.3767 46.6751L22.8017 46.7551C22.9151 46.9718 22.9717 47.2134 22.9717 47.4801C22.9717 47.7268 22.9242 47.9509 22.8292 48.1526C22.7342 48.3543 22.6026 48.5268 22.4342 48.6701C22.2659 48.8134 22.0659 48.9234 21.8342 49.0001C21.6026 49.0768 21.3484 49.1151 21.0717 49.1151C20.8351 49.1151 20.6117 49.0868 20.4017 49.0301C20.2951 49.0968 20.2142 49.1684 20.1592 49.2451C20.1042 49.3218 20.0767 49.3968 20.0767 49.4701C20.0767 49.5901 20.1251 49.6809 20.2217 49.7426C20.3184 49.8043 20.4467 49.8484 20.6067 49.8751C20.7667 49.9018 20.9484 49.9184 21.1517 49.9251C21.3551 49.9318 21.5626 49.9426 21.7742 49.9576C21.9859 49.9726 22.1934 49.9984 22.3967 50.0351C22.6001 50.0718 22.7817 50.1318 22.9417 50.2151C23.1017 50.2984 23.2301 50.4134 23.3267 50.5601C23.4234 50.7068 23.4717 50.8968 23.4717 51.1301C23.4717 51.3468 23.4176 51.5568 23.3092 51.7601C23.2009 51.9634 23.0451 52.1443 22.8417 52.3026C22.6384 52.4609 22.3901 52.5876 22.0967 52.6826C21.8034 52.7776 21.4717 52.8251 21.1017 52.8251C20.7317 52.8251 20.4076 52.7884 20.1292 52.7151C19.8509 52.6418 19.6201 52.5434 19.4367 52.4201C19.2534 52.2968 19.1159 52.1543 19.0242 51.9926C18.9326 51.8309 18.8867 51.6618 18.8867 51.4851C18.8867 51.2351 18.9659 51.0226 19.1242 50.8476C19.2826 50.6726 19.5001 50.5334 19.7767 50.4301C19.6334 50.3634 19.5192 50.2743 19.4342 50.1626C19.3492 50.0509 19.3067 49.9018 19.3067 49.7151C19.3067 49.6418 19.3201 49.5659 19.3467 49.4876C19.3734 49.4093 19.4142 49.3318 19.4692 49.2551C19.5242 49.1784 19.5917 49.1051 19.6717 49.0351C19.7517 48.9651 19.8451 48.9034 19.9517 48.8501C19.7017 48.7101 19.5059 48.5243 19.3642 48.2926C19.2226 48.0609 19.1517 47.7901 19.1517 47.4801C19.1517 47.2334 19.1992 47.0093 19.2942 46.8076C19.3892 46.6059 19.5217 46.4343 19.6917 46.2926C19.8617 46.1509 20.0642 46.0418 20.2992 45.9651C20.5342 45.8884 20.7917 45.8501 21.0717 45.8501ZM22.6517 51.2751C22.6517 51.1484 22.6167 51.0468 22.5467 50.9701C22.4767 50.8934 22.3817 50.8343 22.2617 50.7926C22.1417 50.7509 22.0034 50.7201 21.8467 50.7001C21.6901 50.6801 21.5251 50.6659 21.3517 50.6576C21.1784 50.6493 21.0017 50.6401 20.8217 50.6301C20.6417 50.6201 20.4701 50.6018 20.3067 50.5751C20.1167 50.6651 19.9626 50.7751 19.8442 50.9051C19.7259 51.0351 19.6667 51.1901 19.6667 51.3701C19.6667 51.4834 19.6959 51.5893 19.7542 51.6876C19.8126 51.7859 19.9017 51.8709 20.0217 51.9426C20.1417 52.0143 20.2926 52.0709 20.4742 52.1126C20.6559 52.1543 20.8701 52.1751 21.1167 52.1751C21.3567 52.1751 21.5717 52.1534 21.7617 52.1101C21.9517 52.0668 22.1126 52.0051 22.2442 51.9251C22.3759 51.8451 22.4767 51.7501 22.5467 51.6401C22.6167 51.5301 22.6517 51.4084 22.6517 51.2751ZM21.0717 48.5251C21.2517 48.5251 21.4109 48.5001 21.5492 48.4501C21.6876 48.4001 21.8034 48.3301 21.8967 48.2401C21.9901 48.1501 22.0601 48.0426 22.1067 47.9176C22.1534 47.7926 22.1767 47.6551 22.1767 47.5051C22.1767 47.1951 22.0826 46.9484 21.8942 46.7651C21.7059 46.5818 21.4317 46.4901 21.0717 46.4901C20.7151 46.4901 20.4426 46.5818 20.2542 46.7651C20.0659 46.9484 19.9717 47.1951 19.9717 47.5051C19.9717 47.6551 19.9959 47.7926 20.0442 47.9176C20.0926 48.0426 20.1634 48.1501 20.2567 48.2401C20.3501 48.3301 20.4651 48.4001 20.6017 48.4501C20.7384 48.5001 20.8951 48.5251 21.0717 48.5251Z" fill="#575757"/>
<path d="M26.4817 45.855C26.785 45.855 27.065 45.9058 27.3217 46.0075C27.5784 46.1091 27.8 46.2558 27.9867 46.4475C28.1734 46.6391 28.3192 46.8758 28.4242 47.1575C28.5292 47.4391 28.5817 47.76 28.5817 48.12C28.5817 48.26 28.5667 48.3533 28.5367 48.4C28.5067 48.4466 28.45 48.47 28.3667 48.47H24.9967C25.0034 48.79 25.0467 49.0683 25.1267 49.305C25.2067 49.5416 25.3167 49.7391 25.4567 49.8975C25.5967 50.0558 25.7634 50.1741 25.9567 50.2525C26.15 50.3308 26.3667 50.37 26.6067 50.37C26.83 50.37 27.0225 50.3441 27.1842 50.2925C27.3459 50.2408 27.485 50.185 27.6017 50.125C27.7184 50.065 27.8159 50.0091 27.8942 49.9575C27.9725 49.9058 28.04 49.88 28.0967 49.88C28.17 49.88 28.2267 49.9083 28.2667 49.965L28.5167 50.29C28.4067 50.4233 28.275 50.5391 28.1217 50.6375C27.9684 50.7358 27.8042 50.8166 27.6292 50.88C27.4542 50.9433 27.2734 50.9908 27.0867 51.0225C26.9 51.0541 26.715 51.07 26.5317 51.07C26.1817 51.07 25.8592 51.0108 25.5642 50.8925C25.2692 50.7741 25.0142 50.6008 24.7992 50.3725C24.5842 50.1441 24.4167 49.8616 24.2967 49.525C24.1767 49.1883 24.1167 48.8016 24.1167 48.365C24.1167 48.0116 24.1709 47.6816 24.2792 47.375C24.3875 47.0683 24.5434 46.8025 24.7467 46.5775C24.95 46.3525 25.1984 46.1758 25.4917 46.0475C25.785 45.9191 26.115 45.855 26.4817 45.855ZM26.5017 46.51C26.0717 46.51 25.7334 46.6341 25.4867 46.8825C25.24 47.1308 25.0867 47.475 25.0267 47.915H27.7817C27.7817 47.7083 27.7534 47.5191 27.6967 47.3475C27.64 47.1758 27.5567 47.0275 27.4467 46.9025C27.3367 46.7775 27.2025 46.6808 27.0442 46.6125C26.8859 46.5441 26.705 46.51 26.5017 46.51Z" fill="#575757"/>
<path d="M36.2016 43.835V44.625H32.7616V47.13H35.7016V47.92H32.7616V51H31.7866V43.835H36.2016Z" fill="#575757"/>
<path d="M38.2968 45.9351V51.0001H37.4068V45.9351H38.2968ZM38.4968 44.3451C38.4968 44.4317 38.4793 44.5126 38.4443 44.5876C38.4093 44.6626 38.3626 44.7292 38.3043 44.7876C38.246 44.8459 38.1785 44.8917 38.1018 44.9251C38.0251 44.9584 37.9435 44.9751 37.8568 44.9751C37.7701 44.9751 37.6893 44.9584 37.6143 44.9251C37.5393 44.8917 37.4726 44.8459 37.4143 44.7876C37.356 44.7292 37.3101 44.6626 37.2768 44.5876C37.2435 44.5126 37.2268 44.4317 37.2268 44.3451C37.2268 44.2584 37.2435 44.1759 37.2768 44.0976C37.3101 44.0192 37.356 43.9509 37.4143 43.8926C37.4726 43.8342 37.5393 43.7884 37.6143 43.7551C37.6893 43.7217 37.7701 43.7051 37.8568 43.7051C37.9435 43.7051 38.0251 43.7217 38.1018 43.7551C38.1785 43.7884 38.246 43.8342 38.3043 43.8926C38.3626 43.9509 38.4093 44.0192 38.4443 44.0976C38.4793 44.1759 38.4968 44.2584 38.4968 44.3451Z" fill="#575757"/>
<path d="M39.9382 51V45.935H40.4682C40.5949 45.935 40.6749 45.9966 40.7082 46.12L40.7782 46.67C40.9982 46.4266 41.2441 46.23 41.5157 46.08C41.7874 45.93 42.1016 45.855 42.4582 45.855C42.7349 45.855 42.9791 45.9008 43.1907 45.9925C43.4024 46.0841 43.5791 46.2141 43.7207 46.3825C43.8624 46.5508 43.9699 46.7533 44.0432 46.99C44.1166 47.2266 44.1532 47.4883 44.1532 47.775V51H43.2632V47.775C43.2632 47.3916 43.1757 47.0941 43.0007 46.8825C42.8257 46.6708 42.5582 46.565 42.1982 46.565C41.9349 46.565 41.6891 46.6283 41.4607 46.755C41.2324 46.8816 41.0216 47.0533 40.8282 47.27V51H39.9382Z" fill="#575757"/>
<path d="M47.033 51.08C46.633 51.08 46.3255 50.9684 46.1105 50.745C45.8955 50.5217 45.788 50.2 45.788 49.78V46.68H45.178C45.1247 46.68 45.0797 46.6642 45.043 46.6325C45.0064 46.6009 44.988 46.5517 44.988 46.485V46.13L45.818 46.025L46.023 44.46C46.0297 44.41 46.0514 44.3692 46.088 44.3375C46.1247 44.3059 46.1714 44.29 46.228 44.29H46.678V46.035H48.128V46.68H46.678V49.72C46.678 49.9334 46.7297 50.0917 46.833 50.195C46.9364 50.2984 47.0697 50.35 47.233 50.35C47.3264 50.35 47.4072 50.3375 47.4755 50.3125C47.5439 50.2875 47.603 50.26 47.653 50.23C47.703 50.2 47.7455 50.1725 47.7805 50.1475C47.8155 50.1225 47.8464 50.11 47.873 50.11C47.9197 50.11 47.9614 50.1384 47.998 50.195L48.258 50.62C48.1047 50.7634 47.9197 50.8759 47.703 50.9575C47.4864 51.0392 47.263 51.08 47.033 51.08Z" fill="#575757"/>
<path d="M51.2332 45.855C51.5365 45.855 51.8165 45.9058 52.0732 46.0075C52.3298 46.1091 52.5515 46.2558 52.7382 46.4475C52.9248 46.6391 53.0707 46.8758 53.1757 47.1575C53.2807 47.4391 53.3332 47.76 53.3332 48.12C53.3332 48.26 53.3182 48.3533 53.2882 48.4C53.2582 48.4466 53.2015 48.47 53.1182 48.47H49.7482C49.7548 48.79 49.7982 49.0683 49.8782 49.305C49.9582 49.5416 50.0682 49.7391 50.2082 49.8975C50.3482 50.0558 50.5148 50.1741 50.7082 50.2525C50.9015 50.3308 51.1182 50.37 51.3582 50.37C51.5815 50.37 51.774 50.3441 51.9357 50.2925C52.0973 50.2408 52.2365 50.185 52.3532 50.125C52.4698 50.065 52.5673 50.0091 52.6457 49.9575C52.724 49.9058 52.7915 49.88 52.8482 49.88C52.9215 49.88 52.9782 49.9083 53.0182 49.965L53.2682 50.29C53.1582 50.4233 53.0265 50.5391 52.8732 50.6375C52.7198 50.7358 52.5557 50.8166 52.3807 50.88C52.2057 50.9433 52.0248 50.9908 51.8382 51.0225C51.6515 51.0541 51.4665 51.07 51.2832 51.07C50.9332 51.07 50.6107 51.0108 50.3157 50.8925C50.0207 50.7741 49.7657 50.6008 49.5507 50.3725C49.3357 50.1441 49.1682 49.8616 49.0482 49.525C48.9282 49.1883 48.8682 48.8016 48.8682 48.365C48.8682 48.0116 48.9223 47.6816 49.0307 47.375C49.139 47.0683 49.2948 46.8025 49.4982 46.5775C49.7015 46.3525 49.9498 46.1758 50.2432 46.0475C50.5365 45.9191 50.8665 45.855 51.2332 45.855ZM51.2532 46.51C50.8232 46.51 50.4848 46.6341 50.2382 46.8825C49.9915 47.1308 49.8382 47.475 49.7782 47.915H52.5332C52.5332 47.7083 52.5048 47.5191 52.4482 47.3475C52.3915 47.1758 52.3082 47.0275 52.1982 46.9025C52.0882 46.7775 51.954 46.6808 51.7957 46.6125C51.6373 46.5441 51.4565 46.51 51.2532 46.51Z" fill="#575757"/>
<path d="M57.9232 46.835C57.8965 46.8716 57.8698 46.9 57.8432 46.92C57.8165 46.94 57.7782 46.95 57.7282 46.95C57.6782 46.95 57.624 46.9291 57.5657 46.8875C57.5073 46.8458 57.4332 46.8 57.3432 46.75C57.2532 46.7 57.144 46.6541 57.0157 46.6125C56.8873 46.5708 56.7298 46.55 56.5432 46.55C56.2965 46.55 56.0782 46.5941 55.8882 46.6825C55.6982 46.7708 55.539 46.8983 55.4107 47.065C55.2823 47.2316 55.1857 47.4333 55.1207 47.67C55.0557 47.9066 55.0232 48.1716 55.0232 48.465C55.0232 48.7716 55.0582 49.0441 55.1282 49.2825C55.1982 49.5208 55.2965 49.7208 55.4232 49.8825C55.5498 50.0441 55.704 50.1675 55.8857 50.2525C56.0673 50.3375 56.2715 50.38 56.4982 50.38C56.7148 50.38 56.8932 50.3541 57.0332 50.3025C57.1732 50.2508 57.2898 50.1933 57.3832 50.13C57.4765 50.0666 57.5532 50.0091 57.6132 49.9575C57.6732 49.9058 57.7332 49.88 57.7932 49.88C57.8698 49.88 57.9265 49.9083 57.9632 49.965L58.2132 50.29C57.9932 50.56 57.7182 50.7575 57.3882 50.8825C57.0582 51.0075 56.7098 51.07 56.3432 51.07C56.0265 51.07 55.7323 51.0116 55.4607 50.895C55.189 50.7783 54.9532 50.6091 54.7532 50.3875C54.5532 50.1658 54.3957 49.8933 54.2807 49.57C54.1657 49.2466 54.1082 48.8783 54.1082 48.465C54.1082 48.0883 54.1607 47.74 54.2657 47.42C54.3707 47.1 54.524 46.8241 54.7257 46.5925C54.9273 46.3608 55.1765 46.18 55.4732 46.05C55.7698 45.92 56.1098 45.855 56.4932 45.855C56.8465 45.855 57.1598 45.9125 57.4332 46.0275C57.7065 46.1425 57.9482 46.305 58.1582 46.515L57.9232 46.835Z" fill="#575757"/>
<path d="M59.1382 51V43.635H60.0282V46.615C60.2448 46.385 60.4849 46.2008 60.7482 46.0625C61.0115 45.9242 61.3149 45.855 61.6582 45.855C61.9349 45.855 62.179 45.9008 62.3907 45.9925C62.6023 46.0842 62.779 46.2142 62.9207 46.3825C63.0623 46.5508 63.1698 46.7533 63.2432 46.99C63.3165 47.2267 63.3532 47.4883 63.3532 47.775V51H62.4632V47.775C62.4632 47.3917 62.3757 47.0942 62.2007 46.8825C62.0257 46.6708 61.7582 46.565 61.3982 46.565C61.1348 46.565 60.889 46.6283 60.6607 46.755C60.4323 46.8817 60.2215 47.0533 60.0282 47.27V51H59.1382Z" fill="#575757"/>
<path d="M70.4382 44.9551C70.4082 45.0051 70.3766 45.0426 70.3432 45.0676C70.3099 45.0926 70.2666 45.1051 70.2132 45.1051C70.1566 45.1051 70.0907 45.0768 70.0157 45.0201C69.9407 44.9635 69.8457 44.901 69.7307 44.8326C69.6157 44.7643 69.4774 44.7018 69.3157 44.6451C69.1541 44.5885 68.9582 44.5601 68.7282 44.5601C68.5116 44.5601 68.3199 44.5893 68.1532 44.6476C67.9866 44.706 67.8474 44.7851 67.7357 44.8851C67.6241 44.9851 67.5399 45.1026 67.4832 45.2376C67.4266 45.3726 67.3982 45.5185 67.3982 45.6751C67.3982 45.8751 67.4474 46.041 67.5457 46.1726C67.6441 46.3043 67.7741 46.4168 67.9357 46.5101C68.0974 46.6035 68.2807 46.6843 68.4857 46.7526C68.6907 46.821 68.9007 46.8918 69.1157 46.9651C69.3307 47.0385 69.5407 47.121 69.7457 47.2126C69.9507 47.3043 70.1341 47.4201 70.2957 47.5601C70.4574 47.7001 70.5874 47.8718 70.6857 48.0751C70.7841 48.2785 70.8332 48.5285 70.8332 48.8251C70.8332 49.1385 70.7799 49.4326 70.6732 49.7076C70.5666 49.9826 70.4107 50.2218 70.2057 50.4251C70.0007 50.6285 69.7491 50.7885 69.4507 50.9051C69.1524 51.0218 68.8132 51.0801 68.4332 51.0801C67.9699 51.0801 67.5474 50.996 67.1657 50.8276C66.7841 50.6593 66.4582 50.4318 66.1882 50.1451L66.4682 49.6851C66.4949 49.6485 66.5274 49.6176 66.5657 49.5926C66.6041 49.5676 66.6466 49.5551 66.6932 49.5551C66.7632 49.5551 66.8432 49.5926 66.9332 49.6676C67.0232 49.7426 67.1357 49.8251 67.2707 49.9151C67.4057 50.0051 67.5691 50.0876 67.7607 50.1626C67.9524 50.2376 68.1866 50.2751 68.4632 50.2751C68.6932 50.2751 68.8982 50.2435 69.0782 50.1801C69.2582 50.1168 69.4107 50.0276 69.5357 49.9126C69.6607 49.7976 69.7566 49.6601 69.8232 49.5001C69.8899 49.3401 69.9232 49.1618 69.9232 48.9651C69.9232 48.7485 69.8741 48.571 69.7757 48.4326C69.6774 48.2943 69.5482 48.1785 69.3882 48.0851C69.2282 47.9918 69.0457 47.9126 68.8407 47.8476C68.6357 47.7826 68.4257 47.716 68.2107 47.6476C67.9957 47.5793 67.7857 47.5001 67.5807 47.4101C67.3757 47.3201 67.1932 47.2035 67.0332 47.0601C66.8732 46.9168 66.7441 46.7376 66.6457 46.5226C66.5474 46.3076 66.4982 46.0418 66.4982 45.7251C66.4982 45.4718 66.5474 45.2268 66.6457 44.9901C66.7441 44.7535 66.8866 44.5435 67.0732 44.3601C67.2599 44.1768 67.4907 44.0301 67.7657 43.9201C68.0407 43.8101 68.3566 43.7551 68.7132 43.7551C69.1132 43.7551 69.4782 43.8185 69.8082 43.9451C70.1382 44.0718 70.4266 44.2551 70.6732 44.4951L70.4382 44.9551Z" fill="#575757"/>
<path d="M73.9781 45.855C74.3481 45.855 74.6823 45.9166 74.9806 46.04C75.2789 46.1633 75.5323 46.3383 75.7406 46.565C75.9489 46.7916 76.1089 47.0658 76.2206 47.3875C76.3323 47.7091 76.3881 48.0683 76.3881 48.465C76.3881 48.865 76.3323 49.225 76.2206 49.545C76.1089 49.865 75.9489 50.1383 75.7406 50.365C75.5323 50.5916 75.2789 50.7658 74.9806 50.8875C74.6823 51.0091 74.3481 51.07 73.9781 51.07C73.6081 51.07 73.2739 51.0091 72.9756 50.8875C72.6773 50.7658 72.4231 50.5916 72.2131 50.365C72.0031 50.1383 71.8414 49.865 71.7281 49.545C71.6148 49.225 71.5581 48.865 71.5581 48.465C71.5581 48.0683 71.6148 47.7091 71.7281 47.3875C71.8414 47.0658 72.0031 46.7916 72.2131 46.565C72.4231 46.3383 72.6773 46.1633 72.9756 46.04C73.2739 45.9166 73.6081 45.855 73.9781 45.855ZM73.9781 50.375C74.4781 50.375 74.8514 50.2075 75.0981 49.8725C75.3448 49.5375 75.4681 49.07 75.4681 48.47C75.4681 47.8666 75.3448 47.3966 75.0981 47.06C74.8514 46.7233 74.4781 46.555 73.9781 46.555C73.7248 46.555 73.5048 46.5983 73.3181 46.685C73.1314 46.7716 72.9756 46.8966 72.8506 47.06C72.7256 47.2233 72.6323 47.4241 72.5706 47.6625C72.5089 47.9008 72.4781 48.17 72.4781 48.47C72.4781 48.77 72.5089 49.0383 72.5706 49.275C72.6323 49.5116 72.7256 49.7108 72.8506 49.8725C72.9756 50.0341 73.1314 50.1583 73.3181 50.245C73.5048 50.3316 73.7248 50.375 73.9781 50.375Z" fill="#575757"/>
<path d="M78.4781 43.635V51H77.5881V43.635H78.4781Z" fill="#575757"/>
<path d="M80.8182 45.9351V49.1651C80.8182 49.5484 80.9066 49.8451 81.0832 50.0551C81.2599 50.2651 81.5266 50.3701 81.8832 50.3701C82.1432 50.3701 82.3882 50.3084 82.6182 50.1851C82.8482 50.0617 83.0599 49.8901 83.2532 49.6701V45.9351H84.1432V51.0001H83.6132C83.4866 51.0001 83.4066 50.9384 83.3732 50.8151L83.3032 50.2701C83.0832 50.5134 82.8366 50.7092 82.5632 50.8576C82.2899 51.0059 81.9766 51.0801 81.6232 51.0801C81.3466 51.0801 81.1024 51.0342 80.8907 50.9426C80.6791 50.8509 80.5016 50.7217 80.3582 50.5551C80.2149 50.3884 80.1074 50.1867 80.0357 49.9501C79.9641 49.7134 79.9282 49.4517 79.9282 49.1651V45.9351H80.8182Z" fill="#575757"/>
<path d="M87.1431 51.08C86.7431 51.08 86.4356 50.9684 86.2206 50.745C86.0056 50.5217 85.8981 50.2 85.8981 49.78V46.68H85.2881C85.2348 46.68 85.1898 46.6642 85.1531 46.6325C85.1165 46.6009 85.0981 46.5517 85.0981 46.485V46.13L85.9281 46.025L86.1331 44.46C86.1398 44.41 86.1615 44.3692 86.1981 44.3375C86.2348 44.3059 86.2815 44.29 86.3381 44.29H86.7881V46.035H88.2381V46.68H86.7881V49.72C86.7881 49.9334 86.8398 50.0917 86.9431 50.195C87.0465 50.2984 87.1798 50.35 87.3431 50.35C87.4365 50.35 87.5173 50.3375 87.5856 50.3125C87.654 50.2875 87.7131 50.26 87.7631 50.23C87.8131 50.2 87.8556 50.1725 87.8906 50.1475C87.9256 50.1225 87.9565 50.11 87.9831 50.11C88.0298 50.11 88.0715 50.1384 88.1081 50.195L88.3681 50.62C88.2148 50.7634 88.0298 50.8759 87.8131 50.9575C87.5965 51.0392 87.3731 51.08 87.1431 51.08Z" fill="#575757"/>
<path d="M90.3283 45.9351V51.0001H89.4383V45.9351H90.3283ZM90.5283 44.3451C90.5283 44.4317 90.5108 44.5126 90.4758 44.5876C90.4408 44.6626 90.3941 44.7292 90.3358 44.7876C90.2775 44.8459 90.21 44.8917 90.1333 44.9251C90.0566 44.9584 89.975 44.9751 89.8883 44.9751C89.8016 44.9751 89.7208 44.9584 89.6458 44.9251C89.5708 44.8917 89.5041 44.8459 89.4458 44.7876C89.3875 44.7292 89.3416 44.6626 89.3083 44.5876C89.275 44.5126 89.2583 44.4317 89.2583 44.3451C89.2583 44.2584 89.275 44.1759 89.3083 44.0976C89.3416 44.0192 89.3875 43.9509 89.4458 43.8926C89.5041 43.8342 89.5708 43.7884 89.6458 43.7551C89.7208 43.7217 89.8016 43.7051 89.8883 43.7051C89.975 43.7051 90.0566 43.7217 90.1333 43.7551C90.21 43.7884 90.2775 43.8342 90.3358 43.8926C90.3941 43.9509 90.4408 44.0192 90.4758 44.0976C90.5108 44.1759 90.5283 44.2584 90.5283 44.3451Z" fill="#575757"/>
<path d="M93.9483 45.855C94.3183 45.855 94.6525 45.9166 94.9508 46.04C95.2492 46.1633 95.5025 46.3383 95.7108 46.565C95.9192 46.7916 96.0792 47.0658 96.1908 47.3875C96.3025 47.7091 96.3583 48.0683 96.3583 48.465C96.3583 48.865 96.3025 49.225 96.1908 49.545C96.0792 49.865 95.9192 50.1383 95.7108 50.365C95.5025 50.5916 95.2492 50.7658 94.9508 50.8875C94.6525 51.0091 94.3183 51.07 93.9483 51.07C93.5783 51.07 93.2442 51.0091 92.9458 50.8875C92.6475 50.7658 92.3933 50.5916 92.1833 50.365C91.9733 50.1383 91.8117 49.865 91.6983 49.545C91.585 49.225 91.5283 48.865 91.5283 48.465C91.5283 48.0683 91.585 47.7091 91.6983 47.3875C91.8117 47.0658 91.9733 46.7916 92.1833 46.565C92.3933 46.3383 92.6475 46.1633 92.9458 46.04C93.2442 45.9166 93.5783 45.855 93.9483 45.855ZM93.9483 50.375C94.4483 50.375 94.8217 50.2075 95.0683 49.8725C95.315 49.5375 95.4383 49.07 95.4383 48.47C95.4383 47.8666 95.315 47.3966 95.0683 47.06C94.8217 46.7233 94.4483 46.555 93.9483 46.555C93.695 46.555 93.475 46.5983 93.2883 46.685C93.1017 46.7716 92.9458 46.8966 92.8208 47.06C92.6958 47.2233 92.6025 47.4241 92.5408 47.6625C92.4792 47.9008 92.4483 48.17 92.4483 48.47C92.4483 48.77 92.4792 49.0383 92.5408 49.275C92.6025 49.5116 92.6958 49.7108 92.8208 49.8725C92.9458 50.0341 93.1017 50.1583 93.2883 50.245C93.475 50.3316 93.695 50.375 93.9483 50.375Z" fill="#575757"/>
<path d="M97.458 51V45.935H97.988C98.1147 45.935 98.1947 45.9966 98.228 46.12L98.298 46.67C98.518 46.4266 98.7638 46.23 99.0355 46.08C99.3072 45.93 99.6213 45.855 99.978 45.855C100.255 45.855 100.499 45.9008 100.711 45.9925C100.922 46.0841 101.099 46.2141 101.241 46.3825C101.382 46.5508 101.49 46.7533 101.563 46.99C101.636 47.2266 101.673 47.4883 101.673 47.775V51H100.783V47.775C100.783 47.3916 100.696 47.0941 100.521 46.8825C100.346 46.6708 100.078 46.565 99.718 46.565C99.4547 46.565 99.2088 46.6283 98.9805 46.755C98.7522 46.8816 98.5413 47.0533 98.348 47.27V51H97.458Z" fill="#575757"/>
<path d="M105.918 46.77C105.878 46.8433 105.816 46.88 105.733 46.88C105.683 46.88 105.626 46.8616 105.563 46.825C105.5 46.7883 105.422 46.7475 105.331 46.7025C105.239 46.6575 105.13 46.6158 105.003 46.5775C104.876 46.5391 104.726 46.52 104.553 46.52C104.403 46.52 104.268 46.5391 104.148 46.5775C104.028 46.6158 103.926 46.6683 103.841 46.735C103.756 46.8016 103.691 46.8791 103.646 46.9675C103.601 47.0558 103.578 47.1516 103.578 47.255C103.578 47.385 103.616 47.4933 103.691 47.58C103.766 47.6666 103.865 47.7416 103.988 47.805C104.111 47.8683 104.251 47.9241 104.408 47.9725C104.565 48.0208 104.726 48.0725 104.891 48.1275C105.056 48.1825 105.216 48.2433 105.373 48.31C105.53 48.3766 105.67 48.46 105.793 48.56C105.916 48.66 106.016 48.7825 106.091 48.9275C106.166 49.0725 106.203 49.2466 106.203 49.45C106.203 49.6833 106.161 49.8991 106.078 50.0975C105.995 50.2958 105.871 50.4675 105.708 50.6125C105.545 50.7575 105.345 50.8716 105.108 50.955C104.871 51.0383 104.598 51.08 104.288 51.08C103.935 51.08 103.615 51.0225 103.328 50.9075C103.041 50.7925 102.798 50.645 102.598 50.465L102.808 50.125C102.835 50.0816 102.866 50.0483 102.903 50.025C102.94 50.0016 102.988 49.99 103.048 49.99C103.108 49.99 103.171 50.0133 103.238 50.06C103.305 50.1066 103.386 50.1583 103.481 50.215C103.576 50.2716 103.691 50.3233 103.826 50.37C103.961 50.4166 104.13 50.44 104.333 50.44C104.506 50.44 104.658 50.4175 104.788 50.3725C104.918 50.3275 105.026 50.2666 105.113 50.19C105.2 50.1133 105.264 50.025 105.306 49.925C105.347 49.825 105.368 49.7183 105.368 49.605C105.368 49.465 105.331 49.3491 105.256 49.2575C105.181 49.1658 105.081 49.0875 104.958 49.0225C104.835 48.9575 104.694 48.9008 104.536 48.8525C104.377 48.8041 104.216 48.7533 104.051 48.7C103.886 48.6466 103.724 48.5858 103.566 48.5175C103.407 48.4491 103.266 48.3633 103.143 48.26C103.02 48.1566 102.921 48.0291 102.846 47.8775C102.771 47.7258 102.733 47.5416 102.733 47.325C102.733 47.1316 102.773 46.9458 102.853 46.7675C102.933 46.5891 103.05 46.4325 103.203 46.2975C103.356 46.1625 103.545 46.055 103.768 45.975C103.991 45.895 104.246 45.855 104.533 45.855C104.866 45.855 105.166 45.9075 105.431 46.0125C105.696 46.1175 105.925 46.2616 106.118 46.445L105.918 46.77Z" fill="#575757"/>
<path d="M110.493 48.32V51H109.528V43.835H111.643C112.097 43.835 112.491 43.8875 112.826 43.9925C113.161 44.0975 113.438 44.2466 113.658 44.44C113.878 44.6333 114.042 44.8666 114.151 45.14C114.259 45.4133 114.313 45.7183 114.313 46.055C114.313 46.3883 114.255 46.6933 114.138 46.97C114.022 47.2466 113.851 47.485 113.626 47.685C113.401 47.885 113.122 48.0408 112.788 48.1525C112.455 48.2641 112.073 48.32 111.643 48.32H110.493ZM110.493 47.55H111.643C111.92 47.55 112.164 47.5133 112.376 47.44C112.587 47.3666 112.765 47.2641 112.908 47.1325C113.052 47.0008 113.16 46.8433 113.233 46.66C113.307 46.4766 113.343 46.275 113.343 46.055C113.343 45.5983 113.202 45.2416 112.921 44.985C112.639 44.7283 112.213 44.6 111.643 44.6H110.493V47.55Z" fill="#575757"/>
<path d="M114.758 45.9351H115.488C115.558 45.9351 115.617 45.9534 115.663 45.9901C115.71 46.0267 115.743 46.0701 115.763 46.1201L117.048 49.3801C117.095 49.5001 117.132 49.6201 117.158 49.7401C117.185 49.8601 117.21 49.9784 117.233 50.0951C117.26 49.9784 117.288 49.8601 117.318 49.7401C117.348 49.6201 117.387 49.5001 117.433 49.3801L118.733 46.1201C118.753 46.0667 118.786 46.0226 118.831 45.9876C118.876 45.9526 118.932 45.9351 118.998 45.9351H119.693L117.628 51.0001H116.823L114.758 45.9351Z" fill="#575757"/>
<path d="M122.053 51.08C121.653 51.08 121.346 50.9684 121.131 50.745C120.916 50.5217 120.808 50.2 120.808 49.78V46.68H120.198C120.145 46.68 120.1 46.6642 120.063 46.6325C120.027 46.6009 120.008 46.5517 120.008 46.485V46.13L120.838 46.025L121.043 44.46C121.05 44.41 121.072 44.3692 121.108 44.3375C121.145 44.3059 121.192 44.29 121.248 44.29H121.698V46.035H123.148V46.68H121.698V49.72C121.698 49.9334 121.75 50.0917 121.853 50.195C121.957 50.2984 122.09 50.35 122.253 50.35C122.347 50.35 122.427 50.3375 122.496 50.3125C122.564 50.2875 122.623 50.26 122.673 50.23C122.723 50.2 122.766 50.1725 122.801 50.1475C122.836 50.1225 122.867 50.11 122.893 50.11C122.94 50.11 122.982 50.1384 123.018 50.195L123.278 50.62C123.125 50.7634 122.94 50.8759 122.723 50.9575C122.507 51.0392 122.283 51.08 122.053 51.08Z" fill="#575757"/>
<path d="M127.288 50.185H130.388V51H126.318V43.835H127.288V50.185Z" fill="#575757"/>
<path d="M132.853 51.08C132.453 51.08 132.146 50.9684 131.931 50.745C131.716 50.5217 131.608 50.2 131.608 49.78V46.68H130.998C130.945 46.68 130.9 46.6642 130.863 46.6325C130.826 46.6009 130.808 46.5517 130.808 46.485V46.13L131.638 46.025L131.843 44.46C131.85 44.41 131.871 44.3692 131.908 44.3375C131.945 44.3059 131.991 44.29 132.048 44.29H132.498V46.035H133.948V46.68H132.498V49.72C132.498 49.9334 132.55 50.0917 132.653 50.195C132.756 50.2984 132.89 50.35 133.053 50.35C133.146 50.35 133.227 50.3375 133.296 50.3125C133.364 50.2875 133.423 50.26 133.473 50.23C133.523 50.2 133.566 50.1725 133.601 50.1475C133.636 50.1225 133.666 50.11 133.693 50.11C133.74 50.11 133.781 50.1384 133.818 50.195L134.078 50.62C133.925 50.7634 133.74 50.8759 133.523 50.9575C133.306 51.0392 133.083 51.08 132.853 51.08Z" fill="#575757"/>
<path d="M138.613 51C138.487 51 138.407 50.9383 138.373 50.815L138.293 50.2C138.077 50.4633 137.829 50.6742 137.551 50.8325C137.272 50.9908 136.953 51.07 136.593 51.07C136.303 51.07 136.04 51.0142 135.803 50.9025C135.567 50.7908 135.365 50.6267 135.198 50.41C135.032 50.1933 134.903 49.9233 134.813 49.6C134.723 49.2767 134.678 48.905 134.678 48.485C134.678 48.1117 134.728 47.7642 134.828 47.4425C134.928 47.1208 135.072 46.8417 135.261 46.605C135.449 46.3683 135.678 46.1825 135.948 46.0475C136.218 45.9125 136.525 45.845 136.868 45.845C137.178 45.845 137.443 45.8975 137.663 46.0025C137.883 46.1075 138.08 46.255 138.253 46.445V43.635H139.143V51H138.613ZM136.888 50.35C137.178 50.35 137.432 50.2833 137.651 50.15C137.869 50.0167 138.07 49.8283 138.253 49.585V47.135C138.09 46.915 137.911 46.7608 137.716 46.6725C137.521 46.5842 137.305 46.54 137.068 46.54C136.595 46.54 136.232 46.7083 135.978 47.045C135.725 47.3817 135.598 47.8617 135.598 48.485C135.598 48.815 135.627 49.0975 135.683 49.3325C135.74 49.5675 135.823 49.7608 135.933 49.9125C136.043 50.0642 136.178 50.175 136.338 50.245C136.498 50.315 136.682 50.35 136.888 50.35Z" fill="#575757"/>
</svg>
