<svg width="340" height="125" viewBox="0 0 340 125" fill="none" xmlns="http://www.w3.org/2000/svg">
<g filter="url(#filter0_d_722_5007)">
<circle cx="170.05" cy="59.4" r="59.4" fill="#FFE4A2"/>
<path d="M187.488 63.7911C185.607 62.6761 183.177 63.2981 182.063 65.18C179.856 68.9041 175.666 71.2173 171.128 71.2173C166.473 71.2173 162.241 68.7758 160.086 64.8455C159.035 62.9281 156.628 62.2254 154.71 63.2773C152.792 64.3286 152.09 66.7359 153.142 68.6534C156.688 75.12 163.58 79.1374 171.128 79.1374C178.451 79.1374 185.252 75.3359 188.877 69.2161C189.992 67.3348 189.37 64.9056 187.488 63.7911Z" fill="#514C9F"/>
<path d="M169.95 0.400146C155.061 0.400146 141.051 5.83419 130.129 15.7594C128.014 14.5098 125.952 13.8638 123.974 13.8638C112.399 13.8638 111.5 33.1417 111.5 39.0501C111.5 41.0217 111.87 42.9756 112.527 44.7392C111.236 49.6091 110.55 54.6617 110.55 59.8001C110.55 92.5533 137.197 119.2 169.95 119.2C202.703 119.2 229.35 92.5533 229.35 59.8001C229.35 27.047 202.703 0.400146 169.95 0.400146ZM123.974 21.7838C124.316 21.7838 125.615 21.9371 127.994 23.9326C129.71 25.3429 131.538 27.4588 133.272 30.0396C135.876 33.9454 137.042 37.3794 137.042 39.0501C137.042 43.919 133.08 47.8803 128.211 47.8803C126.27 47.8803 124.506 47.2049 122.963 46.0543C121.75 45.1798 120.827 43.9898 120.218 42.6295C119.698 41.5373 119.42 40.3024 119.42 39.0503C119.42 29.3261 121.868 21.7838 123.974 21.7838ZM169.95 111.28C141.563 111.28 118.47 88.1866 118.47 59.8001C118.47 57.4805 118.623 55.1801 118.928 52.914C119.008 52.9691 119.091 53.016 119.172 53.0696C119.331 53.1756 119.491 53.2772 119.654 53.3773C119.859 53.504 120.066 53.6262 120.275 53.7432C120.44 53.8356 120.607 53.9252 120.775 54.0116C120.989 54.1215 121.206 54.2251 121.424 54.3251C121.594 54.4029 121.764 54.4798 121.936 54.5514C122.16 54.6446 122.387 54.7298 122.615 54.8127C122.788 54.8755 122.959 54.9392 123.134 54.9961C123.37 55.0728 123.609 55.1395 123.848 55.2054C124.02 55.2526 124.19 55.303 124.364 55.3446C124.616 55.4049 124.871 55.453 125.126 55.5013C125.292 55.5327 125.456 55.5693 125.623 55.5956C125.906 55.6402 126.193 55.6699 126.479 55.6997C126.622 55.7145 126.763 55.7367 126.907 55.7477C127.338 55.7813 127.773 55.8 128.211 55.8C137.447 55.8 144.962 48.2861 144.962 39.0499C144.962 33.8562 141.395 27.9459 139.854 25.6346C139.282 24.7828 138.702 23.9793 138.118 23.216C137.942 22.9857 137.762 22.783 137.585 22.561C137.173 22.0443 136.76 21.5318 136.344 21.0608C136.305 21.017 136.267 20.9647 136.229 20.9213C145.574 12.768 157.404 8.32015 169.95 8.32015C198.336 8.32015 221.43 31.4137 221.43 59.8001C221.43 88.1866 198.336 111.28 169.95 111.28Z" fill="#514C9F"/>
<path d="M127.994 23.9326C125.615 21.9371 124.316 21.7838 123.974 21.7838C121.868 21.7838 119.42 29.3261 119.42 39.0503C119.42 40.3024 119.698 41.5373 120.218 42.6295C120.828 43.9898 121.75 45.1798 122.963 46.0543C124.506 47.2049 126.271 47.8803 128.211 47.8803C133.081 47.8803 137.042 43.919 137.042 39.0501C137.042 37.3794 135.876 33.9454 133.272 30.0396C131.538 27.4588 129.71 25.3429 127.994 23.9326Z" fill="#B9B7D9"/>
<path d="M158.517 26.9606C157.149 25.2565 154.656 24.9832 152.95 26.3529L142.401 34.8253C140.695 36.1942 140.423 38.6867 141.793 40.3921C142.575 41.366 143.723 41.8726 144.883 41.8726C145.753 41.8726 146.629 41.5871 147.36 41L157.909 32.5276C159.615 31.1584 159.887 28.666 158.517 26.9606Z" fill="#514C9F"/>
<path d="M197.226 34.0653L185.346 26.1453C183.526 24.9311 181.066 25.4241 179.855 27.2436C178.642 29.063 179.133 31.5219 180.953 32.735L192.833 40.655C193.508 41.1049 194.271 41.3208 195.026 41.3208C196.306 41.3208 197.561 40.7015 198.324 39.5568C199.537 37.7372 199.046 35.2784 197.226 34.0653Z" fill="#514C9F"/>
<path d="M157.41 57.1601C160.69 57.1601 163.35 53.6142 163.35 49.2401C163.35 44.866 160.69 41.3201 157.41 41.3201C154.129 41.3201 151.47 44.866 151.47 49.2401C151.47 53.6142 154.129 57.1601 157.41 57.1601Z" fill="#514C9F"/>
<path d="M185.129 57.1602C188.41 57.1602 191.069 53.6143 191.069 49.2402C191.069 44.8661 188.41 41.3202 185.129 41.3202C181.849 41.3202 179.189 44.8661 179.189 49.2402C179.189 53.6143 181.849 57.1602 185.129 57.1602Z" fill="#514C9F"/>
</g>
<defs>
<filter id="filter0_d_722_5007" x="105.27" y="0" width="124.181" height="124.48" filterUnits="userSpaceOnUse" color-interpolation-filters="sRGB">
<feFlood flood-opacity="0" result="BackgroundImageFix"/>
<feColorMatrix in="SourceAlpha" type="matrix" values="0 0 0 0 0 0 0 0 0 0 0 0 0 0 0 0 0 0 127 0" result="hardAlpha"/>
<feOffset dx="-5.28" dy="5.28"/>
<feComposite in2="hardAlpha" operator="out"/>
<feColorMatrix type="matrix" values="0 0 0 0 0.317647 0 0 0 0 0.298039 0 0 0 0 0.623529 0 0 0 0.4 0"/>
<feBlend mode="normal" in2="BackgroundImageFix" result="effect1_dropShadow_722_5007"/>
<feBlend mode="normal" in="SourceGraphic" in2="effect1_dropShadow_722_5007" result="shape"/>
</filter>
</defs>
</svg>
