<svg width="144" height="101" viewBox="0 0 144 101" fill="none" xmlns="http://www.w3.org/2000/svg">
<path d="M13.1983 0C6.24834 0 0.597778 5.65056 0.597778 12.6005V69.303C0.597778 76.253 6.24834 81.9035 13.1983 81.9035H32.0991V97.6542C32.0991 98.8552 32.7685 99.9381 33.8317 100.47C34.8949 101.001 36.1746 100.883 37.1394 100.174L61.4938 81.9035H130.802C137.752 81.9035 143.402 76.253 143.402 69.303V12.6005C143.402 5.65056 137.752 0 130.802 0H13.1983Z" fill="#ECEBFF"/>
<path d="M35.3352 48.4716L36.1864 42.1548L31.1688 46.0972L29.0184 42.2892L34.8872 39.9596L29.0632 37.7196L31.0792 34.0908L36.2312 37.9884L35.3352 31.582H39.5016L38.6056 37.9884L43.7128 34.0908L45.684 37.6748L39.86 40.0044L45.7288 42.334L43.6232 46.0524L38.6056 42.1548L39.4568 48.4716H35.3352ZM57.9977 48.4716L58.8489 42.1548L53.8313 46.0972L51.6809 42.2892L57.5497 39.9596L51.7257 37.7196L53.7417 34.0908L58.8937 37.9884L57.9977 31.582H62.1641L61.2681 37.9884L66.3753 34.0908L68.3465 37.6748L62.5225 40.0044L68.3913 42.334L66.2857 46.0524L61.2681 42.1548L62.1193 48.4716H57.9977ZM80.6602 48.4716L81.5114 42.1548L76.4938 46.0972L74.3434 42.2892L80.2122 39.9596L74.3882 37.7196L76.4042 34.0908L81.5562 37.9884L80.6602 31.582H84.8266L83.9306 37.9884L89.0378 34.0908L91.009 37.6748L85.185 40.0044L91.0538 42.334L88.9482 46.0524L83.9306 42.1548L84.7818 48.4716H80.6602ZM103.323 48.4716L104.174 42.1548L99.1563 46.0972L97.0059 42.2892L102.875 39.9596L97.0507 37.7196L99.0667 34.0908L104.219 37.9884L103.323 31.582H107.489L106.593 37.9884L111.7 34.0908L113.672 37.6748L107.848 40.0044L113.716 42.334L111.611 46.0524L106.593 42.1548L107.444 48.4716H103.323Z" fill="#514C9F"/>
</svg>
