<svg width="100" height="100" viewBox="0 0 100 100" fill="none" xmlns="http://www.w3.org/2000/svg">
<circle cx="50" cy="50" r="50" fill="#FAE1CD"/>
<path d="M19.4155 44.4155C18.3517 44.4155 17.2878 44.4155 16.49 44.1495C15.1602 43.8836 14.0964 42.5538 14.3623 41.224C14.6283 39.8942 15.9581 38.8304 17.2878 39.0964C17.8198 39.0964 28.1921 40.6921 31.1176 32.4474C31.6495 31.1176 32.9793 30.3198 34.3091 30.8517C35.6389 31.3836 36.4368 32.7134 35.9049 34.0432C32.9793 42.5538 25.0006 44.4155 19.4155 44.4155Z" fill="#514C9F"/>
<path d="M80.5834 44.4157C74.9983 44.4157 67.0195 42.288 64.36 34.3093C63.8281 32.9795 64.6259 31.6497 65.9557 31.1178C67.2855 30.5859 68.6153 31.3837 69.1472 32.7135C72.0727 40.9582 82.977 39.3625 82.977 39.3625C84.3068 39.0965 85.6366 39.8944 85.9025 41.4901C86.1685 42.8199 85.1047 44.1497 83.7749 44.4157C82.711 44.4157 81.6472 44.4157 80.5834 44.4157Z" fill="#514C9F"/>
<path d="M76.5941 54.788C77.126 54.788 77.658 55.054 77.9239 55.054C78.9877 55.5859 79.5197 57.4476 78.7218 58.5114C76.5941 61.7029 73.1367 63.2987 68.6154 63.2987C63.8282 63.2987 59.8388 61.171 57.9771 58.5114C57.1792 57.4476 57.4452 55.8519 58.509 55.054C59.5728 54.5221 61.1686 54.5221 61.9665 55.5859C63.0303 57.1816 65.6899 58.2455 68.3494 58.2455C71.009 58.2455 73.1367 57.1816 74.2005 55.5859C74.9984 55.054 75.7962 54.788 76.5941 54.788Z" fill="#514C9F"/>
<path d="M23.4029 54.7872C24.2008 54.7872 24.9986 55.0532 25.5306 55.851C26.5944 57.4468 28.722 58.5106 31.3816 58.5106C34.0412 58.5106 36.9667 57.4468 37.7646 55.851C38.5625 54.7872 40.1582 54.2553 41.222 55.3191C42.2859 56.117 42.8178 57.7128 42.0199 58.7766C39.8923 61.7021 35.9029 63.5638 31.3816 63.5638C26.8603 63.5638 23.4029 61.7021 21.2752 58.7766C20.7433 57.7128 21.0093 56.117 22.0731 55.3191C22.3391 54.7872 22.871 54.7872 23.4029 54.7872Z" fill="#514C9F"/>
<path d="M58.2443 83.2448H41.7549C40.4252 83.2448 39.3613 82.1809 39.3613 80.8511C39.3613 79.5214 40.4252 78.4575 41.7549 78.4575H58.2443C59.5741 78.4575 60.6379 79.5214 60.6379 80.8511C60.6379 82.1809 59.5741 83.2448 58.2443 83.2448Z" fill="#514C9F"/>
<path d="M50 4.78723C75 4.78723 94.9468 25 94.9468 49.734C94.9468 74.4681 75 94.9468 50 94.9468C25 94.9468 5.05319 74.734 5.05319 50C5.05319 25.266 25 4.78723 50 4.78723ZM50 0C22.3404 0 0 22.3404 0 50C0 77.6596 22.3404 100 50 100C77.6596 100 100 77.6596 100 50C100 22.3404 77.6596 0 50 0Z" fill="#514C9F"/>
</svg>
