<svg width="13" height="14" viewBox="0 0 13 14" fill="none" xmlns="http://www.w3.org/2000/svg">
<path d="M10.8852 13.0012L7.76521 9.88125C6.90521 10.4412 5.87521 10.7612 4.76521 10.7012C2.39521 10.5912 0.365206 8.74125 0.0452063 6.39125C-0.0604034 5.61018 0.0196474 4.81521 0.278861 4.07088C0.538075 3.32655 0.969147 2.65382 1.53708 2.10732C2.10502 1.56081 2.79382 1.15592 3.54757 0.925517C4.30132 0.695113 5.09877 0.645685 5.87521 0.781247C7.82521 1.11125 9.44521 2.63125 9.87521 4.56125C10.2052 6.02125 9.88521 7.38125 9.17521 8.46125L12.3052 11.5912C12.6952 11.9812 12.6952 12.6112 12.3052 13.0012C11.9152 13.3912 11.2752 13.3912 10.8852 13.0012ZM8.00521 5.71125C8.00521 4.06125 6.65521 2.71125 5.00521 2.71125C3.35521 2.71125 2.00521 4.06125 2.00521 5.71125C2.00521 7.36125 3.35521 8.71125 5.00521 8.71125C6.65521 8.71125 8.00521 7.36125 8.00521 5.71125Z" fill="black" fill-opacity="0.4"/>
</svg>
