<svg width="14" height="16" viewBox="0 0 14 16" fill="none" xmlns="http://www.w3.org/2000/svg">
<path d="M8.99373 1.14526C9.61689 4.21052 11.6211 6.58526 13.9453 7.41052C11.6211 8.21894 9.61689 10.6105 8.99373 13.6758C8.37058 10.6105 6.36636 8.21894 4.04215 7.41052C6.38321 6.58526 8.38742 4.21052 8.99373 1.14526Z" fill="#F4C110"/>
<path d="M2.98135 8.43789C3.35188 10.2905 4.56451 11.7221 5.9624 12.2105C4.56451 12.7158 3.35188 14.1474 2.98135 16C2.61082 14.1474 1.39819 12.7158 0.000296568 12.2274C1.39819 11.7221 2.61082 10.2905 2.98135 8.43789Z" fill="#F4C110"/>
<path d="M3.45265 -0.000183474C3.75581 1.46508 4.69897 2.61034 5.81055 2.99771C4.69897 3.38508 3.73897 4.53034 3.45265 5.99561C3.14949 4.53034 2.20634 3.38508 1.09476 2.99771C2.20634 2.61034 3.16634 1.46508 3.45265 -0.000183474Z" fill="#F4C110"/>
</svg>
